M48
;Layer_Color=9474304
;FILE_FORMAT=4:4
METRIC
;TYPE=PLATED
T1F00S00C0.3000
T2F00S00C0.5000
T3F00S00C0.6000
T4F00S00C0.8000
T5F00S00C0.9000
T6F00S00C1.0000
T7F00S00C1.1000
T8F00S00C1.2000
T9F00S00C1.4000
T10F00S00C1.5000
T11F00S00C3.0000
T12F00S00C3.2000
%
T01
X01200000Y01550000
X01250000
X01300000
X01409250Y01547500
X01450000Y01550000
X01500000
X01150000
X01100000
X01050000
X01000000
X00939750Y01552750
X00895750Y01552250
X00855500
X00815500Y01552500
X00970500Y01583500
X00775000Y01552750
X00734750
X00687500Y01553000
X00645250
X00605750
X00566000Y01553500
X00527000
X00485500Y01553000
X00447250
X00408000
X00366250Y01552500
X00329770Y01566250
Y01607000
Y01647641
X00324500Y01757750
Y01797250
X00358500Y01816250
X00350000Y01850000
X00300000
X00278250Y01761750
X00296250Y01731750
X00201250Y01704040
X00187500Y01660000
X00125000Y01800000
X00399500Y01816250
X00400000Y01850000
X00450000
X00441750Y01816250
X00482000Y01816500
X00522500Y01821750
X00500000Y01850000
X00548500Y01847000
X00570500Y01871750
X00572250Y01907250
X00590000Y01935000
X00550000Y01950000
X00625000Y01900000
X00600000Y01850000
X00575000Y01800000
X00675000
X00700000Y01650000
X00750000
X00775000Y01600000
X00784000Y01699000
X00650000Y01650000
X00600000
X00550000
X00500000
X00450000
X00400000
X00413750Y01715500
X00548500Y01718250
X00750000Y01950000
X00850000
X00875000Y01900000
X00825000
X00850000Y01850000
X00875000Y01800000
X00825000
X00850000Y01750000
X00825000Y01700000
X00850000Y01650000
X00800000
X00795500Y01602250
X00925000Y01600000
X00975000Y01700000
X01125000
X01175000
X01125000Y01900000
X01075000
X01025000
X00975000
X01000000Y01950000
X01225000Y01800000
X01250000Y01750000
X01300000
X01275000Y01700000
X01225000
X01250000Y01650000
X01200000
X01262750Y01600250
X01375000Y01600000
X01425000
X01475000
X01500000Y01650000
X01400000
X01577340Y01684592
Y01698498
Y01711896
Y01732344
Y01746250
Y01759648
Y01779334
Y01793240
Y01806638
X01582250Y01840000
X01554000
X01553750Y01887250
X01582250Y01887700
X01583250Y01933500
X01553250Y01933750
X01491250Y01934750
X01489750Y01886750
X01489250Y01839500
X01615318Y01840100
X01613750Y01886750
X01613993Y01934575
X01706000Y01938500
Y01978250
Y01898500
Y01857750
Y01816750
X01706250Y01776500
X01706000Y01736250
X01680000Y01720000
X01640000
X01600000
X01620000Y01680000
X01660000
X01700000
X01680000Y01640000
X01706000Y02018000
Y02057750
Y02098250
X01672500Y02183250
X01643750Y02212000
X01614750Y02240750
X01585750Y02269000
X01557750Y02297250
X01529250Y02326250
X01380500Y02285500
X01407000Y02256000
X01434250Y02226750
X01462750Y02199250
X01481250Y02097500
X01503250Y02064250
X01514250Y02025500
X01497750Y01988750
X01200000Y02150000
X01225000Y02200000
X01175000
X01125000
X01075000
X01025000
X00975000
X00925000
X00950000Y02250000
X00900000
Y02150000
X00850000
X00875000Y02100000
X00925000
X00975000
X01025000
X01075000
X01100000Y02150000
X01150000
Y02250000
X01100000
X01050000Y02150000
Y02050000
X01000000
X01025000Y02000000
X00975000
X00875000
X00825000Y02100000
Y02200000
X00800000Y02250000
X00881000Y02353500
X00775000Y02200000
X00725000
X00750000Y02150000
X00700000
X00650000
X00675000Y02100000
X00725000
X00775000
X00750000Y02050000
X00700000
X00650000
X00600000
X00550000
X00575000Y02000000
X00625000
X00675000
X00775000
X00700000Y02250000
X00572750Y02252000
X00601000Y02280500
X00618250Y02316750
Y02357000
X00523000Y02366000
X00513367Y02326863
X00474250Y02317750
X00434255
X00422537Y02223480
X00463500
X00503000
X00543830
X00382000
X00341500
X00301245
X00313255Y02317750
X00272755
X00232500
X00192250
X00162750Y02290750
X00353792Y02317750
X00394755
X00367250Y02411000
X00327000
X00266250
X00227000
X00169000
X00129000
X00088750Y02526500
Y02567250
X00113250Y02599000
X00315750Y02589250
X00342750Y02617250
X00315250Y02532250
X00343000Y02503500
X00377750Y02485250
X00430500Y02514250
X00454750Y02540750
X00543250Y02481750
X00523000Y02446750
Y02406750
X00427000Y02411000
X00637510Y02391260
X00673000Y02411000
X00753250
X00754500Y02560750
X00676000Y02562000
X00635750
X00602500Y02539000
X00573500Y02510500
X00795000Y02560750
X00824000Y02600750
Y02641000
X00856750Y02664250
X00896500Y02664750
X00936500
X00977000
X01017000
X01057500
X01088500Y02639000
X01116500Y02610250
X01145000Y02581500
X01132000Y02499000
X01169750Y02499000
X01132000Y02459000
X01122500Y02420000
X01090250Y02395500
X01102250Y02528750
X01073750Y02557250
X01045750Y02585500
X01005500Y02588500
X00965000
X00865750Y02477250
X00836750Y02449500
X00794250Y02411500
X00852000Y02381750
X01233750Y02399000
X01273250Y02398750
X01311750
X01344750Y02381500
X01466750Y02426750
X01438750Y02456000
X01410500Y02484500
X01382000Y02512500
X01353500Y02540750
X01324750Y02568250
X01296250Y02596750
X01267250Y02625500
X01234250Y02649000
T02
X00655750Y01851000
X00682748Y01839752
X01053500Y01641500
T03
X01087500Y01697750
Y01717750
X01132250Y01959000
Y01979000
X01269750Y01919250
Y01899250
X01206750Y02067750
X01186750
X00756000Y02276500
X00736000
T04
X00362700Y01601500
X00388100
Y01753900
X00362700
X00182500Y01892500
Y01927500
X00532000Y01981000
X00523100Y01753900
X00497700
X00464300
X00438900
X00413500
X00548500
X00573900
X00599300
X00632700
X00658100
X00683500
X00708900
X00734300
Y01601500
X00708900
X00683500
X00658100
X00632700
X00599300
X00573900
X00548500
X00523100
X00497700
X00464300
X00438900
X00413500
X00837000Y01924000
X00861500
X00886250
Y01989250
X00861500
X00837000
Y02055250
X00861500
X00886250
X01042750Y02193000
Y02217500
Y02242250
X00532000Y02016000
T05
X00027500Y01892500
X00127500
X00286250Y01883250
Y01932000
X00386250
Y01883250
X00416000Y01883246
Y01932004
X00516000
Y01883246
X00994750Y02280250
X01094750
X00187250Y02411000
Y02561000
T06
X00798000Y01730350
Y01755750
Y01781150
Y01806550
Y01831950
Y01857350
Y01882750
Y01908150
Y01933550
Y01958950
Y01984350
X00950500Y01984200
Y01958800
Y01933400
Y01908000
Y01882600
Y01857200
Y01831800
Y01806400
Y01781000
Y01755600
Y01730200
X01182250Y01732750
Y01764750
Y01796750
Y01828750
Y01860750
Y01910750
Y01960750
X01212250Y01944750
Y01894750
Y01844750
Y01812750
Y01780750
Y01748750
Y01712750
X01468250Y01698200
Y01745500
Y01792800
Y01840100
Y01887400
Y01934700
Y01982000
X01706000Y02138000
X01481000
X01468250Y02029300
X01212250Y01994750
X01182250Y02014750
X00950500Y02009600
Y02035000
Y02060400
Y02085800
Y02111200
Y02136600
Y02162000
Y02187400
Y02212800
X00925750Y02336500
X01048000Y02337000
X00798000Y02212950
Y02187550
Y02162150
Y02136750
Y02111350
Y02085950
Y02060550
Y02035150
Y02009750
X00386000Y02411000
X00287250
Y02561000
X00463750
X00402000Y02486000
X00463750Y02411000
X00713750
Y02561000
X00824000
X00902250Y02514500
X00926750Y02457000
X01048250
X01068000Y02397000
X00824000Y02411000
X00924250Y02588500
T07
X00120600Y01549000
X00146000
X00171400
X00196800
X00222200
X00247600
T08
X01282500Y01576750
X01414750
X00675000Y01931000
Y01956000
Y01981000
X01062250Y01882600
X01063500Y01831675
X01062750Y01781000
X01100000Y01755600
Y01806400
X01101000Y01857200
X01095500Y01652250
X01282250Y01628750
X01509500Y01598750
X01521000Y01840100
Y01887400
Y01934575
X01591000Y01644750
X00737500Y02163750
Y02188750
Y02213750
X00633750Y02095750
X00558500Y02096250
X00282500Y02010750
X00232500
X00182500
X00132500
Y02260750
X00282500
T09
X01643500Y01813000
Y01888000
Y01963000
X00088750Y02411000
Y02486000
X01193250Y02499000
Y02574000
Y02649000
Y02399000
T10
X00152500Y02637000
X00362500
T11
X01379250Y02346750
X01484250Y02371750
T12
X01696250Y01566750
X00046250Y01564750
X00047250Y02662750
X01698250Y02663750
M30
