G04*
G04 #@! TF.GenerationSoftware,Altium Limited,Altium Designer,21.2.0 (30)*
G04*
G04 Layer_Color=32896*
%FSAX44Y44*%
%MOMM*%
G71*
G04*
G04 #@! TF.SameCoordinates,F656A266-89EA-4B56-B237-F6EBBDAECB67*
G04*
G04*
G04 #@! TF.FilePolarity,Positive*
G04*
G01*
G75*
%ADD10C,0.2000*%
%ADD11C,0.2500*%
%ADD17C,0.1778*%
%ADD74C,0.4000*%
G36*
X00180000Y01655000D02*
X00172800Y01655000D01*
X00180000Y01662200D01*
X00180000Y01655000D01*
D02*
G37*
D10*
X01175500Y02033500D02*
X01219500D01*
X01175500Y02053500D02*
X01219500D01*
X01175500Y02033500D02*
Y02053500D01*
X01219500Y02033500D02*
Y02053500D01*
X01445250Y01683753D02*
Y02043753D01*
X01235250Y01683753D02*
Y02043753D01*
X01295250D01*
X01425250D02*
X01445250D01*
X01235250Y01683753D02*
X01295250D01*
X01425250D02*
X01445250D01*
X01145250Y01717750D02*
X01165250D01*
X01145250Y01673750D02*
X01165250D01*
X01145250D02*
Y01717750D01*
X01165250Y01673750D02*
Y01717750D01*
X01118250Y01742750D02*
X01162250D01*
X01118250Y01722750D02*
X01162250D01*
Y01742750D01*
X01118250Y01722750D02*
Y01742750D01*
X00758500Y01569750D02*
X00802500D01*
X00758500Y01589750D02*
X00802500D01*
X00758500Y01569750D02*
Y01589750D01*
X00802500Y01569750D02*
Y01589750D01*
X00758500Y01615499D02*
X00802500D01*
X00758500Y01635499D02*
X00802500D01*
X00758500Y01615499D02*
Y01635499D01*
X00802500Y01615499D02*
Y01635499D01*
X00824500Y01964250D02*
X00868500D01*
X00824500Y01944250D02*
X00868500D01*
Y01964250D01*
X00824500Y01944250D02*
Y01964250D01*
Y02029250D02*
X00868500D01*
X00824500Y02009250D02*
X00868500D01*
Y02029250D01*
X00824500Y02009250D02*
Y02029250D01*
Y02075250D02*
Y02095250D01*
X00868500Y02075250D02*
Y02095250D01*
X00824500Y02075250D02*
X00868500D01*
X00824500Y02095250D02*
X00868500D01*
X00989500Y02180750D02*
Y02224750D01*
X01009500Y02180750D02*
Y02224750D01*
X00989500D02*
X01009500D01*
X00989500Y02180750D02*
X01009500D01*
X00915750Y02674250D02*
X01115084D01*
Y02373963D02*
Y02674213D01*
X00915750Y02403500D02*
Y02674250D01*
Y02403500D02*
X00945250Y02374000D01*
X01115084D01*
X01491080Y01679998D02*
Y01716998D01*
X01567080Y01679998D02*
Y01716998D01*
X01491080Y01679998D02*
X01567080D01*
X01491080Y01716998D02*
X01567080D01*
X01491080Y01774232D02*
Y01811232D01*
X01567080Y01774232D02*
Y01811232D01*
X01491080Y01774232D02*
X01567080D01*
X01491080Y01811232D02*
X01567080D01*
X01491080Y01727242D02*
Y01764242D01*
X01567080Y01727242D02*
Y01764242D01*
X01491080Y01727242D02*
X01567080D01*
X01491080Y01764242D02*
X01567080D01*
X00642700Y01793750D02*
Y01837750D01*
X00622700Y01793750D02*
Y01837750D01*
Y01793750D02*
X00642700D01*
X00622700Y01837750D02*
X00642700D01*
X00135000Y01655000D02*
Y01707000D01*
X00180000Y01655000D02*
Y01707000D01*
X00135000D02*
X00180000D01*
X00135000Y01655000D02*
X00180000D01*
X00135000Y01786000D02*
X00155000D01*
X00135000Y01742000D02*
X00155000D01*
X00135000D02*
Y01786000D01*
X00155000Y01742000D02*
Y01786000D01*
X00211000Y01739000D02*
Y01759000D01*
X00167000Y01739000D02*
Y01759000D01*
X00211000D01*
X00167000Y01739000D02*
X00211000D01*
X00209000Y01601000D02*
Y01621000D01*
X00165000Y01601000D02*
Y01621000D01*
X00209000D01*
X00165000Y01601000D02*
X00209000D01*
X00211000Y01769000D02*
Y01789000D01*
X00167000Y01769000D02*
Y01789000D01*
X00211000D01*
X00167000Y01769000D02*
X00211000D01*
X01236750Y01886500D02*
X01256750D01*
X01236750Y01930500D02*
X01256750D01*
Y01886500D02*
Y01930500D01*
X01236750Y01886500D02*
Y01930500D01*
X01145250Y01946250D02*
X01165250D01*
X01145250Y01990250D02*
X01165250D01*
Y01946250D02*
Y01990250D01*
X01145250Y01946250D02*
Y01990250D01*
X01122500Y01850200D02*
X01142500D01*
X01122500Y01894200D02*
X01142500D01*
Y01850200D02*
Y01894200D01*
X01122500Y01850200D02*
Y01894200D01*
X01142500Y01799400D02*
Y01843400D01*
X01122500Y01799400D02*
Y01843400D01*
Y01799400D02*
X01142500D01*
X01122500Y01843400D02*
X01142500D01*
Y01748600D02*
Y01792600D01*
X01122500Y01748600D02*
Y01792600D01*
Y01748600D02*
X01142500D01*
X01122500Y01792600D02*
X01142500D01*
X01153000Y01615250D02*
X01173000D01*
X01153000Y01659250D02*
X01173000D01*
Y01615250D02*
Y01659250D01*
X01153000Y01615250D02*
Y01659250D01*
X01124000Y01615250D02*
X01144000D01*
X01124000Y01659250D02*
X01144000D01*
Y01615250D02*
Y01659250D01*
X01124000Y01615250D02*
Y01659250D01*
X00648100Y01837750D02*
X00668100D01*
X00648100Y01793750D02*
X00668100D01*
X00648100D02*
Y01837750D01*
X00668100Y01793750D02*
Y01837750D01*
D11*
X00185250Y01641000D02*
G03*
X00185250Y01641000I-00001250J00000000D01*
G01*
D17*
X01542791Y01658495D02*
Y01669921D01*
X01537078D01*
X01535173Y01668017D01*
Y01664208D01*
X01537078Y01662304D01*
X01542791D01*
X01538982D02*
X01535173Y01658495D01*
X01525652D02*
Y01669921D01*
X01531365Y01664208D01*
X01523747D01*
X01512321Y01669921D02*
X01516130Y01668017D01*
X01519938Y01664208D01*
Y01660399D01*
X01518034Y01658495D01*
X01514225D01*
X01512321Y01660399D01*
Y01662304D01*
X01514225Y01664208D01*
X01519938D01*
X01623309Y01739267D02*
Y01750693D01*
X01617596D01*
X01615692Y01748789D01*
Y01744980D01*
X01617596Y01743076D01*
X01623309D01*
X01619500D02*
X01615692Y01739267D01*
X01606170D02*
Y01750693D01*
X01611883Y01744980D01*
X01604265D01*
X01592839Y01750693D02*
X01600456D01*
Y01744980D01*
X01596648Y01746884D01*
X01594743D01*
X01592839Y01744980D01*
Y01741171D01*
X01594743Y01739267D01*
X01598552D01*
X01600456Y01741171D01*
X01622039Y01765937D02*
Y01777363D01*
X01616326D01*
X01614422Y01775459D01*
Y01771650D01*
X01616326Y01769746D01*
X01622039D01*
X01618230D02*
X01614422Y01765937D01*
X01604900D02*
Y01777363D01*
X01610613Y01771650D01*
X01602995D01*
X01593473Y01765937D02*
Y01777363D01*
X01599186Y01771650D01*
X01591569D01*
X01266320Y02070229D02*
Y02081655D01*
X01272033D01*
X01273938Y02079751D01*
Y02072133D01*
X01272033Y02070229D01*
X01266320D01*
X01277746Y02072133D02*
X01279651Y02070229D01*
X01283459D01*
X01285364Y02072133D01*
Y02074038D01*
X01283459Y02075942D01*
X01281555D01*
X01283459D01*
X01285364Y02077846D01*
Y02079751D01*
X01283459Y02081655D01*
X01279651D01*
X01277746Y02079751D01*
X00208658Y01678811D02*
Y01669289D01*
X00206754Y01667385D01*
X00202945D01*
X00201040Y01669289D01*
Y01678811D01*
X00197232Y01676907D02*
X00195327Y01678811D01*
X00191518D01*
X00189614Y01676907D01*
Y01675002D01*
X00191518Y01673098D01*
X00193423D01*
X00191518D01*
X00189614Y01671194D01*
Y01669289D01*
X00191518Y01667385D01*
X00195327D01*
X00197232Y01669289D01*
X00128329Y01758825D02*
Y01770251D01*
X00122616D01*
X00120711Y01768347D01*
Y01764538D01*
X00122616Y01762634D01*
X00128329D01*
X00124520D02*
X00120711Y01758825D01*
X00116903D02*
X00113094D01*
X00114998D01*
Y01770251D01*
X00116903Y01768347D01*
X00107381Y01770251D02*
X00099763D01*
Y01768347D01*
X00107381Y01760729D01*
Y01758825D01*
X00246439Y01743839D02*
Y01755265D01*
X00240726D01*
X00238821Y01753361D01*
Y01749552D01*
X00240726Y01747648D01*
X00246439D01*
X00242630D02*
X00238821Y01743839D01*
X00235013D02*
X00231204D01*
X00233108D01*
Y01755265D01*
X00235013Y01753361D01*
X00217873Y01755265D02*
X00221682Y01753361D01*
X00225491Y01749552D01*
Y01745743D01*
X00223586Y01743839D01*
X00219778D01*
X00217873Y01745743D01*
Y01747648D01*
X00219778Y01749552D01*
X00225491D01*
X00240725Y01606933D02*
Y01618359D01*
X00235011D01*
X00233107Y01616455D01*
Y01612646D01*
X00235011Y01610742D01*
X00240725D01*
X00236916D02*
X00233107Y01606933D01*
X00229298D02*
X00225489D01*
X00227394D01*
Y01618359D01*
X00229298Y01616455D01*
X00219776Y01606933D02*
X00215968D01*
X00217872D01*
Y01618359D01*
X00219776Y01616455D01*
X00197165Y01804161D02*
X00199070Y01806065D01*
X00202878D01*
X00204783Y01804161D01*
Y01796543D01*
X00202878Y01794639D01*
X00199070D01*
X00197165Y01796543D01*
X00193357Y01794639D02*
X00189548D01*
X00191452D01*
Y01806065D01*
X00193357Y01804161D01*
X00183835D02*
X00181930Y01806065D01*
X00178121D01*
X00176217Y01804161D01*
Y01802256D01*
X00178121Y01800352D01*
X00180026D01*
X00178121D01*
X00176217Y01798448D01*
Y01796543D01*
X00178121Y01794639D01*
X00181930D01*
X00183835Y01796543D01*
X00901187Y02566287D02*
Y02558670D01*
X00897378Y02554861D01*
X00893569Y02558670D01*
Y02566287D01*
X00889761D02*
Y02554861D01*
X00884048D01*
X00882143Y02556765D01*
Y02564383D01*
X00884048Y02566287D01*
X00889761D01*
X00870717D02*
X00874526Y02564383D01*
X00878334Y02560574D01*
Y02556765D01*
X00876430Y02554861D01*
X00872621D01*
X00870717Y02556765D01*
Y02558670D01*
X00872621Y02560574D01*
X00878334D01*
X00616453Y01808863D02*
Y01820289D01*
X00610740D01*
X00608835Y01818385D01*
Y01814576D01*
X00610740Y01812672D01*
X00616453D01*
X00612644D02*
X00608835Y01808863D01*
X00597409D02*
X00605027D01*
X00597409Y01816480D01*
Y01818385D01*
X00599314Y01820289D01*
X00603122D01*
X00605027Y01818385D01*
X00593600D02*
X00591696Y01820289D01*
X00587887D01*
X00585983Y01818385D01*
Y01816480D01*
X00587887Y01814576D01*
X00585983Y01812672D01*
Y01810767D01*
X00587887Y01808863D01*
X00591696D01*
X00593600Y01810767D01*
Y01812672D01*
X00591696Y01814576D01*
X00593600Y01816480D01*
Y01818385D01*
X00591696Y01814576D02*
X00587887D01*
X00705353Y01810133D02*
Y01821559D01*
X00699640D01*
X00697736Y01819655D01*
Y01815846D01*
X00699640Y01813942D01*
X00705353D01*
X00701544D02*
X00697736Y01810133D01*
X00686309D02*
X00693927D01*
X00686309Y01817750D01*
Y01819655D01*
X00688214Y01821559D01*
X00692022D01*
X00693927Y01819655D01*
X00682500Y01821559D02*
X00674883D01*
Y01819655D01*
X00682500Y01812037D01*
Y01810133D01*
X00839973Y01574421D02*
Y01585847D01*
X00834260D01*
X00832355Y01583943D01*
Y01580134D01*
X00834260Y01578230D01*
X00839973D01*
X00836164D02*
X00832355Y01574421D01*
X00820929D02*
X00828547D01*
X00820929Y01582038D01*
Y01583943D01*
X00822834Y01585847D01*
X00826642D01*
X00828547Y01583943D01*
X00809503Y01585847D02*
X00813312Y01583943D01*
X00817120Y01580134D01*
Y01576325D01*
X00815216Y01574421D01*
X00811407D01*
X00809503Y01576325D01*
Y01578230D01*
X00811407Y01580134D01*
X00817120D01*
X00791205Y01640715D02*
Y01652141D01*
X00785492D01*
X00783587Y01650237D01*
Y01646428D01*
X00785492Y01644524D01*
X00791205D01*
X00787396D02*
X00783587Y01640715D01*
X00772161D02*
X00779779D01*
X00772161Y01648332D01*
Y01650237D01*
X00774066Y01652141D01*
X00777874D01*
X00779779Y01650237D01*
X00760735Y01652141D02*
X00768352D01*
Y01646428D01*
X00764544Y01648332D01*
X00762639D01*
X00760735Y01646428D01*
Y01642619D01*
X00762639Y01640715D01*
X00766448D01*
X00768352Y01642619D01*
X00901823Y01947547D02*
Y01958973D01*
X00896110D01*
X00894205Y01957069D01*
Y01953260D01*
X00896110Y01951356D01*
X00901823D01*
X00898014D02*
X00894205Y01947547D01*
X00882779D02*
X00890396D01*
X00882779Y01955164D01*
Y01957069D01*
X00884683Y01958973D01*
X00888492D01*
X00890396Y01957069D01*
X00878970Y01947547D02*
X00875161D01*
X00877066D01*
Y01958973D01*
X00878970Y01957069D01*
X00906267Y02014603D02*
Y02026029D01*
X00900554D01*
X00898650Y02024125D01*
Y02020316D01*
X00900554Y02018412D01*
X00906267D01*
X00902458D02*
X00898650Y02014603D01*
X00887223D02*
X00894841D01*
X00887223Y02022220D01*
Y02024125D01*
X00889128Y02026029D01*
X00892936D01*
X00894841Y02024125D01*
X00883414D02*
X00881510Y02026029D01*
X00877701D01*
X00875797Y02024125D01*
Y02016507D01*
X00877701Y02014603D01*
X00881510D01*
X00883414Y02016507D01*
Y02024125D01*
X00863151Y02103757D02*
Y02115183D01*
X00857438D01*
X00855533Y02113279D01*
Y02109470D01*
X00857438Y02107566D01*
X00863151D01*
X00859342D02*
X00855533Y02103757D01*
X00851725D02*
X00847916D01*
X00849820D01*
Y02115183D01*
X00851725Y02113279D01*
X00842203Y02105661D02*
X00840298Y02103757D01*
X00836489D01*
X00834585Y02105661D01*
Y02113279D01*
X00836489Y02115183D01*
X00840298D01*
X00842203Y02113279D01*
Y02111374D01*
X00840298Y02109470D01*
X00834585D01*
X01202177Y01676783D02*
Y01688209D01*
X01196464D01*
X01194559Y01686305D01*
Y01682496D01*
X01196464Y01680592D01*
X01202177D01*
X01198368D02*
X01194559Y01676783D01*
X01185038D02*
Y01688209D01*
X01190751Y01682496D01*
X01183133D01*
X01179324Y01686305D02*
X01177420Y01688209D01*
X01173611D01*
X01171707Y01686305D01*
Y01684400D01*
X01173611Y01682496D01*
X01175516D01*
X01173611D01*
X01171707Y01680592D01*
Y01678687D01*
X01173611Y01676783D01*
X01177420D01*
X01179324Y01678687D01*
X01156715Y01764223D02*
X01158619Y01762318D01*
Y01758510D01*
X01156715Y01756605D01*
X01149097D01*
X01147193Y01758510D01*
Y01762318D01*
X01149097Y01764223D01*
X01147193Y01768031D02*
Y01771840D01*
Y01769936D01*
X01158619D01*
X01156715Y01768031D01*
X01158619Y01785171D02*
Y01777553D01*
X01152906D01*
X01154810Y01781362D01*
Y01783266D01*
X01152906Y01785171D01*
X01149097D01*
X01147193Y01783266D01*
Y01779458D01*
X01149097Y01777553D01*
X01131568Y01715769D02*
X01133472Y01717673D01*
X01137281D01*
X01139185Y01715769D01*
Y01708151D01*
X01137281Y01706247D01*
X01133472D01*
X01131568Y01708151D01*
X01120141Y01706247D02*
X01127759D01*
X01120141Y01713864D01*
Y01715769D01*
X01122046Y01717673D01*
X01125854D01*
X01127759Y01715769D01*
X01116332D02*
X01114428Y01717673D01*
X01110619D01*
X01108715Y01715769D01*
Y01713864D01*
X01110619Y01711960D01*
X01108715Y01710056D01*
Y01708151D01*
X01110619Y01706247D01*
X01114428D01*
X01116332Y01708151D01*
Y01710056D01*
X01114428Y01711960D01*
X01116332Y01713864D01*
Y01715769D01*
X01114428Y01711960D02*
X01110619D01*
X01258441Y01947925D02*
X01260346Y01949829D01*
X01264154D01*
X01266059Y01947925D01*
Y01940307D01*
X01264154Y01938403D01*
X01260346D01*
X01258441Y01940307D01*
X01247015Y01938403D02*
X01254632D01*
X01247015Y01946020D01*
Y01947925D01*
X01248919Y01949829D01*
X01252728D01*
X01254632Y01947925D01*
X01243206Y01938403D02*
X01239397D01*
X01241302D01*
Y01949829D01*
X01243206Y01947925D01*
X01136140Y01604771D02*
X01138044Y01606675D01*
X01141853D01*
X01143757Y01604771D01*
Y01597153D01*
X01141853Y01595249D01*
X01138044D01*
X01136140Y01597153D01*
X01124713Y01595249D02*
X01132331D01*
X01124713Y01602866D01*
Y01604771D01*
X01126618Y01606675D01*
X01130426D01*
X01132331Y01604771D01*
X01113287Y01606675D02*
X01117096Y01604771D01*
X01120904Y01600962D01*
Y01597153D01*
X01119000Y01595249D01*
X01115191D01*
X01113287Y01597153D01*
Y01599058D01*
X01115191Y01600962D01*
X01120904D01*
X01203195Y02087879D02*
X01205100Y02089783D01*
X01208909D01*
X01210813Y02087879D01*
Y02080261D01*
X01208909Y02078357D01*
X01205100D01*
X01203195Y02080261D01*
X01191769Y02078357D02*
X01199387D01*
X01191769Y02085974D01*
Y02087879D01*
X01193674Y02089783D01*
X01197482D01*
X01199387Y02087879D01*
X01187960Y02080261D02*
X01186056Y02078357D01*
X01182247D01*
X01180343Y02080261D01*
Y02087879D01*
X01182247Y02089783D01*
X01186056D01*
X01187960Y02087879D01*
Y02085974D01*
X01186056Y02084070D01*
X01180343D01*
X01136901Y02005837D02*
X01138806Y02007741D01*
X01142615D01*
X01144519Y02005837D01*
Y01998219D01*
X01142615Y01996315D01*
X01138806D01*
X01136901Y01998219D01*
X01125475Y01996315D02*
X01133093D01*
X01125475Y02003932D01*
Y02005837D01*
X01127380Y02007741D01*
X01131188D01*
X01133093Y02005837D01*
X01114049Y02007741D02*
X01121666D01*
Y02002028D01*
X01117858Y02003932D01*
X01115953D01*
X01114049Y02002028D01*
Y01998219D01*
X01115953Y01996315D01*
X01119762D01*
X01121666Y01998219D01*
X01013265Y02235583D02*
Y02247009D01*
X01007552D01*
X01005647Y02245105D01*
Y02241296D01*
X01007552Y02239392D01*
X01013265D01*
X01009456D02*
X01005647Y02235583D01*
X01001839D02*
X00998030D01*
X00999934D01*
Y02247009D01*
X01001839Y02245105D01*
X00992317D02*
X00990412Y02247009D01*
X00986603D01*
X00984699Y02245105D01*
Y02243200D01*
X00986603Y02241296D01*
X00984699Y02239392D01*
Y02237487D01*
X00986603Y02235583D01*
X00990412D01*
X00992317Y02237487D01*
Y02239392D01*
X00990412Y02241296D01*
X00992317Y02243200D01*
Y02245105D01*
X00990412Y02241296D02*
X00986603D01*
X01187191Y01595503D02*
Y01606929D01*
X01181478D01*
X01179574Y01605025D01*
Y01601216D01*
X01181478Y01599312D01*
X01187191D01*
X01183382D02*
X01179574Y01595503D01*
X01170052D02*
Y01606929D01*
X01175765Y01601216D01*
X01168147D01*
X01164338Y01605025D02*
X01162434Y01606929D01*
X01158625D01*
X01156721Y01605025D01*
Y01597407D01*
X01158625Y01595503D01*
X01162434D01*
X01164338Y01597407D01*
Y01605025D01*
X01157477Y01814261D02*
X01159381Y01812356D01*
Y01808548D01*
X01157477Y01806643D01*
X01149859D01*
X01147955Y01808548D01*
Y01812356D01*
X01149859Y01814261D01*
X01147955Y01818069D02*
Y01821878D01*
Y01819974D01*
X01159381D01*
X01157477Y01818069D01*
X01149859Y01827591D02*
X01147955Y01829496D01*
Y01833304D01*
X01149859Y01835209D01*
X01157477D01*
X01159381Y01833304D01*
Y01829496D01*
X01157477Y01827591D01*
X01155572D01*
X01153668Y01829496D01*
Y01835209D01*
X01125665Y01916559D02*
X01127570Y01918463D01*
X01131378D01*
X01133283Y01916559D01*
Y01908941D01*
X01131378Y01907037D01*
X01127570D01*
X01125665Y01908941D01*
X01121857Y01907037D02*
X01118048D01*
X01119952D01*
Y01918463D01*
X01121857Y01916559D01*
X01104717Y01918463D02*
X01108526Y01916559D01*
X01112335Y01912750D01*
Y01908941D01*
X01110430Y01907037D01*
X01106621D01*
X01104717Y01908941D01*
Y01910846D01*
X01106621Y01912750D01*
X01112335D01*
D74*
X01163250Y02014750D02*
G03*
X01163250Y02014750I-00002000J00000000D01*
G01*
M02*
