M48
;Layer_Color=9474304
;FILE_FORMAT=4:4
METRIC
T13F00S00C2.0000
%
G90
G05
T13
G00X01722250Y01510500
M15
G01X01722250Y01510548
G01X01723230Y01510451
G01X01727151Y01510838
G01X01729074Y01511220
G01X01732844Y01512364
G01X01734655Y01513114
G01X01738129Y01514971
G01X01739759Y01516060
G01X01742804Y01518559
G01X01744190Y01519946
G01X01746690Y01522991
G01X01747779Y01524621
G01X01749636Y01528095
G01X01750386Y01529906
G01X01751530Y01533676
G01X01751912Y01535599
G01X01752347Y01540501
G01X01752250Y02689751
G01X01752202Y02689751
G01X01752299Y02690730
G01X01751912Y02694651
G01X01751530Y02696574
G01X01750386Y02700344
G01X01749636Y02702154
G01X01747779Y02705629
G01X01746690Y02707259
G01X01744191Y02710304
G01X01742804Y02711691
G01X01739759Y02714190
G01X01738129Y02715279
G01X01734655Y02717136
G01X01732844Y02717886
G01X01729074Y02719030
G01X01727151Y02719412
G01X01722250Y02719847
G01X00019999Y02719750
G01X00019999Y02719702
G01X00019020Y02719798
G01X00015099Y02719412
G01X00013176Y02719030
G01X00009406Y02717886
G01X00007595Y02717136
G01X00004121Y02715279
G01X00002491Y02714190
G01X-00000555Y02711691
G01X-00001941Y02710304
G01X-00004440Y02707259
G01X-00005529Y02705629
G01X-00007386Y02702154
G01X-00008136Y02700344
G01X-00009280Y02696574
G01X-00009663Y02694651
G01X-00010097Y02689749
G01X-00010000Y01540499
G01X-00009952Y01540499
G01X-00010049Y01539520
G01X-00009662Y01535599
G01X-00009280Y01533676
G01X-00008136Y01529906
G01X-00007386Y01528095
G01X-00005529Y01524621
G01X-00004440Y01522991
G01X-00001941Y01519945
G01X-00000554Y01518559
G01X00002491Y01516060
G01X00004121Y01514971
G01X00007595Y01513114
G01X00009407Y01512363
G01X00013177Y01511220
G01X00015099Y01510837
G01X00020001Y01510403
G01X01722250Y01510500
M16
M17
M30
