G04*
G04 #@! TF.GenerationSoftware,Altium Limited,Altium Designer,21.2.0 (30)*
G04*
G04 Layer_Physical_Order=1*
G04 Layer_Color=255*
%FSAX44Y44*%
%MOMM*%
G71*
G04*
G04 #@! TF.SameCoordinates,F656A266-89EA-4B56-B237-F6EBBDAECB67*
G04*
G04*
G04 #@! TF.FilePolarity,Positive*
G04*
G01*
G75*
%ADD15C,0.5000*%
%ADD23O,2.0000X1.4000*%
%ADD24R,2.0000X1.4000*%
%ADD43R,1.6000X1.0000*%
%ADD44R,1.0000X1.6000*%
G04:AMPARAMS|DCode=45|XSize=1.55mm|YSize=0.6mm|CornerRadius=0.3mm|HoleSize=0mm|Usage=FLASHONLY|Rotation=270.000|XOffset=0mm|YOffset=0mm|HoleType=Round|Shape=RoundedRectangle|*
%AMROUNDEDRECTD45*
21,1,1.5500,0.0000,0,0,270.0*
21,1,0.9500,0.6000,0,0,270.0*
1,1,0.6000,0.0000,-0.4750*
1,1,0.6000,0.0000,0.4750*
1,1,0.6000,0.0000,0.4750*
1,1,0.6000,0.0000,-0.4750*
%
%ADD45ROUNDEDRECTD45*%
%ADD46R,1.6000X2.2000*%
%ADD47C,4.0000*%
%ADD48C,2.0000*%
%ADD49C,0.8000*%
%ADD50C,1.0000*%
%ADD51C,3.2000*%
%ADD52C,0.3000*%
%ADD53C,2.0000*%
%ADD54C,1.6000*%
%ADD55C,3.0000*%
%ADD56C,1.8000*%
%ADD57C,1.0000*%
%ADD58P,1.0824X8X202.5*%
%ADD59O,1.7780X1.4000*%
%ADD60R,1.7780X1.4000*%
%ADD61C,2.2000*%
%ADD62P,1.0824X8X292.5*%
G04:AMPARAMS|DCode=63|XSize=6mm|YSize=6mm|CornerRadius=1.5mm|HoleSize=0mm|Usage=FLASHONLY|Rotation=0.000|XOffset=0mm|YOffset=0mm|HoleType=Round|Shape=RoundedRectangle|*
%AMROUNDEDRECTD63*
21,1,6.0000,3.0000,0,0,0.0*
21,1,3.0000,6.0000,0,0,0.0*
1,1,3.0000,1.5000,-1.5000*
1,1,3.0000,-1.5000,-1.5000*
1,1,3.0000,-1.5000,1.5000*
1,1,3.0000,1.5000,1.5000*
%
%ADD63ROUNDEDRECTD63*%
%ADD64R,1.6000X1.6000*%
%ADD65R,2.0000X2.0000*%
%ADD66P,1.7318X8X112.5*%
%ADD67C,2.4000*%
%ADD68O,2.6000X3.5000*%
%ADD69O,1.5000X1.6000*%
%ADD70C,0.6000*%
G36*
X00819453Y02305151D02*
X00821513Y02304297D01*
X00822249Y02303805D01*
X00824155Y02302269D01*
X00824155Y02302269D01*
X00825825Y02300602D01*
X00830620Y02295806D01*
X00831408Y02295092D01*
X00833174Y02293912D01*
X00835137Y02293099D01*
X00837220Y02292684D01*
X00838282Y02292632D01*
X00987145Y02292632D01*
Y02288965D01*
X00985516Y02287336D01*
X00983997Y02284704D01*
X00983210Y02281769D01*
Y02278731D01*
X00983997Y02275796D01*
X00985516Y02273164D01*
X00987145Y02271535D01*
Y02193900D01*
X00963610Y02170365D01*
X00957125D01*
X00954881Y02171295D01*
X00952390Y02171622D01*
X00948610D01*
X00946120Y02171295D01*
X00943799Y02170333D01*
X00942850Y02169605D01*
X00928650D01*
X00826128Y02272128D01*
X00824553Y02273336D01*
X00822718Y02274096D01*
X00820750Y02274355D01*
X00781150D01*
X00773628Y02281878D01*
X00772053Y02283086D01*
X00770218Y02283846D01*
X00768250Y02284105D01*
X00756000D01*
X00755506Y02284040D01*
X00752230D01*
X00748460Y02280270D01*
Y02276994D01*
X00748395Y02276500D01*
Y02235400D01*
X00739257Y02226262D01*
X00739151Y02226290D01*
X00735849D01*
X00732660Y02225435D01*
X00729800Y02223784D01*
X00727466Y02221450D01*
X00727411Y02221355D01*
X00676000D01*
X00674032Y02221096D01*
X00672198Y02220336D01*
X00670623Y02219128D01*
X00561073Y02109578D01*
X00560283Y02109790D01*
X00556717D01*
X00553274Y02108867D01*
X00550186Y02107085D01*
X00547665Y02104564D01*
X00545883Y02101476D01*
X00544960Y02098032D01*
Y02094467D01*
X00545883Y02091024D01*
X00547665Y02087936D01*
X00550186Y02085415D01*
X00553274Y02083633D01*
X00556717Y02082710D01*
X00560283D01*
X00563726Y02083633D01*
X00566814Y02085415D01*
X00569335Y02087936D01*
X00571117Y02091024D01*
X00572040Y02094467D01*
Y02098032D01*
X00571828Y02098823D01*
X00624179Y02151174D01*
X00625098Y02151016D01*
X00626645Y02150104D01*
Y02107283D01*
X00625436Y02106585D01*
X00622915Y02104064D01*
X00621133Y02100976D01*
X00620210Y02097533D01*
Y02093967D01*
X00621133Y02090524D01*
X00622915Y02087436D01*
X00625436Y02084915D01*
X00628524Y02083133D01*
X00631967Y02082210D01*
X00635533D01*
X00638976Y02083133D01*
X00642064Y02084915D01*
X00644585Y02087436D01*
X00646367Y02090524D01*
X00647290Y02093967D01*
Y02097533D01*
X00646367Y02100976D01*
X00644585Y02104064D01*
X00642064Y02106585D01*
X00641855Y02106705D01*
Y02147600D01*
X00650400Y02156145D01*
X00727411D01*
X00727466Y02156050D01*
X00729800Y02153716D01*
X00729895Y02153661D01*
Y02000900D01*
X00692600Y01963605D01*
X00685089D01*
X00685034Y01963700D01*
X00682700Y01966035D01*
X00680828Y01967115D01*
X00680651Y01968832D01*
X00680909Y01969874D01*
X00681324Y01970046D01*
X00681982Y01970551D01*
X00682700Y01970966D01*
X00683286Y01971552D01*
X00683944Y01972056D01*
X00684448Y01972714D01*
X00685034Y01973300D01*
X00685449Y01974018D01*
X00685954Y01974676D01*
X00686271Y01975442D01*
X00686685Y01976160D01*
X00686900Y01976960D01*
X00687217Y01977726D01*
X00687325Y01978548D01*
X00687540Y01979349D01*
Y01980178D01*
X00687648Y01981000D01*
X00687540Y01981822D01*
Y01982651D01*
X00687325Y01983452D01*
X00687217Y01984274D01*
X00686900Y01985040D01*
X00686685Y01985840D01*
X00686271Y01986558D01*
X00685954Y01987324D01*
X00685449Y01987982D01*
X00685034Y01988700D01*
X00684448Y01989286D01*
X00683944Y01989944D01*
X00683286Y01990448D01*
X00682700Y01991035D01*
X00681982Y01991449D01*
X00681324Y01991954D01*
X00680558Y01992271D01*
X00679840Y01992685D01*
X00679040Y01992900D01*
X00678274Y01993217D01*
X00677452Y01993325D01*
X00676651Y01993540D01*
X00675822D01*
X00675000Y01993648D01*
X00532002D01*
X00531287Y01993650D01*
X00529502Y01995215D01*
X00529502Y02003745D01*
X00530250Y02004319D01*
Y02016000D01*
X00532000D01*
Y02017750D01*
X00543437D01*
X00542716Y02020439D01*
X00541202Y02023061D01*
X00539061Y02025202D01*
X00536439Y02026716D01*
X00533514Y02027500D01*
X00532002D01*
X00529502Y02029592D01*
Y02130368D01*
Y02132190D01*
X00530213Y02135764D01*
X00531608Y02139131D01*
X00533632Y02142160D01*
X00536209Y02144737D01*
X00539238Y02146761D01*
X00542605Y02148156D01*
X00546179Y02148867D01*
X00548001Y02148867D01*
X00548002Y02148868D01*
X00571947D01*
X00573564Y02148947D01*
X00576734Y02149578D01*
X00579721Y02150815D01*
X00582408Y02152611D01*
X00583607Y02153698D01*
X00583608Y02153698D01*
X00694979Y02265069D01*
X00695695Y02265858D01*
X00696876Y02267627D01*
X00697690Y02269593D01*
X00698105Y02271679D01*
X00698157Y02272743D01*
X00698158Y02272743D01*
Y02299774D01*
X00698158Y02300930D01*
X00699043Y02303066D01*
X00700677Y02304700D01*
X00702813Y02305585D01*
X00703969D01*
X00703970Y02305586D01*
X00787139Y02305586D01*
X00789500Y02303086D01*
Y02298500D01*
X00812500D01*
Y02303086D01*
X00812500Y02305250D01*
X00814861Y02305586D01*
X00816151D01*
X00817266Y02305586D01*
X00819453Y02305151D01*
D02*
G37*
G36*
X01088116Y02292632D02*
X01088786Y02290132D01*
X01087664Y02289484D01*
X01085516Y02287336D01*
X01083997Y02284704D01*
X01083210Y02281769D01*
Y02278731D01*
X01083997Y02275796D01*
X01085516Y02273164D01*
X01087664Y02271016D01*
X01090296Y02269496D01*
X01093231Y02268710D01*
X01096269D01*
X01099204Y02269496D01*
X01101836Y02271016D01*
X01103984Y02273164D01*
X01105504Y02275796D01*
X01106290Y02278731D01*
Y02281769D01*
X01105504Y02284704D01*
X01103984Y02287336D01*
X01101836Y02289484D01*
X01100714Y02290132D01*
X01101384Y02292632D01*
X01110651D01*
X01185710Y02292632D01*
Y02285960D01*
X01200790D01*
Y02292632D01*
X01215710Y02292632D01*
Y02285960D01*
X01216654D01*
Y02262290D01*
X01215518D01*
Y02241210D01*
X01230598D01*
Y02262290D01*
X01229846D01*
Y02285960D01*
X01230790D01*
Y02292632D01*
X01246261D01*
X01248022Y02291902D01*
X01249370Y02290554D01*
X01249563Y02290087D01*
X01250099Y02287844D01*
Y02287840D01*
X01250099Y02287840D01*
X01250100Y02287839D01*
X01250100Y02142216D01*
X01250100Y02141470D01*
X01249529Y02140091D01*
X01248617Y02139179D01*
X01246349Y02138466D01*
Y02138466D01*
X01246349Y02138466D01*
X01168832Y02138456D01*
X01166305Y02138331D01*
X01161347Y02137345D01*
X01156678Y02135410D01*
X01152475Y02132601D01*
X01150601Y02130902D01*
X01150601Y02130903D01*
X01150601Y02130902D01*
X01059890Y02040192D01*
X01058624Y02038862D01*
X01056294Y02036024D01*
X01054255Y02032971D01*
X01052524Y02029733D01*
X01051119Y02026341D01*
X01050053Y02022828D01*
X01049337Y02019227D01*
X01048977Y02015573D01*
X01048932Y02013737D01*
Y01931758D01*
X01048990Y01930582D01*
X01049449Y01928275D01*
X01050349Y01926102D01*
X01051655Y01924147D01*
X01053318Y01922483D01*
X01055274Y01921177D01*
X01057447Y01920277D01*
X01059754Y01919818D01*
X01060930Y01919760D01*
X01123273Y01919760D01*
X01124923Y01919760D01*
X01128160Y01919116D01*
X01131208Y01917853D01*
X01133311Y01916448D01*
X01135118Y01914854D01*
X01135118Y01914853D01*
X01136789Y01913183D01*
X01177331Y01872641D01*
X01176888Y01870630D01*
X01176694Y01870171D01*
X01176500Y01869937D01*
X01174439Y01869083D01*
X01172446Y01867554D01*
X01170020Y01867809D01*
X01150850Y01886979D01*
X01149483Y01888027D01*
X01147893Y01888687D01*
X01146185Y01888911D01*
X01143040D01*
Y01890140D01*
X01121960D01*
Y01889197D01*
X01074076D01*
X01073085Y01890914D01*
X01070564Y01893435D01*
X01067476Y01895217D01*
X01064033Y01896140D01*
X01060467D01*
X01057024Y01895217D01*
X01053936Y01893435D01*
X01051415Y01890914D01*
X01051006Y01890205D01*
X01038540D01*
Y01893140D01*
X01023460D01*
Y01883094D01*
X01023395Y01882600D01*
X01023460Y01882106D01*
Y01872060D01*
X01038540D01*
Y01874995D01*
X01051006D01*
X01051415Y01874286D01*
X01053936Y01871765D01*
X01057024Y01869983D01*
X01060467Y01869060D01*
X01064033D01*
X01067476Y01869983D01*
X01070564Y01871765D01*
X01073085Y01874286D01*
X01074076Y01876004D01*
X01121960D01*
Y01875060D01*
X01143040D01*
X01145122Y01874050D01*
X01163086Y01856086D01*
X01164452Y01855037D01*
X01166043Y01854378D01*
X01167750Y01854154D01*
X01172287D01*
X01172446Y01853946D01*
X01174439Y01852417D01*
X01176759Y01851456D01*
X01179250Y01851128D01*
X01185250D01*
X01187740Y01851456D01*
X01190061Y01852417D01*
X01192054Y01853946D01*
X01193583Y01855939D01*
X01194545Y01858259D01*
X01194872Y01860750D01*
X01194545Y01863240D01*
X01193583Y01865561D01*
X01193088Y01866206D01*
X01194321Y01868706D01*
X01201153D01*
X01202947Y01868706D01*
X01206466Y01868006D01*
X01209781Y01866633D01*
X01212266Y01864972D01*
X01214033Y01863371D01*
X01214033Y01863371D01*
X01215699Y01861705D01*
X01220698Y01856706D01*
X01338884Y01738520D01*
X01338203Y01735666D01*
X01333782Y01733113D01*
X01328837Y01729319D01*
X01324431Y01724913D01*
X01320637Y01719969D01*
X01317521Y01714572D01*
X01315136Y01708814D01*
X01313524Y01702794D01*
X01312710Y01696616D01*
Y01690384D01*
X01313524Y01684205D01*
X01315136Y01678186D01*
X01317521Y01672428D01*
X01320637Y01667032D01*
X01324431Y01662087D01*
X01328837Y01657681D01*
X01333782Y01653887D01*
X01338611Y01651099D01*
X01337985Y01648599D01*
X01319169D01*
X01290384Y01677384D01*
X01231384Y01736384D01*
X01229716Y01737498D01*
X01227750Y01737889D01*
X01220491D01*
X01219993Y01740389D01*
X01220061Y01740417D01*
X01222054Y01741946D01*
X01223583Y01743939D01*
X01224545Y01746259D01*
X01224872Y01748750D01*
X01224545Y01751240D01*
X01223583Y01753561D01*
X01222054Y01755554D01*
X01220061Y01757083D01*
X01217740Y01758044D01*
X01215250Y01758372D01*
X01209250D01*
X01206759Y01758044D01*
X01204439Y01757083D01*
X01202446Y01755554D01*
X01200917Y01753561D01*
X01199956Y01751240D01*
X01199628Y01748750D01*
X01199956Y01746259D01*
X01200917Y01743939D01*
X01202446Y01741946D01*
X01204439Y01740417D01*
X01204507Y01740389D01*
X01204009Y01737889D01*
X01193332D01*
X01192054Y01739554D01*
X01190061Y01741083D01*
X01187740Y01742044D01*
X01185250Y01742372D01*
X01179250D01*
X01176759Y01742044D01*
X01174439Y01741083D01*
X01172446Y01739554D01*
X01170917Y01737561D01*
X01169956Y01735240D01*
X01169628Y01732750D01*
X01169956Y01730260D01*
X01170917Y01727939D01*
X01172446Y01725946D01*
X01174439Y01724417D01*
X01176759Y01723456D01*
X01179250Y01723128D01*
X01185250D01*
X01187740Y01723456D01*
X01190061Y01724417D01*
X01192054Y01725946D01*
X01193332Y01727611D01*
X01225621D01*
X01281611Y01671622D01*
Y01642290D01*
X01280467D01*
X01277024Y01641367D01*
X01273936Y01639585D01*
X01271415Y01637064D01*
X01269633Y01633976D01*
X01268710Y01630533D01*
Y01626967D01*
X01269633Y01623524D01*
X01271415Y01620436D01*
X01273936Y01617915D01*
X01277024Y01616133D01*
X01280467Y01615210D01*
X01284033D01*
X01287476Y01616133D01*
X01290564Y01617915D01*
X01293085Y01620436D01*
X01294867Y01623524D01*
X01295790Y01626967D01*
Y01630533D01*
X01294867Y01633976D01*
X01293085Y01637064D01*
X01291570Y01638578D01*
X01291889Y01640179D01*
Y01658078D01*
X01294198Y01659034D01*
X01312193Y01641040D01*
X01311210Y01638540D01*
X01311210D01*
Y01630727D01*
X01285872Y01605389D01*
X01268311D01*
X01268128Y01605628D01*
X01266553Y01606836D01*
X01264718Y01607596D01*
X01262750Y01607855D01*
X01015400D01*
X00989394Y01633861D01*
X00990430Y01636361D01*
X01047976D01*
X01048870Y01635466D01*
X01050590Y01634474D01*
X01052507Y01633960D01*
X01054493D01*
X01056410Y01634474D01*
X01058130Y01635466D01*
X01059533Y01636870D01*
X01060526Y01638590D01*
X01061040Y01640507D01*
Y01642493D01*
X01060526Y01644410D01*
X01060410Y01644611D01*
X01061854Y01647111D01*
X01082859D01*
X01082883Y01647024D01*
X01084665Y01643936D01*
X01087186Y01641415D01*
X01090274Y01639633D01*
X01093717Y01638710D01*
X01097283D01*
X01100726Y01639633D01*
X01103814Y01641415D01*
X01106335Y01643936D01*
X01108117Y01647024D01*
X01109040Y01650467D01*
Y01654033D01*
X01108117Y01657476D01*
X01106335Y01660564D01*
X01103814Y01663085D01*
X01100726Y01664867D01*
X01097283Y01665790D01*
X01093717D01*
X01090274Y01664867D01*
X01087186Y01663085D01*
X01084665Y01660564D01*
X01082883Y01657476D01*
X01082859Y01657389D01*
X00989128D01*
X00926889Y01719628D01*
Y01898121D01*
X00931378Y01902611D01*
X00940720D01*
X00941806Y01901196D01*
X00943799Y01899667D01*
X00946120Y01898706D01*
X00948610Y01898378D01*
X00952390D01*
X00954881Y01898706D01*
X00957201Y01899667D01*
X00959194Y01901196D01*
X00960723Y01903189D01*
X00961684Y01905510D01*
X00962012Y01908000D01*
X00961684Y01910491D01*
X00960723Y01912811D01*
X00959194Y01914804D01*
X00957201Y01916333D01*
X00954881Y01917295D01*
X00952390Y01917622D01*
X00948610D01*
X00946120Y01917295D01*
X00943799Y01916333D01*
X00941806Y01914804D01*
X00940336Y01912889D01*
X00929250D01*
X00927283Y01912498D01*
X00925616Y01911384D01*
X00918116Y01903884D01*
X00917002Y01902216D01*
X00916611Y01900250D01*
Y01724305D01*
X00914302Y01723349D01*
X00895046Y01742604D01*
X00893379Y01743718D01*
X00891413Y01744109D01*
X00844064D01*
X00809223Y01778951D01*
X00809512Y01781150D01*
X00809184Y01783640D01*
X00808223Y01785961D01*
X00806694Y01787954D01*
X00804701Y01789483D01*
X00802381Y01790444D01*
X00799890Y01790772D01*
X00796110D01*
X00793620Y01790444D01*
X00791299Y01789483D01*
X00789306Y01787954D01*
X00789032Y01787597D01*
X00778436D01*
X00776729Y01787372D01*
X00775138Y01786713D01*
X00773772Y01785665D01*
X00771389Y01783281D01*
X00769125Y01784219D01*
X00768894Y01786627D01*
X00783529Y01801261D01*
X00788143D01*
X00789306Y01799746D01*
X00791299Y01798217D01*
X00793620Y01797256D01*
X00796110Y01796928D01*
X00799890D01*
X00802381Y01797256D01*
X00804701Y01798217D01*
X00806694Y01799746D01*
X00808223Y01801739D01*
X00809184Y01804060D01*
X00809512Y01806550D01*
X00809184Y01809041D01*
X00808223Y01811361D01*
X00806694Y01813354D01*
X00804701Y01814883D01*
X00802381Y01815845D01*
X00799890Y01816172D01*
X00796110D01*
X00793620Y01815845D01*
X00791299Y01814883D01*
X00789306Y01813354D01*
X00787913Y01811539D01*
X00781400D01*
X00779434Y01811148D01*
X00777766Y01810034D01*
X00764928Y01797196D01*
X00762619Y01798152D01*
Y01807852D01*
X00781429Y01826661D01*
X00788143D01*
X00789306Y01825146D01*
X00791299Y01823617D01*
X00793620Y01822656D01*
X00796110Y01822328D01*
X00799890D01*
X00802381Y01822656D01*
X00804701Y01823617D01*
X00806694Y01825146D01*
X00808223Y01827139D01*
X00809184Y01829460D01*
X00809512Y01831950D01*
X00809184Y01834440D01*
X00808223Y01836761D01*
X00806694Y01838754D01*
X00804701Y01840283D01*
X00802381Y01841245D01*
X00799890Y01841572D01*
X00796110D01*
X00793620Y01841245D01*
X00791299Y01840283D01*
X00789306Y01838754D01*
X00787913Y01836939D01*
X00779300D01*
X00777334Y01836548D01*
X00775667Y01835434D01*
X00758658Y01818426D01*
X00756349Y01819382D01*
Y01824814D01*
X00783597Y01852061D01*
X00788143D01*
X00789306Y01850546D01*
X00791299Y01849017D01*
X00793620Y01848056D01*
X00796110Y01847728D01*
X00799890D01*
X00802381Y01848056D01*
X00804701Y01849017D01*
X00806694Y01850546D01*
X00808223Y01852539D01*
X00809184Y01854860D01*
X00809512Y01857350D01*
X00809184Y01859841D01*
X00808223Y01862161D01*
X00806694Y01864154D01*
X00804701Y01865683D01*
X00802381Y01866644D01*
X00799890Y01866972D01*
X00796110D01*
X00793620Y01866644D01*
X00791299Y01865683D01*
X00789306Y01864154D01*
X00787913Y01862339D01*
X00781468D01*
X00779501Y01861948D01*
X00777834Y01860834D01*
X00747576Y01830576D01*
X00747340Y01830222D01*
X00744840Y01830981D01*
Y01838290D01*
X00739199D01*
Y01841911D01*
X00774749Y01877461D01*
X00788143D01*
X00789306Y01875946D01*
X00791299Y01874417D01*
X00793620Y01873456D01*
X00796110Y01873128D01*
X00799890D01*
X00802381Y01873456D01*
X00804701Y01874417D01*
X00806694Y01875946D01*
X00808223Y01877939D01*
X00809184Y01880260D01*
X00809512Y01882750D01*
X00809184Y01885240D01*
X00808223Y01887561D01*
X00806694Y01889554D01*
X00804701Y01891083D01*
X00802381Y01892045D01*
X00799890Y01892372D01*
X00796110D01*
X00793620Y01892045D01*
X00791299Y01891083D01*
X00789306Y01889554D01*
X00787913Y01887739D01*
X00772620D01*
X00770654Y01887348D01*
X00768987Y01886234D01*
X00730426Y01847674D01*
X00729312Y01846006D01*
X00728921Y01844040D01*
Y01838290D01*
X00723760D01*
Y01823210D01*
X00743571D01*
X00744840Y01823210D01*
X00746071Y01821220D01*
Y01810280D01*
X00744840Y01808290D01*
X00743571Y01808290D01*
X00723760D01*
Y01793210D01*
X00729161D01*
Y01763104D01*
X00727828Y01762334D01*
X00725866Y01760372D01*
X00724479Y01757968D01*
X00723760Y01755288D01*
Y01752512D01*
X00724479Y01749832D01*
X00725866Y01747428D01*
X00727828Y01745466D01*
X00730232Y01744078D01*
X00730611Y01743977D01*
Y01741378D01*
X00726122Y01736889D01*
X00608879D01*
X00603889Y01741879D01*
Y01744379D01*
X00605772Y01745466D01*
X00607734Y01747428D01*
X00609122Y01749832D01*
X00609840Y01752512D01*
Y01755288D01*
X00609122Y01757968D01*
X00607734Y01760372D01*
X00605772Y01762334D01*
X00603368Y01763722D01*
X00600688Y01764440D01*
X00597912D01*
X00595232Y01763722D01*
X00592828Y01762334D01*
X00590866Y01760372D01*
X00589478Y01757968D01*
X00588760Y01755288D01*
Y01752512D01*
X00589478Y01749832D01*
X00590866Y01747428D01*
X00592828Y01745466D01*
X00593611Y01745014D01*
Y01741879D01*
X00564122Y01712389D01*
X00554009D01*
X00552973Y01714889D01*
X00553197Y01715112D01*
X00554040Y01717148D01*
Y01719352D01*
X00553639Y01720321D01*
Y01744696D01*
X00554972Y01745466D01*
X00556934Y01747428D01*
X00558322Y01749832D01*
X00559040Y01752512D01*
Y01755288D01*
X00558322Y01757968D01*
X00556934Y01760372D01*
X00554972Y01762334D01*
X00552568Y01763722D01*
X00549888Y01764440D01*
X00547112D01*
X00544432Y01763722D01*
X00542028Y01762334D01*
X00540066Y01760372D01*
X00538678Y01757968D01*
X00537960Y01755288D01*
Y01752512D01*
X00538678Y01749832D01*
X00540066Y01747428D01*
X00542028Y01745466D01*
X00543361Y01744696D01*
Y01720321D01*
X00542960Y01719352D01*
Y01717148D01*
X00543803Y01715112D01*
X00544027Y01714889D01*
X00542991Y01712389D01*
X00480728D01*
X00469439Y01723678D01*
Y01744696D01*
X00470772Y01745466D01*
X00472734Y01747428D01*
X00474122Y01749832D01*
X00474840Y01752512D01*
Y01755288D01*
X00474122Y01757968D01*
X00472734Y01760372D01*
X00470772Y01762334D01*
X00468368Y01763722D01*
X00465688Y01764440D01*
X00462912D01*
X00460232Y01763722D01*
X00458558Y01762756D01*
X00457023Y01764756D01*
X00469628Y01777361D01*
X00568385D01*
Y01762887D01*
X00567428Y01762334D01*
X00565466Y01760372D01*
X00564078Y01757968D01*
X00563360Y01755288D01*
Y01752512D01*
X00564078Y01749832D01*
X00565466Y01747428D01*
X00567428Y01745466D01*
X00569832Y01744078D01*
X00572512Y01743360D01*
X00575288D01*
X00577968Y01744078D01*
X00580372Y01745466D01*
X00582334Y01747428D01*
X00583722Y01749832D01*
X00584440Y01752512D01*
Y01755288D01*
X00583722Y01757968D01*
X00582334Y01760372D01*
X00580372Y01762334D01*
X00578663Y01763321D01*
Y01777361D01*
X00703761D01*
Y01763104D01*
X00702428Y01762334D01*
X00700466Y01760372D01*
X00699079Y01757968D01*
X00698360Y01755288D01*
Y01752512D01*
X00699079Y01749832D01*
X00700466Y01747428D01*
X00702428Y01745466D01*
X00704832Y01744078D01*
X00707513Y01743360D01*
X00710288D01*
X00712968Y01744078D01*
X00715372Y01745466D01*
X00717334Y01747428D01*
X00718722Y01749832D01*
X00719440Y01752512D01*
Y01755288D01*
X00718722Y01757968D01*
X00717334Y01760372D01*
X00715372Y01762334D01*
X00714039Y01763104D01*
Y01782500D01*
X00713889Y01783255D01*
Y01793210D01*
X00719290D01*
Y01808290D01*
X00698210D01*
Y01793210D01*
X00703611D01*
Y01787639D01*
X00467500D01*
X00465533Y01787248D01*
X00463866Y01786134D01*
X00441774Y01764042D01*
X00440288Y01764440D01*
X00437512D01*
X00434832Y01763722D01*
X00432428Y01762334D01*
X00430466Y01760372D01*
X00429078Y01757968D01*
X00428360Y01755288D01*
Y01752512D01*
X00429078Y01749832D01*
X00430466Y01747428D01*
X00432428Y01745466D01*
X00434832Y01744078D01*
X00437512Y01743360D01*
X00440288D01*
X00442968Y01744078D01*
X00445372Y01745466D01*
X00447334Y01747428D01*
X00448722Y01749832D01*
X00449440Y01752512D01*
Y01755288D01*
X00449042Y01756774D01*
X00453444Y01761177D01*
X00455444Y01759642D01*
X00454478Y01757968D01*
X00453760Y01755288D01*
Y01752512D01*
X00454478Y01749832D01*
X00455866Y01747428D01*
X00457828Y01745466D01*
X00459161Y01744696D01*
Y01721550D01*
X00459552Y01719583D01*
X00460666Y01717916D01*
X00474966Y01703616D01*
X00476633Y01702502D01*
X00478600Y01702111D01*
X00566250D01*
X00568217Y01702502D01*
X00569884Y01703616D01*
X00598750Y01732483D01*
X00603116Y01728116D01*
X00604784Y01727002D01*
X00606750Y01726611D01*
X00728250D01*
X00730217Y01727002D01*
X00731884Y01728116D01*
X00739384Y01735616D01*
X00740498Y01737283D01*
X00740889Y01739250D01*
Y01745583D01*
X00742734Y01747428D01*
X00743571Y01748878D01*
X00746071Y01748208D01*
Y01721123D01*
X00724087Y01699139D01*
X00359194D01*
X00321422Y01736911D01*
X00322557Y01739312D01*
X00324500Y01739120D01*
X00328134Y01739478D01*
X00331629Y01740538D01*
X00334850Y01742260D01*
X00337673Y01744577D01*
X00339990Y01747400D01*
X00341712Y01750621D01*
X00342772Y01754115D01*
X00343130Y01757750D01*
Y01789533D01*
X00351467Y01797870D01*
X00517500D01*
X00517500Y01797870D01*
X00521134Y01798228D01*
X00524629Y01799288D01*
X00527850Y01801010D01*
X00530673Y01803327D01*
X00586423Y01859077D01*
X00588740Y01861900D01*
X00590462Y01865121D01*
X00591522Y01868616D01*
X00591880Y01872250D01*
X00591880Y01872250D01*
Y01910533D01*
X00603173Y01921827D01*
X00605490Y01924650D01*
X00606960Y01927400D01*
X00608898Y01927195D01*
X00609460Y01926970D01*
Y01918460D01*
X00630540D01*
Y01919404D01*
X00666753D01*
X00668404Y01917956D01*
Y01895540D01*
X00667460D01*
Y01874460D01*
X00680357D01*
X00681392Y01871960D01*
X00665571Y01856139D01*
X00661274D01*
X00660380Y01857034D01*
X00658660Y01858026D01*
X00656743Y01858540D01*
X00654757D01*
X00652840Y01858026D01*
X00651120Y01857034D01*
X00649716Y01855630D01*
X00648724Y01853910D01*
X00648210Y01851993D01*
Y01850007D01*
X00648724Y01848090D01*
X00649716Y01846370D01*
X00651120Y01844966D01*
X00652840Y01843974D01*
X00654757Y01843460D01*
X00656743D01*
X00658660Y01843974D01*
X00660380Y01844966D01*
X00661274Y01845861D01*
X00667699D01*
X00669666Y01846252D01*
X00671333Y01847366D01*
X00759901Y01935935D01*
X00760054Y01936037D01*
X00777679Y01953661D01*
X00788143D01*
X00789306Y01952146D01*
X00791299Y01950617D01*
X00793620Y01949656D01*
X00796110Y01949328D01*
X00799890D01*
X00802381Y01949656D01*
X00804701Y01950617D01*
X00806694Y01952146D01*
X00808223Y01954139D01*
X00809184Y01956460D01*
X00809512Y01958950D01*
X00809184Y01961440D01*
X00808223Y01963761D01*
X00806694Y01965754D01*
X00804701Y01967283D01*
X00802381Y01968244D01*
X00799890Y01968572D01*
X00796110D01*
X00793620Y01968244D01*
X00791299Y01967283D01*
X00789306Y01965754D01*
X00787913Y01963939D01*
X00775550D01*
X00773584Y01963548D01*
X00771917Y01962434D01*
X00752888Y01943406D01*
X00752736Y01943304D01*
X00752736Y01943304D01*
X00685040Y01875608D01*
X00682540Y01876643D01*
Y01895540D01*
X00681596D01*
Y01920329D01*
X00682700Y01920966D01*
X00685034Y01923300D01*
X00686685Y01926160D01*
X00687540Y01929349D01*
Y01932651D01*
X00686685Y01935840D01*
X00685034Y01938700D01*
X00682700Y01941035D01*
X00680828Y01942115D01*
Y01944885D01*
X00682700Y01945966D01*
X00685034Y01948300D01*
X00685089Y01948395D01*
X00695750D01*
X00697718Y01948654D01*
X00699553Y01949414D01*
X00701128Y01950622D01*
X00742878Y01992372D01*
X00744086Y01993947D01*
X00744401Y01994707D01*
X00744846Y01995782D01*
X00745105Y01997750D01*
Y02153661D01*
X00745200Y02153716D01*
X00747534Y02156050D01*
X00749185Y02158910D01*
X00750040Y02162099D01*
Y02165401D01*
X00749185Y02168590D01*
X00747534Y02171450D01*
X00745200Y02173784D01*
X00744389Y02174252D01*
X00744389Y02177139D01*
X00745789Y02177947D01*
X00748303Y02180461D01*
X00750080Y02183539D01*
X00751000Y02186973D01*
Y02187000D01*
X00737500D01*
X00724000D01*
Y02186973D01*
X00724920Y02183539D01*
X00726697Y02180461D01*
X00729211Y02177947D01*
X00730611Y02177139D01*
X00730611Y02174252D01*
X00729800Y02173784D01*
X00727466Y02171450D01*
X00727411Y02171355D01*
X00647896D01*
X00646984Y02172902D01*
X00646826Y02173821D01*
X00679150Y02206145D01*
X00727411D01*
X00727466Y02206050D01*
X00729800Y02203716D01*
X00730611Y02203248D01*
X00730611Y02200361D01*
X00729211Y02199553D01*
X00726697Y02197039D01*
X00724920Y02193961D01*
X00724000Y02190527D01*
Y02190500D01*
X00737500D01*
X00751000D01*
Y02190527D01*
X00750080Y02193961D01*
X00748303Y02197039D01*
X00745789Y02199553D01*
X00744389Y02200361D01*
X00744389Y02203248D01*
X00745200Y02203716D01*
X00747534Y02206050D01*
X00749185Y02208910D01*
X00750040Y02212099D01*
Y02215401D01*
X00750012Y02215506D01*
X00761378Y02226872D01*
X00762586Y02228448D01*
X00762901Y02229207D01*
X00763346Y02230282D01*
X00763605Y02232250D01*
Y02266854D01*
X00766105Y02267890D01*
X00772622Y02261372D01*
X00774197Y02260164D01*
X00774957Y02259849D01*
X00776032Y02259404D01*
X00778000Y02259145D01*
X00817600D01*
X00920122Y02156622D01*
X00921697Y02155414D01*
X00922457Y02155099D01*
X00923531Y02154654D01*
X00925500Y02154395D01*
X00942850D01*
X00943799Y02153667D01*
X00946120Y02152706D01*
X00948610Y02152378D01*
X00952390D01*
X00954881Y02152706D01*
X00957201Y02153667D01*
X00959140Y02155155D01*
X00966760D01*
X00968728Y02155414D01*
X00970562Y02156174D01*
X00972137Y02157382D01*
X00994750Y02179995D01*
X01009122Y02165622D01*
X01010697Y02164414D01*
X01011457Y02164099D01*
X01012532Y02163654D01*
X01014500Y02163395D01*
X01131940D01*
Y02160460D01*
X01147020D01*
Y02181540D01*
X01131940D01*
Y02178605D01*
X01017650D01*
X01002355Y02193900D01*
Y02271535D01*
X01003984Y02273164D01*
X01005504Y02275796D01*
X01006290Y02278731D01*
Y02281769D01*
X01005504Y02284704D01*
X01003984Y02287336D01*
X01002355Y02288965D01*
Y02292632D01*
X01088116Y02292632D01*
D02*
G37*
G36*
X00532000Y01968352D02*
X00666314D01*
X00667034Y01966660D01*
X00667118Y01965852D01*
X00664966Y01963700D01*
X00664911Y01963605D01*
X00601250D01*
X00599282Y01963346D01*
X00597448Y01962586D01*
X00595872Y01961378D01*
X00587920Y01953425D01*
X00586366Y01953272D01*
X00582871Y01952212D01*
X00579650Y01950490D01*
X00576827Y01948173D01*
X00560077Y01931423D01*
X00557760Y01928600D01*
X00556038Y01925379D01*
X00554978Y01921884D01*
X00554620Y01918250D01*
X00554620Y01918250D01*
Y01879967D01*
X00509783Y01835130D01*
X00343750D01*
X00340116Y01834772D01*
X00336621Y01833712D01*
X00333400Y01831990D01*
X00330577Y01829673D01*
X00330577Y01829673D01*
X00311327Y01810423D01*
X00309010Y01807600D01*
X00307288Y01804379D01*
X00306228Y01800885D01*
X00305887Y01797416D01*
X00305153Y01796866D01*
X00303561Y01796207D01*
X00296134Y01803634D01*
X00294466Y01804748D01*
X00292500Y01805139D01*
X00167500D01*
X00165534Y01804748D01*
X00163866Y01803634D01*
X00157366Y01797134D01*
X00156252Y01795466D01*
X00155861Y01793500D01*
Y01785540D01*
X00150460D01*
Y01784596D01*
X00139540D01*
Y01788540D01*
X00124460D01*
Y01767460D01*
X00139540D01*
Y01771404D01*
X00150460D01*
Y01770460D01*
X00171540D01*
Y01785540D01*
X00166139D01*
Y01791371D01*
X00169629Y01794861D01*
X00290371D01*
X00297361Y01787872D01*
Y01778172D01*
X00295052Y01777216D01*
X00290634Y01781634D01*
X00288967Y01782748D01*
X00287000Y01783139D01*
X00267540D01*
Y01785540D01*
X00246460D01*
Y01784596D01*
X00235540D01*
Y01788540D01*
X00220460D01*
Y01767460D01*
X00235540D01*
Y01771404D01*
X00246460D01*
Y01770460D01*
X00267540D01*
Y01772861D01*
X00284872D01*
X00289861Y01767872D01*
Y01747199D01*
X00290252Y01745232D01*
X00291366Y01743565D01*
X00295143Y01739788D01*
X00295145Y01739068D01*
X00294411Y01736985D01*
X00293112Y01736447D01*
X00291553Y01734888D01*
X00290710Y01732852D01*
Y01730648D01*
X00291553Y01728612D01*
X00293112Y01727053D01*
X00294081Y01726652D01*
X00307787Y01712946D01*
X00306830Y01710636D01*
X00267240D01*
Y01735540D01*
X00263296D01*
Y01740460D01*
X00267540D01*
Y01755540D01*
X00246460D01*
Y01754596D01*
X00235540D01*
Y01758540D01*
X00220460D01*
Y01737916D01*
X00220460Y01737460D01*
X00220460Y01737460D01*
X00220760Y01735540D01*
X00220760D01*
Y01710636D01*
X00171240D01*
Y01735540D01*
X00167296D01*
Y01740460D01*
X00171540D01*
Y01755540D01*
X00150460D01*
Y01754596D01*
X00139540D01*
Y01758540D01*
X00124460D01*
Y01737916D01*
X00124460Y01737460D01*
X00124460Y01737460D01*
X00124760Y01735540D01*
X00124760D01*
Y01711834D01*
X00122260Y01710798D01*
X00098868Y01734190D01*
X00099824Y01736500D01*
X00100250D01*
Y01748000D01*
Y01759500D01*
X00093500D01*
X00092114Y01761426D01*
X00092114Y01764574D01*
X00094614Y01766500D01*
X00100250D01*
Y01778000D01*
Y01789500D01*
X00094614D01*
X00093500Y01789500D01*
X00092114Y01791426D01*
X00092114Y01803230D01*
X00092114Y01803924D01*
X00092385Y01805285D01*
X00092916Y01806568D01*
X00093687Y01807722D01*
X00094669Y01808704D01*
X00095823Y01809475D01*
X00097105Y01810006D01*
X00098467Y01810277D01*
X00099161Y01810277D01*
X00099162Y01810278D01*
X00212498Y01810278D01*
X00213305Y01810318D01*
X00214890Y01810633D01*
X00216383Y01811251D01*
X00217726Y01812149D01*
X00218325Y01812692D01*
X00218326Y01812692D01*
X00272602Y01866967D01*
X00273015Y01867381D01*
X00273987Y01868030D01*
X00275067Y01868477D01*
X00276213Y01868705D01*
X00276797Y01868705D01*
X00276798Y01868706D01*
X00526340Y01868706D01*
X00526956Y01868766D01*
X00528096Y01869238D01*
X00528968Y01870111D01*
X00529440Y01871250D01*
X00529501Y01871867D01*
X00529502Y01871868D01*
Y01966785D01*
X00531382Y01968433D01*
X00532000Y01968352D01*
D02*
G37*
G36*
X00789306Y01774346D02*
X00791299Y01772817D01*
X00793620Y01771856D01*
X00796110Y01771528D01*
X00799890D01*
X00801853Y01771786D01*
X00806821Y01766818D01*
X00805185Y01764922D01*
X00802631Y01765980D01*
X00799890Y01766341D01*
X00799750D01*
Y01757500D01*
X00810250D01*
X00810120Y01758491D01*
X00809062Y01761045D01*
X00810958Y01762681D01*
X00833524Y01740115D01*
X00832567Y01737805D01*
X00809430D01*
Y01739890D01*
X00786570D01*
Y01720810D01*
X00809430D01*
Y01722595D01*
X00879150D01*
X01006872Y01594872D01*
X01008447Y01593664D01*
X01009207Y01593349D01*
X01010282Y01592904D01*
X01012250Y01592645D01*
X01262750D01*
X01264718Y01592904D01*
X01266553Y01593664D01*
X01268128Y01594872D01*
X01268311Y01595111D01*
X01288000D01*
X01289967Y01595502D01*
X01291634Y01596616D01*
X01318477Y01623460D01*
X01332290D01*
Y01638321D01*
X01340747D01*
X01341324Y01637738D01*
X01342229Y01635821D01*
X01341867Y01634947D01*
X01341644Y01633250D01*
Y01630250D01*
X01348200D01*
Y01628500D01*
X01349950D01*
Y01617439D01*
X01351478Y01618072D01*
X01352836Y01619114D01*
X01353261Y01619669D01*
X01355761Y01618820D01*
Y01609529D01*
X01352371Y01606138D01*
X01332290D01*
Y01608540D01*
X01311210D01*
Y01593460D01*
X01316611D01*
Y01584290D01*
X01311210D01*
Y01581889D01*
X01295141D01*
X01295117Y01581976D01*
X01293335Y01585064D01*
X01290814Y01587585D01*
X01287726Y01589367D01*
X01284283Y01590290D01*
X01280717D01*
X01277274Y01589367D01*
X01274186Y01587585D01*
X01271665Y01585064D01*
X01269883Y01581976D01*
X01268960Y01578533D01*
Y01574967D01*
X01269883Y01571524D01*
X01271665Y01568436D01*
X01274186Y01565915D01*
X01277274Y01564133D01*
X01280717Y01563210D01*
X01284283D01*
X01287726Y01564133D01*
X01290814Y01565915D01*
X01293335Y01568436D01*
X01295117Y01571524D01*
X01295141Y01571611D01*
X01311210D01*
Y01569210D01*
X01332290D01*
Y01584290D01*
X01326889D01*
Y01593460D01*
X01332290D01*
Y01595861D01*
X01354500D01*
X01356466Y01596252D01*
X01358133Y01597366D01*
X01364534Y01603766D01*
X01365647Y01605434D01*
X01366039Y01607400D01*
Y01618006D01*
X01367947Y01619006D01*
X01368653Y01618575D01*
Y01616709D01*
X01369044Y01614742D01*
X01370158Y01613075D01*
X01376866Y01606366D01*
X01378533Y01605252D01*
X01380500Y01604861D01*
X01409250D01*
X01409611Y01604565D01*
Y01589391D01*
X01409524Y01589367D01*
X01406436Y01587585D01*
X01403915Y01585064D01*
X01402133Y01581976D01*
X01401210Y01578533D01*
Y01574967D01*
X01402133Y01571524D01*
X01403915Y01568436D01*
X01406436Y01565915D01*
X01409524Y01564133D01*
X01412967Y01563210D01*
X01416533D01*
X01419976Y01564133D01*
X01423064Y01565915D01*
X01425585Y01568436D01*
X01427367Y01571524D01*
X01428290Y01574967D01*
Y01578533D01*
X01427367Y01581976D01*
X01425585Y01585064D01*
X01423064Y01587585D01*
X01419976Y01589367D01*
X01419889Y01589391D01*
Y01615660D01*
X01425290D01*
Y01630740D01*
X01404210D01*
Y01615660D01*
X01401926Y01615139D01*
X01382628D01*
X01379615Y01618153D01*
X01379798Y01619009D01*
X01381400Y01619486D01*
X01382489Y01619634D01*
X01384138Y01618531D01*
X01386300Y01618102D01*
X01388462Y01618531D01*
X01390294Y01619756D01*
X01391519Y01621588D01*
X01391949Y01623750D01*
Y01633250D01*
X01391519Y01635412D01*
X01391247Y01635817D01*
Y01639141D01*
X01390856Y01641108D01*
X01389742Y01642775D01*
X01385424Y01647094D01*
X01383757Y01648208D01*
X01382312Y01648495D01*
X01381861Y01649532D01*
X01381816Y01649733D01*
X01381848Y01651075D01*
X01386718Y01653887D01*
X01391663Y01657681D01*
X01396069Y01662087D01*
X01399863Y01667032D01*
X01402522Y01671637D01*
X01404920Y01672434D01*
X01405649Y01672343D01*
X01408094Y01670709D01*
X01408154Y01670677D01*
Y01660740D01*
X01404210D01*
Y01645660D01*
X01425290D01*
Y01646504D01*
X01433960D01*
Y01642460D01*
X01449040D01*
Y01663540D01*
X01449040D01*
X01449103Y01666014D01*
X01461127D01*
X01463000Y01663514D01*
Y01654750D01*
X01471500D01*
Y01653000D01*
D01*
Y01654750D01*
X01480000D01*
Y01663514D01*
X01480000Y01664500D01*
X01481873Y01666014D01*
X01526453D01*
X01527977Y01665711D01*
X01529412Y01665116D01*
X01530704Y01664253D01*
X01531803Y01663154D01*
X01532666Y01661862D01*
X01533261Y01660427D01*
X01533262Y01660421D01*
X01533564Y01658127D01*
Y01658126D01*
X01533564Y01658126D01*
X01533564Y01658126D01*
X01533564Y01547430D01*
Y01546251D01*
X01533104Y01543938D01*
X01532202Y01541759D01*
X01530891Y01539798D01*
X01529224Y01538131D01*
X01527263Y01536821D01*
X01525084Y01535918D01*
X01523585Y01535620D01*
X01395546D01*
X01393290Y01536210D01*
X01393290Y01538120D01*
Y01542361D01*
X01407179D01*
X01408148Y01541960D01*
X01410352D01*
X01412388Y01542803D01*
X01413947Y01544362D01*
X01414790Y01546398D01*
Y01548602D01*
X01413947Y01550638D01*
X01412388Y01552197D01*
X01410352Y01553040D01*
X01408148D01*
X01407179Y01552639D01*
X01393290D01*
Y01557290D01*
X01391439D01*
Y01567469D01*
X01391519Y01567588D01*
X01391949Y01569750D01*
Y01579250D01*
X01391519Y01581412D01*
X01390294Y01583244D01*
X01388462Y01584469D01*
X01386300Y01584899D01*
X01384138Y01584469D01*
X01382306Y01583244D01*
X01381302Y01581742D01*
X01379950Y01581562D01*
X01378598Y01581742D01*
X01377594Y01583244D01*
X01375762Y01584469D01*
X01373600Y01584899D01*
X01371438Y01584469D01*
X01369606Y01583244D01*
X01369224Y01582672D01*
X01367736Y01582591D01*
X01366333Y01582846D01*
X01365536Y01583886D01*
X01364178Y01584928D01*
X01362650Y01585561D01*
Y01574500D01*
Y01563439D01*
X01364178Y01564072D01*
X01365536Y01565114D01*
X01366333Y01566154D01*
X01367736Y01566409D01*
X01369224Y01566328D01*
X01369606Y01565756D01*
X01371438Y01564532D01*
X01373600Y01564102D01*
X01375762Y01564532D01*
X01377594Y01565756D01*
X01380697Y01565971D01*
X01381161Y01565649D01*
Y01557290D01*
X01378210D01*
Y01550247D01*
X01378111Y01549750D01*
Y01546750D01*
X01378210Y01546253D01*
X01378210Y01536210D01*
X01375954Y01535620D01*
X01364250D01*
Y01545000D01*
X01355750D01*
X01347250D01*
Y01535620D01*
X00952043D01*
X00951148Y01538120D01*
X00952923Y01539577D01*
X00983673Y01570327D01*
X00985990Y01573150D01*
X00987712Y01576371D01*
X00988772Y01579866D01*
X00989130Y01583500D01*
X00988772Y01587135D01*
X00987712Y01590629D01*
X00985990Y01593850D01*
X00983673Y01596673D01*
X00980850Y01598990D01*
X00977629Y01600712D01*
X00974134Y01601772D01*
X00970500Y01602130D01*
X00966865Y01601772D01*
X00963371Y01600712D01*
X00960150Y01598990D01*
X00957327Y01596673D01*
X00932033Y01571380D01*
X00803040D01*
Y01590040D01*
X00800639D01*
Y01600179D01*
X00801040Y01601148D01*
Y01603352D01*
X00800197Y01605388D01*
X00798638Y01606947D01*
X00796602Y01607790D01*
X00794398D01*
X00792362Y01606947D01*
X00790803Y01605388D01*
X00789960Y01603352D01*
Y01601148D01*
X00790361Y01600179D01*
Y01590040D01*
X00787960D01*
Y01571380D01*
X00773040D01*
Y01590040D01*
X00757960D01*
Y01584639D01*
X00715379D01*
X00714389Y01585629D01*
Y01592498D01*
X00715372Y01593066D01*
X00717334Y01595028D01*
X00718722Y01597432D01*
X00719440Y01600112D01*
Y01602888D01*
X00718722Y01605568D01*
X00717334Y01607972D01*
X00715372Y01609934D01*
X00712968Y01611322D01*
X00710288Y01612040D01*
X00707513D01*
X00704832Y01611322D01*
X00702428Y01609934D01*
X00700466Y01607972D01*
X00699079Y01605568D01*
X00698360Y01602888D01*
Y01600112D01*
X00699079Y01597432D01*
X00700466Y01595028D01*
X00702428Y01593066D01*
X00704111Y01592094D01*
Y01585629D01*
X00702372Y01583889D01*
X00580378D01*
X00579139Y01585128D01*
Y01592354D01*
X00580372Y01593066D01*
X00582334Y01595028D01*
X00583722Y01597432D01*
X00584440Y01600112D01*
Y01602888D01*
X00583722Y01605568D01*
X00582334Y01607972D01*
X00580372Y01609934D01*
X00577968Y01611322D01*
X00575288Y01612040D01*
X00572512D01*
X00569832Y01611322D01*
X00567428Y01609934D01*
X00565466Y01607972D01*
X00564078Y01605568D01*
X00563360Y01602888D01*
Y01600112D01*
X00564078Y01597432D01*
X00565466Y01595028D01*
X00567428Y01593066D01*
X00568861Y01592239D01*
Y01585128D01*
X00567371Y01583639D01*
X00446628D01*
X00444139Y01586129D01*
Y01592354D01*
X00445372Y01593066D01*
X00447334Y01595028D01*
X00448722Y01597432D01*
X00449440Y01600112D01*
Y01602888D01*
X00448722Y01605568D01*
X00447334Y01607972D01*
X00445372Y01609934D01*
X00442968Y01611322D01*
X00440288Y01612040D01*
X00437512D01*
X00434832Y01611322D01*
X00432428Y01609934D01*
X00430466Y01607972D01*
X00429078Y01605568D01*
X00428360Y01602888D01*
Y01600112D01*
X00429078Y01597432D01*
X00430466Y01595028D01*
X00432428Y01593066D01*
X00433861Y01592239D01*
Y01584000D01*
X00434252Y01582034D01*
X00435366Y01580366D01*
X00440866Y01574866D01*
X00442343Y01573880D01*
X00442363Y01573699D01*
X00440818Y01571380D01*
X00352717D01*
X00348400Y01575697D01*
Y01607000D01*
Y01647641D01*
X00348042Y01651275D01*
X00346982Y01654770D01*
X00345260Y01657991D01*
X00342943Y01660814D01*
X00340120Y01663131D01*
X00336899Y01664852D01*
X00333405Y01665913D01*
X00329770Y01666271D01*
X00326135Y01665913D01*
X00322641Y01664852D01*
X00319420Y01663131D01*
X00317880Y01661867D01*
X00315380Y01663050D01*
Y01687025D01*
X00317690Y01687982D01*
X00336646Y01669026D01*
X00338012Y01667977D01*
X00339603Y01667318D01*
X00341310Y01667094D01*
X00737557D01*
X00739264Y01667318D01*
X00740855Y01667977D01*
X00742222Y01669026D01*
X00778414Y01705219D01*
X00779463Y01706585D01*
X00780122Y01708176D01*
X00780346Y01709883D01*
Y01773582D01*
X00781169Y01774404D01*
X00789262D01*
X00789306Y01774346D01*
D02*
G37*
G36*
X01581000Y01811750D02*
X01581796Y01811750D01*
X01583266Y01811141D01*
X01584391Y01810016D01*
X01584575Y01809572D01*
X01585000Y01807750D01*
Y01807750D01*
X01585000D01*
X01585000Y01807750D01*
X01585000Y01761548D01*
X01585027Y01761004D01*
X01585239Y01759937D01*
X01585655Y01758933D01*
X01586259Y01758028D01*
X01586625Y01757625D01*
X01586625D01*
X01600311Y01743939D01*
X01602157Y01742265D01*
X01606297Y01739499D01*
X01610898Y01737594D01*
X01615781Y01736622D01*
X01618271Y01736500D01*
X01681000D01*
X01681976Y01736596D01*
X01683778Y01737343D01*
X01685157Y01738722D01*
X01685904Y01740524D01*
X01686000Y01741500D01*
Y01742000D01*
X01726000D01*
Y01628250D01*
Y01627554D01*
X01725467Y01626267D01*
X01724483Y01625283D01*
X01723196Y01624750D01*
X01722500D01*
X01546500Y01624750D01*
X01545555Y01624750D01*
X01543809Y01625473D01*
X01542473Y01626809D01*
X01541750Y01628555D01*
X01541750Y01629500D01*
X01541750Y01629500D01*
X01541750Y01808500D01*
Y01809146D01*
X01542245Y01810341D01*
X01543159Y01811255D01*
X01544353Y01811750D01*
X01545750D01*
X01581000Y01811750D01*
D02*
G37*
%LPC*%
G36*
X00812500Y02295000D02*
X00802750D01*
Y02288250D01*
X00812500D01*
Y02295000D01*
D02*
G37*
G36*
X00799250D02*
X00789500D01*
Y02288250D01*
X00799250D01*
Y02295000D01*
D02*
G37*
G36*
X00737750Y02284831D02*
Y02278250D01*
X00744331D01*
X00743921Y02279781D01*
X00742802Y02281719D01*
X00741219Y02283302D01*
X00739281Y02284421D01*
X00737750Y02284831D01*
D02*
G37*
G36*
X00734250D02*
X00732719Y02284421D01*
X00730781Y02283302D01*
X00729198Y02281719D01*
X00728079Y02279781D01*
X00727669Y02278250D01*
X00734250D01*
Y02284831D01*
D02*
G37*
G36*
X00744331Y02274750D02*
X00737750D01*
Y02268169D01*
X00739281Y02268579D01*
X00741219Y02269698D01*
X00742802Y02271281D01*
X00743921Y02273219D01*
X00744331Y02274750D01*
D02*
G37*
G36*
X00734250D02*
X00727669D01*
X00728079Y02273219D01*
X00729198Y02271281D01*
X00730781Y02269698D01*
X00732719Y02268579D01*
X00734250Y02268169D01*
Y02274750D01*
D02*
G37*
G36*
X00952390Y02222422D02*
X00948610D01*
X00946120Y02222095D01*
X00943799Y02221133D01*
X00941806Y02219604D01*
X00940277Y02217611D01*
X00939315Y02215291D01*
X00938988Y02212800D01*
X00939315Y02210310D01*
X00940277Y02207989D01*
X00941806Y02205996D01*
X00943799Y02204467D01*
X00946120Y02203506D01*
X00948610Y02203178D01*
X00952390D01*
X00954881Y02203506D01*
X00957201Y02204467D01*
X00959194Y02205996D01*
X00960723Y02207989D01*
X00961684Y02210310D01*
X00962012Y02212800D01*
X00961684Y02215291D01*
X00960723Y02217611D01*
X00959194Y02219604D01*
X00957201Y02221133D01*
X00954881Y02222095D01*
X00952390Y02222422D01*
D02*
G37*
G36*
Y02197991D02*
X00952250D01*
Y02189150D01*
X00962750D01*
X00962620Y02190141D01*
X00961562Y02192695D01*
X00959879Y02194889D01*
X00957685Y02196572D01*
X00955131Y02197630D01*
X00952390Y02197991D01*
D02*
G37*
G36*
X00948750D02*
X00948610D01*
X00945869Y02197630D01*
X00943315Y02196572D01*
X00941121Y02194889D01*
X00939438Y02192695D01*
X00938380Y02190141D01*
X00938250Y02189150D01*
X00948750D01*
Y02197991D01*
D02*
G37*
G36*
X00962750Y02185650D02*
X00952250D01*
Y02176810D01*
X00952390D01*
X00955131Y02177170D01*
X00957685Y02178228D01*
X00959879Y02179911D01*
X00961562Y02182105D01*
X00962620Y02184659D01*
X00962750Y02185650D01*
D02*
G37*
G36*
X00948750D02*
X00938250D01*
X00938380Y02184659D01*
X00939438Y02182105D01*
X00941121Y02179911D01*
X00943315Y02178228D01*
X00945869Y02177170D01*
X00948610Y02176810D01*
X00948750D01*
Y02185650D01*
D02*
G37*
G36*
X00606500Y02019500D02*
X00596750D01*
Y02012750D01*
X00606500D01*
Y02019500D01*
D02*
G37*
G36*
X00593250D02*
X00583500D01*
Y02012750D01*
X00593250D01*
Y02019500D01*
D02*
G37*
G36*
X00543437Y02014250D02*
X00533750D01*
Y02004563D01*
X00536439Y02005284D01*
X00539061Y02006798D01*
X00541202Y02008939D01*
X00542716Y02011561D01*
X00543437Y02014250D01*
D02*
G37*
G36*
X00606500Y02009250D02*
X00596750D01*
Y02002500D01*
X00606500D01*
Y02009250D01*
D02*
G37*
G36*
X00593250D02*
X00583500D01*
Y02002500D01*
X00593250D01*
Y02009250D01*
D02*
G37*
G36*
X01201558Y02263250D02*
X01194808D01*
Y02253500D01*
X01201558D01*
Y02263250D01*
D02*
G37*
G36*
X01191308D02*
X01184558D01*
Y02253500D01*
X01191308D01*
Y02263250D01*
D02*
G37*
G36*
X01201558Y02250000D02*
X01194808D01*
Y02240250D01*
X01201558D01*
Y02250000D01*
D02*
G37*
G36*
X01191308D02*
X01184558D01*
Y02240250D01*
X01191308D01*
Y02250000D01*
D02*
G37*
G36*
X01044138Y02252790D02*
X01041362D01*
X01038682Y02252072D01*
X01036278Y02250684D01*
X01034316Y02248722D01*
X01032928Y02246318D01*
X01032210Y02243638D01*
Y02240862D01*
X01032928Y02238182D01*
X01034316Y02235778D01*
X01036278Y02233816D01*
X01038682Y02232428D01*
X01041362Y02231710D01*
X01044138D01*
X01046818Y02232428D01*
X01049222Y02233816D01*
X01051184Y02235778D01*
X01052572Y02238182D01*
X01053290Y02240862D01*
Y02243638D01*
X01052572Y02246318D01*
X01051184Y02248722D01*
X01049222Y02250684D01*
X01046818Y02252072D01*
X01044138Y02252790D01*
D02*
G37*
G36*
X00799890Y02222572D02*
X00796110D01*
X00793620Y02222245D01*
X00791299Y02221283D01*
X00789306Y02219754D01*
X00787777Y02217761D01*
X00786815Y02215441D01*
X00786488Y02212950D01*
X00786815Y02210460D01*
X00787777Y02208139D01*
X00789306Y02206146D01*
X00791299Y02204617D01*
X00793620Y02203656D01*
X00796110Y02203328D01*
X00799890D01*
X00802381Y02203656D01*
X00804701Y02204617D01*
X00806694Y02206146D01*
X00808223Y02208139D01*
X00809184Y02210460D01*
X00809512Y02212950D01*
X00809184Y02215441D01*
X00808223Y02217761D01*
X00806694Y02219754D01*
X00804701Y02221283D01*
X00802381Y02222245D01*
X00799890Y02222572D01*
D02*
G37*
G36*
X01044138Y02228040D02*
X01041362D01*
X01038682Y02227322D01*
X01036278Y02225934D01*
X01034316Y02223972D01*
X01032928Y02221568D01*
X01032210Y02218888D01*
Y02216112D01*
X01032928Y02213432D01*
X01034316Y02211028D01*
X01036278Y02209066D01*
X01038682Y02207678D01*
X01041362Y02206960D01*
X01041266Y02204500D01*
X01041236D01*
X01038311Y02203716D01*
X01035689Y02202202D01*
X01033548Y02200061D01*
X01032034Y02197439D01*
X01031313Y02194750D01*
X01042750D01*
X01054187D01*
X01053466Y02197439D01*
X01051952Y02200061D01*
X01049811Y02202202D01*
X01047189Y02203716D01*
X01044264Y02204500D01*
X01044234D01*
X01044138Y02206960D01*
X01046818Y02207678D01*
X01049222Y02209066D01*
X01051184Y02211028D01*
X01052572Y02213432D01*
X01053290Y02216112D01*
Y02218888D01*
X01052572Y02221568D01*
X01051184Y02223972D01*
X01049222Y02225934D01*
X01046818Y02227322D01*
X01044138Y02228040D01*
D02*
G37*
G36*
X01054187Y02191250D02*
X01044500D01*
Y02181563D01*
X01047189Y02182284D01*
X01049811Y02183798D01*
X01051952Y02185939D01*
X01053466Y02188561D01*
X01054187Y02191250D01*
D02*
G37*
G36*
X01041000D02*
X01031313D01*
X01032034Y02188561D01*
X01033548Y02185939D01*
X01035689Y02183798D01*
X01038311Y02182284D01*
X01041000Y02181563D01*
Y02191250D01*
D02*
G37*
G36*
X00799890Y02197172D02*
X00796110D01*
X00793620Y02196844D01*
X00791299Y02195883D01*
X00789306Y02194354D01*
X00787777Y02192361D01*
X00786815Y02190040D01*
X00786488Y02187550D01*
X00786815Y02185060D01*
X00787777Y02182739D01*
X00789306Y02180746D01*
X00791299Y02179217D01*
X00793620Y02178256D01*
X00796110Y02177928D01*
X00799890D01*
X00802381Y02178256D01*
X00804701Y02179217D01*
X00806694Y02180746D01*
X00808223Y02182739D01*
X00809184Y02185060D01*
X00809512Y02187550D01*
X00809184Y02190040D01*
X00808223Y02192361D01*
X00806694Y02194354D01*
X00804701Y02195883D01*
X00802381Y02196844D01*
X00799890Y02197172D01*
D02*
G37*
G36*
X01200598Y02181790D02*
X01185518D01*
Y02177721D01*
X01177020D01*
Y02181540D01*
X01161940D01*
Y02160460D01*
X01177020D01*
Y02164529D01*
X01185518D01*
Y02160710D01*
X01200598D01*
Y02181790D01*
D02*
G37*
G36*
X01231558Y02182750D02*
X01224808D01*
Y02173000D01*
X01231558D01*
Y02182750D01*
D02*
G37*
G36*
X01221308D02*
X01214558D01*
Y02173000D01*
X01221308D01*
Y02182750D01*
D02*
G37*
G36*
X01231558Y02169500D02*
X01224808D01*
Y02159750D01*
X01231558D01*
Y02169500D01*
D02*
G37*
G36*
X01221308D02*
X01214558D01*
Y02159750D01*
X01221308D01*
Y02169500D01*
D02*
G37*
G36*
X00799890Y02171772D02*
X00796110D01*
X00793620Y02171445D01*
X00791299Y02170483D01*
X00789306Y02168954D01*
X00787777Y02166961D01*
X00786815Y02164641D01*
X00786488Y02162150D01*
X00786815Y02159660D01*
X00787777Y02157339D01*
X00789306Y02155346D01*
X00791299Y02153817D01*
X00793620Y02152856D01*
X00796110Y02152528D01*
X00799890D01*
X00802381Y02152856D01*
X00804701Y02153817D01*
X00806694Y02155346D01*
X00808223Y02157339D01*
X00809184Y02159660D01*
X00809512Y02162150D01*
X00809184Y02164641D01*
X00808223Y02166961D01*
X00806694Y02168954D01*
X00804701Y02170483D01*
X00802381Y02171445D01*
X00799890Y02171772D01*
D02*
G37*
G36*
Y02146372D02*
X00796110D01*
X00793620Y02146044D01*
X00791299Y02145083D01*
X00789306Y02143554D01*
X00787777Y02141561D01*
X00786815Y02139241D01*
X00786488Y02136750D01*
X00786815Y02134260D01*
X00787777Y02131939D01*
X00789306Y02129946D01*
X00791299Y02128417D01*
X00793620Y02127456D01*
X00796110Y02127128D01*
X00799890D01*
X00802381Y02127456D01*
X00804701Y02128417D01*
X00806694Y02129946D01*
X00808223Y02131939D01*
X00809184Y02134260D01*
X00809512Y02136750D01*
X00809184Y02139241D01*
X00808223Y02141561D01*
X00806694Y02143554D01*
X00804701Y02145083D01*
X00802381Y02146044D01*
X00799890Y02146372D01*
D02*
G37*
G36*
X00952390Y02146222D02*
X00948610D01*
X00946120Y02145895D01*
X00943799Y02144933D01*
X00941806Y02143404D01*
X00940277Y02141411D01*
X00939315Y02139091D01*
X00938988Y02136600D01*
X00939315Y02134110D01*
X00940277Y02131789D01*
X00941806Y02129796D01*
X00943799Y02128267D01*
X00946120Y02127306D01*
X00948610Y02126978D01*
X00952390D01*
X00954881Y02127306D01*
X00957201Y02128267D01*
X00959194Y02129796D01*
X00960723Y02131789D01*
X00961684Y02134110D01*
X00962012Y02136600D01*
X00961684Y02139091D01*
X00960723Y02141411D01*
X00959194Y02143404D01*
X00957201Y02144933D01*
X00954881Y02145895D01*
X00952390Y02146222D01*
D02*
G37*
G36*
X00799890Y02120972D02*
X00796110D01*
X00793620Y02120645D01*
X00791299Y02119683D01*
X00789306Y02118154D01*
X00787777Y02116161D01*
X00786815Y02113840D01*
X00786488Y02111350D01*
X00786815Y02108860D01*
X00787777Y02106539D01*
X00789306Y02104546D01*
X00791299Y02103017D01*
X00793620Y02102056D01*
X00796110Y02101728D01*
X00799890D01*
X00802381Y02102056D01*
X00804701Y02103017D01*
X00806694Y02104546D01*
X00808223Y02106539D01*
X00809184Y02108860D01*
X00809512Y02111350D01*
X00809184Y02113840D01*
X00808223Y02116161D01*
X00806694Y02118154D01*
X00804701Y02119683D01*
X00802381Y02120645D01*
X00799890Y02120972D01*
D02*
G37*
G36*
X00952390Y02120822D02*
X00948610D01*
X00946120Y02120495D01*
X00943799Y02119533D01*
X00941806Y02118004D01*
X00940277Y02116011D01*
X00939315Y02113691D01*
X00938988Y02111200D01*
X00939315Y02108710D01*
X00940277Y02106389D01*
X00941806Y02104396D01*
X00943799Y02102867D01*
X00946120Y02101906D01*
X00948610Y02101578D01*
X00952390D01*
X00954881Y02101906D01*
X00957201Y02102867D01*
X00959194Y02104396D01*
X00960723Y02106389D01*
X00961684Y02108710D01*
X00962012Y02111200D01*
X00961684Y02113691D01*
X00960723Y02116011D01*
X00959194Y02118004D01*
X00957201Y02119533D01*
X00954881Y02120495D01*
X00952390Y02120822D01*
D02*
G37*
G36*
X00799890Y02095572D02*
X00796110D01*
X00793620Y02095244D01*
X00791299Y02094283D01*
X00789306Y02092754D01*
X00787777Y02090761D01*
X00786815Y02088441D01*
X00786488Y02085950D01*
X00786815Y02083460D01*
X00787777Y02081139D01*
X00789306Y02079146D01*
X00791299Y02077617D01*
X00793620Y02076656D01*
X00796110Y02076328D01*
X00799890D01*
X00802381Y02076656D01*
X00804701Y02077617D01*
X00806694Y02079146D01*
X00808223Y02081139D01*
X00809184Y02083460D01*
X00809512Y02085950D01*
X00809184Y02088441D01*
X00808223Y02090761D01*
X00806694Y02092754D01*
X00804701Y02094283D01*
X00802381Y02095244D01*
X00799890Y02095572D01*
D02*
G37*
G36*
X00952390Y02095422D02*
X00948610D01*
X00946120Y02095095D01*
X00943799Y02094133D01*
X00941806Y02092604D01*
X00940277Y02090611D01*
X00939315Y02088291D01*
X00938988Y02085800D01*
X00939315Y02083310D01*
X00940277Y02080989D01*
X00941806Y02078996D01*
X00943799Y02077467D01*
X00946120Y02076506D01*
X00948610Y02076178D01*
X00952390D01*
X00954881Y02076506D01*
X00957201Y02077467D01*
X00959194Y02078996D01*
X00960723Y02080989D01*
X00961684Y02083310D01*
X00962012Y02085800D01*
X00961684Y02088291D01*
X00960723Y02090611D01*
X00959194Y02092604D01*
X00957201Y02094133D01*
X00954881Y02095095D01*
X00952390Y02095422D01*
D02*
G37*
G36*
X00835250Y02066687D02*
X00832561Y02065966D01*
X00829939Y02064452D01*
X00827798Y02062311D01*
X00826284Y02059689D01*
X00825563Y02057000D01*
X00835250D01*
Y02066687D01*
D02*
G37*
G36*
X00799890Y02070172D02*
X00796110D01*
X00793620Y02069845D01*
X00791299Y02068883D01*
X00789306Y02067354D01*
X00787777Y02065361D01*
X00786815Y02063040D01*
X00786488Y02060550D01*
X00786815Y02058060D01*
X00787777Y02055739D01*
X00789306Y02053746D01*
X00791299Y02052217D01*
X00793620Y02051256D01*
X00796110Y02050928D01*
X00799890D01*
X00802381Y02051256D01*
X00804701Y02052217D01*
X00806694Y02053746D01*
X00808223Y02055739D01*
X00809184Y02058060D01*
X00809512Y02060550D01*
X00809184Y02063040D01*
X00808223Y02065361D01*
X00806694Y02067354D01*
X00804701Y02068883D01*
X00802381Y02069845D01*
X00799890Y02070172D01*
D02*
G37*
G36*
X00952390Y02070022D02*
X00948610D01*
X00946120Y02069695D01*
X00943799Y02068733D01*
X00941806Y02067204D01*
X00940277Y02065211D01*
X00939315Y02062891D01*
X00938988Y02060400D01*
X00939315Y02057910D01*
X00940277Y02055589D01*
X00941806Y02053596D01*
X00943799Y02052067D01*
X00946120Y02051106D01*
X00948610Y02050778D01*
X00952390D01*
X00954881Y02051106D01*
X00957201Y02052067D01*
X00959194Y02053596D01*
X00960723Y02055589D01*
X00961684Y02057910D01*
X00962012Y02060400D01*
X00961684Y02062891D01*
X00960723Y02065211D01*
X00959194Y02067204D01*
X00957201Y02068733D01*
X00954881Y02069695D01*
X00952390Y02070022D01*
D02*
G37*
G36*
X00887638Y02065790D02*
X00884862D01*
X00882182Y02065072D01*
X00879778Y02063684D01*
X00877816Y02061722D01*
X00876428Y02059318D01*
X00875710Y02056638D01*
Y02053862D01*
X00876428Y02051182D01*
X00877816Y02048778D01*
X00879778Y02046816D01*
X00882182Y02045428D01*
X00884862Y02044710D01*
X00887638D01*
X00890318Y02045428D01*
X00892722Y02046816D01*
X00894684Y02048778D01*
X00896072Y02051182D01*
X00896790Y02053862D01*
Y02056638D01*
X00896072Y02059318D01*
X00894684Y02061722D01*
X00892722Y02063684D01*
X00890318Y02065072D01*
X00887638Y02065790D01*
D02*
G37*
G36*
X00838750Y02066687D02*
Y02055250D01*
Y02043813D01*
X00841439Y02044534D01*
X00844061Y02046048D01*
X00846202Y02048189D01*
X00847716Y02050811D01*
X00848500Y02053736D01*
Y02053766D01*
X00850960Y02053862D01*
X00851678Y02051182D01*
X00853066Y02048778D01*
X00855028Y02046816D01*
X00857432Y02045428D01*
X00860112Y02044710D01*
X00862888D01*
X00865568Y02045428D01*
X00867972Y02046816D01*
X00869934Y02048778D01*
X00871322Y02051182D01*
X00872040Y02053862D01*
Y02056638D01*
X00871322Y02059318D01*
X00869934Y02061722D01*
X00867972Y02063684D01*
X00865568Y02065072D01*
X00862888Y02065790D01*
X00860112D01*
X00857432Y02065072D01*
X00855028Y02063684D01*
X00853066Y02061722D01*
X00851678Y02059318D01*
X00850960Y02056638D01*
X00848500Y02056734D01*
Y02056764D01*
X00847716Y02059689D01*
X00846202Y02062311D01*
X00844061Y02064452D01*
X00841439Y02065966D01*
X00838750Y02066687D01*
D02*
G37*
G36*
X00835250Y02053500D02*
X00825563D01*
X00826284Y02050811D01*
X00827798Y02048189D01*
X00829939Y02046048D01*
X00832561Y02044534D01*
X00835250Y02043813D01*
Y02053500D01*
D02*
G37*
G36*
X00799890Y02044772D02*
X00796110D01*
X00793620Y02044444D01*
X00791299Y02043483D01*
X00789306Y02041954D01*
X00787777Y02039961D01*
X00786815Y02037641D01*
X00786488Y02035150D01*
X00786815Y02032660D01*
X00787777Y02030339D01*
X00789306Y02028346D01*
X00791299Y02026817D01*
X00793620Y02025856D01*
X00796110Y02025528D01*
X00799890D01*
X00802381Y02025856D01*
X00804701Y02026817D01*
X00806694Y02028346D01*
X00808223Y02030339D01*
X00809184Y02032660D01*
X00809512Y02035150D01*
X00809184Y02037641D01*
X00808223Y02039961D01*
X00806694Y02041954D01*
X00804701Y02043483D01*
X00802381Y02044444D01*
X00799890Y02044772D01*
D02*
G37*
G36*
X00952390Y02044622D02*
X00948610D01*
X00946120Y02044295D01*
X00943799Y02043333D01*
X00941806Y02041804D01*
X00940277Y02039811D01*
X00939315Y02037491D01*
X00938988Y02035000D01*
X00939315Y02032510D01*
X00940277Y02030189D01*
X00941806Y02028196D01*
X00943799Y02026667D01*
X00946120Y02025706D01*
X00948610Y02025378D01*
X00952390D01*
X00954881Y02025706D01*
X00957201Y02026667D01*
X00959194Y02028196D01*
X00960723Y02030189D01*
X00961684Y02032510D01*
X00962012Y02035000D01*
X00961684Y02037491D01*
X00960723Y02039811D01*
X00959194Y02041804D01*
X00957201Y02043333D01*
X00954881Y02044295D01*
X00952390Y02044622D01*
D02*
G37*
G36*
X00799890Y02019372D02*
X00796110D01*
X00793620Y02019044D01*
X00791299Y02018083D01*
X00789306Y02016554D01*
X00787777Y02014561D01*
X00786815Y02012240D01*
X00786488Y02009750D01*
X00786815Y02007260D01*
X00787777Y02004939D01*
X00789306Y02002946D01*
X00791299Y02001417D01*
X00793620Y02000456D01*
X00796110Y02000128D01*
X00799890D01*
X00802381Y02000456D01*
X00804701Y02001417D01*
X00806694Y02002946D01*
X00808223Y02004939D01*
X00809184Y02007260D01*
X00809512Y02009750D01*
X00809184Y02012240D01*
X00808223Y02014561D01*
X00806694Y02016554D01*
X00804701Y02018083D01*
X00802381Y02019044D01*
X00799890Y02019372D01*
D02*
G37*
G36*
X00952390Y02019222D02*
X00948610D01*
X00946120Y02018895D01*
X00943799Y02017933D01*
X00941806Y02016404D01*
X00940277Y02014411D01*
X00939315Y02012091D01*
X00938988Y02009600D01*
X00939315Y02007110D01*
X00940277Y02004789D01*
X00941806Y02002796D01*
X00943799Y02001267D01*
X00946120Y02000306D01*
X00948610Y01999978D01*
X00952390D01*
X00954881Y02000306D01*
X00957201Y02001267D01*
X00959194Y02002796D01*
X00960723Y02004789D01*
X00961684Y02007110D01*
X00962012Y02009600D01*
X00961684Y02012091D01*
X00960723Y02014411D01*
X00959194Y02016404D01*
X00957201Y02017933D01*
X00954881Y02018895D01*
X00952390Y02019222D01*
D02*
G37*
G36*
X00835250Y02000687D02*
X00832561Y01999966D01*
X00829939Y01998452D01*
X00827798Y01996311D01*
X00826284Y01993689D01*
X00825563Y01991000D01*
X00835250D01*
Y02000687D01*
D02*
G37*
G36*
X00887638Y01999790D02*
X00884862D01*
X00882182Y01999072D01*
X00879778Y01997684D01*
X00877816Y01995722D01*
X00876428Y01993318D01*
X00875710Y01990638D01*
Y01987863D01*
X00876428Y01985182D01*
X00877816Y01982778D01*
X00879778Y01980816D01*
X00882182Y01979429D01*
X00884862Y01978710D01*
X00887638D01*
X00890318Y01979429D01*
X00892722Y01980816D01*
X00894684Y01982778D01*
X00896072Y01985182D01*
X00896790Y01987863D01*
Y01990638D01*
X00896072Y01993318D01*
X00894684Y01995722D01*
X00892722Y01997684D01*
X00890318Y01999072D01*
X00887638Y01999790D01*
D02*
G37*
G36*
X00838750Y02000687D02*
Y01989250D01*
Y01977813D01*
X00841439Y01978534D01*
X00844061Y01980048D01*
X00846202Y01982189D01*
X00847716Y01984811D01*
X00848500Y01987736D01*
Y01987766D01*
X00850960Y01987863D01*
X00851678Y01985182D01*
X00853066Y01982778D01*
X00855028Y01980816D01*
X00857432Y01979429D01*
X00860112Y01978710D01*
X00862888D01*
X00865568Y01979429D01*
X00867972Y01980816D01*
X00869934Y01982778D01*
X00871322Y01985182D01*
X00872040Y01987863D01*
Y01990638D01*
X00871322Y01993318D01*
X00869934Y01995722D01*
X00867972Y01997684D01*
X00865568Y01999072D01*
X00862888Y01999790D01*
X00860112D01*
X00857432Y01999072D01*
X00855028Y01997684D01*
X00853066Y01995722D01*
X00851678Y01993318D01*
X00850960Y01990638D01*
X00848500Y01990734D01*
Y01990764D01*
X00847716Y01993689D01*
X00846202Y01996311D01*
X00844061Y01998452D01*
X00841439Y01999966D01*
X00838750Y02000687D01*
D02*
G37*
G36*
X00835250Y01987500D02*
X00825563D01*
X00826284Y01984811D01*
X00827798Y01982189D01*
X00829939Y01980048D01*
X00832561Y01978534D01*
X00835250Y01977813D01*
Y01987500D01*
D02*
G37*
G36*
X00799890Y01993972D02*
X00796110D01*
X00793620Y01993645D01*
X00791299Y01992683D01*
X00789306Y01991154D01*
X00787777Y01989161D01*
X00786815Y01986841D01*
X00786488Y01984350D01*
X00786815Y01981860D01*
X00787777Y01979539D01*
X00789306Y01977546D01*
X00791299Y01976017D01*
X00793620Y01975056D01*
X00796110Y01974728D01*
X00799890D01*
X00802381Y01975056D01*
X00804701Y01976017D01*
X00806694Y01977546D01*
X00808223Y01979539D01*
X00809184Y01981860D01*
X00809512Y01984350D01*
X00809184Y01986841D01*
X00808223Y01989161D01*
X00806694Y01991154D01*
X00804701Y01992683D01*
X00802381Y01993645D01*
X00799890Y01993972D01*
D02*
G37*
G36*
X00952390Y01993822D02*
X00948610D01*
X00946120Y01993495D01*
X00943799Y01992533D01*
X00941806Y01991004D01*
X00940277Y01989011D01*
X00939315Y01986691D01*
X00938988Y01984200D01*
X00939315Y01981710D01*
X00940277Y01979389D01*
X00941806Y01977396D01*
X00943799Y01975867D01*
X00946120Y01974906D01*
X00948610Y01974578D01*
X00952390D01*
X00954881Y01974906D01*
X00957201Y01975867D01*
X00959194Y01977396D01*
X00960723Y01979389D01*
X00961684Y01981710D01*
X00962012Y01984200D01*
X00961684Y01986691D01*
X00960723Y01989011D01*
X00959194Y01991004D01*
X00957201Y01992533D01*
X00954881Y01993495D01*
X00952390Y01993822D01*
D02*
G37*
G36*
Y01968422D02*
X00948610D01*
X00946120Y01968095D01*
X00943799Y01967133D01*
X00941806Y01965604D01*
X00940277Y01963611D01*
X00939315Y01961291D01*
X00938988Y01958800D01*
X00939315Y01956310D01*
X00940277Y01953989D01*
X00941806Y01951996D01*
X00943799Y01950467D01*
X00946120Y01949506D01*
X00948610Y01949178D01*
X00952390D01*
X00954881Y01949506D01*
X00957201Y01950467D01*
X00959194Y01951996D01*
X00960723Y01953989D01*
X00961684Y01956310D01*
X00962012Y01958800D01*
X00961684Y01961291D01*
X00960723Y01963611D01*
X00959194Y01965604D01*
X00957201Y01967133D01*
X00954881Y01968095D01*
X00952390Y01968422D01*
D02*
G37*
G36*
X00835250Y01935437D02*
X00832561Y01934716D01*
X00829939Y01933202D01*
X00827798Y01931061D01*
X00826284Y01928439D01*
X00825563Y01925750D01*
X00835250D01*
Y01935437D01*
D02*
G37*
G36*
X00799890Y01943172D02*
X00796110D01*
X00793620Y01942845D01*
X00791299Y01941883D01*
X00789306Y01940354D01*
X00787913Y01938539D01*
X00776397D01*
X00774430Y01938148D01*
X00772763Y01937034D01*
X00683021Y01847292D01*
X00681756D01*
X00679838Y01846778D01*
X00678119Y01845785D01*
X00676715Y01844381D01*
X00675722Y01842662D01*
X00675208Y01840744D01*
Y01838759D01*
X00675722Y01836841D01*
X00676715Y01835122D01*
X00678119Y01833718D01*
X00679838Y01832726D01*
X00681756Y01832212D01*
X00683741D01*
X00685659Y01832726D01*
X00687378Y01833718D01*
X00688782Y01835122D01*
X00689774Y01836841D01*
X00690288Y01838759D01*
Y01840024D01*
X00778525Y01928261D01*
X00788143D01*
X00789306Y01926746D01*
X00791299Y01925217D01*
X00793620Y01924256D01*
X00796110Y01923928D01*
X00799890D01*
X00802381Y01924256D01*
X00804701Y01925217D01*
X00806694Y01926746D01*
X00808223Y01928739D01*
X00809184Y01931060D01*
X00809512Y01933550D01*
X00809184Y01936040D01*
X00808223Y01938361D01*
X00806694Y01940354D01*
X00804701Y01941883D01*
X00802381Y01942845D01*
X00799890Y01943172D01*
D02*
G37*
G36*
X00952390Y01943022D02*
X00948610D01*
X00946120Y01942695D01*
X00943799Y01941733D01*
X00941806Y01940204D01*
X00940277Y01938211D01*
X00939315Y01935891D01*
X00938988Y01933400D01*
X00939315Y01930910D01*
X00940277Y01928589D01*
X00941806Y01926596D01*
X00943799Y01925067D01*
X00946120Y01924106D01*
X00948610Y01923778D01*
X00952390D01*
X00954881Y01924106D01*
X00957201Y01925067D01*
X00959194Y01926596D01*
X00960723Y01928589D01*
X00961684Y01930910D01*
X00962012Y01933400D01*
X00961684Y01935891D01*
X00960723Y01938211D01*
X00959194Y01940204D01*
X00957201Y01941733D01*
X00954881Y01942695D01*
X00952390Y01943022D01*
D02*
G37*
G36*
X00887638Y01934540D02*
X00884862D01*
X00882182Y01933822D01*
X00879778Y01932434D01*
X00877816Y01930472D01*
X00876428Y01928068D01*
X00875710Y01925388D01*
Y01922612D01*
X00876428Y01919932D01*
X00877816Y01917528D01*
X00879778Y01915566D01*
X00882182Y01914178D01*
X00884862Y01913460D01*
X00887638D01*
X00890318Y01914178D01*
X00892722Y01915566D01*
X00894684Y01917528D01*
X00896072Y01919932D01*
X00896790Y01922612D01*
Y01925388D01*
X00896072Y01928068D01*
X00894684Y01930472D01*
X00892722Y01932434D01*
X00890318Y01933822D01*
X00887638Y01934540D01*
D02*
G37*
G36*
X00838750Y01935437D02*
Y01924000D01*
Y01912563D01*
X00841439Y01913284D01*
X00844061Y01914798D01*
X00846202Y01916939D01*
X00847716Y01919561D01*
X00848500Y01922486D01*
Y01922516D01*
X00850960Y01922612D01*
X00851678Y01919932D01*
X00853066Y01917528D01*
X00855028Y01915566D01*
X00857432Y01914178D01*
X00860112Y01913460D01*
X00862888D01*
X00865568Y01914178D01*
X00867972Y01915566D01*
X00869934Y01917528D01*
X00871322Y01919932D01*
X00872040Y01922612D01*
Y01925388D01*
X00871322Y01928068D01*
X00869934Y01930472D01*
X00867972Y01932434D01*
X00865568Y01933822D01*
X00862888Y01934540D01*
X00860112D01*
X00857432Y01933822D01*
X00855028Y01932434D01*
X00853066Y01930472D01*
X00851678Y01928068D01*
X00850960Y01925388D01*
X00848500Y01925484D01*
Y01925514D01*
X00847716Y01928439D01*
X00846202Y01931061D01*
X00844061Y01933202D01*
X00841439Y01934716D01*
X00838750Y01935437D01*
D02*
G37*
G36*
X00835250Y01922250D02*
X00825563D01*
X00826284Y01919561D01*
X00827798Y01916939D01*
X00829939Y01914798D01*
X00832561Y01913284D01*
X00835250Y01912563D01*
Y01922250D01*
D02*
G37*
G36*
X00799890Y01917772D02*
X00796110D01*
X00793620Y01917444D01*
X00791299Y01916483D01*
X00789306Y01914954D01*
X00787913Y01913139D01*
X00774398D01*
X00772432Y01912748D01*
X00770764Y01911634D01*
X00705116Y01845986D01*
X00704003Y01844319D01*
X00703611Y01842352D01*
Y01838290D01*
X00698210D01*
Y01823210D01*
X00719290D01*
Y01838290D01*
X00715256D01*
X00714455Y01840790D01*
X00776527Y01902861D01*
X00788143D01*
X00789306Y01901346D01*
X00791299Y01899817D01*
X00793620Y01898856D01*
X00796110Y01898528D01*
X00799890D01*
X00802381Y01898856D01*
X00804701Y01899817D01*
X00806694Y01901346D01*
X00808223Y01903339D01*
X00809184Y01905660D01*
X00809512Y01908150D01*
X00809184Y01910641D01*
X00808223Y01912961D01*
X00806694Y01914954D01*
X00804701Y01916483D01*
X00802381Y01917444D01*
X00799890Y01917772D01*
D02*
G37*
G36*
X01008540Y01893140D02*
X00993460D01*
Y01890205D01*
X00958150D01*
X00957201Y01890933D01*
X00954881Y01891895D01*
X00952390Y01892222D01*
X00948610D01*
X00946120Y01891895D01*
X00943799Y01890933D01*
X00941806Y01889404D01*
X00940277Y01887411D01*
X00939315Y01885091D01*
X00938988Y01882600D01*
X00939315Y01880110D01*
X00940277Y01877789D01*
X00941806Y01875796D01*
X00943799Y01874267D01*
X00946120Y01873306D01*
X00948610Y01872978D01*
X00952390D01*
X00954881Y01873306D01*
X00957201Y01874267D01*
X00958150Y01874995D01*
X00993460D01*
Y01872060D01*
X01008540D01*
Y01882106D01*
X01008605Y01882600D01*
X01008540Y01883094D01*
Y01893140D01*
D02*
G37*
G36*
X00653500Y01896500D02*
X00646750D01*
Y01886750D01*
X00653500D01*
Y01896500D01*
D02*
G37*
G36*
X00643250D02*
X00636500D01*
Y01886750D01*
X00643250D01*
Y01896500D01*
D02*
G37*
G36*
X00653500Y01883250D02*
X00646750D01*
Y01873500D01*
X00653500D01*
Y01883250D01*
D02*
G37*
G36*
X00643250D02*
X00636500D01*
Y01873500D01*
X00643250D01*
Y01883250D01*
D02*
G37*
G36*
X01102783Y01870740D02*
X01099217D01*
X01095774Y01869817D01*
X01092686Y01868035D01*
X01090165Y01865514D01*
X01089756Y01864805D01*
X01038540D01*
Y01867740D01*
X01023460D01*
Y01857694D01*
X01023395Y01857200D01*
X01023460Y01856706D01*
Y01846660D01*
X01038540D01*
Y01849595D01*
X01089756D01*
X01090165Y01848886D01*
X01092686Y01846365D01*
X01095774Y01844583D01*
X01099217Y01843660D01*
X01102783D01*
X01106226Y01844583D01*
X01109314Y01846365D01*
X01111835Y01848886D01*
X01113617Y01851974D01*
X01114540Y01855417D01*
Y01858983D01*
X01113617Y01862426D01*
X01111835Y01865514D01*
X01109314Y01868035D01*
X01106226Y01869817D01*
X01102783Y01870740D01*
D02*
G37*
G36*
X01008540Y01867740D02*
X00993460D01*
Y01864805D01*
X00958150D01*
X00957201Y01865533D01*
X00954881Y01866495D01*
X00952390Y01866822D01*
X00948610D01*
X00946120Y01866495D01*
X00943799Y01865533D01*
X00941806Y01864004D01*
X00940277Y01862011D01*
X00939315Y01859691D01*
X00938988Y01857200D01*
X00939315Y01854710D01*
X00940277Y01852389D01*
X00941806Y01850396D01*
X00943799Y01848867D01*
X00946120Y01847906D01*
X00948610Y01847578D01*
X00952390D01*
X00954881Y01847906D01*
X00957201Y01848867D01*
X00958150Y01849595D01*
X00993460D01*
Y01846660D01*
X01008540D01*
Y01856706D01*
X01008605Y01857200D01*
X01008540Y01857694D01*
Y01867740D01*
D02*
G37*
G36*
X01144000Y01861100D02*
X01134250D01*
Y01854350D01*
X01144000D01*
Y01861100D01*
D02*
G37*
G36*
X01130750D02*
X01121000D01*
Y01854350D01*
X01130750D01*
Y01861100D01*
D02*
G37*
G36*
X01144000Y01850850D02*
X01134250D01*
Y01844100D01*
X01144000D01*
Y01850850D01*
D02*
G37*
G36*
X01130750D02*
X01121000D01*
Y01844100D01*
X01130750D01*
Y01850850D01*
D02*
G37*
G36*
X01008540Y01842340D02*
X00993460D01*
Y01839405D01*
X00958150D01*
X00957201Y01840133D01*
X00954881Y01841095D01*
X00952390Y01841422D01*
X00948610D01*
X00946120Y01841095D01*
X00943799Y01840133D01*
X00941806Y01838604D01*
X00940277Y01836611D01*
X00939315Y01834291D01*
X00938988Y01831800D01*
X00939315Y01829310D01*
X00940277Y01826989D01*
X00941806Y01824996D01*
X00943799Y01823467D01*
X00946120Y01822506D01*
X00948610Y01822178D01*
X00952390D01*
X00954881Y01822506D01*
X00957201Y01823467D01*
X00958150Y01824195D01*
X00993460D01*
Y01821260D01*
X01008540D01*
Y01831306D01*
X01008605Y01831800D01*
X01008540Y01832294D01*
Y01842340D01*
D02*
G37*
G36*
X01065283Y01845215D02*
X01061717D01*
X01058274Y01844292D01*
X01055186Y01842510D01*
X01052665Y01839989D01*
X01052292Y01839343D01*
X01038540D01*
Y01842340D01*
X01023460D01*
Y01832294D01*
X01023395Y01831800D01*
Y01831738D01*
X01023460Y01831243D01*
Y01821260D01*
X01038540D01*
Y01824133D01*
X01052220D01*
X01052665Y01823362D01*
X01055186Y01820841D01*
X01058274Y01819058D01*
X01061717Y01818135D01*
X01065283D01*
X01068726Y01819058D01*
X01071814Y01820841D01*
X01074335Y01823362D01*
X01075326Y01825079D01*
X01121960D01*
Y01824135D01*
X01143040D01*
Y01825079D01*
X01157092D01*
X01158836Y01823336D01*
X01160202Y01822287D01*
X01161793Y01821628D01*
X01163500Y01821404D01*
X01173153D01*
X01174439Y01820417D01*
X01176759Y01819456D01*
X01179250Y01819128D01*
X01185250D01*
X01187740Y01819456D01*
X01190061Y01820417D01*
X01192054Y01821946D01*
X01193583Y01823939D01*
X01194545Y01826259D01*
X01194872Y01828750D01*
X01194545Y01831240D01*
X01193583Y01833561D01*
X01192054Y01835554D01*
X01190061Y01837083D01*
X01187740Y01838044D01*
X01185250Y01838372D01*
X01179250D01*
X01176759Y01838044D01*
X01174439Y01837083D01*
X01172446Y01835554D01*
X01171711Y01834596D01*
X01166232D01*
X01164489Y01836340D01*
X01163123Y01837388D01*
X01161532Y01838047D01*
X01159825Y01838272D01*
X01143040D01*
Y01839215D01*
X01121960D01*
Y01838272D01*
X01075326D01*
X01074335Y01839989D01*
X01071814Y01842510D01*
X01068726Y01844292D01*
X01065283Y01845215D01*
D02*
G37*
G36*
X01215250Y01854372D02*
X01209250D01*
X01206759Y01854044D01*
X01204439Y01853083D01*
X01202446Y01851554D01*
X01200917Y01849561D01*
X01199956Y01847240D01*
X01199628Y01844750D01*
X01199956Y01842260D01*
X01200917Y01839939D01*
X01202446Y01837946D01*
X01204439Y01836417D01*
X01206759Y01835456D01*
X01209250Y01835128D01*
X01215250D01*
X01217740Y01835456D01*
X01220061Y01836417D01*
X01222054Y01837946D01*
X01223583Y01839939D01*
X01224545Y01842260D01*
X01224872Y01844750D01*
X01224545Y01847240D01*
X01223583Y01849561D01*
X01222054Y01851554D01*
X01220061Y01853083D01*
X01217740Y01854044D01*
X01215250Y01854372D01*
D02*
G37*
G36*
X01101783Y01819940D02*
X01098217D01*
X01094774Y01819017D01*
X01091686Y01817235D01*
X01089165Y01814714D01*
X01088756Y01814005D01*
X01038540D01*
Y01816940D01*
X01023460D01*
Y01806894D01*
X01023395Y01806400D01*
X01023460Y01805906D01*
Y01795860D01*
X01038540D01*
Y01798795D01*
X01088756D01*
X01089165Y01798086D01*
X01091686Y01795565D01*
X01094774Y01793783D01*
X01098217Y01792860D01*
X01101783D01*
X01105226Y01793783D01*
X01108314Y01795565D01*
X01110835Y01798086D01*
X01112617Y01801174D01*
X01113540Y01804617D01*
Y01808183D01*
X01112617Y01811626D01*
X01110835Y01814714D01*
X01108314Y01817235D01*
X01105226Y01819017D01*
X01101783Y01819940D01*
D02*
G37*
G36*
X01008540Y01816940D02*
X00993460D01*
Y01814005D01*
X00958150D01*
X00957201Y01814733D01*
X00954881Y01815695D01*
X00952390Y01816022D01*
X00948610D01*
X00946120Y01815695D01*
X00943799Y01814733D01*
X00941806Y01813204D01*
X00940277Y01811211D01*
X00939315Y01808891D01*
X00938988Y01806400D01*
X00939315Y01803910D01*
X00940277Y01801589D01*
X00941806Y01799596D01*
X00943799Y01798067D01*
X00946120Y01797106D01*
X00948610Y01796778D01*
X00952390D01*
X00954881Y01797106D01*
X00957201Y01798067D01*
X00958150Y01798795D01*
X00993460D01*
Y01795860D01*
X01008540D01*
Y01805906D01*
X01008605Y01806400D01*
X01008540Y01806894D01*
Y01816940D01*
D02*
G37*
G36*
X01144000Y01810175D02*
X01134250D01*
Y01803425D01*
X01144000D01*
Y01810175D01*
D02*
G37*
G36*
X01130750D02*
X01121000D01*
Y01803425D01*
X01130750D01*
Y01810175D01*
D02*
G37*
G36*
X01215250Y01822372D02*
X01209250D01*
X01206759Y01822044D01*
X01204439Y01821083D01*
X01202446Y01819554D01*
X01200917Y01817561D01*
X01199956Y01815240D01*
X01199628Y01812750D01*
X01199956Y01810260D01*
X01200917Y01807939D01*
X01202446Y01805946D01*
X01204439Y01804417D01*
X01206759Y01803456D01*
X01209250Y01803128D01*
X01215250D01*
X01217740Y01803456D01*
X01220061Y01804417D01*
X01222054Y01805946D01*
X01223583Y01807939D01*
X01224545Y01810260D01*
X01224872Y01812750D01*
X01224545Y01815240D01*
X01223583Y01817561D01*
X01222054Y01819554D01*
X01220061Y01821083D01*
X01217740Y01822044D01*
X01215250Y01822372D01*
D02*
G37*
G36*
X01144000Y01799925D02*
X01134250D01*
Y01793175D01*
X01144000D01*
Y01799925D01*
D02*
G37*
G36*
X01130750D02*
X01121000D01*
Y01793175D01*
X01130750D01*
Y01799925D01*
D02*
G37*
G36*
X01008540Y01791540D02*
X00993460D01*
Y01788605D01*
X00958150D01*
X00957201Y01789333D01*
X00954881Y01790295D01*
X00952390Y01790622D01*
X00948610D01*
X00946120Y01790295D01*
X00943799Y01789333D01*
X00941806Y01787804D01*
X00940277Y01785811D01*
X00939315Y01783491D01*
X00938988Y01781000D01*
X00939315Y01778510D01*
X00940277Y01776189D01*
X00941806Y01774196D01*
X00943799Y01772667D01*
X00946120Y01771706D01*
X00948610Y01771378D01*
X00952390D01*
X00954881Y01771706D01*
X00957201Y01772667D01*
X00958150Y01773395D01*
X00993460D01*
Y01770460D01*
X01008540D01*
Y01780506D01*
X01008605Y01781000D01*
X01008540Y01781494D01*
Y01791540D01*
D02*
G37*
G36*
X01185250Y01806372D02*
X01179250D01*
X01176759Y01806044D01*
X01174439Y01805083D01*
X01172446Y01803554D01*
X01171406Y01802198D01*
X01166102D01*
X01164395Y01801974D01*
X01162804Y01801315D01*
X01161438Y01800266D01*
X01148768Y01787597D01*
X01143040D01*
Y01788540D01*
X01121960D01*
Y01787597D01*
X01074576D01*
X01073585Y01789314D01*
X01071064Y01791835D01*
X01067976Y01793617D01*
X01064533Y01794540D01*
X01060967D01*
X01057524Y01793617D01*
X01054436Y01791835D01*
X01051915Y01789314D01*
X01051506Y01788605D01*
X01038540D01*
Y01791540D01*
X01023460D01*
Y01781494D01*
X01023395Y01781000D01*
X01023460Y01780506D01*
Y01770460D01*
X01038540D01*
Y01773395D01*
X01051506D01*
X01051915Y01772686D01*
X01054436Y01770165D01*
X01057524Y01768383D01*
X01060967Y01767460D01*
X01064533D01*
X01067976Y01768383D01*
X01071064Y01770165D01*
X01073585Y01772686D01*
X01074576Y01774404D01*
X01121960D01*
Y01773460D01*
X01143040D01*
Y01774404D01*
X01151500D01*
X01153207Y01774628D01*
X01154798Y01775287D01*
X01156164Y01776336D01*
X01168834Y01789005D01*
X01173672D01*
X01174439Y01788417D01*
X01176759Y01787455D01*
X01179250Y01787128D01*
X01185250D01*
X01187740Y01787455D01*
X01190061Y01788417D01*
X01192054Y01789946D01*
X01193583Y01791939D01*
X01194545Y01794259D01*
X01194872Y01796750D01*
X01194545Y01799240D01*
X01193583Y01801561D01*
X01192054Y01803554D01*
X01190061Y01805083D01*
X01187740Y01806044D01*
X01185250Y01806372D01*
D02*
G37*
G36*
X01215250Y01790372D02*
X01209250D01*
X01206759Y01790044D01*
X01204439Y01789083D01*
X01202446Y01787554D01*
X01200917Y01785561D01*
X01199956Y01783240D01*
X01199628Y01780750D01*
X01199956Y01778259D01*
X01200917Y01775939D01*
X01202446Y01773946D01*
X01204439Y01772417D01*
X01206759Y01771456D01*
X01209250Y01771128D01*
X01215250D01*
X01217740Y01771456D01*
X01220061Y01772417D01*
X01222054Y01773946D01*
X01223583Y01775939D01*
X01224545Y01778259D01*
X01224872Y01780750D01*
X01224545Y01783240D01*
X01223583Y01785561D01*
X01222054Y01787554D01*
X01220061Y01789083D01*
X01217740Y01790044D01*
X01215250Y01790372D01*
D02*
G37*
G36*
X01101783Y01769140D02*
X01098217D01*
X01094774Y01768217D01*
X01091686Y01766435D01*
X01089165Y01763914D01*
X01088756Y01763205D01*
X01038540D01*
Y01766140D01*
X01023460D01*
Y01756094D01*
X01023395Y01755600D01*
X01023460Y01755106D01*
Y01745060D01*
X01038540D01*
Y01747995D01*
X01088756D01*
X01089165Y01747286D01*
X01091686Y01744765D01*
X01094774Y01742983D01*
X01098217Y01742060D01*
X01101783D01*
X01105226Y01742983D01*
X01108314Y01744765D01*
X01110835Y01747286D01*
X01112617Y01750374D01*
X01113540Y01753817D01*
Y01757383D01*
X01112617Y01760826D01*
X01110835Y01763914D01*
X01108314Y01766435D01*
X01105226Y01768217D01*
X01101783Y01769140D01*
D02*
G37*
G36*
X01008540Y01766140D02*
X00993460D01*
Y01763205D01*
X00958150D01*
X00957201Y01763933D01*
X00954881Y01764895D01*
X00952390Y01765222D01*
X00948610D01*
X00946120Y01764895D01*
X00943799Y01763933D01*
X00941806Y01762404D01*
X00940277Y01760411D01*
X00939315Y01758091D01*
X00938988Y01755600D01*
X00939315Y01753110D01*
X00940277Y01750789D01*
X00941806Y01748796D01*
X00943799Y01747267D01*
X00946120Y01746306D01*
X00948610Y01745978D01*
X00952390D01*
X00954881Y01746306D01*
X00957201Y01747267D01*
X00958150Y01747995D01*
X00993460D01*
Y01745060D01*
X01008540D01*
Y01755106D01*
X01008605Y01755600D01*
X01008540Y01756094D01*
Y01766140D01*
D02*
G37*
G36*
X01185250Y01774372D02*
X01179250D01*
X01176759Y01774044D01*
X01174439Y01773083D01*
X01172446Y01771554D01*
X01171406Y01770198D01*
X01164936D01*
X01163229Y01769974D01*
X01161638Y01769315D01*
X01160272Y01768266D01*
X01155586Y01763580D01*
X01154537Y01762214D01*
X01153878Y01760623D01*
X01153654Y01758916D01*
Y01736232D01*
X01150086Y01732664D01*
X01149223Y01731540D01*
X01140210D01*
Y01730596D01*
X01111500D01*
X01109793Y01730372D01*
X01108202Y01729713D01*
X01106836Y01728664D01*
X01102518Y01724346D01*
X01092214D01*
X01091270Y01725290D01*
X01083730D01*
X01079960Y01721520D01*
Y01713980D01*
X01083730Y01710210D01*
X01091270D01*
X01092214Y01711154D01*
X01105250D01*
X01106957Y01711378D01*
X01108548Y01712037D01*
X01109914Y01713086D01*
X01114232Y01717404D01*
X01140210D01*
Y01716460D01*
X01161290D01*
Y01724571D01*
X01161346Y01725000D01*
Y01725268D01*
X01164914Y01728836D01*
X01165963Y01730202D01*
X01166622Y01731793D01*
X01166846Y01733500D01*
Y01756183D01*
X01167669Y01757005D01*
X01173672D01*
X01174439Y01756417D01*
X01176759Y01755455D01*
X01179250Y01755128D01*
X01185250D01*
X01187740Y01755455D01*
X01190061Y01756417D01*
X01192054Y01757946D01*
X01193583Y01759939D01*
X01194545Y01762260D01*
X01194872Y01764750D01*
X01194545Y01767240D01*
X01193583Y01769561D01*
X01192054Y01771554D01*
X01190061Y01773083D01*
X01187740Y01774044D01*
X01185250Y01774372D01*
D02*
G37*
G36*
X01144000Y01759500D02*
X01134250D01*
Y01752750D01*
X01144000D01*
Y01759500D01*
D02*
G37*
G36*
X01130750D02*
X01121000D01*
Y01752750D01*
X01130750D01*
Y01759500D01*
D02*
G37*
G36*
X00684888Y01764440D02*
X00682113D01*
X00679432Y01763722D01*
X00677028Y01762334D01*
X00675066Y01760372D01*
X00673679Y01757968D01*
X00672960Y01755288D01*
Y01752512D01*
X00673679Y01749832D01*
X00675066Y01747428D01*
X00677028Y01745466D01*
X00679432Y01744078D01*
X00682113Y01743360D01*
X00684888D01*
X00687568Y01744078D01*
X00689972Y01745466D01*
X00691934Y01747428D01*
X00693322Y01749832D01*
X00694040Y01752512D01*
Y01755288D01*
X00693322Y01757968D01*
X00691934Y01760372D01*
X00689972Y01762334D01*
X00687568Y01763722D01*
X00684888Y01764440D01*
D02*
G37*
G36*
X00659488D02*
X00656712D01*
X00654032Y01763722D01*
X00651628Y01762334D01*
X00649666Y01760372D01*
X00648279Y01757968D01*
X00647560Y01755288D01*
Y01752512D01*
X00648279Y01749832D01*
X00649666Y01747428D01*
X00651628Y01745466D01*
X00654032Y01744078D01*
X00656712Y01743360D01*
X00659488D01*
X00662168Y01744078D01*
X00664572Y01745466D01*
X00666534Y01747428D01*
X00667922Y01749832D01*
X00668640Y01752512D01*
Y01755288D01*
X00667922Y01757968D01*
X00666534Y01760372D01*
X00664572Y01762334D01*
X00662168Y01763722D01*
X00659488Y01764440D01*
D02*
G37*
G36*
X00634088D02*
X00631312D01*
X00628632Y01763722D01*
X00626228Y01762334D01*
X00624266Y01760372D01*
X00622878Y01757968D01*
X00622160Y01755288D01*
Y01752512D01*
X00622878Y01749832D01*
X00624266Y01747428D01*
X00626228Y01745466D01*
X00628632Y01744078D01*
X00631312Y01743360D01*
X00634088D01*
X00636768Y01744078D01*
X00639172Y01745466D01*
X00641134Y01747428D01*
X00642522Y01749832D01*
X00643240Y01752512D01*
Y01755288D01*
X00642522Y01757968D01*
X00641134Y01760372D01*
X00639172Y01762334D01*
X00636768Y01763722D01*
X00634088Y01764440D01*
D02*
G37*
G36*
X00524488D02*
X00521712D01*
X00519032Y01763722D01*
X00516628Y01762334D01*
X00514666Y01760372D01*
X00513278Y01757968D01*
X00512560Y01755288D01*
Y01752512D01*
X00513278Y01749832D01*
X00514666Y01747428D01*
X00516628Y01745466D01*
X00519032Y01744078D01*
X00521712Y01743360D01*
X00524488D01*
X00527168Y01744078D01*
X00529572Y01745466D01*
X00531534Y01747428D01*
X00532922Y01749832D01*
X00533640Y01752512D01*
Y01755288D01*
X00532922Y01757968D01*
X00531534Y01760372D01*
X00529572Y01762334D01*
X00527168Y01763722D01*
X00524488Y01764440D01*
D02*
G37*
G36*
X00499088D02*
X00496312D01*
X00493632Y01763722D01*
X00491228Y01762334D01*
X00489266Y01760372D01*
X00487878Y01757968D01*
X00487160Y01755288D01*
Y01752512D01*
X00487878Y01749832D01*
X00489266Y01747428D01*
X00491228Y01745466D01*
X00493632Y01744078D01*
X00496312Y01743360D01*
X00499088D01*
X00501768Y01744078D01*
X00504172Y01745466D01*
X00506134Y01747428D01*
X00507522Y01749832D01*
X00508240Y01752512D01*
Y01755288D01*
X00507522Y01757968D01*
X00506134Y01760372D01*
X00504172Y01762334D01*
X00501768Y01763722D01*
X00499088Y01764440D01*
D02*
G37*
G36*
X00389488D02*
X00386712D01*
X00384032Y01763722D01*
X00381628Y01762334D01*
X00379666Y01760372D01*
X00378278Y01757968D01*
X00377560Y01755288D01*
Y01752512D01*
X00378278Y01749832D01*
X00379666Y01747428D01*
X00381628Y01745466D01*
X00384032Y01744078D01*
X00386712Y01743360D01*
X00389488D01*
X00392168Y01744078D01*
X00394572Y01745466D01*
X00396534Y01747428D01*
X00397922Y01749832D01*
X00398640Y01752512D01*
Y01755288D01*
X00397922Y01757968D01*
X00396534Y01760372D01*
X00394572Y01762334D01*
X00392168Y01763722D01*
X00389488Y01764440D01*
D02*
G37*
G36*
X00364088D02*
X00361312D01*
X00358632Y01763722D01*
X00356228Y01762334D01*
X00354266Y01760372D01*
X00352878Y01757968D01*
X00352160Y01755288D01*
Y01752512D01*
X00352878Y01749832D01*
X00354266Y01747428D01*
X00356228Y01745466D01*
X00358632Y01744078D01*
X00361312Y01743360D01*
X00364088D01*
X00366768Y01744078D01*
X00369172Y01745466D01*
X00371134Y01747428D01*
X00372522Y01749832D01*
X00373240Y01752512D01*
Y01755288D01*
X00372522Y01757968D01*
X00371134Y01760372D01*
X00369172Y01762334D01*
X00366768Y01763722D01*
X00364088Y01764440D01*
D02*
G37*
G36*
X01144000Y01749250D02*
X01134250D01*
Y01742500D01*
X01144000D01*
Y01749250D01*
D02*
G37*
G36*
X01130750D02*
X01121000D01*
Y01742500D01*
X01130750D01*
Y01749250D01*
D02*
G37*
G36*
X00961930Y01739740D02*
X00939070D01*
Y01720660D01*
X00961930D01*
Y01739740D01*
D02*
G37*
G36*
X01215250Y01723341D02*
X01214000D01*
Y01714500D01*
X01225610D01*
X01225480Y01715491D01*
X01224422Y01718045D01*
X01222739Y01720239D01*
X01220545Y01721922D01*
X01217991Y01722980D01*
X01215250Y01723341D01*
D02*
G37*
G36*
X01210500D02*
X01209250D01*
X01206509Y01722980D01*
X01203955Y01721922D01*
X01201761Y01720239D01*
X01200078Y01718045D01*
X01199020Y01715491D01*
X01198890Y01714500D01*
X01210500D01*
Y01723341D01*
D02*
G37*
G36*
X00414888Y01764440D02*
X00412112D01*
X00409432Y01763722D01*
X00407028Y01762334D01*
X00405066Y01760372D01*
X00403678Y01757968D01*
X00402960Y01755288D01*
Y01752512D01*
X00403678Y01749832D01*
X00405066Y01747428D01*
X00407028Y01745466D01*
X00408486Y01744624D01*
Y01717269D01*
X00408210Y01716602D01*
Y01714398D01*
X00409053Y01712362D01*
X00410612Y01710803D01*
X00412648Y01709960D01*
X00414852D01*
X00416888Y01710803D01*
X00418447Y01712362D01*
X00419290Y01714398D01*
Y01716602D01*
X00418764Y01717872D01*
Y01744769D01*
X00419972Y01745466D01*
X00421934Y01747428D01*
X00423322Y01749832D01*
X00424040Y01752512D01*
Y01755288D01*
X00423322Y01757968D01*
X00421934Y01760372D01*
X00419972Y01762334D01*
X00417568Y01763722D01*
X00414888Y01764440D01*
D02*
G37*
G36*
X01225610Y01711000D02*
X01214000D01*
Y01702159D01*
X01215250D01*
X01217991Y01702520D01*
X01220545Y01703578D01*
X01222739Y01705261D01*
X01224422Y01707455D01*
X01225480Y01710009D01*
X01225610Y01711000D01*
D02*
G37*
G36*
X01210500D02*
X01198890D01*
X01199020Y01710009D01*
X01200078Y01707455D01*
X01201761Y01705261D01*
X01203955Y01703578D01*
X01206509Y01702520D01*
X01209250Y01702159D01*
X01210500D01*
Y01711000D01*
D02*
G37*
G36*
X01089250Y01706081D02*
Y01699500D01*
X01095831D01*
X01095421Y01701031D01*
X01094302Y01702969D01*
X01092719Y01704552D01*
X01090781Y01705671D01*
X01089250Y01706081D01*
D02*
G37*
G36*
X01085750Y01706081D02*
X01084219Y01705671D01*
X01082281Y01704552D01*
X01080698Y01702969D01*
X01079579Y01701031D01*
X01079169Y01699500D01*
X01085750D01*
Y01706081D01*
D02*
G37*
G36*
X01162250Y01702500D02*
X01152500D01*
Y01695750D01*
X01162250D01*
Y01702500D01*
D02*
G37*
G36*
X01149000D02*
X01139250D01*
Y01695750D01*
X01149000D01*
Y01702500D01*
D02*
G37*
G36*
X01085750Y01696000D02*
X01079169D01*
X01079579Y01694469D01*
X01080698Y01692531D01*
X01082281Y01690948D01*
X01084219Y01689829D01*
X01085750Y01689419D01*
Y01696000D01*
D02*
G37*
G36*
X01095831D02*
X01089250D01*
Y01689419D01*
X01090781Y01689829D01*
X01092719Y01690948D01*
X01094302Y01692531D01*
X01095421Y01694469D01*
X01095831Y01696000D01*
D02*
G37*
G36*
X01162250Y01692250D02*
X01152500D01*
Y01685500D01*
X01162250D01*
Y01692250D01*
D02*
G37*
G36*
X01149000D02*
X01139250D01*
Y01685500D01*
X01149000D01*
Y01692250D01*
D02*
G37*
G36*
X00206500Y01789500D02*
X00199750D01*
Y01779750D01*
X00206500D01*
Y01789500D01*
D02*
G37*
G36*
X00103750D02*
Y01779750D01*
X00110500D01*
Y01789500D01*
X00103750D01*
D02*
G37*
G36*
X00196250D02*
X00189500D01*
Y01779750D01*
X00196250D01*
Y01789500D01*
D02*
G37*
G36*
X00206500Y01776250D02*
X00199750D01*
Y01766500D01*
X00206500D01*
Y01776250D01*
D02*
G37*
G36*
X00196250D02*
X00189500D01*
Y01766500D01*
X00196250D01*
Y01776250D01*
D02*
G37*
G36*
X00110500D02*
X00103750D01*
Y01766500D01*
X00110500D01*
Y01776250D01*
D02*
G37*
G36*
X00206500Y01759500D02*
X00199750D01*
Y01749750D01*
X00206500D01*
Y01759500D01*
D02*
G37*
G36*
X00103750D02*
Y01749750D01*
X00110500D01*
Y01759500D01*
X00103750D01*
D02*
G37*
G36*
X00196250D02*
X00189500D01*
Y01749750D01*
X00196250D01*
Y01759500D01*
D02*
G37*
G36*
X00206500Y01746250D02*
X00199750D01*
Y01736500D01*
X00206500D01*
Y01746250D01*
D02*
G37*
G36*
X00196250D02*
X00189500D01*
Y01736500D01*
X00196250D01*
Y01746250D01*
D02*
G37*
G36*
X00110500D02*
X00103750D01*
Y01736500D01*
X00110500D01*
Y01746250D01*
D02*
G37*
G36*
X00796250Y01766341D02*
X00796110D01*
X00793369Y01765980D01*
X00790815Y01764922D01*
X00788621Y01763239D01*
X00786938Y01761045D01*
X00785880Y01758491D01*
X00785750Y01757500D01*
X00796250D01*
Y01766341D01*
D02*
G37*
G36*
X00810250Y01754000D02*
X00799750D01*
Y01745159D01*
X00799890D01*
X00802631Y01745520D01*
X00805185Y01746578D01*
X00807379Y01748261D01*
X00809062Y01750455D01*
X00810120Y01753009D01*
X00810250Y01754000D01*
D02*
G37*
G36*
X00796250D02*
X00785750D01*
X00785880Y01753009D01*
X00786938Y01750455D01*
X00788621Y01748261D01*
X00790815Y01746578D01*
X00793369Y01745520D01*
X00796110Y01745159D01*
X00796250D01*
Y01754000D01*
D02*
G37*
G36*
X01531000Y01657000D02*
X01524250D01*
Y01647250D01*
X01531000D01*
Y01657000D01*
D02*
G37*
G36*
X01520750D02*
X01514000D01*
Y01647250D01*
X01520750D01*
Y01657000D01*
D02*
G37*
G36*
X01480000Y01651250D02*
X01473250D01*
Y01641500D01*
X01480000D01*
Y01651250D01*
D02*
G37*
G36*
X01469750D02*
X01463000D01*
Y01641500D01*
X01469750D01*
Y01651250D01*
D02*
G37*
G36*
X01531000Y01643750D02*
X01524250D01*
Y01634000D01*
X01531000D01*
Y01643750D01*
D02*
G37*
G36*
X01520750D02*
X01514000D01*
Y01634000D01*
X01520750D01*
Y01643750D01*
D02*
G37*
G36*
X00773040Y01635790D02*
X00757960D01*
Y01630389D01*
X00741100D01*
X00739134Y01629998D01*
X00737467Y01628884D01*
X00734300Y01625717D01*
X00731134Y01628884D01*
X00729466Y01629998D01*
X00727500Y01630389D01*
X00605000D01*
X00603033Y01629998D01*
X00601366Y01628884D01*
X00599300Y01626817D01*
X00597234Y01628884D01*
X00595567Y01629998D01*
X00593600Y01630389D01*
X00472500D01*
X00470533Y01629998D01*
X00468866Y01628884D01*
X00460666Y01620684D01*
X00459552Y01619017D01*
X00459161Y01617050D01*
Y01610704D01*
X00457828Y01609934D01*
X00455866Y01607972D01*
X00454478Y01605568D01*
X00453760Y01602888D01*
Y01600112D01*
X00454478Y01597432D01*
X00455866Y01595028D01*
X00457828Y01593066D01*
X00460232Y01591678D01*
X00462912Y01590960D01*
X00465688D01*
X00468368Y01591678D01*
X00470772Y01593066D01*
X00472734Y01595028D01*
X00474122Y01597432D01*
X00474840Y01600112D01*
Y01602888D01*
X00474122Y01605568D01*
X00472734Y01607972D01*
X00470772Y01609934D01*
X00469439Y01610704D01*
Y01614922D01*
X00474628Y01620111D01*
X00591472D01*
X00594161Y01617422D01*
Y01610704D01*
X00592828Y01609934D01*
X00590866Y01607972D01*
X00589478Y01605568D01*
X00588760Y01602888D01*
Y01600112D01*
X00589478Y01597432D01*
X00590866Y01595028D01*
X00592828Y01593066D01*
X00595232Y01591678D01*
X00597912Y01590960D01*
X00600688D01*
X00603368Y01591678D01*
X00605772Y01593066D01*
X00607734Y01595028D01*
X00609122Y01597432D01*
X00609840Y01600112D01*
Y01602888D01*
X00609122Y01605568D01*
X00607734Y01607972D01*
X00605772Y01609934D01*
X00604439Y01610704D01*
Y01617422D01*
X00607129Y01620111D01*
X00725371D01*
X00729161Y01616321D01*
Y01610704D01*
X00727828Y01609934D01*
X00725866Y01607972D01*
X00724479Y01605568D01*
X00723760Y01602888D01*
Y01600112D01*
X00724479Y01597432D01*
X00725866Y01595028D01*
X00727828Y01593066D01*
X00730232Y01591678D01*
X00732913Y01590960D01*
X00735688D01*
X00738368Y01591678D01*
X00740772Y01593066D01*
X00742734Y01595028D01*
X00744122Y01597432D01*
X00744840Y01600112D01*
Y01602888D01*
X00744122Y01605568D01*
X00742734Y01607972D01*
X00740772Y01609934D01*
X00739439Y01610704D01*
Y01616321D01*
X00743229Y01620111D01*
X00757960D01*
Y01614710D01*
X00773040D01*
Y01635790D01*
D02*
G37*
G36*
X01346450Y01626750D02*
X01341644D01*
Y01623750D01*
X01341867Y01622053D01*
X01342522Y01620472D01*
X01343564Y01619114D01*
X01344922Y01618072D01*
X01346450Y01617439D01*
Y01626750D01*
D02*
G37*
G36*
X00785102Y01704540D02*
X00782898D01*
X00780862Y01703697D01*
X00779303Y01702138D01*
X00778460Y01700102D01*
Y01697898D01*
X00778861Y01696929D01*
Y01639750D01*
X00779252Y01637784D01*
X00780366Y01636116D01*
X00787960Y01628523D01*
Y01614710D01*
X00803040D01*
Y01635790D01*
X00795227D01*
X00789139Y01641879D01*
Y01696929D01*
X00789540Y01697898D01*
Y01700102D01*
X00788697Y01702138D01*
X00787138Y01703697D01*
X00785102Y01704540D01*
D02*
G37*
G36*
X01511409Y01613250D02*
X01511250D01*
Y01600500D01*
X01524000D01*
Y01600659D01*
X01523012Y01604347D01*
X01521103Y01607653D01*
X01518403Y01610353D01*
X01515097Y01612262D01*
X01511409Y01613250D01*
D02*
G37*
G36*
X01507750D02*
X01507591D01*
X01503903Y01612262D01*
X01500597Y01610353D01*
X01497897Y01607653D01*
X01495988Y01604347D01*
X01495000Y01600659D01*
Y01600500D01*
X01507750D01*
Y01613250D01*
D02*
G37*
G36*
X00684888Y01612040D02*
X00682113D01*
X00679432Y01611322D01*
X00677028Y01609934D01*
X00675066Y01607972D01*
X00673679Y01605568D01*
X00672960Y01602888D01*
Y01600112D01*
X00673679Y01597432D01*
X00675066Y01595028D01*
X00677028Y01593066D01*
X00679432Y01591678D01*
X00682113Y01590960D01*
X00684888D01*
X00687568Y01591678D01*
X00689972Y01593066D01*
X00691934Y01595028D01*
X00693322Y01597432D01*
X00694040Y01600112D01*
Y01602888D01*
X00693322Y01605568D01*
X00691934Y01607972D01*
X00689972Y01609934D01*
X00687568Y01611322D01*
X00684888Y01612040D01*
D02*
G37*
G36*
X00659488D02*
X00656712D01*
X00654032Y01611322D01*
X00651628Y01609934D01*
X00649666Y01607972D01*
X00648279Y01605568D01*
X00647560Y01602888D01*
Y01600112D01*
X00648279Y01597432D01*
X00649666Y01595028D01*
X00651628Y01593066D01*
X00654032Y01591678D01*
X00656712Y01590960D01*
X00659488D01*
X00662168Y01591678D01*
X00664572Y01593066D01*
X00666534Y01595028D01*
X00667922Y01597432D01*
X00668640Y01600112D01*
Y01602888D01*
X00667922Y01605568D01*
X00666534Y01607972D01*
X00664572Y01609934D01*
X00662168Y01611322D01*
X00659488Y01612040D01*
D02*
G37*
G36*
X00643240D02*
X00622160D01*
Y01590960D01*
X00643240D01*
Y01612040D01*
D02*
G37*
G36*
X00549888D02*
X00547112D01*
X00544432Y01611322D01*
X00542028Y01609934D01*
X00540066Y01607972D01*
X00538678Y01605568D01*
X00537960Y01602888D01*
Y01600112D01*
X00538678Y01597432D01*
X00540066Y01595028D01*
X00542028Y01593066D01*
X00544432Y01591678D01*
X00547112Y01590960D01*
X00549888D01*
X00552568Y01591678D01*
X00554972Y01593066D01*
X00556934Y01595028D01*
X00558322Y01597432D01*
X00559040Y01600112D01*
Y01602888D01*
X00558322Y01605568D01*
X00556934Y01607972D01*
X00554972Y01609934D01*
X00552568Y01611322D01*
X00549888Y01612040D01*
D02*
G37*
G36*
X00524488D02*
X00521712D01*
X00519032Y01611322D01*
X00516628Y01609934D01*
X00514666Y01607972D01*
X00513278Y01605568D01*
X00512560Y01602888D01*
Y01600112D01*
X00513278Y01597432D01*
X00514666Y01595028D01*
X00516628Y01593066D01*
X00519032Y01591678D01*
X00521712Y01590960D01*
X00524488D01*
X00527168Y01591678D01*
X00529572Y01593066D01*
X00531534Y01595028D01*
X00532922Y01597432D01*
X00533640Y01600112D01*
Y01602888D01*
X00532922Y01605568D01*
X00531534Y01607972D01*
X00529572Y01609934D01*
X00527168Y01611322D01*
X00524488Y01612040D01*
D02*
G37*
G36*
X00508240D02*
X00487160D01*
Y01590960D01*
X00508240D01*
Y01612040D01*
D02*
G37*
G36*
X00414888D02*
X00412112D01*
X00409432Y01611322D01*
X00407028Y01609934D01*
X00405066Y01607972D01*
X00403678Y01605568D01*
X00402960Y01602888D01*
Y01600112D01*
X00403678Y01597432D01*
X00405066Y01595028D01*
X00407028Y01593066D01*
X00409432Y01591678D01*
X00412112Y01590960D01*
X00414888D01*
X00417568Y01591678D01*
X00419972Y01593066D01*
X00421934Y01595028D01*
X00423322Y01597432D01*
X00424040Y01600112D01*
Y01602888D01*
X00423322Y01605568D01*
X00421934Y01607972D01*
X00419972Y01609934D01*
X00417568Y01611322D01*
X00414888Y01612040D01*
D02*
G37*
G36*
X00389488D02*
X00386712D01*
X00384032Y01611322D01*
X00381628Y01609934D01*
X00379666Y01607972D01*
X00378278Y01605568D01*
X00377560Y01602888D01*
Y01600112D01*
X00378278Y01597432D01*
X00379666Y01595028D01*
X00381628Y01593066D01*
X00384032Y01591678D01*
X00386712Y01590960D01*
X00389488D01*
X00392168Y01591678D01*
X00394572Y01593066D01*
X00396534Y01595028D01*
X00397922Y01597432D01*
X00398640Y01600112D01*
Y01602888D01*
X00397922Y01605568D01*
X00396534Y01607972D01*
X00394572Y01609934D01*
X00392168Y01611322D01*
X00389488Y01612040D01*
D02*
G37*
G36*
X00373240D02*
X00352160D01*
Y01590960D01*
X00373240D01*
Y01612040D01*
D02*
G37*
G36*
X01524000Y01597000D02*
X01511250D01*
Y01584250D01*
X01511409D01*
X01515097Y01585238D01*
X01518403Y01587147D01*
X01521103Y01589847D01*
X01523012Y01593153D01*
X01524000Y01596841D01*
Y01597000D01*
D02*
G37*
G36*
X01507750D02*
X01495000D01*
Y01596841D01*
X01495988Y01593153D01*
X01497897Y01589847D01*
X01500597Y01587147D01*
X01503903Y01585238D01*
X01507591Y01584250D01*
X01507750D01*
Y01597000D01*
D02*
G37*
G36*
X01346450Y01585561D02*
X01344922Y01584928D01*
X01343564Y01583886D01*
X01342522Y01582528D01*
X01341867Y01580947D01*
X01341644Y01579250D01*
Y01576250D01*
X01346450D01*
Y01585561D01*
D02*
G37*
G36*
X01349950Y01585561D02*
Y01574500D01*
Y01563439D01*
X01351478Y01564072D01*
X01352836Y01565114D01*
X01353043Y01565385D01*
X01353197Y01565461D01*
X01355903D01*
X01356057Y01565385D01*
X01356264Y01565114D01*
X01357622Y01564072D01*
X01359150Y01563439D01*
Y01574500D01*
Y01585561D01*
X01357622Y01584928D01*
X01356264Y01583886D01*
X01356057Y01583616D01*
X01355903Y01583539D01*
X01353197D01*
X01353043Y01583616D01*
X01352836Y01583886D01*
X01351478Y01584928D01*
X01349950Y01585561D01*
D02*
G37*
G36*
X01346450Y01572750D02*
X01341644D01*
Y01569750D01*
X01341867Y01568053D01*
X01342522Y01566472D01*
X01343564Y01565114D01*
X01344922Y01564072D01*
X01346450Y01563439D01*
Y01572750D01*
D02*
G37*
G36*
X01333250Y01555250D02*
X01323500D01*
Y01548500D01*
X01333250D01*
Y01555250D01*
D02*
G37*
G36*
X01320000D02*
X01310250D01*
Y01548500D01*
X01320000D01*
Y01555250D01*
D02*
G37*
G36*
X01364250Y01558250D02*
X01357500D01*
Y01548500D01*
X01364250D01*
Y01558250D01*
D02*
G37*
G36*
X01354000D02*
X01347250D01*
Y01548500D01*
X01354000D01*
Y01558250D01*
D02*
G37*
G36*
X01333250Y01545000D02*
X01323500D01*
Y01538250D01*
X01333250D01*
Y01545000D01*
D02*
G37*
G36*
X01320000D02*
X01310250D01*
Y01538250D01*
X01320000D01*
Y01545000D01*
D02*
G37*
G36*
X01561000Y01657000D02*
X01554250D01*
Y01647250D01*
X01561000D01*
Y01657000D01*
D02*
G37*
G36*
X01550750D02*
X01544000D01*
Y01647250D01*
X01550750D01*
Y01657000D01*
D02*
G37*
G36*
X01592909Y01659250D02*
X01592750D01*
Y01646500D01*
X01605500D01*
Y01646659D01*
X01604512Y01650347D01*
X01602603Y01653653D01*
X01599903Y01656353D01*
X01596597Y01658262D01*
X01592909Y01659250D01*
D02*
G37*
G36*
X01589250D02*
X01589091D01*
X01585403Y01658262D01*
X01582097Y01656353D01*
X01579397Y01653653D01*
X01577488Y01650347D01*
X01576500Y01646659D01*
Y01646500D01*
X01589250D01*
Y01659250D01*
D02*
G37*
G36*
X01561000Y01643750D02*
X01554250D01*
Y01634000D01*
X01561000D01*
Y01643750D01*
D02*
G37*
G36*
X01550750D02*
X01544000D01*
Y01634000D01*
X01550750D01*
Y01643750D01*
D02*
G37*
G36*
X01605500Y01643000D02*
X01592750D01*
Y01630250D01*
X01592909D01*
X01596597Y01631238D01*
X01599903Y01633147D01*
X01602603Y01635847D01*
X01604512Y01639153D01*
X01605500Y01642841D01*
Y01643000D01*
D02*
G37*
G36*
X01589250D02*
X01576500D01*
Y01642841D01*
X01577488Y01639153D01*
X01579397Y01635847D01*
X01582097Y01633147D01*
X01585403Y01631238D01*
X01589091Y01630250D01*
X01589250D01*
Y01643000D01*
D02*
G37*
%LPD*%
D15*
X01180975Y01830275D02*
X01182500Y01828750D01*
X00302500Y01748566D02*
X00357066Y01694000D01*
X00295000Y01747199D02*
X00354469Y01687730D01*
X00728813D01*
X00296250Y01731750D02*
X00346540Y01681460D01*
X00295000Y01747199D02*
Y01770000D01*
X00357066Y01694000D02*
X00726216D01*
X00302500Y01748566D02*
Y01790000D01*
X00346540Y01681460D02*
X00731410D01*
X00772620Y01882600D02*
X00798001D01*
X00734060Y01830990D02*
Y01844040D01*
X00772620Y01882600D01*
X00734060Y01830990D02*
X00734300Y01830750D01*
X00774398Y01908000D02*
X00798001D01*
X00708750Y01830750D02*
Y01842352D01*
X00774398Y01908000D01*
X00776397Y01933400D02*
X00798001D01*
X00682748Y01839752D02*
X00776397Y01933400D01*
X00655750Y01851000D02*
X00667699D01*
X00756369Y01939670D02*
Y01939670D01*
X00667699Y01851000D02*
X00756369Y01939670D01*
X00726216Y01694000D02*
X00751210Y01718994D01*
Y01826942D01*
X00763750Y01713800D02*
Y01788750D01*
X00731410Y01681460D02*
X00763750Y01713800D01*
X00728813Y01687730D02*
X00757480Y01716397D01*
Y01809980D01*
X00798001Y01781000D02*
X00799906D01*
X00257000Y01778000D02*
X00287000D01*
X00295000Y01770000D01*
X00292500Y01800000D02*
X00302500Y01790000D01*
X00167500Y01800000D02*
X00292500D01*
X00784000Y01639750D02*
Y01699000D01*
X00413500Y01753900D02*
X00413625Y01753775D01*
Y01715625D02*
Y01753775D01*
Y01715625D02*
X00413750Y01715500D01*
X00478600Y01707250D02*
X00566250D01*
X00464300Y01721550D02*
X00478600Y01707250D01*
X00566250D02*
X00598750Y01739750D01*
X00606750Y01731750D01*
X00728250D02*
X00735750Y01739250D01*
X00606750Y01731750D02*
X00728250D01*
X00735750Y01739250D02*
Y01752450D01*
X00598750Y01739750D02*
Y01753350D01*
X00599300Y01753900D01*
X00734300D02*
X00735750Y01752450D01*
X00464300Y01721550D02*
Y01753900D01*
X00756369Y01939670D02*
X00756420D01*
X00775550Y01958800D02*
X00798001D01*
X00756420Y01939670D02*
X00775550Y01958800D01*
X00781468Y01857200D02*
X00798001D01*
X00751210Y01826942D02*
X00781468Y01857200D01*
X00734300Y01753900D02*
Y01800750D01*
X00708750Y01782650D02*
Y01800750D01*
Y01782650D02*
X00708900Y01782500D01*
X00796000Y01579250D02*
Y01582250D01*
X00795500Y01579500D02*
Y01602250D01*
X00784000Y01639750D02*
X00795500Y01628250D01*
Y01625250D02*
Y01628250D01*
X00987000Y01652250D02*
X01095500D01*
X00921750Y01717500D02*
X00987000Y01652250D01*
X00921750Y01717500D02*
Y01900250D01*
X00799906Y01781000D02*
X00841936Y01738970D01*
X00891413D02*
X00988883Y01641500D01*
X00841936Y01738970D02*
X00891413D01*
X00988883Y01641500D02*
X01053500D01*
X00734300Y01618450D02*
X00741100Y01625250D01*
X00765500D01*
X00709250Y01583500D02*
X00713250Y01579500D01*
X00765500D01*
X00921750Y01900250D02*
X00929250Y01907750D01*
X00950250D01*
X00950500Y01908000D01*
X01383250Y01546750D02*
Y01549750D01*
X01385750Y01546750D02*
X01386500Y01547500D01*
X01409250D01*
X01321750Y01576750D02*
Y01601000D01*
X01288000Y01600250D02*
X01318750Y01631000D01*
X01321750D01*
X01262750Y01600250D02*
X01288000D01*
X00763750Y01788750D02*
X00781400Y01806400D01*
X00757480Y01809980D02*
X00779300Y01831800D01*
X00781400Y01806400D02*
X00798001D01*
X00548500Y01753900D02*
X00548750Y01753650D01*
X00548500Y01718250D02*
Y01753900D01*
X00548500Y01718250D02*
X00548500Y01718250D01*
X00779300Y01831800D02*
X00798001D01*
X00599300Y01619550D02*
X00605000Y01625250D01*
X00734300Y01601500D02*
Y01618450D01*
X00593600Y01625250D02*
X00599300Y01619550D01*
X00464300Y01601500D02*
Y01617050D01*
X00472500Y01625250D02*
X00593600D01*
X00605000D02*
X00727500D01*
X00464300Y01617050D02*
X00472500Y01625250D01*
X00727500D02*
X00734300Y01618450D01*
X00161000Y01778000D02*
Y01793500D01*
X00167500Y01800000D01*
X01285503Y01632003D02*
Y01638932D01*
X01286750Y01640179D02*
Y01673750D01*
X01317040Y01643460D02*
X01381790D01*
X01285503Y01638932D02*
X01286750Y01640179D01*
Y01673750D02*
X01317040Y01643460D01*
X01227750Y01732750D02*
X01286750Y01673750D01*
X01282250Y01628750D02*
X01285503Y01632003D01*
X00444500Y01578500D02*
X00569500D01*
X00439000Y01584000D02*
Y01601400D01*
X00438900Y01601500D02*
X00439000Y01601400D01*
Y01584000D02*
X00444500Y01578500D01*
X00569500D02*
X00574000Y01583000D01*
X00467500Y01782500D02*
X00573524D01*
X00438900Y01753900D02*
X00467500Y01782500D01*
X00573524D02*
X00708900D01*
X00573524Y01754276D02*
Y01782500D01*
X00548500Y01753900D02*
X00548500Y01753900D01*
X00708900D02*
Y01782500D01*
X00578250Y01578750D02*
X00704500D01*
X00708900Y01601500D02*
X00709250Y01601150D01*
X00574000Y01583000D02*
Y01601400D01*
Y01583000D02*
X00578250Y01578750D01*
X00704500D02*
X00709250Y01583500D01*
Y01601150D01*
X01386109Y01628691D02*
Y01639141D01*
X01381790Y01643460D02*
X01386109Y01639141D01*
Y01628691D02*
X01386300Y01628500D01*
X01182500Y01732750D02*
X01227750D01*
X01354500Y01601000D02*
X01360900Y01607400D01*
Y01628500D01*
X01321750Y01601000D02*
X01354500D01*
X01414500Y01622950D02*
X01414750Y01622700D01*
Y01576750D02*
Y01622700D01*
X01282500Y01576750D02*
X01321750D01*
X01321750Y01576750D01*
X01373600Y01628500D02*
X01373791Y01628309D01*
Y01616709D02*
Y01628309D01*
Y01616709D02*
X01380500Y01610000D01*
X01409250D01*
X01414500Y01615250D01*
Y01622950D01*
X01386300Y01552800D02*
Y01574500D01*
X01383250Y01549750D02*
X01386300Y01552800D01*
X01415225Y01623275D02*
X01415300Y01623200D01*
X01418300D01*
X00256700Y01747700D02*
X00257000Y01748000D01*
X00230000Y01636700D02*
X00231300Y01638000D01*
X00573524Y01754276D02*
X00573900Y01753900D01*
Y01601500D02*
X00574000Y01601400D01*
X00599300Y01601500D02*
Y01619550D01*
X00134000Y01636700D02*
X00135300Y01638000D01*
X00160700Y01747700D02*
X00161000Y01748000D01*
D23*
X01182250Y01960750D02*
D03*
X01212250Y01894750D02*
D03*
X01182250Y01910750D02*
D03*
Y01732750D02*
D03*
Y01860750D02*
D03*
Y01828750D02*
D03*
Y01796750D02*
D03*
Y01764750D02*
D03*
X01468250Y01887400D02*
D03*
Y01840100D02*
D03*
Y01934700D02*
D03*
Y01982000D02*
D03*
Y02029300D02*
D03*
Y01792800D02*
D03*
Y01745500D02*
D03*
Y01698200D02*
D03*
X01212250Y01944750D02*
D03*
Y01712750D02*
D03*
Y01748750D02*
D03*
Y01780750D02*
D03*
Y01812750D02*
D03*
Y01844750D02*
D03*
Y01994750D02*
D03*
D24*
X01182250Y02014750D02*
D03*
D43*
X01414750Y01653200D02*
D03*
Y01623200D02*
D03*
X01321750Y01546750D02*
D03*
Y01576750D02*
D03*
Y01601000D02*
D03*
Y01631000D02*
D03*
X00620000Y01926000D02*
D03*
Y01956000D02*
D03*
X00708750Y01830750D02*
D03*
Y01800750D02*
D03*
X00734300D02*
D03*
Y01830750D02*
D03*
X01132500Y01751000D02*
D03*
Y01781000D02*
D03*
Y01831675D02*
D03*
Y01801675D02*
D03*
Y01852600D02*
D03*
Y01882600D02*
D03*
X01150750Y01724000D02*
D03*
Y01694000D02*
D03*
X00257000Y01778000D02*
D03*
Y01748000D02*
D03*
X00161000Y01778000D02*
D03*
Y01748000D02*
D03*
X00801000Y02266750D02*
D03*
Y02296750D02*
D03*
X00595000Y02011000D02*
D03*
Y01981000D02*
D03*
D44*
X01441500Y01653000D02*
D03*
X01471500D02*
D03*
X01552500Y01645500D02*
D03*
X01522500D02*
D03*
X01355750Y01546750D02*
D03*
X01385750D02*
D03*
X01444750Y01698200D02*
D03*
X01414750D02*
D03*
Y01745500D02*
D03*
X01444750D02*
D03*
X00795500Y01579500D02*
D03*
X00765500D02*
D03*
X00795500Y01625250D02*
D03*
X00765500D02*
D03*
X00645000Y01885000D02*
D03*
X00675000D02*
D03*
X00132000Y01778000D02*
D03*
X00102000D02*
D03*
X01193058Y02251750D02*
D03*
X01223058D02*
D03*
X01193058Y02171250D02*
D03*
X01223058D02*
D03*
X01414750Y01792800D02*
D03*
X01444750D02*
D03*
X01223250Y02296500D02*
D03*
X01193250D02*
D03*
Y02323000D02*
D03*
X01223250D02*
D03*
Y02350250D02*
D03*
X01193250D02*
D03*
X01031000Y01755600D02*
D03*
X01001000D02*
D03*
X01031000Y01781000D02*
D03*
X01001000D02*
D03*
X01031000Y01806400D02*
D03*
X01001000D02*
D03*
X01031000Y01831800D02*
D03*
X01001000D02*
D03*
X01031000Y01882600D02*
D03*
X01001000D02*
D03*
X01031000Y01857200D02*
D03*
X01001000D02*
D03*
X00198000Y01748000D02*
D03*
X00228000D02*
D03*
X00200000Y01610000D02*
D03*
X00230000D02*
D03*
X00102000Y01748000D02*
D03*
X00132000D02*
D03*
X00104000Y01610000D02*
D03*
X00134000D02*
D03*
X00198000Y01778000D02*
D03*
X00228000D02*
D03*
X01139480Y02171000D02*
D03*
X01169480D02*
D03*
D45*
X01348200Y01628500D02*
D03*
X01360900Y01574500D02*
D03*
X01348200D02*
D03*
X01386300Y01628500D02*
D03*
X01373600D02*
D03*
X01360900D02*
D03*
X01373600Y01574500D02*
D03*
X01386300D02*
D03*
D46*
X00135300Y01638000D02*
D03*
X00160700D02*
D03*
X00135300Y01722000D02*
D03*
X00160700D02*
D03*
X00231300Y01638000D02*
D03*
X00256700D02*
D03*
X00231300Y01722000D02*
D03*
X00256700D02*
D03*
D47*
X01193250Y02399000D02*
X01327000D01*
X01379250Y02346750D01*
X01378750Y02284000D02*
X01481000Y02181750D01*
X01246000Y02649000D02*
X01474250Y02420750D01*
X01484250Y02371750D02*
X01706000Y02150000D01*
Y01706500D02*
Y02138000D01*
X01491000Y01983000D02*
X01514000Y02006000D01*
X01469250Y01983000D02*
X01491000D01*
X01514000Y02006000D02*
Y02056250D01*
X01481000Y02089250D02*
X01514000Y02056250D01*
X01481000Y02089250D02*
Y02138000D01*
Y02181750D01*
X01378750Y02284000D02*
Y02346250D01*
X01379250Y02346750D01*
X01706000Y02138000D02*
Y02150000D01*
X01193250Y02649000D02*
X01246000D01*
X01474250Y02381750D02*
X01484250Y02371750D01*
X01474250Y02381750D02*
Y02420750D01*
D48*
X01468500Y01934700D02*
X01520875D01*
X01521000Y01934575D02*
X01613993D01*
X01468500Y01840100D02*
X01521000D01*
X01521000Y01840100D02*
X01615318D01*
X01468500Y01887400D02*
X01521000D01*
X01521300Y01887700D02*
X01643200D01*
X01615318Y01840100D02*
X01642418Y01813000D01*
X01643500D01*
X01521000Y01840100D02*
X01521000Y01840100D01*
Y01887400D02*
X01521300Y01887700D01*
X01643200D02*
X01643500Y01888000D01*
X01521000Y01887400D02*
X01521000Y01887400D01*
X01642418Y01963000D02*
X01643500D01*
X01613993Y01934575D02*
X01642418Y01963000D01*
X01520875Y01934700D02*
X01521000Y01934575D01*
X00595000Y01981000D02*
X00675000D01*
X00532000D02*
X00595000D01*
X00326250Y01967000D02*
X00481004D01*
X00516000Y01932004D01*
X00282500Y02010750D02*
X00326250Y01967000D01*
X00516000Y01883246D02*
Y01932004D01*
X00415996Y01883250D02*
X00416000Y01883246D01*
X00386250Y01883250D02*
X00415996D01*
Y01932000D02*
X00416000Y01932004D01*
X00386250Y01932000D02*
X00415996D01*
X00286250Y01883250D02*
Y01932000D01*
X00232500Y02010750D02*
X00286250Y01957000D01*
Y01932000D02*
Y01957000D01*
X00127500Y01892500D02*
X00182500D01*
X00027500D02*
Y01905750D01*
X00132500Y02010750D01*
X00182500Y01927500D02*
Y02010750D01*
D49*
X01192933Y02171125D02*
X01193058Y02171250D01*
X01170875Y02171125D02*
X01192933D01*
X00044500Y01874500D02*
X00174500D01*
X00025000Y01855000D02*
X00044500Y01874500D01*
X00174500D02*
X00180157Y01880157D01*
X00310960Y01704040D02*
X00341310Y01673690D01*
X00737557D01*
X00231500Y01704040D02*
X00310960D01*
X00773750Y01709883D02*
Y01776314D01*
X00737557Y01673690D02*
X00773750Y01709883D01*
X00252700Y01631000D02*
X00256700Y01635000D01*
X00247750Y01626314D02*
X00252436Y01631000D01*
X00243064Y01577500D02*
X00247750Y01582186D01*
X00180000Y01577500D02*
X00243064D01*
X00247750Y01582186D02*
Y01626314D01*
X00256700Y01635000D02*
Y01638000D01*
X00252436Y01631000D02*
X00252700D01*
X01193250Y02350250D02*
Y02399000D01*
X00143986Y01704040D02*
X00201250D01*
X01170750Y02171000D02*
X01170875Y02171125D01*
X01111500Y01724000D02*
X01153750D01*
X01181352Y01763602D02*
X01182500Y01764750D01*
X00201250Y01704040D02*
X00231500D01*
X01168750Y02171000D02*
X01168875Y02171125D01*
X01223250Y02251750D02*
Y02296500D01*
X01193250D02*
Y02323000D01*
X01223250D02*
Y02350250D01*
X00773750Y01776314D02*
X00778436Y01781000D01*
X00798001D01*
X01154750Y01728000D02*
X01160250Y01733500D01*
Y01758916D02*
X01164936Y01763602D01*
X01154750Y01725000D02*
Y01728000D01*
X01160250Y01733500D02*
Y01758916D01*
X01164936Y01763602D02*
X01181352D01*
X01105250Y01717750D02*
X01111500Y01724000D01*
X01087500Y01717750D02*
X01105250D01*
X00675000Y01885000D02*
Y01931000D01*
X00666753Y01926000D02*
X00671753Y01931000D01*
X00675000D01*
X00620000Y01926000D02*
X00666753D01*
X00139300Y01708726D02*
Y01718000D01*
Y01708726D02*
X00143986Y01704040D01*
X00135300Y01722000D02*
X00139300Y01718000D01*
X00231300Y01722000D02*
X00231500Y01721800D01*
Y01704040D02*
Y01721800D01*
X00187500Y01660000D02*
X00200000Y01647500D01*
Y01610000D02*
Y01647500D01*
X00077500Y01660000D02*
X00187500D01*
X00025000Y01712500D02*
X00077500Y01660000D01*
X00104000Y01633500D01*
X00180157Y01880157D02*
Y01890157D01*
X00182500Y01892500D01*
X00025000Y01712500D02*
Y01855000D01*
X00104000Y01610000D02*
Y01633500D01*
X00228000Y01778000D02*
X00257000D01*
X00132000D02*
X00161000D01*
X00121314Y01549714D02*
Y01566314D01*
X00160700Y01605700D01*
X00120600Y01549000D02*
X00121314Y01549714D01*
X00171400Y01568900D02*
X00180000Y01577500D01*
X00171400Y01549000D02*
Y01568900D01*
X00160700Y01605700D02*
Y01638000D01*
X01153750Y01724000D02*
X01154750Y01725000D01*
X01414750Y01653750D02*
X01415300Y01653200D01*
X01441400Y01653100D02*
X01441500Y01653000D01*
X01414750Y01653200D02*
X01414850Y01653100D01*
X01441400D01*
X01414750Y01653750D02*
Y01698200D01*
X01415300Y01653200D02*
X01418300D01*
X01414750Y01745500D02*
Y01792800D01*
Y01698200D02*
Y01745500D01*
X01132785Y01882315D02*
X01146185D01*
X01167750Y01860750D02*
X01182500D01*
X01132500Y01882600D02*
X01132785Y01882315D01*
X01146185D02*
X01167750Y01860750D01*
X01166102Y01795602D02*
X01181352D01*
X01151500Y01781000D02*
X01166102Y01795602D01*
X01181352D02*
X01182500Y01796750D01*
X01132500Y01781000D02*
X01151500D01*
X01062750D02*
X01132500D01*
X01163500Y01828000D02*
X01181750D01*
X01182500Y01828750D01*
X01159825Y01831675D02*
X01163500Y01828000D01*
X01132500Y01831675D02*
X01159825D01*
X01063500D02*
X01132500D01*
X01062250Y01882600D02*
X01132500D01*
X00228000Y01748000D02*
X00257000D01*
X00256700Y01722000D02*
Y01747700D01*
X00230000Y01610000D02*
Y01636700D01*
X00134000Y01610000D02*
Y01636700D01*
X00132000Y01748000D02*
X00161000D01*
X00160700Y01722000D02*
Y01747700D01*
D50*
X01048250Y02457000D02*
X01048750D01*
X01013000D02*
X01048250D01*
X00925500Y02162000D02*
X00950500D01*
X00801000Y02266750D02*
X00820750D01*
X00925500Y02162000D01*
X00695750Y01956000D02*
X00737500Y01997750D01*
X00620000Y01956000D02*
X00695750D01*
X01444750Y01792800D02*
X01468500D01*
X01444750Y01745500D02*
X01468500D01*
X01444750Y01698200D02*
X01468500D01*
X01012250Y01600250D02*
X01262750D01*
X00882300Y01730200D02*
X01012250Y01600250D01*
X00798001Y01730200D02*
X00882300D01*
X00558500Y02096250D02*
X00676000Y02213750D01*
X00737500D01*
X00634250Y02096250D02*
Y02150750D01*
X00633750Y02095750D02*
X00634250Y02096250D01*
Y02150750D02*
X00647250Y02163750D01*
X00737500D01*
X01014500Y02171000D02*
X01137158D01*
X00994750Y02190750D02*
X01014500Y02171000D01*
X00768250Y02276500D02*
X00778000Y02266750D01*
X00801000D01*
X00756000Y02276500D02*
X00768250D01*
X00756000Y02232250D02*
Y02276500D01*
X00737500Y02213750D02*
X00756000Y02232250D01*
X00737500Y01997750D02*
Y02163750D01*
X00966760Y02162760D02*
X00994750Y02190750D01*
Y02280250D01*
X00950500Y02162000D02*
X00951260Y02162760D01*
X00966760D01*
X00984618Y02428618D02*
X01013000Y02457000D01*
X00994750Y02280250D02*
Y02346541D01*
X00984618Y02356673D02*
X00994750Y02346541D01*
X00984618Y02356673D02*
Y02428618D01*
X00950500Y01755600D02*
X01001000D01*
X00950500Y01781000D02*
X01001000D01*
X00590000Y01944750D02*
X00601250Y01956000D01*
X00620000D01*
X00590000Y01935000D02*
Y01944750D01*
X01031000Y01831738D02*
X01063438D01*
X01031000Y01755600D02*
X01100000D01*
X01031000Y01781000D02*
X01062750D01*
X01031000Y01806400D02*
X01100000D01*
X00950500D02*
X01001000D01*
X01031000Y01831738D02*
Y01831800D01*
X01063438Y01831738D02*
X01063500Y01831675D01*
X00950500Y01831800D02*
X01001000D01*
X01031000Y01882600D02*
X01062250D01*
X00950500D02*
X01001000D01*
X00950500Y01857200D02*
X01001000D01*
X01031000D02*
X01101000D01*
D51*
X00503000Y02223480D02*
X00543830D01*
X00463500D02*
X00503000D01*
X00422537D02*
X00463500D01*
X00865375Y02477625D02*
X00902250Y02514500D01*
X00881250Y02353750D02*
X00898500Y02336500D01*
X00794250Y02411000D02*
X00824000D01*
X00600925Y02280575D02*
X00617770Y02297420D01*
X00382000Y02223480D02*
X00422537D01*
X00837000Y02449250D02*
X00865375Y02477625D01*
X00852625Y02382375D02*
X00881250Y02353750D01*
X00753250Y02411000D02*
X00794250D01*
X00637510Y02391260D02*
X00657250Y02411000D01*
X00617770Y02316750D02*
Y02371520D01*
X00572550Y02252200D02*
X00600925Y02280575D01*
X00341500Y02223480D02*
X00382000D01*
X01169750Y02499000D02*
X01193250D01*
X01132000Y02459000D02*
Y02499000D01*
X01073750Y02557250D02*
X01102250Y02528750D01*
X01132000Y02499000D01*
X01005500Y02588540D02*
X01042460D01*
X00965000Y02588500D02*
X00978140D01*
X00775000Y01552750D02*
X00939750D01*
X00734750D02*
X00775000D01*
X00345000D02*
X00734750D01*
X00329770Y01567980D02*
X00345000Y01552750D01*
X00329770Y01607000D02*
Y01647641D01*
Y01568028D02*
Y01607000D01*
X00287250Y02561000D02*
X00362250Y02486000D01*
X00287250Y02561000D02*
X00362500Y02636250D01*
X00402000Y02486000D02*
X00463750Y02547750D01*
X00301245Y02223480D02*
X00341500D01*
X00543830D02*
X00572550Y02252200D01*
X00617770Y02297420D02*
Y02316750D01*
Y02371520D02*
X00637510Y02391260D01*
X00713750Y02411000D02*
X00753250D01*
X00824000D02*
X00852625Y02382375D01*
X00824000Y02436250D02*
X00837000Y02449250D01*
X00132500Y02260750D02*
X00188980Y02317230D01*
X00503735D01*
X00523000Y02336495D01*
Y02460000D01*
X00624000Y02561000D01*
X00713750D01*
X00824000D01*
Y02645255D01*
X00842745Y02664000D02*
X01063500D01*
X01153500Y02574000D01*
X00088750Y02411000D02*
X00187250D01*
X00287250D01*
X00386000D01*
X00463750D01*
X00939750Y01552750D02*
X00970500Y01583500D01*
X00324500Y01757750D02*
Y01797250D01*
X00343750Y01816500D01*
X00517500D01*
X00573250Y01872250D02*
Y01918250D01*
X00517500Y01816500D02*
X00573250Y01872250D01*
Y01918250D02*
X00590000Y01935000D01*
X00282500Y02242225D02*
Y02260750D01*
Y02242225D02*
X00301245Y02223480D01*
X00657250Y02411000D02*
X00713750D01*
X00088750Y02573250D02*
X00152500Y02637000D01*
X00088750Y02486000D02*
Y02573250D01*
X01068500Y02397000D02*
X01099500D01*
X01132000Y02429500D01*
Y02459000D01*
Y02499000D02*
X01169750D01*
X01042460Y02588540D02*
X01073750Y02557250D01*
X00978180Y02588540D02*
X01005500D01*
X01153500Y02574000D02*
X01193250D01*
X00824000Y02645255D02*
X00842745Y02664000D01*
X00978140Y02588500D02*
X00978180Y02588540D01*
X00924250Y02588500D02*
X00965000D01*
X00824000Y02411000D02*
Y02436250D01*
X00898500Y02336500D02*
X00926250D01*
X00362250Y02486000D02*
X00402000D01*
X00463750Y02547750D02*
Y02561000D01*
X00362500Y02636250D02*
Y02637000D01*
D52*
X01031500Y01856000D02*
X01031750Y01856250D01*
D53*
X00925750Y02336500D02*
D03*
X00926750Y02457000D02*
D03*
X01048000Y02337000D02*
D03*
X01068000Y02397000D02*
D03*
X01048250Y02457000D02*
D03*
X00737500Y02213750D02*
D03*
Y02163750D02*
D03*
Y02188750D02*
D03*
X01706000Y02138000D02*
D03*
X01481000D02*
D03*
X00287250Y02411000D02*
D03*
Y02561000D02*
D03*
X00402000Y02486000D02*
D03*
X00386000Y02411000D02*
D03*
X00675000Y01981000D02*
D03*
Y01956000D02*
D03*
Y01931000D02*
D03*
X00146000Y01549000D02*
D03*
X00247600D02*
D03*
X00171400D02*
D03*
X00196800D02*
D03*
X00222200D02*
D03*
X00824000Y02561000D02*
D03*
Y02411000D02*
D03*
D54*
X00886250Y02055250D02*
D03*
X00837000D02*
D03*
X00861500D02*
D03*
X01042750Y02217500D02*
D03*
Y02193000D02*
D03*
Y02242250D02*
D03*
X00886250Y01924000D02*
D03*
X00837000D02*
D03*
X00861500D02*
D03*
X00886250Y01989250D02*
D03*
X00837000D02*
D03*
X00861500D02*
D03*
X00187250Y02411000D02*
D03*
Y02561000D02*
D03*
X00734300Y01753900D02*
D03*
X00708900D02*
D03*
X00683500D02*
D03*
X00658100D02*
D03*
X00632700D02*
D03*
X00734300Y01601500D02*
D03*
X00708900D02*
D03*
X00683500D02*
D03*
X00658100D02*
D03*
X00523100D02*
D03*
X00548500D02*
D03*
X00573900D02*
D03*
X00599300D02*
D03*
X00497700Y01753900D02*
D03*
X00523100D02*
D03*
X00548500D02*
D03*
X00573900D02*
D03*
X00599300D02*
D03*
X00388100Y01601500D02*
D03*
X00413500D02*
D03*
X00438900D02*
D03*
X00464300D02*
D03*
X00362700Y01753900D02*
D03*
X00388100D02*
D03*
X00413500D02*
D03*
X00438900D02*
D03*
X00464300D02*
D03*
X00182500Y01927500D02*
D03*
X00532000Y02016000D02*
D03*
D55*
X01193250Y02574000D02*
D03*
Y02399000D02*
D03*
Y02649000D02*
D03*
Y02499000D02*
D03*
D56*
X00386250Y01932000D02*
D03*
X00286250D02*
D03*
X00416000Y01932004D02*
D03*
X00516000D02*
D03*
X00386250Y01883250D02*
D03*
X00286250D02*
D03*
X00416000Y01883246D02*
D03*
X00516000D02*
D03*
X01094750Y02280250D02*
D03*
X00994750D02*
D03*
X00127500Y01892500D02*
D03*
X00027500D02*
D03*
D57*
X00736000Y02276500D02*
D03*
X01087500Y01697750D02*
D03*
X01186750Y02067750D02*
D03*
X01132250Y01979000D02*
D03*
X01269750Y01919250D02*
D03*
X00682748Y01839752D02*
D03*
X00655750Y01851000D02*
D03*
X01053500Y01641500D02*
D03*
D58*
X00756000Y02276500D02*
D03*
X01206750Y02067750D02*
D03*
D59*
X00798000Y01958950D02*
D03*
Y01933550D02*
D03*
Y01908150D02*
D03*
Y01882750D02*
D03*
Y01857350D02*
D03*
Y01831950D02*
D03*
Y01806550D02*
D03*
Y01781150D02*
D03*
Y01755750D02*
D03*
Y01984350D02*
D03*
Y02009750D02*
D03*
Y02035150D02*
D03*
Y02060550D02*
D03*
Y02085950D02*
D03*
Y02111350D02*
D03*
Y02136750D02*
D03*
Y02162150D02*
D03*
Y02187550D02*
D03*
Y02212950D02*
D03*
X00950500Y02212800D02*
D03*
Y02187400D02*
D03*
Y02162000D02*
D03*
Y02136600D02*
D03*
Y02111200D02*
D03*
Y02085800D02*
D03*
Y02060400D02*
D03*
Y02035000D02*
D03*
Y02009600D02*
D03*
Y01984200D02*
D03*
Y01755600D02*
D03*
Y01781000D02*
D03*
Y01806400D02*
D03*
Y01831800D02*
D03*
Y01857200D02*
D03*
Y01882600D02*
D03*
Y01908000D02*
D03*
Y01933400D02*
D03*
Y01958800D02*
D03*
D60*
X00798000Y01730350D02*
D03*
X00950500Y01730200D02*
D03*
D61*
X01414750Y01576750D02*
D03*
X01282500D02*
D03*
X01282250Y01628750D02*
D03*
X01100000Y01755600D02*
D03*
X01101000Y01857200D02*
D03*
X00463750Y02561000D02*
D03*
X00713750Y02411000D02*
D03*
Y02561000D02*
D03*
X00463750Y02411000D02*
D03*
X00182500Y02010750D02*
D03*
X00132500D02*
D03*
X00232500D02*
D03*
X00282500D02*
D03*
X00132500Y02260750D02*
D03*
X00282500D02*
D03*
X00902250Y02514500D02*
D03*
X00924250Y02588500D02*
D03*
X00633750Y02095750D02*
D03*
X01063500Y01831675D02*
D03*
X01062750Y01781000D02*
D03*
X01062250Y01882600D02*
D03*
X01100000Y01806400D02*
D03*
X00558500Y02096250D02*
D03*
X01521000Y01887400D02*
D03*
Y01840100D02*
D03*
Y01934575D02*
D03*
X01095500Y01652250D02*
D03*
X01509500Y01598750D02*
D03*
X01591000Y01644750D02*
D03*
D62*
X01087500Y01717750D02*
D03*
X01132250Y01959000D02*
D03*
X01269750Y01899250D02*
D03*
D63*
X01379250Y02346750D02*
D03*
X01484250Y02371750D02*
D03*
D64*
X00632700Y01601500D02*
D03*
X00497700D02*
D03*
X00362700D02*
D03*
D65*
X00120600Y01549000D02*
D03*
D66*
X00182500Y01892500D02*
D03*
X00532000Y01981000D02*
D03*
D67*
X01643500Y01813000D02*
D03*
Y01888000D02*
D03*
Y01963000D02*
D03*
X00088750Y02411000D02*
D03*
Y02486000D02*
D03*
D68*
X00362500Y02637000D02*
D03*
X00152500D02*
D03*
D69*
X01696250Y01566750D02*
D03*
X00046250Y01564750D02*
D03*
X01698250Y02663750D02*
D03*
X00047250Y02662750D02*
D03*
D70*
X01500000Y01650000D02*
D03*
Y01550000D02*
D03*
X01475000Y01600000D02*
D03*
X01450000Y01550000D02*
D03*
X01400000Y01650000D02*
D03*
X01425000Y01600000D02*
D03*
X01375000D02*
D03*
X01300000Y01750000D02*
D03*
Y01550000D02*
D03*
X01250000Y01750000D02*
D03*
X01275000Y01700000D02*
D03*
X01250000Y01650000D02*
D03*
Y01550000D02*
D03*
X01225000Y02200000D02*
D03*
X01200000Y02150000D02*
D03*
X01225000Y01800000D02*
D03*
Y01700000D02*
D03*
X01200000Y01650000D02*
D03*
Y01550000D02*
D03*
X01150000Y02250000D02*
D03*
X01175000Y02200000D02*
D03*
X01150000Y02150000D02*
D03*
X01175000Y01700000D02*
D03*
X01150000Y01550000D02*
D03*
X01100000Y02250000D02*
D03*
X01125000Y02200000D02*
D03*
X01100000Y02150000D02*
D03*
X01125000Y01900000D02*
D03*
Y01700000D02*
D03*
X01100000Y01550000D02*
D03*
X01075000Y02200000D02*
D03*
X01050000Y02150000D02*
D03*
X01075000Y02100000D02*
D03*
X01050000Y02050000D02*
D03*
X01075000Y01900000D02*
D03*
X01050000Y01550000D02*
D03*
X01025000Y02200000D02*
D03*
Y02100000D02*
D03*
X01000000Y02050000D02*
D03*
X01025000Y02000000D02*
D03*
X01000000Y01950000D02*
D03*
X01025000Y01900000D02*
D03*
X01000000Y01550000D02*
D03*
X00950000Y02250000D02*
D03*
X00975000Y02200000D02*
D03*
Y02100000D02*
D03*
Y02000000D02*
D03*
Y01900000D02*
D03*
Y01700000D02*
D03*
X00900000Y02250000D02*
D03*
X00925000Y02200000D02*
D03*
X00900000Y02150000D02*
D03*
X00925000Y02100000D02*
D03*
Y01600000D02*
D03*
X00850000Y02150000D02*
D03*
X00875000Y02100000D02*
D03*
Y02000000D02*
D03*
X00850000Y01950000D02*
D03*
X00875000Y01900000D02*
D03*
X00850000Y01850000D02*
D03*
X00875000Y01800000D02*
D03*
X00850000Y01750000D02*
D03*
Y01650000D02*
D03*
X00800000Y02250000D02*
D03*
X00825000Y02200000D02*
D03*
Y02100000D02*
D03*
Y01900000D02*
D03*
Y01800000D02*
D03*
Y01700000D02*
D03*
X00800000Y01650000D02*
D03*
X00775000Y02200000D02*
D03*
X00750000Y02150000D02*
D03*
X00775000Y02100000D02*
D03*
X00750000Y02050000D02*
D03*
X00775000Y02000000D02*
D03*
X00750000Y01950000D02*
D03*
Y01650000D02*
D03*
X00775000Y01600000D02*
D03*
X00700000Y02250000D02*
D03*
X00725000Y02200000D02*
D03*
X00700000Y02150000D02*
D03*
X00725000Y02100000D02*
D03*
X00700000Y02050000D02*
D03*
Y01650000D02*
D03*
X00650000Y02150000D02*
D03*
X00675000Y02100000D02*
D03*
X00650000Y02050000D02*
D03*
X00675000Y02000000D02*
D03*
Y01800000D02*
D03*
X00650000Y01650000D02*
D03*
X00600000Y02050000D02*
D03*
X00625000Y02000000D02*
D03*
Y01900000D02*
D03*
X00600000Y01850000D02*
D03*
Y01650000D02*
D03*
X00550000Y02050000D02*
D03*
X00575000Y02000000D02*
D03*
X00550000Y01950000D02*
D03*
X00575000Y01800000D02*
D03*
X00550000Y01650000D02*
D03*
X00500000Y01850000D02*
D03*
Y01650000D02*
D03*
X00450000Y01850000D02*
D03*
Y01650000D02*
D03*
X00400000Y01850000D02*
D03*
Y01650000D02*
D03*
X00350000Y01850000D02*
D03*
X00300000D02*
D03*
X00125000Y01800000D02*
D03*
X00329770Y01607000D02*
D03*
X00366250Y01552500D02*
D03*
X00408000Y01553000D02*
D03*
X00447250D02*
D03*
X00485500D02*
D03*
X00527000Y01553500D02*
D03*
X00566000D02*
D03*
X00605750Y01553000D02*
D03*
X00645250D02*
D03*
X00687500D02*
D03*
X00734750Y01552750D02*
D03*
X00775000D02*
D03*
X00815500Y01552500D02*
D03*
X00855500Y01552250D02*
D03*
X00895750D02*
D03*
X00939750Y01552750D02*
D03*
X01577340Y01684592D02*
D03*
Y01698498D02*
D03*
Y01711896D02*
D03*
Y01759648D02*
D03*
Y01746250D02*
D03*
Y01732344D02*
D03*
Y01779334D02*
D03*
Y01793240D02*
D03*
Y01806638D02*
D03*
X01680000Y01720000D02*
D03*
X01700000Y01680000D02*
D03*
X01680000Y01640000D02*
D03*
X01640000Y01720000D02*
D03*
X01660000Y01680000D02*
D03*
X01600000Y01720000D02*
D03*
X01620000Y01680000D02*
D03*
X00296250Y01731750D02*
D03*
X00329770Y01647641D02*
D03*
Y01566250D02*
D03*
X01497750Y01988750D02*
D03*
X01514250Y02025500D02*
D03*
X01503250Y02064250D02*
D03*
X01481250Y02097500D02*
D03*
X01615318Y01840100D02*
D03*
X01582250Y01840000D02*
D03*
X01554000D02*
D03*
X01489250Y01839500D02*
D03*
X01613750Y01886750D02*
D03*
X01582250Y01887700D02*
D03*
X01553750Y01887250D02*
D03*
X01489750Y01886750D02*
D03*
X01613993Y01934575D02*
D03*
X01583250Y01933500D02*
D03*
X01553250Y01933750D02*
D03*
X01491250Y01934750D02*
D03*
X01706000Y01736250D02*
D03*
X01706250Y01776500D02*
D03*
X01706000Y01816750D02*
D03*
Y01857750D02*
D03*
Y01898500D02*
D03*
Y01938500D02*
D03*
Y01978250D02*
D03*
Y02018000D02*
D03*
Y02098250D02*
D03*
Y02057750D02*
D03*
X01672500Y02183250D02*
D03*
X01643750Y02212000D02*
D03*
X01614750Y02240750D02*
D03*
X01233750Y02399000D02*
D03*
X01462750Y02199250D02*
D03*
X01434250Y02226750D02*
D03*
X01311750Y02398750D02*
D03*
X01344750Y02381500D02*
D03*
X01585750Y02269000D02*
D03*
X01557750Y02297250D02*
D03*
X01529250Y02326250D02*
D03*
X01407000Y02256000D02*
D03*
X01380500Y02285500D02*
D03*
X01273250Y02398750D02*
D03*
X01466750Y02426750D02*
D03*
X01438750Y02456000D02*
D03*
X01410500Y02484500D02*
D03*
X01382000Y02512500D02*
D03*
X01353500Y02540750D02*
D03*
X01324750Y02568250D02*
D03*
X01296250Y02596750D02*
D03*
X01267250Y02625500D02*
D03*
X01234250Y02649000D02*
D03*
X01122500Y02420000D02*
D03*
X01090250Y02395500D02*
D03*
X01132000Y02459000D02*
D03*
X01169750Y02499000D02*
D03*
X01132000Y02499000D02*
D03*
X01102250Y02528750D02*
D03*
X01073750Y02557250D02*
D03*
X01045750Y02585500D02*
D03*
X01005500Y02588500D02*
D03*
X00965000D02*
D03*
X01145000Y02581500D02*
D03*
X01116500Y02610250D02*
D03*
X01088500Y02639000D02*
D03*
X01057500Y02664750D02*
D03*
X01017000D02*
D03*
X00977000D02*
D03*
X00936500D02*
D03*
X00856750Y02664250D02*
D03*
X00896500Y02664750D02*
D03*
X00824000Y02641000D02*
D03*
Y02600750D02*
D03*
X00454750Y02540750D02*
D03*
X00430500Y02514250D02*
D03*
X00377750Y02485250D02*
D03*
X00343000Y02503500D02*
D03*
X00315250Y02532250D02*
D03*
X00315750Y02589250D02*
D03*
X00342750Y02617250D02*
D03*
X00113250Y02599000D02*
D03*
X00088750Y02567250D02*
D03*
Y02526500D02*
D03*
X00427000Y02411000D02*
D03*
X00367250D02*
D03*
X00327000D02*
D03*
X00227000D02*
D03*
X00266250D02*
D03*
X00169000D02*
D03*
X00129000D02*
D03*
X00795000Y02560750D02*
D03*
X00754500D02*
D03*
X00676000Y02562000D02*
D03*
X00635750D02*
D03*
X00602500Y02539000D02*
D03*
X00573500Y02510500D02*
D03*
X00543250Y02481750D02*
D03*
X00523000Y02446750D02*
D03*
Y02406750D02*
D03*
Y02366000D02*
D03*
X00513367Y02326863D02*
D03*
X00474250Y02317750D02*
D03*
X00232500D02*
D03*
X00272755D02*
D03*
X00313255D02*
D03*
X00353792D02*
D03*
X00394755D02*
D03*
X00434255D02*
D03*
X00192250D02*
D03*
X00162750Y02290750D02*
D03*
X00881000Y02353500D02*
D03*
X00852000Y02381750D02*
D03*
X00865750Y02477250D02*
D03*
X00836750Y02449500D02*
D03*
X00794250Y02411500D02*
D03*
X00753250Y02411000D02*
D03*
X00673000D02*
D03*
X00637510Y02391260D02*
D03*
X00618250Y02357000D02*
D03*
Y02316750D02*
D03*
X00601000Y02280500D02*
D03*
X00572750Y02252000D02*
D03*
X00543830Y02223480D02*
D03*
X00503000D02*
D03*
X00463500D02*
D03*
X00422537D02*
D03*
X00382000D02*
D03*
X00341500D02*
D03*
X00301245D02*
D03*
X00572250Y01907250D02*
D03*
X00570500Y01871750D02*
D03*
X00548500Y01847000D02*
D03*
X00522500Y01821750D02*
D03*
X00482000Y01816500D02*
D03*
X00441750Y01816250D02*
D03*
X00399500D02*
D03*
X00358500D02*
D03*
X00324500Y01797250D02*
D03*
X00590000Y01935000D02*
D03*
X01409250Y01547500D02*
D03*
X01262750Y01600250D02*
D03*
X00548500Y01718250D02*
D03*
X00413750Y01715500D02*
D03*
X00784000Y01699000D02*
D03*
X00795500Y01602250D02*
D03*
X00187500Y01660000D02*
D03*
X00201250Y01704040D02*
D03*
X00278250Y01761750D02*
D03*
X00324500Y01757750D02*
D03*
X00970500Y01583500D02*
D03*
M02*
