G04*
G04 #@! TF.GenerationSoftware,Altium Limited,Altium Designer,21.2.0 (30)*
G04*
G04 Layer_Color=65535*
%FSAX44Y44*%
%MOMM*%
G71*
G04*
G04 #@! TF.SameCoordinates,F656A266-89EA-4B56-B237-F6EBBDAECB67*
G04*
G04*
G04 #@! TF.FilePolarity,Positive*
G04*
G01*
G75*
%ADD10C,0.2000*%
%ADD11C,0.2500*%
%ADD12C,0.5000*%
%ADD13C,0.2540*%
%ADD14C,0.1524*%
%ADD15C,0.5000*%
%ADD16C,0.1000*%
%ADD17C,0.1778*%
G36*
X00443216Y01927814D02*
X00436900D01*
Y01936321D01*
X00443216D01*
Y01927814D01*
D02*
G37*
G36*
X00317360Y01927689D02*
X00311001D01*
Y01936190D01*
X00317360D01*
Y01927689D01*
D02*
G37*
G36*
X00365350Y01927683D02*
X00359034D01*
Y01936190D01*
X00365350D01*
Y01927683D01*
D02*
G37*
G36*
X00326750Y01922423D02*
X00321641D01*
Y01941140D01*
X00326750D01*
Y01922423D01*
D02*
G37*
G36*
X00186750Y01949750D02*
X00193750Y01948500D01*
X00201000Y01945500D01*
X00206500Y01942000D01*
X00212000Y01937000D01*
X00216250Y01931250D01*
X00220500Y01922250D01*
X00222500Y01915000D01*
X00142500D01*
X00144500Y01923000D01*
X00148000Y01930500D01*
X00152500Y01936250D01*
X00157500Y01941250D01*
X00164750Y01945750D01*
X00171500Y01948500D01*
X00179250Y01950000D01*
X00186750Y01949750D01*
D02*
G37*
G36*
X00102749Y01888310D02*
X00096390D01*
Y01896811D01*
X00102749D01*
Y01888310D01*
D02*
G37*
G36*
X00054716D02*
X00048400D01*
Y01896817D01*
X00054716D01*
Y01888310D01*
D02*
G37*
G36*
X00092109Y01883360D02*
X00087000D01*
Y01902077D01*
X00092109D01*
Y01883360D01*
D02*
G37*
G36*
X00361499Y01879060D02*
X00355140D01*
Y01887561D01*
X00361499D01*
Y01879060D01*
D02*
G37*
G36*
X00313466D02*
X00307150D01*
Y01887567D01*
X00313466D01*
Y01879060D01*
D02*
G37*
G36*
X00447110Y01878935D02*
X00440751D01*
Y01887436D01*
X00447110D01*
Y01878935D01*
D02*
G37*
G36*
X00350859Y01874110D02*
X00345750D01*
Y01892827D01*
X00350859D01*
Y01874110D01*
D02*
G37*
G36*
X00456500Y01873669D02*
X00451391D01*
Y01892386D01*
X00456500D01*
Y01873669D01*
D02*
G37*
G36*
X00229200Y01654000D02*
X00222000Y01654000D01*
X00222000Y01661200D01*
X00229200Y01654000D01*
D02*
G37*
G36*
X00133200D02*
X00126000Y01654000D01*
X00126000Y01661200D01*
X00133200Y01654000D01*
D02*
G37*
G36*
X00536250Y02038250D02*
X00543250Y02037000D01*
X00550500Y02034000D01*
X00556000Y02030500D01*
X00561500Y02025500D01*
X00565750Y02019750D01*
X00570000Y02010750D01*
X00572000Y02003500D01*
X00492000D01*
X00494000Y02011500D01*
X00497500Y02019000D01*
X00502000Y02024750D01*
X00507000Y02029750D01*
X00514250Y02034250D01*
X00521000Y02037000D01*
X00528750Y02038500D01*
X00536250Y02038250D01*
D02*
G37*
G36*
X00491249Y01927814D02*
X00484890D01*
Y01936315D01*
X00491249D01*
Y01927814D01*
D02*
G37*
G36*
X00480609Y01922864D02*
X00475500D01*
Y01941581D01*
X00480609D01*
Y01922864D01*
D02*
G37*
G36*
X00495100Y01878929D02*
X00488784D01*
Y01887436D01*
X00495100D01*
Y01878929D01*
D02*
G37*
G36*
X00582251Y02316813D02*
X00583000D01*
Y02316626D01*
X00583562D01*
Y02316438D01*
X00583937D01*
Y02316251D01*
X00584124D01*
Y02316064D01*
X00584498D01*
Y02315876D01*
X00584686D01*
Y02315689D01*
X00585060D01*
Y02315315D01*
X00585435D01*
Y02315127D01*
X00585622D01*
Y02314940D01*
X00585809D01*
Y02314566D01*
X00586184D01*
Y02314191D01*
X00586371D01*
Y02314004D01*
X00586558D01*
Y02313629D01*
X00586746D01*
Y02313442D01*
X00586933D01*
Y02313067D01*
X00587120D01*
Y02312880D01*
X00587308D01*
Y02312505D01*
X00587495D01*
Y02312318D01*
X00587682D01*
Y02311944D01*
X00587869D01*
Y02311569D01*
X00588057D01*
Y02311195D01*
X00588244D01*
Y02311007D01*
X00588431D01*
Y02310446D01*
X00588619D01*
Y02310071D01*
X00588806D01*
Y02309696D01*
X00588993D01*
Y02309509D01*
X00589180D01*
Y02309135D01*
X00589368D01*
Y02308760D01*
X00589555D01*
Y02308385D01*
X00589742D01*
Y02308198D01*
X00589929D01*
Y02307824D01*
X00590117D01*
Y02307636D01*
X00590304D01*
Y02307262D01*
X00590491D01*
Y02306887D01*
X00590678D01*
Y02306513D01*
X00590866D01*
Y02306138D01*
X00591053D01*
Y02305764D01*
X00591240D01*
Y02305576D01*
X00591428D01*
Y02305014D01*
X00591615D01*
Y02304827D01*
X00591802D01*
Y02304453D01*
X00591989D01*
Y02304265D01*
X00592177D01*
Y02303891D01*
X00592364D01*
Y02303704D01*
X00592551D01*
Y02303142D01*
X00592738D01*
Y02302955D01*
X00592926D01*
Y02302580D01*
X00593113D01*
Y02302393D01*
X00593300D01*
Y02301831D01*
X00593488D01*
Y02301456D01*
X00593675D01*
Y02301082D01*
X00593862D01*
Y02300894D01*
X00594049D01*
Y02300520D01*
X00594237D01*
Y02300333D01*
X00594424D01*
Y02299771D01*
X00594611D01*
Y02299583D01*
X00594799D01*
Y02299209D01*
X00594986D01*
Y02299022D01*
X00595173D01*
Y02298647D01*
X00595360D01*
Y02298460D01*
X00595548D01*
Y02297898D01*
X00595735D01*
Y02297523D01*
X00595922D01*
Y02297149D01*
X00596110D01*
Y02296962D01*
X00596297D01*
Y02296774D01*
X00596484D01*
Y02296400D01*
X00596671D01*
Y02295838D01*
X00596859D01*
Y02295651D01*
X00597046D01*
Y02295276D01*
X00597233D01*
Y02295089D01*
X00597420D01*
Y02294714D01*
X00597608D01*
Y02294527D01*
X00597795D01*
Y02293965D01*
X00597982D01*
Y02293778D01*
X00598170D01*
Y02293403D01*
X00598357D01*
Y02293029D01*
X00598544D01*
Y02292654D01*
X00598731D01*
Y02292280D01*
X00598919D01*
Y02292092D01*
X00599106D01*
Y02291718D01*
X00599293D01*
Y02291343D01*
X00599480D01*
Y02291156D01*
X00599668D01*
Y02290782D01*
X00599855D01*
Y02290407D01*
X00600042D01*
Y02290033D01*
X00600229D01*
Y02289845D01*
X00600417D01*
Y02289471D01*
X00600604D01*
Y02289096D01*
X00600791D01*
Y02288722D01*
X00600979D01*
Y02288534D01*
X00601166D01*
Y02287973D01*
X00601353D01*
Y02287785D01*
X00601540D01*
Y02287411D01*
X00601728D01*
Y02287223D01*
X00601915D01*
Y02286849D01*
X00602102D01*
Y02286662D01*
X00602290D01*
Y02286287D01*
X00602477D01*
Y02285912D01*
X00602664D01*
Y02285538D01*
X00602851D01*
Y02285351D01*
X00603039D01*
Y02284976D01*
X00603226D01*
Y02284601D01*
X00603413D01*
Y02284227D01*
X00603601D01*
Y02283852D01*
X00603788D01*
Y02283478D01*
X00603975D01*
Y02283291D01*
X00604162D01*
Y02282916D01*
X00604350D01*
Y02282729D01*
X00604537D01*
Y02282354D01*
X00604724D01*
Y02281980D01*
X00604911D01*
Y02281605D01*
X00605099D01*
Y02281418D01*
X00605286D01*
Y02281043D01*
X00605473D01*
Y02280669D01*
X00605661D01*
Y02280294D01*
X00605848D01*
Y02280107D01*
X00606035D01*
Y02279732D01*
X00606222D01*
Y02279545D01*
X00606410D01*
Y02278983D01*
X00606597D01*
Y02278609D01*
X00606784D01*
Y02278234D01*
X00606972D01*
Y02278047D01*
X00607159D01*
Y02277672D01*
X00607346D01*
Y02277485D01*
X00607533D01*
Y02277110D01*
X00607721D01*
Y02276736D01*
X00607908D01*
Y02276361D01*
X00608095D01*
Y02276174D01*
X00608282D01*
Y02275800D01*
X00608470D01*
Y02275612D01*
X00608657D01*
Y02275051D01*
X00608844D01*
Y02274863D01*
X00609031D01*
Y02274301D01*
X00609219D01*
Y02274114D01*
X00609406D01*
Y02273739D01*
X00609593D01*
Y02273552D01*
X00609781D01*
Y02273178D01*
X00609968D01*
Y02272990D01*
X00610155D01*
Y02272429D01*
X00610342D01*
Y02272241D01*
X00610530D01*
Y02271867D01*
X00610717D01*
Y02271680D01*
X00610904D01*
Y02271118D01*
X00611091D01*
Y02270930D01*
X00611279D01*
Y02270556D01*
X00611466D01*
Y02270369D01*
X00611653D01*
Y02269994D01*
X00611841D01*
Y02269807D01*
X00612028D01*
Y02269245D01*
X00612215D01*
Y02269058D01*
X00612402D01*
Y02268683D01*
X00612590D01*
Y02268496D01*
X00612777D01*
Y02267934D01*
X00612964D01*
Y02267747D01*
X00613152D01*
Y02267372D01*
X00613339D01*
Y02267185D01*
X00613526D01*
Y02266623D01*
X00613713D01*
Y02266436D01*
X00613901D01*
Y02266061D01*
X00614088D01*
Y02265687D01*
X00614275D01*
Y02265312D01*
X00614462D01*
Y02265125D01*
X00614650D01*
Y02264750D01*
X00614837D01*
Y02264563D01*
X00615024D01*
Y02264001D01*
X00615212D01*
Y02263814D01*
X00615399D01*
Y02263627D01*
X00615586D01*
Y02263252D01*
X00615773D01*
Y02262878D01*
X00615961D01*
Y02262503D01*
X00616148D01*
Y02262128D01*
X00616335D01*
Y02261941D01*
X00616522D01*
Y02261567D01*
X00616710D01*
Y02261379D01*
X00616897D01*
Y02261005D01*
X00617084D01*
Y02260630D01*
X00617272D01*
Y02260256D01*
X00617459D01*
Y02259881D01*
X00617646D01*
Y02259507D01*
X00617833D01*
Y02259319D01*
X00618021D01*
Y02258945D01*
X00618208D01*
Y02258570D01*
X00618395D01*
Y02258196D01*
X00618582D01*
Y02258008D01*
X00618770D01*
Y02257634D01*
X00618957D01*
Y02257259D01*
X00619144D01*
Y02257072D01*
X00619332D01*
Y02256698D01*
X00619519D01*
Y02256323D01*
X00619706D01*
Y02255948D01*
X00619893D01*
Y02255761D01*
X00620081D01*
Y02255387D01*
X00620268D01*
Y02255012D01*
X00620455D01*
Y02254825D01*
X00620643D01*
Y02254450D01*
X00620830D01*
Y02254263D01*
X00621017D01*
Y02253701D01*
X00621204D01*
Y02253514D01*
X00621392D01*
Y02252952D01*
X00621579D01*
Y02252765D01*
X00621766D01*
Y02252390D01*
X00621954D01*
Y02252203D01*
X00622141D01*
Y02251828D01*
X00622328D01*
Y02251641D01*
X00622515D01*
Y02251266D01*
X00622703D01*
Y02250892D01*
X00622890D01*
Y02250517D01*
X00623077D01*
Y02250330D01*
X00623264D01*
Y02249955D01*
X00623452D01*
Y02249768D01*
X00623639D01*
Y02249206D01*
X00623826D01*
Y02249019D01*
X00624013D01*
Y02248645D01*
X00624201D01*
Y02248270D01*
X00624388D01*
Y02248083D01*
X00624575D01*
Y02247896D01*
X00624763D01*
Y02247334D01*
X00624950D01*
Y02247146D01*
X00625137D01*
Y02246772D01*
X00625324D01*
Y02246397D01*
X00625512D01*
Y02246023D01*
X00625699D01*
Y02245648D01*
X00625886D01*
Y02245274D01*
X00626073D01*
Y02245086D01*
X00626261D01*
Y02244899D01*
X00626448D01*
Y02244525D01*
X00626635D01*
Y02244150D01*
X00626823D01*
Y02243775D01*
X00627010D01*
Y02243401D01*
X00627197D01*
Y02243214D01*
X00627384D01*
Y02242652D01*
X00627572D01*
Y02242464D01*
X00627759D01*
Y02242090D01*
X00627946D01*
Y02241715D01*
X00628134D01*
Y02241341D01*
X00628321D01*
Y02240966D01*
X00628508D01*
Y02240592D01*
X00628695D01*
Y02240405D01*
X00628883D01*
Y02240030D01*
X00629070D01*
Y02239843D01*
X00629257D01*
Y02239468D01*
X00629445D01*
Y02239094D01*
X00629632D01*
Y02238719D01*
X00629819D01*
Y02238532D01*
X00630006D01*
Y02238157D01*
X00630194D01*
Y02237783D01*
X00630381D01*
Y02237408D01*
X00630568D01*
Y02237034D01*
X00630755D01*
Y02236659D01*
X00630943D01*
Y02236472D01*
X00631130D01*
Y02236097D01*
X00631317D01*
Y02235723D01*
X00631505D01*
Y02235348D01*
X00631692D01*
Y02235161D01*
X00631879D01*
Y02234599D01*
X00632066D01*
Y02234412D01*
X00632254D01*
Y02234037D01*
X00632441D01*
Y02233850D01*
X00632628D01*
Y02233475D01*
X00632815D01*
Y02233101D01*
X00633003D01*
Y02232726D01*
X00633190D01*
Y02232352D01*
X00633377D01*
Y02231977D01*
X00633564D01*
Y02231790D01*
X00633752D01*
Y02231415D01*
X00633939D01*
Y02231228D01*
X00634126D01*
Y02230666D01*
X00634314D01*
Y02230479D01*
X00634501D01*
Y02230104D01*
X00634688D01*
Y02229917D01*
X00634875D01*
Y02229355D01*
X00635063D01*
Y02229168D01*
X00635250D01*
Y02228793D01*
X00635437D01*
Y02228419D01*
X00635625D01*
Y02228232D01*
X00635812D01*
Y02227857D01*
X00635999D01*
Y02227482D01*
X00636186D01*
Y02227108D01*
X00636374D01*
Y02226733D01*
X00636561D01*
Y02226546D01*
X00636748D01*
Y02226172D01*
X00636936D01*
Y02225797D01*
X00637123D01*
Y02225423D01*
X00637310D01*
Y02225235D01*
X00637497D01*
Y02224861D01*
X00637685D01*
Y02224673D01*
X00637872D01*
Y02224299D01*
X00638059D01*
Y02223737D01*
X00638246D01*
Y02223550D01*
X00638434D01*
Y02223362D01*
X00638621D01*
Y02222988D01*
X00638808D01*
Y02222613D01*
X00638996D01*
Y02222239D01*
X00639183D01*
Y02221864D01*
X00639370D01*
Y02221490D01*
X00639557D01*
Y02221302D01*
X00639745D01*
Y02220928D01*
X00639932D01*
Y02220741D01*
X00640119D01*
Y02220179D01*
X00640306D01*
Y02219991D01*
X00640494D01*
Y02219617D01*
X00640681D01*
Y02219242D01*
X00640868D01*
Y02218868D01*
X00641056D01*
Y02218681D01*
X00641243D01*
Y02218306D01*
X00641430D01*
Y02218119D01*
X00641617D01*
Y02217744D01*
X00641805D01*
Y02217370D01*
X00641992D01*
Y02216995D01*
X00642179D01*
Y02216620D01*
X00642366D01*
Y02216246D01*
X00642554D01*
Y02216059D01*
X00642741D01*
Y02215684D01*
X00642928D01*
Y02215497D01*
X00643116D01*
Y02215122D01*
X00643303D01*
Y02214748D01*
X00643490D01*
Y02214373D01*
X00643677D01*
Y02214186D01*
X00643865D01*
Y02213624D01*
X00644052D01*
Y02213437D01*
X00644239D01*
Y02213062D01*
X00644426D01*
Y02212875D01*
X00644614D01*
Y02212500D01*
X00644801D01*
Y02212126D01*
X00644988D01*
Y02211751D01*
X00645176D01*
Y02211377D01*
X00645363D01*
Y02211190D01*
X00645550D01*
Y02211002D01*
X00645737D01*
Y02210628D01*
X00645925D01*
Y02210253D01*
X00646112D01*
Y02209691D01*
X00646299D01*
Y02209504D01*
X00646487D01*
Y02209129D01*
X00646674D01*
Y02208755D01*
X00646861D01*
Y02208568D01*
X00647048D01*
Y02208380D01*
X00647236D01*
Y02207819D01*
X00647423D01*
Y02207631D01*
X00647610D01*
Y02207070D01*
X00647797D01*
Y02206882D01*
X00647985D01*
Y02206508D01*
X00648172D01*
Y02206133D01*
X00648359D01*
Y02205759D01*
X00648547D01*
Y02205571D01*
X00648734D01*
Y02205197D01*
X00648921D01*
Y02205009D01*
X00649108D01*
Y02204448D01*
X00649296D01*
Y02204260D01*
X00649483D01*
Y02203886D01*
X00649670D01*
Y02203698D01*
X00649857D01*
Y02203137D01*
X00650045D01*
Y02202949D01*
X00650232D01*
Y02202575D01*
X00650419D01*
Y02202388D01*
X00650607D01*
Y02202013D01*
X00650794D01*
Y02201826D01*
X00650981D01*
Y02201264D01*
X00651168D01*
Y02201077D01*
X00651356D01*
Y02200702D01*
X00651543D01*
Y02200515D01*
X00651730D01*
Y02200140D01*
X00651917D01*
Y02199766D01*
X00652105D01*
Y02199391D01*
X00652292D01*
Y02199017D01*
X00652479D01*
Y02198642D01*
X00652667D01*
Y02198268D01*
X00652854D01*
Y02197893D01*
X00653041D01*
Y02197706D01*
X00653229D01*
Y02197331D01*
X00653416D01*
Y02197144D01*
X00653603D01*
Y02196769D01*
X00653790D01*
Y02196582D01*
X00653978D01*
Y02196020D01*
X00654165D01*
Y02195833D01*
X00654352D01*
Y02195458D01*
X00654539D01*
Y02195084D01*
X00654727D01*
Y02194709D01*
X00654914D01*
Y02194522D01*
X00655101D01*
Y02194147D01*
X00655288D01*
Y02193773D01*
X00655476D01*
Y02193398D01*
X00655663D01*
Y02193211D01*
X00655850D01*
Y02192837D01*
X00656038D01*
Y02192462D01*
X00656225D01*
Y02192088D01*
X00656412D01*
Y02191900D01*
X00656599D01*
Y02191526D01*
X00656787D01*
Y02191338D01*
X00656974D01*
Y02190777D01*
X00657161D01*
Y02190589D01*
X00657348D01*
Y02190215D01*
X00657536D01*
Y02189840D01*
X00657723D01*
Y02189466D01*
X00657910D01*
Y02189278D01*
X00658098D01*
Y02188904D01*
X00658285D01*
Y02188529D01*
X00658472D01*
Y02188342D01*
X00658659D01*
Y02187967D01*
X00658847D01*
Y02187593D01*
X00659034D01*
Y02187406D01*
X00659221D01*
Y02186844D01*
X00659409D01*
Y02186656D01*
X00659596D01*
Y02186282D01*
X00659783D01*
Y02186095D01*
X00659970D01*
Y02185533D01*
X00660158D01*
Y02185345D01*
X00660345D01*
Y02184971D01*
X00660532D01*
Y02184596D01*
X00660720D01*
Y02184222D01*
X00660907D01*
Y02184035D01*
X00661094D01*
Y02183660D01*
X00661281D01*
Y02183286D01*
X00661469D01*
Y02182911D01*
X00661656D01*
Y02182724D01*
X00661843D01*
Y02182349D01*
X00662030D01*
Y02182162D01*
X00662218D01*
Y02181787D01*
X00662405D01*
Y02181413D01*
X00662592D01*
Y02181038D01*
X00662779D01*
Y02180851D01*
X00662967D01*
Y02180289D01*
X00663154D01*
Y02180102D01*
X00663341D01*
Y02179727D01*
X00663529D01*
Y02179540D01*
X00663716D01*
Y02178978D01*
X00663903D01*
Y02178791D01*
X00664090D01*
Y02178416D01*
X00664278D01*
Y02178229D01*
X00664465D01*
Y02177854D01*
X00664652D01*
Y02177480D01*
X00664839D01*
Y02177105D01*
X00665027D01*
Y02176918D01*
X00665214D01*
Y02176544D01*
X00665401D01*
Y02176169D01*
X00665589D01*
Y02175795D01*
X00665776D01*
Y02175607D01*
X00665963D01*
Y02175045D01*
X00666151D01*
Y02174858D01*
X00666338D01*
Y02174484D01*
X00666525D01*
Y02174296D01*
X00666712D01*
Y02173922D01*
X00666900D01*
Y02173547D01*
X00667087D01*
Y02173173D01*
X00667274D01*
Y02172985D01*
X00667461D01*
Y02172611D01*
X00667649D01*
Y02172236D01*
X00667836D01*
Y02171674D01*
X00668023D01*
Y02171300D01*
X00668211D01*
Y02170925D01*
X00668398D01*
Y02170551D01*
X00668585D01*
Y02167742D01*
X00668398D01*
Y02167180D01*
X00668211D01*
Y02166618D01*
X00668023D01*
Y02166243D01*
X00667836D01*
Y02165869D01*
X00667649D01*
Y02165682D01*
X00667461D01*
Y02165494D01*
X00667274D01*
Y02165307D01*
X00667087D01*
Y02165120D01*
X00666900D01*
Y02164933D01*
X00666712D01*
Y02164745D01*
X00666525D01*
Y02164558D01*
X00666338D01*
Y02164371D01*
X00665963D01*
Y02164183D01*
X00496479D01*
Y02164371D01*
X00495730D01*
Y02164558D01*
X00495168D01*
Y02164745D01*
X00494981D01*
Y02164933D01*
X00494419D01*
Y02165120D01*
X00494232D01*
Y02165307D01*
X00493857D01*
Y02165494D01*
X00493483D01*
Y02165682D01*
X00493295D01*
Y02165869D01*
X00493108D01*
Y02166056D01*
X00492921D01*
Y02166243D01*
X00492733D01*
Y02166431D01*
X00492546D01*
Y02166618D01*
X00492359D01*
Y02166805D01*
X00492172D01*
Y02167180D01*
X00491984D01*
Y02167367D01*
X00491797D01*
Y02167742D01*
X00491610D01*
Y02167929D01*
X00491423D01*
Y02168491D01*
X00491235D01*
Y02169053D01*
X00491048D01*
Y02171862D01*
X00491235D01*
Y02172611D01*
X00491423D01*
Y02172985D01*
X00491610D01*
Y02173173D01*
X00491797D01*
Y02173547D01*
X00491984D01*
Y02173922D01*
X00492172D01*
Y02174484D01*
X00492359D01*
Y02174671D01*
X00492546D01*
Y02175045D01*
X00492733D01*
Y02175420D01*
X00492921D01*
Y02175607D01*
X00493108D01*
Y02175982D01*
X00493295D01*
Y02176356D01*
X00493483D01*
Y02176544D01*
X00493670D01*
Y02176918D01*
X00493857D01*
Y02177105D01*
X00494044D01*
Y02177667D01*
X00494232D01*
Y02177854D01*
X00494419D01*
Y02178229D01*
X00494606D01*
Y02178604D01*
X00494794D01*
Y02178791D01*
X00494981D01*
Y02179165D01*
X00495168D01*
Y02179540D01*
X00495355D01*
Y02179727D01*
X00495543D01*
Y02180102D01*
X00495730D01*
Y02180289D01*
X00495917D01*
Y02180851D01*
X00496104D01*
Y02181038D01*
X00496292D01*
Y02181413D01*
X00496479D01*
Y02181600D01*
X00496666D01*
Y02181975D01*
X00496853D01*
Y02182162D01*
X00497041D01*
Y02182536D01*
X00497228D01*
Y02182724D01*
X00497415D01*
Y02183098D01*
X00497603D01*
Y02183286D01*
X00497790D01*
Y02183847D01*
X00497977D01*
Y02184035D01*
X00498164D01*
Y02184409D01*
X00498352D01*
Y02184784D01*
X00498539D01*
Y02184971D01*
X00498726D01*
Y02185345D01*
X00498913D01*
Y02185533D01*
X00499101D01*
Y02185720D01*
X00499288D01*
Y02186282D01*
X00499475D01*
Y02186469D01*
X00499663D01*
Y02186844D01*
X00499850D01*
Y02187031D01*
X00500037D01*
Y02187593D01*
X00500224D01*
Y02187780D01*
X00500412D01*
Y02188155D01*
X00500599D01*
Y02188342D01*
X00500786D01*
Y02188716D01*
X00500974D01*
Y02189091D01*
X00501161D01*
Y02189278D01*
X00501348D01*
Y02189653D01*
X00501535D01*
Y02190027D01*
X00501723D01*
Y02190215D01*
X00501910D01*
Y02190777D01*
X00502285D01*
Y02191338D01*
X00502472D01*
Y02191526D01*
X00502659D01*
Y02191900D01*
X00502846D01*
Y02192088D01*
X00503034D01*
Y02192462D01*
X00503221D01*
Y02192649D01*
X00503408D01*
Y02193211D01*
X00503595D01*
Y02193398D01*
X00503783D01*
Y02193773D01*
X00503970D01*
Y02194147D01*
X00504157D01*
Y02194335D01*
X00504344D01*
Y02194522D01*
X00504532D01*
Y02195084D01*
X00504719D01*
Y02195271D01*
X00504906D01*
Y02195646D01*
X00505094D01*
Y02195833D01*
X00505281D01*
Y02196207D01*
X00505468D01*
Y02196395D01*
X00505656D01*
Y02196769D01*
X00505843D01*
Y02197144D01*
X00506030D01*
Y02197518D01*
X00506217D01*
Y02197706D01*
X00506404D01*
Y02198080D01*
X00506592D01*
Y02198268D01*
X00506779D01*
Y02198642D01*
X00506966D01*
Y02198829D01*
X00507154D01*
Y02199204D01*
X00507341D01*
Y02199391D01*
X00507528D01*
Y02199766D01*
X00507715D01*
Y02200140D01*
X00507903D01*
Y02200515D01*
X00508090D01*
Y02200702D01*
X00508277D01*
Y02201077D01*
X00508465D01*
Y02201264D01*
X00508652D01*
Y02201638D01*
X00508839D01*
Y02201826D01*
X00509026D01*
Y02202200D01*
X00509214D01*
Y02202388D01*
X00509401D01*
Y02202949D01*
X00509588D01*
Y02203137D01*
X00509776D01*
Y02203511D01*
X00509963D01*
Y02203886D01*
X00510150D01*
Y02204260D01*
X00510525D01*
Y02204822D01*
X00510712D01*
Y02205009D01*
X00510899D01*
Y02205384D01*
X00511087D01*
Y02205571D01*
X00511274D01*
Y02205946D01*
X00511461D01*
Y02206133D01*
X00511648D01*
Y02206508D01*
X00511836D01*
Y02206882D01*
X00512023D01*
Y02207257D01*
X00512210D01*
Y02207444D01*
X00512397D01*
Y02207819D01*
X00512585D01*
Y02208193D01*
X00512772D01*
Y02208380D01*
X00512959D01*
Y02208755D01*
X00513147D01*
Y02209129D01*
X00513334D01*
Y02209317D01*
X00513521D01*
Y02209879D01*
X00513708D01*
Y02210066D01*
X00513896D01*
Y02210440D01*
X00514083D01*
Y02210628D01*
X00514270D01*
Y02211002D01*
X00514457D01*
Y02211190D01*
X00514645D01*
Y02211751D01*
X00514832D01*
Y02211939D01*
X00515019D01*
Y02212313D01*
X00515206D01*
Y02212500D01*
X00515394D01*
Y02212875D01*
X00515581D01*
Y02213062D01*
X00515768D01*
Y02213437D01*
X00515956D01*
Y02213811D01*
X00516143D01*
Y02214186D01*
X00516330D01*
Y02214373D01*
X00516517D01*
Y02214748D01*
X00516705D01*
Y02215122D01*
X00516892D01*
Y02215497D01*
X00517079D01*
Y02215684D01*
X00517267D01*
Y02215871D01*
X00517454D01*
Y02216246D01*
X00517641D01*
Y02216620D01*
X00517828D01*
Y02216808D01*
X00518016D01*
Y02217182D01*
X00518203D01*
Y02217370D01*
X00518390D01*
Y02217744D01*
X00518577D01*
Y02218119D01*
X00518765D01*
Y02218493D01*
X00518952D01*
Y02218681D01*
X00519139D01*
Y02219055D01*
X00519327D01*
Y02219242D01*
X00519514D01*
Y02219804D01*
X00519701D01*
Y02219991D01*
X00519888D01*
Y02220366D01*
X00520076D01*
Y02220553D01*
X00520263D01*
Y02220928D01*
X00520450D01*
Y02221115D01*
X00520638D01*
Y02221677D01*
X00520825D01*
Y02221864D01*
X00521012D01*
Y02222239D01*
X00521199D01*
Y02222613D01*
X00521387D01*
Y02222988D01*
X00521574D01*
Y02223175D01*
X00521761D01*
Y02223362D01*
X00521948D01*
Y02223737D01*
X00522136D01*
Y02224112D01*
X00522323D01*
Y02224299D01*
X00522510D01*
Y02224673D01*
X00522697D01*
Y02225048D01*
X00522885D01*
Y02225423D01*
X00523072D01*
Y02225610D01*
X00523259D01*
Y02225984D01*
X00523447D01*
Y02226172D01*
X00523634D01*
Y02226733D01*
X00523821D01*
Y02226921D01*
X00524008D01*
Y02227108D01*
X00524196D01*
Y02227482D01*
X00524383D01*
Y02227857D01*
X00524570D01*
Y02228044D01*
X00524757D01*
Y02228606D01*
X00524945D01*
Y02228793D01*
X00525132D01*
Y02229168D01*
X00525319D01*
Y02229355D01*
X00525507D01*
Y02229730D01*
X00525694D01*
Y02229917D01*
X00525881D01*
Y02230292D01*
X00526068D01*
Y02230666D01*
X00526256D01*
Y02231041D01*
X00526443D01*
Y02231228D01*
X00526630D01*
Y02231603D01*
X00526818D01*
Y02231790D01*
X00527005D01*
Y02232164D01*
X00527192D01*
Y02232352D01*
X00527379D01*
Y02232914D01*
X00527567D01*
Y02233101D01*
X00527754D01*
Y02233663D01*
X00527941D01*
Y02233850D01*
X00528129D01*
Y02234224D01*
X00528316D01*
Y02234599D01*
X00528503D01*
Y02234786D01*
X00528690D01*
Y02235161D01*
X00528878D01*
Y02235535D01*
X00529065D01*
Y02235723D01*
X00529252D01*
Y02236097D01*
X00529439D01*
Y02236284D01*
X00529627D01*
Y02236659D01*
X00529814D01*
Y02237034D01*
X00530001D01*
Y02237221D01*
X00530188D01*
Y02237595D01*
X00530376D01*
Y02237970D01*
X00530563D01*
Y02238157D01*
X00530750D01*
Y02238532D01*
X00530938D01*
Y02238719D01*
X00531125D01*
Y02239281D01*
X00531312D01*
Y02239468D01*
X00531499D01*
Y02239843D01*
X00531687D01*
Y02240030D01*
X00531874D01*
Y02240405D01*
X00532061D01*
Y02240779D01*
X00532249D01*
Y02241154D01*
X00532436D01*
Y02241341D01*
X00532623D01*
Y02241715D01*
X00532810D01*
Y02241903D01*
X00532998D01*
Y02242277D01*
X00533185D01*
Y02242652D01*
X00533372D01*
Y02242839D01*
X00533559D01*
Y02243214D01*
X00533747D01*
Y02243588D01*
X00533934D01*
Y02243775D01*
X00534121D01*
Y02244150D01*
X00534309D01*
Y02244337D01*
X00534496D01*
Y02244712D01*
X00534683D01*
Y02245086D01*
X00534870D01*
Y02245461D01*
X00535058D01*
Y02245648D01*
X00535245D01*
Y02246023D01*
X00535432D01*
Y02246210D01*
X00535620D01*
Y02246585D01*
X00535807D01*
Y02246772D01*
X00535994D01*
Y02247334D01*
X00536181D01*
Y02247521D01*
X00536369D01*
Y02247708D01*
X00536556D01*
Y02248083D01*
X00536743D01*
Y02248457D01*
X00536930D01*
Y02248645D01*
X00537118D01*
Y02249206D01*
X00537305D01*
Y02249394D01*
X00537492D01*
Y02249768D01*
X00537679D01*
Y02249955D01*
X00537867D01*
Y02250330D01*
X00538054D01*
Y02250705D01*
X00538241D01*
Y02250892D01*
X00538429D01*
Y02251266D01*
X00538616D01*
Y02251641D01*
X00538803D01*
Y02251828D01*
X00538991D01*
Y02252203D01*
X00539178D01*
Y02252577D01*
X00539365D01*
Y02252765D01*
X00539552D01*
Y02253139D01*
X00539740D01*
Y02253327D01*
X00539927D01*
Y02253701D01*
X00540114D01*
Y02254076D01*
X00540301D01*
Y02254450D01*
X00540489D01*
Y02254825D01*
X00540676D01*
Y02255012D01*
X00540863D01*
Y02255574D01*
X00541050D01*
Y02255761D01*
X00541238D01*
Y02255948D01*
X00541425D01*
Y02256323D01*
X00541612D01*
Y02256698D01*
X00541800D01*
Y02256885D01*
X00541987D01*
Y02257259D01*
X00542174D01*
Y02257634D01*
X00542361D01*
Y02258008D01*
X00542549D01*
Y02258196D01*
X00542736D01*
Y02258570D01*
X00542923D01*
Y02258757D01*
X00543111D01*
Y02259132D01*
X00543298D01*
Y02259507D01*
X00543485D01*
Y02259881D01*
X00543672D01*
Y02260068D01*
X00543860D01*
Y02260443D01*
X00544047D01*
Y02260630D01*
X00544234D01*
Y02261005D01*
X00544422D01*
Y02261192D01*
X00544609D01*
Y02261567D01*
X00544796D01*
Y02261754D01*
X00544983D01*
Y02262128D01*
X00545171D01*
Y02262503D01*
X00545358D01*
Y02262878D01*
X00545545D01*
Y02263065D01*
X00545732D01*
Y02263439D01*
X00545920D01*
Y02263814D01*
X00546107D01*
Y02264001D01*
X00546294D01*
Y02264376D01*
X00546482D01*
Y02264750D01*
X00546669D01*
Y02264938D01*
X00546856D01*
Y02265312D01*
X00547043D01*
Y02265687D01*
X00547231D01*
Y02266061D01*
X00547418D01*
Y02266248D01*
X00547605D01*
Y02266623D01*
X00547792D01*
Y02266998D01*
X00547980D01*
Y02267185D01*
X00548167D01*
Y02267372D01*
X00548354D01*
Y02267934D01*
X00548541D01*
Y02268121D01*
X00548729D01*
Y02268496D01*
X00548916D01*
Y02268683D01*
X00549103D01*
Y02269058D01*
X00549291D01*
Y02269432D01*
X00549478D01*
Y02269807D01*
X00549665D01*
Y02270181D01*
X00549852D01*
Y02270369D01*
X00550040D01*
Y02270556D01*
X00550227D01*
Y02271118D01*
X00550414D01*
Y02271305D01*
X00550602D01*
Y02271680D01*
X00550789D01*
Y02271867D01*
X00550976D01*
Y02272429D01*
X00551163D01*
Y02272616D01*
X00551351D01*
Y02272990D01*
X00551538D01*
Y02273178D01*
X00551725D01*
Y02273552D01*
X00551912D01*
Y02273739D01*
X00552100D01*
Y02274114D01*
X00552287D01*
Y02274489D01*
X00552474D01*
Y02274863D01*
X00552662D01*
Y02275051D01*
X00552849D01*
Y02275425D01*
X00553036D01*
Y02275612D01*
X00553223D01*
Y02276174D01*
X00553411D01*
Y02276361D01*
X00553598D01*
Y02276923D01*
X00553785D01*
Y02277110D01*
X00553973D01*
Y02277485D01*
X00554160D01*
Y02277672D01*
X00554347D01*
Y02278047D01*
X00554534D01*
Y02278421D01*
X00554722D01*
Y02278609D01*
X00554909D01*
Y02278983D01*
X00555096D01*
Y02279358D01*
X00555283D01*
Y02279545D01*
X00555471D01*
Y02279920D01*
X00555658D01*
Y02280107D01*
X00555845D01*
Y02280481D01*
X00556032D01*
Y02280856D01*
X00556220D01*
Y02281043D01*
X00556407D01*
Y02281418D01*
X00556594D01*
Y02281792D01*
X00556782D01*
Y02282167D01*
X00556969D01*
Y02282542D01*
X00557156D01*
Y02282729D01*
X00557343D01*
Y02283103D01*
X00557531D01*
Y02283478D01*
X00557718D01*
Y02283665D01*
X00557905D01*
Y02284040D01*
X00558093D01*
Y02284414D01*
X00558280D01*
Y02284601D01*
X00558467D01*
Y02284976D01*
X00558654D01*
Y02285163D01*
X00558842D01*
Y02285725D01*
X00559029D01*
Y02285912D01*
X00559216D01*
Y02286287D01*
X00559403D01*
Y02286474D01*
X00559591D01*
Y02286849D01*
X00559778D01*
Y02287036D01*
X00559965D01*
Y02287411D01*
X00560153D01*
Y02287785D01*
X00560340D01*
Y02288160D01*
X00560527D01*
Y02288534D01*
X00560714D01*
Y02288909D01*
X00560902D01*
Y02289096D01*
X00561089D01*
Y02289471D01*
X00561276D01*
Y02289658D01*
X00561464D01*
Y02290033D01*
X00561651D01*
Y02290407D01*
X00561838D01*
Y02290782D01*
X00562025D01*
Y02290969D01*
X00562213D01*
Y02291343D01*
X00562400D01*
Y02291531D01*
X00562587D01*
Y02291905D01*
X00562774D01*
Y02292280D01*
X00562962D01*
Y02292654D01*
X00563149D01*
Y02292842D01*
X00563336D01*
Y02293216D01*
X00563524D01*
Y02293591D01*
X00563711D01*
Y02293965D01*
X00563898D01*
Y02294153D01*
X00564085D01*
Y02294527D01*
X00564273D01*
Y02294902D01*
X00564460D01*
Y02295089D01*
X00564647D01*
Y02295276D01*
X00564835D01*
Y02295651D01*
X00565022D01*
Y02296025D01*
X00565209D01*
Y02296400D01*
X00565396D01*
Y02296587D01*
X00565584D01*
Y02296962D01*
X00565771D01*
Y02297149D01*
X00565958D01*
Y02297523D01*
X00566145D01*
Y02297898D01*
X00566333D01*
Y02298273D01*
X00566520D01*
Y02298460D01*
X00566707D01*
Y02299022D01*
X00566894D01*
Y02299209D01*
X00567082D01*
Y02299583D01*
X00567269D01*
Y02299771D01*
X00567456D01*
Y02300145D01*
X00567644D01*
Y02300333D01*
X00567831D01*
Y02300707D01*
X00568018D01*
Y02301082D01*
X00568205D01*
Y02301456D01*
X00568393D01*
Y02301644D01*
X00568580D01*
Y02301831D01*
X00568767D01*
Y02302205D01*
X00568955D01*
Y02302580D01*
X00569142D01*
Y02302767D01*
X00569329D01*
Y02303142D01*
X00569516D01*
Y02303516D01*
X00569704D01*
Y02303891D01*
X00569891D01*
Y02304078D01*
X00570078D01*
Y02304640D01*
X00570266D01*
Y02304827D01*
X00570453D01*
Y02305202D01*
X00570640D01*
Y02305389D01*
X00570827D01*
Y02305764D01*
X00571015D01*
Y02305951D01*
X00571202D01*
Y02306513D01*
X00571389D01*
Y02306700D01*
X00571576D01*
Y02306887D01*
X00571764D01*
Y02307262D01*
X00571951D01*
Y02307636D01*
X00572138D01*
Y02307824D01*
X00572326D01*
Y02308385D01*
X00572513D01*
Y02308573D01*
X00572700D01*
Y02308760D01*
X00572887D01*
Y02309135D01*
X00573075D01*
Y02309322D01*
X00573262D01*
Y02309696D01*
X00573449D01*
Y02310071D01*
X00573636D01*
Y02310446D01*
X00573824D01*
Y02310633D01*
X00574011D01*
Y02311007D01*
X00574198D01*
Y02311382D01*
X00574385D01*
Y02311569D01*
X00574573D01*
Y02311944D01*
X00574760D01*
Y02312131D01*
X00574947D01*
Y02312693D01*
X00575135D01*
Y02312880D01*
X00575322D01*
Y02313067D01*
X00575509D01*
Y02313255D01*
X00575696D01*
Y02313817D01*
X00575884D01*
Y02314004D01*
X00576071D01*
Y02314378D01*
X00576258D01*
Y02314566D01*
X00576446D01*
Y02314753D01*
X00576633D01*
Y02314940D01*
X00576820D01*
Y02315127D01*
X00577007D01*
Y02315315D01*
X00577195D01*
Y02315502D01*
X00577382D01*
Y02315689D01*
X00577569D01*
Y02315876D01*
X00577757D01*
Y02316064D01*
X00578131D01*
Y02316251D01*
X00578318D01*
Y02316438D01*
X00578693D01*
Y02316626D01*
X00579255D01*
Y02316813D01*
X00580004D01*
Y02317000D01*
X00582251D01*
Y02316813D01*
D02*
G37*
G36*
X00743000Y02301500D02*
Y02251500D01*
X00736250Y02253500D01*
X00730250Y02257000D01*
X00726750Y02260500D01*
X00724250Y02264250D01*
X00721500Y02270750D01*
X00721000Y02276500D01*
X00721750Y02282750D01*
X00724000Y02288750D01*
X00728750Y02294500D01*
X00734000Y02298500D01*
X00739000Y02300750D01*
X00742750Y02301500D01*
X00743000D01*
D02*
G37*
G36*
X01025860Y02275939D02*
X01019501D01*
Y02284440D01*
X01025860D01*
Y02275939D01*
D02*
G37*
G36*
X01062500Y01704750D02*
X01112500D01*
X01110500Y01698000D01*
X01107000Y01692000D01*
X01103500Y01688500D01*
X01099750Y01686000D01*
X01093250Y01683250D01*
X01087500Y01682750D01*
X01081250Y01683500D01*
X01075250Y01685750D01*
X01069500Y01690500D01*
X01065500Y01695750D01*
X01063250Y01700750D01*
X01062500Y01704500D01*
Y01704750D01*
D02*
G37*
G36*
X01390500Y01617450D02*
X01383300Y01617450D01*
X01390500Y01610250D01*
X01390500Y01617450D01*
D02*
G37*
G36*
X01157250Y01972000D02*
X01107250D01*
X01109250Y01978750D01*
X01112750Y01984750D01*
X01116250Y01988250D01*
X01120000Y01990750D01*
X01126500Y01993500D01*
X01132250Y01994000D01*
X01138500Y01993250D01*
X01144500Y01991000D01*
X01150250Y01986250D01*
X01154250Y01981000D01*
X01156500Y01976000D01*
X01157250Y01972250D01*
Y01972000D01*
D02*
G37*
G36*
X01294750Y01912250D02*
X01244750D01*
X01246750Y01919000D01*
X01250250Y01925000D01*
X01253750Y01928500D01*
X01257500Y01931000D01*
X01264000Y01933750D01*
X01269750Y01934250D01*
X01276000Y01933500D01*
X01282000Y01931250D01*
X01287750Y01926500D01*
X01291750Y01921250D01*
X01294000Y01916250D01*
X01294750Y01912500D01*
Y01912250D01*
D02*
G37*
G36*
X01035250Y02270673D02*
X01030141D01*
Y02289390D01*
X01035250D01*
Y02270673D01*
D02*
G37*
G36*
X01073850Y02275933D02*
X01067534D01*
Y02284440D01*
X01073850D01*
Y02275933D01*
D02*
G37*
G36*
X01193750Y02092750D02*
Y02042750D01*
X01187000Y02044750D01*
X01181000Y02048250D01*
X01177500Y02051750D01*
X01175000Y02055500D01*
X01172250Y02062000D01*
X01171750Y02067750D01*
X01172500Y02074000D01*
X01174750Y02080000D01*
X01179500Y02085750D01*
X01184750Y02089750D01*
X01189750Y02092000D01*
X01193500Y02092750D01*
X01193750D01*
D02*
G37*
G36*
X01439250Y02208750D02*
X01439250Y02508796D01*
X01464565Y02504811D01*
X01485000Y02498000D01*
X01505250Y02488250D01*
X01513750Y02482750D01*
X01525000Y02474250D01*
X01535750Y02464250D01*
X01543750Y02455500D01*
X01549750Y02448500D01*
X01560500Y02431750D01*
X01566750Y02418750D01*
X01571500Y02406750D01*
X01576250Y02389250D01*
X01578750Y02371750D01*
X01579250Y02358750D01*
X01578250Y02342000D01*
X01575750Y02326500D01*
X01571750Y02311500D01*
X01566750Y02298750D01*
X01559250Y02284000D01*
X01551750Y02272000D01*
X01538250Y02255750D01*
X01525750Y02243750D01*
X01512750Y02234000D01*
X01498500Y02225500D01*
X01489500Y02221250D01*
X01478000Y02216750D01*
X01465500Y02213250D01*
X01455250Y02211250D01*
X01439500Y02209000D01*
X01439250Y02208750D01*
D02*
G37*
G36*
X00940379Y01596730D02*
X00940824Y01596507D01*
X00941194Y01596285D01*
X00941565Y01595915D01*
X00941787Y01595397D01*
X00941861Y01594656D01*
Y01556808D01*
Y01556734D01*
Y01556512D01*
X00941787Y01556141D01*
X00941565Y01555771D01*
X00941342Y01555401D01*
X00940972Y01555030D01*
X00940454Y01554808D01*
X00939713Y01554734D01*
X00939417D01*
X00939046Y01554882D01*
X00938676Y01555030D01*
X00938306Y01555253D01*
X00937935Y01555623D01*
X00937713Y01556141D01*
X00937639Y01556808D01*
Y01571547D01*
X00926677D01*
X00926381Y01571621D01*
X00925566Y01571695D01*
X00924529Y01571917D01*
X00923344Y01572288D01*
X00922085Y01572806D01*
X00920826Y01573547D01*
X00919641Y01574584D01*
X00919493Y01574732D01*
X00919196Y01575176D01*
X00918678Y01575769D01*
X00918160Y01576658D01*
X00917567Y01577769D01*
X00917049Y01579028D01*
X00916752Y01580509D01*
X00916604Y01582065D01*
Y01594656D01*
Y01594730D01*
Y01595026D01*
X00916752Y01595322D01*
X00916900Y01595767D01*
X00917123Y01596137D01*
X00917493Y01596507D01*
X00918011Y01596730D01*
X00918678Y01596804D01*
X00919048D01*
X00919345Y01596730D01*
X00919789Y01596507D01*
X00920159Y01596285D01*
X00920530Y01595915D01*
X00920752Y01595397D01*
X00920826Y01594656D01*
Y01582065D01*
Y01581916D01*
Y01581620D01*
X00920900Y01581102D01*
X00921048Y01580509D01*
X00921270Y01579768D01*
X00921567Y01579028D01*
X00922011Y01578287D01*
X00922604Y01577547D01*
X00922678Y01577472D01*
X00922974Y01577250D01*
X00923344Y01576954D01*
X00923863Y01576658D01*
X00924529Y01576361D01*
X00925270Y01576065D01*
X00926159Y01575843D01*
X00927122Y01575769D01*
X00937639D01*
Y01594656D01*
Y01594730D01*
Y01595026D01*
X00937787Y01595322D01*
X00937935Y01595767D01*
X00938158Y01596137D01*
X00938528Y01596507D01*
X00939046Y01596730D01*
X00939713Y01596804D01*
X00940083D01*
X00940379Y01596730D01*
D02*
G37*
G36*
X01033037D02*
X01033481Y01596507D01*
X01033851Y01596285D01*
X01034222Y01595915D01*
X01034444Y01595397D01*
X01034518Y01594656D01*
Y01556808D01*
Y01556734D01*
Y01556512D01*
X01034444Y01556141D01*
X01034222Y01555771D01*
X01033999Y01555401D01*
X01033629Y01555030D01*
X01033111Y01554808D01*
X01032370Y01554734D01*
X01032074D01*
X01031703Y01554882D01*
X01031333Y01555030D01*
X01030963Y01555253D01*
X01030592Y01555623D01*
X01030370Y01556141D01*
X01030296Y01556808D01*
Y01584805D01*
X01013483Y01558882D01*
Y01558808D01*
Y01558511D01*
Y01558141D01*
Y01557697D01*
X01013409Y01556808D01*
Y01556438D01*
X01013335Y01556141D01*
Y01556067D01*
X01013261Y01555919D01*
X01013113Y01555697D01*
X01012965Y01555475D01*
X01012668Y01555178D01*
X01012372Y01554956D01*
X01011928Y01554808D01*
X01011335Y01554734D01*
X01011039D01*
X01010668Y01554882D01*
X01010298Y01555030D01*
X01009928Y01555253D01*
X01009557Y01555623D01*
X01009335Y01556141D01*
X01009261Y01556808D01*
Y01594656D01*
Y01594730D01*
Y01595026D01*
X01009409Y01595322D01*
X01009557Y01595767D01*
X01009780Y01596137D01*
X01010150Y01596507D01*
X01010668Y01596730D01*
X01011335Y01596804D01*
X01011705D01*
X01012002Y01596730D01*
X01012446Y01596507D01*
X01012816Y01596285D01*
X01013187Y01595915D01*
X01013409Y01595397D01*
X01013483Y01594656D01*
Y01566659D01*
X01030296Y01592582D01*
Y01592656D01*
Y01592952D01*
Y01593323D01*
Y01593767D01*
Y01594656D01*
X01030370Y01595026D01*
Y01595322D01*
Y01595397D01*
X01030444Y01595545D01*
X01030815Y01596063D01*
X01031037Y01596359D01*
X01031407Y01596582D01*
X01031852Y01596730D01*
X01032370Y01596804D01*
X01032740D01*
X01033037Y01596730D01*
D02*
G37*
G36*
X01167837Y01569399D02*
X01168282Y01569177D01*
X01168652Y01568955D01*
X01169023Y01568584D01*
X01169245Y01568066D01*
X01169319Y01567325D01*
Y01567251D01*
Y01567029D01*
X01169245Y01566659D01*
X01169023Y01566288D01*
X01168800Y01565918D01*
X01168430Y01565548D01*
X01167912Y01565325D01*
X01167171Y01565251D01*
X01150061D01*
X01149691Y01565400D01*
X01149321Y01565548D01*
X01148951Y01565770D01*
X01148580Y01566140D01*
X01148358Y01566659D01*
X01148284Y01567325D01*
Y01567399D01*
Y01567696D01*
X01148432Y01567992D01*
X01148580Y01568436D01*
X01148802Y01568807D01*
X01149173Y01569177D01*
X01149691Y01569399D01*
X01150358Y01569473D01*
X01167541D01*
X01167837Y01569399D01*
D02*
G37*
G36*
X01188946Y01596730D02*
X01189391Y01596507D01*
X01189761Y01596285D01*
X01190131Y01595915D01*
X01190354Y01595397D01*
X01190428Y01594656D01*
Y01556808D01*
Y01556734D01*
Y01556512D01*
X01190354Y01556141D01*
X01190131Y01555771D01*
X01189909Y01555401D01*
X01189539Y01555030D01*
X01189020Y01554808D01*
X01188280Y01554734D01*
X01187983D01*
X01187613Y01554882D01*
X01187243Y01555030D01*
X01186872Y01555253D01*
X01186502Y01555623D01*
X01186280Y01556141D01*
X01186206Y01556808D01*
Y01589619D01*
X01181318Y01584731D01*
X01181244Y01584657D01*
X01180947Y01584435D01*
X01180429Y01584212D01*
X01179836Y01584138D01*
X01179540D01*
X01179170Y01584286D01*
X01178799Y01584435D01*
X01178429Y01584657D01*
X01178059Y01585027D01*
X01177836Y01585546D01*
X01177762Y01586286D01*
Y01586360D01*
Y01586434D01*
X01177836Y01586805D01*
X01177984Y01587249D01*
X01178355Y01587768D01*
X01186576Y01595989D01*
X01186650Y01596063D01*
X01186724Y01596137D01*
X01187095Y01596433D01*
X01187613Y01596656D01*
X01187983Y01596804D01*
X01188650D01*
X01188946Y01596730D01*
D02*
G37*
G36*
X01138359D02*
X01138803Y01596507D01*
X01139174Y01596285D01*
X01139544Y01595915D01*
X01139766Y01595397D01*
X01139840Y01594656D01*
Y01594582D01*
Y01594359D01*
X01139766Y01593989D01*
X01139544Y01593619D01*
X01139322Y01593248D01*
X01138951Y01592878D01*
X01138433Y01592656D01*
X01137692Y01592582D01*
X01129323D01*
Y01556808D01*
Y01556734D01*
Y01556512D01*
X01129249Y01556141D01*
X01129027Y01555771D01*
X01128804Y01555401D01*
X01128434Y01555030D01*
X01127916Y01554808D01*
X01127175Y01554734D01*
X01126879D01*
X01126508Y01554882D01*
X01126138Y01555030D01*
X01125768Y01555253D01*
X01125397Y01555623D01*
X01125175Y01556141D01*
X01125101Y01556808D01*
Y01592582D01*
X01116361D01*
X01115991Y01592730D01*
X01115621Y01592878D01*
X01115250Y01593100D01*
X01114880Y01593471D01*
X01114658Y01593989D01*
X01114584Y01594656D01*
Y01594730D01*
Y01595026D01*
X01114732Y01595322D01*
X01114880Y01595767D01*
X01115102Y01596137D01*
X01115472Y01596507D01*
X01115991Y01596730D01*
X01116658Y01596804D01*
X01138063D01*
X01138359Y01596730D01*
D02*
G37*
G36*
X01091845D02*
X01092142Y01596582D01*
X01092512Y01596433D01*
X01092882Y01596137D01*
X01093178Y01595693D01*
X01093401Y01595174D01*
X01105992Y01557475D01*
Y01557400D01*
X01106066Y01557252D01*
Y01556808D01*
Y01556734D01*
Y01556512D01*
X01105992Y01556141D01*
X01105844Y01555771D01*
X01105548Y01555401D01*
X01105177Y01555030D01*
X01104659Y01554808D01*
X01103992Y01554734D01*
X01103770D01*
X01103474Y01554808D01*
X01103177Y01554882D01*
X01102881Y01555104D01*
X01102511Y01555327D01*
X01102215Y01555697D01*
X01101992Y01556141D01*
X01098956Y01565251D01*
X01083772D01*
X01080735Y01556141D01*
Y01556067D01*
X01080661Y01555919D01*
X01080291Y01555475D01*
X01079995Y01555178D01*
X01079698Y01554956D01*
X01079254Y01554808D01*
X01078736Y01554734D01*
X01078439D01*
X01078069Y01554882D01*
X01077699Y01555030D01*
X01077328Y01555253D01*
X01076958Y01555623D01*
X01076736Y01556141D01*
X01076662Y01556808D01*
Y01556882D01*
Y01557030D01*
X01076736Y01557475D01*
X01089253Y01595100D01*
Y01595174D01*
X01089401Y01595397D01*
X01089549Y01595619D01*
X01089771Y01595989D01*
X01089994Y01596285D01*
X01090364Y01596507D01*
X01090808Y01596730D01*
X01091327Y01596804D01*
X01091549D01*
X01091845Y01596730D01*
D02*
G37*
G36*
X01066737D02*
X01067181Y01596507D01*
X01067551Y01596285D01*
X01067922Y01595915D01*
X01068144Y01595397D01*
X01068218Y01594656D01*
Y01594582D01*
Y01594359D01*
X01068144Y01593989D01*
X01067922Y01593619D01*
X01067700Y01593248D01*
X01067329Y01592878D01*
X01066811Y01592656D01*
X01066070Y01592582D01*
X01057701D01*
Y01556808D01*
Y01556734D01*
Y01556512D01*
X01057627Y01556141D01*
X01057404Y01555771D01*
X01057182Y01555401D01*
X01056812Y01555030D01*
X01056293Y01554808D01*
X01055553Y01554734D01*
X01055257D01*
X01054886Y01554882D01*
X01054516Y01555030D01*
X01054146Y01555253D01*
X01053775Y01555623D01*
X01053553Y01556141D01*
X01053479Y01556808D01*
Y01592582D01*
X01044739D01*
X01044369Y01592730D01*
X01043998Y01592878D01*
X01043628Y01593100D01*
X01043258Y01593471D01*
X01043036Y01593989D01*
X01042962Y01594656D01*
Y01594730D01*
Y01595026D01*
X01043110Y01595322D01*
X01043258Y01595767D01*
X01043480Y01596137D01*
X01043850Y01596507D01*
X01044369Y01596730D01*
X01045035Y01596804D01*
X01066441D01*
X01066737Y01596730D01*
D02*
G37*
G36*
X00963636D02*
X00964451Y01596656D01*
X00965488Y01596433D01*
X00966673Y01596063D01*
X00967932Y01595470D01*
X00969191Y01594730D01*
X00970376Y01593693D01*
X00970525Y01593545D01*
X00970895Y01593174D01*
X00971339Y01592508D01*
X00971932Y01591619D01*
X00972524Y01590582D01*
X00972969Y01589323D01*
X00973339Y01587842D01*
X00973487Y01586286D01*
Y01586212D01*
Y01586064D01*
Y01585768D01*
X00973413Y01585472D01*
X00973339Y01585027D01*
X00973265Y01584509D01*
X00972969Y01583398D01*
X00972524Y01582065D01*
X00971858Y01580731D01*
X00971413Y01579991D01*
X00970895Y01579324D01*
X00970228Y01578657D01*
X00969562Y01578065D01*
X00969636Y01577991D01*
X00969858Y01577917D01*
X00970154Y01577695D01*
X00970525Y01577398D01*
X00970969Y01577028D01*
X00971487Y01576584D01*
X00972006Y01575991D01*
X00972598Y01575399D01*
X00973117Y01574658D01*
X00973635Y01573917D01*
X00974154Y01573028D01*
X00974598Y01572065D01*
X00975043Y01570954D01*
X00975339Y01569843D01*
X00975487Y01568658D01*
X00975561Y01567325D01*
Y01567251D01*
Y01567103D01*
Y01566807D01*
X00975487Y01566436D01*
Y01565992D01*
X00975339Y01565474D01*
X00975117Y01564214D01*
X00974672Y01562807D01*
X00974006Y01561326D01*
X00973561Y01560585D01*
X00973117Y01559845D01*
X00972524Y01559104D01*
X00971858Y01558363D01*
X00971784Y01558289D01*
X00971710Y01558215D01*
X00971487Y01558067D01*
X00971191Y01557771D01*
X00970821Y01557549D01*
X00970376Y01557252D01*
X00969340Y01556586D01*
X00968080Y01555919D01*
X00966525Y01555327D01*
X00964821Y01554882D01*
X00963859Y01554808D01*
X00962896Y01554734D01*
X00952082D01*
X00951712Y01554882D01*
X00951341Y01555030D01*
X00950971Y01555253D01*
X00950601Y01555623D01*
X00950378Y01556141D01*
X00950304Y01556808D01*
Y01594656D01*
Y01594730D01*
Y01595026D01*
X00950453Y01595322D01*
X00950601Y01595767D01*
X00950823Y01596137D01*
X00951193Y01596507D01*
X00951712Y01596730D01*
X00952378Y01596804D01*
X00963340D01*
X00963636Y01596730D01*
D02*
G37*
G36*
X00906679D02*
X00907124Y01596507D01*
X00907494Y01596285D01*
X00907864Y01595915D01*
X00908087Y01595397D01*
X00908161Y01594656D01*
Y01556808D01*
Y01556734D01*
Y01556512D01*
X00908087Y01556141D01*
X00907864Y01555771D01*
X00907642Y01555401D01*
X00907272Y01555030D01*
X00906753Y01554808D01*
X00906013Y01554734D01*
X00905716D01*
X00905346Y01554882D01*
X00904976Y01555030D01*
X00904605Y01555253D01*
X00904235Y01555623D01*
X00904013Y01556141D01*
X00903939Y01556808D01*
Y01592582D01*
X00887126D01*
Y01556808D01*
Y01556734D01*
Y01556512D01*
X00887052Y01556141D01*
X00886830Y01555771D01*
X00886607Y01555401D01*
X00886237Y01555030D01*
X00885719Y01554808D01*
X00884978Y01554734D01*
X00884682D01*
X00884311Y01554882D01*
X00883941Y01555030D01*
X00883571Y01555253D01*
X00883200Y01555623D01*
X00882978Y01556141D01*
X00882904Y01556808D01*
Y01594656D01*
Y01594730D01*
Y01595026D01*
X00883052Y01595322D01*
X00883200Y01595767D01*
X00883422Y01596137D01*
X00883793Y01596507D01*
X00884311Y01596730D01*
X00884978Y01596804D01*
X00906383D01*
X00906679Y01596730D01*
D02*
G37*
%LPC*%
G36*
X00581127Y02298460D02*
X00580940D01*
Y02298273D01*
X00580753D01*
Y02298085D01*
X00580566D01*
Y02297711D01*
X00580378D01*
Y02297523D01*
X00580191D01*
Y02297149D01*
X00580004D01*
Y02296962D01*
X00579817D01*
Y02296400D01*
X00579629D01*
Y02296213D01*
X00579442D01*
Y02295838D01*
X00579255D01*
Y02295651D01*
X00579067D01*
Y02295276D01*
X00578880D01*
Y02295089D01*
X00578693D01*
Y02294714D01*
X00578506D01*
Y02294340D01*
X00578318D01*
Y02293965D01*
X00578131D01*
Y02293778D01*
X00577944D01*
Y02293403D01*
X00577757D01*
Y02293216D01*
X00577569D01*
Y02292654D01*
X00577382D01*
Y02292467D01*
X00577195D01*
Y02292092D01*
X00577007D01*
Y02291718D01*
X00576820D01*
Y02291343D01*
X00576633D01*
Y02291156D01*
X00576446D01*
Y02290782D01*
X00576258D01*
Y02290407D01*
X00576071D01*
Y02290220D01*
X00575884D01*
Y02289845D01*
X00575696D01*
Y02289471D01*
X00575509D01*
Y02289283D01*
X00575322D01*
Y02288909D01*
X00575135D01*
Y02288534D01*
X00574947D01*
Y02288347D01*
X00574760D01*
Y02287973D01*
X00574573D01*
Y02287598D01*
X00574385D01*
Y02287411D01*
X00574198D01*
Y02287036D01*
X00574011D01*
Y02286662D01*
X00573824D01*
Y02286287D01*
X00573636D01*
Y02285912D01*
X00573449D01*
Y02285725D01*
X00573262D01*
Y02285351D01*
X00573075D01*
Y02285163D01*
X00572887D01*
Y02284789D01*
X00572700D01*
Y02284414D01*
X00572513D01*
Y02284227D01*
X00572326D01*
Y02283665D01*
X00572138D01*
Y02283478D01*
X00571951D01*
Y02283103D01*
X00571764D01*
Y02282916D01*
X00571576D01*
Y02282542D01*
X00571389D01*
Y02282167D01*
X00571202D01*
Y02281980D01*
X00571015D01*
Y02281605D01*
X00570827D01*
Y02281230D01*
X00570640D01*
Y02281043D01*
X00570453D01*
Y02280669D01*
X00570266D01*
Y02280481D01*
X00570078D01*
Y02280107D01*
X00569891D01*
Y02279732D01*
X00569704D01*
Y02279358D01*
X00569516D01*
Y02279171D01*
X00569329D01*
Y02278796D01*
X00569142D01*
Y02278609D01*
X00568955D01*
Y02278047D01*
X00568767D01*
Y02277672D01*
X00568580D01*
Y02277485D01*
X00568393D01*
Y02277110D01*
X00568205D01*
Y02276923D01*
X00568018D01*
Y02276549D01*
X00567831D01*
Y02276174D01*
X00567644D01*
Y02275987D01*
X00567456D01*
Y02275800D01*
Y02275612D01*
X00567269D01*
Y02275238D01*
X00567082D01*
Y02275051D01*
X00566894D01*
Y02274676D01*
X00566707D01*
Y02274301D01*
X00566520D01*
Y02273927D01*
X00566333D01*
Y02273739D01*
X00566145D01*
Y02273552D01*
X00565958D01*
Y02273178D01*
X00565771D01*
Y02272803D01*
X00565584D01*
Y02272616D01*
X00565396D01*
Y02272241D01*
X00565209D01*
Y02271680D01*
X00565022D01*
Y02271492D01*
X00564835D01*
Y02271118D01*
X00564647D01*
Y02270930D01*
X00564460D01*
Y02270556D01*
X00564273D01*
Y02270181D01*
X00564085D01*
Y02269994D01*
X00563898D01*
Y02269619D01*
X00563711D01*
Y02269432D01*
X00563524D01*
Y02269245D01*
X00563336D01*
Y02268683D01*
X00563149D01*
Y02268496D01*
X00562962D01*
Y02268121D01*
X00562774D01*
Y02267934D01*
X00562587D01*
Y02267559D01*
X00562400D01*
Y02267185D01*
X00562213D01*
Y02266810D01*
X00562025D01*
Y02266436D01*
X00561838D01*
Y02266248D01*
X00561651D01*
Y02266061D01*
X00561464D01*
Y02265687D01*
X00561276D01*
Y02265312D01*
X00561089D01*
Y02264938D01*
X00560902D01*
Y02264563D01*
X00560714D01*
Y02264376D01*
X00560527D01*
Y02264001D01*
X00560340D01*
Y02263627D01*
X00560153D01*
Y02263439D01*
X00559965D01*
Y02263065D01*
X00559778D01*
Y02262690D01*
X00559591D01*
Y02262316D01*
X00559403D01*
Y02262128D01*
X00559216D01*
Y02261754D01*
X00559029D01*
Y02261567D01*
X00558842D01*
Y02261192D01*
X00558654D01*
Y02260818D01*
X00558467D01*
Y02260630D01*
X00558280D01*
Y02260443D01*
X00558093D01*
Y02259881D01*
X00557905D01*
Y02259694D01*
X00557718D01*
Y02259319D01*
X00557531D01*
Y02258945D01*
X00557343D01*
Y02258757D01*
X00557156D01*
Y02258383D01*
X00556969D01*
Y02258008D01*
X00556782D01*
Y02257821D01*
X00556594D01*
Y02257447D01*
X00556407D01*
Y02257072D01*
X00556220D01*
Y02256698D01*
X00556032D01*
Y02256510D01*
X00555845D01*
Y02256136D01*
X00555658D01*
Y02255948D01*
X00555471D01*
Y02255574D01*
X00555283D01*
Y02255199D01*
X00555096D01*
Y02255012D01*
X00554909D01*
Y02254637D01*
X00554722D01*
Y02254263D01*
X00554534D01*
Y02254076D01*
X00554347D01*
Y02253701D01*
X00554160D01*
Y02253514D01*
X00553973D01*
Y02253139D01*
X00553785D01*
Y02252765D01*
X00553598D01*
Y02252577D01*
X00553411D01*
Y02252203D01*
X00553223D01*
Y02251828D01*
X00553036D01*
Y02251454D01*
X00552849D01*
Y02251266D01*
X00552662D01*
Y02250892D01*
X00552474D01*
Y02250705D01*
X00552287D01*
Y02250517D01*
X00552100D01*
Y02249955D01*
X00551912D01*
Y02249768D01*
X00551725D01*
Y02249206D01*
X00551538D01*
Y02249019D01*
X00551351D01*
Y02248832D01*
X00551163D01*
Y02248457D01*
X00550976D01*
Y02248083D01*
X00550789D01*
Y02247896D01*
X00550602D01*
Y02247521D01*
X00550414D01*
Y02247334D01*
X00550227D01*
Y02246772D01*
X00550040D01*
Y02246585D01*
X00549852D01*
Y02246210D01*
X00549665D01*
Y02246023D01*
X00549478D01*
Y02245648D01*
X00549291D01*
Y02245461D01*
X00549103D01*
Y02245086D01*
X00548916D01*
Y02244712D01*
X00548729D01*
Y02244337D01*
X00548541D01*
Y02244150D01*
X00548354D01*
Y02243775D01*
X00548167D01*
Y02243401D01*
X00547980D01*
Y02243026D01*
X00547792D01*
Y02242839D01*
X00547605D01*
Y02242464D01*
X00547418D01*
Y02242277D01*
X00547231D01*
Y02241715D01*
X00547043D01*
Y02241528D01*
X00546856D01*
Y02241154D01*
X00546669D01*
Y02240966D01*
X00546482D01*
Y02240592D01*
X00546294D01*
Y02240217D01*
X00546107D01*
Y02239843D01*
X00545920D01*
Y02239655D01*
X00545732D01*
Y02239468D01*
X00545545D01*
Y02239281D01*
X00545358D01*
Y02238906D01*
X00545171D01*
Y02238532D01*
X00544983D01*
Y02238157D01*
X00544796D01*
Y02237970D01*
X00544609D01*
Y02237408D01*
X00544422D01*
Y02237221D01*
X00544234D01*
Y02236846D01*
X00544047D01*
Y02236659D01*
X00543860D01*
Y02236284D01*
X00543672D01*
Y02236097D01*
X00543485D01*
Y02235723D01*
X00543298D01*
Y02235348D01*
X00543111D01*
Y02234973D01*
X00542923D01*
Y02234599D01*
X00542736D01*
Y02234412D01*
X00542549D01*
Y02234037D01*
X00542361D01*
Y02233663D01*
X00542174D01*
Y02233475D01*
X00541987D01*
Y02233288D01*
X00541800D01*
Y02232914D01*
X00541612D01*
Y02232539D01*
X00541425D01*
Y02232352D01*
X00541238D01*
Y02231977D01*
X00541050D01*
Y02231790D01*
X00540863D01*
Y02231228D01*
X00540676D01*
Y02231041D01*
X00540489D01*
Y02230666D01*
X00540301D01*
Y02230479D01*
X00540114D01*
Y02230104D01*
X00539927D01*
Y02229730D01*
X00539740D01*
Y02229355D01*
X00539552D01*
Y02229168D01*
X00539365D01*
Y02228793D01*
X00539178D01*
Y02228606D01*
X00538991D01*
Y02228044D01*
X00538803D01*
Y02227857D01*
X00538616D01*
Y02227482D01*
X00538429D01*
Y02227295D01*
X00538241D01*
Y02226921D01*
X00538054D01*
Y02226733D01*
X00537867D01*
Y02226359D01*
X00537679D01*
Y02225984D01*
X00537492D01*
Y02225610D01*
X00537305D01*
Y02225235D01*
X00537118D01*
Y02225048D01*
X00536930D01*
Y02224861D01*
X00536743D01*
Y02224486D01*
X00536556D01*
Y02224112D01*
X00536369D01*
Y02223737D01*
X00536181D01*
Y02223550D01*
X00535994D01*
Y02223175D01*
X00535807D01*
Y02222988D01*
X00535620D01*
Y02222426D01*
X00535432D01*
Y02222239D01*
X00535245D01*
Y02221864D01*
X00535058D01*
Y02221490D01*
X00534870D01*
Y02221115D01*
X00534683D01*
Y02220928D01*
X00534496D01*
Y02220741D01*
X00534309D01*
Y02220366D01*
X00534121D01*
Y02219991D01*
X00533934D01*
Y02219804D01*
X00533747D01*
Y02219430D01*
X00533559D01*
Y02219055D01*
X00533372D01*
Y02218681D01*
X00533185D01*
Y02218493D01*
X00532998D01*
Y02218119D01*
X00532810D01*
Y02217744D01*
X00532623D01*
Y02217370D01*
X00532436D01*
Y02217182D01*
X00532249D01*
Y02216808D01*
X00532061D01*
Y02216620D01*
X00531874D01*
Y02216246D01*
X00531687D01*
Y02216059D01*
X00531499D01*
Y02215684D01*
X00531312D01*
Y02215310D01*
X00531125D01*
Y02214935D01*
X00530938D01*
Y02214748D01*
X00530750D01*
Y02214373D01*
X00530563D01*
Y02213999D01*
X00530376D01*
Y02213811D01*
X00530188D01*
Y02213437D01*
X00530001D01*
Y02213062D01*
X00529814D01*
Y02212875D01*
X00529627D01*
Y02212500D01*
X00529439D01*
Y02212126D01*
X00529252D01*
Y02211751D01*
X00529065D01*
Y02211564D01*
X00528878D01*
Y02211190D01*
X00528690D01*
Y02211002D01*
X00528503D01*
Y02210440D01*
X00528316D01*
Y02210253D01*
X00528129D01*
Y02209879D01*
X00527941D01*
Y02209691D01*
X00527754D01*
Y02209129D01*
X00527567D01*
Y02208942D01*
X00527379D01*
Y02208568D01*
X00527192D01*
Y02208380D01*
X00527005D01*
Y02207819D01*
X00526818D01*
Y02207631D01*
X00526630D01*
Y02207257D01*
X00526443D01*
Y02207070D01*
X00526256D01*
Y02206695D01*
X00526068D01*
Y02206508D01*
X00525881D01*
Y02205946D01*
X00525694D01*
Y02205759D01*
X00525507D01*
Y02205384D01*
X00525319D01*
Y02205197D01*
X00525132D01*
Y02204822D01*
X00524945D01*
Y02204448D01*
X00524757D01*
Y02204073D01*
X00524570D01*
Y02203886D01*
X00524383D01*
Y02203511D01*
X00524196D01*
Y02203324D01*
X00524008D01*
Y02202762D01*
X00523821D01*
Y02202575D01*
X00523634D01*
Y02202200D01*
X00523447D01*
Y02202013D01*
X00523259D01*
Y02201451D01*
X00523072D01*
Y02201264D01*
X00522885D01*
Y02200889D01*
X00522697D01*
Y02200702D01*
X00522510D01*
Y02200328D01*
X00522323D01*
Y02199953D01*
X00522136D01*
Y02199579D01*
X00521948D01*
Y02199391D01*
X00521761D01*
Y02199017D01*
X00521574D01*
Y02198829D01*
X00521387D01*
Y02198455D01*
X00521199D01*
Y02198080D01*
X00521012D01*
Y02197706D01*
X00520825D01*
Y02197518D01*
X00520638D01*
Y02197144D01*
X00520450D01*
Y02196769D01*
X00520263D01*
Y02196395D01*
X00520076D01*
Y02196207D01*
X00519888D01*
Y02195646D01*
X00519701D01*
Y02195458D01*
X00519514D01*
Y02195271D01*
X00519327D01*
Y02194897D01*
X00519139D01*
Y02194522D01*
X00518952D01*
Y02194335D01*
X00518765D01*
Y02193773D01*
X00518577D01*
Y02193586D01*
X00518390D01*
Y02193211D01*
X00518203D01*
Y02193024D01*
X00518016D01*
Y02192462D01*
X00517828D01*
Y02192275D01*
X00517641D01*
Y02191900D01*
X00517454D01*
Y02191713D01*
X00517267D01*
Y02191338D01*
X00517079D01*
Y02191151D01*
X00516892D01*
Y02190589D01*
X00516705D01*
Y02190402D01*
X00516517D01*
Y02190027D01*
X00516330D01*
Y02189840D01*
X00516143D01*
Y02189466D01*
X00515956D01*
Y02189091D01*
X00515768D01*
Y02188716D01*
X00515581D01*
Y02188529D01*
X00515394D01*
Y02188155D01*
X00515206D01*
Y02187780D01*
X00515019D01*
Y02187593D01*
X00514832D01*
Y02187218D01*
X00514645D01*
Y02186844D01*
X00514457D01*
Y02186469D01*
X00514270D01*
Y02186282D01*
X00514083D01*
Y02185907D01*
X00513896D01*
Y02185533D01*
X00513708D01*
Y02185345D01*
X00513521D01*
Y02184971D01*
X00513334D01*
Y02184596D01*
X00513147D01*
Y02184409D01*
X00512959D01*
Y02184035D01*
X00512772D01*
Y02183660D01*
X00512585D01*
Y02183473D01*
X00512397D01*
Y02183098D01*
X00512210D01*
Y02182911D01*
X00512023D01*
Y02182536D01*
X00511836D01*
Y02182349D01*
X00511648D01*
Y02181787D01*
X00511461D01*
Y02181600D01*
X00511274D01*
Y02181225D01*
X00511087D01*
Y02180851D01*
X00510899D01*
Y02180664D01*
X00510712D01*
Y02180289D01*
X00510525D01*
Y02179915D01*
X00510337D01*
Y02179727D01*
X00510150D01*
Y02179353D01*
X00509963D01*
Y02179165D01*
X00509776D01*
Y02178791D01*
X00509588D01*
Y02178604D01*
X00509401D01*
Y02178042D01*
X00509214D01*
Y02177854D01*
X00509026D01*
Y02177480D01*
X00508839D01*
Y02177105D01*
X00508652D01*
Y02176731D01*
X00508277D01*
Y02176169D01*
X00650981D01*
Y02176356D01*
X00650794D01*
Y02176731D01*
X00650607D01*
Y02176918D01*
X00650419D01*
Y02177293D01*
X00650232D01*
Y02177480D01*
X00650045D01*
Y02177854D01*
X00649857D01*
Y02178042D01*
X00649670D01*
Y02178416D01*
X00649483D01*
Y02178791D01*
X00649296D01*
Y02179165D01*
X00649108D01*
Y02179540D01*
X00648921D01*
Y02179727D01*
X00648734D01*
Y02180102D01*
X00648547D01*
Y02180476D01*
X00648359D01*
Y02180664D01*
X00648172D01*
Y02181038D01*
X00647985D01*
Y02181413D01*
X00647797D01*
Y02181787D01*
X00647610D01*
Y02182162D01*
X00647423D01*
Y02182349D01*
X00647236D01*
Y02182724D01*
X00647048D01*
Y02183098D01*
X00646861D01*
Y02183473D01*
X00646674D01*
Y02183660D01*
X00646487D01*
Y02184035D01*
X00646299D01*
Y02184222D01*
X00646112D01*
Y02184784D01*
X00645925D01*
Y02184971D01*
X00645737D01*
Y02185345D01*
X00645550D01*
Y02185533D01*
X00645363D01*
Y02185907D01*
X00645176D01*
Y02186282D01*
X00644988D01*
Y02186656D01*
X00644801D01*
Y02186844D01*
X00644614D01*
Y02187218D01*
X00644426D01*
Y02187593D01*
X00644239D01*
Y02187967D01*
X00644052D01*
Y02188155D01*
X00643865D01*
Y02188716D01*
X00643677D01*
Y02188904D01*
X00643490D01*
Y02189278D01*
X00643303D01*
Y02189466D01*
X00643116D01*
Y02190027D01*
X00642928D01*
Y02190215D01*
X00642741D01*
Y02190589D01*
X00642554D01*
Y02190964D01*
X00642366D01*
Y02191338D01*
X00642179D01*
Y02191526D01*
X00641992D01*
Y02192088D01*
X00641805D01*
Y02192275D01*
X00641617D01*
Y02192462D01*
X00641430D01*
Y02192837D01*
X00641243D01*
Y02193211D01*
X00641056D01*
Y02193398D01*
X00640868D01*
Y02193960D01*
X00640681D01*
Y02194335D01*
X00640494D01*
Y02194709D01*
X00640306D01*
Y02195084D01*
X00640119D01*
Y02195458D01*
X00639932D01*
Y02195646D01*
X00639745D01*
Y02196020D01*
X00639557D01*
Y02196395D01*
X00639370D01*
Y02196769D01*
X00639183D01*
Y02196957D01*
X00638996D01*
Y02197331D01*
X00638808D01*
Y02197518D01*
X00638621D01*
Y02198080D01*
X00638434D01*
Y02198268D01*
X00638246D01*
Y02198642D01*
X00638059D01*
Y02198829D01*
X00637872D01*
Y02199204D01*
X00637685D01*
Y02199579D01*
X00637497D01*
Y02199766D01*
X00637310D01*
Y02200140D01*
X00637123D01*
Y02200702D01*
X00636936D01*
Y02201077D01*
X00636748D01*
Y02201264D01*
X00636561D01*
Y02201638D01*
X00636374D01*
Y02201826D01*
X00636186D01*
Y02202200D01*
X00635999D01*
Y02202575D01*
X00635812D01*
Y02202762D01*
X00635625D01*
Y02203324D01*
X00635437D01*
Y02203511D01*
X00635250D01*
Y02204073D01*
X00635063D01*
Y02204260D01*
X00634875D01*
Y02204635D01*
X00634688D01*
Y02204822D01*
X00634501D01*
Y02205197D01*
X00634314D01*
Y02205384D01*
X00634126D01*
Y02205946D01*
X00633939D01*
Y02206133D01*
X00633752D01*
Y02206508D01*
X00633564D01*
Y02206882D01*
X00633377D01*
Y02207257D01*
X00633190D01*
Y02207444D01*
X00633003D01*
Y02208006D01*
X00632815D01*
Y02208380D01*
X00632628D01*
Y02208755D01*
X00632441D01*
Y02208942D01*
X00632254D01*
Y02209317D01*
X00632066D01*
Y02209504D01*
X00631879D01*
Y02210066D01*
X00631692D01*
Y02210253D01*
X00631505D01*
Y02210815D01*
X00631317D01*
Y02211190D01*
X00631130D01*
Y02211377D01*
X00630943D01*
Y02211939D01*
X00630755D01*
Y02212313D01*
X00630568D01*
Y02212688D01*
X00630381D01*
Y02213062D01*
X00630194D01*
Y02213250D01*
X00630006D01*
Y02213624D01*
X00629819D01*
Y02213999D01*
X00629632D01*
Y02214373D01*
X00629445D01*
Y02214561D01*
X00629257D01*
Y02214935D01*
X00629070D01*
Y02215310D01*
X00628883D01*
Y02215497D01*
X00628695D01*
Y02215871D01*
X00628508D01*
Y02216433D01*
X00628321D01*
Y02216620D01*
X00628134D01*
Y02216995D01*
X00627946D01*
Y02217182D01*
X00627759D01*
Y02217557D01*
X00627572D01*
Y02217744D01*
X00627384D01*
Y02218119D01*
X00627197D01*
Y02218493D01*
X00627010D01*
Y02218868D01*
X00626823D01*
Y02219055D01*
X00626635D01*
Y02219430D01*
X00626448D01*
Y02219617D01*
X00626261D01*
Y02220179D01*
X00626073D01*
Y02220366D01*
X00625886D01*
Y02220741D01*
X00625699D01*
Y02221115D01*
X00625512D01*
Y02221490D01*
X00625324D01*
Y02221677D01*
X00625137D01*
Y02222239D01*
X00624950D01*
Y02222426D01*
X00624763D01*
Y02222613D01*
X00624575D01*
Y02222988D01*
X00624388D01*
Y02223550D01*
X00624201D01*
Y02223737D01*
X00624013D01*
Y02224112D01*
X00623826D01*
Y02224486D01*
X00623639D01*
Y02224861D01*
X00623452D01*
Y02225048D01*
X00623264D01*
Y02225610D01*
X00623077D01*
Y02225797D01*
X00622890D01*
Y02226172D01*
X00622703D01*
Y02226359D01*
X00622515D01*
Y02226733D01*
X00622328D01*
Y02226921D01*
X00622141D01*
Y02227295D01*
X00621954D01*
Y02227670D01*
X00621766D01*
Y02228044D01*
X00621579D01*
Y02228232D01*
X00621392D01*
Y02228606D01*
X00621204D01*
Y02228981D01*
X00621017D01*
Y02229355D01*
X00620830D01*
Y02229730D01*
X00620643D01*
Y02229917D01*
X00620455D01*
Y02230292D01*
X00620268D01*
Y02230666D01*
X00620081D01*
Y02230853D01*
X00619893D01*
Y02231415D01*
X00619706D01*
Y02231790D01*
X00619519D01*
Y02231977D01*
X00619332D01*
Y02232164D01*
X00619144D01*
Y02232726D01*
X00618957D01*
Y02233101D01*
X00618770D01*
Y02233288D01*
X00618582D01*
Y02233663D01*
X00618395D01*
Y02234037D01*
X00618208D01*
Y02234224D01*
X00618021D01*
Y02234599D01*
X00617833D01*
Y02234786D01*
X00617646D01*
Y02235348D01*
X00617459D01*
Y02235535D01*
X00617272D01*
Y02236097D01*
X00617084D01*
Y02236284D01*
X00616897D01*
Y02236659D01*
X00616710D01*
Y02236846D01*
X00616522D01*
Y02237221D01*
X00616335D01*
Y02237408D01*
X00616148D01*
Y02237970D01*
X00615961D01*
Y02238345D01*
X00615773D01*
Y02238532D01*
X00615586D01*
Y02238719D01*
X00615399D01*
Y02239094D01*
X00615212D01*
Y02239468D01*
X00615024D01*
Y02239655D01*
X00614837D01*
Y02240030D01*
X00614650D01*
Y02240405D01*
X00614462D01*
Y02240779D01*
X00614275D01*
Y02241154D01*
X00614088D01*
Y02241528D01*
X00613901D01*
Y02241715D01*
X00613713D01*
Y02241903D01*
X00613526D01*
Y02242464D01*
X00613339D01*
Y02242652D01*
X00613152D01*
Y02243026D01*
X00612964D01*
Y02243401D01*
X00612777D01*
Y02243775D01*
X00612590D01*
Y02243963D01*
X00612402D01*
Y02244337D01*
X00612215D01*
Y02244712D01*
X00612028D01*
Y02245086D01*
X00611841D01*
Y02245461D01*
X00611653D01*
Y02245836D01*
X00611466D01*
Y02246023D01*
X00611279D01*
Y02246397D01*
X00611091D01*
Y02246585D01*
X00610904D01*
Y02246959D01*
X00610717D01*
Y02247334D01*
X00610530D01*
Y02247708D01*
X00610342D01*
Y02248083D01*
X00610155D01*
Y02248457D01*
X00609968D01*
Y02248645D01*
X00609781D01*
Y02249019D01*
X00609593D01*
Y02249394D01*
X00609406D01*
Y02249581D01*
X00609219D01*
Y02249955D01*
X00609031D01*
Y02250330D01*
X00608844D01*
Y02250705D01*
X00608657D01*
Y02250892D01*
X00608470D01*
Y02251266D01*
X00608282D01*
Y02251641D01*
X00608095D01*
Y02252016D01*
X00607908D01*
Y02252203D01*
X00607721D01*
Y02252390D01*
X00607533D01*
Y02252952D01*
X00607346D01*
Y02253139D01*
X00607159D01*
Y02253514D01*
X00606972D01*
Y02253888D01*
X00606784D01*
Y02254263D01*
X00606597D01*
Y02254450D01*
X00606410D01*
Y02254825D01*
X00606222D01*
Y02255199D01*
X00606035D01*
Y02255574D01*
X00605848D01*
Y02255761D01*
X00605661D01*
Y02256136D01*
X00605473D01*
Y02256323D01*
X00605286D01*
Y02256885D01*
X00605099D01*
Y02257072D01*
X00604911D01*
Y02257447D01*
X00604724D01*
Y02257821D01*
X00604537D01*
Y02258008D01*
X00604350D01*
Y02258383D01*
X00604162D01*
Y02258757D01*
X00603975D01*
Y02258945D01*
X00603788D01*
Y02259319D01*
X00603601D01*
Y02259507D01*
X00603413D01*
Y02260068D01*
X00603226D01*
Y02260443D01*
X00603039D01*
Y02260818D01*
X00602851D01*
Y02261005D01*
X00602664D01*
Y02261379D01*
X00602477D01*
Y02261754D01*
X00602290D01*
Y02262128D01*
X00602102D01*
Y02262316D01*
X00601915D01*
Y02262690D01*
X00601728D01*
Y02262878D01*
X00601540D01*
Y02263252D01*
X00601353D01*
Y02263627D01*
X00601166D01*
Y02263814D01*
X00600979D01*
Y02264189D01*
X00600791D01*
Y02264563D01*
X00600604D01*
Y02264938D01*
X00600417D01*
Y02265312D01*
X00600229D01*
Y02265499D01*
X00600042D01*
Y02266061D01*
X00599855D01*
Y02266248D01*
X00599668D01*
Y02266623D01*
X00599480D01*
Y02266810D01*
X00599293D01*
Y02267185D01*
X00599106D01*
Y02267559D01*
X00598919D01*
Y02267934D01*
X00598731D01*
Y02268121D01*
X00598544D01*
Y02268496D01*
X00598357D01*
Y02268683D01*
X00598170D01*
Y02269058D01*
X00597982D01*
Y02269432D01*
X00597795D01*
Y02269807D01*
X00597608D01*
Y02270181D01*
X00597420D01*
Y02270369D01*
X00597233D01*
Y02270556D01*
X00597046D01*
Y02271118D01*
X00596859D01*
Y02271492D01*
X00596671D01*
Y02271680D01*
X00596484D01*
Y02272054D01*
X00596297D01*
Y02272429D01*
X00596110D01*
Y02272803D01*
X00595922D01*
Y02272990D01*
X00595735D01*
Y02273178D01*
X00595548D01*
Y02273739D01*
X00595360D01*
Y02273927D01*
X00595173D01*
Y02274301D01*
X00594986D01*
Y02274676D01*
X00594799D01*
Y02275051D01*
X00594611D01*
Y02275238D01*
X00594424D01*
Y02275800D01*
X00594237D01*
Y02275987D01*
X00594049D01*
Y02276361D01*
X00593862D01*
Y02276549D01*
X00593675D01*
Y02276923D01*
X00593488D01*
Y02277110D01*
X00593300D01*
Y02277485D01*
X00593113D01*
Y02277860D01*
X00592926D01*
Y02278234D01*
X00592738D01*
Y02278609D01*
X00592551D01*
Y02278796D01*
X00592364D01*
Y02279171D01*
X00592177D01*
Y02279545D01*
X00591989D01*
Y02279920D01*
X00591802D01*
Y02280294D01*
X00591615D01*
Y02280481D01*
X00591428D01*
Y02281043D01*
X00591240D01*
Y02281230D01*
X00591053D01*
Y02281605D01*
X00590866D01*
Y02281980D01*
X00590678D01*
Y02282167D01*
X00590491D01*
Y02282542D01*
X00590304D01*
Y02283103D01*
X00590117D01*
Y02283291D01*
X00589929D01*
Y02283665D01*
X00589742D01*
Y02283852D01*
X00589555D01*
Y02284227D01*
X00589368D01*
Y02284601D01*
X00589180D01*
Y02284976D01*
X00588993D01*
Y02285163D01*
X00588806D01*
Y02285351D01*
X00588619D01*
Y02285725D01*
X00588431D01*
Y02286100D01*
X00588244D01*
Y02286474D01*
X00588057D01*
Y02286849D01*
X00587869D01*
Y02287036D01*
X00587682D01*
Y02287598D01*
X00587495D01*
Y02287785D01*
X00587308D01*
Y02288160D01*
X00587120D01*
Y02288347D01*
X00586933D01*
Y02288722D01*
X00586746D01*
Y02289096D01*
X00586558D01*
Y02289471D01*
X00586371D01*
Y02289658D01*
X00586184D01*
Y02290033D01*
X00585997D01*
Y02290407D01*
X00585809D01*
Y02290594D01*
X00585622D01*
Y02290782D01*
X00585435D01*
Y02291343D01*
X00585247D01*
Y02291718D01*
X00585060D01*
Y02291905D01*
X00584873D01*
Y02292092D01*
X00584686D01*
Y02292654D01*
X00584498D01*
Y02292842D01*
X00584311D01*
Y02293216D01*
X00584124D01*
Y02293591D01*
X00583937D01*
Y02293965D01*
X00583749D01*
Y02294153D01*
X00583562D01*
Y02294527D01*
X00583375D01*
Y02294902D01*
X00583187D01*
Y02295276D01*
X00583000D01*
Y02295464D01*
X00582813D01*
Y02295838D01*
X00582626D01*
Y02296025D01*
X00582438D01*
Y02296587D01*
X00582251D01*
Y02296774D01*
X00582064D01*
Y02297149D01*
X00581876D01*
Y02297523D01*
X00581689D01*
Y02297711D01*
X00581502D01*
Y02298085D01*
X00581315D01*
Y02298273D01*
X00581127D01*
Y02298460D01*
D02*
G37*
%LPD*%
G36*
X00589555Y02276361D02*
X00589929D01*
Y02275612D01*
X00589742D01*
Y02275051D01*
X00589555D01*
Y02274676D01*
X00589368D01*
Y02274301D01*
X00589180D01*
Y02273739D01*
X00588993D01*
Y02273365D01*
X00588806D01*
Y02272990D01*
X00588619D01*
Y02272616D01*
X00588431D01*
Y02272054D01*
X00588244D01*
Y02271680D01*
X00588057D01*
Y02271118D01*
X00587869D01*
Y02270743D01*
X00587682D01*
Y02270181D01*
X00587495D01*
Y02269807D01*
X00587308D01*
Y02269245D01*
X00587120D01*
Y02268870D01*
X00586933D01*
Y02268309D01*
X00586746D01*
Y02268121D01*
X00586558D01*
Y02267559D01*
X00586371D01*
Y02267185D01*
X00586184D01*
Y02266623D01*
X00585997D01*
Y02266248D01*
X00585809D01*
Y02265874D01*
X00585622D01*
Y02265499D01*
X00585435D01*
Y02264938D01*
X00585247D01*
Y02264563D01*
X00585060D01*
Y02263814D01*
X00584873D01*
Y02263627D01*
X00584686D01*
Y02263065D01*
X00584498D01*
Y02262690D01*
X00584311D01*
Y02262128D01*
X00584124D01*
Y02261941D01*
X00583937D01*
Y02261379D01*
X00583749D01*
Y02261005D01*
X00583562D01*
Y02260443D01*
X00583375D01*
Y02260256D01*
X00583187D01*
Y02259694D01*
X00583000D01*
Y02259319D01*
X00582813D01*
Y02258757D01*
X00582626D01*
Y02258383D01*
X00582438D01*
Y02257821D01*
X00582251D01*
Y02257447D01*
X00582064D01*
Y02256885D01*
X00581876D01*
Y02256510D01*
X00581689D01*
Y02255948D01*
X00581502D01*
Y02255574D01*
X00581315D01*
Y02255012D01*
X00581127D01*
Y02254637D01*
X00580940D01*
Y02254076D01*
X00580753D01*
Y02253701D01*
X00580566D01*
Y02253139D01*
X00580378D01*
Y02252765D01*
X00580191D01*
Y02252203D01*
X00580004D01*
Y02252016D01*
X00579817D01*
Y02251454D01*
X00579629D01*
Y02251079D01*
X00579442D01*
Y02250517D01*
X00579255D01*
Y02250143D01*
X00579067D01*
Y02249581D01*
X00578880D01*
Y02249206D01*
X00578693D01*
Y02248645D01*
X00578506D01*
Y02248270D01*
X00578318D01*
Y02247896D01*
X00578131D01*
Y02247521D01*
X00577944D01*
Y02246959D01*
X00577757D01*
Y02246585D01*
X00577569D01*
Y02246023D01*
X00577382D01*
Y02245648D01*
X00577195D01*
Y02245086D01*
X00577007D01*
Y02244712D01*
X00576820D01*
Y02244337D01*
X00576633D01*
Y02243963D01*
X00576446D01*
Y02243401D01*
X00576258D01*
Y02243026D01*
X00576071D01*
Y02242652D01*
X00575884D01*
Y02242090D01*
X00575696D01*
Y02241528D01*
X00575509D01*
Y02241154D01*
X00575322D01*
Y02240779D01*
X00575135D01*
Y02240405D01*
X00574947D01*
Y02239843D01*
X00574760D01*
Y02239468D01*
X00574573D01*
Y02238906D01*
X00574385D01*
Y02238532D01*
X00574198D01*
Y02238157D01*
X00574011D01*
Y02237595D01*
X00573824D01*
Y02237221D01*
X00573636D01*
Y02236846D01*
X00573449D01*
Y02236284D01*
X00573262D01*
Y02235910D01*
X00573075D01*
Y02235535D01*
X00572887D01*
Y02234786D01*
X00573449D01*
Y02234973D01*
X00574011D01*
Y02235161D01*
X00574198D01*
Y02235348D01*
X00574760D01*
Y02235535D01*
X00574947D01*
Y02235723D01*
X00575322D01*
Y02235910D01*
X00575509D01*
Y02236097D01*
X00575884D01*
Y02236284D01*
X00576258D01*
Y02236472D01*
X00576633D01*
Y02236659D01*
X00577007D01*
Y02236846D01*
X00577382D01*
Y02237034D01*
X00577569D01*
Y02237221D01*
X00577944D01*
Y02237408D01*
X00578318D01*
Y02237595D01*
X00578693D01*
Y02237783D01*
X00578880D01*
Y02237970D01*
X00579255D01*
Y02238157D01*
X00579629D01*
Y02238345D01*
X00580004D01*
Y02238532D01*
X00580378D01*
Y02238719D01*
X00580753D01*
Y02238906D01*
X00580940D01*
Y02239094D01*
X00581315D01*
Y02239281D01*
X00581689D01*
Y02239468D01*
X00582064D01*
Y02239655D01*
X00582438D01*
Y02239843D01*
X00582626D01*
Y02240030D01*
X00583000D01*
Y02240217D01*
X00583562D01*
Y02240405D01*
X00583749D01*
Y02240592D01*
X00583937D01*
Y02240779D01*
X00584311D01*
Y02240966D01*
X00584686D01*
Y02241154D01*
X00585060D01*
Y02241341D01*
X00585247D01*
Y02241528D01*
X00585622D01*
Y02241715D01*
X00585997D01*
Y02241903D01*
X00586371D01*
Y02242090D01*
X00586746D01*
Y02242277D01*
X00586933D01*
Y02242464D01*
X00587308D01*
Y02242652D01*
X00587682D01*
Y02242839D01*
X00588057D01*
Y02243026D01*
X00588244D01*
Y02243214D01*
X00588619D01*
Y02243401D01*
X00588993D01*
Y02243588D01*
X00589180D01*
Y02243775D01*
X00589555D01*
Y02243963D01*
X00589929D01*
Y02244150D01*
X00590304D01*
Y02244337D01*
X00590678D01*
Y02244525D01*
X00591053D01*
Y02244712D01*
X00591428D01*
Y02244899D01*
X00591615D01*
Y02245086D01*
X00591989D01*
Y02245274D01*
X00592364D01*
Y02245461D01*
X00592551D01*
Y02245648D01*
X00592926D01*
Y02245836D01*
X00593300D01*
Y02246023D01*
X00593675D01*
Y02246210D01*
X00593862D01*
Y02246397D01*
X00594424D01*
Y02246585D01*
X00594611D01*
Y02246772D01*
X00594986D01*
Y02246959D01*
X00595173D01*
Y02247146D01*
X00595548D01*
Y02247334D01*
X00595922D01*
Y02247521D01*
X00596297D01*
Y02247708D01*
X00596671D01*
Y02247896D01*
X00596859D01*
Y02248083D01*
X00597233D01*
Y02248270D01*
X00597608D01*
Y02248457D01*
X00597795D01*
Y02248645D01*
X00598170D01*
Y02248832D01*
X00598544D01*
Y02249019D01*
X00598731D01*
Y02248832D01*
X00599106D01*
Y02248270D01*
X00598919D01*
Y02247521D01*
X00598731D01*
Y02246959D01*
X00598544D01*
Y02245836D01*
X00598357D01*
Y02245461D01*
X00598170D01*
Y02244525D01*
X00597982D01*
Y02243963D01*
X00597795D01*
Y02243214D01*
X00597608D01*
Y02242839D01*
X00597420D01*
Y02241528D01*
X00597233D01*
Y02241341D01*
X00597046D01*
Y02240217D01*
X00596859D01*
Y02239655D01*
X00596671D01*
Y02238719D01*
X00596484D01*
Y02238532D01*
X00596297D01*
Y02237408D01*
X00596110D01*
Y02236846D01*
X00595922D01*
Y02235910D01*
X00595735D01*
Y02235348D01*
X00595548D01*
Y02234412D01*
X00595360D01*
Y02234037D01*
X00595173D01*
Y02233101D01*
X00594986D01*
Y02232352D01*
X00594799D01*
Y02231415D01*
X00594611D01*
Y02231041D01*
X00594424D01*
Y02229917D01*
X00594237D01*
Y02229543D01*
X00594049D01*
Y02228793D01*
X00593862D01*
Y02228044D01*
X00593675D01*
Y02227295D01*
X00593488D01*
Y02226733D01*
X00593300D01*
Y02225797D01*
X00593113D01*
Y02225235D01*
X00592926D01*
Y02224299D01*
X00592738D01*
Y02223924D01*
X00592551D01*
Y02222801D01*
X00592364D01*
Y02222239D01*
X00592177D01*
Y02221490D01*
X00591989D01*
Y02220928D01*
X00591802D01*
Y02220179D01*
X00591615D01*
Y02219804D01*
X00591428D01*
Y02218681D01*
X00591240D01*
Y02218119D01*
X00591053D01*
Y02217182D01*
X00590866D01*
Y02216808D01*
X00590678D01*
Y02215871D01*
X00590491D01*
Y02215310D01*
X00590304D01*
Y02214373D01*
X00590117D01*
Y02213999D01*
X00589929D01*
Y02213062D01*
X00589742D01*
Y02212500D01*
X00589555D01*
Y02211564D01*
X00589368D01*
Y02211190D01*
X00589180D01*
Y02210253D01*
X00588993D01*
Y02209691D01*
X00588806D01*
Y02208755D01*
X00588619D01*
Y02208193D01*
X00588431D01*
Y02207444D01*
X00588244D01*
Y02206882D01*
X00588057D01*
Y02205946D01*
X00587869D01*
Y02205571D01*
X00587682D01*
Y02204448D01*
X00587495D01*
Y02203886D01*
X00587308D01*
Y02203137D01*
X00587120D01*
Y02202575D01*
X00586933D01*
Y02201826D01*
X00586746D01*
Y02201264D01*
X00586558D01*
Y02199953D01*
X00586371D01*
Y02199579D01*
X00586184D01*
Y02198829D01*
X00585997D01*
Y02198268D01*
X00585809D01*
Y02197893D01*
X00585997D01*
Y02197706D01*
X00587120D01*
Y02197893D01*
X00587682D01*
Y02198080D01*
X00588619D01*
Y02198268D01*
X00589368D01*
Y02198455D01*
X00589929D01*
Y02198642D01*
X00590491D01*
Y02198829D01*
X00591053D01*
Y02199017D01*
X00591802D01*
Y02199204D01*
X00592551D01*
Y02199391D01*
X00593113D01*
Y02199579D01*
X00593862D01*
Y02199766D01*
X00594799D01*
Y02199579D01*
X00594986D01*
Y02199391D01*
X00594799D01*
Y02199204D01*
X00594611D01*
Y02199017D01*
X00594424D01*
Y02198829D01*
X00594237D01*
Y02198642D01*
X00594049D01*
Y02198455D01*
X00593862D01*
Y02198268D01*
X00593675D01*
Y02197893D01*
X00593300D01*
Y02197518D01*
X00593113D01*
Y02197331D01*
X00592926D01*
Y02196957D01*
X00592738D01*
Y02196769D01*
X00592551D01*
Y02196395D01*
X00592364D01*
Y02196207D01*
X00592177D01*
Y02196020D01*
X00591989D01*
Y02195833D01*
X00591802D01*
Y02195458D01*
X00591615D01*
Y02195271D01*
X00591428D01*
Y02195084D01*
X00591240D01*
Y02194897D01*
X00591053D01*
Y02194522D01*
X00590866D01*
Y02194335D01*
X00590678D01*
Y02194147D01*
X00590491D01*
Y02193773D01*
X00590304D01*
Y02193586D01*
X00590117D01*
Y02193398D01*
X00589929D01*
Y02193211D01*
X00589742D01*
Y02192837D01*
X00589555D01*
Y02192649D01*
X00589368D01*
Y02192462D01*
X00589180D01*
Y02192088D01*
X00588993D01*
Y02191900D01*
X00588806D01*
Y02191713D01*
X00588619D01*
Y02191526D01*
X00588431D01*
Y02191151D01*
X00588244D01*
Y02190964D01*
X00588057D01*
Y02190777D01*
X00587869D01*
Y02190402D01*
X00587682D01*
Y02190215D01*
X00587495D01*
Y02190027D01*
X00587308D01*
Y02189653D01*
X00587120D01*
Y02189466D01*
X00586933D01*
Y02189278D01*
X00586746D01*
Y02189091D01*
X00586558D01*
Y02188904D01*
X00586371D01*
Y02188716D01*
X00586184D01*
Y02188342D01*
X00585997D01*
Y02188155D01*
X00585809D01*
Y02187780D01*
X00585435D01*
Y02187406D01*
X00585247D01*
Y02187218D01*
X00585060D01*
Y02187031D01*
X00584873D01*
Y02186844D01*
X00584686D01*
Y02186469D01*
X00584498D01*
Y02186282D01*
X00584311D01*
Y02186095D01*
X00584124D01*
Y02185907D01*
X00583937D01*
Y02185533D01*
X00583749D01*
Y02185345D01*
X00583562D01*
Y02184971D01*
X00583375D01*
Y02184784D01*
X00583187D01*
Y02184596D01*
X00583000D01*
Y02184409D01*
X00582813D01*
Y02184222D01*
X00582626D01*
Y02183847D01*
X00582438D01*
Y02183660D01*
X00582251D01*
Y02183473D01*
X00582064D01*
Y02183286D01*
X00581876D01*
Y02183098D01*
X00581689D01*
Y02182911D01*
X00581502D01*
Y02182724D01*
X00581315D01*
Y02182349D01*
X00581127D01*
Y02182162D01*
X00580940D01*
Y02181975D01*
X00580753D01*
Y02181787D01*
X00580566D01*
Y02181413D01*
X00580378D01*
Y02181225D01*
X00580191D01*
Y02181038D01*
X00580004D01*
Y02180664D01*
X00579817D01*
Y02180476D01*
X00579629D01*
Y02180289D01*
X00579442D01*
Y02179915D01*
X00579255D01*
Y02179727D01*
X00579067D01*
Y02179353D01*
X00578880D01*
Y02179165D01*
X00578693D01*
Y02178978D01*
X00577944D01*
Y02179165D01*
X00577757D01*
Y02179353D01*
X00577569D01*
Y02180102D01*
X00577382D01*
Y02180664D01*
X00577195D01*
Y02181600D01*
X00577007D01*
Y02182349D01*
X00576820D01*
Y02183098D01*
X00576633D01*
Y02183660D01*
X00576446D01*
Y02184596D01*
X00576258D01*
Y02185158D01*
X00576071D01*
Y02185907D01*
X00575884D01*
Y02186656D01*
X00575696D01*
Y02187406D01*
X00575509D01*
Y02188155D01*
X00575322D01*
Y02188716D01*
X00575135D01*
Y02189466D01*
X00574947D01*
Y02190402D01*
X00574760D01*
Y02190964D01*
X00574573D01*
Y02191713D01*
X00574385D01*
Y02192275D01*
X00574198D01*
Y02193211D01*
X00574011D01*
Y02193960D01*
X00573824D01*
Y02194897D01*
X00573636D01*
Y02195084D01*
X00573449D01*
Y02196020D01*
X00573262D01*
Y02196769D01*
X00573075D01*
Y02197331D01*
X00572887D01*
Y02197893D01*
X00572700D01*
Y02198829D01*
X00572513D01*
Y02199204D01*
X00572326D01*
Y02200515D01*
X00572138D01*
Y02201077D01*
X00571951D01*
Y02201638D01*
X00571764D01*
Y02202388D01*
X00571576D01*
Y02202949D01*
X00571764D01*
Y02203324D01*
X00571951D01*
Y02203511D01*
X00572700D01*
Y02203324D01*
X00573075D01*
Y02203137D01*
X00573262D01*
Y02202949D01*
X00573449D01*
Y02202762D01*
X00573824D01*
Y02202575D01*
X00574011D01*
Y02202388D01*
X00574385D01*
Y02202200D01*
X00574573D01*
Y02202013D01*
X00574760D01*
Y02201826D01*
X00575135D01*
Y02201638D01*
X00575322D01*
Y02201451D01*
X00575509D01*
Y02201264D01*
X00575884D01*
Y02201077D01*
X00576071D01*
Y02200889D01*
X00576446D01*
Y02200702D01*
X00576633D01*
Y02200515D01*
X00577007D01*
Y02200328D01*
X00577195D01*
Y02200140D01*
X00577569D01*
Y02199953D01*
X00577757D01*
Y02199766D01*
X00578131D01*
Y02199579D01*
X00578318D01*
Y02199391D01*
X00578880D01*
Y02199579D01*
X00579067D01*
Y02200328D01*
X00579255D01*
Y02201451D01*
X00579442D01*
Y02202949D01*
X00579629D01*
Y02203698D01*
X00579817D01*
Y02204260D01*
Y02204448D01*
Y02205197D01*
X00580004D01*
Y02206320D01*
X00580191D01*
Y02207631D01*
X00580378D01*
Y02208380D01*
X00580566D01*
Y02210628D01*
X00580753D01*
Y02210815D01*
X00580940D01*
Y02212500D01*
X00581127D01*
Y02213624D01*
X00581315D01*
Y02213811D01*
X00581127D01*
Y02213999D01*
X00581315D01*
Y02215310D01*
X00581502D01*
Y02216620D01*
X00581689D01*
Y02217557D01*
X00581876D01*
Y02218681D01*
X00582064D01*
Y02219804D01*
X00582251D01*
Y02219991D01*
X00582064D01*
Y02220553D01*
X00582251D01*
Y02221115D01*
X00582438D01*
Y02222801D01*
X00582626D01*
Y02223924D01*
X00582813D01*
Y02225235D01*
X00583000D01*
Y02225984D01*
X00583187D01*
Y02226172D01*
X00583000D01*
Y02226733D01*
X00583187D01*
Y02227482D01*
X00583375D01*
Y02228419D01*
X00583562D01*
Y02228606D01*
X00583375D01*
Y02228981D01*
X00583562D01*
Y02229730D01*
X00583375D01*
Y02229917D01*
X00583000D01*
Y02229730D01*
X00582438D01*
Y02229543D01*
X00582064D01*
Y02229355D01*
X00581689D01*
Y02229168D01*
X00581315D01*
Y02228981D01*
X00581127D01*
Y02228793D01*
X00580753D01*
Y02228606D01*
X00580566D01*
Y02228419D01*
X00580191D01*
Y02228232D01*
X00579817D01*
Y02228044D01*
X00579442D01*
Y02227857D01*
X00579067D01*
Y02227670D01*
X00578693D01*
Y02227482D01*
X00578318D01*
Y02227295D01*
X00578131D01*
Y02227108D01*
X00577757D01*
Y02226921D01*
X00577382D01*
Y02226733D01*
X00577195D01*
Y02226546D01*
X00576820D01*
Y02226359D01*
X00576446D01*
Y02226172D01*
X00576071D01*
Y02225984D01*
X00575696D01*
Y02225797D01*
X00575322D01*
Y02225610D01*
X00575135D01*
Y02225423D01*
X00574760D01*
Y02225235D01*
X00574385D01*
Y02225048D01*
X00574011D01*
Y02224861D01*
X00573824D01*
Y02224673D01*
X00573449D01*
Y02224486D01*
X00573075D01*
Y02224299D01*
X00572700D01*
Y02224112D01*
X00572513D01*
Y02223924D01*
X00571951D01*
Y02223737D01*
X00571576D01*
Y02223550D01*
X00571389D01*
Y02223362D01*
X00571015D01*
Y02223175D01*
X00570640D01*
Y02222988D01*
X00570453D01*
Y02222801D01*
X00570078D01*
Y02222613D01*
X00569704D01*
Y02222426D01*
X00569329D01*
Y02222239D01*
X00569142D01*
Y02222052D01*
X00568767D01*
Y02221864D01*
X00568393D01*
Y02221677D01*
X00568018D01*
Y02221490D01*
X00567644D01*
Y02221302D01*
X00567269D01*
Y02221115D01*
X00567082D01*
Y02220928D01*
X00566707D01*
Y02220741D01*
X00566333D01*
Y02220553D01*
X00565958D01*
Y02220366D01*
X00565584D01*
Y02220179D01*
X00565396D01*
Y02219991D01*
X00565209D01*
Y02219804D01*
X00564835D01*
Y02219617D01*
X00564460D01*
Y02219430D01*
X00564085D01*
Y02219242D01*
X00563711D01*
Y02219055D01*
X00563336D01*
Y02218868D01*
X00562962D01*
Y02218681D01*
X00562774D01*
Y02218493D01*
X00562400D01*
Y02218306D01*
X00562025D01*
Y02218119D01*
X00561651D01*
Y02217932D01*
X00561276D01*
Y02217744D01*
X00561089D01*
Y02217557D01*
X00560714D01*
Y02217370D01*
X00560340D01*
Y02217182D01*
X00559965D01*
Y02216995D01*
X00559591D01*
Y02216808D01*
X00559403D01*
Y02216620D01*
X00559029D01*
Y02216433D01*
X00558842D01*
Y02216246D01*
X00558280D01*
Y02216433D01*
X00558093D01*
Y02217370D01*
X00558280D01*
Y02217744D01*
X00558467D01*
Y02218681D01*
X00558654D01*
Y02219055D01*
X00558842D01*
Y02219991D01*
X00559029D01*
Y02220366D01*
X00559216D01*
Y02221490D01*
X00559403D01*
Y02221864D01*
X00559591D01*
Y02222801D01*
X00559778D01*
Y02223175D01*
X00559965D01*
Y02224299D01*
X00560153D01*
Y02224673D01*
X00560340D01*
Y02225423D01*
X00560527D01*
Y02225984D01*
X00560714D01*
Y02226733D01*
X00560902D01*
Y02227482D01*
X00561089D01*
Y02228232D01*
X00561276D01*
Y02228606D01*
X00561464D01*
Y02229730D01*
X00561651D01*
Y02230292D01*
X00561838D01*
Y02231041D01*
X00562025D01*
Y02231603D01*
X00562213D01*
Y02231977D01*
X00562025D01*
Y02232164D01*
X00562213D01*
Y02232539D01*
X00562400D01*
Y02233288D01*
X00562587D01*
Y02234037D01*
X00562774D01*
Y02234412D01*
X00562962D01*
Y02235161D01*
X00563149D01*
Y02235910D01*
X00563336D01*
Y02236846D01*
X00563524D01*
Y02237221D01*
X00563711D01*
Y02238157D01*
X00563898D01*
Y02239094D01*
X00564085D01*
Y02239655D01*
X00564273D01*
Y02240030D01*
X00564460D01*
Y02240966D01*
X00564647D01*
Y02241528D01*
X00564835D01*
Y02242464D01*
X00565022D01*
Y02243026D01*
X00565209D01*
Y02243775D01*
X00565396D01*
Y02244150D01*
X00565584D01*
Y02245274D01*
X00565771D01*
Y02245648D01*
X00565958D01*
Y02246397D01*
X00566145D01*
Y02247146D01*
X00566333D01*
Y02247896D01*
X00566520D01*
Y02248645D01*
X00566707D01*
Y02249394D01*
X00566894D01*
Y02250143D01*
X00567082D01*
Y02250892D01*
X00567269D01*
Y02251454D01*
X00567456D01*
Y02252577D01*
X00567644D01*
Y02252952D01*
X00567831D01*
Y02253701D01*
X00568018D01*
Y02254263D01*
X00568205D01*
Y02255199D01*
X00568393D01*
Y02255387D01*
X00568580D01*
Y02256885D01*
X00568767D01*
Y02257447D01*
X00568955D01*
Y02258196D01*
X00569142D01*
Y02259132D01*
X00569329D01*
Y02259694D01*
X00569516D01*
Y02260068D01*
X00569704D01*
Y02261005D01*
X00569891D01*
Y02261941D01*
X00570078D01*
Y02262503D01*
X00570266D01*
Y02263065D01*
X00570453D01*
Y02263814D01*
X00570640D01*
Y02264563D01*
X00570827D01*
Y02265312D01*
X00571015D01*
Y02265874D01*
X00571202D01*
Y02266998D01*
X00571389D01*
Y02267372D01*
X00571576D01*
Y02268309D01*
X00571764D01*
Y02268870D01*
X00571951D01*
Y02269994D01*
X00572138D01*
Y02270369D01*
X00572326D01*
Y02271118D01*
X00572513D01*
Y02271492D01*
X00572700D01*
Y02272429D01*
X00572887D01*
Y02272803D01*
X00573075D01*
Y02273927D01*
X00573262D01*
Y02274489D01*
X00573449D01*
Y02275238D01*
X00573636D01*
Y02275612D01*
X00573824D01*
Y02276361D01*
X00574198D01*
Y02276549D01*
X00589555D01*
Y02276361D01*
D02*
G37*
%LPC*%
G36*
X01091327Y01588064D02*
X01085179Y01569473D01*
X01097548D01*
X01091327Y01588064D01*
D02*
G37*
G36*
X00962896Y01592582D02*
X00954526D01*
Y01579991D01*
X00963340D01*
X00963859Y01580065D01*
X00964451Y01580213D01*
X00965192Y01580435D01*
X00965932Y01580731D01*
X00966673Y01581176D01*
X00967414Y01581768D01*
X00967488Y01581842D01*
X00967710Y01582139D01*
X00968006Y01582509D01*
X00968377Y01583027D01*
X00968673Y01583694D01*
X00968969Y01584435D01*
X00969191Y01585323D01*
X00969265Y01586286D01*
Y01586434D01*
Y01586731D01*
X00969191Y01587175D01*
X00969043Y01587842D01*
X00968821Y01588508D01*
X00968451Y01589249D01*
X00968006Y01589990D01*
X00967414Y01590730D01*
X00967340Y01590804D01*
X00967117Y01591026D01*
X00966673Y01591323D01*
X00966155Y01591693D01*
X00965488Y01591989D01*
X00964747Y01592286D01*
X00963859Y01592508D01*
X00962896Y01592582D01*
D02*
G37*
G36*
Y01575769D02*
X00954526D01*
Y01558956D01*
X00963044D01*
X00963488Y01559030D01*
X00964155Y01559104D01*
X00964970Y01559252D01*
X00965932Y01559548D01*
X00966895Y01559993D01*
X00967932Y01560511D01*
X00968895Y01561326D01*
X00968969Y01561474D01*
X00969265Y01561770D01*
X00969636Y01562289D01*
X00970154Y01563029D01*
X00970599Y01563844D01*
X00970969Y01564881D01*
X00971265Y01566066D01*
X00971339Y01567325D01*
Y01567399D01*
Y01567473D01*
Y01567918D01*
X00971191Y01568584D01*
X00971043Y01569399D01*
X00970747Y01570362D01*
X00970302Y01571325D01*
X00969710Y01572362D01*
X00968895Y01573325D01*
X00968821Y01573399D01*
X00968451Y01573695D01*
X00967932Y01574065D01*
X00967266Y01574584D01*
X00966377Y01575028D01*
X00965340Y01575399D01*
X00964155Y01575695D01*
X00962896Y01575769D01*
D02*
G37*
%LPD*%
D10*
X00882672Y02033478D02*
G03*
X00841344Y02033050I-00020845J00017233D01*
G01*
X00771000Y02276500D02*
G03*
X00771000Y02276500I-00025000J00000000D01*
G01*
X01064522Y02238672D02*
G03*
X01064950Y02197343I-00017233J-00020845D01*
G01*
X01112500Y01707750D02*
G03*
X01112500Y01707750I-00025000J00000000D01*
G01*
X01579250Y02359250D02*
G03*
X01579250Y02359250I-00150000J00000000D01*
G01*
X00882672Y01902227D02*
G03*
X00841344Y01901800I-00020845J00017233D01*
G01*
X00882672Y01967478D02*
G03*
X00841344Y01967050I-00020845J00017233D01*
G01*
X00568750Y02461000D02*
G03*
X00538750Y02461000I-00015000J00000000D01*
G01*
X00598750D02*
G03*
X00568750Y02461000I-00015000J00000000D01*
G01*
X00628750D02*
G03*
X00598750Y02461000I-00015000J00000000D01*
G01*
X00598750Y02511000D02*
G03*
X00628750Y02511000I00015000J00000000D01*
G01*
X00568750D02*
G03*
X00598750Y02511000I00015000J00000000D01*
G01*
X00538750D02*
G03*
X00568750Y02511000I00015000J00000000D01*
G01*
X00192500Y02160750D02*
G03*
X00222500Y02160750I00015000J00000000D01*
G01*
X00162500D02*
G03*
X00192500Y02160750I00015000J00000000D01*
G01*
X00252500D02*
G03*
X00282500Y02160750I00015000J00000000D01*
G01*
X00222500D02*
G03*
X00252500Y02160750I00015000J00000000D01*
G01*
X00132500D02*
G03*
X00162500Y02160750I00015000J00000000D01*
G01*
X00157500Y02110750D02*
G03*
X00127500Y02110750I-00015000J00000000D01*
G01*
X00187500D02*
G03*
X00157500Y02110750I-00015000J00000000D01*
G01*
X00257375Y02110695D02*
G03*
X00227375Y02110695I-00015000J00000000D01*
G01*
X00287375D02*
G03*
X00257375Y02110695I-00015000J00000000D01*
G01*
X00222500Y01910000D02*
G03*
X00222500Y01910000I-00040000J00000000D01*
G01*
X01221750Y02067750D02*
G03*
X01221750Y02067750I-00025000J00000000D01*
G01*
X01157250Y01969000D02*
G03*
X01157250Y01969000I-00025000J00000000D01*
G01*
X01294750Y01909250D02*
G03*
X01294750Y01909250I-00025000J00000000D01*
G01*
X00572000Y01998500D02*
G03*
X00572000Y01998500I-00040000J00000000D01*
G01*
X00891500Y02320000D02*
Y02474250D01*
Y02320000D02*
X01083250D01*
Y02474250D01*
X00891500D02*
X01083250D01*
X00841344Y02033050D02*
X00882320D01*
X00757000Y02137250D02*
Y02241220D01*
X00709500Y02137250D02*
X00757000D01*
X00709500Y02241220D02*
X00757000D01*
X00709500Y02137250D02*
Y02241220D01*
X00721310Y02137250D02*
Y02241220D01*
X01064950Y02197343D02*
Y02238320D01*
X01404750Y01660200D02*
X01424750D01*
X01404750Y01616200D02*
X01424750D01*
Y01660200D01*
X01404750Y01616200D02*
Y01660200D01*
X01434500Y01663000D02*
X01478500D01*
X01434500Y01643000D02*
X01478500D01*
X01434500D02*
Y01663000D01*
X01478500Y01643000D02*
Y01663000D01*
X01559500Y01635500D02*
Y01655500D01*
X01515500Y01635500D02*
Y01655500D01*
Y01635500D02*
X01559500D01*
X01515500Y01655500D02*
X01559500D01*
X01311750Y01539750D02*
X01331750D01*
X01311750Y01583750D02*
X01331750D01*
X01311750Y01539750D02*
Y01583750D01*
X01331750Y01539750D02*
Y01583750D01*
X01348750Y01536750D02*
Y01556750D01*
X01392750Y01536750D02*
Y01556750D01*
X01348750D02*
X01392750D01*
X01348750Y01536750D02*
X01392750D01*
X01344250Y01585450D02*
Y01617450D01*
Y01585450D02*
X01390500D01*
Y01617450D01*
X01344250D02*
X01390500D01*
X01311750Y01594000D02*
X01331750D01*
X01311750Y01638000D02*
X01331750D01*
X01311750Y01594000D02*
Y01638000D01*
X01331750Y01594000D02*
Y01638000D01*
X01451750Y01688200D02*
Y01708200D01*
X01407750Y01688200D02*
Y01708200D01*
Y01688200D02*
X01451750D01*
X01407750Y01708200D02*
X01451750D01*
X01407750Y01755500D02*
X01451750D01*
X01407750Y01735500D02*
X01451750D01*
X01407750D02*
Y01755500D01*
X01451750Y01735500D02*
Y01755500D01*
X01461000Y02183000D02*
X01726000D01*
Y02098000D02*
Y02183000D01*
X01461000Y02098000D02*
X01726000D01*
X01461000D02*
Y02183000D01*
X00802500Y01569500D02*
Y01589500D01*
X00758500Y01569500D02*
Y01589500D01*
Y01569500D02*
X00802500D01*
X00758500Y01589500D02*
X00802500D01*
X00802500Y01615250D02*
Y01635250D01*
X00758500Y01615250D02*
Y01635250D01*
Y01615250D02*
X00802500D01*
X00758500Y01635250D02*
X00802500D01*
X00841344Y01901800D02*
X00882320D01*
X00841344Y01967050D02*
X00882320D01*
X00332250Y02396000D02*
Y02576000D01*
X00242250Y02396000D02*
X00332250D01*
X00242250D02*
Y02576000D01*
X00287250D01*
X00332250D01*
X00373000Y02526000D02*
X00414500D01*
X00373000Y02371000D02*
Y02526000D01*
X00414500Y02371000D02*
Y02526000D01*
X00373000Y02371000D02*
X00414500D01*
X00448750Y02351000D02*
Y02621000D01*
X00728750D01*
Y02351000D02*
Y02621000D01*
X00448750Y02351000D02*
X00728750D01*
X00538750Y02481000D02*
X00628750D01*
X00538750Y02491000D02*
X00628750D01*
X00538750Y02481000D02*
Y02491000D01*
Y02426000D02*
Y02461000D01*
X00628750Y02426000D02*
Y02461000D01*
Y02546000D02*
X00628750Y02511000D01*
X00538750Y02546000D02*
X00538750Y02511000D01*
X00021750Y01958500D02*
X00442500D01*
X00021750D02*
Y02313000D01*
X00442500Y01958500D02*
Y02313000D01*
X00021750D02*
X00442500D01*
X00132500Y02160750D02*
Y02180750D01*
X00282500Y02160875D02*
Y02180875D01*
X00142500Y02140750D02*
X00282670D01*
X00142500Y02130750D02*
X00282670D01*
X00127486Y02090621D02*
Y02110621D01*
X00187486Y02090621D02*
Y02110621D01*
X00287360Y02090566D02*
Y02110566D01*
X00227360Y02090566D02*
Y02110566D01*
X00638000Y01875000D02*
Y01895000D01*
X00682000Y01875000D02*
Y01895000D01*
X00638000D02*
X00682000D01*
X00638000Y01875000D02*
X00682000D01*
X00610000Y01919000D02*
X00630000D01*
X00610000Y01963000D02*
X00630000D01*
X00610000Y01919000D02*
Y01963000D01*
X00630000Y01919000D02*
Y01963000D01*
X00694500Y01904500D02*
Y02008470D01*
X00647000Y01904500D02*
X00694500D01*
X00647000Y02008470D02*
X00694500D01*
X00647000Y01904500D02*
Y02008470D01*
X00658810Y01904500D02*
Y02008470D01*
X00698750Y01837750D02*
X00718750D01*
X00698750Y01793750D02*
X00718750D01*
Y01837750D01*
X00698750Y01793750D02*
Y01837750D01*
X00724300Y01793750D02*
Y01837750D01*
X00744300Y01793750D02*
Y01837750D01*
X00724300Y01793750D02*
X00744300D01*
X00724300Y01837750D02*
X00744300D01*
X00620000Y01583500D02*
X00747000D01*
Y01772750D01*
X00620000D02*
X00747000D01*
X00620000Y01583500D02*
Y01772500D01*
X00485000Y01583500D02*
Y01772500D01*
Y01772750D02*
X00612000D01*
Y01583500D02*
Y01772750D01*
X00485000Y01583500D02*
X00612000D01*
X00350000D02*
Y01772500D01*
Y01772750D02*
X00477000D01*
Y01583500D02*
Y01772750D01*
X00350000Y01583500D02*
X00477000D01*
X00234900Y01542650D02*
X00241250Y01536300D01*
X00253950D01*
X00260300Y01542650D01*
X00253950Y01561700D02*
X00260300Y01555350D01*
X00241250Y01561700D02*
X00253950D01*
X00234900Y01555350D02*
X00241250Y01561700D01*
X00260300Y01542650D02*
Y01555350D01*
X00107900Y01561700D02*
X00133300D01*
Y01536300D02*
Y01561700D01*
X00107900Y01536300D02*
Y01561700D01*
X00133300Y01555350D02*
X00139650Y01561700D01*
X00152350D01*
X00158700Y01555350D01*
Y01542650D02*
Y01555350D01*
X00152350Y01536300D02*
X00158700Y01542650D01*
X00139650Y01536300D02*
X00152350D01*
X00133300Y01542650D02*
X00139650Y01536300D01*
X00107900D02*
X00133300D01*
X00158700Y01542650D02*
X00165050Y01536300D01*
X00177750D01*
X00184100Y01542650D01*
Y01555350D01*
X00177750Y01561700D02*
X00184100Y01555350D01*
X00165050Y01561700D02*
X00177750D01*
X00158700Y01555350D02*
X00165050Y01561700D01*
X00184100Y01542650D02*
X00190450Y01536300D01*
X00203150D01*
X00209500Y01542650D01*
Y01555350D01*
X00203150Y01561700D02*
X00209500Y01555350D01*
X00190450Y01561700D02*
X00203150D01*
X00184100Y01555350D02*
X00190450Y01561700D01*
X00209500Y01542650D02*
X00215850Y01536300D01*
X00228550D01*
X00234900Y01542650D01*
Y01555350D01*
X00228550Y01561700D02*
X00234900Y01555350D01*
X00215850Y01561700D02*
X00228550D01*
X00209500Y01555350D02*
X00215850Y01561700D01*
X00095000Y01768000D02*
X00139000D01*
X00095000Y01788000D02*
X00139000D01*
Y01768000D02*
Y01788000D01*
X00095000Y01768000D02*
Y01788000D01*
X01186058Y02261750D02*
X01230058D01*
X01186058Y02241750D02*
X01230058D01*
X01186058D02*
Y02261750D01*
X01230058Y02241750D02*
Y02261750D01*
X01200558Y02241750D02*
Y02261750D01*
X01215558Y02161250D02*
Y02181250D01*
X01186058Y02161250D02*
Y02181250D01*
X01230058Y02161250D02*
Y02181250D01*
X01186058D02*
X01230058D01*
X01186058Y02161250D02*
X01230058D01*
X00933250Y02599500D02*
Y02612500D01*
X00894250D02*
X00933250D01*
X00894250Y02526500D02*
Y02612500D01*
Y02491500D02*
Y02501500D01*
Y02491500D02*
X00933250D01*
Y02576500D01*
X01407750Y01802800D02*
X01451750D01*
X01407750Y01782800D02*
X01451750D01*
X01407750D02*
Y01802800D01*
X01451750Y01782800D02*
Y01802800D01*
X01230250Y02286500D02*
Y02306500D01*
X01186250Y02286500D02*
Y02306500D01*
Y02286500D02*
X01230250D01*
X01186250Y02306500D02*
X01230250D01*
X01186250Y02313000D02*
Y02333000D01*
X01230250Y02313000D02*
Y02333000D01*
X01186250D02*
X01230250D01*
X01186250Y02313000D02*
X01230250D01*
Y02340250D02*
Y02360250D01*
X01186250Y02340250D02*
Y02360250D01*
Y02340250D02*
X01230250D01*
X01186250Y02360250D02*
X01230250D01*
X01142500Y01744000D02*
Y01788000D01*
X01122500Y01744000D02*
Y01788000D01*
X01142500D01*
X01122500Y01744000D02*
X01142500D01*
X00994000Y01745600D02*
X01038000D01*
X00994000Y01765600D02*
X01038000D01*
Y01745600D02*
Y01765600D01*
X00994000Y01745600D02*
Y01765600D01*
Y01771000D02*
X01038000D01*
X00994000Y01791000D02*
X01038000D01*
Y01771000D02*
Y01791000D01*
X00994000Y01771000D02*
Y01791000D01*
Y01796400D02*
X01038000D01*
X00994000Y01816400D02*
X01038000D01*
Y01796400D02*
Y01816400D01*
X00994000Y01796400D02*
Y01816400D01*
Y01821800D02*
X01038000D01*
X00994000Y01841800D02*
X01038000D01*
Y01821800D02*
Y01841800D01*
X00994000Y01821800D02*
Y01841800D01*
X01122500Y01838675D02*
X01142500D01*
X01122500Y01794675D02*
X01142500D01*
Y01838675D01*
X01122500Y01794675D02*
Y01838675D01*
X00994000Y01872600D02*
X01038000D01*
X00994000Y01892600D02*
X01038000D01*
Y01872600D02*
Y01892600D01*
X00994000Y01872600D02*
Y01892600D01*
X01122500Y01889600D02*
X01142500D01*
X01122500Y01845600D02*
X01142500D01*
Y01889600D01*
X01122500Y01845600D02*
Y01889600D01*
X00994000Y01847200D02*
X01038000D01*
X00994000Y01867200D02*
X01038000D01*
Y01847200D02*
Y01867200D01*
X00994000Y01847200D02*
Y01867200D01*
X01591750Y01774750D02*
Y02005750D01*
Y01774750D02*
X01693250D01*
Y02005750D01*
X01591750D02*
X01693250D01*
X01140750Y01687000D02*
X01160750D01*
X01140750Y01731000D02*
X01160750D01*
X01140750Y01687000D02*
Y01731000D01*
X01160750Y01687000D02*
Y01731000D01*
X00126000Y01654000D02*
X00171000D01*
X00126000Y01706000D02*
X00171000D01*
X00126000Y01654000D02*
Y01706000D01*
X00171000Y01654000D02*
Y01706000D01*
X00824000Y02576000D02*
X00869000D01*
X00779000D02*
X00824000D01*
X00779000Y02396000D02*
Y02576000D01*
Y02396000D02*
X00869000D01*
Y02576000D01*
X00037000Y02528750D02*
X00138500D01*
Y02372500D02*
Y02528750D01*
X00037000Y02372500D02*
X00138500D01*
X00037000D02*
Y02528750D01*
X00247000Y01785000D02*
X00267000D01*
X00247000Y01741000D02*
X00267000D01*
Y01785000D01*
X00247000Y01741000D02*
Y01785000D01*
X00191000Y01738000D02*
Y01758000D01*
X00235000Y01738000D02*
Y01758000D01*
X00191000D02*
X00235000D01*
X00191000Y01738000D02*
X00235000D01*
X00193000Y01600000D02*
Y01620000D01*
X00237000Y01600000D02*
Y01620000D01*
X00193000D02*
X00237000D01*
X00193000Y01600000D02*
X00237000D01*
X00151000Y01785000D02*
X00171000D01*
X00151000Y01741000D02*
X00171000D01*
Y01785000D01*
X00151000Y01741000D02*
Y01785000D01*
X00095000Y01738000D02*
Y01758000D01*
X00139000Y01738000D02*
Y01758000D01*
X00095000D02*
X00139000D01*
X00095000Y01738000D02*
X00139000D01*
X00097000Y01600000D02*
Y01620000D01*
X00141000Y01600000D02*
Y01620000D01*
X00097000D02*
X00141000D01*
X00097000Y01600000D02*
X00141000D01*
X00191000Y01768000D02*
Y01788000D01*
X00235000Y01768000D02*
Y01788000D01*
X00191000D02*
X00235000D01*
X00191000Y01768000D02*
X00235000D01*
X01132480Y02181000D02*
X01176480D01*
X01132480Y02161000D02*
X01176480D01*
X01132480D02*
Y02181000D01*
X01176480Y02161000D02*
Y02181000D01*
X00791000Y02303750D02*
X00811000D01*
X00791000Y02259750D02*
X00811000D01*
Y02303750D01*
X00791000Y02259750D02*
Y02303750D01*
X00585000Y02018000D02*
X00605000D01*
X00585000Y01974000D02*
X00605000D01*
Y02018000D01*
X00585000Y01974000D02*
Y02018000D01*
X00222000Y01654000D02*
X00267000D01*
X00222000Y01706000D02*
X00267000D01*
X00222000Y01654000D02*
Y01706000D01*
X00267000Y01654000D02*
Y01706000D01*
X00136500Y02588000D02*
Y02687000D01*
Y02588000D02*
X00378500D01*
Y02687000D01*
X00136500D02*
X00378500D01*
D11*
X00834000Y02028200D02*
G03*
X00834000Y02028200I-00001250J00000000D01*
G01*
X01071050Y02188750D02*
G03*
X01071050Y02188750I-00001250J00000000D01*
G01*
X01395500Y01628450D02*
G03*
X01395500Y01628450I-00001250J00000000D01*
G01*
X00834000Y01896950D02*
G03*
X00834000Y01896950I-00001250J00000000D01*
G01*
Y01962200D02*
G03*
X00834000Y01962200I-00001250J00000000D01*
G01*
X00123250Y01640000D02*
G03*
X00123250Y01640000I-00001250J00000000D01*
G01*
X00219250D02*
G03*
X00219250Y01640000I-00001250J00000000D01*
G01*
D12*
X01601250Y01995000D02*
D03*
X00046500Y02518000D02*
D03*
D13*
X00769950Y01713650D02*
X00977750D01*
X00769950Y02241750D02*
X00977750D01*
Y01713650D02*
Y02241750D01*
X00769950Y01713650D02*
Y02241750D01*
X00349250Y01901698D02*
Y01906016D01*
X00346964Y01908302D02*
X00349250Y01906016D01*
X00336804Y01908302D02*
X00346964D01*
X00365760Y01913382D02*
X00371856Y01907286D01*
X00379476D01*
X00783750Y01716100D02*
X00812250D01*
X00783750D02*
Y02227650D01*
X00812250Y01716100D02*
Y02227650D01*
X00783750D02*
X00812250D01*
X00936250Y02227500D02*
X00964750D01*
Y01715950D02*
Y02227500D01*
X00936250Y01715950D02*
Y02227500D01*
Y01715950D02*
X00964750D01*
X00250500Y01834750D02*
Y01852750D01*
X00058500Y01835000D02*
X00249500D01*
X00058000Y01834500D02*
X00058500Y01835000D01*
X00058000Y01690500D02*
Y01834500D01*
Y01690500D02*
X00101750D01*
X00249500Y01835750D02*
X00250500Y01834750D01*
D14*
X00317360Y01922740D02*
X00359000D01*
Y01941140D01*
X00317360D02*
X00359000D01*
X00317360Y01922740D02*
Y01941140D01*
X00348340Y01925590D02*
Y01938290D01*
X00338180Y01931940D02*
X00353420D01*
X00338180D02*
X00348340Y01938290D01*
X00338180Y01931940D02*
Y01938290D01*
Y01925590D02*
Y01931940D01*
X00348340Y01925590D01*
X00332190Y01931940D02*
X00338180D01*
X00443250Y01941264D02*
X00484890D01*
X00443250Y01922864D02*
Y01941264D01*
Y01922864D02*
X00484890D01*
Y01941264D01*
X00453910Y01925714D02*
Y01938414D01*
X00448830Y01932064D02*
X00464070D01*
X00453910Y01925714D02*
X00464070Y01932064D01*
Y01925714D02*
Y01932064D01*
Y01938414D01*
X00453910D02*
X00464070Y01932064D01*
X00470060D01*
X00313500Y01892510D02*
X00355140D01*
X00313500Y01874110D02*
Y01892510D01*
Y01874110D02*
X00355140D01*
Y01892510D01*
X00324160Y01876960D02*
Y01889660D01*
X00319080Y01883310D02*
X00334320D01*
X00324160Y01876960D02*
X00334320Y01883310D01*
Y01876960D02*
Y01883310D01*
Y01889660D01*
X00324160D02*
X00334320Y01883310D01*
X00340310D01*
X00447110Y01873986D02*
X00488750D01*
Y01892386D01*
X00447110D02*
X00488750D01*
X00447110Y01873986D02*
Y01892386D01*
X00478090Y01876836D02*
Y01889536D01*
X00467930Y01883186D02*
X00483170D01*
X00467930D02*
X00478090Y01889536D01*
X00467930Y01883186D02*
Y01889536D01*
Y01876836D02*
Y01883186D01*
X00478090Y01876836D01*
X00461940Y01883186D02*
X00467930D01*
X01040690Y02280190D02*
X01046680D01*
X01056840Y02273840D01*
X01046680D02*
Y02280190D01*
Y02286540D01*
Y02280190D02*
X01056840Y02286540D01*
X01046680Y02280190D02*
X01061920D01*
X01056840Y02273840D02*
Y02286540D01*
X01025860Y02270990D02*
Y02289390D01*
X01067500D01*
Y02270990D02*
Y02289390D01*
X01025860Y02270990D02*
X01067500D01*
X00054750Y01901760D02*
X00096390D01*
X00054750Y01883360D02*
Y01901760D01*
Y01883360D02*
X00096390D01*
Y01901760D01*
X00065410Y01886210D02*
Y01898910D01*
X00060330Y01892560D02*
X00075570D01*
X00065410Y01886210D02*
X00075570Y01892560D01*
Y01886210D02*
Y01892560D01*
Y01898910D01*
X00065410D02*
X00075570Y01892560D01*
X00081560D01*
D15*
X01399750Y01561500D02*
X01430000D01*
X01399750D02*
Y01592250D01*
X01430000D01*
Y01561500D02*
Y01592250D01*
X01267500Y01561500D02*
X01297750D01*
X01267500D02*
Y01592250D01*
X01297750D01*
Y01561500D02*
Y01592250D01*
X01297500Y01613500D02*
Y01644250D01*
X01267250D02*
X01297500D01*
X01267250Y01613500D02*
Y01644250D01*
Y01613500D02*
X01297500D01*
X01085000Y01740350D02*
X01115250D01*
X01085000D02*
Y01771100D01*
X01115250D01*
Y01740350D02*
Y01771100D01*
X01086000Y01841950D02*
X01116250D01*
X01086000D02*
Y01872700D01*
X01116250D01*
Y01841950D02*
Y01872700D01*
X00649000Y02080500D02*
Y02111250D01*
X00618750D02*
X00649000D01*
X00618750Y02080500D02*
Y02111250D01*
Y02080500D02*
X00649000D01*
X01048500Y01816425D02*
X01078750D01*
X01048500D02*
Y01847175D01*
X01078750D01*
Y01816425D02*
Y01847175D01*
X01078000Y01765750D02*
Y01796500D01*
X01047750D02*
X01078000D01*
X01047750Y01765750D02*
Y01796500D01*
Y01765750D02*
X01078000D01*
X01077500Y01867350D02*
Y01898100D01*
X01047250D02*
X01077500D01*
X01047250Y01867350D02*
Y01898100D01*
Y01867350D02*
X01077500D01*
X01115250Y01791150D02*
Y01821900D01*
X01085000D02*
X01115250D01*
X01085000Y01791150D02*
Y01821900D01*
Y01791150D02*
X01115250D01*
X00543250Y02081000D02*
Y02111250D01*
X00574000D01*
Y02081000D02*
Y02111250D01*
X00543250Y02081000D02*
X00574000D01*
X01506000Y01872150D02*
X01536250D01*
X01506000D02*
Y01902900D01*
X01536250D01*
Y01872150D02*
Y01902900D01*
X01506000Y01824850D02*
X01536250D01*
X01506000D02*
Y01855600D01*
X01536250D01*
Y01824850D02*
Y01855600D01*
X01506000Y01919325D02*
X01536250D01*
X01506000D02*
Y01950075D01*
X01536250D01*
Y01919325D02*
Y01950075D01*
X01080500Y01637000D02*
X01110750D01*
X01080500D02*
Y01667750D01*
X01110750D01*
Y01637000D02*
Y01667750D01*
X01494500Y01583500D02*
X01524750D01*
X01494500D02*
Y01614250D01*
X01524750D01*
Y01583500D02*
Y01614250D01*
X01576000Y01629500D02*
X01606250D01*
X01576000D02*
Y01660250D01*
X01606250D01*
Y01629500D02*
Y01660250D01*
D16*
X00209250Y02401000D02*
Y02571000D01*
X00167250D02*
X00209250D01*
X00167250Y02401000D02*
X00209250D01*
X00167250D02*
Y02571000D01*
D17*
X00918300Y02028604D02*
X00920204Y02030509D01*
Y02034318D01*
X00918300Y02036222D01*
X00916395D01*
X00914491Y02034318D01*
Y02030509D01*
X00912587Y02028604D01*
X00910682D01*
X00908778Y02030509D01*
Y02034318D01*
X00910682Y02036222D01*
X00920204Y02024796D02*
Y02017178D01*
Y02020987D01*
X00908778D01*
Y02013369D02*
X00920204D01*
X00916395Y02009561D01*
X00920204Y02005752D01*
X00908778D01*
X00918300Y02001943D02*
X00920204Y02000039D01*
Y01996230D01*
X00918300Y01994326D01*
X00916395D01*
X00914491Y01996230D01*
Y01998134D01*
Y01996230D01*
X00912587Y01994326D01*
X00910682D01*
X00908778Y01996230D01*
Y02000039D01*
X00910682Y02001943D01*
X00908778Y01982899D02*
Y01990517D01*
X00916395Y01982899D01*
X00918300D01*
X00920204Y01984804D01*
Y01988612D01*
X00918300Y01990517D01*
X00920204Y01971473D02*
Y01979090D01*
X00914491D01*
Y01975282D01*
Y01979090D01*
X00908778D01*
Y01961951D02*
X00920204D01*
X00914491Y01967664D01*
Y01960047D01*
X00918300Y01956238D02*
X00920204Y01954333D01*
Y01950525D01*
X00918300Y01948620D01*
X00910682D01*
X00908778Y01950525D01*
Y01954333D01*
X00910682Y01956238D01*
X00918300D01*
X00908778Y01944812D02*
Y01941003D01*
Y01942907D01*
X00920204D01*
X00918300Y01944812D01*
Y01927672D02*
X00920204Y01929576D01*
Y01933385D01*
X00918300Y01935289D01*
X00910682D01*
X00908778Y01933385D01*
Y01929576D01*
X00910682Y01927672D01*
X00918300Y01916246D02*
X00920204Y01918150D01*
Y01921959D01*
X00918300Y01923863D01*
X00910682D01*
X00908778Y01921959D01*
Y01918150D01*
X00910682Y01916246D01*
X00920204Y01912437D02*
X00910682D01*
X00908778Y01910533D01*
Y01906724D01*
X00910682Y01904819D01*
X00920204D01*
Y01893393D02*
X00918300Y01897202D01*
X00914491Y01901011D01*
X00910682D01*
X00908778Y01899106D01*
Y01895297D01*
X00910682Y01893393D01*
X00912587D01*
X00914491Y01895297D01*
Y01901011D01*
X00920204Y01878158D02*
X00908778D01*
Y01872445D01*
X00910682Y01870540D01*
X00912587D01*
X00914491Y01872445D01*
Y01878158D01*
Y01872445D01*
X00916395Y01870540D01*
X00918300D01*
X00920204Y01872445D01*
Y01878158D01*
X00908778Y01866732D02*
Y01862923D01*
Y01864827D01*
X00920204D01*
Y01866732D01*
X00916395Y01855305D02*
Y01851497D01*
X00914491Y01849592D01*
X00908778D01*
Y01855305D01*
X00910682Y01857210D01*
X00912587Y01855305D01*
Y01849592D01*
X00916395Y01838166D02*
Y01843879D01*
X00914491Y01845783D01*
X00910682D01*
X00908778Y01843879D01*
Y01838166D01*
Y01834357D02*
X00920204D01*
X00912587D02*
X00916395Y01828644D01*
X00912587Y01834357D02*
X00908778Y01828644D01*
Y01811504D02*
X00920204D01*
Y01805791D01*
X00918300Y01803887D01*
X00914491D01*
X00912587Y01805791D01*
Y01811504D01*
X00908778Y01800078D02*
Y01796269D01*
Y01798174D01*
X00916395D01*
Y01800078D01*
X00908778Y01790556D02*
Y01786747D01*
Y01788652D01*
X00920204D01*
Y01790556D01*
X00908778Y01781034D02*
Y01777225D01*
Y01779130D01*
X00920204D01*
Y01781034D01*
X01056383Y02498713D02*
Y02487287D01*
Y02491096D01*
X01064000Y02498713D01*
X01058287Y02493000D01*
X01064000Y02487287D01*
X01067809D02*
X01071618D01*
X01069713D01*
Y02498713D01*
X01067809Y02496809D01*
X00819280Y02256915D02*
X00826898Y02245489D01*
Y02256915D02*
X00819280Y02245489D01*
X00836420D02*
Y02256915D01*
X00830706Y02251202D01*
X00838324D01*
X00964314Y02260979D02*
X00971932Y02249553D01*
Y02260979D02*
X00964314Y02249553D01*
X00975740Y02259075D02*
X00977645Y02260979D01*
X00981453D01*
X00983358Y02259075D01*
Y02257170D01*
X00981453Y02255266D01*
X00979549D01*
X00981453D01*
X00983358Y02253362D01*
Y02251457D01*
X00981453Y02249553D01*
X00977645D01*
X00975740Y02251457D01*
X01523497Y01661035D02*
Y01672461D01*
X01529210D01*
X01531115Y01670557D01*
Y01666748D01*
X01529210Y01664844D01*
X01523497D01*
X01527306D02*
X01531115Y01661035D01*
X01540636D02*
Y01672461D01*
X01534923Y01666748D01*
X01542541D01*
X01546350Y01672461D02*
X01553967D01*
Y01670557D01*
X01546350Y01662939D01*
Y01661035D01*
X00847765Y01887713D02*
Y01880096D01*
X00851574Y01876287D01*
X00855383Y01880096D01*
Y01887713D01*
X00859191D02*
X00866809D01*
X00863000D01*
Y01876287D01*
X00876331D02*
Y01887713D01*
X00870618Y01882000D01*
X00878235D01*
X01082765Y01920713D02*
X01090383D01*
X01086574D01*
Y01909287D01*
X01094191D02*
Y01920713D01*
X01099904D01*
X01101809Y01918809D01*
Y01915000D01*
X01099904Y01913096D01*
X01094191D01*
X01113235Y01920713D02*
X01105618D01*
Y01915000D01*
X01109426Y01916904D01*
X01111331D01*
X01113235Y01915000D01*
Y01911191D01*
X01111331Y01909287D01*
X01107522D01*
X01105618Y01911191D01*
X01083765Y01889713D02*
X01091383D01*
X01087574D01*
Y01878287D01*
X01095191D02*
Y01889713D01*
X01100904D01*
X01102809Y01887809D01*
Y01884000D01*
X01100904Y01882096D01*
X01095191D01*
X01112331Y01878287D02*
Y01889713D01*
X01106618Y01884000D01*
X01114235D01*
X00734765Y01844287D02*
Y01855713D01*
X00740478D01*
X00742383Y01853809D01*
Y01850000D01*
X00740478Y01848096D01*
X00734765D01*
X00738574D02*
X00742383Y01844287D01*
X00753809D02*
X00746191D01*
X00753809Y01851904D01*
Y01853809D01*
X00751904Y01855713D01*
X00748096D01*
X00746191Y01853809D01*
X00757618D02*
X00759522Y01855713D01*
X00763331D01*
X00765235Y01853809D01*
Y01851904D01*
X00763331Y01850000D01*
X00761426D01*
X00763331D01*
X00765235Y01848096D01*
Y01846191D01*
X00763331Y01844287D01*
X00759522D01*
X00757618Y01846191D01*
X00097793Y01679065D02*
Y01669543D01*
X00099697Y01667639D01*
X00103506D01*
X00105410Y01669543D01*
Y01679065D01*
X00109219Y01667639D02*
X00113028D01*
X00111123D01*
Y01679065D01*
X00109219Y01677161D01*
X01001765Y01696287D02*
Y01707713D01*
X01007478D01*
X01009382Y01705809D01*
Y01702000D01*
X01007478Y01700096D01*
X01001765D01*
X01005574D02*
X01009382Y01696287D01*
X01013191Y01705809D02*
X01015096Y01707713D01*
X01018904D01*
X01020809Y01705809D01*
Y01703904D01*
X01018904Y01702000D01*
X01017000D01*
X01018904D01*
X01020809Y01700096D01*
Y01698191D01*
X01018904Y01696287D01*
X01015096D01*
X01013191Y01698191D01*
X01032235Y01707713D02*
X01024618D01*
Y01702000D01*
X01028426Y01703904D01*
X01030331D01*
X01032235Y01702000D01*
Y01698191D01*
X01030331Y01696287D01*
X01026522D01*
X01024618Y01698191D01*
X01001765Y01712287D02*
Y01723713D01*
X01007478D01*
X01009382Y01721809D01*
Y01718000D01*
X01007478Y01716096D01*
X01001765D01*
X01005574D02*
X01009382Y01712287D01*
X01013191Y01721809D02*
X01015096Y01723713D01*
X01018904D01*
X01020809Y01721809D01*
Y01719904D01*
X01018904Y01718000D01*
X01017000D01*
X01018904D01*
X01020809Y01716096D01*
Y01714191D01*
X01018904Y01712287D01*
X01015096D01*
X01013191Y01714191D01*
X01030331Y01712287D02*
Y01723713D01*
X01024618Y01718000D01*
X01032235D01*
X01001765Y01729287D02*
Y01740713D01*
X01007478D01*
X01009382Y01738809D01*
Y01735000D01*
X01007478Y01733096D01*
X01001765D01*
X01005574D02*
X01009382Y01729287D01*
X01013191Y01738809D02*
X01015096Y01740713D01*
X01018904D01*
X01020809Y01738809D01*
Y01736904D01*
X01018904Y01735000D01*
X01017000D01*
X01018904D01*
X01020809Y01733096D01*
Y01731191D01*
X01018904Y01729287D01*
X01015096D01*
X01013191Y01731191D01*
X01024618Y01738809D02*
X01026522Y01740713D01*
X01030331D01*
X01032235Y01738809D01*
Y01736904D01*
X01030331Y01735000D01*
X01028426D01*
X01030331D01*
X01032235Y01733096D01*
Y01731191D01*
X01030331Y01729287D01*
X01026522D01*
X01024618Y01731191D01*
X00613794Y01969645D02*
Y01981071D01*
X00619507D01*
X00621412Y01979167D01*
Y01975358D01*
X00619507Y01973454D01*
X00613794D01*
X00617603D02*
X00621412Y01969645D01*
X00625220Y01981071D02*
X00632838D01*
Y01979167D01*
X00625220Y01971549D01*
Y01969645D01*
X00612478Y01880287D02*
Y01891713D01*
X00618191D01*
X00620096Y01889809D01*
Y01886000D01*
X00618191Y01884096D01*
X00612478D01*
X00616287D02*
X00620096Y01880287D01*
X00631522Y01891713D02*
X00627713Y01889809D01*
X00623904Y01886000D01*
Y01882191D01*
X00625809Y01880287D01*
X00629618D01*
X00631522Y01882191D01*
Y01884096D01*
X00629618Y01886000D01*
X00623904D01*
X00868765Y02025713D02*
Y02018096D01*
X00872574Y02014287D01*
X00876383Y02018096D01*
Y02025713D01*
X00880191D02*
X00887809D01*
X00884000D01*
Y02014287D01*
X00891618Y02023809D02*
X00893522Y02025713D01*
X00897331D01*
X00899235Y02023809D01*
Y02021904D01*
X00897331Y02020000D01*
X00895426D01*
X00897331D01*
X00899235Y02018096D01*
Y02016191D01*
X00897331Y02014287D01*
X00893522D01*
X00891618Y02016191D01*
X00880765Y02087713D02*
Y02080096D01*
X00884574Y02076287D01*
X00888382Y02080096D01*
Y02087713D01*
X00892191D02*
X00899809D01*
X00896000D01*
Y02076287D01*
X00911235D02*
X00903618D01*
X00911235Y02083904D01*
Y02085809D01*
X00909331Y02087713D01*
X00905522D01*
X00903618Y02085809D01*
X01074551Y02231261D02*
Y02223644D01*
X01078360Y02219835D01*
X01082169Y02223644D01*
Y02231261D01*
X01085978D02*
X01093595D01*
X01089786D01*
Y02219835D01*
X01097404D02*
X01101213D01*
X01099308D01*
Y02231261D01*
X01097404Y02229357D01*
X01030991Y02309493D02*
Y02301876D01*
X01034800Y02298067D01*
X01038608Y02301876D01*
Y02309493D01*
X01042417D02*
Y02298067D01*
X01048130D01*
X01050035Y02299971D01*
Y02307589D01*
X01048130Y02309493D01*
X01042417D01*
X01053844Y02299971D02*
X01055748Y02298067D01*
X01059557D01*
X01061461Y02299971D01*
Y02307589D01*
X01059557Y02309493D01*
X01055748D01*
X01053844Y02307589D01*
Y02305684D01*
X01055748Y02303780D01*
X01061461D01*
X00300487Y01912999D02*
Y01905382D01*
X00304296Y01901573D01*
X00308104Y01905382D01*
Y01912999D01*
X00311913D02*
Y01901573D01*
X00317626D01*
X00319531Y01903477D01*
Y01911095D01*
X00317626Y01912999D01*
X00311913D01*
X00330957D02*
X00323340D01*
Y01907286D01*
X00327148Y01909190D01*
X00329053D01*
X00330957Y01907286D01*
Y01903477D01*
X00329053Y01901573D01*
X00325244D01*
X00323340Y01903477D01*
X00453649Y01964307D02*
Y01956690D01*
X00457458Y01952881D01*
X00461267Y01956690D01*
Y01964307D01*
X00465075D02*
Y01952881D01*
X00470788D01*
X00472693Y01954785D01*
Y01962403D01*
X00470788Y01964307D01*
X00465075D01*
X00482215Y01952881D02*
Y01964307D01*
X00476502Y01958594D01*
X00484119D01*
X00452633Y01912999D02*
Y01905382D01*
X00456442Y01901573D01*
X00460251Y01905382D01*
Y01912999D01*
X00464059D02*
Y01901573D01*
X00469772D01*
X00471677Y01903477D01*
Y01911095D01*
X00469772Y01912999D01*
X00464059D01*
X00475486Y01911095D02*
X00477390Y01912999D01*
X00481199D01*
X00483103Y01911095D01*
Y01909190D01*
X00481199Y01907286D01*
X00479294D01*
X00481199D01*
X00483103Y01905382D01*
Y01903477D01*
X00481199Y01901573D01*
X00477390D01*
X00475486Y01903477D01*
X00062765Y01923713D02*
Y01916096D01*
X00066574Y01912287D01*
X00070382Y01916096D01*
Y01923713D01*
X00074191D02*
Y01912287D01*
X00079904D01*
X00081809Y01914191D01*
Y01921809D01*
X00079904Y01923713D01*
X00074191D01*
X00093235Y01912287D02*
X00085618D01*
X00093235Y01919904D01*
Y01921809D01*
X00091331Y01923713D01*
X00087522D01*
X00085618Y01921809D01*
X00386465Y01913507D02*
Y01905890D01*
X00390274Y01902081D01*
X00394083Y01905890D01*
Y01913507D01*
X00397892D02*
Y01902081D01*
X00403605D01*
X00405509Y01903985D01*
Y01911603D01*
X00403605Y01913507D01*
X00397892D01*
X00409318Y01902081D02*
X00413127D01*
X00411222D01*
Y01913507D01*
X00409318Y01911603D01*
X01192765Y02235713D02*
Y02228096D01*
X01196574Y02224287D01*
X01200383Y02228096D01*
Y02235713D01*
X01204191D02*
Y02224287D01*
X01209904D01*
X01211809Y02226191D01*
Y02233809D01*
X01209904Y02235713D01*
X01204191D01*
X01215618Y02233809D02*
X01217522Y02235713D01*
X01221331D01*
X01223235Y02233809D01*
Y02231904D01*
X01221331Y02230000D01*
X01223235Y02228096D01*
Y02226191D01*
X01221331Y02224287D01*
X01217522D01*
X01215618Y02226191D01*
Y02228096D01*
X01217522Y02230000D01*
X01215618Y02231904D01*
Y02233809D01*
X01217522Y02230000D02*
X01221331D01*
X01187765Y02202713D02*
Y02195096D01*
X01191574Y02191287D01*
X01195383Y02195096D01*
Y02202713D01*
X01199191D02*
Y02191287D01*
X01204904D01*
X01206809Y02193191D01*
Y02200809D01*
X01204904Y02202713D01*
X01199191D01*
X01210618D02*
X01218235D01*
Y02200809D01*
X01210618Y02193191D01*
Y02191287D01*
X01219778Y01634361D02*
X01227395D01*
X01223587D01*
Y01622935D01*
X01231204D02*
Y01634361D01*
X01236917D01*
X01238822Y01632457D01*
Y01628648D01*
X01236917Y01626744D01*
X01231204D01*
X01242631Y01622935D02*
X01246439D01*
X01244535D01*
Y01634361D01*
X01242631Y01632457D01*
X01252152Y01634361D02*
X01259770D01*
Y01632457D01*
X01252152Y01624839D01*
Y01622935D01*
X01495622Y01806319D02*
X01503239D01*
X01499431D01*
Y01794893D01*
X01507048D02*
Y01806319D01*
X01512761D01*
X01514666Y01804415D01*
Y01800606D01*
X01512761Y01798702D01*
X01507048D01*
X01518475Y01794893D02*
X01522283D01*
X01520379D01*
Y01806319D01*
X01518475Y01804415D01*
X01535614Y01806319D02*
X01531805Y01804415D01*
X01527997Y01800606D01*
Y01796797D01*
X01529901Y01794893D01*
X01533710D01*
X01535614Y01796797D01*
Y01798702D01*
X01533710Y01800606D01*
X01527997D01*
X01410278Y01892171D02*
X01417896D01*
X01414087D01*
Y01880745D01*
X01421704D02*
Y01892171D01*
X01427417D01*
X01429322Y01890267D01*
Y01886458D01*
X01427417Y01884554D01*
X01421704D01*
X01433131Y01880745D02*
X01436939D01*
X01435035D01*
Y01892171D01*
X01433131Y01890267D01*
X01450270Y01892171D02*
X01442652D01*
Y01886458D01*
X01446461Y01888362D01*
X01448366D01*
X01450270Y01886458D01*
Y01882649D01*
X01448366Y01880745D01*
X01444557D01*
X01442652Y01882649D01*
X01520260Y01978785D02*
X01527878D01*
X01524069D01*
Y01967359D01*
X01531686D02*
Y01978785D01*
X01537399D01*
X01539304Y01976881D01*
Y01973072D01*
X01537399Y01971168D01*
X01531686D01*
X01543113Y01967359D02*
X01546921D01*
X01545017D01*
Y01978785D01*
X01543113Y01976881D01*
X01558348Y01967359D02*
Y01978785D01*
X01552634Y01973072D01*
X01560252D01*
X01614240Y01651887D02*
X01621857D01*
X01618049D01*
Y01640461D01*
X01625666D02*
Y01651887D01*
X01631379D01*
X01633284Y01649983D01*
Y01646174D01*
X01631379Y01644270D01*
X01625666D01*
X01637093Y01640461D02*
X01640901D01*
X01638997D01*
Y01651887D01*
X01637093Y01649983D01*
X01646615D02*
X01648519Y01651887D01*
X01652328D01*
X01654232Y01649983D01*
Y01648078D01*
X01652328Y01646174D01*
X01650423D01*
X01652328D01*
X01654232Y01644270D01*
Y01642365D01*
X01652328Y01640461D01*
X01648519D01*
X01646615Y01642365D01*
X01535754Y01604897D02*
X01543371D01*
X01539563D01*
Y01593471D01*
X01547180D02*
Y01604897D01*
X01552893D01*
X01554798Y01602993D01*
Y01599184D01*
X01552893Y01597280D01*
X01547180D01*
X01558607Y01593471D02*
X01562415D01*
X01560511D01*
Y01604897D01*
X01558607Y01602993D01*
X01575746Y01593471D02*
X01568129D01*
X01575746Y01601088D01*
Y01602993D01*
X01573842Y01604897D01*
X01570033D01*
X01568129Y01602993D01*
X01224476Y01581783D02*
X01232094D01*
X01228285D01*
Y01570357D01*
X01235903D02*
Y01581783D01*
X01241616D01*
X01243520Y01579879D01*
Y01576070D01*
X01241616Y01574166D01*
X01235903D01*
X01247329Y01570357D02*
X01251138D01*
X01249233D01*
Y01581783D01*
X01247329Y01579879D01*
X01256851Y01570357D02*
X01260660D01*
X01258755D01*
Y01581783D01*
X01256851Y01579879D01*
X01436948Y01583053D02*
X01444565D01*
X01440757D01*
Y01571627D01*
X01448374D02*
Y01583053D01*
X01454087D01*
X01455992Y01581149D01*
Y01577340D01*
X01454087Y01575436D01*
X01448374D01*
X01459801Y01571627D02*
X01463609D01*
X01461705D01*
Y01583053D01*
X01459801Y01581149D01*
X01469323D02*
X01471227Y01583053D01*
X01475036D01*
X01476940Y01581149D01*
Y01573531D01*
X01475036Y01571627D01*
X01471227D01*
X01469323Y01573531D01*
Y01581149D01*
X01116515Y01657963D02*
X01124133D01*
X01120324D01*
Y01646537D01*
X01127941D02*
Y01657963D01*
X01133654D01*
X01135559Y01656059D01*
Y01652250D01*
X01133654Y01650346D01*
X01127941D01*
X01139368Y01648441D02*
X01141272Y01646537D01*
X01145081D01*
X01146985Y01648441D01*
Y01656059D01*
X01145081Y01657963D01*
X01141272D01*
X01139368Y01656059D01*
Y01654154D01*
X01141272Y01652250D01*
X01146985D01*
X01083765Y01905713D02*
X01091383D01*
X01087574D01*
Y01894287D01*
X01095191D02*
Y01905713D01*
X01100904D01*
X01102809Y01903809D01*
Y01900000D01*
X01100904Y01898096D01*
X01095191D01*
X01106618Y01903809D02*
X01108522Y01905713D01*
X01112331D01*
X01114235Y01903809D01*
Y01901904D01*
X01112331Y01900000D01*
X01114235Y01898096D01*
Y01896191D01*
X01112331Y01894287D01*
X01108522D01*
X01106618Y01896191D01*
Y01898096D01*
X01108522Y01900000D01*
X01106618Y01901904D01*
Y01903809D01*
X01108522Y01900000D02*
X01112331D01*
X01045765Y01757713D02*
X01053382D01*
X01049574D01*
Y01746287D01*
X01057191D02*
Y01757713D01*
X01062904D01*
X01064809Y01755809D01*
Y01752000D01*
X01062904Y01750096D01*
X01057191D01*
X01068618Y01757713D02*
X01076235D01*
Y01755809D01*
X01068618Y01748191D01*
Y01746287D01*
X01041765Y01742713D02*
X01049382D01*
X01045574D01*
Y01731287D01*
X01053191D02*
Y01742713D01*
X01058904D01*
X01060809Y01740809D01*
Y01737000D01*
X01058904Y01735096D01*
X01053191D01*
X01072235Y01742713D02*
X01068426Y01740809D01*
X01064618Y01737000D01*
Y01733191D01*
X01066522Y01731287D01*
X01070331D01*
X01072235Y01733191D01*
Y01735096D01*
X01070331Y01737000D01*
X01064618D01*
X01044765Y01916713D02*
X01052383D01*
X01048574D01*
Y01905287D01*
X01056191D02*
Y01916713D01*
X01061904D01*
X01063809Y01914809D01*
Y01911000D01*
X01061904Y01909096D01*
X01056191D01*
X01067617Y01914809D02*
X01069522Y01916713D01*
X01073331D01*
X01075235Y01914809D01*
Y01912904D01*
X01073331Y01911000D01*
X01071426D01*
X01073331D01*
X01075235Y01909096D01*
Y01907191D01*
X01073331Y01905287D01*
X01069522D01*
X01067617Y01907191D01*
X00542544Y02132072D02*
X00550162D01*
X00546353D01*
Y02120646D01*
X00553970D02*
Y02132072D01*
X00559683D01*
X00561588Y02130168D01*
Y02126359D01*
X00559683Y02124455D01*
X00553970D01*
X00573014Y02120646D02*
X00565397D01*
X00573014Y02128264D01*
Y02130168D01*
X00571110Y02132072D01*
X00567301D01*
X00565397Y02130168D01*
X00617982Y02132072D02*
X00625600D01*
X00621791D01*
Y02120646D01*
X00629408D02*
Y02132072D01*
X00635121D01*
X00637026Y02130168D01*
Y02126359D01*
X00635121Y02124455D01*
X00629408D01*
X00640835Y02120646D02*
X00644643D01*
X00642739D01*
Y02132072D01*
X00640835Y02130168D01*
X00569383Y02640713D02*
Y02629287D01*
X00577000D01*
X00580809D02*
X00584618D01*
X00582713D01*
Y02640713D01*
X00580809Y02638809D01*
X01592580Y02025138D02*
X01600197Y02013712D01*
Y02025138D02*
X01592580Y02013712D01*
X01611624Y02025138D02*
X01604006D01*
Y02019425D01*
X01607815Y02021329D01*
X01609720D01*
X01611624Y02019425D01*
Y02015616D01*
X01609720Y02013712D01*
X01605911D01*
X01604006Y02015616D01*
X00660776Y01791966D02*
Y01780540D01*
Y01786253D01*
X00668393D01*
Y01791966D01*
Y01780540D01*
X00679820Y01790062D02*
X00677915Y01791966D01*
X00674107D01*
X00672202Y01790062D01*
Y01782444D01*
X00674107Y01780540D01*
X00677915D01*
X00679820Y01782444D01*
Y01786253D01*
X00676011D01*
X00683629Y01790062D02*
X00685533Y01791966D01*
X00689342D01*
X00691246Y01790062D01*
Y01788158D01*
X00689342Y01786253D01*
X00687437D01*
X00689342D01*
X00691246Y01784349D01*
Y01782444D01*
X00689342Y01780540D01*
X00685533D01*
X00683629Y01782444D01*
X00525902Y01791966D02*
Y01780540D01*
Y01786253D01*
X00533520D01*
Y01791966D01*
Y01780540D01*
X00544946Y01790062D02*
X00543041Y01791966D01*
X00539233D01*
X00537328Y01790062D01*
Y01782444D01*
X00539233Y01780540D01*
X00543041D01*
X00544946Y01782444D01*
Y01786253D01*
X00541137D01*
X00556372Y01780540D02*
X00548755D01*
X00556372Y01788158D01*
Y01790062D01*
X00554468Y01791966D01*
X00550659D01*
X00548755Y01790062D01*
X00390774Y01791966D02*
Y01780540D01*
Y01786253D01*
X00398391D01*
Y01791966D01*
Y01780540D01*
X00409818Y01790062D02*
X00407914Y01791966D01*
X00404105D01*
X00402200Y01790062D01*
Y01782444D01*
X00404105Y01780540D01*
X00407914D01*
X00409818Y01782444D01*
Y01786253D01*
X00406009D01*
X00413627Y01780540D02*
X00417435D01*
X00415531D01*
Y01791966D01*
X00413627Y01790062D01*
X00378669Y02535287D02*
Y02546713D01*
X00384382D01*
X00386287Y02544809D01*
Y02541000D01*
X00384382Y02539096D01*
X00378669D01*
X00382478D02*
X00386287Y02535287D01*
X00390096Y02546713D02*
Y02537191D01*
X00392000Y02535287D01*
X00395809D01*
X00397713Y02537191D01*
Y02546713D01*
X00401522Y02535287D02*
X00405331D01*
X00403426D01*
Y02546713D01*
X00401522Y02544809D01*
X01574335Y02201809D02*
X01572430Y02203713D01*
X01568622D01*
X01566717Y02201809D01*
Y02194191D01*
X01568622Y02192287D01*
X01572430D01*
X01574335Y02194191D01*
X01578143Y02192287D02*
X01581952D01*
X01580048D01*
Y02203713D01*
X01578143Y02201809D01*
X01595283Y02192287D02*
X01587665D01*
X01595283Y02199904D01*
Y02201809D01*
X01593378Y02203713D01*
X01589570D01*
X01587665Y02201809D01*
X00787398Y02593464D02*
X00785493Y02595368D01*
X00781684D01*
X00779780Y02593464D01*
Y02585846D01*
X00781684Y02583942D01*
X00785493D01*
X00787398Y02585846D01*
X00791206Y02595368D02*
X00798824D01*
Y02593464D01*
X00791206Y02585846D01*
Y02583942D01*
X00348096Y02571809D02*
X00346191Y02573713D01*
X00342383D01*
X00340478Y02571809D01*
Y02564191D01*
X00342383Y02562287D01*
X00346191D01*
X00348096Y02564191D01*
X00359522Y02573713D02*
X00351904D01*
Y02568000D01*
X00355713Y02569904D01*
X00357617D01*
X00359522Y02568000D01*
Y02564191D01*
X00357617Y02562287D01*
X00353809D01*
X00351904Y02564191D01*
X00037846Y02548124D02*
X00045464Y02536698D01*
Y02548124D02*
X00037846Y02536698D01*
X00056890D02*
X00049272D01*
X00056890Y02544315D01*
Y02546220D01*
X00054985Y02548124D01*
X00051177D01*
X00049272Y02546220D01*
X00216478Y02567287D02*
Y02578713D01*
X00222191D01*
X00224096Y02576809D01*
Y02573000D01*
X00222191Y02571096D01*
X00216478D01*
X00220287D02*
X00224096Y02567287D01*
X00235522Y02578713D02*
X00227904D01*
Y02573000D01*
X00231713Y02574904D01*
X00233617D01*
X00235522Y02573000D01*
Y02569191D01*
X00233617Y02567287D01*
X00229809D01*
X00227904Y02569191D01*
X01149717Y02290287D02*
Y02301713D01*
X01155430D01*
X01157335Y02299809D01*
Y02296000D01*
X01155430Y02294096D01*
X01149717D01*
X01153526D02*
X01157335Y02290287D01*
X01161143D02*
X01164952D01*
X01163048D01*
Y02301713D01*
X01161143Y02299809D01*
X01178283Y02301713D02*
X01170665D01*
Y02296000D01*
X01174474Y02297904D01*
X01176378D01*
X01178283Y02296000D01*
Y02292191D01*
X01176378Y02290287D01*
X01172570D01*
X01170665Y02292191D01*
X01149717Y02316287D02*
Y02327713D01*
X01155430D01*
X01157335Y02325809D01*
Y02322000D01*
X01155430Y02320096D01*
X01149717D01*
X01153526D02*
X01157335Y02316287D01*
X01161143D02*
X01164952D01*
X01163048D01*
Y02327713D01*
X01161143Y02325809D01*
X01176378Y02316287D02*
Y02327713D01*
X01170665Y02322000D01*
X01178283D01*
X01148717Y02344287D02*
Y02355713D01*
X01154430D01*
X01156335Y02353809D01*
Y02350000D01*
X01154430Y02348096D01*
X01148717D01*
X01152526D02*
X01156335Y02344287D01*
X01160144D02*
X01163952D01*
X01162048D01*
Y02355713D01*
X01160144Y02353809D01*
X01169665D02*
X01171570Y02355713D01*
X01175378D01*
X01177283Y02353809D01*
Y02351904D01*
X01175378Y02350000D01*
X01173474D01*
X01175378D01*
X01177283Y02348096D01*
Y02346191D01*
X01175378Y02344287D01*
X01171570D01*
X01169665Y02346191D01*
X00204382Y02335713D02*
X00212000D01*
X00208191D01*
Y02324287D01*
X00215809D02*
X00219618D01*
X00217713D01*
Y02335713D01*
X00215809Y02333809D01*
X00269496Y01555621D02*
X00277114Y01544195D01*
Y01555621D02*
X00269496Y01544195D01*
X00280923D02*
X00284732D01*
X00282827D01*
Y01555621D01*
X00280923Y01553717D01*
X00808765Y01620287D02*
Y01631713D01*
X00814478D01*
X00816383Y01629809D01*
Y01626000D01*
X00814478Y01624096D01*
X00808765D01*
X00812574D02*
X00816383Y01620287D01*
X00827809D02*
X00820191D01*
X00827809Y01627904D01*
Y01629809D01*
X00825904Y01631713D01*
X00822096D01*
X00820191Y01629809D01*
X00831618Y01622191D02*
X00833522Y01620287D01*
X00837331D01*
X00839235Y01622191D01*
Y01629809D01*
X00837331Y01631713D01*
X00833522D01*
X00831618Y01629809D01*
Y01627904D01*
X00833522Y01626000D01*
X00839235D01*
X00809765Y01575287D02*
Y01586713D01*
X00815478D01*
X00817383Y01584809D01*
Y01581000D01*
X00815478Y01579096D01*
X00809765D01*
X00813574D02*
X00817383Y01575287D01*
X00828809D02*
X00821191D01*
X00828809Y01582904D01*
Y01584809D01*
X00826904Y01586713D01*
X00823096D01*
X00821191Y01584809D01*
X00838331Y01575287D02*
Y01586713D01*
X00832618Y01581000D01*
X00840235D01*
X00694765Y01844287D02*
Y01855713D01*
X00700478D01*
X00702383Y01853809D01*
Y01850000D01*
X00700478Y01848096D01*
X00694765D01*
X00698574D02*
X00702383Y01844287D01*
X00713809D02*
X00706191D01*
X00713809Y01851904D01*
Y01853809D01*
X00711904Y01855713D01*
X00708096D01*
X00706191Y01853809D01*
X00725235Y01844287D02*
X00717618D01*
X00725235Y01851904D01*
Y01853809D01*
X00723331Y01855713D01*
X00719522D01*
X00717618Y01853809D01*
X00247526Y01791591D02*
Y01803017D01*
X00253239D01*
X00255144Y01801113D01*
Y01797304D01*
X00253239Y01795400D01*
X00247526D01*
X00251335D02*
X00255144Y01791591D01*
X00258952Y01793495D02*
X00260857Y01791591D01*
X00264666D01*
X00266570Y01793495D01*
Y01801113D01*
X00264666Y01803017D01*
X00260857D01*
X00258952Y01801113D01*
Y01799208D01*
X00260857Y01797304D01*
X00266570D01*
X00194694Y01720725D02*
Y01732151D01*
X00200407D01*
X00202312Y01730247D01*
Y01726438D01*
X00200407Y01724534D01*
X00194694D01*
X00198503D02*
X00202312Y01720725D01*
X00206120Y01730247D02*
X00208025Y01732151D01*
X00211833D01*
X00213738Y01730247D01*
Y01728342D01*
X00211833Y01726438D01*
X00213738Y01724534D01*
Y01722629D01*
X00211833Y01720725D01*
X00208025D01*
X00206120Y01722629D01*
Y01724534D01*
X00208025Y01726438D01*
X00206120Y01728342D01*
Y01730247D01*
X00208025Y01726438D02*
X00211833D01*
X00169802Y01603123D02*
Y01614549D01*
X00175515D01*
X00177420Y01612645D01*
Y01608836D01*
X00175515Y01606932D01*
X00169802D01*
X00173611D02*
X00177420Y01603123D01*
X00186942D02*
Y01614549D01*
X00181228Y01608836D01*
X00188846D01*
X00165728Y01792287D02*
Y01803713D01*
X00171441D01*
X00173346Y01801809D01*
Y01798000D01*
X00171441Y01796096D01*
X00165728D01*
X00169537D02*
X00173346Y01792287D01*
X00177154Y01801809D02*
X00179059Y01803713D01*
X00182868D01*
X00184772Y01801809D01*
Y01799904D01*
X00182868Y01798000D01*
X00180963D01*
X00182868D01*
X00184772Y01796096D01*
Y01794191D01*
X00182868Y01792287D01*
X00179059D01*
X00177154Y01794191D01*
X00069472Y01742315D02*
Y01753741D01*
X00075185D01*
X00077090Y01751837D01*
Y01748028D01*
X00075185Y01746124D01*
X00069472D01*
X00073281D02*
X00077090Y01742315D01*
X00088516D02*
X00080898D01*
X00088516Y01749932D01*
Y01751837D01*
X00086611Y01753741D01*
X00082803D01*
X00080898Y01751837D01*
X00075949Y01612267D02*
Y01623693D01*
X00081662D01*
X00083566Y01621789D01*
Y01617980D01*
X00081662Y01616076D01*
X00075949D01*
X00079757D02*
X00083566Y01612267D01*
X00087375D02*
X00091184D01*
X00089279D01*
Y01623693D01*
X00087375Y01621789D01*
X00210846Y01802309D02*
X00208941Y01804213D01*
X00205133D01*
X00203228Y01802309D01*
Y01794691D01*
X00205133Y01792787D01*
X00208941D01*
X00210846Y01794691D01*
X00214654Y01802309D02*
X00216559Y01804213D01*
X00220368D01*
X00222272Y01802309D01*
Y01800404D01*
X00220368Y01798500D01*
X00222272Y01796596D01*
Y01794691D01*
X00220368Y01792787D01*
X00216559D01*
X00214654Y01794691D01*
Y01796596D01*
X00216559Y01798500D01*
X00214654Y01800404D01*
Y01802309D01*
X00216559Y01798500D02*
X00220368D01*
X00076582Y01781555D02*
X00074677Y01783459D01*
X00070869D01*
X00068964Y01781555D01*
Y01773937D01*
X00070869Y01772033D01*
X00074677D01*
X00076582Y01773937D01*
X00086103Y01772033D02*
Y01783459D01*
X00080390Y01777746D01*
X00088008D01*
X01271275Y01541401D02*
Y01552827D01*
X01276988D01*
X01278893Y01550923D01*
Y01547114D01*
X01276988Y01545210D01*
X01271275D01*
X01275084D02*
X01278893Y01541401D01*
X01288414D02*
Y01552827D01*
X01282701Y01547114D01*
X01290319D01*
X01301745Y01541401D02*
X01294128D01*
X01301745Y01549018D01*
Y01550923D01*
X01299841Y01552827D01*
X01296032D01*
X01294128Y01550923D01*
X01297055Y01651129D02*
Y01662555D01*
X01302768D01*
X01304673Y01660651D01*
Y01656842D01*
X01302768Y01654938D01*
X01297055D01*
X01300864D02*
X01304673Y01651129D01*
X01314195D02*
Y01662555D01*
X01308482Y01656842D01*
X01316099D01*
X01319908Y01651129D02*
X01323717D01*
X01321812D01*
Y01662555D01*
X01319908Y01660651D01*
X01406911Y01667893D02*
Y01679319D01*
X01412624D01*
X01414529Y01677415D01*
Y01673606D01*
X01412624Y01671702D01*
X01406911D01*
X01410720D02*
X01414529Y01667893D01*
X01418337Y01677415D02*
X01420242Y01679319D01*
X01424050D01*
X01425955Y01677415D01*
Y01675510D01*
X01424050Y01673606D01*
X01422146D01*
X01424050D01*
X01425955Y01671702D01*
Y01669797D01*
X01424050Y01667893D01*
X01420242D01*
X01418337Y01669797D01*
X01429764D02*
X01431668Y01667893D01*
X01435477D01*
X01437381Y01669797D01*
Y01677415D01*
X01435477Y01679319D01*
X01431668D01*
X01429764Y01677415D01*
Y01675510D01*
X01431668Y01673606D01*
X01437381D01*
X01423765Y01714287D02*
Y01725713D01*
X01429478D01*
X01431382Y01723809D01*
Y01720000D01*
X01429478Y01718096D01*
X01423765D01*
X01427574D02*
X01431382Y01714287D01*
X01435191Y01723809D02*
X01437096Y01725713D01*
X01440904D01*
X01442809Y01723809D01*
Y01721904D01*
X01440904Y01720000D01*
X01439000D01*
X01440904D01*
X01442809Y01718096D01*
Y01716191D01*
X01440904Y01714287D01*
X01437096D01*
X01435191Y01716191D01*
X01446618Y01723809D02*
X01448522Y01725713D01*
X01452331D01*
X01454235Y01723809D01*
Y01721904D01*
X01452331Y01720000D01*
X01454235Y01718096D01*
Y01716191D01*
X01452331Y01714287D01*
X01448522D01*
X01446618Y01716191D01*
Y01718096D01*
X01448522Y01720000D01*
X01446618Y01721904D01*
Y01723809D01*
X01448522Y01720000D02*
X01452331D01*
X01423765Y01760287D02*
Y01771713D01*
X01429478D01*
X01431382Y01769809D01*
Y01766000D01*
X01429478Y01764096D01*
X01423765D01*
X01427574D02*
X01431382Y01760287D01*
X01435191Y01769809D02*
X01437096Y01771713D01*
X01440904D01*
X01442809Y01769809D01*
Y01767904D01*
X01440904Y01766000D01*
X01439000D01*
X01440904D01*
X01442809Y01764096D01*
Y01762191D01*
X01440904Y01760287D01*
X01437096D01*
X01435191Y01762191D01*
X01446618Y01771713D02*
X01454235D01*
Y01769809D01*
X01446618Y01762191D01*
Y01760287D01*
X01370765Y01786287D02*
Y01797713D01*
X01376478D01*
X01378383Y01795809D01*
Y01792000D01*
X01376478Y01790096D01*
X01370765D01*
X01374574D02*
X01378383Y01786287D01*
X01382191Y01795809D02*
X01384096Y01797713D01*
X01387904D01*
X01389809Y01795809D01*
Y01793904D01*
X01387904Y01792000D01*
X01386000D01*
X01387904D01*
X01389809Y01790096D01*
Y01788191D01*
X01387904Y01786287D01*
X01384096D01*
X01382191Y01788191D01*
X01401235Y01797713D02*
X01397426Y01795809D01*
X01393618Y01792000D01*
Y01788191D01*
X01395522Y01786287D01*
X01399331D01*
X01401235Y01788191D01*
Y01790096D01*
X01399331Y01792000D01*
X01393618D01*
X01425959Y01551177D02*
X01424054Y01553081D01*
X01420245D01*
X01418341Y01551177D01*
Y01543559D01*
X01420245Y01541655D01*
X01424054D01*
X01425959Y01543559D01*
X01429767Y01551177D02*
X01431672Y01553081D01*
X01435480D01*
X01437385Y01551177D01*
Y01549272D01*
X01435480Y01547368D01*
X01433576D01*
X01435480D01*
X01437385Y01545464D01*
Y01543559D01*
X01435480Y01541655D01*
X01431672D01*
X01429767Y01543559D01*
X01441194Y01551177D02*
X01443098Y01553081D01*
X01446907D01*
X01448811Y01551177D01*
Y01543559D01*
X01446907Y01541655D01*
X01443098D01*
X01441194Y01543559D01*
Y01551177D01*
X01453898Y01678177D02*
X01451994Y01680081D01*
X01448185D01*
X01446281Y01678177D01*
Y01670559D01*
X01448185Y01668655D01*
X01451994D01*
X01453898Y01670559D01*
X01465325Y01668655D02*
X01457707D01*
X01465325Y01676272D01*
Y01678177D01*
X01463420Y01680081D01*
X01459612D01*
X01457707Y01678177D01*
X01474847Y01668655D02*
Y01680081D01*
X01469134Y01674368D01*
X01476751D01*
X01133348Y02188972D02*
Y02200398D01*
X01139061D01*
X01140965Y02198494D01*
Y02194685D01*
X01139061Y02192781D01*
X01133348D01*
X01137157D02*
X01140965Y02188972D01*
X01144774D02*
X01148583D01*
X01146679D01*
Y02200398D01*
X01144774Y02198494D01*
X01161914Y02188972D02*
X01154296D01*
X01161914Y02196590D01*
Y02198494D01*
X01160009Y02200398D01*
X01156201D01*
X01154296Y02198494D01*
X01157809Y01875665D02*
X01159713Y01877570D01*
Y01881378D01*
X01157809Y01883283D01*
X01150191D01*
X01148287Y01881378D01*
Y01877570D01*
X01150191Y01875665D01*
X01148287Y01871857D02*
Y01868048D01*
Y01869952D01*
X01159713D01*
X01157809Y01871857D01*
X01148287Y01856622D02*
X01159713D01*
X01154000Y01862335D01*
Y01854717D01*
X00827089Y02287015D02*
X00825185Y02288919D01*
X00821376D01*
X00819472Y02287015D01*
Y02279397D01*
X00821376Y02277493D01*
X00825185D01*
X00827089Y02279397D01*
X00830898Y02277493D02*
X00834707D01*
X00832802D01*
Y02288919D01*
X00830898Y02287015D01*
X00840420Y02277493D02*
X00844229D01*
X00842324D01*
Y02288919D01*
X00840420Y02287015D01*
X00598096Y02033809D02*
X00596191Y02035713D01*
X00592383D01*
X00590478Y02033809D01*
Y02026191D01*
X00592383Y02024287D01*
X00596191D01*
X00598096Y02026191D01*
X00601904Y02033809D02*
X00603809Y02035713D01*
X00607617D01*
X00609522Y02033809D01*
Y02031904D01*
X00607617Y02030000D01*
X00605713D01*
X00607617D01*
X00609522Y02028096D01*
Y02026191D01*
X00607617Y02024287D01*
X00603809D01*
X00601904Y02026191D01*
X01145383Y01677809D02*
X01143478Y01679713D01*
X01139669D01*
X01137765Y01677809D01*
Y01670191D01*
X01139669Y01668287D01*
X01143478D01*
X01145383Y01670191D01*
X01156809Y01668287D02*
X01149191D01*
X01156809Y01675904D01*
Y01677809D01*
X01154904Y01679713D01*
X01151096D01*
X01149191Y01677809D01*
X01160618D02*
X01162522Y01679713D01*
X01166331D01*
X01168235Y01677809D01*
Y01675904D01*
X01166331Y01674000D01*
X01164426D01*
X01166331D01*
X01168235Y01672096D01*
Y01670191D01*
X01166331Y01668287D01*
X01162522D01*
X01160618Y01670191D01*
X00745110Y02318511D02*
X00743205Y02320415D01*
X00739397D01*
X00737492Y02318511D01*
Y02310893D01*
X00739397Y02308989D01*
X00743205D01*
X00745110Y02310893D01*
X00748918D02*
X00750823Y02308989D01*
X00754632D01*
X00756536Y02310893D01*
Y02318511D01*
X00754632Y02320415D01*
X00750823D01*
X00748918Y02318511D01*
Y02316606D01*
X00750823Y02314702D01*
X00756536D01*
X00193678Y01677795D02*
Y01668273D01*
X00195583Y01666369D01*
X00199391D01*
X00201296Y01668273D01*
Y01677795D01*
X00212722Y01666369D02*
X00205104D01*
X00212722Y01673986D01*
Y01675891D01*
X00210818Y01677795D01*
X00207009D01*
X00205104Y01675891D01*
X01002765Y01897287D02*
Y01908713D01*
X01008478D01*
X01010383Y01906809D01*
Y01903000D01*
X01008478Y01901096D01*
X01002765D01*
X01006574D02*
X01010383Y01897287D01*
X01014191Y01906809D02*
X01016096Y01908713D01*
X01019904D01*
X01021809Y01906809D01*
Y01904904D01*
X01019904Y01903000D01*
X01018000D01*
X01019904D01*
X01021809Y01901096D01*
Y01899191D01*
X01019904Y01897287D01*
X01016096D01*
X01014191Y01899191D01*
X01033235Y01897287D02*
X01025618D01*
X01033235Y01904904D01*
Y01906809D01*
X01031331Y01908713D01*
X01027522D01*
X01025618Y01906809D01*
X01002669Y01914287D02*
Y01925713D01*
X01008382D01*
X01010287Y01923809D01*
Y01920000D01*
X01008382Y01918096D01*
X01002669D01*
X01006478D02*
X01010287Y01914287D01*
X01014096Y01923809D02*
X01016000Y01925713D01*
X01019809D01*
X01021713Y01923809D01*
Y01921904D01*
X01019809Y01920000D01*
X01017904D01*
X01019809D01*
X01021713Y01918096D01*
Y01916191D01*
X01019809Y01914287D01*
X01016000D01*
X01014096Y01916191D01*
X01025522Y01914287D02*
X01029331D01*
X01027426D01*
Y01925713D01*
X01025522Y01923809D01*
X01002765Y01930287D02*
Y01941713D01*
X01008478D01*
X01010383Y01939809D01*
Y01936000D01*
X01008478Y01934096D01*
X01002765D01*
X01006574D02*
X01010383Y01930287D01*
X01014191Y01939809D02*
X01016096Y01941713D01*
X01019904D01*
X01021809Y01939809D01*
Y01937904D01*
X01019904Y01936000D01*
X01018000D01*
X01019904D01*
X01021809Y01934096D01*
Y01932191D01*
X01019904Y01930287D01*
X01016096D01*
X01014191Y01932191D01*
X01025618Y01939809D02*
X01027522Y01941713D01*
X01031331D01*
X01033235Y01939809D01*
Y01932191D01*
X01031331Y01930287D01*
X01027522D01*
X01025618Y01932191D01*
Y01939809D01*
X01157809Y01770665D02*
X01159713Y01772570D01*
Y01776378D01*
X01157809Y01778283D01*
X01150191D01*
X01148287Y01776378D01*
Y01772570D01*
X01150191Y01770665D01*
X01148287Y01766857D02*
Y01763048D01*
Y01764952D01*
X01159713D01*
X01157809Y01766857D01*
X01159713Y01757335D02*
Y01749717D01*
X01157809D01*
X01150191Y01757335D01*
X01148287D01*
X00854717Y02593287D02*
Y02604713D01*
X00860430D01*
X00862335Y02602809D01*
Y02599000D01*
X00860430Y02597096D01*
X00854717D01*
X00858526D02*
X00862335Y02593287D01*
X00866143D02*
X00869952D01*
X00868048D01*
Y02604713D01*
X00866143Y02602809D01*
X00875665D02*
X00877570Y02604713D01*
X00881378D01*
X00883283Y02602809D01*
Y02595191D01*
X00881378Y02593287D01*
X00877570D01*
X00875665Y02595191D01*
Y02602809D01*
X00680342Y02194685D02*
Y02183259D01*
X00686055D01*
X00687960Y02185163D01*
Y02192781D01*
X00686055Y02194685D01*
X00680342D01*
X00699386Y02183259D02*
X00691768D01*
X00699386Y02190876D01*
Y02192781D01*
X00697482Y02194685D01*
X00693673D01*
X00691768Y02192781D01*
X01114042Y02012820D02*
X01112137Y02014724D01*
X01108328D01*
X01106424Y02012820D01*
Y02005202D01*
X01108328Y02003298D01*
X01112137D01*
X01114042Y02005202D01*
X01125468Y02003298D02*
X01117850D01*
X01125468Y02010916D01*
Y02012820D01*
X01123564Y02014724D01*
X01119755D01*
X01117850Y02012820D01*
X01136894Y02003298D02*
X01129277D01*
X01136894Y02010916D01*
Y02012820D01*
X01134990Y02014724D01*
X01131181D01*
X01129277Y02012820D01*
X01251710Y01953130D02*
X01249805Y01955034D01*
X01245996D01*
X01244092Y01953130D01*
Y01945512D01*
X01245996Y01943608D01*
X01249805D01*
X01251710Y01945512D01*
X01263136Y01943608D02*
X01255518D01*
X01263136Y01951225D01*
Y01953130D01*
X01261232Y01955034D01*
X01257423D01*
X01255518Y01953130D01*
X01266945D02*
X01268849Y01955034D01*
X01272658D01*
X01274562Y01953130D01*
Y01945512D01*
X01272658Y01943608D01*
X01268849D01*
X01266945Y01945512D01*
Y01953130D01*
X00184658Y01858771D02*
X00182754Y01860675D01*
X00178945D01*
X00177041Y01858771D01*
Y01851153D01*
X00178945Y01849249D01*
X00182754D01*
X00184658Y01851153D01*
X00188467Y01849249D02*
X00192276D01*
X00190371D01*
Y01860675D01*
X00188467Y01858771D01*
X00398287Y02646713D02*
X00390669D01*
Y02641000D01*
X00394478D01*
X00390669D01*
Y02635287D01*
X00402096Y02646713D02*
Y02637191D01*
X00404000Y02635287D01*
X00407809D01*
X00409713Y02637191D01*
Y02646713D01*
X00413522Y02635287D02*
X00417331D01*
X00415426D01*
Y02646713D01*
X00413522Y02644809D01*
X01403480Y01610993D02*
Y01599567D01*
X01409193D01*
X01411098Y01601471D01*
Y01609089D01*
X01409193Y01610993D01*
X01403480D01*
X01420620Y01599567D02*
Y01610993D01*
X01414906Y01605280D01*
X01422524D01*
X01050672Y01685543D02*
X01048767Y01687447D01*
X01044958D01*
X01043054Y01685543D01*
Y01677925D01*
X01044958Y01676021D01*
X01048767D01*
X01050672Y01677925D01*
X01062098Y01687447D02*
X01058289Y01685543D01*
X01054480Y01681734D01*
Y01677925D01*
X01056385Y01676021D01*
X01060193D01*
X01062098Y01677925D01*
Y01679830D01*
X01060193Y01681734D01*
X01054480D01*
X01178558Y02111626D02*
X01176653Y02113530D01*
X01172844D01*
X01170940Y02111626D01*
Y02104008D01*
X01172844Y02102104D01*
X01176653D01*
X01178558Y02104008D01*
X01189984Y02102104D02*
X01182366D01*
X01189984Y02109722D01*
Y02111626D01*
X01188080Y02113530D01*
X01184271D01*
X01182366Y02111626D01*
X01193793Y02113530D02*
X01201410D01*
Y02111626D01*
X01193793Y02104008D01*
Y02102104D01*
X01158809Y01823665D02*
X01160713Y01825570D01*
Y01829379D01*
X01158809Y01831283D01*
X01151191D01*
X01149287Y01829379D01*
Y01825570D01*
X01151191Y01823665D01*
X01149287Y01819857D02*
Y01816048D01*
Y01817952D01*
X01160713D01*
X01158809Y01819857D01*
Y01810335D02*
X01160713Y01808430D01*
Y01804621D01*
X01158809Y01802717D01*
X01156904D01*
X01155000Y01804621D01*
X01153096Y01802717D01*
X01151191D01*
X01149287Y01804621D01*
Y01808430D01*
X01151191Y01810335D01*
X01153096D01*
X01155000Y01808430D01*
X01156904Y01810335D01*
X01158809D01*
X01155000Y01808430D02*
Y01804621D01*
X00498853Y02057270D02*
X00496949Y02059174D01*
X00493140D01*
X00491236Y02057270D01*
Y02049652D01*
X00493140Y02047748D01*
X00496949D01*
X00498853Y02049652D01*
X00510280Y02047748D02*
X00502662D01*
X00510280Y02055365D01*
Y02057270D01*
X00508376Y02059174D01*
X00504567D01*
X00502662Y02057270D01*
X00662383Y02025713D02*
Y02014287D01*
X00668096D01*
X00670000Y02016191D01*
Y02023809D01*
X00668096Y02025713D01*
X00662383D01*
X00673809Y02014287D02*
X00677618D01*
X00675713D01*
Y02025713D01*
X00673809Y02023809D01*
X01428335Y02531809D02*
X01426430Y02533713D01*
X01422621D01*
X01420717Y02531809D01*
Y02524191D01*
X01422621Y02522287D01*
X01426430D01*
X01428335Y02524191D01*
X01432143Y02522287D02*
X01435952D01*
X01434048D01*
Y02533713D01*
X01432143Y02531809D01*
X01441665D02*
X01443570Y02533713D01*
X01447379D01*
X01449283Y02531809D01*
Y02524191D01*
X01447379Y02522287D01*
X01443570D01*
X01441665Y02524191D01*
Y02531809D01*
M02*
