G04*
G04 #@! TF.GenerationSoftware,Altium Limited,Altium Designer,21.2.0 (30)*
G04*
G04 Layer_Color=8388736*
%FSAX44Y44*%
%MOMM*%
G71*
G04*
G04 #@! TF.SameCoordinates,F656A266-89EA-4B56-B237-F6EBBDAECB67*
G04*
G04*
G04 #@! TF.FilePolarity,Negative*
G04*
G01*
G75*
%ADD18R,1.7000X1.1000*%
%ADD19R,1.1000X1.7000*%
G04:AMPARAMS|DCode=20|XSize=1.65mm|YSize=0.7mm|CornerRadius=0.35mm|HoleSize=0mm|Usage=FLASHONLY|Rotation=270.000|XOffset=0mm|YOffset=0mm|HoleType=Round|Shape=RoundedRectangle|*
%AMROUNDEDRECTD20*
21,1,1.6500,0.0000,0,0,270.0*
21,1,0.9500,0.7000,0,0,270.0*
1,1,0.7000,0.0000,-0.4750*
1,1,0.7000,0.0000,0.4750*
1,1,0.7000,0.0000,0.4750*
1,1,0.7000,0.0000,-0.4750*
%
%ADD20ROUNDEDRECTD20*%
%ADD21R,1.7000X2.3000*%
%ADD22C,2.1000*%
%ADD23O,2.0000X1.4000*%
%ADD24R,2.0000X1.4000*%
%ADD25C,1.7000*%
%ADD26C,3.1000*%
%ADD27C,1.9000*%
%ADD28C,1.1000*%
%ADD29P,1.1906X8X202.5*%
%ADD30O,1.8780X1.5000*%
%ADD31R,1.8780X1.5000*%
%ADD32C,2.3000*%
%ADD33P,1.1906X8X292.5*%
G04:AMPARAMS|DCode=34|XSize=6.1mm|YSize=6.1mm|CornerRadius=1.55mm|HoleSize=0mm|Usage=FLASHONLY|Rotation=0.000|XOffset=0mm|YOffset=0mm|HoleType=Round|Shape=RoundedRectangle|*
%AMROUNDEDRECTD34*
21,1,6.1000,3.0000,0,0,0.0*
21,1,3.0000,6.1000,0,0,0.0*
1,1,3.1000,1.5000,-1.5000*
1,1,3.1000,-1.5000,-1.5000*
1,1,3.1000,-1.5000,1.5000*
1,1,3.1000,1.5000,1.5000*
%
%ADD34ROUNDEDRECTD34*%
%ADD35C,2.3500*%
%ADD36R,1.7000X1.7000*%
%ADD37R,2.1000X2.1000*%
%ADD38P,1.8401X8X112.5*%
%ADD39C,2.5000*%
%ADD40O,2.7000X3.6000*%
%ADD41O,1.6000X1.7000*%
%ADD42C,0.7000*%
D18*
X01414750Y01653200D02*
D03*
Y01623200D02*
D03*
X01321750Y01546750D02*
D03*
Y01576750D02*
D03*
Y01601000D02*
D03*
Y01631000D02*
D03*
X00620000Y01926000D02*
D03*
Y01956000D02*
D03*
X00708750Y01830750D02*
D03*
Y01800750D02*
D03*
X00734300D02*
D03*
Y01830750D02*
D03*
X01132500Y01751000D02*
D03*
Y01781000D02*
D03*
Y01831675D02*
D03*
Y01801675D02*
D03*
Y01852600D02*
D03*
Y01882600D02*
D03*
X01150750Y01724000D02*
D03*
Y01694000D02*
D03*
X00257000Y01778000D02*
D03*
Y01748000D02*
D03*
X00161000Y01778000D02*
D03*
Y01748000D02*
D03*
X00801000Y02266750D02*
D03*
Y02296750D02*
D03*
X00595000Y02011000D02*
D03*
Y01981000D02*
D03*
D19*
X01441500Y01653000D02*
D03*
X01471500D02*
D03*
X01552500Y01645500D02*
D03*
X01522500D02*
D03*
X01355750Y01546750D02*
D03*
X01385750D02*
D03*
X01444750Y01698200D02*
D03*
X01414750D02*
D03*
Y01745500D02*
D03*
X01444750D02*
D03*
X00795500Y01579500D02*
D03*
X00765500D02*
D03*
X00795500Y01625250D02*
D03*
X00765500D02*
D03*
X00645000Y01885000D02*
D03*
X00675000D02*
D03*
X00132000Y01778000D02*
D03*
X00102000D02*
D03*
X01193058Y02251750D02*
D03*
X01223058D02*
D03*
X01193058Y02171250D02*
D03*
X01223058D02*
D03*
X01414750Y01792800D02*
D03*
X01444750D02*
D03*
X01223250Y02296500D02*
D03*
X01193250D02*
D03*
Y02323000D02*
D03*
X01223250D02*
D03*
Y02350250D02*
D03*
X01193250D02*
D03*
X01031000Y01755600D02*
D03*
X01001000D02*
D03*
X01031000Y01781000D02*
D03*
X01001000D02*
D03*
X01031000Y01806400D02*
D03*
X01001000D02*
D03*
X01031000Y01831800D02*
D03*
X01001000D02*
D03*
X01031000Y01882600D02*
D03*
X01001000D02*
D03*
X01031000Y01857200D02*
D03*
X01001000D02*
D03*
X00198000Y01748000D02*
D03*
X00228000D02*
D03*
X00200000Y01610000D02*
D03*
X00230000D02*
D03*
X00102000Y01748000D02*
D03*
X00132000D02*
D03*
X00104000Y01610000D02*
D03*
X00134000D02*
D03*
X00198000Y01778000D02*
D03*
X00228000D02*
D03*
X01139480Y02171000D02*
D03*
X01169480D02*
D03*
D20*
X01348200Y01628500D02*
D03*
X01360900Y01574500D02*
D03*
X01348200D02*
D03*
X01386300Y01628500D02*
D03*
X01373600D02*
D03*
X01360900D02*
D03*
X01373600Y01574500D02*
D03*
X01386300D02*
D03*
D21*
X00135300Y01638000D02*
D03*
X00160700D02*
D03*
X00135300Y01722000D02*
D03*
X00160700D02*
D03*
X00231300Y01638000D02*
D03*
X00256700D02*
D03*
X00231300Y01722000D02*
D03*
X00256700D02*
D03*
D22*
X00925750Y02336500D02*
D03*
X00926750Y02457000D02*
D03*
X01048000Y02337000D02*
D03*
X01068000Y02397000D02*
D03*
X01048250Y02457000D02*
D03*
X00737500Y02213750D02*
D03*
Y02163750D02*
D03*
Y02188750D02*
D03*
X01706000Y02138000D02*
D03*
X01481000D02*
D03*
X00287250Y02411000D02*
D03*
Y02561000D02*
D03*
X00402000Y02486000D02*
D03*
X00386000Y02411000D02*
D03*
X00675000Y01981000D02*
D03*
Y01956000D02*
D03*
Y01931000D02*
D03*
X00146000Y01549000D02*
D03*
X00247600D02*
D03*
X00171400D02*
D03*
X00196800D02*
D03*
X00222200D02*
D03*
X00824000Y02561000D02*
D03*
Y02411000D02*
D03*
D23*
X01182250Y01960750D02*
D03*
X01212250Y01894750D02*
D03*
X01182250Y01910750D02*
D03*
Y01732750D02*
D03*
Y01860750D02*
D03*
Y01828750D02*
D03*
Y01796750D02*
D03*
Y01764750D02*
D03*
X01468250Y01887400D02*
D03*
Y01840100D02*
D03*
Y01934700D02*
D03*
Y01982000D02*
D03*
Y02029300D02*
D03*
Y01792800D02*
D03*
Y01745500D02*
D03*
Y01698200D02*
D03*
X01212250Y01944750D02*
D03*
Y01712750D02*
D03*
Y01748750D02*
D03*
Y01780750D02*
D03*
Y01812750D02*
D03*
Y01844750D02*
D03*
Y01994750D02*
D03*
D24*
X01182250Y02014750D02*
D03*
D25*
X00886250Y02055250D02*
D03*
X00837000D02*
D03*
X00861500D02*
D03*
X01042750Y02217500D02*
D03*
Y02193000D02*
D03*
Y02242250D02*
D03*
X00886250Y01924000D02*
D03*
X00837000D02*
D03*
X00861500D02*
D03*
X00886250Y01989250D02*
D03*
X00837000D02*
D03*
X00861500D02*
D03*
X00187250Y02411000D02*
D03*
Y02561000D02*
D03*
X00734300Y01753900D02*
D03*
X00708900D02*
D03*
X00683500D02*
D03*
X00658100D02*
D03*
X00632700D02*
D03*
X00734300Y01601500D02*
D03*
X00708900D02*
D03*
X00683500D02*
D03*
X00658100D02*
D03*
X00523100D02*
D03*
X00548500D02*
D03*
X00573900D02*
D03*
X00599300D02*
D03*
X00497700Y01753900D02*
D03*
X00523100D02*
D03*
X00548500D02*
D03*
X00573900D02*
D03*
X00599300D02*
D03*
X00388100Y01601500D02*
D03*
X00413500D02*
D03*
X00438900D02*
D03*
X00464300D02*
D03*
X00362700Y01753900D02*
D03*
X00388100D02*
D03*
X00413500D02*
D03*
X00438900D02*
D03*
X00464300D02*
D03*
X00182500Y01927500D02*
D03*
X00532000Y02016000D02*
D03*
D26*
X01193250Y02574000D02*
D03*
Y02399000D02*
D03*
Y02649000D02*
D03*
Y02499000D02*
D03*
D27*
X00386250Y01932000D02*
D03*
X00286250D02*
D03*
X00416000Y01932004D02*
D03*
X00516000D02*
D03*
X00386250Y01883250D02*
D03*
X00286250D02*
D03*
X00416000Y01883246D02*
D03*
X00516000D02*
D03*
X01094750Y02280250D02*
D03*
X00994750D02*
D03*
X00127500Y01892500D02*
D03*
X00027500D02*
D03*
D28*
X00736000Y02276500D02*
D03*
X01087500Y01697750D02*
D03*
X01186750Y02067750D02*
D03*
X01132250Y01979000D02*
D03*
X01269750Y01919250D02*
D03*
X00682748Y01839752D02*
D03*
X00655750Y01851000D02*
D03*
X01053500Y01641500D02*
D03*
D29*
X00756000Y02276500D02*
D03*
X01206750Y02067750D02*
D03*
D30*
X00798000Y01958950D02*
D03*
Y01933550D02*
D03*
Y01908150D02*
D03*
Y01882750D02*
D03*
Y01857350D02*
D03*
Y01831950D02*
D03*
Y01806550D02*
D03*
Y01781150D02*
D03*
Y01755750D02*
D03*
Y01984350D02*
D03*
Y02009750D02*
D03*
Y02035150D02*
D03*
Y02060550D02*
D03*
Y02085950D02*
D03*
Y02111350D02*
D03*
Y02136750D02*
D03*
Y02162150D02*
D03*
Y02187550D02*
D03*
Y02212950D02*
D03*
X00950500Y02212800D02*
D03*
Y02187400D02*
D03*
Y02162000D02*
D03*
Y02136600D02*
D03*
Y02111200D02*
D03*
Y02085800D02*
D03*
Y02060400D02*
D03*
Y02035000D02*
D03*
Y02009600D02*
D03*
Y01984200D02*
D03*
Y01755600D02*
D03*
Y01781000D02*
D03*
Y01806400D02*
D03*
Y01831800D02*
D03*
Y01857200D02*
D03*
Y01882600D02*
D03*
Y01908000D02*
D03*
Y01933400D02*
D03*
Y01958800D02*
D03*
D31*
X00798000Y01730350D02*
D03*
X00950500Y01730200D02*
D03*
D32*
X01414750Y01576750D02*
D03*
X01282500D02*
D03*
X01282250Y01628750D02*
D03*
X01100000Y01755600D02*
D03*
X01101000Y01857200D02*
D03*
X00182500Y02010750D02*
D03*
X00132500D02*
D03*
X00232500D02*
D03*
X00282500D02*
D03*
X00132500Y02260750D02*
D03*
X00282500D02*
D03*
X00902250Y02514500D02*
D03*
X00924250Y02588500D02*
D03*
X00633750Y02095750D02*
D03*
X01063500Y01831675D02*
D03*
X01062750Y01781000D02*
D03*
X01062250Y01882600D02*
D03*
X01100000Y01806400D02*
D03*
X00558500Y02096250D02*
D03*
X01521000Y01887400D02*
D03*
Y01840100D02*
D03*
Y01934575D02*
D03*
X01095500Y01652250D02*
D03*
X01509500Y01598750D02*
D03*
X01591000Y01644750D02*
D03*
D33*
X01087500Y01717750D02*
D03*
X01132250Y01959000D02*
D03*
X01269750Y01899250D02*
D03*
D34*
X01379250Y02346750D02*
D03*
X01484250Y02371750D02*
D03*
D35*
X00463750Y02561000D02*
D03*
X00713750Y02411000D02*
D03*
Y02561000D02*
D03*
X00463750Y02411000D02*
D03*
D36*
X00632700Y01601500D02*
D03*
X00497700D02*
D03*
X00362700D02*
D03*
D37*
X00120600Y01549000D02*
D03*
D38*
X00182500Y01892500D02*
D03*
X00532000Y01981000D02*
D03*
D39*
X01643500Y01813000D02*
D03*
Y01888000D02*
D03*
Y01963000D02*
D03*
X00088750Y02411000D02*
D03*
Y02486000D02*
D03*
D40*
X00362500Y02637000D02*
D03*
X00152500D02*
D03*
D41*
X01696250Y01566750D02*
D03*
X00046250Y01564750D02*
D03*
X01698250Y02663750D02*
D03*
X00047250Y02662750D02*
D03*
D42*
X01500000Y01650000D02*
D03*
Y01550000D02*
D03*
X01475000Y01600000D02*
D03*
X01450000Y01550000D02*
D03*
X01400000Y01650000D02*
D03*
X01425000Y01600000D02*
D03*
X01375000D02*
D03*
X01300000Y01750000D02*
D03*
Y01550000D02*
D03*
X01250000Y01750000D02*
D03*
X01275000Y01700000D02*
D03*
X01250000Y01650000D02*
D03*
Y01550000D02*
D03*
X01225000Y02200000D02*
D03*
X01200000Y02150000D02*
D03*
X01225000Y01800000D02*
D03*
Y01700000D02*
D03*
X01200000Y01650000D02*
D03*
Y01550000D02*
D03*
X01150000Y02250000D02*
D03*
X01175000Y02200000D02*
D03*
X01150000Y02150000D02*
D03*
X01175000Y01700000D02*
D03*
X01150000Y01550000D02*
D03*
X01100000Y02250000D02*
D03*
X01125000Y02200000D02*
D03*
X01100000Y02150000D02*
D03*
X01125000Y01900000D02*
D03*
Y01700000D02*
D03*
X01100000Y01550000D02*
D03*
X01075000Y02200000D02*
D03*
X01050000Y02150000D02*
D03*
X01075000Y02100000D02*
D03*
X01050000Y02050000D02*
D03*
X01075000Y01900000D02*
D03*
X01050000Y01550000D02*
D03*
X01025000Y02200000D02*
D03*
Y02100000D02*
D03*
X01000000Y02050000D02*
D03*
X01025000Y02000000D02*
D03*
X01000000Y01950000D02*
D03*
X01025000Y01900000D02*
D03*
X01000000Y01550000D02*
D03*
X00950000Y02250000D02*
D03*
X00975000Y02200000D02*
D03*
Y02100000D02*
D03*
Y02000000D02*
D03*
Y01900000D02*
D03*
Y01700000D02*
D03*
X00900000Y02250000D02*
D03*
X00925000Y02200000D02*
D03*
X00900000Y02150000D02*
D03*
X00925000Y02100000D02*
D03*
Y01600000D02*
D03*
X00850000Y02150000D02*
D03*
X00875000Y02100000D02*
D03*
Y02000000D02*
D03*
X00850000Y01950000D02*
D03*
X00875000Y01900000D02*
D03*
X00850000Y01850000D02*
D03*
X00875000Y01800000D02*
D03*
X00850000Y01750000D02*
D03*
Y01650000D02*
D03*
X00800000Y02250000D02*
D03*
X00825000Y02200000D02*
D03*
Y02100000D02*
D03*
Y01900000D02*
D03*
Y01800000D02*
D03*
Y01700000D02*
D03*
X00800000Y01650000D02*
D03*
X00775000Y02200000D02*
D03*
X00750000Y02150000D02*
D03*
X00775000Y02100000D02*
D03*
X00750000Y02050000D02*
D03*
X00775000Y02000000D02*
D03*
X00750000Y01950000D02*
D03*
Y01650000D02*
D03*
X00775000Y01600000D02*
D03*
X00700000Y02250000D02*
D03*
X00725000Y02200000D02*
D03*
X00700000Y02150000D02*
D03*
X00725000Y02100000D02*
D03*
X00700000Y02050000D02*
D03*
Y01650000D02*
D03*
X00650000Y02150000D02*
D03*
X00675000Y02100000D02*
D03*
X00650000Y02050000D02*
D03*
X00675000Y02000000D02*
D03*
Y01800000D02*
D03*
X00650000Y01650000D02*
D03*
X00600000Y02050000D02*
D03*
X00625000Y02000000D02*
D03*
Y01900000D02*
D03*
X00600000Y01850000D02*
D03*
Y01650000D02*
D03*
X00550000Y02050000D02*
D03*
X00575000Y02000000D02*
D03*
X00550000Y01950000D02*
D03*
X00575000Y01800000D02*
D03*
X00550000Y01650000D02*
D03*
X00500000Y01850000D02*
D03*
Y01650000D02*
D03*
X00450000Y01850000D02*
D03*
Y01650000D02*
D03*
X00400000Y01850000D02*
D03*
Y01650000D02*
D03*
X00350000Y01850000D02*
D03*
X00300000D02*
D03*
X00125000Y01800000D02*
D03*
X00329770Y01607000D02*
D03*
X00366250Y01552500D02*
D03*
X00408000Y01553000D02*
D03*
X00447250D02*
D03*
X00485500D02*
D03*
X00527000Y01553500D02*
D03*
X00566000D02*
D03*
X00605750Y01553000D02*
D03*
X00645250D02*
D03*
X00687500D02*
D03*
X00734750Y01552750D02*
D03*
X00775000D02*
D03*
X00815500Y01552500D02*
D03*
X00855500Y01552250D02*
D03*
X00895750D02*
D03*
X00939750Y01552750D02*
D03*
X01577340Y01684592D02*
D03*
Y01698498D02*
D03*
Y01711896D02*
D03*
Y01759648D02*
D03*
Y01746250D02*
D03*
Y01732344D02*
D03*
Y01779334D02*
D03*
Y01793240D02*
D03*
Y01806638D02*
D03*
X01680000Y01720000D02*
D03*
X01700000Y01680000D02*
D03*
X01680000Y01640000D02*
D03*
X01640000Y01720000D02*
D03*
X01660000Y01680000D02*
D03*
X01600000Y01720000D02*
D03*
X01620000Y01680000D02*
D03*
X00296250Y01731750D02*
D03*
X00329770Y01647641D02*
D03*
Y01566250D02*
D03*
X01497750Y01988750D02*
D03*
X01514250Y02025500D02*
D03*
X01503250Y02064250D02*
D03*
X01481250Y02097500D02*
D03*
X01615318Y01840100D02*
D03*
X01582250Y01840000D02*
D03*
X01554000D02*
D03*
X01489250Y01839500D02*
D03*
X01613750Y01886750D02*
D03*
X01582250Y01887700D02*
D03*
X01553750Y01887250D02*
D03*
X01489750Y01886750D02*
D03*
X01613993Y01934575D02*
D03*
X01583250Y01933500D02*
D03*
X01553250Y01933750D02*
D03*
X01491250Y01934750D02*
D03*
X01706000Y01736250D02*
D03*
X01706250Y01776500D02*
D03*
X01706000Y01816750D02*
D03*
Y01857750D02*
D03*
Y01898500D02*
D03*
Y01938500D02*
D03*
Y01978250D02*
D03*
Y02018000D02*
D03*
Y02098250D02*
D03*
Y02057750D02*
D03*
X01672500Y02183250D02*
D03*
X01643750Y02212000D02*
D03*
X01614750Y02240750D02*
D03*
X01233750Y02399000D02*
D03*
X01462750Y02199250D02*
D03*
X01434250Y02226750D02*
D03*
X01311750Y02398750D02*
D03*
X01344750Y02381500D02*
D03*
X01585750Y02269000D02*
D03*
X01557750Y02297250D02*
D03*
X01529250Y02326250D02*
D03*
X01407000Y02256000D02*
D03*
X01380500Y02285500D02*
D03*
X01273250Y02398750D02*
D03*
X01466750Y02426750D02*
D03*
X01438750Y02456000D02*
D03*
X01410500Y02484500D02*
D03*
X01382000Y02512500D02*
D03*
X01353500Y02540750D02*
D03*
X01324750Y02568250D02*
D03*
X01296250Y02596750D02*
D03*
X01267250Y02625500D02*
D03*
X01234250Y02649000D02*
D03*
X01122500Y02420000D02*
D03*
X01090250Y02395500D02*
D03*
X01132000Y02459000D02*
D03*
X01169750Y02499000D02*
D03*
X01132000Y02499000D02*
D03*
X01102250Y02528750D02*
D03*
X01073750Y02557250D02*
D03*
X01045750Y02585500D02*
D03*
X01005500Y02588500D02*
D03*
X00965000D02*
D03*
X01145000Y02581500D02*
D03*
X01116500Y02610250D02*
D03*
X01088500Y02639000D02*
D03*
X01057500Y02664750D02*
D03*
X01017000D02*
D03*
X00977000D02*
D03*
X00936500D02*
D03*
X00856750Y02664250D02*
D03*
X00896500Y02664750D02*
D03*
X00824000Y02641000D02*
D03*
Y02600750D02*
D03*
X00454750Y02540750D02*
D03*
X00430500Y02514250D02*
D03*
X00377750Y02485250D02*
D03*
X00343000Y02503500D02*
D03*
X00315250Y02532250D02*
D03*
X00315750Y02589250D02*
D03*
X00342750Y02617250D02*
D03*
X00113250Y02599000D02*
D03*
X00088750Y02567250D02*
D03*
Y02526500D02*
D03*
X00427000Y02411000D02*
D03*
X00367250D02*
D03*
X00327000D02*
D03*
X00227000D02*
D03*
X00266250D02*
D03*
X00169000D02*
D03*
X00129000D02*
D03*
X00795000Y02560750D02*
D03*
X00754500D02*
D03*
X00676000Y02562000D02*
D03*
X00635750D02*
D03*
X00602500Y02539000D02*
D03*
X00573500Y02510500D02*
D03*
X00543250Y02481750D02*
D03*
X00523000Y02446750D02*
D03*
Y02406750D02*
D03*
Y02366000D02*
D03*
X00513367Y02326863D02*
D03*
X00474250Y02317750D02*
D03*
X00232500D02*
D03*
X00272755D02*
D03*
X00313255D02*
D03*
X00353792D02*
D03*
X00394755D02*
D03*
X00434255D02*
D03*
X00192250D02*
D03*
X00162750Y02290750D02*
D03*
X00881000Y02353500D02*
D03*
X00852000Y02381750D02*
D03*
X00865750Y02477250D02*
D03*
X00836750Y02449500D02*
D03*
X00794250Y02411500D02*
D03*
X00753250Y02411000D02*
D03*
X00673000D02*
D03*
X00637510Y02391260D02*
D03*
X00618250Y02357000D02*
D03*
Y02316750D02*
D03*
X00601000Y02280500D02*
D03*
X00572750Y02252000D02*
D03*
X00543830Y02223480D02*
D03*
X00503000D02*
D03*
X00463500D02*
D03*
X00422537D02*
D03*
X00382000D02*
D03*
X00341500D02*
D03*
X00301245D02*
D03*
X00572250Y01907250D02*
D03*
X00570500Y01871750D02*
D03*
X00548500Y01847000D02*
D03*
X00522500Y01821750D02*
D03*
X00482000Y01816500D02*
D03*
X00441750Y01816250D02*
D03*
X00399500D02*
D03*
X00358500D02*
D03*
X00324500Y01797250D02*
D03*
X00590000Y01935000D02*
D03*
X01409250Y01547500D02*
D03*
X01262750Y01600250D02*
D03*
X00548500Y01718250D02*
D03*
X00413750Y01715500D02*
D03*
X00784000Y01699000D02*
D03*
X00795500Y01602250D02*
D03*
X00187500Y01660000D02*
D03*
X00201250Y01704040D02*
D03*
X00278250Y01761750D02*
D03*
X00324500Y01757750D02*
D03*
X00970500Y01583500D02*
D03*
M02*
