G04*
G04 #@! TF.GenerationSoftware,Altium Limited,Altium Designer,21.2.0 (30)*
G04*
G04 Layer_Color=2752767*
%FSAX44Y44*%
%MOMM*%
G71*
G04*
G04 #@! TF.SameCoordinates,F656A266-89EA-4B56-B237-F6EBBDAECB67*
G04*
G04*
G04 #@! TF.FilePolarity,Positive*
G04*
G01*
G75*
%ADD75C,0.0508*%
%ADD76C,0.0677*%
%ADD77C,0.0339*%
D75*
X00923718Y02334468D02*
Y02338532D01*
X00927782D01*
Y02334468D01*
X00923718D01*
X00924718Y02454968D02*
Y02459032D01*
X00928782D01*
Y02454968D01*
X00924718D01*
X01045968Y02334968D02*
Y02339032D01*
X01050032D01*
Y02334968D01*
X01045968D01*
X01065968Y02394968D02*
Y02399032D01*
X01070032D01*
Y02394968D01*
X01065968D01*
X01046218Y02454968D02*
Y02459032D01*
X01050282D01*
Y02454968D01*
X01046218D01*
X01180218Y01958718D02*
Y01962782D01*
X01184282D01*
Y01958718D01*
X01180218D01*
X01210218Y01892718D02*
Y01896782D01*
X01214282D01*
Y01892718D01*
X01210218D01*
X01180218Y01908718D02*
Y01912782D01*
X01184282D01*
Y01908718D01*
X01180218D01*
Y01730718D02*
Y01734782D01*
X01184282D01*
Y01730718D01*
X01180218D01*
Y01858718D02*
Y01862782D01*
X01184282D01*
Y01858718D01*
X01180218D01*
Y01826718D02*
Y01830782D01*
X01184282D01*
Y01826718D01*
X01180218D01*
Y01794718D02*
Y01798782D01*
X01184282D01*
Y01794718D01*
X01180218D01*
Y01762718D02*
Y01766782D01*
X01184282D01*
Y01762718D01*
X01180218D01*
X01466218Y01885368D02*
Y01889432D01*
X01470282D01*
Y01885368D01*
X01466218D01*
Y01838068D02*
Y01842132D01*
X01470282D01*
Y01838068D01*
X01466218D01*
Y01932668D02*
Y01936732D01*
X01470282D01*
Y01932668D01*
X01466218D01*
Y01979968D02*
Y01984032D01*
X01470282D01*
Y01979968D01*
X01466218D01*
Y02027268D02*
Y02031332D01*
X01470282D01*
Y02027268D01*
X01466218D01*
Y01790768D02*
Y01794832D01*
X01470282D01*
Y01790768D01*
X01466218D01*
Y01743468D02*
Y01747532D01*
X01470282D01*
Y01743468D01*
X01466218D01*
Y01696168D02*
Y01700232D01*
X01470282D01*
Y01696168D01*
X01466218D01*
X01210218Y01942718D02*
Y01946782D01*
X01214282D01*
Y01942718D01*
X01210218D01*
Y01710718D02*
Y01714782D01*
X01214282D01*
Y01710718D01*
X01210218D01*
Y01746718D02*
Y01750782D01*
X01214282D01*
Y01746718D01*
X01210218D01*
Y01778718D02*
Y01782782D01*
X01214282D01*
Y01778718D01*
X01210218D01*
Y01810718D02*
Y01814782D01*
X01214282D01*
Y01810718D01*
X01210218D01*
Y01842718D02*
Y01846782D01*
X01214282D01*
Y01842718D01*
X01210218D01*
Y01992718D02*
Y01996782D01*
X01214282D01*
Y01992718D01*
X01210218D01*
X01180218Y02012718D02*
Y02016782D01*
X01184282D01*
Y02012718D01*
X01180218D01*
X00886250Y02053218D02*
X00884218Y02057282D01*
X00888282D01*
X00886250Y02053218D01*
X00837000D02*
X00834968Y02057282D01*
X00839032D01*
X00837000Y02053218D01*
X00861500D02*
X00859468Y02057282D01*
X00863532D01*
X00861500Y02053218D01*
X01193250Y02571968D02*
X01194266Y02572984D01*
X01195282D01*
X01194266Y02574000D01*
X01195282Y02575016D01*
X01194266D01*
X01193250Y02576032D01*
X01192234Y02575016D01*
X01191218D01*
X01192234Y02574000D01*
X01191218Y02572984D01*
X01192234D01*
X01193250Y02571968D01*
Y02396968D02*
X01194266Y02397984D01*
X01195282D01*
X01194266Y02399000D01*
X01195282Y02400016D01*
X01194266D01*
X01193250Y02401032D01*
X01192234Y02400016D01*
X01191218D01*
X01192234Y02399000D01*
X01191218Y02397984D01*
X01192234D01*
X01193250Y02396968D01*
Y02646968D02*
X01194266Y02647984D01*
X01195282D01*
X01194266Y02649000D01*
X01195282Y02650016D01*
X01194266D01*
X01193250Y02651032D01*
X01192234Y02650016D01*
X01191218D01*
X01192234Y02649000D01*
X01191218Y02647984D01*
X01192234D01*
X01193250Y02646968D01*
Y02496968D02*
X01194266Y02497984D01*
X01195282D01*
X01194266Y02499000D01*
X01195282Y02500016D01*
X01194266D01*
X01193250Y02501032D01*
X01192234Y02500016D01*
X01191218D01*
X01192234Y02499000D01*
X01191218Y02497984D01*
X01192234D01*
X01193250Y02496968D01*
X00384218Y01929968D02*
X00385234Y01932000D01*
X00384218Y01934032D01*
X00386250Y01933016D01*
X00388282Y01934032D01*
X00387266Y01932000D01*
X00388282Y01929968D01*
X00386250Y01930984D01*
X00384218Y01929968D01*
X00284218D02*
X00285234Y01932000D01*
X00284218Y01934032D01*
X00286250Y01933016D01*
X00288282Y01934032D01*
X00287266Y01932000D01*
X00288282Y01929968D01*
X00286250Y01930984D01*
X00284218Y01929968D01*
X00413968Y01929972D02*
X00414984Y01932004D01*
X00413968Y01934036D01*
X00416000Y01933020D01*
X00418032Y01934036D01*
X00417016Y01932004D01*
X00418032Y01929972D01*
X00416000Y01930988D01*
X00413968Y01929972D01*
X00513968D02*
X00514984Y01932004D01*
X00513968Y01934036D01*
X00516000Y01933020D01*
X00518032Y01934036D01*
X00517016Y01932004D01*
X00518032Y01929972D01*
X00516000Y01930988D01*
X00513968Y01929972D01*
X00384218Y01881218D02*
X00385234Y01883250D01*
X00384218Y01885282D01*
X00386250Y01884266D01*
X00388282Y01885282D01*
X00387266Y01883250D01*
X00388282Y01881218D01*
X00386250Y01882234D01*
X00384218Y01881218D01*
X00284218D02*
X00285234Y01883250D01*
X00284218Y01885282D01*
X00286250Y01884266D01*
X00288282Y01885282D01*
X00287266Y01883250D01*
X00288282Y01881218D01*
X00286250Y01882234D01*
X00284218Y01881218D01*
X00413968Y01881214D02*
X00414984Y01883246D01*
X00413968Y01885278D01*
X00416000Y01884262D01*
X00418032Y01885278D01*
X00417016Y01883246D01*
X00418032Y01881214D01*
X00416000Y01882230D01*
X00413968Y01881214D01*
X00513968D02*
X00514984Y01883246D01*
X00513968Y01885278D01*
X00516000Y01884262D01*
X00518032Y01885278D01*
X00517016Y01883246D01*
X00518032Y01881214D01*
X00516000Y01882230D01*
X00513968Y01881214D01*
X00736484Y02212734D02*
Y02211718D01*
X00738516D01*
Y02212734D01*
X00739532D01*
Y02214766D01*
X00738516D01*
Y02215782D01*
X00736484D01*
Y02214766D01*
X00735468D01*
Y02212734D01*
X00736484D01*
Y02162734D02*
Y02161718D01*
X00738516D01*
Y02162734D01*
X00739532D01*
Y02164766D01*
X00738516D01*
Y02165782D01*
X00736484D01*
Y02164766D01*
X00735468D01*
Y02162734D01*
X00736484D01*
Y02187734D02*
Y02186718D01*
X00738516D01*
Y02187734D01*
X00739532D01*
Y02189766D01*
X00738516D01*
Y02190782D01*
X00736484D01*
Y02189766D01*
X00735468D01*
Y02187734D01*
X00736484D01*
X00733968Y02274468D02*
X00734984D01*
X00736000Y02275484D01*
X00737016Y02274468D01*
X00738032D01*
Y02275484D01*
X00737016Y02276500D01*
X00738032Y02277516D01*
Y02278532D01*
X00737016D01*
X00736000Y02277516D01*
X00734984Y02278532D01*
X00733968D01*
Y02277516D01*
X00734984Y02276500D01*
X00733968Y02275484D01*
Y02274468D01*
X00753968D02*
X00754984D01*
X00756000Y02275484D01*
X00757016Y02274468D01*
X00758032D01*
Y02275484D01*
X00757016Y02276500D01*
X00758032Y02277516D01*
Y02278532D01*
X00757016D01*
X00756000Y02277516D01*
X00754984Y02278532D01*
X00753968D01*
Y02277516D01*
X00754984Y02276500D01*
X00753968Y02275484D01*
Y02274468D01*
X00795968Y01956918D02*
Y01960982D01*
X00800032D01*
Y01956918D01*
X00795968D01*
Y01931518D02*
Y01935582D01*
X00800032D01*
Y01931518D01*
X00795968D01*
Y01906118D02*
Y01910182D01*
X00800032D01*
Y01906118D01*
X00795968D01*
Y01880718D02*
Y01884782D01*
X00800032D01*
Y01880718D01*
X00795968D01*
Y01855318D02*
Y01859382D01*
X00800032D01*
Y01855318D01*
X00795968D01*
Y01829918D02*
Y01833982D01*
X00800032D01*
Y01829918D01*
X00795968D01*
Y01804518D02*
Y01808582D01*
X00800032D01*
Y01804518D01*
X00795968D01*
Y01779118D02*
Y01783182D01*
X00800032D01*
Y01779118D01*
X00795968D01*
Y01753718D02*
Y01757782D01*
X00800032D01*
Y01753718D01*
X00795968D01*
Y01728318D02*
Y01732382D01*
X00800032D01*
Y01728318D01*
X00795968D01*
Y01982318D02*
Y01986382D01*
X00800032D01*
Y01982318D01*
X00795968D01*
Y02007718D02*
Y02011782D01*
X00800032D01*
Y02007718D01*
X00795968D01*
Y02033118D02*
Y02037182D01*
X00800032D01*
Y02033118D01*
X00795968D01*
Y02058518D02*
Y02062582D01*
X00800032D01*
Y02058518D01*
X00795968D01*
Y02083918D02*
Y02087982D01*
X00800032D01*
Y02083918D01*
X00795968D01*
Y02109318D02*
Y02113382D01*
X00800032D01*
Y02109318D01*
X00795968D01*
Y02134718D02*
Y02138782D01*
X00800032D01*
Y02134718D01*
X00795968D01*
Y02160118D02*
Y02164182D01*
X00800032D01*
Y02160118D01*
X00795968D01*
Y02185518D02*
Y02189582D01*
X00800032D01*
Y02185518D01*
X00795968D01*
Y02210918D02*
Y02214982D01*
X00800032D01*
Y02210918D01*
X00795968D01*
X00948468Y02210768D02*
Y02214832D01*
X00952532D01*
Y02210768D01*
X00948468D01*
Y02185368D02*
Y02189432D01*
X00952532D01*
Y02185368D01*
X00948468D01*
Y02159968D02*
Y02164032D01*
X00952532D01*
Y02159968D01*
X00948468D01*
Y02134568D02*
Y02138632D01*
X00952532D01*
Y02134568D01*
X00948468D01*
Y02109168D02*
Y02113232D01*
X00952532D01*
Y02109168D01*
X00948468D01*
Y02083768D02*
Y02087832D01*
X00952532D01*
Y02083768D01*
X00948468D01*
Y02058368D02*
Y02062432D01*
X00952532D01*
Y02058368D01*
X00948468D01*
Y02032968D02*
Y02037032D01*
X00952532D01*
Y02032968D01*
X00948468D01*
Y02007568D02*
Y02011632D01*
X00952532D01*
Y02007568D01*
X00948468D01*
Y01982168D02*
Y01986232D01*
X00952532D01*
Y01982168D01*
X00948468D01*
Y01728168D02*
Y01732232D01*
X00952532D01*
Y01728168D01*
X00948468D01*
Y01753568D02*
Y01757632D01*
X00952532D01*
Y01753568D01*
X00948468D01*
Y01778968D02*
Y01783032D01*
X00952532D01*
Y01778968D01*
X00948468D01*
Y01804368D02*
Y01808432D01*
X00952532D01*
Y01804368D01*
X00948468D01*
Y01829768D02*
Y01833832D01*
X00952532D01*
Y01829768D01*
X00948468D01*
Y01855168D02*
Y01859232D01*
X00952532D01*
Y01855168D01*
X00948468D01*
Y01880568D02*
Y01884632D01*
X00952532D01*
Y01880568D01*
X00948468D01*
Y01905968D02*
Y01910032D01*
X00952532D01*
Y01905968D01*
X00948468D01*
Y01931368D02*
Y01935432D01*
X00952532D01*
Y01931368D01*
X00948468D01*
Y01956768D02*
Y01960832D01*
X00952532D01*
Y01956768D01*
X00948468D01*
X01042750Y02215468D02*
X01040718Y02219532D01*
X01044782D01*
X01042750Y02215468D01*
Y02190968D02*
X01040718Y02195032D01*
X01044782D01*
X01042750Y02190968D01*
Y02240218D02*
X01040718Y02244282D01*
X01044782D01*
X01042750Y02240218D01*
X01092718Y02278218D02*
X01093734Y02280250D01*
X01092718Y02282282D01*
X01094750Y02281266D01*
X01096782Y02282282D01*
X01095766Y02280250D01*
X01096782Y02278218D01*
X01094750Y02279234D01*
X01092718Y02278218D01*
X00992718D02*
X00993734Y02280250D01*
X00992718Y02282282D01*
X00994750Y02281266D01*
X00996782Y02282282D01*
X00995766Y02280250D01*
X00996782Y02278218D01*
X00994750Y02279234D01*
X00992718Y02278218D01*
X01413734Y01575734D02*
Y01574718D01*
X01415766D01*
Y01575734D01*
X01416782D01*
Y01577766D01*
X01415766D01*
Y01578782D01*
X01413734D01*
Y01577766D01*
X01412718D01*
Y01575734D01*
X01413734D01*
X01281484D02*
Y01574718D01*
X01283516D01*
Y01575734D01*
X01284532D01*
Y01577766D01*
X01283516D01*
Y01578782D01*
X01281484D01*
Y01577766D01*
X01280468D01*
Y01575734D01*
X01281484D01*
X01281234Y01627734D02*
Y01626718D01*
X01283266D01*
Y01627734D01*
X01284282D01*
Y01629766D01*
X01283266D01*
Y01630782D01*
X01281234D01*
Y01629766D01*
X01280218D01*
Y01627734D01*
X01281234D01*
X01098984Y01754584D02*
Y01753568D01*
X01101016D01*
Y01754584D01*
X01102032D01*
Y01756616D01*
X01101016D01*
Y01757632D01*
X01098984D01*
Y01756616D01*
X01097968D01*
Y01754584D01*
X01098984D01*
X01099984Y01856184D02*
Y01855168D01*
X01102016D01*
Y01856184D01*
X01103032D01*
Y01858216D01*
X01102016D01*
Y01859232D01*
X01099984D01*
Y01858216D01*
X01098968D01*
Y01856184D01*
X01099984D01*
X01085468Y01695718D02*
X01086484D01*
X01087500Y01696734D01*
X01088516Y01695718D01*
X01089532D01*
Y01696734D01*
X01088516Y01697750D01*
X01089532Y01698766D01*
Y01699782D01*
X01088516D01*
X01087500Y01698766D01*
X01086484Y01699782D01*
X01085468D01*
Y01698766D01*
X01086484Y01697750D01*
X01085468Y01696734D01*
Y01695718D01*
Y01715718D02*
X01086484D01*
X01087500Y01716734D01*
X01088516Y01715718D01*
X01089532D01*
Y01716734D01*
X01088516Y01717750D01*
X01089532Y01718766D01*
Y01719782D01*
X01088516D01*
X01087500Y01718766D01*
X01086484Y01719782D01*
X01085468D01*
Y01718766D01*
X01086484Y01717750D01*
X01085468Y01716734D01*
Y01715718D01*
X01703968Y02135968D02*
Y02140032D01*
X01708032D01*
Y02135968D01*
X01703968D01*
X01478968D02*
Y02140032D01*
X01483032D01*
Y02135968D01*
X01478968D01*
X01377218Y02346750D02*
X01379250Y02348782D01*
X01381282Y02346750D01*
X01379250Y02344718D01*
X01377218Y02346750D01*
X01482218Y02371750D02*
X01484250Y02373782D01*
X01486282Y02371750D01*
X01484250Y02369718D01*
X01482218Y02371750D01*
X00886250Y01921968D02*
X00884218Y01926032D01*
X00888282D01*
X00886250Y01921968D01*
X00837000D02*
X00834968Y01926032D01*
X00839032D01*
X00837000Y01921968D01*
X00861500D02*
X00859468Y01926032D01*
X00863532D01*
X00861500Y01921968D01*
X00886250Y01987218D02*
X00884218Y01991282D01*
X00888282D01*
X00886250Y01987218D01*
X00837000D02*
X00834968Y01991282D01*
X00839032D01*
X00837000Y01987218D01*
X00861500D02*
X00859468Y01991282D01*
X00863532D01*
X00861500Y01987218D01*
X00185218Y02408968D02*
X00186234Y02411000D01*
X00185218Y02413032D01*
X00187250Y02412016D01*
X00189282Y02413032D01*
X00188266Y02411000D01*
X00189282Y02408968D01*
X00187250Y02409984D01*
X00185218Y02408968D01*
Y02558968D02*
X00186234Y02561000D01*
X00185218Y02563032D01*
X00187250Y02562016D01*
X00189282Y02563032D01*
X00188266Y02561000D01*
X00189282Y02558968D01*
X00187250Y02559984D01*
X00185218Y02558968D01*
X00285218Y02408968D02*
Y02413032D01*
X00289282D01*
Y02408968D01*
X00285218D01*
Y02558968D02*
Y02563032D01*
X00289282D01*
Y02558968D01*
X00285218D01*
X00399968Y02483968D02*
Y02488032D01*
X00404032D01*
Y02483968D01*
X00399968D01*
X00383968Y02408968D02*
Y02413032D01*
X00388032D01*
Y02408968D01*
X00383968D01*
X00461718Y02558968D02*
Y02563032D01*
X00465782D01*
Y02558968D01*
X00461718D01*
X00711718Y02408968D02*
Y02413032D01*
X00715782D01*
Y02408968D01*
X00711718D01*
Y02558968D02*
Y02563032D01*
X00715782D01*
Y02558968D01*
X00711718D01*
X00461718Y02408968D02*
Y02413032D01*
X00465782D01*
Y02408968D01*
X00461718D01*
X00181484Y02009734D02*
Y02008718D01*
X00183516D01*
Y02009734D01*
X00184532D01*
Y02011766D01*
X00183516D01*
Y02012782D01*
X00181484D01*
Y02011766D01*
X00180468D01*
Y02009734D01*
X00181484D01*
X00131484D02*
Y02008718D01*
X00133516D01*
Y02009734D01*
X00134532D01*
Y02011766D01*
X00133516D01*
Y02012782D01*
X00131484D01*
Y02011766D01*
X00130468D01*
Y02009734D01*
X00131484D01*
X00231484D02*
Y02008718D01*
X00233516D01*
Y02009734D01*
X00234532D01*
Y02011766D01*
X00233516D01*
Y02012782D01*
X00231484D01*
Y02011766D01*
X00230468D01*
Y02009734D01*
X00231484D01*
X00281484D02*
Y02008718D01*
X00283516D01*
Y02009734D01*
X00284532D01*
Y02011766D01*
X00283516D01*
Y02012782D01*
X00281484D01*
Y02011766D01*
X00280468D01*
Y02009734D01*
X00281484D01*
X00131484Y02259734D02*
Y02258718D01*
X00133516D01*
Y02259734D01*
X00134532D01*
Y02261766D01*
X00133516D01*
Y02262782D01*
X00131484D01*
Y02261766D01*
X00130468D01*
Y02259734D01*
X00131484D01*
X00281484D02*
Y02258718D01*
X00283516D01*
Y02259734D01*
X00284532D01*
Y02261766D01*
X00283516D01*
Y02262782D01*
X00281484D01*
Y02261766D01*
X00280468D01*
Y02259734D01*
X00281484D01*
X00125468Y01890468D02*
X00126484Y01892500D01*
X00125468Y01894532D01*
X00127500Y01893516D01*
X00129532Y01894532D01*
X00128516Y01892500D01*
X00129532Y01890468D01*
X00127500Y01891484D01*
X00125468Y01890468D01*
X00025468D02*
X00026484Y01892500D01*
X00025468Y01894532D01*
X00027500Y01893516D01*
X00029532Y01894532D01*
X00028516Y01892500D01*
X00029532Y01890468D01*
X00027500Y01891484D01*
X00025468Y01890468D01*
X00673984Y01979984D02*
Y01978968D01*
X00676016D01*
Y01979984D01*
X00677032D01*
Y01982016D01*
X00676016D01*
Y01983032D01*
X00673984D01*
Y01982016D01*
X00672968D01*
Y01979984D01*
X00673984D01*
Y01954984D02*
Y01953968D01*
X00676016D01*
Y01954984D01*
X00677032D01*
Y01957016D01*
X00676016D01*
Y01958032D01*
X00673984D01*
Y01957016D01*
X00672968D01*
Y01954984D01*
X00673984D01*
Y01929984D02*
Y01928968D01*
X00676016D01*
Y01929984D01*
X00677032D01*
Y01932016D01*
X00676016D01*
Y01933032D01*
X00673984D01*
Y01932016D01*
X00672968D01*
Y01929984D01*
X00673984D01*
X00734300Y01751868D02*
X00732268Y01755932D01*
X00736332D01*
X00734300Y01751868D01*
X00708900D02*
X00706868Y01755932D01*
X00710932D01*
X00708900Y01751868D01*
X00683500D02*
X00681468Y01755932D01*
X00685532D01*
X00683500Y01751868D01*
X00658100D02*
X00656068Y01755932D01*
X00660132D01*
X00658100Y01751868D01*
X00632700D02*
X00630668Y01755932D01*
X00634732D01*
X00632700Y01751868D01*
X00734300Y01599468D02*
X00732268Y01603532D01*
X00736332D01*
X00734300Y01599468D01*
X00708900D02*
X00706868Y01603532D01*
X00710932D01*
X00708900Y01599468D01*
X00683500D02*
X00681468Y01603532D01*
X00685532D01*
X00683500Y01599468D01*
X00658100D02*
X00656068Y01603532D01*
X00660132D01*
X00658100Y01599468D01*
X00632700D02*
X00630668Y01603532D01*
X00634732D01*
X00632700Y01599468D01*
X00497700D02*
X00495668Y01603532D01*
X00499732D01*
X00497700Y01599468D01*
X00523100D02*
X00521068Y01603532D01*
X00525132D01*
X00523100Y01599468D01*
X00548500D02*
X00546468Y01603532D01*
X00550532D01*
X00548500Y01599468D01*
X00573900D02*
X00571868Y01603532D01*
X00575932D01*
X00573900Y01599468D01*
X00599300D02*
X00597268Y01603532D01*
X00601332D01*
X00599300Y01599468D01*
X00497700Y01751868D02*
X00495668Y01755932D01*
X00499732D01*
X00497700Y01751868D01*
X00523100D02*
X00521068Y01755932D01*
X00525132D01*
X00523100Y01751868D01*
X00548500D02*
X00546468Y01755932D01*
X00550532D01*
X00548500Y01751868D01*
X00573900D02*
X00571868Y01755932D01*
X00575932D01*
X00573900Y01751868D01*
X00599300D02*
X00597268Y01755932D01*
X00601332D01*
X00599300Y01751868D01*
X00362700Y01599468D02*
X00360668Y01603532D01*
X00364732D01*
X00362700Y01599468D01*
X00388100D02*
X00386068Y01603532D01*
X00390132D01*
X00388100Y01599468D01*
X00413500D02*
X00411468Y01603532D01*
X00415532D01*
X00413500Y01599468D01*
X00438900D02*
X00436868Y01603532D01*
X00440932D01*
X00438900Y01599468D01*
X00464300D02*
X00462268Y01603532D01*
X00466332D01*
X00464300Y01599468D01*
X00362700Y01751868D02*
X00360668Y01755932D01*
X00364732D01*
X00362700Y01751868D01*
X00388100D02*
X00386068Y01755932D01*
X00390132D01*
X00388100Y01751868D01*
X00413500D02*
X00411468Y01755932D01*
X00415532D01*
X00413500Y01751868D01*
X00438900D02*
X00436868Y01755932D01*
X00440932D01*
X00438900Y01751868D01*
X00464300D02*
X00462268Y01755932D01*
X00466332D01*
X00464300Y01751868D01*
X00143968Y01546968D02*
Y01551032D01*
X00148032D01*
Y01546968D01*
X00143968D01*
X00144984Y01547984D02*
Y01550016D01*
X00147016D01*
Y01547984D01*
X00144984D01*
X00245568Y01546968D02*
Y01551032D01*
X00249632D01*
Y01546968D01*
X00245568D01*
X00246584Y01547984D02*
Y01550016D01*
X00248616D01*
Y01547984D01*
X00246584D01*
X00169368Y01546968D02*
Y01551032D01*
X00173432D01*
Y01546968D01*
X00169368D01*
X00170384Y01547984D02*
Y01550016D01*
X00172416D01*
Y01547984D01*
X00170384D01*
X00118568Y01546968D02*
Y01551032D01*
X00122632D01*
Y01546968D01*
X00118568D01*
X00119584Y01547984D02*
Y01550016D01*
X00121616D01*
Y01547984D01*
X00119584D01*
X00194768Y01546968D02*
Y01551032D01*
X00198832D01*
Y01546968D01*
X00194768D01*
X00195784Y01547984D02*
Y01550016D01*
X00197816D01*
Y01547984D01*
X00195784D01*
X00220168Y01546968D02*
Y01551032D01*
X00224232D01*
Y01546968D01*
X00220168D01*
X00221184Y01547984D02*
Y01550016D01*
X00223216D01*
Y01547984D01*
X00221184D01*
X00900218Y02512468D02*
Y02516532D01*
X00904282D01*
Y02512468D01*
X00900218D01*
X00922218Y02586468D02*
Y02590532D01*
X00926282D01*
Y02586468D01*
X00922218D01*
X00632734Y02094734D02*
Y02093718D01*
X00634766D01*
Y02094734D01*
X00635782D01*
Y02096766D01*
X00634766D01*
Y02097782D01*
X00632734D01*
Y02096766D01*
X00631718D01*
Y02094734D01*
X00632734D01*
X00182500Y01890468D02*
X00180468Y01894532D01*
X00184532D01*
X00182500Y01890468D01*
Y01925468D02*
X00180468Y01929532D01*
X00184532D01*
X00182500Y01925468D01*
X01062484Y01830659D02*
Y01829643D01*
X01064516D01*
Y01830659D01*
X01065532D01*
Y01832691D01*
X01064516D01*
Y01833707D01*
X01062484D01*
Y01832691D01*
X01061468D01*
Y01830659D01*
X01062484D01*
X01184718Y02065718D02*
X01185734D01*
X01186750Y02066734D01*
X01187766Y02065718D01*
X01188782D01*
Y02066734D01*
X01187766Y02067750D01*
X01188782Y02068766D01*
Y02069782D01*
X01187766D01*
X01186750Y02068766D01*
X01185734Y02069782D01*
X01184718D01*
Y02068766D01*
X01185734Y02067750D01*
X01184718Y02066734D01*
Y02065718D01*
X01204718D02*
X01205734D01*
X01206750Y02066734D01*
X01207766Y02065718D01*
X01208782D01*
Y02066734D01*
X01207766Y02067750D01*
X01208782Y02068766D01*
Y02069782D01*
X01207766D01*
X01206750Y02068766D01*
X01205734Y02069782D01*
X01204718D01*
Y02068766D01*
X01205734Y02067750D01*
X01204718Y02066734D01*
Y02065718D01*
X01061734Y01779984D02*
Y01778968D01*
X01063766D01*
Y01779984D01*
X01064782D01*
Y01782016D01*
X01063766D01*
Y01783032D01*
X01061734D01*
Y01782016D01*
X01060718D01*
Y01779984D01*
X01061734D01*
X01061234Y01881584D02*
Y01880568D01*
X01063266D01*
Y01881584D01*
X01064282D01*
Y01883616D01*
X01063266D01*
Y01884632D01*
X01061234D01*
Y01883616D01*
X01060218D01*
Y01881584D01*
X01061234D01*
X01098984Y01805384D02*
Y01804368D01*
X01101016D01*
Y01805384D01*
X01102032D01*
Y01807416D01*
X01101016D01*
Y01808432D01*
X01098984D01*
Y01807416D01*
X01097968D01*
Y01805384D01*
X01098984D01*
X01643500Y01810968D02*
X01644516Y01811984D01*
X01645532D01*
X01644516Y01813000D01*
X01645532Y01814016D01*
X01644516D01*
X01643500Y01815032D01*
X01642484Y01814016D01*
X01641468D01*
X01642484Y01813000D01*
X01641468Y01811984D01*
X01642484D01*
X01643500Y01810968D01*
Y01885968D02*
X01644516Y01886984D01*
X01645532D01*
X01644516Y01888000D01*
X01645532Y01889016D01*
X01644516D01*
X01643500Y01890032D01*
X01642484Y01889016D01*
X01641468D01*
X01642484Y01888000D01*
X01641468Y01886984D01*
X01642484D01*
X01643500Y01885968D01*
Y01960968D02*
X01644516Y01961984D01*
X01645532D01*
X01644516Y01963000D01*
X01645532Y01964016D01*
X01644516D01*
X01643500Y01965032D01*
X01642484Y01964016D01*
X01641468D01*
X01642484Y01963000D01*
X01641468Y01961984D01*
X01642484D01*
X01643500Y01960968D01*
X00557484Y02095234D02*
Y02094218D01*
X00559516D01*
Y02095234D01*
X00560532D01*
Y02097266D01*
X00559516D01*
Y02098282D01*
X00557484D01*
Y02097266D01*
X00556468D01*
Y02095234D01*
X00557484D01*
X01130218Y01976968D02*
X01131234D01*
X01132250Y01977984D01*
X01133266Y01976968D01*
X01134282D01*
Y01977984D01*
X01133266Y01979000D01*
X01134282Y01980016D01*
Y01981032D01*
X01133266D01*
X01132250Y01980016D01*
X01131234Y01981032D01*
X01130218D01*
Y01980016D01*
X01131234Y01979000D01*
X01130218Y01977984D01*
Y01976968D01*
Y01956968D02*
X01131234D01*
X01132250Y01957984D01*
X01133266Y01956968D01*
X01134282D01*
Y01957984D01*
X01133266Y01959000D01*
X01134282Y01960016D01*
Y01961032D01*
X01133266D01*
X01132250Y01960016D01*
X01131234Y01961032D01*
X01130218D01*
Y01960016D01*
X01131234Y01959000D01*
X01130218Y01957984D01*
Y01956968D01*
X01519984Y01886384D02*
Y01885368D01*
X01522016D01*
Y01886384D01*
X01523032D01*
Y01888416D01*
X01522016D01*
Y01889432D01*
X01519984D01*
Y01888416D01*
X01518968D01*
Y01886384D01*
X01519984D01*
Y01839084D02*
Y01838068D01*
X01522016D01*
Y01839084D01*
X01523032D01*
Y01841116D01*
X01522016D01*
Y01842132D01*
X01519984D01*
Y01841116D01*
X01518968D01*
Y01839084D01*
X01519984D01*
Y01933559D02*
Y01932543D01*
X01522016D01*
Y01933559D01*
X01523032D01*
Y01935591D01*
X01522016D01*
Y01936607D01*
X01519984D01*
Y01935591D01*
X01518968D01*
Y01933559D01*
X01519984D01*
X01267718Y01917218D02*
X01268734D01*
X01269750Y01918234D01*
X01270766Y01917218D01*
X01271782D01*
Y01918234D01*
X01270766Y01919250D01*
X01271782Y01920266D01*
Y01921282D01*
X01270766D01*
X01269750Y01920266D01*
X01268734Y01921282D01*
X01267718D01*
Y01920266D01*
X01268734Y01919250D01*
X01267718Y01918234D01*
Y01917218D01*
Y01897218D02*
X01268734D01*
X01269750Y01898234D01*
X01270766Y01897218D01*
X01271782D01*
Y01898234D01*
X01270766Y01899250D01*
X01271782Y01900266D01*
Y01901282D01*
X01270766D01*
X01269750Y01900266D01*
X01268734Y01901282D01*
X01267718D01*
Y01900266D01*
X01268734Y01899250D01*
X01267718Y01898234D01*
Y01897218D01*
X01094484Y01651234D02*
Y01650218D01*
X01096516D01*
Y01651234D01*
X01097532D01*
Y01653266D01*
X01096516D01*
Y01654282D01*
X01094484D01*
Y01653266D01*
X01093468D01*
Y01651234D01*
X01094484D01*
X01508484Y01597734D02*
Y01596718D01*
X01510516D01*
Y01597734D01*
X01511532D01*
Y01599766D01*
X01510516D01*
Y01600782D01*
X01508484D01*
Y01599766D01*
X01507468D01*
Y01597734D01*
X01508484D01*
X01589984Y01643734D02*
Y01642718D01*
X01592016D01*
Y01643734D01*
X01593032D01*
Y01645766D01*
X01592016D01*
Y01646782D01*
X01589984D01*
Y01645766D01*
X01588968D01*
Y01643734D01*
X01589984D01*
X00821968Y02558968D02*
Y02563032D01*
X00826032D01*
Y02558968D01*
X00821968D01*
Y02408968D02*
Y02413032D01*
X00826032D01*
Y02408968D01*
X00821968D01*
X00088750D02*
X00089766Y02409984D01*
X00090782D01*
X00089766Y02411000D01*
X00090782Y02412016D01*
X00089766D01*
X00088750Y02413032D01*
X00087734Y02412016D01*
X00086718D01*
X00087734Y02411000D01*
X00086718Y02409984D01*
X00087734D01*
X00088750Y02408968D01*
Y02483968D02*
X00089766Y02484984D01*
X00090782D01*
X00089766Y02486000D01*
X00090782Y02487016D01*
X00089766D01*
X00088750Y02488032D01*
X00087734Y02487016D01*
X00086718D01*
X00087734Y02486000D01*
X00086718Y02484984D01*
X00087734D01*
X00088750Y02483968D01*
X00532000Y01978968D02*
X00529968Y01983032D01*
X00534032D01*
X00532000Y01978968D01*
Y02013968D02*
X00529968Y02018032D01*
X00534032D01*
X00532000Y02013968D01*
X01696250Y01564718D02*
X01694218Y01568782D01*
X01698282D01*
X01696250Y01564718D01*
Y01565734D02*
X01695234Y01567766D01*
X01697266D01*
X01696250Y01565734D01*
X00046250Y01562718D02*
X00044218Y01566782D01*
X00048282D01*
X00046250Y01562718D01*
Y01563734D02*
X00045234Y01565766D01*
X00047266D01*
X00046250Y01563734D01*
X01698250Y02661718D02*
X01696218Y02665782D01*
X01700282D01*
X01698250Y02661718D01*
Y02662734D02*
X01697234Y02664766D01*
X01699266D01*
X01698250Y02662734D01*
X00047250Y02660718D02*
X00045218Y02664782D01*
X00049282D01*
X00047250Y02660718D01*
Y02661734D02*
X00046234Y02663766D01*
X00048266D01*
X00047250Y02661734D01*
X01500000Y01647968D02*
X01501016Y01648984D01*
X01502032D01*
X01501016Y01650000D01*
X01502032Y01651016D01*
X01501016D01*
X01500000Y01652032D01*
X01498984Y01651016D01*
X01497968D01*
X01498984Y01650000D01*
X01497968Y01648984D01*
X01498984D01*
X01500000Y01647968D01*
Y01648984D02*
X01500508Y01649492D01*
X01501016D01*
X01500508Y01650000D01*
X01501016Y01650508D01*
X01500508D01*
X01500000Y01651016D01*
X01499492Y01650508D01*
X01498984D01*
X01499492Y01650000D01*
X01498984Y01649492D01*
X01499492D01*
X01500000Y01648984D01*
Y01547968D02*
X01501016Y01548984D01*
X01502032D01*
X01501016Y01550000D01*
X01502032Y01551016D01*
X01501016D01*
X01500000Y01552032D01*
X01498984Y01551016D01*
X01497968D01*
X01498984Y01550000D01*
X01497968Y01548984D01*
X01498984D01*
X01500000Y01547968D01*
Y01548984D02*
X01500508Y01549492D01*
X01501016D01*
X01500508Y01550000D01*
X01501016Y01550508D01*
X01500508D01*
X01500000Y01551016D01*
X01499492Y01550508D01*
X01498984D01*
X01499492Y01550000D01*
X01498984Y01549492D01*
X01499492D01*
X01500000Y01548984D01*
X01475000Y01597968D02*
X01476016Y01598984D01*
X01477032D01*
X01476016Y01600000D01*
X01477032Y01601016D01*
X01476016D01*
X01475000Y01602032D01*
X01473984Y01601016D01*
X01472968D01*
X01473984Y01600000D01*
X01472968Y01598984D01*
X01473984D01*
X01475000Y01597968D01*
Y01598984D02*
X01475508Y01599492D01*
X01476016D01*
X01475508Y01600000D01*
X01476016Y01600508D01*
X01475508D01*
X01475000Y01601016D01*
X01474492Y01600508D01*
X01473984D01*
X01474492Y01600000D01*
X01473984Y01599492D01*
X01474492D01*
X01475000Y01598984D01*
X01450000Y01547968D02*
X01451016Y01548984D01*
X01452032D01*
X01451016Y01550000D01*
X01452032Y01551016D01*
X01451016D01*
X01450000Y01552032D01*
X01448984Y01551016D01*
X01447968D01*
X01448984Y01550000D01*
X01447968Y01548984D01*
X01448984D01*
X01450000Y01547968D01*
Y01548984D02*
X01450508Y01549492D01*
X01451016D01*
X01450508Y01550000D01*
X01451016Y01550508D01*
X01450508D01*
X01450000Y01551016D01*
X01449492Y01550508D01*
X01448984D01*
X01449492Y01550000D01*
X01448984Y01549492D01*
X01449492D01*
X01450000Y01548984D01*
X01400000Y01647968D02*
X01401016Y01648984D01*
X01402032D01*
X01401016Y01650000D01*
X01402032Y01651016D01*
X01401016D01*
X01400000Y01652032D01*
X01398984Y01651016D01*
X01397968D01*
X01398984Y01650000D01*
X01397968Y01648984D01*
X01398984D01*
X01400000Y01647968D01*
Y01648984D02*
X01400508Y01649492D01*
X01401016D01*
X01400508Y01650000D01*
X01401016Y01650508D01*
X01400508D01*
X01400000Y01651016D01*
X01399492Y01650508D01*
X01398984D01*
X01399492Y01650000D01*
X01398984Y01649492D01*
X01399492D01*
X01400000Y01648984D01*
X01425000Y01597968D02*
X01426016Y01598984D01*
X01427032D01*
X01426016Y01600000D01*
X01427032Y01601016D01*
X01426016D01*
X01425000Y01602032D01*
X01423984Y01601016D01*
X01422968D01*
X01423984Y01600000D01*
X01422968Y01598984D01*
X01423984D01*
X01425000Y01597968D01*
Y01598984D02*
X01425508Y01599492D01*
X01426016D01*
X01425508Y01600000D01*
X01426016Y01600508D01*
X01425508D01*
X01425000Y01601016D01*
X01424492Y01600508D01*
X01423984D01*
X01424492Y01600000D01*
X01423984Y01599492D01*
X01424492D01*
X01425000Y01598984D01*
X01375000Y01597968D02*
X01376016Y01598984D01*
X01377032D01*
X01376016Y01600000D01*
X01377032Y01601016D01*
X01376016D01*
X01375000Y01602032D01*
X01373984Y01601016D01*
X01372968D01*
X01373984Y01600000D01*
X01372968Y01598984D01*
X01373984D01*
X01375000Y01597968D01*
Y01598984D02*
X01375508Y01599492D01*
X01376016D01*
X01375508Y01600000D01*
X01376016Y01600508D01*
X01375508D01*
X01375000Y01601016D01*
X01374492Y01600508D01*
X01373984D01*
X01374492Y01600000D01*
X01373984Y01599492D01*
X01374492D01*
X01375000Y01598984D01*
X01300000Y01747968D02*
X01301016Y01748984D01*
X01302032D01*
X01301016Y01750000D01*
X01302032Y01751016D01*
X01301016D01*
X01300000Y01752032D01*
X01298984Y01751016D01*
X01297968D01*
X01298984Y01750000D01*
X01297968Y01748984D01*
X01298984D01*
X01300000Y01747968D01*
Y01748984D02*
X01300508Y01749492D01*
X01301016D01*
X01300508Y01750000D01*
X01301016Y01750508D01*
X01300508D01*
X01300000Y01751016D01*
X01299492Y01750508D01*
X01298984D01*
X01299492Y01750000D01*
X01298984Y01749492D01*
X01299492D01*
X01300000Y01748984D01*
Y01547968D02*
X01301016Y01548984D01*
X01302032D01*
X01301016Y01550000D01*
X01302032Y01551016D01*
X01301016D01*
X01300000Y01552032D01*
X01298984Y01551016D01*
X01297968D01*
X01298984Y01550000D01*
X01297968Y01548984D01*
X01298984D01*
X01300000Y01547968D01*
Y01548984D02*
X01300508Y01549492D01*
X01301016D01*
X01300508Y01550000D01*
X01301016Y01550508D01*
X01300508D01*
X01300000Y01551016D01*
X01299492Y01550508D01*
X01298984D01*
X01299492Y01550000D01*
X01298984Y01549492D01*
X01299492D01*
X01300000Y01548984D01*
X01250000Y01747968D02*
X01251016Y01748984D01*
X01252032D01*
X01251016Y01750000D01*
X01252032Y01751016D01*
X01251016D01*
X01250000Y01752032D01*
X01248984Y01751016D01*
X01247968D01*
X01248984Y01750000D01*
X01247968Y01748984D01*
X01248984D01*
X01250000Y01747968D01*
Y01748984D02*
X01250508Y01749492D01*
X01251016D01*
X01250508Y01750000D01*
X01251016Y01750508D01*
X01250508D01*
X01250000Y01751016D01*
X01249492Y01750508D01*
X01248984D01*
X01249492Y01750000D01*
X01248984Y01749492D01*
X01249492D01*
X01250000Y01748984D01*
X01275000Y01697968D02*
X01276016Y01698984D01*
X01277032D01*
X01276016Y01700000D01*
X01277032Y01701016D01*
X01276016D01*
X01275000Y01702032D01*
X01273984Y01701016D01*
X01272968D01*
X01273984Y01700000D01*
X01272968Y01698984D01*
X01273984D01*
X01275000Y01697968D01*
Y01698984D02*
X01275508Y01699492D01*
X01276016D01*
X01275508Y01700000D01*
X01276016Y01700508D01*
X01275508D01*
X01275000Y01701016D01*
X01274492Y01700508D01*
X01273984D01*
X01274492Y01700000D01*
X01273984Y01699492D01*
X01274492D01*
X01275000Y01698984D01*
X01250000Y01647968D02*
X01251016Y01648984D01*
X01252032D01*
X01251016Y01650000D01*
X01252032Y01651016D01*
X01251016D01*
X01250000Y01652032D01*
X01248984Y01651016D01*
X01247968D01*
X01248984Y01650000D01*
X01247968Y01648984D01*
X01248984D01*
X01250000Y01647968D01*
Y01648984D02*
X01250508Y01649492D01*
X01251016D01*
X01250508Y01650000D01*
X01251016Y01650508D01*
X01250508D01*
X01250000Y01651016D01*
X01249492Y01650508D01*
X01248984D01*
X01249492Y01650000D01*
X01248984Y01649492D01*
X01249492D01*
X01250000Y01648984D01*
Y01547968D02*
X01251016Y01548984D01*
X01252032D01*
X01251016Y01550000D01*
X01252032Y01551016D01*
X01251016D01*
X01250000Y01552032D01*
X01248984Y01551016D01*
X01247968D01*
X01248984Y01550000D01*
X01247968Y01548984D01*
X01248984D01*
X01250000Y01547968D01*
Y01548984D02*
X01250508Y01549492D01*
X01251016D01*
X01250508Y01550000D01*
X01251016Y01550508D01*
X01250508D01*
X01250000Y01551016D01*
X01249492Y01550508D01*
X01248984D01*
X01249492Y01550000D01*
X01248984Y01549492D01*
X01249492D01*
X01250000Y01548984D01*
X01225000Y02197968D02*
X01226016Y02198984D01*
X01227032D01*
X01226016Y02200000D01*
X01227032Y02201016D01*
X01226016D01*
X01225000Y02202032D01*
X01223984Y02201016D01*
X01222968D01*
X01223984Y02200000D01*
X01222968Y02198984D01*
X01223984D01*
X01225000Y02197968D01*
Y02198984D02*
X01225508Y02199492D01*
X01226016D01*
X01225508Y02200000D01*
X01226016Y02200508D01*
X01225508D01*
X01225000Y02201016D01*
X01224492Y02200508D01*
X01223984D01*
X01224492Y02200000D01*
X01223984Y02199492D01*
X01224492D01*
X01225000Y02198984D01*
X01200000Y02147968D02*
X01201016Y02148984D01*
X01202032D01*
X01201016Y02150000D01*
X01202032Y02151016D01*
X01201016D01*
X01200000Y02152032D01*
X01198984Y02151016D01*
X01197968D01*
X01198984Y02150000D01*
X01197968Y02148984D01*
X01198984D01*
X01200000Y02147968D01*
Y02148984D02*
X01200508Y02149492D01*
X01201016D01*
X01200508Y02150000D01*
X01201016Y02150508D01*
X01200508D01*
X01200000Y02151016D01*
X01199492Y02150508D01*
X01198984D01*
X01199492Y02150000D01*
X01198984Y02149492D01*
X01199492D01*
X01200000Y02148984D01*
X01225000Y01797968D02*
X01226016Y01798984D01*
X01227032D01*
X01226016Y01800000D01*
X01227032Y01801016D01*
X01226016D01*
X01225000Y01802032D01*
X01223984Y01801016D01*
X01222968D01*
X01223984Y01800000D01*
X01222968Y01798984D01*
X01223984D01*
X01225000Y01797968D01*
Y01798984D02*
X01225508Y01799492D01*
X01226016D01*
X01225508Y01800000D01*
X01226016Y01800508D01*
X01225508D01*
X01225000Y01801016D01*
X01224492Y01800508D01*
X01223984D01*
X01224492Y01800000D01*
X01223984Y01799492D01*
X01224492D01*
X01225000Y01798984D01*
Y01697968D02*
X01226016Y01698984D01*
X01227032D01*
X01226016Y01700000D01*
X01227032Y01701016D01*
X01226016D01*
X01225000Y01702032D01*
X01223984Y01701016D01*
X01222968D01*
X01223984Y01700000D01*
X01222968Y01698984D01*
X01223984D01*
X01225000Y01697968D01*
Y01698984D02*
X01225508Y01699492D01*
X01226016D01*
X01225508Y01700000D01*
X01226016Y01700508D01*
X01225508D01*
X01225000Y01701016D01*
X01224492Y01700508D01*
X01223984D01*
X01224492Y01700000D01*
X01223984Y01699492D01*
X01224492D01*
X01225000Y01698984D01*
X01200000Y01647968D02*
X01201016Y01648984D01*
X01202032D01*
X01201016Y01650000D01*
X01202032Y01651016D01*
X01201016D01*
X01200000Y01652032D01*
X01198984Y01651016D01*
X01197968D01*
X01198984Y01650000D01*
X01197968Y01648984D01*
X01198984D01*
X01200000Y01647968D01*
Y01648984D02*
X01200508Y01649492D01*
X01201016D01*
X01200508Y01650000D01*
X01201016Y01650508D01*
X01200508D01*
X01200000Y01651016D01*
X01199492Y01650508D01*
X01198984D01*
X01199492Y01650000D01*
X01198984Y01649492D01*
X01199492D01*
X01200000Y01648984D01*
Y01547968D02*
X01201016Y01548984D01*
X01202032D01*
X01201016Y01550000D01*
X01202032Y01551016D01*
X01201016D01*
X01200000Y01552032D01*
X01198984Y01551016D01*
X01197968D01*
X01198984Y01550000D01*
X01197968Y01548984D01*
X01198984D01*
X01200000Y01547968D01*
Y01548984D02*
X01200508Y01549492D01*
X01201016D01*
X01200508Y01550000D01*
X01201016Y01550508D01*
X01200508D01*
X01200000Y01551016D01*
X01199492Y01550508D01*
X01198984D01*
X01199492Y01550000D01*
X01198984Y01549492D01*
X01199492D01*
X01200000Y01548984D01*
X01150000Y02247968D02*
X01151016Y02248984D01*
X01152032D01*
X01151016Y02250000D01*
X01152032Y02251016D01*
X01151016D01*
X01150000Y02252032D01*
X01148984Y02251016D01*
X01147968D01*
X01148984Y02250000D01*
X01147968Y02248984D01*
X01148984D01*
X01150000Y02247968D01*
Y02248984D02*
X01150508Y02249492D01*
X01151016D01*
X01150508Y02250000D01*
X01151016Y02250508D01*
X01150508D01*
X01150000Y02251016D01*
X01149492Y02250508D01*
X01148984D01*
X01149492Y02250000D01*
X01148984Y02249492D01*
X01149492D01*
X01150000Y02248984D01*
X01175000Y02197968D02*
X01176016Y02198984D01*
X01177032D01*
X01176016Y02200000D01*
X01177032Y02201016D01*
X01176016D01*
X01175000Y02202032D01*
X01173984Y02201016D01*
X01172968D01*
X01173984Y02200000D01*
X01172968Y02198984D01*
X01173984D01*
X01175000Y02197968D01*
Y02198984D02*
X01175508Y02199492D01*
X01176016D01*
X01175508Y02200000D01*
X01176016Y02200508D01*
X01175508D01*
X01175000Y02201016D01*
X01174492Y02200508D01*
X01173984D01*
X01174492Y02200000D01*
X01173984Y02199492D01*
X01174492D01*
X01175000Y02198984D01*
X01150000Y02147968D02*
X01151016Y02148984D01*
X01152032D01*
X01151016Y02150000D01*
X01152032Y02151016D01*
X01151016D01*
X01150000Y02152032D01*
X01148984Y02151016D01*
X01147968D01*
X01148984Y02150000D01*
X01147968Y02148984D01*
X01148984D01*
X01150000Y02147968D01*
Y02148984D02*
X01150508Y02149492D01*
X01151016D01*
X01150508Y02150000D01*
X01151016Y02150508D01*
X01150508D01*
X01150000Y02151016D01*
X01149492Y02150508D01*
X01148984D01*
X01149492Y02150000D01*
X01148984Y02149492D01*
X01149492D01*
X01150000Y02148984D01*
X01175000Y01697968D02*
X01176016Y01698984D01*
X01177032D01*
X01176016Y01700000D01*
X01177032Y01701016D01*
X01176016D01*
X01175000Y01702032D01*
X01173984Y01701016D01*
X01172968D01*
X01173984Y01700000D01*
X01172968Y01698984D01*
X01173984D01*
X01175000Y01697968D01*
Y01698984D02*
X01175508Y01699492D01*
X01176016D01*
X01175508Y01700000D01*
X01176016Y01700508D01*
X01175508D01*
X01175000Y01701016D01*
X01174492Y01700508D01*
X01173984D01*
X01174492Y01700000D01*
X01173984Y01699492D01*
X01174492D01*
X01175000Y01698984D01*
X01150000Y01547968D02*
X01151016Y01548984D01*
X01152032D01*
X01151016Y01550000D01*
X01152032Y01551016D01*
X01151016D01*
X01150000Y01552032D01*
X01148984Y01551016D01*
X01147968D01*
X01148984Y01550000D01*
X01147968Y01548984D01*
X01148984D01*
X01150000Y01547968D01*
Y01548984D02*
X01150508Y01549492D01*
X01151016D01*
X01150508Y01550000D01*
X01151016Y01550508D01*
X01150508D01*
X01150000Y01551016D01*
X01149492Y01550508D01*
X01148984D01*
X01149492Y01550000D01*
X01148984Y01549492D01*
X01149492D01*
X01150000Y01548984D01*
X01100000Y02247968D02*
X01101016Y02248984D01*
X01102032D01*
X01101016Y02250000D01*
X01102032Y02251016D01*
X01101016D01*
X01100000Y02252032D01*
X01098984Y02251016D01*
X01097968D01*
X01098984Y02250000D01*
X01097968Y02248984D01*
X01098984D01*
X01100000Y02247968D01*
Y02248984D02*
X01100508Y02249492D01*
X01101016D01*
X01100508Y02250000D01*
X01101016Y02250508D01*
X01100508D01*
X01100000Y02251016D01*
X01099492Y02250508D01*
X01098984D01*
X01099492Y02250000D01*
X01098984Y02249492D01*
X01099492D01*
X01100000Y02248984D01*
X01125000Y02197968D02*
X01126016Y02198984D01*
X01127032D01*
X01126016Y02200000D01*
X01127032Y02201016D01*
X01126016D01*
X01125000Y02202032D01*
X01123984Y02201016D01*
X01122968D01*
X01123984Y02200000D01*
X01122968Y02198984D01*
X01123984D01*
X01125000Y02197968D01*
Y02198984D02*
X01125508Y02199492D01*
X01126016D01*
X01125508Y02200000D01*
X01126016Y02200508D01*
X01125508D01*
X01125000Y02201016D01*
X01124492Y02200508D01*
X01123984D01*
X01124492Y02200000D01*
X01123984Y02199492D01*
X01124492D01*
X01125000Y02198984D01*
X01100000Y02147968D02*
X01101016Y02148984D01*
X01102032D01*
X01101016Y02150000D01*
X01102032Y02151016D01*
X01101016D01*
X01100000Y02152032D01*
X01098984Y02151016D01*
X01097968D01*
X01098984Y02150000D01*
X01097968Y02148984D01*
X01098984D01*
X01100000Y02147968D01*
Y02148984D02*
X01100508Y02149492D01*
X01101016D01*
X01100508Y02150000D01*
X01101016Y02150508D01*
X01100508D01*
X01100000Y02151016D01*
X01099492Y02150508D01*
X01098984D01*
X01099492Y02150000D01*
X01098984Y02149492D01*
X01099492D01*
X01100000Y02148984D01*
X01125000Y01897968D02*
X01126016Y01898984D01*
X01127032D01*
X01126016Y01900000D01*
X01127032Y01901016D01*
X01126016D01*
X01125000Y01902032D01*
X01123984Y01901016D01*
X01122968D01*
X01123984Y01900000D01*
X01122968Y01898984D01*
X01123984D01*
X01125000Y01897968D01*
Y01898984D02*
X01125508Y01899492D01*
X01126016D01*
X01125508Y01900000D01*
X01126016Y01900508D01*
X01125508D01*
X01125000Y01901016D01*
X01124492Y01900508D01*
X01123984D01*
X01124492Y01900000D01*
X01123984Y01899492D01*
X01124492D01*
X01125000Y01898984D01*
Y01697968D02*
X01126016Y01698984D01*
X01127032D01*
X01126016Y01700000D01*
X01127032Y01701016D01*
X01126016D01*
X01125000Y01702032D01*
X01123984Y01701016D01*
X01122968D01*
X01123984Y01700000D01*
X01122968Y01698984D01*
X01123984D01*
X01125000Y01697968D01*
Y01698984D02*
X01125508Y01699492D01*
X01126016D01*
X01125508Y01700000D01*
X01126016Y01700508D01*
X01125508D01*
X01125000Y01701016D01*
X01124492Y01700508D01*
X01123984D01*
X01124492Y01700000D01*
X01123984Y01699492D01*
X01124492D01*
X01125000Y01698984D01*
X01100000Y01547968D02*
X01101016Y01548984D01*
X01102032D01*
X01101016Y01550000D01*
X01102032Y01551016D01*
X01101016D01*
X01100000Y01552032D01*
X01098984Y01551016D01*
X01097968D01*
X01098984Y01550000D01*
X01097968Y01548984D01*
X01098984D01*
X01100000Y01547968D01*
Y01548984D02*
X01100508Y01549492D01*
X01101016D01*
X01100508Y01550000D01*
X01101016Y01550508D01*
X01100508D01*
X01100000Y01551016D01*
X01099492Y01550508D01*
X01098984D01*
X01099492Y01550000D01*
X01098984Y01549492D01*
X01099492D01*
X01100000Y01548984D01*
X01075000Y02197968D02*
X01076016Y02198984D01*
X01077032D01*
X01076016Y02200000D01*
X01077032Y02201016D01*
X01076016D01*
X01075000Y02202032D01*
X01073984Y02201016D01*
X01072968D01*
X01073984Y02200000D01*
X01072968Y02198984D01*
X01073984D01*
X01075000Y02197968D01*
Y02198984D02*
X01075508Y02199492D01*
X01076016D01*
X01075508Y02200000D01*
X01076016Y02200508D01*
X01075508D01*
X01075000Y02201016D01*
X01074492Y02200508D01*
X01073984D01*
X01074492Y02200000D01*
X01073984Y02199492D01*
X01074492D01*
X01075000Y02198984D01*
X01050000Y02147968D02*
X01051016Y02148984D01*
X01052032D01*
X01051016Y02150000D01*
X01052032Y02151016D01*
X01051016D01*
X01050000Y02152032D01*
X01048984Y02151016D01*
X01047968D01*
X01048984Y02150000D01*
X01047968Y02148984D01*
X01048984D01*
X01050000Y02147968D01*
Y02148984D02*
X01050508Y02149492D01*
X01051016D01*
X01050508Y02150000D01*
X01051016Y02150508D01*
X01050508D01*
X01050000Y02151016D01*
X01049492Y02150508D01*
X01048984D01*
X01049492Y02150000D01*
X01048984Y02149492D01*
X01049492D01*
X01050000Y02148984D01*
X01075000Y02097968D02*
X01076016Y02098984D01*
X01077032D01*
X01076016Y02100000D01*
X01077032Y02101016D01*
X01076016D01*
X01075000Y02102032D01*
X01073984Y02101016D01*
X01072968D01*
X01073984Y02100000D01*
X01072968Y02098984D01*
X01073984D01*
X01075000Y02097968D01*
Y02098984D02*
X01075508Y02099492D01*
X01076016D01*
X01075508Y02100000D01*
X01076016Y02100508D01*
X01075508D01*
X01075000Y02101016D01*
X01074492Y02100508D01*
X01073984D01*
X01074492Y02100000D01*
X01073984Y02099492D01*
X01074492D01*
X01075000Y02098984D01*
X01050000Y02047968D02*
X01051016Y02048984D01*
X01052032D01*
X01051016Y02050000D01*
X01052032Y02051016D01*
X01051016D01*
X01050000Y02052032D01*
X01048984Y02051016D01*
X01047968D01*
X01048984Y02050000D01*
X01047968Y02048984D01*
X01048984D01*
X01050000Y02047968D01*
Y02048984D02*
X01050508Y02049492D01*
X01051016D01*
X01050508Y02050000D01*
X01051016Y02050508D01*
X01050508D01*
X01050000Y02051016D01*
X01049492Y02050508D01*
X01048984D01*
X01049492Y02050000D01*
X01048984Y02049492D01*
X01049492D01*
X01050000Y02048984D01*
X01075000Y01897968D02*
X01076016Y01898984D01*
X01077032D01*
X01076016Y01900000D01*
X01077032Y01901016D01*
X01076016D01*
X01075000Y01902032D01*
X01073984Y01901016D01*
X01072968D01*
X01073984Y01900000D01*
X01072968Y01898984D01*
X01073984D01*
X01075000Y01897968D01*
Y01898984D02*
X01075508Y01899492D01*
X01076016D01*
X01075508Y01900000D01*
X01076016Y01900508D01*
X01075508D01*
X01075000Y01901016D01*
X01074492Y01900508D01*
X01073984D01*
X01074492Y01900000D01*
X01073984Y01899492D01*
X01074492D01*
X01075000Y01898984D01*
X01050000Y01547968D02*
X01051016Y01548984D01*
X01052032D01*
X01051016Y01550000D01*
X01052032Y01551016D01*
X01051016D01*
X01050000Y01552032D01*
X01048984Y01551016D01*
X01047968D01*
X01048984Y01550000D01*
X01047968Y01548984D01*
X01048984D01*
X01050000Y01547968D01*
Y01548984D02*
X01050508Y01549492D01*
X01051016D01*
X01050508Y01550000D01*
X01051016Y01550508D01*
X01050508D01*
X01050000Y01551016D01*
X01049492Y01550508D01*
X01048984D01*
X01049492Y01550000D01*
X01048984Y01549492D01*
X01049492D01*
X01050000Y01548984D01*
X01025000Y02197968D02*
X01026016Y02198984D01*
X01027032D01*
X01026016Y02200000D01*
X01027032Y02201016D01*
X01026016D01*
X01025000Y02202032D01*
X01023984Y02201016D01*
X01022968D01*
X01023984Y02200000D01*
X01022968Y02198984D01*
X01023984D01*
X01025000Y02197968D01*
Y02198984D02*
X01025508Y02199492D01*
X01026016D01*
X01025508Y02200000D01*
X01026016Y02200508D01*
X01025508D01*
X01025000Y02201016D01*
X01024492Y02200508D01*
X01023984D01*
X01024492Y02200000D01*
X01023984Y02199492D01*
X01024492D01*
X01025000Y02198984D01*
Y02097968D02*
X01026016Y02098984D01*
X01027032D01*
X01026016Y02100000D01*
X01027032Y02101016D01*
X01026016D01*
X01025000Y02102032D01*
X01023984Y02101016D01*
X01022968D01*
X01023984Y02100000D01*
X01022968Y02098984D01*
X01023984D01*
X01025000Y02097968D01*
Y02098984D02*
X01025508Y02099492D01*
X01026016D01*
X01025508Y02100000D01*
X01026016Y02100508D01*
X01025508D01*
X01025000Y02101016D01*
X01024492Y02100508D01*
X01023984D01*
X01024492Y02100000D01*
X01023984Y02099492D01*
X01024492D01*
X01025000Y02098984D01*
X01000000Y02047968D02*
X01001016Y02048984D01*
X01002032D01*
X01001016Y02050000D01*
X01002032Y02051016D01*
X01001016D01*
X01000000Y02052032D01*
X00998984Y02051016D01*
X00997968D01*
X00998984Y02050000D01*
X00997968Y02048984D01*
X00998984D01*
X01000000Y02047968D01*
Y02048984D02*
X01000508Y02049492D01*
X01001016D01*
X01000508Y02050000D01*
X01001016Y02050508D01*
X01000508D01*
X01000000Y02051016D01*
X00999492Y02050508D01*
X00998984D01*
X00999492Y02050000D01*
X00998984Y02049492D01*
X00999492D01*
X01000000Y02048984D01*
X01025000Y01997968D02*
X01026016Y01998984D01*
X01027032D01*
X01026016Y02000000D01*
X01027032Y02001016D01*
X01026016D01*
X01025000Y02002032D01*
X01023984Y02001016D01*
X01022968D01*
X01023984Y02000000D01*
X01022968Y01998984D01*
X01023984D01*
X01025000Y01997968D01*
Y01998984D02*
X01025508Y01999492D01*
X01026016D01*
X01025508Y02000000D01*
X01026016Y02000508D01*
X01025508D01*
X01025000Y02001016D01*
X01024492Y02000508D01*
X01023984D01*
X01024492Y02000000D01*
X01023984Y01999492D01*
X01024492D01*
X01025000Y01998984D01*
X01000000Y01947968D02*
X01001016Y01948984D01*
X01002032D01*
X01001016Y01950000D01*
X01002032Y01951016D01*
X01001016D01*
X01000000Y01952032D01*
X00998984Y01951016D01*
X00997968D01*
X00998984Y01950000D01*
X00997968Y01948984D01*
X00998984D01*
X01000000Y01947968D01*
Y01948984D02*
X01000508Y01949492D01*
X01001016D01*
X01000508Y01950000D01*
X01001016Y01950508D01*
X01000508D01*
X01000000Y01951016D01*
X00999492Y01950508D01*
X00998984D01*
X00999492Y01950000D01*
X00998984Y01949492D01*
X00999492D01*
X01000000Y01948984D01*
X01025000Y01897968D02*
X01026016Y01898984D01*
X01027032D01*
X01026016Y01900000D01*
X01027032Y01901016D01*
X01026016D01*
X01025000Y01902032D01*
X01023984Y01901016D01*
X01022968D01*
X01023984Y01900000D01*
X01022968Y01898984D01*
X01023984D01*
X01025000Y01897968D01*
Y01898984D02*
X01025508Y01899492D01*
X01026016D01*
X01025508Y01900000D01*
X01026016Y01900508D01*
X01025508D01*
X01025000Y01901016D01*
X01024492Y01900508D01*
X01023984D01*
X01024492Y01900000D01*
X01023984Y01899492D01*
X01024492D01*
X01025000Y01898984D01*
X01000000Y01547968D02*
X01001016Y01548984D01*
X01002032D01*
X01001016Y01550000D01*
X01002032Y01551016D01*
X01001016D01*
X01000000Y01552032D01*
X00998984Y01551016D01*
X00997968D01*
X00998984Y01550000D01*
X00997968Y01548984D01*
X00998984D01*
X01000000Y01547968D01*
Y01548984D02*
X01000508Y01549492D01*
X01001016D01*
X01000508Y01550000D01*
X01001016Y01550508D01*
X01000508D01*
X01000000Y01551016D01*
X00999492Y01550508D01*
X00998984D01*
X00999492Y01550000D01*
X00998984Y01549492D01*
X00999492D01*
X01000000Y01548984D01*
X00950000Y02247968D02*
X00951016Y02248984D01*
X00952032D01*
X00951016Y02250000D01*
X00952032Y02251016D01*
X00951016D01*
X00950000Y02252032D01*
X00948984Y02251016D01*
X00947968D01*
X00948984Y02250000D01*
X00947968Y02248984D01*
X00948984D01*
X00950000Y02247968D01*
Y02248984D02*
X00950508Y02249492D01*
X00951016D01*
X00950508Y02250000D01*
X00951016Y02250508D01*
X00950508D01*
X00950000Y02251016D01*
X00949492Y02250508D01*
X00948984D01*
X00949492Y02250000D01*
X00948984Y02249492D01*
X00949492D01*
X00950000Y02248984D01*
X00975000Y02197968D02*
X00976016Y02198984D01*
X00977032D01*
X00976016Y02200000D01*
X00977032Y02201016D01*
X00976016D01*
X00975000Y02202032D01*
X00973984Y02201016D01*
X00972968D01*
X00973984Y02200000D01*
X00972968Y02198984D01*
X00973984D01*
X00975000Y02197968D01*
Y02198984D02*
X00975508Y02199492D01*
X00976016D01*
X00975508Y02200000D01*
X00976016Y02200508D01*
X00975508D01*
X00975000Y02201016D01*
X00974492Y02200508D01*
X00973984D01*
X00974492Y02200000D01*
X00973984Y02199492D01*
X00974492D01*
X00975000Y02198984D01*
Y02097968D02*
X00976016Y02098984D01*
X00977032D01*
X00976016Y02100000D01*
X00977032Y02101016D01*
X00976016D01*
X00975000Y02102032D01*
X00973984Y02101016D01*
X00972968D01*
X00973984Y02100000D01*
X00972968Y02098984D01*
X00973984D01*
X00975000Y02097968D01*
Y02098984D02*
X00975508Y02099492D01*
X00976016D01*
X00975508Y02100000D01*
X00976016Y02100508D01*
X00975508D01*
X00975000Y02101016D01*
X00974492Y02100508D01*
X00973984D01*
X00974492Y02100000D01*
X00973984Y02099492D01*
X00974492D01*
X00975000Y02098984D01*
Y01997968D02*
X00976016Y01998984D01*
X00977032D01*
X00976016Y02000000D01*
X00977032Y02001016D01*
X00976016D01*
X00975000Y02002032D01*
X00973984Y02001016D01*
X00972968D01*
X00973984Y02000000D01*
X00972968Y01998984D01*
X00973984D01*
X00975000Y01997968D01*
Y01998984D02*
X00975508Y01999492D01*
X00976016D01*
X00975508Y02000000D01*
X00976016Y02000508D01*
X00975508D01*
X00975000Y02001016D01*
X00974492Y02000508D01*
X00973984D01*
X00974492Y02000000D01*
X00973984Y01999492D01*
X00974492D01*
X00975000Y01998984D01*
Y01897968D02*
X00976016Y01898984D01*
X00977032D01*
X00976016Y01900000D01*
X00977032Y01901016D01*
X00976016D01*
X00975000Y01902032D01*
X00973984Y01901016D01*
X00972968D01*
X00973984Y01900000D01*
X00972968Y01898984D01*
X00973984D01*
X00975000Y01897968D01*
Y01898984D02*
X00975508Y01899492D01*
X00976016D01*
X00975508Y01900000D01*
X00976016Y01900508D01*
X00975508D01*
X00975000Y01901016D01*
X00974492Y01900508D01*
X00973984D01*
X00974492Y01900000D01*
X00973984Y01899492D01*
X00974492D01*
X00975000Y01898984D01*
Y01697968D02*
X00976016Y01698984D01*
X00977032D01*
X00976016Y01700000D01*
X00977032Y01701016D01*
X00976016D01*
X00975000Y01702032D01*
X00973984Y01701016D01*
X00972968D01*
X00973984Y01700000D01*
X00972968Y01698984D01*
X00973984D01*
X00975000Y01697968D01*
Y01698984D02*
X00975508Y01699492D01*
X00976016D01*
X00975508Y01700000D01*
X00976016Y01700508D01*
X00975508D01*
X00975000Y01701016D01*
X00974492Y01700508D01*
X00973984D01*
X00974492Y01700000D01*
X00973984Y01699492D01*
X00974492D01*
X00975000Y01698984D01*
X00900000Y02247968D02*
X00901016Y02248984D01*
X00902032D01*
X00901016Y02250000D01*
X00902032Y02251016D01*
X00901016D01*
X00900000Y02252032D01*
X00898984Y02251016D01*
X00897968D01*
X00898984Y02250000D01*
X00897968Y02248984D01*
X00898984D01*
X00900000Y02247968D01*
Y02248984D02*
X00900508Y02249492D01*
X00901016D01*
X00900508Y02250000D01*
X00901016Y02250508D01*
X00900508D01*
X00900000Y02251016D01*
X00899492Y02250508D01*
X00898984D01*
X00899492Y02250000D01*
X00898984Y02249492D01*
X00899492D01*
X00900000Y02248984D01*
X00925000Y02197968D02*
X00926016Y02198984D01*
X00927032D01*
X00926016Y02200000D01*
X00927032Y02201016D01*
X00926016D01*
X00925000Y02202032D01*
X00923984Y02201016D01*
X00922968D01*
X00923984Y02200000D01*
X00922968Y02198984D01*
X00923984D01*
X00925000Y02197968D01*
Y02198984D02*
X00925508Y02199492D01*
X00926016D01*
X00925508Y02200000D01*
X00926016Y02200508D01*
X00925508D01*
X00925000Y02201016D01*
X00924492Y02200508D01*
X00923984D01*
X00924492Y02200000D01*
X00923984Y02199492D01*
X00924492D01*
X00925000Y02198984D01*
X00900000Y02147968D02*
X00901016Y02148984D01*
X00902032D01*
X00901016Y02150000D01*
X00902032Y02151016D01*
X00901016D01*
X00900000Y02152032D01*
X00898984Y02151016D01*
X00897968D01*
X00898984Y02150000D01*
X00897968Y02148984D01*
X00898984D01*
X00900000Y02147968D01*
Y02148984D02*
X00900508Y02149492D01*
X00901016D01*
X00900508Y02150000D01*
X00901016Y02150508D01*
X00900508D01*
X00900000Y02151016D01*
X00899492Y02150508D01*
X00898984D01*
X00899492Y02150000D01*
X00898984Y02149492D01*
X00899492D01*
X00900000Y02148984D01*
X00925000Y02097968D02*
X00926016Y02098984D01*
X00927032D01*
X00926016Y02100000D01*
X00927032Y02101016D01*
X00926016D01*
X00925000Y02102032D01*
X00923984Y02101016D01*
X00922968D01*
X00923984Y02100000D01*
X00922968Y02098984D01*
X00923984D01*
X00925000Y02097968D01*
Y02098984D02*
X00925508Y02099492D01*
X00926016D01*
X00925508Y02100000D01*
X00926016Y02100508D01*
X00925508D01*
X00925000Y02101016D01*
X00924492Y02100508D01*
X00923984D01*
X00924492Y02100000D01*
X00923984Y02099492D01*
X00924492D01*
X00925000Y02098984D01*
Y01597968D02*
X00926016Y01598984D01*
X00927032D01*
X00926016Y01600000D01*
X00927032Y01601016D01*
X00926016D01*
X00925000Y01602032D01*
X00923984Y01601016D01*
X00922968D01*
X00923984Y01600000D01*
X00922968Y01598984D01*
X00923984D01*
X00925000Y01597968D01*
Y01598984D02*
X00925508Y01599492D01*
X00926016D01*
X00925508Y01600000D01*
X00926016Y01600508D01*
X00925508D01*
X00925000Y01601016D01*
X00924492Y01600508D01*
X00923984D01*
X00924492Y01600000D01*
X00923984Y01599492D01*
X00924492D01*
X00925000Y01598984D01*
X00850000Y02147968D02*
X00851016Y02148984D01*
X00852032D01*
X00851016Y02150000D01*
X00852032Y02151016D01*
X00851016D01*
X00850000Y02152032D01*
X00848984Y02151016D01*
X00847968D01*
X00848984Y02150000D01*
X00847968Y02148984D01*
X00848984D01*
X00850000Y02147968D01*
Y02148984D02*
X00850508Y02149492D01*
X00851016D01*
X00850508Y02150000D01*
X00851016Y02150508D01*
X00850508D01*
X00850000Y02151016D01*
X00849492Y02150508D01*
X00848984D01*
X00849492Y02150000D01*
X00848984Y02149492D01*
X00849492D01*
X00850000Y02148984D01*
X00875000Y02097968D02*
X00876016Y02098984D01*
X00877032D01*
X00876016Y02100000D01*
X00877032Y02101016D01*
X00876016D01*
X00875000Y02102032D01*
X00873984Y02101016D01*
X00872968D01*
X00873984Y02100000D01*
X00872968Y02098984D01*
X00873984D01*
X00875000Y02097968D01*
Y02098984D02*
X00875508Y02099492D01*
X00876016D01*
X00875508Y02100000D01*
X00876016Y02100508D01*
X00875508D01*
X00875000Y02101016D01*
X00874492Y02100508D01*
X00873984D01*
X00874492Y02100000D01*
X00873984Y02099492D01*
X00874492D01*
X00875000Y02098984D01*
Y01997968D02*
X00876016Y01998984D01*
X00877032D01*
X00876016Y02000000D01*
X00877032Y02001016D01*
X00876016D01*
X00875000Y02002032D01*
X00873984Y02001016D01*
X00872968D01*
X00873984Y02000000D01*
X00872968Y01998984D01*
X00873984D01*
X00875000Y01997968D01*
Y01998984D02*
X00875508Y01999492D01*
X00876016D01*
X00875508Y02000000D01*
X00876016Y02000508D01*
X00875508D01*
X00875000Y02001016D01*
X00874492Y02000508D01*
X00873984D01*
X00874492Y02000000D01*
X00873984Y01999492D01*
X00874492D01*
X00875000Y01998984D01*
X00850000Y01947968D02*
X00851016Y01948984D01*
X00852032D01*
X00851016Y01950000D01*
X00852032Y01951016D01*
X00851016D01*
X00850000Y01952032D01*
X00848984Y01951016D01*
X00847968D01*
X00848984Y01950000D01*
X00847968Y01948984D01*
X00848984D01*
X00850000Y01947968D01*
Y01948984D02*
X00850508Y01949492D01*
X00851016D01*
X00850508Y01950000D01*
X00851016Y01950508D01*
X00850508D01*
X00850000Y01951016D01*
X00849492Y01950508D01*
X00848984D01*
X00849492Y01950000D01*
X00848984Y01949492D01*
X00849492D01*
X00850000Y01948984D01*
X00875000Y01897968D02*
X00876016Y01898984D01*
X00877032D01*
X00876016Y01900000D01*
X00877032Y01901016D01*
X00876016D01*
X00875000Y01902032D01*
X00873984Y01901016D01*
X00872968D01*
X00873984Y01900000D01*
X00872968Y01898984D01*
X00873984D01*
X00875000Y01897968D01*
Y01898984D02*
X00875508Y01899492D01*
X00876016D01*
X00875508Y01900000D01*
X00876016Y01900508D01*
X00875508D01*
X00875000Y01901016D01*
X00874492Y01900508D01*
X00873984D01*
X00874492Y01900000D01*
X00873984Y01899492D01*
X00874492D01*
X00875000Y01898984D01*
X00850000Y01847968D02*
X00851016Y01848984D01*
X00852032D01*
X00851016Y01850000D01*
X00852032Y01851016D01*
X00851016D01*
X00850000Y01852032D01*
X00848984Y01851016D01*
X00847968D01*
X00848984Y01850000D01*
X00847968Y01848984D01*
X00848984D01*
X00850000Y01847968D01*
Y01848984D02*
X00850508Y01849492D01*
X00851016D01*
X00850508Y01850000D01*
X00851016Y01850508D01*
X00850508D01*
X00850000Y01851016D01*
X00849492Y01850508D01*
X00848984D01*
X00849492Y01850000D01*
X00848984Y01849492D01*
X00849492D01*
X00850000Y01848984D01*
X00875000Y01797968D02*
X00876016Y01798984D01*
X00877032D01*
X00876016Y01800000D01*
X00877032Y01801016D01*
X00876016D01*
X00875000Y01802032D01*
X00873984Y01801016D01*
X00872968D01*
X00873984Y01800000D01*
X00872968Y01798984D01*
X00873984D01*
X00875000Y01797968D01*
Y01798984D02*
X00875508Y01799492D01*
X00876016D01*
X00875508Y01800000D01*
X00876016Y01800508D01*
X00875508D01*
X00875000Y01801016D01*
X00874492Y01800508D01*
X00873984D01*
X00874492Y01800000D01*
X00873984Y01799492D01*
X00874492D01*
X00875000Y01798984D01*
X00850000Y01747968D02*
X00851016Y01748984D01*
X00852032D01*
X00851016Y01750000D01*
X00852032Y01751016D01*
X00851016D01*
X00850000Y01752032D01*
X00848984Y01751016D01*
X00847968D01*
X00848984Y01750000D01*
X00847968Y01748984D01*
X00848984D01*
X00850000Y01747968D01*
Y01748984D02*
X00850508Y01749492D01*
X00851016D01*
X00850508Y01750000D01*
X00851016Y01750508D01*
X00850508D01*
X00850000Y01751016D01*
X00849492Y01750508D01*
X00848984D01*
X00849492Y01750000D01*
X00848984Y01749492D01*
X00849492D01*
X00850000Y01748984D01*
Y01647968D02*
X00851016Y01648984D01*
X00852032D01*
X00851016Y01650000D01*
X00852032Y01651016D01*
X00851016D01*
X00850000Y01652032D01*
X00848984Y01651016D01*
X00847968D01*
X00848984Y01650000D01*
X00847968Y01648984D01*
X00848984D01*
X00850000Y01647968D01*
Y01648984D02*
X00850508Y01649492D01*
X00851016D01*
X00850508Y01650000D01*
X00851016Y01650508D01*
X00850508D01*
X00850000Y01651016D01*
X00849492Y01650508D01*
X00848984D01*
X00849492Y01650000D01*
X00848984Y01649492D01*
X00849492D01*
X00850000Y01648984D01*
X00800000Y02247968D02*
X00801016Y02248984D01*
X00802032D01*
X00801016Y02250000D01*
X00802032Y02251016D01*
X00801016D01*
X00800000Y02252032D01*
X00798984Y02251016D01*
X00797968D01*
X00798984Y02250000D01*
X00797968Y02248984D01*
X00798984D01*
X00800000Y02247968D01*
Y02248984D02*
X00800508Y02249492D01*
X00801016D01*
X00800508Y02250000D01*
X00801016Y02250508D01*
X00800508D01*
X00800000Y02251016D01*
X00799492Y02250508D01*
X00798984D01*
X00799492Y02250000D01*
X00798984Y02249492D01*
X00799492D01*
X00800000Y02248984D01*
X00825000Y02197968D02*
X00826016Y02198984D01*
X00827032D01*
X00826016Y02200000D01*
X00827032Y02201016D01*
X00826016D01*
X00825000Y02202032D01*
X00823984Y02201016D01*
X00822968D01*
X00823984Y02200000D01*
X00822968Y02198984D01*
X00823984D01*
X00825000Y02197968D01*
Y02198984D02*
X00825508Y02199492D01*
X00826016D01*
X00825508Y02200000D01*
X00826016Y02200508D01*
X00825508D01*
X00825000Y02201016D01*
X00824492Y02200508D01*
X00823984D01*
X00824492Y02200000D01*
X00823984Y02199492D01*
X00824492D01*
X00825000Y02198984D01*
Y02097968D02*
X00826016Y02098984D01*
X00827032D01*
X00826016Y02100000D01*
X00827032Y02101016D01*
X00826016D01*
X00825000Y02102032D01*
X00823984Y02101016D01*
X00822968D01*
X00823984Y02100000D01*
X00822968Y02098984D01*
X00823984D01*
X00825000Y02097968D01*
Y02098984D02*
X00825508Y02099492D01*
X00826016D01*
X00825508Y02100000D01*
X00826016Y02100508D01*
X00825508D01*
X00825000Y02101016D01*
X00824492Y02100508D01*
X00823984D01*
X00824492Y02100000D01*
X00823984Y02099492D01*
X00824492D01*
X00825000Y02098984D01*
Y01897968D02*
X00826016Y01898984D01*
X00827032D01*
X00826016Y01900000D01*
X00827032Y01901016D01*
X00826016D01*
X00825000Y01902032D01*
X00823984Y01901016D01*
X00822968D01*
X00823984Y01900000D01*
X00822968Y01898984D01*
X00823984D01*
X00825000Y01897968D01*
Y01898984D02*
X00825508Y01899492D01*
X00826016D01*
X00825508Y01900000D01*
X00826016Y01900508D01*
X00825508D01*
X00825000Y01901016D01*
X00824492Y01900508D01*
X00823984D01*
X00824492Y01900000D01*
X00823984Y01899492D01*
X00824492D01*
X00825000Y01898984D01*
Y01797968D02*
X00826016Y01798984D01*
X00827032D01*
X00826016Y01800000D01*
X00827032Y01801016D01*
X00826016D01*
X00825000Y01802032D01*
X00823984Y01801016D01*
X00822968D01*
X00823984Y01800000D01*
X00822968Y01798984D01*
X00823984D01*
X00825000Y01797968D01*
Y01798984D02*
X00825508Y01799492D01*
X00826016D01*
X00825508Y01800000D01*
X00826016Y01800508D01*
X00825508D01*
X00825000Y01801016D01*
X00824492Y01800508D01*
X00823984D01*
X00824492Y01800000D01*
X00823984Y01799492D01*
X00824492D01*
X00825000Y01798984D01*
Y01697968D02*
X00826016Y01698984D01*
X00827032D01*
X00826016Y01700000D01*
X00827032Y01701016D01*
X00826016D01*
X00825000Y01702032D01*
X00823984Y01701016D01*
X00822968D01*
X00823984Y01700000D01*
X00822968Y01698984D01*
X00823984D01*
X00825000Y01697968D01*
Y01698984D02*
X00825508Y01699492D01*
X00826016D01*
X00825508Y01700000D01*
X00826016Y01700508D01*
X00825508D01*
X00825000Y01701016D01*
X00824492Y01700508D01*
X00823984D01*
X00824492Y01700000D01*
X00823984Y01699492D01*
X00824492D01*
X00825000Y01698984D01*
X00800000Y01647968D02*
X00801016Y01648984D01*
X00802032D01*
X00801016Y01650000D01*
X00802032Y01651016D01*
X00801016D01*
X00800000Y01652032D01*
X00798984Y01651016D01*
X00797968D01*
X00798984Y01650000D01*
X00797968Y01648984D01*
X00798984D01*
X00800000Y01647968D01*
Y01648984D02*
X00800508Y01649492D01*
X00801016D01*
X00800508Y01650000D01*
X00801016Y01650508D01*
X00800508D01*
X00800000Y01651016D01*
X00799492Y01650508D01*
X00798984D01*
X00799492Y01650000D01*
X00798984Y01649492D01*
X00799492D01*
X00800000Y01648984D01*
X00775000Y02197968D02*
X00776016Y02198984D01*
X00777032D01*
X00776016Y02200000D01*
X00777032Y02201016D01*
X00776016D01*
X00775000Y02202032D01*
X00773984Y02201016D01*
X00772968D01*
X00773984Y02200000D01*
X00772968Y02198984D01*
X00773984D01*
X00775000Y02197968D01*
Y02198984D02*
X00775508Y02199492D01*
X00776016D01*
X00775508Y02200000D01*
X00776016Y02200508D01*
X00775508D01*
X00775000Y02201016D01*
X00774492Y02200508D01*
X00773984D01*
X00774492Y02200000D01*
X00773984Y02199492D01*
X00774492D01*
X00775000Y02198984D01*
X00750000Y02147968D02*
X00751016Y02148984D01*
X00752032D01*
X00751016Y02150000D01*
X00752032Y02151016D01*
X00751016D01*
X00750000Y02152032D01*
X00748984Y02151016D01*
X00747968D01*
X00748984Y02150000D01*
X00747968Y02148984D01*
X00748984D01*
X00750000Y02147968D01*
Y02148984D02*
X00750508Y02149492D01*
X00751016D01*
X00750508Y02150000D01*
X00751016Y02150508D01*
X00750508D01*
X00750000Y02151016D01*
X00749492Y02150508D01*
X00748984D01*
X00749492Y02150000D01*
X00748984Y02149492D01*
X00749492D01*
X00750000Y02148984D01*
X00775000Y02097968D02*
X00776016Y02098984D01*
X00777032D01*
X00776016Y02100000D01*
X00777032Y02101016D01*
X00776016D01*
X00775000Y02102032D01*
X00773984Y02101016D01*
X00772968D01*
X00773984Y02100000D01*
X00772968Y02098984D01*
X00773984D01*
X00775000Y02097968D01*
Y02098984D02*
X00775508Y02099492D01*
X00776016D01*
X00775508Y02100000D01*
X00776016Y02100508D01*
X00775508D01*
X00775000Y02101016D01*
X00774492Y02100508D01*
X00773984D01*
X00774492Y02100000D01*
X00773984Y02099492D01*
X00774492D01*
X00775000Y02098984D01*
X00750000Y02047968D02*
X00751016Y02048984D01*
X00752032D01*
X00751016Y02050000D01*
X00752032Y02051016D01*
X00751016D01*
X00750000Y02052032D01*
X00748984Y02051016D01*
X00747968D01*
X00748984Y02050000D01*
X00747968Y02048984D01*
X00748984D01*
X00750000Y02047968D01*
Y02048984D02*
X00750508Y02049492D01*
X00751016D01*
X00750508Y02050000D01*
X00751016Y02050508D01*
X00750508D01*
X00750000Y02051016D01*
X00749492Y02050508D01*
X00748984D01*
X00749492Y02050000D01*
X00748984Y02049492D01*
X00749492D01*
X00750000Y02048984D01*
X00775000Y01997968D02*
X00776016Y01998984D01*
X00777032D01*
X00776016Y02000000D01*
X00777032Y02001016D01*
X00776016D01*
X00775000Y02002032D01*
X00773984Y02001016D01*
X00772968D01*
X00773984Y02000000D01*
X00772968Y01998984D01*
X00773984D01*
X00775000Y01997968D01*
Y01998984D02*
X00775508Y01999492D01*
X00776016D01*
X00775508Y02000000D01*
X00776016Y02000508D01*
X00775508D01*
X00775000Y02001016D01*
X00774492Y02000508D01*
X00773984D01*
X00774492Y02000000D01*
X00773984Y01999492D01*
X00774492D01*
X00775000Y01998984D01*
X00750000Y01947968D02*
X00751016Y01948984D01*
X00752032D01*
X00751016Y01950000D01*
X00752032Y01951016D01*
X00751016D01*
X00750000Y01952032D01*
X00748984Y01951016D01*
X00747968D01*
X00748984Y01950000D01*
X00747968Y01948984D01*
X00748984D01*
X00750000Y01947968D01*
Y01948984D02*
X00750508Y01949492D01*
X00751016D01*
X00750508Y01950000D01*
X00751016Y01950508D01*
X00750508D01*
X00750000Y01951016D01*
X00749492Y01950508D01*
X00748984D01*
X00749492Y01950000D01*
X00748984Y01949492D01*
X00749492D01*
X00750000Y01948984D01*
Y01647968D02*
X00751016Y01648984D01*
X00752032D01*
X00751016Y01650000D01*
X00752032Y01651016D01*
X00751016D01*
X00750000Y01652032D01*
X00748984Y01651016D01*
X00747968D01*
X00748984Y01650000D01*
X00747968Y01648984D01*
X00748984D01*
X00750000Y01647968D01*
Y01648984D02*
X00750508Y01649492D01*
X00751016D01*
X00750508Y01650000D01*
X00751016Y01650508D01*
X00750508D01*
X00750000Y01651016D01*
X00749492Y01650508D01*
X00748984D01*
X00749492Y01650000D01*
X00748984Y01649492D01*
X00749492D01*
X00750000Y01648984D01*
X00775000Y01597968D02*
X00776016Y01598984D01*
X00777032D01*
X00776016Y01600000D01*
X00777032Y01601016D01*
X00776016D01*
X00775000Y01602032D01*
X00773984Y01601016D01*
X00772968D01*
X00773984Y01600000D01*
X00772968Y01598984D01*
X00773984D01*
X00775000Y01597968D01*
Y01598984D02*
X00775508Y01599492D01*
X00776016D01*
X00775508Y01600000D01*
X00776016Y01600508D01*
X00775508D01*
X00775000Y01601016D01*
X00774492Y01600508D01*
X00773984D01*
X00774492Y01600000D01*
X00773984Y01599492D01*
X00774492D01*
X00775000Y01598984D01*
X00700000Y02247968D02*
X00701016Y02248984D01*
X00702032D01*
X00701016Y02250000D01*
X00702032Y02251016D01*
X00701016D01*
X00700000Y02252032D01*
X00698984Y02251016D01*
X00697968D01*
X00698984Y02250000D01*
X00697968Y02248984D01*
X00698984D01*
X00700000Y02247968D01*
Y02248984D02*
X00700508Y02249492D01*
X00701016D01*
X00700508Y02250000D01*
X00701016Y02250508D01*
X00700508D01*
X00700000Y02251016D01*
X00699492Y02250508D01*
X00698984D01*
X00699492Y02250000D01*
X00698984Y02249492D01*
X00699492D01*
X00700000Y02248984D01*
X00725000Y02197968D02*
X00726016Y02198984D01*
X00727032D01*
X00726016Y02200000D01*
X00727032Y02201016D01*
X00726016D01*
X00725000Y02202032D01*
X00723984Y02201016D01*
X00722968D01*
X00723984Y02200000D01*
X00722968Y02198984D01*
X00723984D01*
X00725000Y02197968D01*
Y02198984D02*
X00725508Y02199492D01*
X00726016D01*
X00725508Y02200000D01*
X00726016Y02200508D01*
X00725508D01*
X00725000Y02201016D01*
X00724492Y02200508D01*
X00723984D01*
X00724492Y02200000D01*
X00723984Y02199492D01*
X00724492D01*
X00725000Y02198984D01*
X00700000Y02147968D02*
X00701016Y02148984D01*
X00702032D01*
X00701016Y02150000D01*
X00702032Y02151016D01*
X00701016D01*
X00700000Y02152032D01*
X00698984Y02151016D01*
X00697968D01*
X00698984Y02150000D01*
X00697968Y02148984D01*
X00698984D01*
X00700000Y02147968D01*
Y02148984D02*
X00700508Y02149492D01*
X00701016D01*
X00700508Y02150000D01*
X00701016Y02150508D01*
X00700508D01*
X00700000Y02151016D01*
X00699492Y02150508D01*
X00698984D01*
X00699492Y02150000D01*
X00698984Y02149492D01*
X00699492D01*
X00700000Y02148984D01*
X00725000Y02097968D02*
X00726016Y02098984D01*
X00727032D01*
X00726016Y02100000D01*
X00727032Y02101016D01*
X00726016D01*
X00725000Y02102032D01*
X00723984Y02101016D01*
X00722968D01*
X00723984Y02100000D01*
X00722968Y02098984D01*
X00723984D01*
X00725000Y02097968D01*
Y02098984D02*
X00725508Y02099492D01*
X00726016D01*
X00725508Y02100000D01*
X00726016Y02100508D01*
X00725508D01*
X00725000Y02101016D01*
X00724492Y02100508D01*
X00723984D01*
X00724492Y02100000D01*
X00723984Y02099492D01*
X00724492D01*
X00725000Y02098984D01*
X00700000Y02047968D02*
X00701016Y02048984D01*
X00702032D01*
X00701016Y02050000D01*
X00702032Y02051016D01*
X00701016D01*
X00700000Y02052032D01*
X00698984Y02051016D01*
X00697968D01*
X00698984Y02050000D01*
X00697968Y02048984D01*
X00698984D01*
X00700000Y02047968D01*
Y02048984D02*
X00700508Y02049492D01*
X00701016D01*
X00700508Y02050000D01*
X00701016Y02050508D01*
X00700508D01*
X00700000Y02051016D01*
X00699492Y02050508D01*
X00698984D01*
X00699492Y02050000D01*
X00698984Y02049492D01*
X00699492D01*
X00700000Y02048984D01*
Y01647968D02*
X00701016Y01648984D01*
X00702032D01*
X00701016Y01650000D01*
X00702032Y01651016D01*
X00701016D01*
X00700000Y01652032D01*
X00698984Y01651016D01*
X00697968D01*
X00698984Y01650000D01*
X00697968Y01648984D01*
X00698984D01*
X00700000Y01647968D01*
Y01648984D02*
X00700508Y01649492D01*
X00701016D01*
X00700508Y01650000D01*
X00701016Y01650508D01*
X00700508D01*
X00700000Y01651016D01*
X00699492Y01650508D01*
X00698984D01*
X00699492Y01650000D01*
X00698984Y01649492D01*
X00699492D01*
X00700000Y01648984D01*
X00650000Y02147968D02*
X00651016Y02148984D01*
X00652032D01*
X00651016Y02150000D01*
X00652032Y02151016D01*
X00651016D01*
X00650000Y02152032D01*
X00648984Y02151016D01*
X00647968D01*
X00648984Y02150000D01*
X00647968Y02148984D01*
X00648984D01*
X00650000Y02147968D01*
Y02148984D02*
X00650508Y02149492D01*
X00651016D01*
X00650508Y02150000D01*
X00651016Y02150508D01*
X00650508D01*
X00650000Y02151016D01*
X00649492Y02150508D01*
X00648984D01*
X00649492Y02150000D01*
X00648984Y02149492D01*
X00649492D01*
X00650000Y02148984D01*
X00675000Y02097968D02*
X00676016Y02098984D01*
X00677032D01*
X00676016Y02100000D01*
X00677032Y02101016D01*
X00676016D01*
X00675000Y02102032D01*
X00673984Y02101016D01*
X00672968D01*
X00673984Y02100000D01*
X00672968Y02098984D01*
X00673984D01*
X00675000Y02097968D01*
Y02098984D02*
X00675508Y02099492D01*
X00676016D01*
X00675508Y02100000D01*
X00676016Y02100508D01*
X00675508D01*
X00675000Y02101016D01*
X00674492Y02100508D01*
X00673984D01*
X00674492Y02100000D01*
X00673984Y02099492D01*
X00674492D01*
X00675000Y02098984D01*
X00650000Y02047968D02*
X00651016Y02048984D01*
X00652032D01*
X00651016Y02050000D01*
X00652032Y02051016D01*
X00651016D01*
X00650000Y02052032D01*
X00648984Y02051016D01*
X00647968D01*
X00648984Y02050000D01*
X00647968Y02048984D01*
X00648984D01*
X00650000Y02047968D01*
Y02048984D02*
X00650508Y02049492D01*
X00651016D01*
X00650508Y02050000D01*
X00651016Y02050508D01*
X00650508D01*
X00650000Y02051016D01*
X00649492Y02050508D01*
X00648984D01*
X00649492Y02050000D01*
X00648984Y02049492D01*
X00649492D01*
X00650000Y02048984D01*
X00675000Y01997968D02*
X00676016Y01998984D01*
X00677032D01*
X00676016Y02000000D01*
X00677032Y02001016D01*
X00676016D01*
X00675000Y02002032D01*
X00673984Y02001016D01*
X00672968D01*
X00673984Y02000000D01*
X00672968Y01998984D01*
X00673984D01*
X00675000Y01997968D01*
Y01998984D02*
X00675508Y01999492D01*
X00676016D01*
X00675508Y02000000D01*
X00676016Y02000508D01*
X00675508D01*
X00675000Y02001016D01*
X00674492Y02000508D01*
X00673984D01*
X00674492Y02000000D01*
X00673984Y01999492D01*
X00674492D01*
X00675000Y01998984D01*
Y01797968D02*
X00676016Y01798984D01*
X00677032D01*
X00676016Y01800000D01*
X00677032Y01801016D01*
X00676016D01*
X00675000Y01802032D01*
X00673984Y01801016D01*
X00672968D01*
X00673984Y01800000D01*
X00672968Y01798984D01*
X00673984D01*
X00675000Y01797968D01*
Y01798984D02*
X00675508Y01799492D01*
X00676016D01*
X00675508Y01800000D01*
X00676016Y01800508D01*
X00675508D01*
X00675000Y01801016D01*
X00674492Y01800508D01*
X00673984D01*
X00674492Y01800000D01*
X00673984Y01799492D01*
X00674492D01*
X00675000Y01798984D01*
X00650000Y01647968D02*
X00651016Y01648984D01*
X00652032D01*
X00651016Y01650000D01*
X00652032Y01651016D01*
X00651016D01*
X00650000Y01652032D01*
X00648984Y01651016D01*
X00647968D01*
X00648984Y01650000D01*
X00647968Y01648984D01*
X00648984D01*
X00650000Y01647968D01*
Y01648984D02*
X00650508Y01649492D01*
X00651016D01*
X00650508Y01650000D01*
X00651016Y01650508D01*
X00650508D01*
X00650000Y01651016D01*
X00649492Y01650508D01*
X00648984D01*
X00649492Y01650000D01*
X00648984Y01649492D01*
X00649492D01*
X00650000Y01648984D01*
X00600000Y02047968D02*
X00601016Y02048984D01*
X00602032D01*
X00601016Y02050000D01*
X00602032Y02051016D01*
X00601016D01*
X00600000Y02052032D01*
X00598984Y02051016D01*
X00597968D01*
X00598984Y02050000D01*
X00597968Y02048984D01*
X00598984D01*
X00600000Y02047968D01*
Y02048984D02*
X00600508Y02049492D01*
X00601016D01*
X00600508Y02050000D01*
X00601016Y02050508D01*
X00600508D01*
X00600000Y02051016D01*
X00599492Y02050508D01*
X00598984D01*
X00599492Y02050000D01*
X00598984Y02049492D01*
X00599492D01*
X00600000Y02048984D01*
X00625000Y01997968D02*
X00626016Y01998984D01*
X00627032D01*
X00626016Y02000000D01*
X00627032Y02001016D01*
X00626016D01*
X00625000Y02002032D01*
X00623984Y02001016D01*
X00622968D01*
X00623984Y02000000D01*
X00622968Y01998984D01*
X00623984D01*
X00625000Y01997968D01*
Y01998984D02*
X00625508Y01999492D01*
X00626016D01*
X00625508Y02000000D01*
X00626016Y02000508D01*
X00625508D01*
X00625000Y02001016D01*
X00624492Y02000508D01*
X00623984D01*
X00624492Y02000000D01*
X00623984Y01999492D01*
X00624492D01*
X00625000Y01998984D01*
Y01897968D02*
X00626016Y01898984D01*
X00627032D01*
X00626016Y01900000D01*
X00627032Y01901016D01*
X00626016D01*
X00625000Y01902032D01*
X00623984Y01901016D01*
X00622968D01*
X00623984Y01900000D01*
X00622968Y01898984D01*
X00623984D01*
X00625000Y01897968D01*
Y01898984D02*
X00625508Y01899492D01*
X00626016D01*
X00625508Y01900000D01*
X00626016Y01900508D01*
X00625508D01*
X00625000Y01901016D01*
X00624492Y01900508D01*
X00623984D01*
X00624492Y01900000D01*
X00623984Y01899492D01*
X00624492D01*
X00625000Y01898984D01*
X00600000Y01847968D02*
X00601016Y01848984D01*
X00602032D01*
X00601016Y01850000D01*
X00602032Y01851016D01*
X00601016D01*
X00600000Y01852032D01*
X00598984Y01851016D01*
X00597968D01*
X00598984Y01850000D01*
X00597968Y01848984D01*
X00598984D01*
X00600000Y01847968D01*
Y01848984D02*
X00600508Y01849492D01*
X00601016D01*
X00600508Y01850000D01*
X00601016Y01850508D01*
X00600508D01*
X00600000Y01851016D01*
X00599492Y01850508D01*
X00598984D01*
X00599492Y01850000D01*
X00598984Y01849492D01*
X00599492D01*
X00600000Y01848984D01*
Y01647968D02*
X00601016Y01648984D01*
X00602032D01*
X00601016Y01650000D01*
X00602032Y01651016D01*
X00601016D01*
X00600000Y01652032D01*
X00598984Y01651016D01*
X00597968D01*
X00598984Y01650000D01*
X00597968Y01648984D01*
X00598984D01*
X00600000Y01647968D01*
Y01648984D02*
X00600508Y01649492D01*
X00601016D01*
X00600508Y01650000D01*
X00601016Y01650508D01*
X00600508D01*
X00600000Y01651016D01*
X00599492Y01650508D01*
X00598984D01*
X00599492Y01650000D01*
X00598984Y01649492D01*
X00599492D01*
X00600000Y01648984D01*
X00550000Y02047968D02*
X00551016Y02048984D01*
X00552032D01*
X00551016Y02050000D01*
X00552032Y02051016D01*
X00551016D01*
X00550000Y02052032D01*
X00548984Y02051016D01*
X00547968D01*
X00548984Y02050000D01*
X00547968Y02048984D01*
X00548984D01*
X00550000Y02047968D01*
Y02048984D02*
X00550508Y02049492D01*
X00551016D01*
X00550508Y02050000D01*
X00551016Y02050508D01*
X00550508D01*
X00550000Y02051016D01*
X00549492Y02050508D01*
X00548984D01*
X00549492Y02050000D01*
X00548984Y02049492D01*
X00549492D01*
X00550000Y02048984D01*
X00575000Y01997968D02*
X00576016Y01998984D01*
X00577032D01*
X00576016Y02000000D01*
X00577032Y02001016D01*
X00576016D01*
X00575000Y02002032D01*
X00573984Y02001016D01*
X00572968D01*
X00573984Y02000000D01*
X00572968Y01998984D01*
X00573984D01*
X00575000Y01997968D01*
Y01998984D02*
X00575508Y01999492D01*
X00576016D01*
X00575508Y02000000D01*
X00576016Y02000508D01*
X00575508D01*
X00575000Y02001016D01*
X00574492Y02000508D01*
X00573984D01*
X00574492Y02000000D01*
X00573984Y01999492D01*
X00574492D01*
X00575000Y01998984D01*
X00550000Y01947968D02*
X00551016Y01948984D01*
X00552032D01*
X00551016Y01950000D01*
X00552032Y01951016D01*
X00551016D01*
X00550000Y01952032D01*
X00548984Y01951016D01*
X00547968D01*
X00548984Y01950000D01*
X00547968Y01948984D01*
X00548984D01*
X00550000Y01947968D01*
Y01948984D02*
X00550508Y01949492D01*
X00551016D01*
X00550508Y01950000D01*
X00551016Y01950508D01*
X00550508D01*
X00550000Y01951016D01*
X00549492Y01950508D01*
X00548984D01*
X00549492Y01950000D01*
X00548984Y01949492D01*
X00549492D01*
X00550000Y01948984D01*
X00575000Y01797968D02*
X00576016Y01798984D01*
X00577032D01*
X00576016Y01800000D01*
X00577032Y01801016D01*
X00576016D01*
X00575000Y01802032D01*
X00573984Y01801016D01*
X00572968D01*
X00573984Y01800000D01*
X00572968Y01798984D01*
X00573984D01*
X00575000Y01797968D01*
Y01798984D02*
X00575508Y01799492D01*
X00576016D01*
X00575508Y01800000D01*
X00576016Y01800508D01*
X00575508D01*
X00575000Y01801016D01*
X00574492Y01800508D01*
X00573984D01*
X00574492Y01800000D01*
X00573984Y01799492D01*
X00574492D01*
X00575000Y01798984D01*
X00550000Y01647968D02*
X00551016Y01648984D01*
X00552032D01*
X00551016Y01650000D01*
X00552032Y01651016D01*
X00551016D01*
X00550000Y01652032D01*
X00548984Y01651016D01*
X00547968D01*
X00548984Y01650000D01*
X00547968Y01648984D01*
X00548984D01*
X00550000Y01647968D01*
Y01648984D02*
X00550508Y01649492D01*
X00551016D01*
X00550508Y01650000D01*
X00551016Y01650508D01*
X00550508D01*
X00550000Y01651016D01*
X00549492Y01650508D01*
X00548984D01*
X00549492Y01650000D01*
X00548984Y01649492D01*
X00549492D01*
X00550000Y01648984D01*
X00500000Y01847968D02*
X00501016Y01848984D01*
X00502032D01*
X00501016Y01850000D01*
X00502032Y01851016D01*
X00501016D01*
X00500000Y01852032D01*
X00498984Y01851016D01*
X00497968D01*
X00498984Y01850000D01*
X00497968Y01848984D01*
X00498984D01*
X00500000Y01847968D01*
Y01848984D02*
X00500508Y01849492D01*
X00501016D01*
X00500508Y01850000D01*
X00501016Y01850508D01*
X00500508D01*
X00500000Y01851016D01*
X00499492Y01850508D01*
X00498984D01*
X00499492Y01850000D01*
X00498984Y01849492D01*
X00499492D01*
X00500000Y01848984D01*
Y01647968D02*
X00501016Y01648984D01*
X00502032D01*
X00501016Y01650000D01*
X00502032Y01651016D01*
X00501016D01*
X00500000Y01652032D01*
X00498984Y01651016D01*
X00497968D01*
X00498984Y01650000D01*
X00497968Y01648984D01*
X00498984D01*
X00500000Y01647968D01*
Y01648984D02*
X00500508Y01649492D01*
X00501016D01*
X00500508Y01650000D01*
X00501016Y01650508D01*
X00500508D01*
X00500000Y01651016D01*
X00499492Y01650508D01*
X00498984D01*
X00499492Y01650000D01*
X00498984Y01649492D01*
X00499492D01*
X00500000Y01648984D01*
X00450000Y01847968D02*
X00451016Y01848984D01*
X00452032D01*
X00451016Y01850000D01*
X00452032Y01851016D01*
X00451016D01*
X00450000Y01852032D01*
X00448984Y01851016D01*
X00447968D01*
X00448984Y01850000D01*
X00447968Y01848984D01*
X00448984D01*
X00450000Y01847968D01*
Y01848984D02*
X00450508Y01849492D01*
X00451016D01*
X00450508Y01850000D01*
X00451016Y01850508D01*
X00450508D01*
X00450000Y01851016D01*
X00449492Y01850508D01*
X00448984D01*
X00449492Y01850000D01*
X00448984Y01849492D01*
X00449492D01*
X00450000Y01848984D01*
Y01647968D02*
X00451016Y01648984D01*
X00452032D01*
X00451016Y01650000D01*
X00452032Y01651016D01*
X00451016D01*
X00450000Y01652032D01*
X00448984Y01651016D01*
X00447968D01*
X00448984Y01650000D01*
X00447968Y01648984D01*
X00448984D01*
X00450000Y01647968D01*
Y01648984D02*
X00450508Y01649492D01*
X00451016D01*
X00450508Y01650000D01*
X00451016Y01650508D01*
X00450508D01*
X00450000Y01651016D01*
X00449492Y01650508D01*
X00448984D01*
X00449492Y01650000D01*
X00448984Y01649492D01*
X00449492D01*
X00450000Y01648984D01*
X00400000Y01847968D02*
X00401016Y01848984D01*
X00402032D01*
X00401016Y01850000D01*
X00402032Y01851016D01*
X00401016D01*
X00400000Y01852032D01*
X00398984Y01851016D01*
X00397968D01*
X00398984Y01850000D01*
X00397968Y01848984D01*
X00398984D01*
X00400000Y01847968D01*
Y01848984D02*
X00400508Y01849492D01*
X00401016D01*
X00400508Y01850000D01*
X00401016Y01850508D01*
X00400508D01*
X00400000Y01851016D01*
X00399492Y01850508D01*
X00398984D01*
X00399492Y01850000D01*
X00398984Y01849492D01*
X00399492D01*
X00400000Y01848984D01*
Y01647968D02*
X00401016Y01648984D01*
X00402032D01*
X00401016Y01650000D01*
X00402032Y01651016D01*
X00401016D01*
X00400000Y01652032D01*
X00398984Y01651016D01*
X00397968D01*
X00398984Y01650000D01*
X00397968Y01648984D01*
X00398984D01*
X00400000Y01647968D01*
Y01648984D02*
X00400508Y01649492D01*
X00401016D01*
X00400508Y01650000D01*
X00401016Y01650508D01*
X00400508D01*
X00400000Y01651016D01*
X00399492Y01650508D01*
X00398984D01*
X00399492Y01650000D01*
X00398984Y01649492D01*
X00399492D01*
X00400000Y01648984D01*
X00350000Y01847968D02*
X00351016Y01848984D01*
X00352032D01*
X00351016Y01850000D01*
X00352032Y01851016D01*
X00351016D01*
X00350000Y01852032D01*
X00348984Y01851016D01*
X00347968D01*
X00348984Y01850000D01*
X00347968Y01848984D01*
X00348984D01*
X00350000Y01847968D01*
Y01848984D02*
X00350508Y01849492D01*
X00351016D01*
X00350508Y01850000D01*
X00351016Y01850508D01*
X00350508D01*
X00350000Y01851016D01*
X00349492Y01850508D01*
X00348984D01*
X00349492Y01850000D01*
X00348984Y01849492D01*
X00349492D01*
X00350000Y01848984D01*
X00300000Y01847968D02*
X00301016Y01848984D01*
X00302032D01*
X00301016Y01850000D01*
X00302032Y01851016D01*
X00301016D01*
X00300000Y01852032D01*
X00298984Y01851016D01*
X00297968D01*
X00298984Y01850000D01*
X00297968Y01848984D01*
X00298984D01*
X00300000Y01847968D01*
Y01848984D02*
X00300508Y01849492D01*
X00301016D01*
X00300508Y01850000D01*
X00301016Y01850508D01*
X00300508D01*
X00300000Y01851016D01*
X00299492Y01850508D01*
X00298984D01*
X00299492Y01850000D01*
X00298984Y01849492D01*
X00299492D01*
X00300000Y01848984D01*
X00125000Y01797968D02*
X00126016Y01798984D01*
X00127032D01*
X00126016Y01800000D01*
X00127032Y01801016D01*
X00126016D01*
X00125000Y01802032D01*
X00123984Y01801016D01*
X00122968D01*
X00123984Y01800000D01*
X00122968Y01798984D01*
X00123984D01*
X00125000Y01797968D01*
Y01798984D02*
X00125508Y01799492D01*
X00126016D01*
X00125508Y01800000D01*
X00126016Y01800508D01*
X00125508D01*
X00125000Y01801016D01*
X00124492Y01800508D01*
X00123984D01*
X00124492Y01800000D01*
X00123984Y01799492D01*
X00124492D01*
X00125000Y01798984D01*
X00329770Y01604968D02*
X00330786Y01605984D01*
X00331802D01*
X00330786Y01607000D01*
X00331802Y01608016D01*
X00330786D01*
X00329770Y01609032D01*
X00328754Y01608016D01*
X00327738D01*
X00328754Y01607000D01*
X00327738Y01605984D01*
X00328754D01*
X00329770Y01604968D01*
Y01605984D02*
X00330278Y01606492D01*
X00330786D01*
X00330278Y01607000D01*
X00330786Y01607508D01*
X00330278D01*
X00329770Y01608016D01*
X00329262Y01607508D01*
X00328754D01*
X00329262Y01607000D01*
X00328754Y01606492D01*
X00329262D01*
X00329770Y01605984D01*
X00366250Y01550468D02*
X00367266Y01551484D01*
X00368282D01*
X00367266Y01552500D01*
X00368282Y01553516D01*
X00367266D01*
X00366250Y01554532D01*
X00365234Y01553516D01*
X00364218D01*
X00365234Y01552500D01*
X00364218Y01551484D01*
X00365234D01*
X00366250Y01550468D01*
Y01551484D02*
X00366758Y01551992D01*
X00367266D01*
X00366758Y01552500D01*
X00367266Y01553008D01*
X00366758D01*
X00366250Y01553516D01*
X00365742Y01553008D01*
X00365234D01*
X00365742Y01552500D01*
X00365234Y01551992D01*
X00365742D01*
X00366250Y01551484D01*
X00408000Y01550968D02*
X00409016Y01551984D01*
X00410032D01*
X00409016Y01553000D01*
X00410032Y01554016D01*
X00409016D01*
X00408000Y01555032D01*
X00406984Y01554016D01*
X00405968D01*
X00406984Y01553000D01*
X00405968Y01551984D01*
X00406984D01*
X00408000Y01550968D01*
Y01551984D02*
X00408508Y01552492D01*
X00409016D01*
X00408508Y01553000D01*
X00409016Y01553508D01*
X00408508D01*
X00408000Y01554016D01*
X00407492Y01553508D01*
X00406984D01*
X00407492Y01553000D01*
X00406984Y01552492D01*
X00407492D01*
X00408000Y01551984D01*
X00447250Y01550968D02*
X00448266Y01551984D01*
X00449282D01*
X00448266Y01553000D01*
X00449282Y01554016D01*
X00448266D01*
X00447250Y01555032D01*
X00446234Y01554016D01*
X00445218D01*
X00446234Y01553000D01*
X00445218Y01551984D01*
X00446234D01*
X00447250Y01550968D01*
Y01551984D02*
X00447758Y01552492D01*
X00448266D01*
X00447758Y01553000D01*
X00448266Y01553508D01*
X00447758D01*
X00447250Y01554016D01*
X00446742Y01553508D01*
X00446234D01*
X00446742Y01553000D01*
X00446234Y01552492D01*
X00446742D01*
X00447250Y01551984D01*
X00485500Y01550968D02*
X00486516Y01551984D01*
X00487532D01*
X00486516Y01553000D01*
X00487532Y01554016D01*
X00486516D01*
X00485500Y01555032D01*
X00484484Y01554016D01*
X00483468D01*
X00484484Y01553000D01*
X00483468Y01551984D01*
X00484484D01*
X00485500Y01550968D01*
Y01551984D02*
X00486008Y01552492D01*
X00486516D01*
X00486008Y01553000D01*
X00486516Y01553508D01*
X00486008D01*
X00485500Y01554016D01*
X00484992Y01553508D01*
X00484484D01*
X00484992Y01553000D01*
X00484484Y01552492D01*
X00484992D01*
X00485500Y01551984D01*
X00527000Y01551468D02*
X00528016Y01552484D01*
X00529032D01*
X00528016Y01553500D01*
X00529032Y01554516D01*
X00528016D01*
X00527000Y01555532D01*
X00525984Y01554516D01*
X00524968D01*
X00525984Y01553500D01*
X00524968Y01552484D01*
X00525984D01*
X00527000Y01551468D01*
Y01552484D02*
X00527508Y01552992D01*
X00528016D01*
X00527508Y01553500D01*
X00528016Y01554008D01*
X00527508D01*
X00527000Y01554516D01*
X00526492Y01554008D01*
X00525984D01*
X00526492Y01553500D01*
X00525984Y01552992D01*
X00526492D01*
X00527000Y01552484D01*
X00566000Y01551468D02*
X00567016Y01552484D01*
X00568032D01*
X00567016Y01553500D01*
X00568032Y01554516D01*
X00567016D01*
X00566000Y01555532D01*
X00564984Y01554516D01*
X00563968D01*
X00564984Y01553500D01*
X00563968Y01552484D01*
X00564984D01*
X00566000Y01551468D01*
Y01552484D02*
X00566508Y01552992D01*
X00567016D01*
X00566508Y01553500D01*
X00567016Y01554008D01*
X00566508D01*
X00566000Y01554516D01*
X00565492Y01554008D01*
X00564984D01*
X00565492Y01553500D01*
X00564984Y01552992D01*
X00565492D01*
X00566000Y01552484D01*
X00605750Y01550968D02*
X00606766Y01551984D01*
X00607782D01*
X00606766Y01553000D01*
X00607782Y01554016D01*
X00606766D01*
X00605750Y01555032D01*
X00604734Y01554016D01*
X00603718D01*
X00604734Y01553000D01*
X00603718Y01551984D01*
X00604734D01*
X00605750Y01550968D01*
Y01551984D02*
X00606258Y01552492D01*
X00606766D01*
X00606258Y01553000D01*
X00606766Y01553508D01*
X00606258D01*
X00605750Y01554016D01*
X00605242Y01553508D01*
X00604734D01*
X00605242Y01553000D01*
X00604734Y01552492D01*
X00605242D01*
X00605750Y01551984D01*
X00645250Y01550968D02*
X00646266Y01551984D01*
X00647282D01*
X00646266Y01553000D01*
X00647282Y01554016D01*
X00646266D01*
X00645250Y01555032D01*
X00644234Y01554016D01*
X00643218D01*
X00644234Y01553000D01*
X00643218Y01551984D01*
X00644234D01*
X00645250Y01550968D01*
Y01551984D02*
X00645758Y01552492D01*
X00646266D01*
X00645758Y01553000D01*
X00646266Y01553508D01*
X00645758D01*
X00645250Y01554016D01*
X00644742Y01553508D01*
X00644234D01*
X00644742Y01553000D01*
X00644234Y01552492D01*
X00644742D01*
X00645250Y01551984D01*
X00687500Y01550968D02*
X00688516Y01551984D01*
X00689532D01*
X00688516Y01553000D01*
X00689532Y01554016D01*
X00688516D01*
X00687500Y01555032D01*
X00686484Y01554016D01*
X00685468D01*
X00686484Y01553000D01*
X00685468Y01551984D01*
X00686484D01*
X00687500Y01550968D01*
Y01551984D02*
X00688008Y01552492D01*
X00688516D01*
X00688008Y01553000D01*
X00688516Y01553508D01*
X00688008D01*
X00687500Y01554016D01*
X00686992Y01553508D01*
X00686484D01*
X00686992Y01553000D01*
X00686484Y01552492D01*
X00686992D01*
X00687500Y01551984D01*
X00734750Y01550718D02*
X00735766Y01551734D01*
X00736782D01*
X00735766Y01552750D01*
X00736782Y01553766D01*
X00735766D01*
X00734750Y01554782D01*
X00733734Y01553766D01*
X00732718D01*
X00733734Y01552750D01*
X00732718Y01551734D01*
X00733734D01*
X00734750Y01550718D01*
Y01551734D02*
X00735258Y01552242D01*
X00735766D01*
X00735258Y01552750D01*
X00735766Y01553258D01*
X00735258D01*
X00734750Y01553766D01*
X00734242Y01553258D01*
X00733734D01*
X00734242Y01552750D01*
X00733734Y01552242D01*
X00734242D01*
X00734750Y01551734D01*
X00775000Y01550718D02*
X00776016Y01551734D01*
X00777032D01*
X00776016Y01552750D01*
X00777032Y01553766D01*
X00776016D01*
X00775000Y01554782D01*
X00773984Y01553766D01*
X00772968D01*
X00773984Y01552750D01*
X00772968Y01551734D01*
X00773984D01*
X00775000Y01550718D01*
Y01551734D02*
X00775508Y01552242D01*
X00776016D01*
X00775508Y01552750D01*
X00776016Y01553258D01*
X00775508D01*
X00775000Y01553766D01*
X00774492Y01553258D01*
X00773984D01*
X00774492Y01552750D01*
X00773984Y01552242D01*
X00774492D01*
X00775000Y01551734D01*
X00815500Y01550468D02*
X00816516Y01551484D01*
X00817532D01*
X00816516Y01552500D01*
X00817532Y01553516D01*
X00816516D01*
X00815500Y01554532D01*
X00814484Y01553516D01*
X00813468D01*
X00814484Y01552500D01*
X00813468Y01551484D01*
X00814484D01*
X00815500Y01550468D01*
Y01551484D02*
X00816008Y01551992D01*
X00816516D01*
X00816008Y01552500D01*
X00816516Y01553008D01*
X00816008D01*
X00815500Y01553516D01*
X00814992Y01553008D01*
X00814484D01*
X00814992Y01552500D01*
X00814484Y01551992D01*
X00814992D01*
X00815500Y01551484D01*
X00855500Y01550218D02*
X00856516Y01551234D01*
X00857532D01*
X00856516Y01552250D01*
X00857532Y01553266D01*
X00856516D01*
X00855500Y01554282D01*
X00854484Y01553266D01*
X00853468D01*
X00854484Y01552250D01*
X00853468Y01551234D01*
X00854484D01*
X00855500Y01550218D01*
Y01551234D02*
X00856008Y01551742D01*
X00856516D01*
X00856008Y01552250D01*
X00856516Y01552758D01*
X00856008D01*
X00855500Y01553266D01*
X00854992Y01552758D01*
X00854484D01*
X00854992Y01552250D01*
X00854484Y01551742D01*
X00854992D01*
X00855500Y01551234D01*
X00895750Y01550218D02*
X00896766Y01551234D01*
X00897782D01*
X00896766Y01552250D01*
X00897782Y01553266D01*
X00896766D01*
X00895750Y01554282D01*
X00894734Y01553266D01*
X00893718D01*
X00894734Y01552250D01*
X00893718Y01551234D01*
X00894734D01*
X00895750Y01550218D01*
Y01551234D02*
X00896258Y01551742D01*
X00896766D01*
X00896258Y01552250D01*
X00896766Y01552758D01*
X00896258D01*
X00895750Y01553266D01*
X00895242Y01552758D01*
X00894734D01*
X00895242Y01552250D01*
X00894734Y01551742D01*
X00895242D01*
X00895750Y01551234D01*
X00939750Y01550718D02*
X00940766Y01551734D01*
X00941782D01*
X00940766Y01552750D01*
X00941782Y01553766D01*
X00940766D01*
X00939750Y01554782D01*
X00938734Y01553766D01*
X00937718D01*
X00938734Y01552750D01*
X00937718Y01551734D01*
X00938734D01*
X00939750Y01550718D01*
Y01551734D02*
X00940258Y01552242D01*
X00940766D01*
X00940258Y01552750D01*
X00940766Y01553258D01*
X00940258D01*
X00939750Y01553766D01*
X00939242Y01553258D01*
X00938734D01*
X00939242Y01552750D01*
X00938734Y01552242D01*
X00939242D01*
X00939750Y01551734D01*
X01577340Y01682560D02*
X01578356Y01683576D01*
X01579372D01*
X01578356Y01684592D01*
X01579372Y01685608D01*
X01578356D01*
X01577340Y01686624D01*
X01576324Y01685608D01*
X01575308D01*
X01576324Y01684592D01*
X01575308Y01683576D01*
X01576324D01*
X01577340Y01682560D01*
Y01683576D02*
X01577848Y01684084D01*
X01578356D01*
X01577848Y01684592D01*
X01578356Y01685100D01*
X01577848D01*
X01577340Y01685608D01*
X01576832Y01685100D01*
X01576324D01*
X01576832Y01684592D01*
X01576324Y01684084D01*
X01576832D01*
X01577340Y01683576D01*
Y01696466D02*
X01578356Y01697482D01*
X01579372D01*
X01578356Y01698498D01*
X01579372Y01699514D01*
X01578356D01*
X01577340Y01700530D01*
X01576324Y01699514D01*
X01575308D01*
X01576324Y01698498D01*
X01575308Y01697482D01*
X01576324D01*
X01577340Y01696466D01*
Y01697482D02*
X01577848Y01697990D01*
X01578356D01*
X01577848Y01698498D01*
X01578356Y01699006D01*
X01577848D01*
X01577340Y01699514D01*
X01576832Y01699006D01*
X01576324D01*
X01576832Y01698498D01*
X01576324Y01697990D01*
X01576832D01*
X01577340Y01697482D01*
Y01709864D02*
X01578356Y01710880D01*
X01579372D01*
X01578356Y01711896D01*
X01579372Y01712912D01*
X01578356D01*
X01577340Y01713928D01*
X01576324Y01712912D01*
X01575308D01*
X01576324Y01711896D01*
X01575308Y01710880D01*
X01576324D01*
X01577340Y01709864D01*
Y01710880D02*
X01577848Y01711388D01*
X01578356D01*
X01577848Y01711896D01*
X01578356Y01712404D01*
X01577848D01*
X01577340Y01712912D01*
X01576832Y01712404D01*
X01576324D01*
X01576832Y01711896D01*
X01576324Y01711388D01*
X01576832D01*
X01577340Y01710880D01*
Y01757616D02*
X01578356Y01758632D01*
X01579372D01*
X01578356Y01759648D01*
X01579372Y01760664D01*
X01578356D01*
X01577340Y01761680D01*
X01576324Y01760664D01*
X01575308D01*
X01576324Y01759648D01*
X01575308Y01758632D01*
X01576324D01*
X01577340Y01757616D01*
Y01758632D02*
X01577848Y01759140D01*
X01578356D01*
X01577848Y01759648D01*
X01578356Y01760156D01*
X01577848D01*
X01577340Y01760664D01*
X01576832Y01760156D01*
X01576324D01*
X01576832Y01759648D01*
X01576324Y01759140D01*
X01576832D01*
X01577340Y01758632D01*
Y01744218D02*
X01578356Y01745234D01*
X01579372D01*
X01578356Y01746250D01*
X01579372Y01747266D01*
X01578356D01*
X01577340Y01748282D01*
X01576324Y01747266D01*
X01575308D01*
X01576324Y01746250D01*
X01575308Y01745234D01*
X01576324D01*
X01577340Y01744218D01*
Y01745234D02*
X01577848Y01745742D01*
X01578356D01*
X01577848Y01746250D01*
X01578356Y01746758D01*
X01577848D01*
X01577340Y01747266D01*
X01576832Y01746758D01*
X01576324D01*
X01576832Y01746250D01*
X01576324Y01745742D01*
X01576832D01*
X01577340Y01745234D01*
Y01730312D02*
X01578356Y01731328D01*
X01579372D01*
X01578356Y01732344D01*
X01579372Y01733360D01*
X01578356D01*
X01577340Y01734376D01*
X01576324Y01733360D01*
X01575308D01*
X01576324Y01732344D01*
X01575308Y01731328D01*
X01576324D01*
X01577340Y01730312D01*
Y01731328D02*
X01577848Y01731836D01*
X01578356D01*
X01577848Y01732344D01*
X01578356Y01732852D01*
X01577848D01*
X01577340Y01733360D01*
X01576832Y01732852D01*
X01576324D01*
X01576832Y01732344D01*
X01576324Y01731836D01*
X01576832D01*
X01577340Y01731328D01*
Y01777302D02*
X01578356Y01778318D01*
X01579372D01*
X01578356Y01779334D01*
X01579372Y01780350D01*
X01578356D01*
X01577340Y01781366D01*
X01576324Y01780350D01*
X01575308D01*
X01576324Y01779334D01*
X01575308Y01778318D01*
X01576324D01*
X01577340Y01777302D01*
Y01778318D02*
X01577848Y01778826D01*
X01578356D01*
X01577848Y01779334D01*
X01578356Y01779842D01*
X01577848D01*
X01577340Y01780350D01*
X01576832Y01779842D01*
X01576324D01*
X01576832Y01779334D01*
X01576324Y01778826D01*
X01576832D01*
X01577340Y01778318D01*
Y01791208D02*
X01578356Y01792224D01*
X01579372D01*
X01578356Y01793240D01*
X01579372Y01794256D01*
X01578356D01*
X01577340Y01795272D01*
X01576324Y01794256D01*
X01575308D01*
X01576324Y01793240D01*
X01575308Y01792224D01*
X01576324D01*
X01577340Y01791208D01*
Y01792224D02*
X01577848Y01792732D01*
X01578356D01*
X01577848Y01793240D01*
X01578356Y01793748D01*
X01577848D01*
X01577340Y01794256D01*
X01576832Y01793748D01*
X01576324D01*
X01576832Y01793240D01*
X01576324Y01792732D01*
X01576832D01*
X01577340Y01792224D01*
Y01804606D02*
X01578356Y01805622D01*
X01579372D01*
X01578356Y01806638D01*
X01579372Y01807654D01*
X01578356D01*
X01577340Y01808670D01*
X01576324Y01807654D01*
X01575308D01*
X01576324Y01806638D01*
X01575308Y01805622D01*
X01576324D01*
X01577340Y01804606D01*
Y01805622D02*
X01577848Y01806130D01*
X01578356D01*
X01577848Y01806638D01*
X01578356Y01807146D01*
X01577848D01*
X01577340Y01807654D01*
X01576832Y01807146D01*
X01576324D01*
X01576832Y01806638D01*
X01576324Y01806130D01*
X01576832D01*
X01577340Y01805622D01*
X01680000Y01717968D02*
X01681016Y01718984D01*
X01682032D01*
X01681016Y01720000D01*
X01682032Y01721016D01*
X01681016D01*
X01680000Y01722032D01*
X01678984Y01721016D01*
X01677968D01*
X01678984Y01720000D01*
X01677968Y01718984D01*
X01678984D01*
X01680000Y01717968D01*
Y01718984D02*
X01680508Y01719492D01*
X01681016D01*
X01680508Y01720000D01*
X01681016Y01720508D01*
X01680508D01*
X01680000Y01721016D01*
X01679492Y01720508D01*
X01678984D01*
X01679492Y01720000D01*
X01678984Y01719492D01*
X01679492D01*
X01680000Y01718984D01*
X01700000Y01677968D02*
X01701016Y01678984D01*
X01702032D01*
X01701016Y01680000D01*
X01702032Y01681016D01*
X01701016D01*
X01700000Y01682032D01*
X01698984Y01681016D01*
X01697968D01*
X01698984Y01680000D01*
X01697968Y01678984D01*
X01698984D01*
X01700000Y01677968D01*
Y01678984D02*
X01700508Y01679492D01*
X01701016D01*
X01700508Y01680000D01*
X01701016Y01680508D01*
X01700508D01*
X01700000Y01681016D01*
X01699492Y01680508D01*
X01698984D01*
X01699492Y01680000D01*
X01698984Y01679492D01*
X01699492D01*
X01700000Y01678984D01*
X01680000Y01637968D02*
X01681016Y01638984D01*
X01682032D01*
X01681016Y01640000D01*
X01682032Y01641016D01*
X01681016D01*
X01680000Y01642032D01*
X01678984Y01641016D01*
X01677968D01*
X01678984Y01640000D01*
X01677968Y01638984D01*
X01678984D01*
X01680000Y01637968D01*
Y01638984D02*
X01680508Y01639492D01*
X01681016D01*
X01680508Y01640000D01*
X01681016Y01640508D01*
X01680508D01*
X01680000Y01641016D01*
X01679492Y01640508D01*
X01678984D01*
X01679492Y01640000D01*
X01678984Y01639492D01*
X01679492D01*
X01680000Y01638984D01*
X01640000Y01717968D02*
X01641016Y01718984D01*
X01642032D01*
X01641016Y01720000D01*
X01642032Y01721016D01*
X01641016D01*
X01640000Y01722032D01*
X01638984Y01721016D01*
X01637968D01*
X01638984Y01720000D01*
X01637968Y01718984D01*
X01638984D01*
X01640000Y01717968D01*
Y01718984D02*
X01640508Y01719492D01*
X01641016D01*
X01640508Y01720000D01*
X01641016Y01720508D01*
X01640508D01*
X01640000Y01721016D01*
X01639492Y01720508D01*
X01638984D01*
X01639492Y01720000D01*
X01638984Y01719492D01*
X01639492D01*
X01640000Y01718984D01*
X01660000Y01677968D02*
X01661016Y01678984D01*
X01662032D01*
X01661016Y01680000D01*
X01662032Y01681016D01*
X01661016D01*
X01660000Y01682032D01*
X01658984Y01681016D01*
X01657968D01*
X01658984Y01680000D01*
X01657968Y01678984D01*
X01658984D01*
X01660000Y01677968D01*
Y01678984D02*
X01660508Y01679492D01*
X01661016D01*
X01660508Y01680000D01*
X01661016Y01680508D01*
X01660508D01*
X01660000Y01681016D01*
X01659492Y01680508D01*
X01658984D01*
X01659492Y01680000D01*
X01658984Y01679492D01*
X01659492D01*
X01660000Y01678984D01*
X01600000Y01717968D02*
X01601016Y01718984D01*
X01602032D01*
X01601016Y01720000D01*
X01602032Y01721016D01*
X01601016D01*
X01600000Y01722032D01*
X01598984Y01721016D01*
X01597968D01*
X01598984Y01720000D01*
X01597968Y01718984D01*
X01598984D01*
X01600000Y01717968D01*
Y01718984D02*
X01600508Y01719492D01*
X01601016D01*
X01600508Y01720000D01*
X01601016Y01720508D01*
X01600508D01*
X01600000Y01721016D01*
X01599492Y01720508D01*
X01598984D01*
X01599492Y01720000D01*
X01598984Y01719492D01*
X01599492D01*
X01600000Y01718984D01*
X01620000Y01677968D02*
X01621016Y01678984D01*
X01622032D01*
X01621016Y01680000D01*
X01622032Y01681016D01*
X01621016D01*
X01620000Y01682032D01*
X01618984Y01681016D01*
X01617968D01*
X01618984Y01680000D01*
X01617968Y01678984D01*
X01618984D01*
X01620000Y01677968D01*
Y01678984D02*
X01620508Y01679492D01*
X01621016D01*
X01620508Y01680000D01*
X01621016Y01680508D01*
X01620508D01*
X01620000Y01681016D01*
X01619492Y01680508D01*
X01618984D01*
X01619492Y01680000D01*
X01618984Y01679492D01*
X01619492D01*
X01620000Y01678984D01*
X00296250Y01729718D02*
X00297266Y01730734D01*
X00298282D01*
X00297266Y01731750D01*
X00298282Y01732766D01*
X00297266D01*
X00296250Y01733782D01*
X00295234Y01732766D01*
X00294218D01*
X00295234Y01731750D01*
X00294218Y01730734D01*
X00295234D01*
X00296250Y01729718D01*
Y01730734D02*
X00296758Y01731242D01*
X00297266D01*
X00296758Y01731750D01*
X00297266Y01732258D01*
X00296758D01*
X00296250Y01732766D01*
X00295742Y01732258D01*
X00295234D01*
X00295742Y01731750D01*
X00295234Y01731242D01*
X00295742D01*
X00296250Y01730734D01*
X00329770Y01645609D02*
X00330786Y01646625D01*
X00331802D01*
X00330786Y01647641D01*
X00331802Y01648657D01*
X00330786D01*
X00329770Y01649673D01*
X00328754Y01648657D01*
X00327738D01*
X00328754Y01647641D01*
X00327738Y01646625D01*
X00328754D01*
X00329770Y01645609D01*
Y01646625D02*
X00330278Y01647133D01*
X00330786D01*
X00330278Y01647641D01*
X00330786Y01648149D01*
X00330278D01*
X00329770Y01648657D01*
X00329262Y01648149D01*
X00328754D01*
X00329262Y01647641D01*
X00328754Y01647133D01*
X00329262D01*
X00329770Y01646625D01*
Y01564218D02*
X00330786Y01565234D01*
X00331802D01*
X00330786Y01566250D01*
X00331802Y01567266D01*
X00330786D01*
X00329770Y01568282D01*
X00328754Y01567266D01*
X00327738D01*
X00328754Y01566250D01*
X00327738Y01565234D01*
X00328754D01*
X00329770Y01564218D01*
Y01565234D02*
X00330278Y01565742D01*
X00330786D01*
X00330278Y01566250D01*
X00330786Y01566758D01*
X00330278D01*
X00329770Y01567266D01*
X00329262Y01566758D01*
X00328754D01*
X00329262Y01566250D01*
X00328754Y01565742D01*
X00329262D01*
X00329770Y01565234D01*
X01497750Y01986718D02*
X01498766Y01987734D01*
X01499782D01*
X01498766Y01988750D01*
X01499782Y01989766D01*
X01498766D01*
X01497750Y01990782D01*
X01496734Y01989766D01*
X01495718D01*
X01496734Y01988750D01*
X01495718Y01987734D01*
X01496734D01*
X01497750Y01986718D01*
Y01987734D02*
X01498258Y01988242D01*
X01498766D01*
X01498258Y01988750D01*
X01498766Y01989258D01*
X01498258D01*
X01497750Y01989766D01*
X01497242Y01989258D01*
X01496734D01*
X01497242Y01988750D01*
X01496734Y01988242D01*
X01497242D01*
X01497750Y01987734D01*
X01514250Y02023468D02*
X01515266Y02024484D01*
X01516282D01*
X01515266Y02025500D01*
X01516282Y02026516D01*
X01515266D01*
X01514250Y02027532D01*
X01513234Y02026516D01*
X01512218D01*
X01513234Y02025500D01*
X01512218Y02024484D01*
X01513234D01*
X01514250Y02023468D01*
Y02024484D02*
X01514758Y02024992D01*
X01515266D01*
X01514758Y02025500D01*
X01515266Y02026008D01*
X01514758D01*
X01514250Y02026516D01*
X01513742Y02026008D01*
X01513234D01*
X01513742Y02025500D01*
X01513234Y02024992D01*
X01513742D01*
X01514250Y02024484D01*
X01503250Y02062218D02*
X01504266Y02063234D01*
X01505282D01*
X01504266Y02064250D01*
X01505282Y02065266D01*
X01504266D01*
X01503250Y02066282D01*
X01502234Y02065266D01*
X01501218D01*
X01502234Y02064250D01*
X01501218Y02063234D01*
X01502234D01*
X01503250Y02062218D01*
Y02063234D02*
X01503758Y02063742D01*
X01504266D01*
X01503758Y02064250D01*
X01504266Y02064758D01*
X01503758D01*
X01503250Y02065266D01*
X01502742Y02064758D01*
X01502234D01*
X01502742Y02064250D01*
X01502234Y02063742D01*
X01502742D01*
X01503250Y02063234D01*
X01481250Y02095468D02*
X01482266Y02096484D01*
X01483282D01*
X01482266Y02097500D01*
X01483282Y02098516D01*
X01482266D01*
X01481250Y02099532D01*
X01480234Y02098516D01*
X01479218D01*
X01480234Y02097500D01*
X01479218Y02096484D01*
X01480234D01*
X01481250Y02095468D01*
Y02096484D02*
X01481758Y02096992D01*
X01482266D01*
X01481758Y02097500D01*
X01482266Y02098008D01*
X01481758D01*
X01481250Y02098516D01*
X01480742Y02098008D01*
X01480234D01*
X01480742Y02097500D01*
X01480234Y02096992D01*
X01480742D01*
X01481250Y02096484D01*
X01615318Y01838068D02*
X01616333Y01839084D01*
X01617350D01*
X01616333Y01840100D01*
X01617350Y01841116D01*
X01616333D01*
X01615318Y01842132D01*
X01614301Y01841116D01*
X01613286D01*
X01614301Y01840100D01*
X01613286Y01839084D01*
X01614301D01*
X01615318Y01838068D01*
Y01839084D02*
X01615826Y01839592D01*
X01616333D01*
X01615826Y01840100D01*
X01616333Y01840608D01*
X01615826D01*
X01615318Y01841116D01*
X01614810Y01840608D01*
X01614301D01*
X01614810Y01840100D01*
X01614301Y01839592D01*
X01614810D01*
X01615318Y01839084D01*
X01582250Y01837968D02*
X01583266Y01838984D01*
X01584282D01*
X01583266Y01840000D01*
X01584282Y01841016D01*
X01583266D01*
X01582250Y01842032D01*
X01581234Y01841016D01*
X01580218D01*
X01581234Y01840000D01*
X01580218Y01838984D01*
X01581234D01*
X01582250Y01837968D01*
Y01838984D02*
X01582758Y01839492D01*
X01583266D01*
X01582758Y01840000D01*
X01583266Y01840508D01*
X01582758D01*
X01582250Y01841016D01*
X01581742Y01840508D01*
X01581234D01*
X01581742Y01840000D01*
X01581234Y01839492D01*
X01581742D01*
X01582250Y01838984D01*
X01554000Y01837968D02*
X01555016Y01838984D01*
X01556032D01*
X01555016Y01840000D01*
X01556032Y01841016D01*
X01555016D01*
X01554000Y01842032D01*
X01552984Y01841016D01*
X01551968D01*
X01552984Y01840000D01*
X01551968Y01838984D01*
X01552984D01*
X01554000Y01837968D01*
Y01838984D02*
X01554508Y01839492D01*
X01555016D01*
X01554508Y01840000D01*
X01555016Y01840508D01*
X01554508D01*
X01554000Y01841016D01*
X01553492Y01840508D01*
X01552984D01*
X01553492Y01840000D01*
X01552984Y01839492D01*
X01553492D01*
X01554000Y01838984D01*
X01489250Y01837468D02*
X01490266Y01838484D01*
X01491282D01*
X01490266Y01839500D01*
X01491282Y01840516D01*
X01490266D01*
X01489250Y01841532D01*
X01488234Y01840516D01*
X01487218D01*
X01488234Y01839500D01*
X01487218Y01838484D01*
X01488234D01*
X01489250Y01837468D01*
Y01838484D02*
X01489758Y01838992D01*
X01490266D01*
X01489758Y01839500D01*
X01490266Y01840008D01*
X01489758D01*
X01489250Y01840516D01*
X01488742Y01840008D01*
X01488234D01*
X01488742Y01839500D01*
X01488234Y01838992D01*
X01488742D01*
X01489250Y01838484D01*
X01613750Y01884718D02*
X01614766Y01885734D01*
X01615782D01*
X01614766Y01886750D01*
X01615782Y01887766D01*
X01614766D01*
X01613750Y01888782D01*
X01612734Y01887766D01*
X01611718D01*
X01612734Y01886750D01*
X01611718Y01885734D01*
X01612734D01*
X01613750Y01884718D01*
Y01885734D02*
X01614258Y01886242D01*
X01614766D01*
X01614258Y01886750D01*
X01614766Y01887258D01*
X01614258D01*
X01613750Y01887766D01*
X01613242Y01887258D01*
X01612734D01*
X01613242Y01886750D01*
X01612734Y01886242D01*
X01613242D01*
X01613750Y01885734D01*
X01582250Y01885668D02*
X01583266Y01886684D01*
X01584282D01*
X01583266Y01887700D01*
X01584282Y01888716D01*
X01583266D01*
X01582250Y01889732D01*
X01581234Y01888716D01*
X01580218D01*
X01581234Y01887700D01*
X01580218Y01886684D01*
X01581234D01*
X01582250Y01885668D01*
Y01886684D02*
X01582758Y01887192D01*
X01583266D01*
X01582758Y01887700D01*
X01583266Y01888208D01*
X01582758D01*
X01582250Y01888716D01*
X01581742Y01888208D01*
X01581234D01*
X01581742Y01887700D01*
X01581234Y01887192D01*
X01581742D01*
X01582250Y01886684D01*
X01553750Y01885218D02*
X01554766Y01886234D01*
X01555782D01*
X01554766Y01887250D01*
X01555782Y01888266D01*
X01554766D01*
X01553750Y01889282D01*
X01552734Y01888266D01*
X01551718D01*
X01552734Y01887250D01*
X01551718Y01886234D01*
X01552734D01*
X01553750Y01885218D01*
Y01886234D02*
X01554258Y01886742D01*
X01554766D01*
X01554258Y01887250D01*
X01554766Y01887758D01*
X01554258D01*
X01553750Y01888266D01*
X01553242Y01887758D01*
X01552734D01*
X01553242Y01887250D01*
X01552734Y01886742D01*
X01553242D01*
X01553750Y01886234D01*
X01489750Y01884718D02*
X01490766Y01885734D01*
X01491782D01*
X01490766Y01886750D01*
X01491782Y01887766D01*
X01490766D01*
X01489750Y01888782D01*
X01488734Y01887766D01*
X01487718D01*
X01488734Y01886750D01*
X01487718Y01885734D01*
X01488734D01*
X01489750Y01884718D01*
Y01885734D02*
X01490258Y01886242D01*
X01490766D01*
X01490258Y01886750D01*
X01490766Y01887258D01*
X01490258D01*
X01489750Y01887766D01*
X01489242Y01887258D01*
X01488734D01*
X01489242Y01886750D01*
X01488734Y01886242D01*
X01489242D01*
X01489750Y01885734D01*
X01613993Y01932543D02*
X01615009Y01933559D01*
X01616025D01*
X01615009Y01934575D01*
X01616025Y01935591D01*
X01615009D01*
X01613993Y01936607D01*
X01612977Y01935591D01*
X01611961D01*
X01612977Y01934575D01*
X01611961Y01933559D01*
X01612977D01*
X01613993Y01932543D01*
Y01933559D02*
X01614501Y01934067D01*
X01615009D01*
X01614501Y01934575D01*
X01615009Y01935083D01*
X01614501D01*
X01613993Y01935591D01*
X01613485Y01935083D01*
X01612977D01*
X01613485Y01934575D01*
X01612977Y01934067D01*
X01613485D01*
X01613993Y01933559D01*
X01583250Y01931468D02*
X01584266Y01932484D01*
X01585282D01*
X01584266Y01933500D01*
X01585282Y01934516D01*
X01584266D01*
X01583250Y01935532D01*
X01582234Y01934516D01*
X01581218D01*
X01582234Y01933500D01*
X01581218Y01932484D01*
X01582234D01*
X01583250Y01931468D01*
Y01932484D02*
X01583758Y01932992D01*
X01584266D01*
X01583758Y01933500D01*
X01584266Y01934008D01*
X01583758D01*
X01583250Y01934516D01*
X01582742Y01934008D01*
X01582234D01*
X01582742Y01933500D01*
X01582234Y01932992D01*
X01582742D01*
X01583250Y01932484D01*
X01553250Y01931718D02*
X01554266Y01932734D01*
X01555282D01*
X01554266Y01933750D01*
X01555282Y01934766D01*
X01554266D01*
X01553250Y01935782D01*
X01552234Y01934766D01*
X01551218D01*
X01552234Y01933750D01*
X01551218Y01932734D01*
X01552234D01*
X01553250Y01931718D01*
Y01932734D02*
X01553758Y01933242D01*
X01554266D01*
X01553758Y01933750D01*
X01554266Y01934258D01*
X01553758D01*
X01553250Y01934766D01*
X01552742Y01934258D01*
X01552234D01*
X01552742Y01933750D01*
X01552234Y01933242D01*
X01552742D01*
X01553250Y01932734D01*
X01491250Y01932718D02*
X01492266Y01933734D01*
X01493282D01*
X01492266Y01934750D01*
X01493282Y01935766D01*
X01492266D01*
X01491250Y01936782D01*
X01490234Y01935766D01*
X01489218D01*
X01490234Y01934750D01*
X01489218Y01933734D01*
X01490234D01*
X01491250Y01932718D01*
Y01933734D02*
X01491758Y01934242D01*
X01492266D01*
X01491758Y01934750D01*
X01492266Y01935258D01*
X01491758D01*
X01491250Y01935766D01*
X01490742Y01935258D01*
X01490234D01*
X01490742Y01934750D01*
X01490234Y01934242D01*
X01490742D01*
X01491250Y01933734D01*
X01706000Y01734218D02*
X01707016Y01735234D01*
X01708032D01*
X01707016Y01736250D01*
X01708032Y01737266D01*
X01707016D01*
X01706000Y01738282D01*
X01704984Y01737266D01*
X01703968D01*
X01704984Y01736250D01*
X01703968Y01735234D01*
X01704984D01*
X01706000Y01734218D01*
Y01735234D02*
X01706508Y01735742D01*
X01707016D01*
X01706508Y01736250D01*
X01707016Y01736758D01*
X01706508D01*
X01706000Y01737266D01*
X01705492Y01736758D01*
X01704984D01*
X01705492Y01736250D01*
X01704984Y01735742D01*
X01705492D01*
X01706000Y01735234D01*
X01706250Y01774468D02*
X01707266Y01775484D01*
X01708282D01*
X01707266Y01776500D01*
X01708282Y01777516D01*
X01707266D01*
X01706250Y01778532D01*
X01705234Y01777516D01*
X01704218D01*
X01705234Y01776500D01*
X01704218Y01775484D01*
X01705234D01*
X01706250Y01774468D01*
Y01775484D02*
X01706758Y01775992D01*
X01707266D01*
X01706758Y01776500D01*
X01707266Y01777008D01*
X01706758D01*
X01706250Y01777516D01*
X01705742Y01777008D01*
X01705234D01*
X01705742Y01776500D01*
X01705234Y01775992D01*
X01705742D01*
X01706250Y01775484D01*
X01706000Y01814718D02*
X01707016Y01815734D01*
X01708032D01*
X01707016Y01816750D01*
X01708032Y01817766D01*
X01707016D01*
X01706000Y01818782D01*
X01704984Y01817766D01*
X01703968D01*
X01704984Y01816750D01*
X01703968Y01815734D01*
X01704984D01*
X01706000Y01814718D01*
Y01815734D02*
X01706508Y01816242D01*
X01707016D01*
X01706508Y01816750D01*
X01707016Y01817258D01*
X01706508D01*
X01706000Y01817766D01*
X01705492Y01817258D01*
X01704984D01*
X01705492Y01816750D01*
X01704984Y01816242D01*
X01705492D01*
X01706000Y01815734D01*
Y01855718D02*
X01707016Y01856734D01*
X01708032D01*
X01707016Y01857750D01*
X01708032Y01858766D01*
X01707016D01*
X01706000Y01859782D01*
X01704984Y01858766D01*
X01703968D01*
X01704984Y01857750D01*
X01703968Y01856734D01*
X01704984D01*
X01706000Y01855718D01*
Y01856734D02*
X01706508Y01857242D01*
X01707016D01*
X01706508Y01857750D01*
X01707016Y01858258D01*
X01706508D01*
X01706000Y01858766D01*
X01705492Y01858258D01*
X01704984D01*
X01705492Y01857750D01*
X01704984Y01857242D01*
X01705492D01*
X01706000Y01856734D01*
Y01896468D02*
X01707016Y01897484D01*
X01708032D01*
X01707016Y01898500D01*
X01708032Y01899516D01*
X01707016D01*
X01706000Y01900532D01*
X01704984Y01899516D01*
X01703968D01*
X01704984Y01898500D01*
X01703968Y01897484D01*
X01704984D01*
X01706000Y01896468D01*
Y01897484D02*
X01706508Y01897992D01*
X01707016D01*
X01706508Y01898500D01*
X01707016Y01899008D01*
X01706508D01*
X01706000Y01899516D01*
X01705492Y01899008D01*
X01704984D01*
X01705492Y01898500D01*
X01704984Y01897992D01*
X01705492D01*
X01706000Y01897484D01*
Y01936468D02*
X01707016Y01937484D01*
X01708032D01*
X01707016Y01938500D01*
X01708032Y01939516D01*
X01707016D01*
X01706000Y01940532D01*
X01704984Y01939516D01*
X01703968D01*
X01704984Y01938500D01*
X01703968Y01937484D01*
X01704984D01*
X01706000Y01936468D01*
Y01937484D02*
X01706508Y01937992D01*
X01707016D01*
X01706508Y01938500D01*
X01707016Y01939008D01*
X01706508D01*
X01706000Y01939516D01*
X01705492Y01939008D01*
X01704984D01*
X01705492Y01938500D01*
X01704984Y01937992D01*
X01705492D01*
X01706000Y01937484D01*
Y01976218D02*
X01707016Y01977234D01*
X01708032D01*
X01707016Y01978250D01*
X01708032Y01979266D01*
X01707016D01*
X01706000Y01980282D01*
X01704984Y01979266D01*
X01703968D01*
X01704984Y01978250D01*
X01703968Y01977234D01*
X01704984D01*
X01706000Y01976218D01*
Y01977234D02*
X01706508Y01977742D01*
X01707016D01*
X01706508Y01978250D01*
X01707016Y01978758D01*
X01706508D01*
X01706000Y01979266D01*
X01705492Y01978758D01*
X01704984D01*
X01705492Y01978250D01*
X01704984Y01977742D01*
X01705492D01*
X01706000Y01977234D01*
Y02015968D02*
X01707016Y02016984D01*
X01708032D01*
X01707016Y02018000D01*
X01708032Y02019016D01*
X01707016D01*
X01706000Y02020032D01*
X01704984Y02019016D01*
X01703968D01*
X01704984Y02018000D01*
X01703968Y02016984D01*
X01704984D01*
X01706000Y02015968D01*
Y02016984D02*
X01706508Y02017492D01*
X01707016D01*
X01706508Y02018000D01*
X01707016Y02018508D01*
X01706508D01*
X01706000Y02019016D01*
X01705492Y02018508D01*
X01704984D01*
X01705492Y02018000D01*
X01704984Y02017492D01*
X01705492D01*
X01706000Y02016984D01*
Y02096218D02*
X01707016Y02097234D01*
X01708032D01*
X01707016Y02098250D01*
X01708032Y02099266D01*
X01707016D01*
X01706000Y02100282D01*
X01704984Y02099266D01*
X01703968D01*
X01704984Y02098250D01*
X01703968Y02097234D01*
X01704984D01*
X01706000Y02096218D01*
Y02097234D02*
X01706508Y02097742D01*
X01707016D01*
X01706508Y02098250D01*
X01707016Y02098758D01*
X01706508D01*
X01706000Y02099266D01*
X01705492Y02098758D01*
X01704984D01*
X01705492Y02098250D01*
X01704984Y02097742D01*
X01705492D01*
X01706000Y02097234D01*
Y02055718D02*
X01707016Y02056734D01*
X01708032D01*
X01707016Y02057750D01*
X01708032Y02058766D01*
X01707016D01*
X01706000Y02059782D01*
X01704984Y02058766D01*
X01703968D01*
X01704984Y02057750D01*
X01703968Y02056734D01*
X01704984D01*
X01706000Y02055718D01*
Y02056734D02*
X01706508Y02057242D01*
X01707016D01*
X01706508Y02057750D01*
X01707016Y02058258D01*
X01706508D01*
X01706000Y02058766D01*
X01705492Y02058258D01*
X01704984D01*
X01705492Y02057750D01*
X01704984Y02057242D01*
X01705492D01*
X01706000Y02056734D01*
X01672500Y02181218D02*
X01673516Y02182234D01*
X01674532D01*
X01673516Y02183250D01*
X01674532Y02184266D01*
X01673516D01*
X01672500Y02185282D01*
X01671484Y02184266D01*
X01670468D01*
X01671484Y02183250D01*
X01670468Y02182234D01*
X01671484D01*
X01672500Y02181218D01*
Y02182234D02*
X01673008Y02182742D01*
X01673516D01*
X01673008Y02183250D01*
X01673516Y02183758D01*
X01673008D01*
X01672500Y02184266D01*
X01671992Y02183758D01*
X01671484D01*
X01671992Y02183250D01*
X01671484Y02182742D01*
X01671992D01*
X01672500Y02182234D01*
X01643750Y02209968D02*
X01644766Y02210984D01*
X01645782D01*
X01644766Y02212000D01*
X01645782Y02213016D01*
X01644766D01*
X01643750Y02214032D01*
X01642734Y02213016D01*
X01641718D01*
X01642734Y02212000D01*
X01641718Y02210984D01*
X01642734D01*
X01643750Y02209968D01*
Y02210984D02*
X01644258Y02211492D01*
X01644766D01*
X01644258Y02212000D01*
X01644766Y02212508D01*
X01644258D01*
X01643750Y02213016D01*
X01643242Y02212508D01*
X01642734D01*
X01643242Y02212000D01*
X01642734Y02211492D01*
X01643242D01*
X01643750Y02210984D01*
X01614750Y02238718D02*
X01615766Y02239734D01*
X01616782D01*
X01615766Y02240750D01*
X01616782Y02241766D01*
X01615766D01*
X01614750Y02242782D01*
X01613734Y02241766D01*
X01612718D01*
X01613734Y02240750D01*
X01612718Y02239734D01*
X01613734D01*
X01614750Y02238718D01*
Y02239734D02*
X01615258Y02240242D01*
X01615766D01*
X01615258Y02240750D01*
X01615766Y02241258D01*
X01615258D01*
X01614750Y02241766D01*
X01614242Y02241258D01*
X01613734D01*
X01614242Y02240750D01*
X01613734Y02240242D01*
X01614242D01*
X01614750Y02239734D01*
X01233750Y02396968D02*
X01234766Y02397984D01*
X01235782D01*
X01234766Y02399000D01*
X01235782Y02400016D01*
X01234766D01*
X01233750Y02401032D01*
X01232734Y02400016D01*
X01231718D01*
X01232734Y02399000D01*
X01231718Y02397984D01*
X01232734D01*
X01233750Y02396968D01*
Y02397984D02*
X01234258Y02398492D01*
X01234766D01*
X01234258Y02399000D01*
X01234766Y02399508D01*
X01234258D01*
X01233750Y02400016D01*
X01233242Y02399508D01*
X01232734D01*
X01233242Y02399000D01*
X01232734Y02398492D01*
X01233242D01*
X01233750Y02397984D01*
X01462750Y02197218D02*
X01463766Y02198234D01*
X01464782D01*
X01463766Y02199250D01*
X01464782Y02200266D01*
X01463766D01*
X01462750Y02201282D01*
X01461734Y02200266D01*
X01460718D01*
X01461734Y02199250D01*
X01460718Y02198234D01*
X01461734D01*
X01462750Y02197218D01*
Y02198234D02*
X01463258Y02198742D01*
X01463766D01*
X01463258Y02199250D01*
X01463766Y02199758D01*
X01463258D01*
X01462750Y02200266D01*
X01462242Y02199758D01*
X01461734D01*
X01462242Y02199250D01*
X01461734Y02198742D01*
X01462242D01*
X01462750Y02198234D01*
X01434250Y02224718D02*
X01435266Y02225734D01*
X01436282D01*
X01435266Y02226750D01*
X01436282Y02227766D01*
X01435266D01*
X01434250Y02228782D01*
X01433234Y02227766D01*
X01432218D01*
X01433234Y02226750D01*
X01432218Y02225734D01*
X01433234D01*
X01434250Y02224718D01*
Y02225734D02*
X01434758Y02226242D01*
X01435266D01*
X01434758Y02226750D01*
X01435266Y02227258D01*
X01434758D01*
X01434250Y02227766D01*
X01433742Y02227258D01*
X01433234D01*
X01433742Y02226750D01*
X01433234Y02226242D01*
X01433742D01*
X01434250Y02225734D01*
X01311750Y02396718D02*
X01312766Y02397734D01*
X01313782D01*
X01312766Y02398750D01*
X01313782Y02399766D01*
X01312766D01*
X01311750Y02400782D01*
X01310734Y02399766D01*
X01309718D01*
X01310734Y02398750D01*
X01309718Y02397734D01*
X01310734D01*
X01311750Y02396718D01*
Y02397734D02*
X01312258Y02398242D01*
X01312766D01*
X01312258Y02398750D01*
X01312766Y02399258D01*
X01312258D01*
X01311750Y02399766D01*
X01311242Y02399258D01*
X01310734D01*
X01311242Y02398750D01*
X01310734Y02398242D01*
X01311242D01*
X01311750Y02397734D01*
X01344750Y02379468D02*
X01345766Y02380484D01*
X01346782D01*
X01345766Y02381500D01*
X01346782Y02382516D01*
X01345766D01*
X01344750Y02383532D01*
X01343734Y02382516D01*
X01342718D01*
X01343734Y02381500D01*
X01342718Y02380484D01*
X01343734D01*
X01344750Y02379468D01*
Y02380484D02*
X01345258Y02380992D01*
X01345766D01*
X01345258Y02381500D01*
X01345766Y02382008D01*
X01345258D01*
X01344750Y02382516D01*
X01344242Y02382008D01*
X01343734D01*
X01344242Y02381500D01*
X01343734Y02380992D01*
X01344242D01*
X01344750Y02380484D01*
X01585750Y02266968D02*
X01586766Y02267984D01*
X01587782D01*
X01586766Y02269000D01*
X01587782Y02270016D01*
X01586766D01*
X01585750Y02271032D01*
X01584734Y02270016D01*
X01583718D01*
X01584734Y02269000D01*
X01583718Y02267984D01*
X01584734D01*
X01585750Y02266968D01*
Y02267984D02*
X01586258Y02268492D01*
X01586766D01*
X01586258Y02269000D01*
X01586766Y02269508D01*
X01586258D01*
X01585750Y02270016D01*
X01585242Y02269508D01*
X01584734D01*
X01585242Y02269000D01*
X01584734Y02268492D01*
X01585242D01*
X01585750Y02267984D01*
X01557750Y02295218D02*
X01558766Y02296234D01*
X01559782D01*
X01558766Y02297250D01*
X01559782Y02298266D01*
X01558766D01*
X01557750Y02299282D01*
X01556734Y02298266D01*
X01555718D01*
X01556734Y02297250D01*
X01555718Y02296234D01*
X01556734D01*
X01557750Y02295218D01*
Y02296234D02*
X01558258Y02296742D01*
X01558766D01*
X01558258Y02297250D01*
X01558766Y02297758D01*
X01558258D01*
X01557750Y02298266D01*
X01557242Y02297758D01*
X01556734D01*
X01557242Y02297250D01*
X01556734Y02296742D01*
X01557242D01*
X01557750Y02296234D01*
X01529250Y02324218D02*
X01530266Y02325234D01*
X01531282D01*
X01530266Y02326250D01*
X01531282Y02327266D01*
X01530266D01*
X01529250Y02328282D01*
X01528234Y02327266D01*
X01527218D01*
X01528234Y02326250D01*
X01527218Y02325234D01*
X01528234D01*
X01529250Y02324218D01*
Y02325234D02*
X01529758Y02325742D01*
X01530266D01*
X01529758Y02326250D01*
X01530266Y02326758D01*
X01529758D01*
X01529250Y02327266D01*
X01528742Y02326758D01*
X01528234D01*
X01528742Y02326250D01*
X01528234Y02325742D01*
X01528742D01*
X01529250Y02325234D01*
X01407000Y02253968D02*
X01408016Y02254984D01*
X01409032D01*
X01408016Y02256000D01*
X01409032Y02257016D01*
X01408016D01*
X01407000Y02258032D01*
X01405984Y02257016D01*
X01404968D01*
X01405984Y02256000D01*
X01404968Y02254984D01*
X01405984D01*
X01407000Y02253968D01*
Y02254984D02*
X01407508Y02255492D01*
X01408016D01*
X01407508Y02256000D01*
X01408016Y02256508D01*
X01407508D01*
X01407000Y02257016D01*
X01406492Y02256508D01*
X01405984D01*
X01406492Y02256000D01*
X01405984Y02255492D01*
X01406492D01*
X01407000Y02254984D01*
X01380500Y02283468D02*
X01381516Y02284484D01*
X01382532D01*
X01381516Y02285500D01*
X01382532Y02286516D01*
X01381516D01*
X01380500Y02287532D01*
X01379484Y02286516D01*
X01378468D01*
X01379484Y02285500D01*
X01378468Y02284484D01*
X01379484D01*
X01380500Y02283468D01*
Y02284484D02*
X01381008Y02284992D01*
X01381516D01*
X01381008Y02285500D01*
X01381516Y02286008D01*
X01381008D01*
X01380500Y02286516D01*
X01379992Y02286008D01*
X01379484D01*
X01379992Y02285500D01*
X01379484Y02284992D01*
X01379992D01*
X01380500Y02284484D01*
X01273250Y02396718D02*
X01274266Y02397734D01*
X01275282D01*
X01274266Y02398750D01*
X01275282Y02399766D01*
X01274266D01*
X01273250Y02400782D01*
X01272234Y02399766D01*
X01271218D01*
X01272234Y02398750D01*
X01271218Y02397734D01*
X01272234D01*
X01273250Y02396718D01*
Y02397734D02*
X01273758Y02398242D01*
X01274266D01*
X01273758Y02398750D01*
X01274266Y02399258D01*
X01273758D01*
X01273250Y02399766D01*
X01272742Y02399258D01*
X01272234D01*
X01272742Y02398750D01*
X01272234Y02398242D01*
X01272742D01*
X01273250Y02397734D01*
X01466750Y02424718D02*
X01467766Y02425734D01*
X01468782D01*
X01467766Y02426750D01*
X01468782Y02427766D01*
X01467766D01*
X01466750Y02428782D01*
X01465734Y02427766D01*
X01464718D01*
X01465734Y02426750D01*
X01464718Y02425734D01*
X01465734D01*
X01466750Y02424718D01*
Y02425734D02*
X01467258Y02426242D01*
X01467766D01*
X01467258Y02426750D01*
X01467766Y02427258D01*
X01467258D01*
X01466750Y02427766D01*
X01466242Y02427258D01*
X01465734D01*
X01466242Y02426750D01*
X01465734Y02426242D01*
X01466242D01*
X01466750Y02425734D01*
X01438750Y02453968D02*
X01439766Y02454984D01*
X01440782D01*
X01439766Y02456000D01*
X01440782Y02457016D01*
X01439766D01*
X01438750Y02458032D01*
X01437734Y02457016D01*
X01436718D01*
X01437734Y02456000D01*
X01436718Y02454984D01*
X01437734D01*
X01438750Y02453968D01*
Y02454984D02*
X01439258Y02455492D01*
X01439766D01*
X01439258Y02456000D01*
X01439766Y02456508D01*
X01439258D01*
X01438750Y02457016D01*
X01438242Y02456508D01*
X01437734D01*
X01438242Y02456000D01*
X01437734Y02455492D01*
X01438242D01*
X01438750Y02454984D01*
X01410500Y02482468D02*
X01411516Y02483484D01*
X01412532D01*
X01411516Y02484500D01*
X01412532Y02485516D01*
X01411516D01*
X01410500Y02486532D01*
X01409484Y02485516D01*
X01408468D01*
X01409484Y02484500D01*
X01408468Y02483484D01*
X01409484D01*
X01410500Y02482468D01*
Y02483484D02*
X01411008Y02483992D01*
X01411516D01*
X01411008Y02484500D01*
X01411516Y02485008D01*
X01411008D01*
X01410500Y02485516D01*
X01409992Y02485008D01*
X01409484D01*
X01409992Y02484500D01*
X01409484Y02483992D01*
X01409992D01*
X01410500Y02483484D01*
X01382000Y02510468D02*
X01383016Y02511484D01*
X01384032D01*
X01383016Y02512500D01*
X01384032Y02513516D01*
X01383016D01*
X01382000Y02514532D01*
X01380984Y02513516D01*
X01379968D01*
X01380984Y02512500D01*
X01379968Y02511484D01*
X01380984D01*
X01382000Y02510468D01*
Y02511484D02*
X01382508Y02511992D01*
X01383016D01*
X01382508Y02512500D01*
X01383016Y02513008D01*
X01382508D01*
X01382000Y02513516D01*
X01381492Y02513008D01*
X01380984D01*
X01381492Y02512500D01*
X01380984Y02511992D01*
X01381492D01*
X01382000Y02511484D01*
X01353500Y02538718D02*
X01354516Y02539734D01*
X01355532D01*
X01354516Y02540750D01*
X01355532Y02541766D01*
X01354516D01*
X01353500Y02542782D01*
X01352484Y02541766D01*
X01351468D01*
X01352484Y02540750D01*
X01351468Y02539734D01*
X01352484D01*
X01353500Y02538718D01*
Y02539734D02*
X01354008Y02540242D01*
X01354516D01*
X01354008Y02540750D01*
X01354516Y02541258D01*
X01354008D01*
X01353500Y02541766D01*
X01352992Y02541258D01*
X01352484D01*
X01352992Y02540750D01*
X01352484Y02540242D01*
X01352992D01*
X01353500Y02539734D01*
X01324750Y02566218D02*
X01325766Y02567234D01*
X01326782D01*
X01325766Y02568250D01*
X01326782Y02569266D01*
X01325766D01*
X01324750Y02570282D01*
X01323734Y02569266D01*
X01322718D01*
X01323734Y02568250D01*
X01322718Y02567234D01*
X01323734D01*
X01324750Y02566218D01*
Y02567234D02*
X01325258Y02567742D01*
X01325766D01*
X01325258Y02568250D01*
X01325766Y02568758D01*
X01325258D01*
X01324750Y02569266D01*
X01324242Y02568758D01*
X01323734D01*
X01324242Y02568250D01*
X01323734Y02567742D01*
X01324242D01*
X01324750Y02567234D01*
X01296250Y02594718D02*
X01297266Y02595734D01*
X01298282D01*
X01297266Y02596750D01*
X01298282Y02597766D01*
X01297266D01*
X01296250Y02598782D01*
X01295234Y02597766D01*
X01294218D01*
X01295234Y02596750D01*
X01294218Y02595734D01*
X01295234D01*
X01296250Y02594718D01*
Y02595734D02*
X01296758Y02596242D01*
X01297266D01*
X01296758Y02596750D01*
X01297266Y02597258D01*
X01296758D01*
X01296250Y02597766D01*
X01295742Y02597258D01*
X01295234D01*
X01295742Y02596750D01*
X01295234Y02596242D01*
X01295742D01*
X01296250Y02595734D01*
X01267250Y02623468D02*
X01268266Y02624484D01*
X01269282D01*
X01268266Y02625500D01*
X01269282Y02626516D01*
X01268266D01*
X01267250Y02627532D01*
X01266234Y02626516D01*
X01265218D01*
X01266234Y02625500D01*
X01265218Y02624484D01*
X01266234D01*
X01267250Y02623468D01*
Y02624484D02*
X01267758Y02624992D01*
X01268266D01*
X01267758Y02625500D01*
X01268266Y02626008D01*
X01267758D01*
X01267250Y02626516D01*
X01266742Y02626008D01*
X01266234D01*
X01266742Y02625500D01*
X01266234Y02624992D01*
X01266742D01*
X01267250Y02624484D01*
X01234250Y02646968D02*
X01235266Y02647984D01*
X01236282D01*
X01235266Y02649000D01*
X01236282Y02650016D01*
X01235266D01*
X01234250Y02651032D01*
X01233234Y02650016D01*
X01232218D01*
X01233234Y02649000D01*
X01232218Y02647984D01*
X01233234D01*
X01234250Y02646968D01*
Y02647984D02*
X01234758Y02648492D01*
X01235266D01*
X01234758Y02649000D01*
X01235266Y02649508D01*
X01234758D01*
X01234250Y02650016D01*
X01233742Y02649508D01*
X01233234D01*
X01233742Y02649000D01*
X01233234Y02648492D01*
X01233742D01*
X01234250Y02647984D01*
X01122500Y02417968D02*
X01123516Y02418984D01*
X01124532D01*
X01123516Y02420000D01*
X01124532Y02421016D01*
X01123516D01*
X01122500Y02422032D01*
X01121484Y02421016D01*
X01120468D01*
X01121484Y02420000D01*
X01120468Y02418984D01*
X01121484D01*
X01122500Y02417968D01*
Y02418984D02*
X01123008Y02419492D01*
X01123516D01*
X01123008Y02420000D01*
X01123516Y02420508D01*
X01123008D01*
X01122500Y02421016D01*
X01121992Y02420508D01*
X01121484D01*
X01121992Y02420000D01*
X01121484Y02419492D01*
X01121992D01*
X01122500Y02418984D01*
X01090250Y02393468D02*
X01091266Y02394484D01*
X01092282D01*
X01091266Y02395500D01*
X01092282Y02396516D01*
X01091266D01*
X01090250Y02397532D01*
X01089234Y02396516D01*
X01088218D01*
X01089234Y02395500D01*
X01088218Y02394484D01*
X01089234D01*
X01090250Y02393468D01*
Y02394484D02*
X01090758Y02394992D01*
X01091266D01*
X01090758Y02395500D01*
X01091266Y02396008D01*
X01090758D01*
X01090250Y02396516D01*
X01089742Y02396008D01*
X01089234D01*
X01089742Y02395500D01*
X01089234Y02394992D01*
X01089742D01*
X01090250Y02394484D01*
X01132000Y02456968D02*
X01133016Y02457984D01*
X01134032D01*
X01133016Y02459000D01*
X01134032Y02460016D01*
X01133016D01*
X01132000Y02461032D01*
X01130984Y02460016D01*
X01129968D01*
X01130984Y02459000D01*
X01129968Y02457984D01*
X01130984D01*
X01132000Y02456968D01*
Y02457984D02*
X01132508Y02458492D01*
X01133016D01*
X01132508Y02459000D01*
X01133016Y02459508D01*
X01132508D01*
X01132000Y02460016D01*
X01131492Y02459508D01*
X01130984D01*
X01131492Y02459000D01*
X01130984Y02458492D01*
X01131492D01*
X01132000Y02457984D01*
X01169750Y02496968D02*
X01170766Y02497984D01*
X01171782D01*
X01170766Y02499000D01*
X01171782Y02500016D01*
X01170766D01*
X01169750Y02501032D01*
X01168734Y02500016D01*
X01167718D01*
X01168734Y02499000D01*
X01167718Y02497984D01*
X01168734D01*
X01169750Y02496968D01*
Y02497984D02*
X01170258Y02498492D01*
X01170766D01*
X01170258Y02499000D01*
X01170766Y02499508D01*
X01170258D01*
X01169750Y02500016D01*
X01169242Y02499508D01*
X01168734D01*
X01169242Y02499000D01*
X01168734Y02498492D01*
X01169242D01*
X01169750Y02497984D01*
X01132000Y02496968D02*
X01133016Y02497984D01*
X01134032D01*
X01133016Y02499000D01*
X01134032Y02500016D01*
X01133016D01*
X01132000Y02501032D01*
X01130984Y02500016D01*
X01129968D01*
X01130984Y02499000D01*
X01129968Y02497984D01*
X01130984D01*
X01132000Y02496968D01*
Y02497984D02*
X01132508Y02498492D01*
X01133016D01*
X01132508Y02499000D01*
X01133016Y02499508D01*
X01132508D01*
X01132000Y02500016D01*
X01131492Y02499508D01*
X01130984D01*
X01131492Y02499000D01*
X01130984Y02498492D01*
X01131492D01*
X01132000Y02497984D01*
X01102250Y02526718D02*
X01103266Y02527734D01*
X01104282D01*
X01103266Y02528750D01*
X01104282Y02529766D01*
X01103266D01*
X01102250Y02530782D01*
X01101234Y02529766D01*
X01100218D01*
X01101234Y02528750D01*
X01100218Y02527734D01*
X01101234D01*
X01102250Y02526718D01*
Y02527734D02*
X01102758Y02528242D01*
X01103266D01*
X01102758Y02528750D01*
X01103266Y02529258D01*
X01102758D01*
X01102250Y02529766D01*
X01101742Y02529258D01*
X01101234D01*
X01101742Y02528750D01*
X01101234Y02528242D01*
X01101742D01*
X01102250Y02527734D01*
X01073750Y02555218D02*
X01074766Y02556234D01*
X01075782D01*
X01074766Y02557250D01*
X01075782Y02558266D01*
X01074766D01*
X01073750Y02559282D01*
X01072734Y02558266D01*
X01071718D01*
X01072734Y02557250D01*
X01071718Y02556234D01*
X01072734D01*
X01073750Y02555218D01*
Y02556234D02*
X01074258Y02556742D01*
X01074766D01*
X01074258Y02557250D01*
X01074766Y02557758D01*
X01074258D01*
X01073750Y02558266D01*
X01073242Y02557758D01*
X01072734D01*
X01073242Y02557250D01*
X01072734Y02556742D01*
X01073242D01*
X01073750Y02556234D01*
X01045750Y02583468D02*
X01046766Y02584484D01*
X01047782D01*
X01046766Y02585500D01*
X01047782Y02586516D01*
X01046766D01*
X01045750Y02587532D01*
X01044734Y02586516D01*
X01043718D01*
X01044734Y02585500D01*
X01043718Y02584484D01*
X01044734D01*
X01045750Y02583468D01*
Y02584484D02*
X01046258Y02584992D01*
X01046766D01*
X01046258Y02585500D01*
X01046766Y02586008D01*
X01046258D01*
X01045750Y02586516D01*
X01045242Y02586008D01*
X01044734D01*
X01045242Y02585500D01*
X01044734Y02584992D01*
X01045242D01*
X01045750Y02584484D01*
X01005500Y02586468D02*
X01006516Y02587484D01*
X01007532D01*
X01006516Y02588500D01*
X01007532Y02589516D01*
X01006516D01*
X01005500Y02590532D01*
X01004484Y02589516D01*
X01003468D01*
X01004484Y02588500D01*
X01003468Y02587484D01*
X01004484D01*
X01005500Y02586468D01*
Y02587484D02*
X01006008Y02587992D01*
X01006516D01*
X01006008Y02588500D01*
X01006516Y02589008D01*
X01006008D01*
X01005500Y02589516D01*
X01004992Y02589008D01*
X01004484D01*
X01004992Y02588500D01*
X01004484Y02587992D01*
X01004992D01*
X01005500Y02587484D01*
X00965000Y02586468D02*
X00966016Y02587484D01*
X00967032D01*
X00966016Y02588500D01*
X00967032Y02589516D01*
X00966016D01*
X00965000Y02590532D01*
X00963984Y02589516D01*
X00962968D01*
X00963984Y02588500D01*
X00962968Y02587484D01*
X00963984D01*
X00965000Y02586468D01*
Y02587484D02*
X00965508Y02587992D01*
X00966016D01*
X00965508Y02588500D01*
X00966016Y02589008D01*
X00965508D01*
X00965000Y02589516D01*
X00964492Y02589008D01*
X00963984D01*
X00964492Y02588500D01*
X00963984Y02587992D01*
X00964492D01*
X00965000Y02587484D01*
X01145000Y02579468D02*
X01146016Y02580484D01*
X01147032D01*
X01146016Y02581500D01*
X01147032Y02582516D01*
X01146016D01*
X01145000Y02583532D01*
X01143984Y02582516D01*
X01142968D01*
X01143984Y02581500D01*
X01142968Y02580484D01*
X01143984D01*
X01145000Y02579468D01*
Y02580484D02*
X01145508Y02580992D01*
X01146016D01*
X01145508Y02581500D01*
X01146016Y02582008D01*
X01145508D01*
X01145000Y02582516D01*
X01144492Y02582008D01*
X01143984D01*
X01144492Y02581500D01*
X01143984Y02580992D01*
X01144492D01*
X01145000Y02580484D01*
X01116500Y02608218D02*
X01117516Y02609234D01*
X01118532D01*
X01117516Y02610250D01*
X01118532Y02611266D01*
X01117516D01*
X01116500Y02612282D01*
X01115484Y02611266D01*
X01114468D01*
X01115484Y02610250D01*
X01114468Y02609234D01*
X01115484D01*
X01116500Y02608218D01*
Y02609234D02*
X01117008Y02609742D01*
X01117516D01*
X01117008Y02610250D01*
X01117516Y02610758D01*
X01117008D01*
X01116500Y02611266D01*
X01115992Y02610758D01*
X01115484D01*
X01115992Y02610250D01*
X01115484Y02609742D01*
X01115992D01*
X01116500Y02609234D01*
X01088500Y02636968D02*
X01089516Y02637984D01*
X01090532D01*
X01089516Y02639000D01*
X01090532Y02640016D01*
X01089516D01*
X01088500Y02641032D01*
X01087484Y02640016D01*
X01086468D01*
X01087484Y02639000D01*
X01086468Y02637984D01*
X01087484D01*
X01088500Y02636968D01*
Y02637984D02*
X01089008Y02638492D01*
X01089516D01*
X01089008Y02639000D01*
X01089516Y02639508D01*
X01089008D01*
X01088500Y02640016D01*
X01087992Y02639508D01*
X01087484D01*
X01087992Y02639000D01*
X01087484Y02638492D01*
X01087992D01*
X01088500Y02637984D01*
X01057500Y02662718D02*
X01058516Y02663734D01*
X01059532D01*
X01058516Y02664750D01*
X01059532Y02665766D01*
X01058516D01*
X01057500Y02666782D01*
X01056484Y02665766D01*
X01055468D01*
X01056484Y02664750D01*
X01055468Y02663734D01*
X01056484D01*
X01057500Y02662718D01*
Y02663734D02*
X01058008Y02664242D01*
X01058516D01*
X01058008Y02664750D01*
X01058516Y02665258D01*
X01058008D01*
X01057500Y02665766D01*
X01056992Y02665258D01*
X01056484D01*
X01056992Y02664750D01*
X01056484Y02664242D01*
X01056992D01*
X01057500Y02663734D01*
X01017000Y02662718D02*
X01018016Y02663734D01*
X01019032D01*
X01018016Y02664750D01*
X01019032Y02665766D01*
X01018016D01*
X01017000Y02666782D01*
X01015984Y02665766D01*
X01014968D01*
X01015984Y02664750D01*
X01014968Y02663734D01*
X01015984D01*
X01017000Y02662718D01*
Y02663734D02*
X01017508Y02664242D01*
X01018016D01*
X01017508Y02664750D01*
X01018016Y02665258D01*
X01017508D01*
X01017000Y02665766D01*
X01016492Y02665258D01*
X01015984D01*
X01016492Y02664750D01*
X01015984Y02664242D01*
X01016492D01*
X01017000Y02663734D01*
X00977000Y02662718D02*
X00978016Y02663734D01*
X00979032D01*
X00978016Y02664750D01*
X00979032Y02665766D01*
X00978016D01*
X00977000Y02666782D01*
X00975984Y02665766D01*
X00974968D01*
X00975984Y02664750D01*
X00974968Y02663734D01*
X00975984D01*
X00977000Y02662718D01*
Y02663734D02*
X00977508Y02664242D01*
X00978016D01*
X00977508Y02664750D01*
X00978016Y02665258D01*
X00977508D01*
X00977000Y02665766D01*
X00976492Y02665258D01*
X00975984D01*
X00976492Y02664750D01*
X00975984Y02664242D01*
X00976492D01*
X00977000Y02663734D01*
X00936500Y02662718D02*
X00937516Y02663734D01*
X00938532D01*
X00937516Y02664750D01*
X00938532Y02665766D01*
X00937516D01*
X00936500Y02666782D01*
X00935484Y02665766D01*
X00934468D01*
X00935484Y02664750D01*
X00934468Y02663734D01*
X00935484D01*
X00936500Y02662718D01*
Y02663734D02*
X00937008Y02664242D01*
X00937516D01*
X00937008Y02664750D01*
X00937516Y02665258D01*
X00937008D01*
X00936500Y02665766D01*
X00935992Y02665258D01*
X00935484D01*
X00935992Y02664750D01*
X00935484Y02664242D01*
X00935992D01*
X00936500Y02663734D01*
X00856750Y02662218D02*
X00857766Y02663234D01*
X00858782D01*
X00857766Y02664250D01*
X00858782Y02665266D01*
X00857766D01*
X00856750Y02666282D01*
X00855734Y02665266D01*
X00854718D01*
X00855734Y02664250D01*
X00854718Y02663234D01*
X00855734D01*
X00856750Y02662218D01*
Y02663234D02*
X00857258Y02663742D01*
X00857766D01*
X00857258Y02664250D01*
X00857766Y02664758D01*
X00857258D01*
X00856750Y02665266D01*
X00856242Y02664758D01*
X00855734D01*
X00856242Y02664250D01*
X00855734Y02663742D01*
X00856242D01*
X00856750Y02663234D01*
X00896500Y02662718D02*
X00897516Y02663734D01*
X00898532D01*
X00897516Y02664750D01*
X00898532Y02665766D01*
X00897516D01*
X00896500Y02666782D01*
X00895484Y02665766D01*
X00894468D01*
X00895484Y02664750D01*
X00894468Y02663734D01*
X00895484D01*
X00896500Y02662718D01*
Y02663734D02*
X00897008Y02664242D01*
X00897516D01*
X00897008Y02664750D01*
X00897516Y02665258D01*
X00897008D01*
X00896500Y02665766D01*
X00895992Y02665258D01*
X00895484D01*
X00895992Y02664750D01*
X00895484Y02664242D01*
X00895992D01*
X00896500Y02663734D01*
X00824000Y02638968D02*
X00825016Y02639984D01*
X00826032D01*
X00825016Y02641000D01*
X00826032Y02642016D01*
X00825016D01*
X00824000Y02643032D01*
X00822984Y02642016D01*
X00821968D01*
X00822984Y02641000D01*
X00821968Y02639984D01*
X00822984D01*
X00824000Y02638968D01*
Y02639984D02*
X00824508Y02640492D01*
X00825016D01*
X00824508Y02641000D01*
X00825016Y02641508D01*
X00824508D01*
X00824000Y02642016D01*
X00823492Y02641508D01*
X00822984D01*
X00823492Y02641000D01*
X00822984Y02640492D01*
X00823492D01*
X00824000Y02639984D01*
Y02598718D02*
X00825016Y02599734D01*
X00826032D01*
X00825016Y02600750D01*
X00826032Y02601766D01*
X00825016D01*
X00824000Y02602782D01*
X00822984Y02601766D01*
X00821968D01*
X00822984Y02600750D01*
X00821968Y02599734D01*
X00822984D01*
X00824000Y02598718D01*
Y02599734D02*
X00824508Y02600242D01*
X00825016D01*
X00824508Y02600750D01*
X00825016Y02601258D01*
X00824508D01*
X00824000Y02601766D01*
X00823492Y02601258D01*
X00822984D01*
X00823492Y02600750D01*
X00822984Y02600242D01*
X00823492D01*
X00824000Y02599734D01*
X00454750Y02538718D02*
X00455766Y02539734D01*
X00456782D01*
X00455766Y02540750D01*
X00456782Y02541766D01*
X00455766D01*
X00454750Y02542782D01*
X00453734Y02541766D01*
X00452718D01*
X00453734Y02540750D01*
X00452718Y02539734D01*
X00453734D01*
X00454750Y02538718D01*
Y02539734D02*
X00455258Y02540242D01*
X00455766D01*
X00455258Y02540750D01*
X00455766Y02541258D01*
X00455258D01*
X00454750Y02541766D01*
X00454242Y02541258D01*
X00453734D01*
X00454242Y02540750D01*
X00453734Y02540242D01*
X00454242D01*
X00454750Y02539734D01*
X00430500Y02512218D02*
X00431516Y02513234D01*
X00432532D01*
X00431516Y02514250D01*
X00432532Y02515266D01*
X00431516D01*
X00430500Y02516282D01*
X00429484Y02515266D01*
X00428468D01*
X00429484Y02514250D01*
X00428468Y02513234D01*
X00429484D01*
X00430500Y02512218D01*
Y02513234D02*
X00431008Y02513742D01*
X00431516D01*
X00431008Y02514250D01*
X00431516Y02514758D01*
X00431008D01*
X00430500Y02515266D01*
X00429992Y02514758D01*
X00429484D01*
X00429992Y02514250D01*
X00429484Y02513742D01*
X00429992D01*
X00430500Y02513234D01*
X00377750Y02483218D02*
X00378766Y02484234D01*
X00379782D01*
X00378766Y02485250D01*
X00379782Y02486266D01*
X00378766D01*
X00377750Y02487282D01*
X00376734Y02486266D01*
X00375718D01*
X00376734Y02485250D01*
X00375718Y02484234D01*
X00376734D01*
X00377750Y02483218D01*
Y02484234D02*
X00378258Y02484742D01*
X00378766D01*
X00378258Y02485250D01*
X00378766Y02485758D01*
X00378258D01*
X00377750Y02486266D01*
X00377242Y02485758D01*
X00376734D01*
X00377242Y02485250D01*
X00376734Y02484742D01*
X00377242D01*
X00377750Y02484234D01*
X00343000Y02501468D02*
X00344016Y02502484D01*
X00345032D01*
X00344016Y02503500D01*
X00345032Y02504516D01*
X00344016D01*
X00343000Y02505532D01*
X00341984Y02504516D01*
X00340968D01*
X00341984Y02503500D01*
X00340968Y02502484D01*
X00341984D01*
X00343000Y02501468D01*
Y02502484D02*
X00343508Y02502992D01*
X00344016D01*
X00343508Y02503500D01*
X00344016Y02504008D01*
X00343508D01*
X00343000Y02504516D01*
X00342492Y02504008D01*
X00341984D01*
X00342492Y02503500D01*
X00341984Y02502992D01*
X00342492D01*
X00343000Y02502484D01*
X00315250Y02530218D02*
X00316266Y02531234D01*
X00317282D01*
X00316266Y02532250D01*
X00317282Y02533266D01*
X00316266D01*
X00315250Y02534282D01*
X00314234Y02533266D01*
X00313218D01*
X00314234Y02532250D01*
X00313218Y02531234D01*
X00314234D01*
X00315250Y02530218D01*
Y02531234D02*
X00315758Y02531742D01*
X00316266D01*
X00315758Y02532250D01*
X00316266Y02532758D01*
X00315758D01*
X00315250Y02533266D01*
X00314742Y02532758D01*
X00314234D01*
X00314742Y02532250D01*
X00314234Y02531742D01*
X00314742D01*
X00315250Y02531234D01*
X00315750Y02587218D02*
X00316766Y02588234D01*
X00317782D01*
X00316766Y02589250D01*
X00317782Y02590266D01*
X00316766D01*
X00315750Y02591282D01*
X00314734Y02590266D01*
X00313718D01*
X00314734Y02589250D01*
X00313718Y02588234D01*
X00314734D01*
X00315750Y02587218D01*
Y02588234D02*
X00316258Y02588742D01*
X00316766D01*
X00316258Y02589250D01*
X00316766Y02589758D01*
X00316258D01*
X00315750Y02590266D01*
X00315242Y02589758D01*
X00314734D01*
X00315242Y02589250D01*
X00314734Y02588742D01*
X00315242D01*
X00315750Y02588234D01*
X00342750Y02615218D02*
X00343766Y02616234D01*
X00344782D01*
X00343766Y02617250D01*
X00344782Y02618266D01*
X00343766D01*
X00342750Y02619282D01*
X00341734Y02618266D01*
X00340718D01*
X00341734Y02617250D01*
X00340718Y02616234D01*
X00341734D01*
X00342750Y02615218D01*
Y02616234D02*
X00343258Y02616742D01*
X00343766D01*
X00343258Y02617250D01*
X00343766Y02617758D01*
X00343258D01*
X00342750Y02618266D01*
X00342242Y02617758D01*
X00341734D01*
X00342242Y02617250D01*
X00341734Y02616742D01*
X00342242D01*
X00342750Y02616234D01*
X00113250Y02596968D02*
X00114266Y02597984D01*
X00115282D01*
X00114266Y02599000D01*
X00115282Y02600016D01*
X00114266D01*
X00113250Y02601032D01*
X00112234Y02600016D01*
X00111218D01*
X00112234Y02599000D01*
X00111218Y02597984D01*
X00112234D01*
X00113250Y02596968D01*
Y02597984D02*
X00113758Y02598492D01*
X00114266D01*
X00113758Y02599000D01*
X00114266Y02599508D01*
X00113758D01*
X00113250Y02600016D01*
X00112742Y02599508D01*
X00112234D01*
X00112742Y02599000D01*
X00112234Y02598492D01*
X00112742D01*
X00113250Y02597984D01*
X00088750Y02565218D02*
X00089766Y02566234D01*
X00090782D01*
X00089766Y02567250D01*
X00090782Y02568266D01*
X00089766D01*
X00088750Y02569282D01*
X00087734Y02568266D01*
X00086718D01*
X00087734Y02567250D01*
X00086718Y02566234D01*
X00087734D01*
X00088750Y02565218D01*
Y02566234D02*
X00089258Y02566742D01*
X00089766D01*
X00089258Y02567250D01*
X00089766Y02567758D01*
X00089258D01*
X00088750Y02568266D01*
X00088242Y02567758D01*
X00087734D01*
X00088242Y02567250D01*
X00087734Y02566742D01*
X00088242D01*
X00088750Y02566234D01*
Y02524468D02*
X00089766Y02525484D01*
X00090782D01*
X00089766Y02526500D01*
X00090782Y02527516D01*
X00089766D01*
X00088750Y02528532D01*
X00087734Y02527516D01*
X00086718D01*
X00087734Y02526500D01*
X00086718Y02525484D01*
X00087734D01*
X00088750Y02524468D01*
Y02525484D02*
X00089258Y02525992D01*
X00089766D01*
X00089258Y02526500D01*
X00089766Y02527008D01*
X00089258D01*
X00088750Y02527516D01*
X00088242Y02527008D01*
X00087734D01*
X00088242Y02526500D01*
X00087734Y02525992D01*
X00088242D01*
X00088750Y02525484D01*
X00427000Y02408968D02*
X00428016Y02409984D01*
X00429032D01*
X00428016Y02411000D01*
X00429032Y02412016D01*
X00428016D01*
X00427000Y02413032D01*
X00425984Y02412016D01*
X00424968D01*
X00425984Y02411000D01*
X00424968Y02409984D01*
X00425984D01*
X00427000Y02408968D01*
Y02409984D02*
X00427508Y02410492D01*
X00428016D01*
X00427508Y02411000D01*
X00428016Y02411508D01*
X00427508D01*
X00427000Y02412016D01*
X00426492Y02411508D01*
X00425984D01*
X00426492Y02411000D01*
X00425984Y02410492D01*
X00426492D01*
X00427000Y02409984D01*
X00367250Y02408968D02*
X00368266Y02409984D01*
X00369282D01*
X00368266Y02411000D01*
X00369282Y02412016D01*
X00368266D01*
X00367250Y02413032D01*
X00366234Y02412016D01*
X00365218D01*
X00366234Y02411000D01*
X00365218Y02409984D01*
X00366234D01*
X00367250Y02408968D01*
Y02409984D02*
X00367758Y02410492D01*
X00368266D01*
X00367758Y02411000D01*
X00368266Y02411508D01*
X00367758D01*
X00367250Y02412016D01*
X00366742Y02411508D01*
X00366234D01*
X00366742Y02411000D01*
X00366234Y02410492D01*
X00366742D01*
X00367250Y02409984D01*
X00327000Y02408968D02*
X00328016Y02409984D01*
X00329032D01*
X00328016Y02411000D01*
X00329032Y02412016D01*
X00328016D01*
X00327000Y02413032D01*
X00325984Y02412016D01*
X00324968D01*
X00325984Y02411000D01*
X00324968Y02409984D01*
X00325984D01*
X00327000Y02408968D01*
Y02409984D02*
X00327508Y02410492D01*
X00328016D01*
X00327508Y02411000D01*
X00328016Y02411508D01*
X00327508D01*
X00327000Y02412016D01*
X00326492Y02411508D01*
X00325984D01*
X00326492Y02411000D01*
X00325984Y02410492D01*
X00326492D01*
X00327000Y02409984D01*
X00227000Y02408968D02*
X00228016Y02409984D01*
X00229032D01*
X00228016Y02411000D01*
X00229032Y02412016D01*
X00228016D01*
X00227000Y02413032D01*
X00225984Y02412016D01*
X00224968D01*
X00225984Y02411000D01*
X00224968Y02409984D01*
X00225984D01*
X00227000Y02408968D01*
Y02409984D02*
X00227508Y02410492D01*
X00228016D01*
X00227508Y02411000D01*
X00228016Y02411508D01*
X00227508D01*
X00227000Y02412016D01*
X00226492Y02411508D01*
X00225984D01*
X00226492Y02411000D01*
X00225984Y02410492D01*
X00226492D01*
X00227000Y02409984D01*
X00266250Y02408968D02*
X00267266Y02409984D01*
X00268282D01*
X00267266Y02411000D01*
X00268282Y02412016D01*
X00267266D01*
X00266250Y02413032D01*
X00265234Y02412016D01*
X00264218D01*
X00265234Y02411000D01*
X00264218Y02409984D01*
X00265234D01*
X00266250Y02408968D01*
Y02409984D02*
X00266758Y02410492D01*
X00267266D01*
X00266758Y02411000D01*
X00267266Y02411508D01*
X00266758D01*
X00266250Y02412016D01*
X00265742Y02411508D01*
X00265234D01*
X00265742Y02411000D01*
X00265234Y02410492D01*
X00265742D01*
X00266250Y02409984D01*
X00169000Y02408968D02*
X00170016Y02409984D01*
X00171032D01*
X00170016Y02411000D01*
X00171032Y02412016D01*
X00170016D01*
X00169000Y02413032D01*
X00167984Y02412016D01*
X00166968D01*
X00167984Y02411000D01*
X00166968Y02409984D01*
X00167984D01*
X00169000Y02408968D01*
Y02409984D02*
X00169508Y02410492D01*
X00170016D01*
X00169508Y02411000D01*
X00170016Y02411508D01*
X00169508D01*
X00169000Y02412016D01*
X00168492Y02411508D01*
X00167984D01*
X00168492Y02411000D01*
X00167984Y02410492D01*
X00168492D01*
X00169000Y02409984D01*
X00129000Y02408968D02*
X00130016Y02409984D01*
X00131032D01*
X00130016Y02411000D01*
X00131032Y02412016D01*
X00130016D01*
X00129000Y02413032D01*
X00127984Y02412016D01*
X00126968D01*
X00127984Y02411000D01*
X00126968Y02409984D01*
X00127984D01*
X00129000Y02408968D01*
Y02409984D02*
X00129508Y02410492D01*
X00130016D01*
X00129508Y02411000D01*
X00130016Y02411508D01*
X00129508D01*
X00129000Y02412016D01*
X00128492Y02411508D01*
X00127984D01*
X00128492Y02411000D01*
X00127984Y02410492D01*
X00128492D01*
X00129000Y02409984D01*
X00795000Y02558718D02*
X00796016Y02559734D01*
X00797032D01*
X00796016Y02560750D01*
X00797032Y02561766D01*
X00796016D01*
X00795000Y02562782D01*
X00793984Y02561766D01*
X00792968D01*
X00793984Y02560750D01*
X00792968Y02559734D01*
X00793984D01*
X00795000Y02558718D01*
Y02559734D02*
X00795508Y02560242D01*
X00796016D01*
X00795508Y02560750D01*
X00796016Y02561258D01*
X00795508D01*
X00795000Y02561766D01*
X00794492Y02561258D01*
X00793984D01*
X00794492Y02560750D01*
X00793984Y02560242D01*
X00794492D01*
X00795000Y02559734D01*
X00754500Y02558718D02*
X00755516Y02559734D01*
X00756532D01*
X00755516Y02560750D01*
X00756532Y02561766D01*
X00755516D01*
X00754500Y02562782D01*
X00753484Y02561766D01*
X00752468D01*
X00753484Y02560750D01*
X00752468Y02559734D01*
X00753484D01*
X00754500Y02558718D01*
Y02559734D02*
X00755008Y02560242D01*
X00755516D01*
X00755008Y02560750D01*
X00755516Y02561258D01*
X00755008D01*
X00754500Y02561766D01*
X00753992Y02561258D01*
X00753484D01*
X00753992Y02560750D01*
X00753484Y02560242D01*
X00753992D01*
X00754500Y02559734D01*
X00676000Y02559968D02*
X00677016Y02560984D01*
X00678032D01*
X00677016Y02562000D01*
X00678032Y02563016D01*
X00677016D01*
X00676000Y02564032D01*
X00674984Y02563016D01*
X00673968D01*
X00674984Y02562000D01*
X00673968Y02560984D01*
X00674984D01*
X00676000Y02559968D01*
Y02560984D02*
X00676508Y02561492D01*
X00677016D01*
X00676508Y02562000D01*
X00677016Y02562508D01*
X00676508D01*
X00676000Y02563016D01*
X00675492Y02562508D01*
X00674984D01*
X00675492Y02562000D01*
X00674984Y02561492D01*
X00675492D01*
X00676000Y02560984D01*
X00635750Y02559968D02*
X00636766Y02560984D01*
X00637782D01*
X00636766Y02562000D01*
X00637782Y02563016D01*
X00636766D01*
X00635750Y02564032D01*
X00634734Y02563016D01*
X00633718D01*
X00634734Y02562000D01*
X00633718Y02560984D01*
X00634734D01*
X00635750Y02559968D01*
Y02560984D02*
X00636258Y02561492D01*
X00636766D01*
X00636258Y02562000D01*
X00636766Y02562508D01*
X00636258D01*
X00635750Y02563016D01*
X00635242Y02562508D01*
X00634734D01*
X00635242Y02562000D01*
X00634734Y02561492D01*
X00635242D01*
X00635750Y02560984D01*
X00602500Y02536968D02*
X00603516Y02537984D01*
X00604532D01*
X00603516Y02539000D01*
X00604532Y02540016D01*
X00603516D01*
X00602500Y02541032D01*
X00601484Y02540016D01*
X00600468D01*
X00601484Y02539000D01*
X00600468Y02537984D01*
X00601484D01*
X00602500Y02536968D01*
Y02537984D02*
X00603008Y02538492D01*
X00603516D01*
X00603008Y02539000D01*
X00603516Y02539508D01*
X00603008D01*
X00602500Y02540016D01*
X00601992Y02539508D01*
X00601484D01*
X00601992Y02539000D01*
X00601484Y02538492D01*
X00601992D01*
X00602500Y02537984D01*
X00573500Y02508468D02*
X00574516Y02509484D01*
X00575532D01*
X00574516Y02510500D01*
X00575532Y02511516D01*
X00574516D01*
X00573500Y02512532D01*
X00572484Y02511516D01*
X00571468D01*
X00572484Y02510500D01*
X00571468Y02509484D01*
X00572484D01*
X00573500Y02508468D01*
Y02509484D02*
X00574008Y02509992D01*
X00574516D01*
X00574008Y02510500D01*
X00574516Y02511008D01*
X00574008D01*
X00573500Y02511516D01*
X00572992Y02511008D01*
X00572484D01*
X00572992Y02510500D01*
X00572484Y02509992D01*
X00572992D01*
X00573500Y02509484D01*
X00543250Y02479718D02*
X00544266Y02480734D01*
X00545282D01*
X00544266Y02481750D01*
X00545282Y02482766D01*
X00544266D01*
X00543250Y02483782D01*
X00542234Y02482766D01*
X00541218D01*
X00542234Y02481750D01*
X00541218Y02480734D01*
X00542234D01*
X00543250Y02479718D01*
Y02480734D02*
X00543758Y02481242D01*
X00544266D01*
X00543758Y02481750D01*
X00544266Y02482258D01*
X00543758D01*
X00543250Y02482766D01*
X00542742Y02482258D01*
X00542234D01*
X00542742Y02481750D01*
X00542234Y02481242D01*
X00542742D01*
X00543250Y02480734D01*
X00523000Y02444718D02*
X00524016Y02445734D01*
X00525032D01*
X00524016Y02446750D01*
X00525032Y02447766D01*
X00524016D01*
X00523000Y02448782D01*
X00521984Y02447766D01*
X00520968D01*
X00521984Y02446750D01*
X00520968Y02445734D01*
X00521984D01*
X00523000Y02444718D01*
Y02445734D02*
X00523508Y02446242D01*
X00524016D01*
X00523508Y02446750D01*
X00524016Y02447258D01*
X00523508D01*
X00523000Y02447766D01*
X00522492Y02447258D01*
X00521984D01*
X00522492Y02446750D01*
X00521984Y02446242D01*
X00522492D01*
X00523000Y02445734D01*
Y02404718D02*
X00524016Y02405734D01*
X00525032D01*
X00524016Y02406750D01*
X00525032Y02407766D01*
X00524016D01*
X00523000Y02408782D01*
X00521984Y02407766D01*
X00520968D01*
X00521984Y02406750D01*
X00520968Y02405734D01*
X00521984D01*
X00523000Y02404718D01*
Y02405734D02*
X00523508Y02406242D01*
X00524016D01*
X00523508Y02406750D01*
X00524016Y02407258D01*
X00523508D01*
X00523000Y02407766D01*
X00522492Y02407258D01*
X00521984D01*
X00522492Y02406750D01*
X00521984Y02406242D01*
X00522492D01*
X00523000Y02405734D01*
Y02363968D02*
X00524016Y02364984D01*
X00525032D01*
X00524016Y02366000D01*
X00525032Y02367016D01*
X00524016D01*
X00523000Y02368032D01*
X00521984Y02367016D01*
X00520968D01*
X00521984Y02366000D01*
X00520968Y02364984D01*
X00521984D01*
X00523000Y02363968D01*
Y02364984D02*
X00523508Y02365492D01*
X00524016D01*
X00523508Y02366000D01*
X00524016Y02366508D01*
X00523508D01*
X00523000Y02367016D01*
X00522492Y02366508D01*
X00521984D01*
X00522492Y02366000D01*
X00521984Y02365492D01*
X00522492D01*
X00523000Y02364984D01*
X00513367Y02324831D02*
X00514383Y02325847D01*
X00515399D01*
X00514383Y02326863D01*
X00515399Y02327879D01*
X00514383D01*
X00513367Y02328895D01*
X00512351Y02327879D01*
X00511335D01*
X00512351Y02326863D01*
X00511335Y02325847D01*
X00512351D01*
X00513367Y02324831D01*
Y02325847D02*
X00513875Y02326355D01*
X00514383D01*
X00513875Y02326863D01*
X00514383Y02327371D01*
X00513875D01*
X00513367Y02327879D01*
X00512859Y02327371D01*
X00512351D01*
X00512859Y02326863D01*
X00512351Y02326355D01*
X00512859D01*
X00513367Y02325847D01*
X00474250Y02315718D02*
X00475266Y02316734D01*
X00476282D01*
X00475266Y02317750D01*
X00476282Y02318766D01*
X00475266D01*
X00474250Y02319782D01*
X00473234Y02318766D01*
X00472218D01*
X00473234Y02317750D01*
X00472218Y02316734D01*
X00473234D01*
X00474250Y02315718D01*
Y02316734D02*
X00474758Y02317242D01*
X00475266D01*
X00474758Y02317750D01*
X00475266Y02318258D01*
X00474758D01*
X00474250Y02318766D01*
X00473742Y02318258D01*
X00473234D01*
X00473742Y02317750D01*
X00473234Y02317242D01*
X00473742D01*
X00474250Y02316734D01*
X00232500Y02315718D02*
X00233516Y02316734D01*
X00234532D01*
X00233516Y02317750D01*
X00234532Y02318766D01*
X00233516D01*
X00232500Y02319782D01*
X00231484Y02318766D01*
X00230468D01*
X00231484Y02317750D01*
X00230468Y02316734D01*
X00231484D01*
X00232500Y02315718D01*
Y02316734D02*
X00233008Y02317242D01*
X00233516D01*
X00233008Y02317750D01*
X00233516Y02318258D01*
X00233008D01*
X00232500Y02318766D01*
X00231992Y02318258D01*
X00231484D01*
X00231992Y02317750D01*
X00231484Y02317242D01*
X00231992D01*
X00232500Y02316734D01*
X00272755Y02315718D02*
X00273771Y02316734D01*
X00274787D01*
X00273771Y02317750D01*
X00274787Y02318766D01*
X00273771D01*
X00272755Y02319782D01*
X00271739Y02318766D01*
X00270723D01*
X00271739Y02317750D01*
X00270723Y02316734D01*
X00271739D01*
X00272755Y02315718D01*
Y02316734D02*
X00273263Y02317242D01*
X00273771D01*
X00273263Y02317750D01*
X00273771Y02318258D01*
X00273263D01*
X00272755Y02318766D01*
X00272247Y02318258D01*
X00271739D01*
X00272247Y02317750D01*
X00271739Y02317242D01*
X00272247D01*
X00272755Y02316734D01*
X00313255Y02315718D02*
X00314271Y02316734D01*
X00315287D01*
X00314271Y02317750D01*
X00315287Y02318766D01*
X00314271D01*
X00313255Y02319782D01*
X00312239Y02318766D01*
X00311223D01*
X00312239Y02317750D01*
X00311223Y02316734D01*
X00312239D01*
X00313255Y02315718D01*
Y02316734D02*
X00313763Y02317242D01*
X00314271D01*
X00313763Y02317750D01*
X00314271Y02318258D01*
X00313763D01*
X00313255Y02318766D01*
X00312747Y02318258D01*
X00312239D01*
X00312747Y02317750D01*
X00312239Y02317242D01*
X00312747D01*
X00313255Y02316734D01*
X00353792Y02315718D02*
X00354808Y02316734D01*
X00355824D01*
X00354808Y02317750D01*
X00355824Y02318766D01*
X00354808D01*
X00353792Y02319782D01*
X00352776Y02318766D01*
X00351760D01*
X00352776Y02317750D01*
X00351760Y02316734D01*
X00352776D01*
X00353792Y02315718D01*
Y02316734D02*
X00354300Y02317242D01*
X00354808D01*
X00354300Y02317750D01*
X00354808Y02318258D01*
X00354300D01*
X00353792Y02318766D01*
X00353284Y02318258D01*
X00352776D01*
X00353284Y02317750D01*
X00352776Y02317242D01*
X00353284D01*
X00353792Y02316734D01*
X00394755Y02315718D02*
X00395771Y02316734D01*
X00396787D01*
X00395771Y02317750D01*
X00396787Y02318766D01*
X00395771D01*
X00394755Y02319782D01*
X00393739Y02318766D01*
X00392723D01*
X00393739Y02317750D01*
X00392723Y02316734D01*
X00393739D01*
X00394755Y02315718D01*
Y02316734D02*
X00395263Y02317242D01*
X00395771D01*
X00395263Y02317750D01*
X00395771Y02318258D01*
X00395263D01*
X00394755Y02318766D01*
X00394247Y02318258D01*
X00393739D01*
X00394247Y02317750D01*
X00393739Y02317242D01*
X00394247D01*
X00394755Y02316734D01*
X00434255Y02315718D02*
X00435271Y02316734D01*
X00436287D01*
X00435271Y02317750D01*
X00436287Y02318766D01*
X00435271D01*
X00434255Y02319782D01*
X00433239Y02318766D01*
X00432223D01*
X00433239Y02317750D01*
X00432223Y02316734D01*
X00433239D01*
X00434255Y02315718D01*
Y02316734D02*
X00434763Y02317242D01*
X00435271D01*
X00434763Y02317750D01*
X00435271Y02318258D01*
X00434763D01*
X00434255Y02318766D01*
X00433747Y02318258D01*
X00433239D01*
X00433747Y02317750D01*
X00433239Y02317242D01*
X00433747D01*
X00434255Y02316734D01*
X00192250Y02315718D02*
X00193266Y02316734D01*
X00194282D01*
X00193266Y02317750D01*
X00194282Y02318766D01*
X00193266D01*
X00192250Y02319782D01*
X00191234Y02318766D01*
X00190218D01*
X00191234Y02317750D01*
X00190218Y02316734D01*
X00191234D01*
X00192250Y02315718D01*
Y02316734D02*
X00192758Y02317242D01*
X00193266D01*
X00192758Y02317750D01*
X00193266Y02318258D01*
X00192758D01*
X00192250Y02318766D01*
X00191742Y02318258D01*
X00191234D01*
X00191742Y02317750D01*
X00191234Y02317242D01*
X00191742D01*
X00192250Y02316734D01*
X00162750Y02288718D02*
X00163766Y02289734D01*
X00164782D01*
X00163766Y02290750D01*
X00164782Y02291766D01*
X00163766D01*
X00162750Y02292782D01*
X00161734Y02291766D01*
X00160718D01*
X00161734Y02290750D01*
X00160718Y02289734D01*
X00161734D01*
X00162750Y02288718D01*
Y02289734D02*
X00163258Y02290242D01*
X00163766D01*
X00163258Y02290750D01*
X00163766Y02291258D01*
X00163258D01*
X00162750Y02291766D01*
X00162242Y02291258D01*
X00161734D01*
X00162242Y02290750D01*
X00161734Y02290242D01*
X00162242D01*
X00162750Y02289734D01*
X00881000Y02351468D02*
X00882016Y02352484D01*
X00883032D01*
X00882016Y02353500D01*
X00883032Y02354516D01*
X00882016D01*
X00881000Y02355532D01*
X00879984Y02354516D01*
X00878968D01*
X00879984Y02353500D01*
X00878968Y02352484D01*
X00879984D01*
X00881000Y02351468D01*
Y02352484D02*
X00881508Y02352992D01*
X00882016D01*
X00881508Y02353500D01*
X00882016Y02354008D01*
X00881508D01*
X00881000Y02354516D01*
X00880492Y02354008D01*
X00879984D01*
X00880492Y02353500D01*
X00879984Y02352992D01*
X00880492D01*
X00881000Y02352484D01*
X00852000Y02379718D02*
X00853016Y02380734D01*
X00854032D01*
X00853016Y02381750D01*
X00854032Y02382766D01*
X00853016D01*
X00852000Y02383782D01*
X00850984Y02382766D01*
X00849968D01*
X00850984Y02381750D01*
X00849968Y02380734D01*
X00850984D01*
X00852000Y02379718D01*
Y02380734D02*
X00852508Y02381242D01*
X00853016D01*
X00852508Y02381750D01*
X00853016Y02382258D01*
X00852508D01*
X00852000Y02382766D01*
X00851492Y02382258D01*
X00850984D01*
X00851492Y02381750D01*
X00850984Y02381242D01*
X00851492D01*
X00852000Y02380734D01*
X00865750Y02475218D02*
X00866766Y02476234D01*
X00867782D01*
X00866766Y02477250D01*
X00867782Y02478266D01*
X00866766D01*
X00865750Y02479282D01*
X00864734Y02478266D01*
X00863718D01*
X00864734Y02477250D01*
X00863718Y02476234D01*
X00864734D01*
X00865750Y02475218D01*
Y02476234D02*
X00866258Y02476742D01*
X00866766D01*
X00866258Y02477250D01*
X00866766Y02477758D01*
X00866258D01*
X00865750Y02478266D01*
X00865242Y02477758D01*
X00864734D01*
X00865242Y02477250D01*
X00864734Y02476742D01*
X00865242D01*
X00865750Y02476234D01*
X00836750Y02447468D02*
X00837766Y02448484D01*
X00838782D01*
X00837766Y02449500D01*
X00838782Y02450516D01*
X00837766D01*
X00836750Y02451532D01*
X00835734Y02450516D01*
X00834718D01*
X00835734Y02449500D01*
X00834718Y02448484D01*
X00835734D01*
X00836750Y02447468D01*
Y02448484D02*
X00837258Y02448992D01*
X00837766D01*
X00837258Y02449500D01*
X00837766Y02450008D01*
X00837258D01*
X00836750Y02450516D01*
X00836242Y02450008D01*
X00835734D01*
X00836242Y02449500D01*
X00835734Y02448992D01*
X00836242D01*
X00836750Y02448484D01*
X00794250Y02409468D02*
X00795266Y02410484D01*
X00796282D01*
X00795266Y02411500D01*
X00796282Y02412516D01*
X00795266D01*
X00794250Y02413532D01*
X00793234Y02412516D01*
X00792218D01*
X00793234Y02411500D01*
X00792218Y02410484D01*
X00793234D01*
X00794250Y02409468D01*
Y02410484D02*
X00794758Y02410992D01*
X00795266D01*
X00794758Y02411500D01*
X00795266Y02412008D01*
X00794758D01*
X00794250Y02412516D01*
X00793742Y02412008D01*
X00793234D01*
X00793742Y02411500D01*
X00793234Y02410992D01*
X00793742D01*
X00794250Y02410484D01*
X00753250Y02408968D02*
X00754266Y02409984D01*
X00755282D01*
X00754266Y02411000D01*
X00755282Y02412016D01*
X00754266D01*
X00753250Y02413032D01*
X00752234Y02412016D01*
X00751218D01*
X00752234Y02411000D01*
X00751218Y02409984D01*
X00752234D01*
X00753250Y02408968D01*
Y02409984D02*
X00753758Y02410492D01*
X00754266D01*
X00753758Y02411000D01*
X00754266Y02411508D01*
X00753758D01*
X00753250Y02412016D01*
X00752742Y02411508D01*
X00752234D01*
X00752742Y02411000D01*
X00752234Y02410492D01*
X00752742D01*
X00753250Y02409984D01*
X00673000Y02408968D02*
X00674016Y02409984D01*
X00675032D01*
X00674016Y02411000D01*
X00675032Y02412016D01*
X00674016D01*
X00673000Y02413032D01*
X00671984Y02412016D01*
X00670968D01*
X00671984Y02411000D01*
X00670968Y02409984D01*
X00671984D01*
X00673000Y02408968D01*
Y02409984D02*
X00673508Y02410492D01*
X00674016D01*
X00673508Y02411000D01*
X00674016Y02411508D01*
X00673508D01*
X00673000Y02412016D01*
X00672492Y02411508D01*
X00671984D01*
X00672492Y02411000D01*
X00671984Y02410492D01*
X00672492D01*
X00673000Y02409984D01*
X00637510Y02389228D02*
X00638526Y02390244D01*
X00639542D01*
X00638526Y02391260D01*
X00639542Y02392276D01*
X00638526D01*
X00637510Y02393292D01*
X00636494Y02392276D01*
X00635478D01*
X00636494Y02391260D01*
X00635478Y02390244D01*
X00636494D01*
X00637510Y02389228D01*
Y02390244D02*
X00638018Y02390752D01*
X00638526D01*
X00638018Y02391260D01*
X00638526Y02391768D01*
X00638018D01*
X00637510Y02392276D01*
X00637002Y02391768D01*
X00636494D01*
X00637002Y02391260D01*
X00636494Y02390752D01*
X00637002D01*
X00637510Y02390244D01*
X00618250Y02354968D02*
X00619266Y02355984D01*
X00620282D01*
X00619266Y02357000D01*
X00620282Y02358016D01*
X00619266D01*
X00618250Y02359032D01*
X00617234Y02358016D01*
X00616218D01*
X00617234Y02357000D01*
X00616218Y02355984D01*
X00617234D01*
X00618250Y02354968D01*
Y02355984D02*
X00618758Y02356492D01*
X00619266D01*
X00618758Y02357000D01*
X00619266Y02357508D01*
X00618758D01*
X00618250Y02358016D01*
X00617742Y02357508D01*
X00617234D01*
X00617742Y02357000D01*
X00617234Y02356492D01*
X00617742D01*
X00618250Y02355984D01*
Y02314718D02*
X00619266Y02315734D01*
X00620282D01*
X00619266Y02316750D01*
X00620282Y02317766D01*
X00619266D01*
X00618250Y02318782D01*
X00617234Y02317766D01*
X00616218D01*
X00617234Y02316750D01*
X00616218Y02315734D01*
X00617234D01*
X00618250Y02314718D01*
Y02315734D02*
X00618758Y02316242D01*
X00619266D01*
X00618758Y02316750D01*
X00619266Y02317258D01*
X00618758D01*
X00618250Y02317766D01*
X00617742Y02317258D01*
X00617234D01*
X00617742Y02316750D01*
X00617234Y02316242D01*
X00617742D01*
X00618250Y02315734D01*
X00601000Y02278468D02*
X00602016Y02279484D01*
X00603032D01*
X00602016Y02280500D01*
X00603032Y02281516D01*
X00602016D01*
X00601000Y02282532D01*
X00599984Y02281516D01*
X00598968D01*
X00599984Y02280500D01*
X00598968Y02279484D01*
X00599984D01*
X00601000Y02278468D01*
Y02279484D02*
X00601508Y02279992D01*
X00602016D01*
X00601508Y02280500D01*
X00602016Y02281008D01*
X00601508D01*
X00601000Y02281516D01*
X00600492Y02281008D01*
X00599984D01*
X00600492Y02280500D01*
X00599984Y02279992D01*
X00600492D01*
X00601000Y02279484D01*
X00572750Y02249968D02*
X00573766Y02250984D01*
X00574782D01*
X00573766Y02252000D01*
X00574782Y02253016D01*
X00573766D01*
X00572750Y02254032D01*
X00571734Y02253016D01*
X00570718D01*
X00571734Y02252000D01*
X00570718Y02250984D01*
X00571734D01*
X00572750Y02249968D01*
Y02250984D02*
X00573258Y02251492D01*
X00573766D01*
X00573258Y02252000D01*
X00573766Y02252508D01*
X00573258D01*
X00572750Y02253016D01*
X00572242Y02252508D01*
X00571734D01*
X00572242Y02252000D01*
X00571734Y02251492D01*
X00572242D01*
X00572750Y02250984D01*
X00543830Y02221448D02*
X00544846Y02222464D01*
X00545862D01*
X00544846Y02223480D01*
X00545862Y02224496D01*
X00544846D01*
X00543830Y02225512D01*
X00542814Y02224496D01*
X00541798D01*
X00542814Y02223480D01*
X00541798Y02222464D01*
X00542814D01*
X00543830Y02221448D01*
Y02222464D02*
X00544338Y02222972D01*
X00544846D01*
X00544338Y02223480D01*
X00544846Y02223988D01*
X00544338D01*
X00543830Y02224496D01*
X00543322Y02223988D01*
X00542814D01*
X00543322Y02223480D01*
X00542814Y02222972D01*
X00543322D01*
X00543830Y02222464D01*
X00503000Y02221448D02*
X00504016Y02222464D01*
X00505032D01*
X00504016Y02223480D01*
X00505032Y02224496D01*
X00504016D01*
X00503000Y02225512D01*
X00501984Y02224496D01*
X00500968D01*
X00501984Y02223480D01*
X00500968Y02222464D01*
X00501984D01*
X00503000Y02221448D01*
Y02222464D02*
X00503508Y02222972D01*
X00504016D01*
X00503508Y02223480D01*
X00504016Y02223988D01*
X00503508D01*
X00503000Y02224496D01*
X00502492Y02223988D01*
X00501984D01*
X00502492Y02223480D01*
X00501984Y02222972D01*
X00502492D01*
X00503000Y02222464D01*
X00463500Y02221448D02*
X00464516Y02222464D01*
X00465532D01*
X00464516Y02223480D01*
X00465532Y02224496D01*
X00464516D01*
X00463500Y02225512D01*
X00462484Y02224496D01*
X00461468D01*
X00462484Y02223480D01*
X00461468Y02222464D01*
X00462484D01*
X00463500Y02221448D01*
Y02222464D02*
X00464008Y02222972D01*
X00464516D01*
X00464008Y02223480D01*
X00464516Y02223988D01*
X00464008D01*
X00463500Y02224496D01*
X00462992Y02223988D01*
X00462484D01*
X00462992Y02223480D01*
X00462484Y02222972D01*
X00462992D01*
X00463500Y02222464D01*
X00422537Y02221448D02*
X00423554Y02222464D01*
X00424570D01*
X00423554Y02223480D01*
X00424570Y02224496D01*
X00423554D01*
X00422537Y02225512D01*
X00421521Y02224496D01*
X00420505D01*
X00421521Y02223480D01*
X00420505Y02222464D01*
X00421521D01*
X00422537Y02221448D01*
Y02222464D02*
X00423046Y02222972D01*
X00423554D01*
X00423046Y02223480D01*
X00423554Y02223988D01*
X00423046D01*
X00422537Y02224496D01*
X00422029Y02223988D01*
X00421521D01*
X00422029Y02223480D01*
X00421521Y02222972D01*
X00422029D01*
X00422537Y02222464D01*
X00382000Y02221448D02*
X00383016Y02222464D01*
X00384032D01*
X00383016Y02223480D01*
X00384032Y02224496D01*
X00383016D01*
X00382000Y02225512D01*
X00380984Y02224496D01*
X00379968D01*
X00380984Y02223480D01*
X00379968Y02222464D01*
X00380984D01*
X00382000Y02221448D01*
Y02222464D02*
X00382508Y02222972D01*
X00383016D01*
X00382508Y02223480D01*
X00383016Y02223988D01*
X00382508D01*
X00382000Y02224496D01*
X00381492Y02223988D01*
X00380984D01*
X00381492Y02223480D01*
X00380984Y02222972D01*
X00381492D01*
X00382000Y02222464D01*
X00341500Y02221448D02*
X00342516Y02222464D01*
X00343532D01*
X00342516Y02223480D01*
X00343532Y02224496D01*
X00342516D01*
X00341500Y02225512D01*
X00340484Y02224496D01*
X00339468D01*
X00340484Y02223480D01*
X00339468Y02222464D01*
X00340484D01*
X00341500Y02221448D01*
Y02222464D02*
X00342008Y02222972D01*
X00342516D01*
X00342008Y02223480D01*
X00342516Y02223988D01*
X00342008D01*
X00341500Y02224496D01*
X00340992Y02223988D01*
X00340484D01*
X00340992Y02223480D01*
X00340484Y02222972D01*
X00340992D01*
X00341500Y02222464D01*
X00301245Y02221448D02*
X00302261Y02222464D01*
X00303277D01*
X00302261Y02223480D01*
X00303277Y02224496D01*
X00302261D01*
X00301245Y02225512D01*
X00300229Y02224496D01*
X00299213D01*
X00300229Y02223480D01*
X00299213Y02222464D01*
X00300229D01*
X00301245Y02221448D01*
Y02222464D02*
X00301753Y02222972D01*
X00302261D01*
X00301753Y02223480D01*
X00302261Y02223988D01*
X00301753D01*
X00301245Y02224496D01*
X00300737Y02223988D01*
X00300229D01*
X00300737Y02223480D01*
X00300229Y02222972D01*
X00300737D01*
X00301245Y02222464D01*
X00572250Y01905218D02*
X00573266Y01906234D01*
X00574282D01*
X00573266Y01907250D01*
X00574282Y01908266D01*
X00573266D01*
X00572250Y01909282D01*
X00571234Y01908266D01*
X00570218D01*
X00571234Y01907250D01*
X00570218Y01906234D01*
X00571234D01*
X00572250Y01905218D01*
Y01906234D02*
X00572758Y01906742D01*
X00573266D01*
X00572758Y01907250D01*
X00573266Y01907758D01*
X00572758D01*
X00572250Y01908266D01*
X00571742Y01907758D01*
X00571234D01*
X00571742Y01907250D01*
X00571234Y01906742D01*
X00571742D01*
X00572250Y01906234D01*
X00570500Y01869718D02*
X00571516Y01870734D01*
X00572532D01*
X00571516Y01871750D01*
X00572532Y01872766D01*
X00571516D01*
X00570500Y01873782D01*
X00569484Y01872766D01*
X00568468D01*
X00569484Y01871750D01*
X00568468Y01870734D01*
X00569484D01*
X00570500Y01869718D01*
Y01870734D02*
X00571008Y01871242D01*
X00571516D01*
X00571008Y01871750D01*
X00571516Y01872258D01*
X00571008D01*
X00570500Y01872766D01*
X00569992Y01872258D01*
X00569484D01*
X00569992Y01871750D01*
X00569484Y01871242D01*
X00569992D01*
X00570500Y01870734D01*
X00548500Y01844968D02*
X00549516Y01845984D01*
X00550532D01*
X00549516Y01847000D01*
X00550532Y01848016D01*
X00549516D01*
X00548500Y01849032D01*
X00547484Y01848016D01*
X00546468D01*
X00547484Y01847000D01*
X00546468Y01845984D01*
X00547484D01*
X00548500Y01844968D01*
Y01845984D02*
X00549008Y01846492D01*
X00549516D01*
X00549008Y01847000D01*
X00549516Y01847508D01*
X00549008D01*
X00548500Y01848016D01*
X00547992Y01847508D01*
X00547484D01*
X00547992Y01847000D01*
X00547484Y01846492D01*
X00547992D01*
X00548500Y01845984D01*
X00522500Y01819718D02*
X00523516Y01820734D01*
X00524532D01*
X00523516Y01821750D01*
X00524532Y01822766D01*
X00523516D01*
X00522500Y01823782D01*
X00521484Y01822766D01*
X00520468D01*
X00521484Y01821750D01*
X00520468Y01820734D01*
X00521484D01*
X00522500Y01819718D01*
Y01820734D02*
X00523008Y01821242D01*
X00523516D01*
X00523008Y01821750D01*
X00523516Y01822258D01*
X00523008D01*
X00522500Y01822766D01*
X00521992Y01822258D01*
X00521484D01*
X00521992Y01821750D01*
X00521484Y01821242D01*
X00521992D01*
X00522500Y01820734D01*
X00482000Y01814468D02*
X00483016Y01815484D01*
X00484032D01*
X00483016Y01816500D01*
X00484032Y01817516D01*
X00483016D01*
X00482000Y01818532D01*
X00480984Y01817516D01*
X00479968D01*
X00480984Y01816500D01*
X00479968Y01815484D01*
X00480984D01*
X00482000Y01814468D01*
Y01815484D02*
X00482508Y01815992D01*
X00483016D01*
X00482508Y01816500D01*
X00483016Y01817008D01*
X00482508D01*
X00482000Y01817516D01*
X00481492Y01817008D01*
X00480984D01*
X00481492Y01816500D01*
X00480984Y01815992D01*
X00481492D01*
X00482000Y01815484D01*
X00441750Y01814218D02*
X00442766Y01815234D01*
X00443782D01*
X00442766Y01816250D01*
X00443782Y01817266D01*
X00442766D01*
X00441750Y01818282D01*
X00440734Y01817266D01*
X00439718D01*
X00440734Y01816250D01*
X00439718Y01815234D01*
X00440734D01*
X00441750Y01814218D01*
Y01815234D02*
X00442258Y01815742D01*
X00442766D01*
X00442258Y01816250D01*
X00442766Y01816758D01*
X00442258D01*
X00441750Y01817266D01*
X00441242Y01816758D01*
X00440734D01*
X00441242Y01816250D01*
X00440734Y01815742D01*
X00441242D01*
X00441750Y01815234D01*
X00399500Y01814218D02*
X00400516Y01815234D01*
X00401532D01*
X00400516Y01816250D01*
X00401532Y01817266D01*
X00400516D01*
X00399500Y01818282D01*
X00398484Y01817266D01*
X00397468D01*
X00398484Y01816250D01*
X00397468Y01815234D01*
X00398484D01*
X00399500Y01814218D01*
Y01815234D02*
X00400008Y01815742D01*
X00400516D01*
X00400008Y01816250D01*
X00400516Y01816758D01*
X00400008D01*
X00399500Y01817266D01*
X00398992Y01816758D01*
X00398484D01*
X00398992Y01816250D01*
X00398484Y01815742D01*
X00398992D01*
X00399500Y01815234D01*
X00358500Y01814218D02*
X00359516Y01815234D01*
X00360532D01*
X00359516Y01816250D01*
X00360532Y01817266D01*
X00359516D01*
X00358500Y01818282D01*
X00357484Y01817266D01*
X00356468D01*
X00357484Y01816250D01*
X00356468Y01815234D01*
X00357484D01*
X00358500Y01814218D01*
Y01815234D02*
X00359008Y01815742D01*
X00359516D01*
X00359008Y01816250D01*
X00359516Y01816758D01*
X00359008D01*
X00358500Y01817266D01*
X00357992Y01816758D01*
X00357484D01*
X00357992Y01816250D01*
X00357484Y01815742D01*
X00357992D01*
X00358500Y01815234D01*
X00324500Y01795218D02*
X00325516Y01796234D01*
X00326532D01*
X00325516Y01797250D01*
X00326532Y01798266D01*
X00325516D01*
X00324500Y01799282D01*
X00323484Y01798266D01*
X00322468D01*
X00323484Y01797250D01*
X00322468Y01796234D01*
X00323484D01*
X00324500Y01795218D01*
Y01796234D02*
X00325008Y01796742D01*
X00325516D01*
X00325008Y01797250D01*
X00325516Y01797758D01*
X00325008D01*
X00324500Y01798266D01*
X00323992Y01797758D01*
X00323484D01*
X00323992Y01797250D01*
X00323484Y01796742D01*
X00323992D01*
X00324500Y01796234D01*
X00590000Y01932968D02*
X00591016Y01933984D01*
X00592032D01*
X00591016Y01935000D01*
X00592032Y01936016D01*
X00591016D01*
X00590000Y01937032D01*
X00588984Y01936016D01*
X00587968D01*
X00588984Y01935000D01*
X00587968Y01933984D01*
X00588984D01*
X00590000Y01932968D01*
Y01933984D02*
X00590508Y01934492D01*
X00591016D01*
X00590508Y01935000D01*
X00591016Y01935508D01*
X00590508D01*
X00590000Y01936016D01*
X00589492Y01935508D01*
X00588984D01*
X00589492Y01935000D01*
X00588984Y01934492D01*
X00589492D01*
X00590000Y01933984D01*
X01409250Y01545468D02*
X01410266Y01546484D01*
X01411282D01*
X01410266Y01547500D01*
X01411282Y01548516D01*
X01410266D01*
X01409250Y01549532D01*
X01408234Y01548516D01*
X01407218D01*
X01408234Y01547500D01*
X01407218Y01546484D01*
X01408234D01*
X01409250Y01545468D01*
Y01546484D02*
X01409758Y01546992D01*
X01410266D01*
X01409758Y01547500D01*
X01410266Y01548008D01*
X01409758D01*
X01409250Y01548516D01*
X01408742Y01548008D01*
X01408234D01*
X01408742Y01547500D01*
X01408234Y01546992D01*
X01408742D01*
X01409250Y01546484D01*
X01262750Y01598218D02*
X01263766Y01599234D01*
X01264782D01*
X01263766Y01600250D01*
X01264782Y01601266D01*
X01263766D01*
X01262750Y01602282D01*
X01261734Y01601266D01*
X01260718D01*
X01261734Y01600250D01*
X01260718Y01599234D01*
X01261734D01*
X01262750Y01598218D01*
Y01599234D02*
X01263258Y01599742D01*
X01263766D01*
X01263258Y01600250D01*
X01263766Y01600758D01*
X01263258D01*
X01262750Y01601266D01*
X01262242Y01600758D01*
X01261734D01*
X01262242Y01600250D01*
X01261734Y01599742D01*
X01262242D01*
X01262750Y01599234D01*
X00548500Y01716218D02*
X00549516Y01717234D01*
X00550532D01*
X00549516Y01718250D01*
X00550532Y01719266D01*
X00549516D01*
X00548500Y01720282D01*
X00547484Y01719266D01*
X00546468D01*
X00547484Y01718250D01*
X00546468Y01717234D01*
X00547484D01*
X00548500Y01716218D01*
Y01717234D02*
X00549008Y01717742D01*
X00549516D01*
X00549008Y01718250D01*
X00549516Y01718758D01*
X00549008D01*
X00548500Y01719266D01*
X00547992Y01718758D01*
X00547484D01*
X00547992Y01718250D01*
X00547484Y01717742D01*
X00547992D01*
X00548500Y01717234D01*
X00413750Y01713468D02*
X00414766Y01714484D01*
X00415782D01*
X00414766Y01715500D01*
X00415782Y01716516D01*
X00414766D01*
X00413750Y01717532D01*
X00412734Y01716516D01*
X00411718D01*
X00412734Y01715500D01*
X00411718Y01714484D01*
X00412734D01*
X00413750Y01713468D01*
Y01714484D02*
X00414258Y01714992D01*
X00414766D01*
X00414258Y01715500D01*
X00414766Y01716008D01*
X00414258D01*
X00413750Y01716516D01*
X00413242Y01716008D01*
X00412734D01*
X00413242Y01715500D01*
X00412734Y01714992D01*
X00413242D01*
X00413750Y01714484D01*
X00784000Y01696968D02*
X00785016Y01697984D01*
X00786032D01*
X00785016Y01699000D01*
X00786032Y01700016D01*
X00785016D01*
X00784000Y01701032D01*
X00782984Y01700016D01*
X00781968D01*
X00782984Y01699000D01*
X00781968Y01697984D01*
X00782984D01*
X00784000Y01696968D01*
Y01697984D02*
X00784508Y01698492D01*
X00785016D01*
X00784508Y01699000D01*
X00785016Y01699508D01*
X00784508D01*
X00784000Y01700016D01*
X00783492Y01699508D01*
X00782984D01*
X00783492Y01699000D01*
X00782984Y01698492D01*
X00783492D01*
X00784000Y01697984D01*
X00795500Y01600218D02*
X00796516Y01601234D01*
X00797532D01*
X00796516Y01602250D01*
X00797532Y01603266D01*
X00796516D01*
X00795500Y01604282D01*
X00794484Y01603266D01*
X00793468D01*
X00794484Y01602250D01*
X00793468Y01601234D01*
X00794484D01*
X00795500Y01600218D01*
Y01601234D02*
X00796008Y01601742D01*
X00796516D01*
X00796008Y01602250D01*
X00796516Y01602758D01*
X00796008D01*
X00795500Y01603266D01*
X00794992Y01602758D01*
X00794484D01*
X00794992Y01602250D01*
X00794484Y01601742D01*
X00794992D01*
X00795500Y01601234D01*
X00187500Y01657968D02*
X00188516Y01658984D01*
X00189532D01*
X00188516Y01660000D01*
X00189532Y01661016D01*
X00188516D01*
X00187500Y01662032D01*
X00186484Y01661016D01*
X00185468D01*
X00186484Y01660000D01*
X00185468Y01658984D01*
X00186484D01*
X00187500Y01657968D01*
Y01658984D02*
X00188008Y01659492D01*
X00188516D01*
X00188008Y01660000D01*
X00188516Y01660508D01*
X00188008D01*
X00187500Y01661016D01*
X00186992Y01660508D01*
X00186484D01*
X00186992Y01660000D01*
X00186484Y01659492D01*
X00186992D01*
X00187500Y01658984D01*
X00201250Y01702008D02*
X00202266Y01703024D01*
X00203282D01*
X00202266Y01704040D01*
X00203282Y01705056D01*
X00202266D01*
X00201250Y01706072D01*
X00200234Y01705056D01*
X00199218D01*
X00200234Y01704040D01*
X00199218Y01703024D01*
X00200234D01*
X00201250Y01702008D01*
Y01703024D02*
X00201758Y01703532D01*
X00202266D01*
X00201758Y01704040D01*
X00202266Y01704548D01*
X00201758D01*
X00201250Y01705056D01*
X00200742Y01704548D01*
X00200234D01*
X00200742Y01704040D01*
X00200234Y01703532D01*
X00200742D01*
X00201250Y01703024D01*
X00278250Y01759718D02*
X00279266Y01760734D01*
X00280282D01*
X00279266Y01761750D01*
X00280282Y01762766D01*
X00279266D01*
X00278250Y01763782D01*
X00277234Y01762766D01*
X00276218D01*
X00277234Y01761750D01*
X00276218Y01760734D01*
X00277234D01*
X00278250Y01759718D01*
Y01760734D02*
X00278758Y01761242D01*
X00279266D01*
X00278758Y01761750D01*
X00279266Y01762258D01*
X00278758D01*
X00278250Y01762766D01*
X00277742Y01762258D01*
X00277234D01*
X00277742Y01761750D01*
X00277234Y01761242D01*
X00277742D01*
X00278250Y01760734D01*
X00324500Y01755718D02*
X00325516Y01756734D01*
X00326532D01*
X00325516Y01757750D01*
X00326532Y01758766D01*
X00325516D01*
X00324500Y01759782D01*
X00323484Y01758766D01*
X00322468D01*
X00323484Y01757750D01*
X00322468Y01756734D01*
X00323484D01*
X00324500Y01755718D01*
Y01756734D02*
X00325008Y01757242D01*
X00325516D01*
X00325008Y01757750D01*
X00325516Y01758258D01*
X00325008D01*
X00324500Y01758766D01*
X00323992Y01758258D01*
X00323484D01*
X00323992Y01757750D01*
X00323484Y01757242D01*
X00323992D01*
X00324500Y01756734D01*
X00970500Y01581468D02*
X00971516Y01582484D01*
X00972532D01*
X00971516Y01583500D01*
X00972532Y01584516D01*
X00971516D01*
X00970500Y01585532D01*
X00969484Y01584516D01*
X00968468D01*
X00969484Y01583500D01*
X00968468Y01582484D01*
X00969484D01*
X00970500Y01581468D01*
Y01582484D02*
X00971008Y01582992D01*
X00971516D01*
X00971008Y01583500D01*
X00971516Y01584008D01*
X00971008D01*
X00970500Y01584516D01*
X00969992Y01584008D01*
X00969484D01*
X00969992Y01583500D01*
X00969484Y01582992D01*
X00969992D01*
X00970500Y01582484D01*
X00680716Y01837720D02*
X00681732Y01839752D01*
X00680716Y01841784D01*
X00682748Y01840768D01*
X00684780Y01841784D01*
X00683764Y01839752D01*
X00684780Y01837720D01*
X00682748Y01838736D01*
X00680716Y01837720D01*
X00681732Y01838736D02*
X00682240Y01839752D01*
X00681732Y01840768D01*
X00682748Y01840260D01*
X00683764Y01840768D01*
X00683256Y01839752D01*
X00683764Y01838736D01*
X00682748Y01839244D01*
X00681732Y01838736D01*
X00653718Y01848968D02*
X00654734Y01851000D01*
X00653718Y01853032D01*
X00655750Y01852016D01*
X00657782Y01853032D01*
X00656766Y01851000D01*
X00657782Y01848968D01*
X00655750Y01849984D01*
X00653718Y01848968D01*
X00654734Y01849984D02*
X00655242Y01851000D01*
X00654734Y01852016D01*
X00655750Y01851508D01*
X00656766Y01852016D01*
X00656258Y01851000D01*
X00656766Y01849984D01*
X00655750Y01850492D01*
X00654734Y01849984D01*
X01051468Y01639468D02*
X01052484Y01641500D01*
X01051468Y01643532D01*
X01053500Y01642516D01*
X01055532Y01643532D01*
X01054516Y01641500D01*
X01055532Y01639468D01*
X01053500Y01640484D01*
X01051468Y01639468D01*
X01052484Y01640484D02*
X01052992Y01641500D01*
X01052484Y01642516D01*
X01053500Y01642008D01*
X01054516Y01642516D01*
X01054008Y01641500D01*
X01054516Y01640484D01*
X01053500Y01640992D01*
X01052484Y01640484D01*
D76*
X01362282Y01693500D02*
G03*
X01362282Y01693500I-00002032J00000000D01*
G01*
Y02034000D02*
G03*
X01362282Y02034000I-00002032J00000000D01*
G01*
X01007782Y02525000D02*
G03*
X01007782Y02525000I-00002032J00000000D01*
G01*
X00364532Y02637000D02*
G03*
X00364532Y02637000I-00002032J00000000D01*
G01*
X00154532D02*
G03*
X00154532Y02637000I-00002032J00000000D01*
G01*
D77*
X00363516D02*
G03*
X00363516Y02637000I-00001016J00000000D01*
G01*
X00153516D02*
G03*
X00153516Y02637000I-00001016J00000000D01*
G01*
M02*
