G04*
G04 #@! TF.GenerationSoftware,Altium Limited,Altium Designer,21.2.0 (30)*
G04*
G04 Layer_Physical_Order=2*
G04 Layer_Color=16711680*
%FSAX44Y44*%
%MOMM*%
G71*
G04*
G04 #@! TF.SameCoordinates,F656A266-89EA-4B56-B237-F6EBBDAECB67*
G04*
G04*
G04 #@! TF.FilePolarity,Positive*
G04*
G01*
G75*
%ADD15C,0.5000*%
%ADD23O,2.0000X1.4000*%
%ADD24R,2.0000X1.4000*%
%ADD43R,1.6000X1.0000*%
%ADD44R,1.0000X1.6000*%
%ADD46R,1.6000X2.2000*%
%ADD47C,4.0000*%
%ADD48C,2.0000*%
%ADD49C,0.8000*%
%ADD50C,1.0000*%
%ADD51C,3.2000*%
%ADD53C,2.0000*%
%ADD54C,1.6000*%
%ADD55C,3.0000*%
%ADD56C,1.8000*%
%ADD57C,1.0000*%
%ADD58P,1.0824X8X202.5*%
%ADD59O,1.7780X1.4000*%
%ADD60R,1.7780X1.4000*%
%ADD61C,2.2000*%
%ADD62P,1.0824X8X292.5*%
G04:AMPARAMS|DCode=63|XSize=6mm|YSize=6mm|CornerRadius=1.5mm|HoleSize=0mm|Usage=FLASHONLY|Rotation=0.000|XOffset=0mm|YOffset=0mm|HoleType=Round|Shape=RoundedRectangle|*
%AMROUNDEDRECTD63*
21,1,6.0000,3.0000,0,0,0.0*
21,1,3.0000,6.0000,0,0,0.0*
1,1,3.0000,1.5000,-1.5000*
1,1,3.0000,-1.5000,-1.5000*
1,1,3.0000,-1.5000,1.5000*
1,1,3.0000,1.5000,1.5000*
%
%ADD63ROUNDEDRECTD63*%
%ADD64R,1.6000X1.6000*%
%ADD65R,2.0000X2.0000*%
%ADD66P,1.7318X8X112.5*%
%ADD67C,2.4000*%
%ADD68O,2.6000X3.5000*%
%ADD69O,1.5000X1.6000*%
%ADD70C,0.6000*%
%ADD71R,1.0000X3.3000*%
%ADD72C,3.0000*%
G36*
X00819541Y02305123D02*
X00821601Y02304269D01*
X00822337Y02303777D01*
X00824243Y02302241D01*
X00824243Y02302241D01*
X00825912Y02300574D01*
X00830708Y02295778D01*
X00831496Y02295064D01*
X00833262Y02293884D01*
X00835225Y02293071D01*
X00837308Y02292656D01*
X00838370Y02292604D01*
X00988068Y02292604D01*
X00988737Y02290104D01*
X00987664Y02289484D01*
X00985516Y02287336D01*
X00983997Y02284704D01*
X00983210Y02281769D01*
Y02278731D01*
X00983997Y02275796D01*
X00985516Y02273164D01*
X00987664Y02271016D01*
X00990296Y02269496D01*
X00993231Y02268710D01*
X00996269D01*
X00999204Y02269496D01*
X01001836Y02271016D01*
X01003984Y02273164D01*
X01005504Y02275796D01*
X01006290Y02278731D01*
Y02281769D01*
X01005504Y02284704D01*
X01003984Y02287336D01*
X01001836Y02289484D01*
X01000762Y02290104D01*
X01001432Y02292604D01*
X01082141Y02292604D01*
X01085614Y02289131D01*
Y02287434D01*
X01085516Y02287336D01*
X01083997Y02284704D01*
X01083210Y02281769D01*
Y02278731D01*
X01083997Y02275796D01*
X01085516Y02273164D01*
X01085614Y02273066D01*
Y02263869D01*
X01071600Y02249855D01*
X01050051D01*
X01049222Y02250684D01*
X01046818Y02252072D01*
X01044138Y02252790D01*
X01041362D01*
X01038682Y02252072D01*
X01036278Y02250684D01*
X01034316Y02248722D01*
X01032928Y02246318D01*
X01032210Y02243638D01*
Y02240862D01*
X01032928Y02238182D01*
X01034316Y02235778D01*
X01036278Y02233816D01*
X01038682Y02232428D01*
X01041362Y02231710D01*
X01044138D01*
X01046818Y02232428D01*
X01049222Y02233816D01*
X01050051Y02234645D01*
X01074750D01*
X01076718Y02234904D01*
X01078552Y02235664D01*
X01080128Y02236872D01*
X01098597Y02255342D01*
X01099806Y02256917D01*
X01100565Y02258751D01*
X01100824Y02260719D01*
Y02270432D01*
X01101836Y02271016D01*
X01103984Y02273164D01*
X01105504Y02275796D01*
X01106290Y02278731D01*
Y02281769D01*
X01105504Y02284704D01*
X01103984Y02287336D01*
X01101836Y02289484D01*
X01102569Y02291947D01*
X01103191Y02292604D01*
X01245396Y02292604D01*
X01246349D01*
X01248110Y02291874D01*
X01249458Y02290526D01*
X01249651Y02290059D01*
X01250187Y02287816D01*
Y02287811D01*
X01250187Y02287811D01*
X01250188Y02287811D01*
X01250188Y02142188D01*
X01250188Y02141442D01*
X01249617Y02140063D01*
X01248705Y02139151D01*
X01246437Y02138438D01*
Y02138438D01*
X01246437Y02138438D01*
X01168920Y02138427D01*
X01166393Y02138303D01*
X01161435Y02137317D01*
X01156766Y02135382D01*
X01152563Y02132573D01*
X01150689Y02130874D01*
X01150688Y02130874D01*
X01150688Y02130874D01*
X01059978Y02040164D01*
X01058711Y02038834D01*
X01056382Y02035996D01*
X01054342Y02032943D01*
X01052612Y02029705D01*
X01051207Y02026313D01*
X01050141Y02022800D01*
X01049425Y02019199D01*
X01049065Y02015545D01*
X01049020Y02013709D01*
Y01931730D01*
X01049078Y01930554D01*
X01049537Y01928247D01*
X01050437Y01926074D01*
X01051743Y01924118D01*
X01053406Y01922455D01*
X01055362Y01921149D01*
X01057535Y01920249D01*
X01059842Y01919790D01*
X01061018Y01919732D01*
X01123361Y01919732D01*
X01125011Y01919732D01*
X01128248Y01919088D01*
X01131296Y01917825D01*
X01133399Y01916420D01*
X01135206Y01914825D01*
X01135206Y01914825D01*
X01136877Y01913155D01*
X01177384Y01872648D01*
X01176922Y01870721D01*
X01176590Y01870005D01*
X01176542Y01869954D01*
X01174439Y01869083D01*
X01172446Y01867554D01*
X01170917Y01865561D01*
X01169956Y01863240D01*
X01169628Y01860750D01*
X01169956Y01858259D01*
X01170917Y01855939D01*
X01169005Y01854324D01*
X01161464Y01861864D01*
X01160098Y01862913D01*
X01158507Y01863572D01*
X01156800Y01863797D01*
X01143040D01*
Y01864740D01*
X01121960D01*
Y01863797D01*
X01112826D01*
X01111835Y01865514D01*
X01109314Y01868035D01*
X01106226Y01869817D01*
X01102783Y01870740D01*
X01099217D01*
X01095774Y01869817D01*
X01092686Y01868035D01*
X01090165Y01865514D01*
X01088383Y01862426D01*
X01087460Y01858983D01*
Y01855417D01*
X01088383Y01851974D01*
X01090165Y01848886D01*
X01092686Y01846365D01*
X01095774Y01844583D01*
X01099217Y01843660D01*
X01102783D01*
X01106226Y01844583D01*
X01109314Y01846365D01*
X01111835Y01848886D01*
X01112826Y01850604D01*
X01121960D01*
Y01849660D01*
X01143040D01*
Y01850604D01*
X01154068D01*
X01164586Y01840086D01*
X01165952Y01839037D01*
X01167543Y01838378D01*
X01169250Y01838154D01*
X01171727D01*
X01172576Y01835654D01*
X01172446Y01835554D01*
X01170917Y01833561D01*
X01169956Y01831240D01*
X01169628Y01828750D01*
X01169956Y01826259D01*
X01170917Y01823939D01*
X01172446Y01821946D01*
X01172576Y01821846D01*
X01171727Y01819346D01*
X01161750D01*
X01160043Y01819122D01*
X01158452Y01818463D01*
X01157086Y01817414D01*
X01152668Y01812997D01*
X01143040D01*
Y01813940D01*
X01121960D01*
Y01812997D01*
X01111826D01*
X01110835Y01814714D01*
X01108314Y01817235D01*
X01105226Y01819017D01*
X01101783Y01819940D01*
X01098217D01*
X01094774Y01819017D01*
X01091686Y01817235D01*
X01089165Y01814714D01*
X01087383Y01811626D01*
X01086460Y01808183D01*
Y01804617D01*
X01087383Y01801174D01*
X01089165Y01798086D01*
X01091686Y01795565D01*
X01094774Y01793783D01*
X01098217Y01792860D01*
X01101783D01*
X01105226Y01793783D01*
X01108314Y01795565D01*
X01110835Y01798086D01*
X01111826Y01799804D01*
X01121960D01*
Y01798860D01*
X01143040D01*
Y01799804D01*
X01155400D01*
X01157107Y01800029D01*
X01158698Y01800687D01*
X01160064Y01801736D01*
X01164482Y01806154D01*
X01171727D01*
X01172576Y01803654D01*
X01172446Y01803554D01*
X01170917Y01801561D01*
X01169956Y01799240D01*
X01169628Y01796750D01*
X01169956Y01794259D01*
X01170917Y01791939D01*
X01172446Y01789946D01*
X01172576Y01789846D01*
X01171727Y01787346D01*
X01169750D01*
X01168043Y01787122D01*
X01166452Y01786463D01*
X01165086Y01785414D01*
X01154586Y01774914D01*
X01153537Y01773548D01*
X01152878Y01771957D01*
X01152654Y01770250D01*
Y01766232D01*
X01148618Y01762197D01*
X01143040D01*
Y01763140D01*
X01121960D01*
Y01762197D01*
X01111826D01*
X01110835Y01763914D01*
X01108314Y01766435D01*
X01105226Y01768217D01*
X01101783Y01769140D01*
X01098217D01*
X01094774Y01768217D01*
X01091686Y01766435D01*
X01089165Y01763914D01*
X01087383Y01760826D01*
X01086460Y01757383D01*
Y01753817D01*
X01087383Y01750374D01*
X01089165Y01747286D01*
X01091686Y01744765D01*
X01094774Y01742983D01*
X01098217Y01742060D01*
X01101783D01*
X01105226Y01742983D01*
X01108314Y01744765D01*
X01110835Y01747286D01*
X01111826Y01749004D01*
X01121960D01*
Y01748060D01*
X01143040D01*
Y01749004D01*
X01151350D01*
X01153057Y01749229D01*
X01154648Y01749887D01*
X01156014Y01750936D01*
X01163914Y01758836D01*
X01164963Y01760202D01*
X01165622Y01761793D01*
X01165846Y01763500D01*
Y01767518D01*
X01168438Y01770109D01*
X01170557Y01768693D01*
X01169956Y01767240D01*
X01169628Y01764750D01*
X01169956Y01762260D01*
X01170917Y01759939D01*
X01172446Y01757946D01*
X01174439Y01756417D01*
X01176759Y01755455D01*
X01179250Y01755128D01*
X01185250D01*
X01187740Y01755455D01*
X01190061Y01756417D01*
X01192054Y01757946D01*
X01193583Y01759939D01*
X01194545Y01762260D01*
X01194872Y01764750D01*
X01194545Y01767240D01*
X01193583Y01769561D01*
X01192054Y01771554D01*
X01191924Y01771654D01*
X01192773Y01774154D01*
X01202287D01*
X01202446Y01773946D01*
X01204439Y01772417D01*
X01206759Y01771456D01*
X01209250Y01771128D01*
X01215250D01*
X01217740Y01771456D01*
X01220061Y01772417D01*
X01222054Y01773946D01*
X01223583Y01775939D01*
X01224545Y01778259D01*
X01224872Y01780750D01*
X01224545Y01783240D01*
X01223583Y01785561D01*
X01222054Y01787554D01*
X01220061Y01789083D01*
X01217740Y01790044D01*
X01215250Y01790372D01*
X01209250D01*
X01206759Y01790044D01*
X01204439Y01789083D01*
X01202446Y01787554D01*
X01202287Y01787346D01*
X01192773D01*
X01191924Y01789846D01*
X01192054Y01789946D01*
X01193583Y01791939D01*
X01194545Y01794259D01*
X01194872Y01796750D01*
X01194545Y01799240D01*
X01193583Y01801561D01*
X01192054Y01803554D01*
X01191924Y01803654D01*
X01192773Y01806154D01*
X01202287D01*
X01202446Y01805946D01*
X01204439Y01804417D01*
X01206759Y01803456D01*
X01209250Y01803128D01*
X01215250D01*
X01217740Y01803456D01*
X01220061Y01804417D01*
X01222054Y01805946D01*
X01223583Y01807939D01*
X01224545Y01810260D01*
X01224872Y01812750D01*
X01224545Y01815240D01*
X01223583Y01817561D01*
X01222054Y01819554D01*
X01220061Y01821083D01*
X01217740Y01822044D01*
X01215250Y01822372D01*
X01209250D01*
X01206759Y01822044D01*
X01204439Y01821083D01*
X01202446Y01819554D01*
X01202287Y01819346D01*
X01192773D01*
X01191924Y01821846D01*
X01192054Y01821946D01*
X01193583Y01823939D01*
X01194545Y01826259D01*
X01194872Y01828750D01*
X01194545Y01831240D01*
X01193583Y01833561D01*
X01192054Y01835554D01*
X01191924Y01835654D01*
X01192773Y01838154D01*
X01202287D01*
X01202446Y01837946D01*
X01204439Y01836417D01*
X01206759Y01835456D01*
X01209250Y01835128D01*
X01215250D01*
X01217740Y01835456D01*
X01220061Y01836417D01*
X01222054Y01837946D01*
X01223583Y01839939D01*
X01224545Y01842260D01*
X01224872Y01844750D01*
X01224545Y01847240D01*
X01223583Y01849561D01*
X01222054Y01851554D01*
X01220061Y01853083D01*
X01217740Y01854044D01*
X01215250Y01854372D01*
X01209250D01*
X01206759Y01854044D01*
X01204439Y01853083D01*
X01202446Y01851554D01*
X01202287Y01851346D01*
X01192773D01*
X01191924Y01853846D01*
X01192054Y01853946D01*
X01193583Y01855939D01*
X01194545Y01858259D01*
X01194872Y01860750D01*
X01194545Y01863240D01*
X01193583Y01865561D01*
X01193110Y01866178D01*
X01194343Y01868678D01*
X01201241D01*
X01203035Y01868678D01*
X01206554Y01867978D01*
X01209869Y01866605D01*
X01212354Y01864944D01*
X01214121Y01863342D01*
X01214121Y01863342D01*
X01215787Y01861677D01*
X01220114Y01857350D01*
X01229374Y01848090D01*
X01238705Y01838759D01*
X01247791Y01829673D01*
X01261619Y01815845D01*
X01265343Y01812121D01*
X01270924Y01806540D01*
X01283364Y01794100D01*
Y01794100D01*
X01283364Y01794100D01*
X01284964Y01792500D01*
X01313742Y01763722D01*
Y01763722D01*
X01313742Y01763722D01*
X01316419Y01761045D01*
X01316419Y01761045D01*
X01317053Y01760411D01*
X01317053Y01760411D01*
X01319373Y01758091D01*
Y01758091D01*
X01319373Y01758091D01*
X01331204Y01746260D01*
Y01746259D01*
X01333525Y01743939D01*
X01333525Y01743939D01*
X01336985Y01740479D01*
Y01740479D01*
X01337574Y01739890D01*
X01338758Y01737771D01*
X01338271Y01735719D01*
X01338241Y01735688D01*
X01333782Y01733113D01*
X01328837Y01729319D01*
X01324431Y01724913D01*
X01320637Y01719969D01*
X01317521Y01714572D01*
X01315136Y01708814D01*
X01313524Y01702794D01*
X01312710Y01696616D01*
Y01690384D01*
X01313524Y01684205D01*
X01315136Y01678186D01*
X01317521Y01672428D01*
X01320637Y01667032D01*
X01324431Y01662087D01*
X01328837Y01657681D01*
X01333782Y01653887D01*
X01339178Y01650771D01*
X01344936Y01648386D01*
X01350956Y01646773D01*
X01357134Y01645960D01*
X01363366D01*
X01369545Y01646773D01*
X01375564Y01648386D01*
X01381322Y01650771D01*
X01386718Y01653887D01*
X01391663Y01657681D01*
X01396069Y01662087D01*
X01399863Y01667032D01*
X01402539Y01671667D01*
X01405110Y01672534D01*
X01405659Y01672367D01*
X01408181Y01670681D01*
X01411038Y01669155D01*
X01414030Y01667915D01*
X01417129Y01666975D01*
X01420305Y01666343D01*
X01423528Y01666026D01*
X01425148Y01665986D01*
X01525764Y01665986D01*
X01526541D01*
X01528065Y01665683D01*
X01529500Y01665088D01*
X01530792Y01664225D01*
X01531891Y01663126D01*
X01532754Y01661834D01*
X01533349Y01660399D01*
X01533350Y01660393D01*
X01533652Y01658099D01*
Y01658098D01*
X01533652Y01658098D01*
X01533652Y01658098D01*
X01533652Y01547402D01*
Y01546223D01*
X01533192Y01543910D01*
X01532289Y01541731D01*
X01530979Y01539770D01*
X01529312Y01538103D01*
X01527351Y01536793D01*
X01525172Y01535890D01*
X01523814Y01535620D01*
X00952050D01*
X00951155Y01538120D01*
X00952891Y01539545D01*
X01018423Y01605077D01*
X01020740Y01607900D01*
X01022462Y01611121D01*
X01023522Y01614615D01*
X01023880Y01618250D01*
X01023880Y01618250D01*
Y01670783D01*
X01054923Y01701827D01*
X01057240Y01704650D01*
X01058962Y01707871D01*
X01059651Y01710145D01*
X01087500D01*
X01087994Y01710210D01*
X01091270D01*
X01095040Y01713980D01*
Y01714035D01*
X01097540Y01715070D01*
X01105494Y01707116D01*
X01107161Y01706002D01*
X01109128Y01705611D01*
X01144710D01*
Y01703210D01*
X01154381D01*
X01154875Y01703145D01*
X01155000D01*
X01155494Y01703210D01*
X01165790D01*
Y01718290D01*
X01160389D01*
Y01722210D01*
X01162790D01*
Y01727611D01*
X01171168D01*
X01172446Y01725946D01*
X01174439Y01724417D01*
X01176759Y01723456D01*
X01179250Y01723128D01*
X01185250D01*
X01187639Y01723442D01*
X01187846Y01723274D01*
X01189007Y01721274D01*
X01179616Y01711884D01*
X01178502Y01710217D01*
X01178111Y01708250D01*
Y01684129D01*
X01168290Y01674307D01*
X01165790Y01675343D01*
Y01688290D01*
X01144710D01*
Y01685889D01*
X01092750D01*
X01090783Y01685498D01*
X01089116Y01684384D01*
X01053773Y01649040D01*
X01052507D01*
X01050590Y01648526D01*
X01048870Y01647534D01*
X01047467Y01646130D01*
X01046474Y01644410D01*
X01045960Y01642493D01*
Y01640507D01*
X01046474Y01638590D01*
X01047467Y01636870D01*
X01048870Y01635466D01*
X01050590Y01634474D01*
X01052507Y01633960D01*
X01054493D01*
X01056410Y01634474D01*
X01058130Y01635466D01*
X01059533Y01636870D01*
X01060526Y01638590D01*
X01061040Y01640507D01*
Y01641773D01*
X01094878Y01675611D01*
X01144710D01*
Y01673210D01*
X01163657D01*
X01164693Y01670710D01*
X01159437Y01665455D01*
X01158324Y01663788D01*
X01157932Y01661821D01*
Y01659790D01*
X01152460D01*
Y01657389D01*
X01144540D01*
Y01659790D01*
X01123460D01*
Y01657389D01*
X01108141D01*
X01108117Y01657476D01*
X01106335Y01660564D01*
X01103814Y01663085D01*
X01100726Y01664867D01*
X01097283Y01665790D01*
X01093717D01*
X01090274Y01664867D01*
X01087186Y01663085D01*
X01084665Y01660564D01*
X01082883Y01657476D01*
X01081960Y01654033D01*
Y01650467D01*
X01082883Y01647024D01*
X01084665Y01643936D01*
X01087186Y01641415D01*
X01090274Y01639633D01*
X01093717Y01638710D01*
X01097283D01*
X01100726Y01639633D01*
X01103814Y01641415D01*
X01106335Y01643936D01*
X01108117Y01647024D01*
X01108141Y01647111D01*
X01123460D01*
Y01644710D01*
X01144540D01*
Y01647111D01*
X01152460D01*
Y01644710D01*
X01173540D01*
Y01659790D01*
X01171574D01*
X01170617Y01662100D01*
X01186884Y01678366D01*
X01187998Y01680034D01*
X01188389Y01682000D01*
Y01706122D01*
X01196308Y01714041D01*
X01198676Y01712873D01*
X01198659Y01712750D01*
X01199020Y01710009D01*
X01200078Y01707455D01*
X01201761Y01705261D01*
X01203955Y01703578D01*
X01206509Y01702520D01*
X01209250Y01702159D01*
X01210500D01*
Y01712750D01*
Y01723341D01*
X01209250D01*
X01209127Y01723324D01*
X01207960Y01725692D01*
X01216134Y01733866D01*
X01217248Y01735533D01*
X01217639Y01737500D01*
Y01739442D01*
X01217740Y01739456D01*
X01220061Y01740417D01*
X01222054Y01741946D01*
X01223583Y01743939D01*
X01224545Y01746259D01*
X01224872Y01748750D01*
X01224545Y01751240D01*
X01223583Y01753561D01*
X01222054Y01755554D01*
X01220061Y01757083D01*
X01217740Y01758044D01*
X01215250Y01758372D01*
X01209250D01*
X01206759Y01758044D01*
X01204439Y01757083D01*
X01202446Y01755554D01*
X01200917Y01753561D01*
X01199956Y01751240D01*
X01199628Y01748750D01*
X01199956Y01746259D01*
X01200917Y01743939D01*
X01202446Y01741946D01*
X01204439Y01740417D01*
X01204563Y01740365D01*
X01205149Y01737417D01*
X01196726Y01728993D01*
X01194726Y01730154D01*
X01194558Y01730361D01*
X01194872Y01732750D01*
X01194545Y01735240D01*
X01193583Y01737561D01*
X01192054Y01739554D01*
X01190061Y01741083D01*
X01187740Y01742044D01*
X01185250Y01742372D01*
X01179250D01*
X01176759Y01742044D01*
X01174439Y01741083D01*
X01172446Y01739554D01*
X01171168Y01737889D01*
X01162790D01*
Y01743290D01*
X01147710D01*
Y01722210D01*
X01150111D01*
Y01718290D01*
X01144710D01*
Y01715889D01*
X01111256D01*
X01069281Y01757864D01*
X01067614Y01758978D01*
X01065648Y01759369D01*
X01047898D01*
X00992139Y01815128D01*
Y01916250D01*
X00991748Y01918217D01*
X00990634Y01919884D01*
X00973484Y01937034D01*
X00971816Y01938148D01*
X00969850Y01938539D01*
X00960472D01*
X00959194Y01940204D01*
X00957201Y01941733D01*
X00954881Y01942695D01*
X00952390Y01943022D01*
X00948610D01*
X00946120Y01942695D01*
X00943799Y01941733D01*
X00941806Y01940204D01*
X00940277Y01938211D01*
X00939315Y01935891D01*
X00938988Y01933400D01*
X00939315Y01930910D01*
X00940277Y01928589D01*
X00941806Y01926596D01*
X00943799Y01925067D01*
X00946120Y01924106D01*
X00948610Y01923778D01*
X00952390D01*
X00954881Y01924106D01*
X00957201Y01925067D01*
X00959194Y01926596D01*
X00960472Y01928261D01*
X00967721D01*
X00981861Y01914122D01*
Y01813000D01*
X00982252Y01811033D01*
X00983366Y01809366D01*
X01042136Y01750596D01*
X01043803Y01749483D01*
X01045770Y01749091D01*
X01063519D01*
X01084946Y01727665D01*
X01083989Y01725355D01*
X01057236D01*
X01054923Y01728173D01*
X01052100Y01730490D01*
X01048879Y01732212D01*
X01045385Y01733272D01*
X01041750Y01733630D01*
X01038115Y01733272D01*
X01034621Y01732212D01*
X01031400Y01730490D01*
X01028577Y01728173D01*
X00992077Y01691673D01*
X00989760Y01688850D01*
X00988038Y01685629D01*
X00986978Y01682135D01*
X00986620Y01678500D01*
X00986620Y01678500D01*
Y01625967D01*
X00932001Y01571348D01*
X00803040D01*
Y01575611D01*
X00848250D01*
X00850217Y01576002D01*
X00851884Y01577116D01*
X00931634Y01656866D01*
X00932748Y01658533D01*
X00933139Y01660500D01*
Y01951871D01*
X00934929Y01953661D01*
X00940528D01*
X00941806Y01951996D01*
X00943799Y01950467D01*
X00946120Y01949506D01*
X00948610Y01949178D01*
X00952390D01*
X00954881Y01949506D01*
X00957201Y01950467D01*
X00959194Y01951996D01*
X00960723Y01953989D01*
X00961684Y01956310D01*
X00962012Y01958800D01*
X00961684Y01961291D01*
X00960723Y01963611D01*
X00959194Y01965604D01*
X00957201Y01967133D01*
X00954881Y01968095D01*
X00952390Y01968422D01*
X00948610D01*
X00946120Y01968095D01*
X00943799Y01967133D01*
X00941806Y01965604D01*
X00940528Y01963939D01*
X00932800D01*
X00930834Y01963548D01*
X00929166Y01962434D01*
X00928448Y01961716D01*
X00926139Y01962672D01*
Y01969621D01*
X00935579Y01979061D01*
X00940528D01*
X00941806Y01977396D01*
X00943799Y01975867D01*
X00946120Y01974906D01*
X00948610Y01974578D01*
X00952390D01*
X00954881Y01974906D01*
X00957201Y01975867D01*
X00959194Y01977396D01*
X00960723Y01979389D01*
X00961684Y01981710D01*
X00962012Y01984200D01*
X00961684Y01986691D01*
X00960723Y01989011D01*
X00959194Y01991004D01*
X00957201Y01992533D01*
X00954881Y01993495D01*
X00952390Y01993822D01*
X00948610D01*
X00946120Y01993495D01*
X00943799Y01992533D01*
X00941806Y01991004D01*
X00940528Y01989339D01*
X00933450D01*
X00931484Y01988948D01*
X00929817Y01987834D01*
X00921448Y01979466D01*
X00919139Y01980422D01*
Y01997372D01*
X00926229Y02004461D01*
X00940528D01*
X00941806Y02002796D01*
X00943799Y02001267D01*
X00946120Y02000306D01*
X00948610Y01999978D01*
X00952390D01*
X00954881Y02000306D01*
X00957201Y02001267D01*
X00959194Y02002796D01*
X00960723Y02004789D01*
X00961684Y02007110D01*
X00962012Y02009600D01*
X00961684Y02012091D01*
X00960723Y02014411D01*
X00959194Y02016404D01*
X00957201Y02017933D01*
X00954881Y02018895D01*
X00952390Y02019222D01*
X00948610D01*
X00946120Y02018895D01*
X00943799Y02017933D01*
X00941806Y02016404D01*
X00940528Y02014739D01*
X00924100D01*
X00922134Y02014348D01*
X00920467Y02013234D01*
X00913448Y02006216D01*
X00911139Y02007172D01*
Y02035500D01*
X00910748Y02037467D01*
X00909634Y02039134D01*
X00896392Y02052376D01*
X00896790Y02053862D01*
Y02056638D01*
X00896072Y02059318D01*
X00894684Y02061722D01*
X00892722Y02063684D01*
X00890318Y02065072D01*
X00887638Y02065790D01*
X00884862D01*
X00882182Y02065072D01*
X00879778Y02063684D01*
X00877816Y02061722D01*
X00876428Y02059318D01*
X00875710Y02056638D01*
Y02053862D01*
X00876428Y02051182D01*
X00877816Y02048778D01*
X00879778Y02046816D01*
X00882182Y02045428D01*
X00884862Y02044710D01*
X00887638D01*
X00889124Y02045108D01*
X00900861Y02033372D01*
Y01985172D01*
X00898552Y01984216D01*
X00896392Y01986376D01*
X00896790Y01987863D01*
Y01990638D01*
X00896072Y01993318D01*
X00894684Y01995722D01*
X00892722Y01997684D01*
X00890318Y01999072D01*
X00887638Y01999790D01*
X00884862D01*
X00882182Y01999072D01*
X00879778Y01997684D01*
X00877816Y01995722D01*
X00876428Y01993318D01*
X00875710Y01990638D01*
Y01987863D01*
X00876428Y01985182D01*
X00877816Y01982778D01*
X00879778Y01980816D01*
X00882182Y01979429D01*
X00884862Y01978710D01*
X00887638D01*
X00889124Y01979108D01*
X00894591Y01973642D01*
Y01933792D01*
X00892091Y01932798D01*
X00890318Y01933822D01*
X00887638Y01934540D01*
X00884862D01*
X00882182Y01933822D01*
X00879778Y01932434D01*
X00877816Y01930472D01*
X00876428Y01928068D01*
X00875710Y01925388D01*
Y01922612D01*
X00876428Y01919932D01*
X00877816Y01917528D01*
X00879778Y01915566D01*
X00882182Y01914178D01*
X00883216Y01913901D01*
Y01910395D01*
X00883607Y01908429D01*
X00884721Y01906762D01*
X00885111Y01906371D01*
Y01729379D01*
X00846871Y01691139D01*
X00787188D01*
X00785271Y01692549D01*
X00785271Y01692549D01*
X00785271D01*
X00785102Y01693460D01*
X00785246Y01693520D01*
X00787138Y01694303D01*
X00788697Y01695862D01*
X00789540Y01697898D01*
Y01700102D01*
X00788697Y01702138D01*
X00787138Y01703697D01*
X00786169Y01704098D01*
X00779139Y01711129D01*
Y01974621D01*
X00783579Y01979061D01*
X00788143D01*
X00789306Y01977546D01*
X00791299Y01976017D01*
X00793620Y01975056D01*
X00796110Y01974728D01*
X00799890D01*
X00802381Y01975056D01*
X00804701Y01976017D01*
X00806694Y01977546D01*
X00808223Y01979539D01*
X00809184Y01981860D01*
X00809512Y01984350D01*
X00809184Y01986841D01*
X00808223Y01989161D01*
X00806694Y01991154D01*
X00804701Y01992683D01*
X00802381Y01993645D01*
X00799890Y01993972D01*
X00796110D01*
X00793620Y01993645D01*
X00791299Y01992683D01*
X00789306Y01991154D01*
X00787913Y01989339D01*
X00781450D01*
X00779484Y01988948D01*
X00777816Y01987834D01*
X00770366Y01980384D01*
X00769252Y01978716D01*
X00768861Y01976750D01*
Y01709000D01*
X00769252Y01707034D01*
X00770366Y01705366D01*
X00778902Y01696831D01*
X00779303Y01695862D01*
X00780862Y01694303D01*
X00782754Y01693520D01*
X00782898Y01693460D01*
X00782729Y01692549D01*
X00782729D01*
X00782729Y01692549D01*
X00780813Y01691139D01*
X00710129D01*
X00688139Y01713129D01*
Y01744408D01*
X00689972Y01745466D01*
X00691934Y01747428D01*
X00693322Y01749832D01*
X00694040Y01752512D01*
Y01755288D01*
X00693322Y01757968D01*
X00691934Y01760372D01*
X00689972Y01762334D01*
X00687568Y01763722D01*
X00684888Y01764440D01*
X00682113D01*
X00679432Y01763722D01*
X00677028Y01762334D01*
X00675066Y01760372D01*
X00673679Y01757968D01*
X00672960Y01755288D01*
Y01752512D01*
X00673679Y01749832D01*
X00675066Y01747428D01*
X00677028Y01745466D01*
X00677861Y01744985D01*
Y01711000D01*
X00678252Y01709034D01*
X00679366Y01707366D01*
X00701284Y01685448D01*
X00700328Y01683139D01*
X00567128D01*
X00553639Y01696629D01*
Y01716179D01*
X00554040Y01717148D01*
Y01719352D01*
X00553197Y01721388D01*
X00551638Y01722947D01*
X00549602Y01723790D01*
X00547398D01*
X00545362Y01722947D01*
X00543803Y01721388D01*
X00542960Y01719352D01*
Y01717148D01*
X00543361Y01716179D01*
Y01694500D01*
X00543752Y01692534D01*
X00544866Y01690866D01*
X00561366Y01674366D01*
X00563033Y01673252D01*
X00565000Y01672861D01*
X00865000D01*
X00866966Y01673252D01*
X00868634Y01674366D01*
X00898552Y01704284D01*
X00900861Y01703328D01*
Y01692128D01*
X00873872Y01665139D01*
X00428129D01*
X00418889Y01674379D01*
Y01713429D01*
X00419290Y01714398D01*
Y01716602D01*
X00418447Y01718638D01*
X00416888Y01720197D01*
X00414852Y01721040D01*
X00412648D01*
X00410612Y01720197D01*
X00409053Y01718638D01*
X00408210Y01716602D01*
Y01714398D01*
X00408611Y01713429D01*
Y01672250D01*
X00409002Y01670284D01*
X00410116Y01668616D01*
X00422366Y01656366D01*
X00424034Y01655252D01*
X00426000Y01654861D01*
X00876000D01*
X00877967Y01655252D01*
X00879634Y01656366D01*
X00906552Y01683284D01*
X00908861Y01682328D01*
Y01674628D01*
X00864871Y01630638D01*
X00803040D01*
Y01636039D01*
X00787960D01*
Y01614960D01*
X00803040D01*
Y01620361D01*
X00864058D01*
X00865094Y01617861D01*
X00854622Y01607389D01*
X00797571D01*
X00796602Y01607790D01*
X00794398D01*
X00792362Y01606947D01*
X00790803Y01605388D01*
X00789960Y01603352D01*
Y01601148D01*
X00790803Y01599112D01*
X00792362Y01597553D01*
X00794398Y01596710D01*
X00796602D01*
X00797571Y01597111D01*
X00853809D01*
X00854844Y01594611D01*
X00846122Y01585889D01*
X00803040D01*
Y01590290D01*
X00787960D01*
Y01571348D01*
X00773040D01*
Y01590290D01*
X00757960D01*
Y01584888D01*
X00643129D01*
X00639557Y01588460D01*
X00640593Y01590960D01*
X00643240D01*
Y01612040D01*
X00622160D01*
Y01590960D01*
X00624907D01*
X00625943Y01588460D01*
X00621371Y01583889D01*
X00504128D01*
X00502139Y01585878D01*
Y01590960D01*
X00508240D01*
Y01612040D01*
X00487160D01*
Y01590960D01*
X00491861D01*
Y01585878D01*
X00489622Y01583639D01*
X00373129D01*
X00368307Y01588460D01*
X00368970Y01590960D01*
X00373240D01*
Y01612040D01*
X00352160D01*
Y01590960D01*
X00357561D01*
Y01586800D01*
X00357952Y01584834D01*
X00359066Y01583166D01*
X00367366Y01574866D01*
X00368891Y01573848D01*
X00368920Y01573663D01*
X00367719Y01571348D01*
X00352744D01*
X00348400Y01575692D01*
Y01607000D01*
Y01647641D01*
Y01700060D01*
X00348400Y01700060D01*
X00348042Y01703695D01*
X00346982Y01707190D01*
X00345260Y01710411D01*
X00343130Y01713006D01*
Y01757750D01*
Y01790038D01*
X00350962Y01797870D01*
X00518201D01*
X00518201Y01797870D01*
X00521836Y01798228D01*
X00525330Y01799288D01*
X00528551Y01801010D01*
X00531374Y01803327D01*
X00586713Y01858665D01*
X00586713Y01858666D01*
X00589030Y01861489D01*
X00590752Y01864710D01*
X00591812Y01868204D01*
X00592170Y01871839D01*
X00592170Y01871839D01*
Y01910823D01*
X00603173Y01921827D01*
X00605490Y01924650D01*
X00607212Y01927871D01*
X00608272Y01931366D01*
X00608630Y01935000D01*
X00608272Y01938634D01*
X00607212Y01942129D01*
X00605490Y01945350D01*
X00603173Y01948173D01*
X00600350Y01950490D01*
X00597129Y01952212D01*
X00593634Y01953272D01*
X00590000Y01953630D01*
X00586366Y01953272D01*
X00582871Y01952212D01*
X00579650Y01950490D01*
X00576827Y01948173D01*
X00560367Y01931713D01*
X00558050Y01928890D01*
X00556328Y01925669D01*
X00555268Y01922175D01*
X00554910Y01918540D01*
X00554910Y01918540D01*
Y01879556D01*
X00510485Y01835130D01*
X00343245D01*
X00339611Y01834772D01*
X00336116Y01833712D01*
X00332895Y01831990D01*
X00330072Y01829673D01*
X00330072Y01829673D01*
X00311327Y01810928D01*
X00309010Y01808105D01*
X00307288Y01804884D01*
X00306228Y01801389D01*
X00305870Y01797755D01*
X00305870Y01797755D01*
Y01757750D01*
Y01705331D01*
X00305870Y01705330D01*
X00306147Y01702522D01*
X00305371Y01701047D01*
X00304504Y01700022D01*
X00209370Y01700022D01*
X00207675Y01702262D01*
X00207647Y01702522D01*
X00207846Y01704040D01*
Y01717500D01*
X00207622Y01719207D01*
X00206963Y01720798D01*
X00205914Y01722164D01*
X00200414Y01727664D01*
X00199048Y01728713D01*
X00197457Y01729372D01*
X00195750Y01729596D01*
X00181240D01*
Y01736084D01*
X00181540Y01738460D01*
X00181540Y01738916D01*
Y01759540D01*
X00166460D01*
Y01755596D01*
X00155540D01*
Y01756540D01*
X00134460D01*
Y01741460D01*
X00138704D01*
Y01736540D01*
X00134760D01*
Y01709460D01*
X00155840D01*
Y01736540D01*
X00151896D01*
Y01741460D01*
X00155540D01*
Y01742404D01*
X00166460D01*
Y01739040D01*
X00166460Y01738460D01*
X00165060Y01736540D01*
X00160160D01*
Y01709460D01*
X00181240D01*
Y01716404D01*
X00193018D01*
X00194654Y01714768D01*
Y01704040D01*
X00194853Y01702522D01*
X00194825Y01702262D01*
X00193130Y01700022D01*
X00133096D01*
X00092202Y01740916D01*
X00092202Y01803202D01*
X00092202Y01803896D01*
X00092473Y01805257D01*
X00093004Y01806540D01*
X00093775Y01807694D01*
X00094757Y01808676D01*
X00095911Y01809447D01*
X00097193Y01809978D01*
X00098555Y01810249D01*
X00099249Y01810249D01*
X00099250Y01810250D01*
X00212586Y01810250D01*
X00213393Y01810290D01*
X00214978Y01810605D01*
X00216471Y01811223D01*
X00217814Y01812121D01*
X00218413Y01812664D01*
X00218414Y01812664D01*
X00272690Y01866939D01*
X00273103Y01867353D01*
X00274075Y01868002D01*
X00275154Y01868449D01*
X00276301Y01868677D01*
X00276885Y01868676D01*
X00276886Y01868678D01*
X00526428Y01868678D01*
X00527044Y01868739D01*
X00528184Y01869210D01*
X00529056Y01870083D01*
X00529528Y01871222D01*
X00529589Y01871839D01*
X00529590Y01871840D01*
Y01960703D01*
X00537239Y01968352D01*
X00666314D01*
X00667034Y01966660D01*
X00667118Y01965852D01*
X00664966Y01963700D01*
X00663315Y01960840D01*
X00662460Y01957651D01*
Y01954349D01*
X00663315Y01951160D01*
X00664966Y01948300D01*
X00667300Y01945966D01*
X00669172Y01944885D01*
Y01942115D01*
X00667300Y01941035D01*
X00664966Y01938700D01*
X00663315Y01935840D01*
X00662460Y01932651D01*
Y01929349D01*
X00663315Y01926160D01*
X00664966Y01923300D01*
X00667300Y01920966D01*
X00670160Y01919315D01*
X00673349Y01918460D01*
X00676651D01*
X00679840Y01919315D01*
X00682700Y01920966D01*
X00685034Y01923300D01*
X00686685Y01926160D01*
X00687540Y01929349D01*
Y01932651D01*
X00686685Y01935840D01*
X00685034Y01938700D01*
X00682700Y01941035D01*
X00680828Y01942115D01*
Y01944885D01*
X00682700Y01945966D01*
X00685034Y01948300D01*
X00686685Y01951160D01*
X00687540Y01954349D01*
Y01957651D01*
X00686685Y01960840D01*
X00685034Y01963700D01*
X00682700Y01966035D01*
X00680828Y01967115D01*
X00680651Y01968832D01*
X00680909Y01969874D01*
X00681324Y01970046D01*
X00681982Y01970551D01*
X00682700Y01970966D01*
X00683286Y01971552D01*
X00683944Y01972056D01*
X00684448Y01972714D01*
X00685034Y01973300D01*
X00685449Y01974018D01*
X00685954Y01974676D01*
X00686271Y01975442D01*
X00686685Y01976160D01*
X00686900Y01976960D01*
X00687217Y01977726D01*
X00687325Y01978548D01*
X00687540Y01979349D01*
Y01980178D01*
X00687648Y01981000D01*
X00687540Y01981822D01*
Y01982651D01*
X00687325Y01983452D01*
X00687217Y01984274D01*
X00686900Y01985040D01*
X00686685Y01985840D01*
X00686271Y01986558D01*
X00685954Y01987324D01*
X00685449Y01987982D01*
X00685034Y01988700D01*
X00684448Y01989286D01*
X00683944Y01989944D01*
X00683286Y01990448D01*
X00682700Y01991035D01*
X00681982Y01991449D01*
X00681324Y01991954D01*
X00680558Y01992271D01*
X00679840Y01992685D01*
X00679040Y01992900D01*
X00678274Y01993217D01*
X00677452Y01993325D01*
X00676651Y01993540D01*
X00675822D01*
X00675000Y01993648D01*
X00532090D01*
X00531991Y01993657D01*
X00529590Y01995853D01*
X00529590Y02002152D01*
X00530250Y02003882D01*
Y02016000D01*
X00532000D01*
Y02017750D01*
X00543437D01*
X00542716Y02020439D01*
X00541202Y02023061D01*
X00539061Y02025202D01*
X00536439Y02026716D01*
X00533514Y02027500D01*
X00532090D01*
X00529590Y02029629D01*
Y02130340D01*
Y02132162D01*
X00530301Y02135736D01*
X00531695Y02139102D01*
X00533720Y02142132D01*
X00536297Y02144709D01*
X00539326Y02146733D01*
X00542693Y02148128D01*
X00546267Y02148839D01*
X00548089Y02148839D01*
X00548090Y02148840D01*
X00572035D01*
X00573652Y02148919D01*
X00576822Y02149550D01*
X00579809Y02150787D01*
X00582496Y02152583D01*
X00583695Y02153670D01*
X00583696Y02153670D01*
X00695067Y02265041D01*
X00695782Y02265830D01*
X00696964Y02267599D01*
X00697778Y02269565D01*
X00698193Y02271651D01*
X00698245Y02272715D01*
X00698246Y02272715D01*
Y02299746D01*
X00698246Y02300902D01*
X00699131Y02303038D01*
X00700765Y02304672D01*
X00702901Y02305557D01*
X00704057D01*
X00704058Y02305558D01*
X00816239Y02305558D01*
X00817354Y02305558D01*
X00819541Y02305123D01*
D02*
G37*
G36*
X01551580Y01811750D02*
Y01794482D01*
X01560080D01*
X01568580D01*
Y01811750D01*
X01581000Y01811750D01*
X01581796Y01811750D01*
X01583266Y01811141D01*
X01584391Y01810016D01*
X01584575Y01809572D01*
X01585000Y01807750D01*
Y01807750D01*
X01585000D01*
X01585000Y01807750D01*
X01585000Y01761548D01*
X01585027Y01761004D01*
X01585239Y01759937D01*
X01585552Y01759181D01*
X01585655Y01758933D01*
X01585656Y01758931D01*
X01586259Y01758028D01*
X01586625Y01757625D01*
X01586625Y01757625D01*
X01600311Y01743939D01*
X01602157Y01742265D01*
X01606297Y01739499D01*
X01610898Y01737594D01*
X01615781Y01736622D01*
X01618271Y01736500D01*
X01681000D01*
X01681976Y01736596D01*
X01683778Y01737343D01*
X01685157Y01738722D01*
X01685904Y01740524D01*
X01686000Y01741500D01*
X01724577Y01741982D01*
X01726000Y01740577D01*
Y01628250D01*
Y01627554D01*
X01725467Y01626267D01*
X01724483Y01625283D01*
X01723196Y01624750D01*
X01547000D01*
X01545956Y01624750D01*
X01544026Y01625549D01*
X01542549Y01627026D01*
X01541750Y01628956D01*
X01541750Y01630000D01*
X01541750Y01808500D01*
Y01809146D01*
X01542245Y01810341D01*
X01543159Y01811255D01*
X01544353Y01811750D01*
X01545750D01*
X01551580Y01811750D01*
D02*
G37*
%LPC*%
G36*
X00737750Y02284831D02*
Y02278250D01*
X00744331D01*
X00743921Y02279781D01*
X00742802Y02281719D01*
X00741219Y02283302D01*
X00739281Y02284421D01*
X00737750Y02284831D01*
D02*
G37*
G36*
X00734250D02*
X00732719Y02284421D01*
X00730781Y02283302D01*
X00729198Y02281719D01*
X00728079Y02279781D01*
X00727669Y02278250D01*
X00734250D01*
Y02284831D01*
D02*
G37*
G36*
X00759770Y02284040D02*
X00752230D01*
X00748460Y02280270D01*
Y02272730D01*
X00752230Y02268960D01*
X00759770D01*
X00763540Y02272730D01*
Y02280270D01*
X00759770Y02284040D01*
D02*
G37*
G36*
X00744331Y02274750D02*
X00737750D01*
Y02268169D01*
X00739281Y02268579D01*
X00741219Y02269698D01*
X00742802Y02271281D01*
X00743921Y02273219D01*
X00744331Y02274750D01*
D02*
G37*
G36*
X00734250D02*
X00727669D01*
X00728079Y02273219D01*
X00729198Y02271281D01*
X00730781Y02269698D01*
X00732719Y02268579D01*
X00734250Y02268169D01*
Y02274750D01*
D02*
G37*
G36*
X00799890Y02222572D02*
X00796110D01*
X00793620Y02222245D01*
X00791299Y02221283D01*
X00789306Y02219754D01*
X00787777Y02217761D01*
X00786815Y02215441D01*
X00786488Y02212950D01*
X00786815Y02210460D01*
X00787777Y02208139D01*
X00789306Y02206146D01*
X00791299Y02204617D01*
X00793620Y02203656D01*
X00796110Y02203328D01*
X00799890D01*
X00802381Y02203656D01*
X00804701Y02204617D01*
X00806694Y02206146D01*
X00808223Y02208139D01*
X00809184Y02210460D01*
X00809512Y02212950D01*
X00809184Y02215441D01*
X00808223Y02217761D01*
X00806694Y02219754D01*
X00804701Y02221283D01*
X00802381Y02222245D01*
X00799890Y02222572D01*
D02*
G37*
G36*
X00952390Y02222422D02*
X00948610D01*
X00946120Y02222095D01*
X00943799Y02221133D01*
X00941806Y02219604D01*
X00940277Y02217611D01*
X00939315Y02215291D01*
X00938988Y02212800D01*
X00939315Y02210310D01*
X00940277Y02207989D01*
X00941806Y02205996D01*
X00943799Y02204467D01*
X00946120Y02203506D01*
X00948610Y02203178D01*
X00952390D01*
X00954881Y02203506D01*
X00957201Y02204467D01*
X00959194Y02205996D01*
X00960723Y02207989D01*
X00961684Y02210310D01*
X00962012Y02212800D01*
X00961684Y02215291D01*
X00960723Y02217611D01*
X00959194Y02219604D01*
X00957201Y02221133D01*
X00954881Y02222095D01*
X00952390Y02222422D01*
D02*
G37*
G36*
X01044138Y02228040D02*
X01041362D01*
X01038682Y02227322D01*
X01036278Y02225934D01*
X01035699Y02225355D01*
X00999500D01*
X00999006Y02225290D01*
X00988960D01*
Y02210210D01*
X00999006D01*
X00999500Y02210145D01*
X01035199D01*
X01036278Y02209066D01*
X01038682Y02207678D01*
X01041362Y02206960D01*
X01041266Y02204500D01*
X01041236D01*
X01038311Y02203716D01*
X01035689Y02202202D01*
X01033548Y02200061D01*
X01032034Y02197439D01*
X01031313Y02194750D01*
X01042750D01*
X01054187D01*
X01053466Y02197439D01*
X01051952Y02200061D01*
X01049811Y02202202D01*
X01047189Y02203716D01*
X01044264Y02204500D01*
X01044234D01*
X01044138Y02206960D01*
X01046818Y02207678D01*
X01049222Y02209066D01*
X01051184Y02211028D01*
X01052572Y02213432D01*
X01053290Y02216112D01*
Y02218888D01*
X01052572Y02221568D01*
X01051184Y02223972D01*
X01049222Y02225934D01*
X01046818Y02227322D01*
X01044138Y02228040D01*
D02*
G37*
G36*
X00739151Y02226290D02*
X00735849D01*
X00732660Y02225435D01*
X00729800Y02223784D01*
X00727466Y02221450D01*
X00725815Y02218590D01*
X00724960Y02215401D01*
Y02212099D01*
X00725815Y02208910D01*
X00727466Y02206050D01*
X00729800Y02203716D01*
X00730611Y02203248D01*
X00730611Y02200361D01*
X00729211Y02199553D01*
X00726697Y02197039D01*
X00724920Y02193961D01*
X00724000Y02190527D01*
Y02190500D01*
X00737500D01*
X00751000D01*
Y02190527D01*
X00750080Y02193961D01*
X00748303Y02197039D01*
X00745789Y02199553D01*
X00744389Y02200361D01*
X00744389Y02203248D01*
X00745200Y02203716D01*
X00747534Y02206050D01*
X00749185Y02208910D01*
X00750040Y02212099D01*
Y02215401D01*
X00749185Y02218590D01*
X00747534Y02221450D01*
X00745200Y02223784D01*
X00742340Y02225435D01*
X00739151Y02226290D01*
D02*
G37*
G36*
X00952390Y02197991D02*
X00952250D01*
Y02189150D01*
X00962750D01*
X00962620Y02190141D01*
X00961562Y02192695D01*
X00959879Y02194889D01*
X00957685Y02196572D01*
X00955131Y02197630D01*
X00952390Y02197991D01*
D02*
G37*
G36*
X00948750D02*
X00948610D01*
X00945869Y02197630D01*
X00943315Y02196572D01*
X00941121Y02194889D01*
X00939438Y02192695D01*
X00938380Y02190141D01*
X00938250Y02189150D01*
X00948750D01*
Y02197991D01*
D02*
G37*
G36*
X01054187Y02191250D02*
X01044500D01*
Y02181563D01*
X01047189Y02182284D01*
X01049811Y02183798D01*
X01051952Y02185939D01*
X01053466Y02188561D01*
X01054187Y02191250D01*
D02*
G37*
G36*
X01041000D02*
X01031313D01*
X01032034Y02188561D01*
X01033548Y02185939D01*
X01035689Y02183798D01*
X01038311Y02182284D01*
X01041000Y02181563D01*
Y02191250D01*
D02*
G37*
G36*
X00799890Y02197172D02*
X00796110D01*
X00793620Y02196844D01*
X00791299Y02195883D01*
X00789306Y02194354D01*
X00787777Y02192361D01*
X00786815Y02190040D01*
X00786488Y02187550D01*
X00786815Y02185060D01*
X00787777Y02182739D01*
X00789306Y02180746D01*
X00791299Y02179217D01*
X00793620Y02178256D01*
X00796110Y02177928D01*
X00799890D01*
X00802381Y02178256D01*
X00804701Y02179217D01*
X00806694Y02180746D01*
X00808223Y02182739D01*
X00809184Y02185060D01*
X00809512Y02187550D01*
X00809184Y02190040D01*
X00808223Y02192361D01*
X00806694Y02194354D01*
X00804701Y02195883D01*
X00802381Y02196844D01*
X00799890Y02197172D01*
D02*
G37*
G36*
X00962750Y02185650D02*
X00952250D01*
Y02176810D01*
X00952390D01*
X00955131Y02177170D01*
X00957685Y02178228D01*
X00959879Y02179911D01*
X00961562Y02182105D01*
X00962620Y02184659D01*
X00962750Y02185650D01*
D02*
G37*
G36*
X00948750D02*
X00938250D01*
X00938380Y02184659D01*
X00939438Y02182105D01*
X00941121Y02179911D01*
X00943315Y02178228D01*
X00945869Y02177170D01*
X00948610Y02176810D01*
X00948750D01*
Y02185650D01*
D02*
G37*
G36*
X00799890Y02171772D02*
X00796110D01*
X00793620Y02171445D01*
X00791299Y02170483D01*
X00789306Y02168954D01*
X00787777Y02166961D01*
X00786815Y02164641D01*
X00786488Y02162150D01*
X00786815Y02159660D01*
X00787777Y02157339D01*
X00789306Y02155346D01*
X00791299Y02153817D01*
X00793620Y02152856D01*
X00796110Y02152528D01*
X00799890D01*
X00802381Y02152856D01*
X00804701Y02153817D01*
X00806694Y02155346D01*
X00808223Y02157339D01*
X00809184Y02159660D01*
X00809512Y02162150D01*
X00809184Y02164641D01*
X00808223Y02166961D01*
X00806694Y02168954D01*
X00804701Y02170483D01*
X00802381Y02171445D01*
X00799890Y02171772D01*
D02*
G37*
G36*
X00952390Y02171622D02*
X00948610D01*
X00946120Y02171295D01*
X00943799Y02170333D01*
X00941806Y02168804D01*
X00940277Y02166811D01*
X00939315Y02164491D01*
X00938988Y02162000D01*
X00939315Y02159510D01*
X00940277Y02157189D01*
X00941806Y02155196D01*
X00943799Y02153667D01*
X00946120Y02152706D01*
X00948610Y02152378D01*
X00952390D01*
X00954881Y02152706D01*
X00957201Y02153667D01*
X00959194Y02155196D01*
X00960723Y02157189D01*
X00961684Y02159510D01*
X00962012Y02162000D01*
X00961684Y02164491D01*
X00960723Y02166811D01*
X00959194Y02168804D01*
X00957201Y02170333D01*
X00954881Y02171295D01*
X00952390Y02171622D01*
D02*
G37*
G36*
X00751000Y02187000D02*
X00737500D01*
X00724000D01*
Y02186973D01*
X00724920Y02183539D01*
X00726697Y02180461D01*
X00729211Y02177947D01*
X00730611Y02177139D01*
X00730611Y02174252D01*
X00729800Y02173784D01*
X00727466Y02171450D01*
X00725815Y02168590D01*
X00724960Y02165401D01*
Y02162099D01*
X00725815Y02158910D01*
X00727466Y02156050D01*
X00729800Y02153716D01*
X00732660Y02152065D01*
X00735849Y02151210D01*
X00739151D01*
X00742340Y02152065D01*
X00745200Y02153716D01*
X00747534Y02156050D01*
X00749185Y02158910D01*
X00750040Y02162099D01*
Y02165401D01*
X00749185Y02168590D01*
X00747534Y02171450D01*
X00745200Y02173784D01*
X00744389Y02174252D01*
X00744389Y02177139D01*
X00745789Y02177947D01*
X00748303Y02180461D01*
X00750080Y02183539D01*
X00751000Y02186973D01*
Y02187000D01*
D02*
G37*
G36*
X00999500Y02195355D02*
X00999006Y02195290D01*
X00988960D01*
Y02180210D01*
X00991895D01*
Y02156400D01*
X00979700Y02144205D01*
X00958150D01*
X00957201Y02144933D01*
X00954881Y02145895D01*
X00952390Y02146222D01*
X00948610D01*
X00946120Y02145895D01*
X00943799Y02144933D01*
X00941806Y02143404D01*
X00940277Y02141411D01*
X00939315Y02139091D01*
X00938988Y02136600D01*
X00939315Y02134110D01*
X00940277Y02131789D01*
X00941806Y02129796D01*
X00943799Y02128267D01*
X00946120Y02127306D01*
X00948610Y02126978D01*
X00952390D01*
X00954881Y02127306D01*
X00957201Y02128267D01*
X00958150Y02128995D01*
X00982850D01*
X00984818Y02129254D01*
X00986653Y02130014D01*
X00988228Y02131223D01*
X01004878Y02147872D01*
X01006086Y02149447D01*
X01006846Y02151282D01*
X01007105Y02153250D01*
Y02180210D01*
X01010040D01*
Y02195290D01*
X00999994D01*
X00999500Y02195355D01*
D02*
G37*
G36*
X00799890Y02146372D02*
X00796110D01*
X00793620Y02146044D01*
X00791299Y02145083D01*
X00789306Y02143554D01*
X00787777Y02141561D01*
X00786815Y02139241D01*
X00786488Y02136750D01*
X00786815Y02134260D01*
X00787777Y02131939D01*
X00789306Y02129946D01*
X00791299Y02128417D01*
X00793620Y02127456D01*
X00796110Y02127128D01*
X00799890D01*
X00802381Y02127456D01*
X00804701Y02128417D01*
X00806694Y02129946D01*
X00808223Y02131939D01*
X00809184Y02134260D01*
X00809512Y02136750D01*
X00809184Y02139241D01*
X00808223Y02141561D01*
X00806694Y02143554D01*
X00804701Y02145083D01*
X00802381Y02146044D01*
X00799890Y02146372D01*
D02*
G37*
G36*
Y02120972D02*
X00796110D01*
X00793620Y02120645D01*
X00791299Y02119683D01*
X00789306Y02118154D01*
X00787777Y02116161D01*
X00786815Y02113840D01*
X00786488Y02111350D01*
X00786815Y02108860D01*
X00787777Y02106539D01*
X00789306Y02104546D01*
X00791299Y02103017D01*
X00793620Y02102056D01*
X00796110Y02101728D01*
X00799890D01*
X00802381Y02102056D01*
X00804701Y02103017D01*
X00806694Y02104546D01*
X00808223Y02106539D01*
X00809184Y02108860D01*
X00809512Y02111350D01*
X00809184Y02113840D01*
X00808223Y02116161D01*
X00806694Y02118154D01*
X00804701Y02119683D01*
X00802381Y02120645D01*
X00799890Y02120972D01*
D02*
G37*
G36*
X00952390Y02120822D02*
X00948610D01*
X00946120Y02120495D01*
X00943799Y02119533D01*
X00941806Y02118004D01*
X00940277Y02116011D01*
X00939315Y02113691D01*
X00938988Y02111200D01*
X00939315Y02108710D01*
X00940277Y02106389D01*
X00941806Y02104396D01*
X00943799Y02102867D01*
X00946120Y02101906D01*
X00948610Y02101578D01*
X00952390D01*
X00954881Y02101906D01*
X00957201Y02102867D01*
X00959194Y02104396D01*
X00960723Y02106389D01*
X00961684Y02108710D01*
X00962012Y02111200D01*
X00961684Y02113691D01*
X00960723Y02116011D01*
X00959194Y02118004D01*
X00957201Y02119533D01*
X00954881Y02120495D01*
X00952390Y02120822D01*
D02*
G37*
G36*
X00560283Y02109790D02*
X00556717D01*
X00553274Y02108867D01*
X00550186Y02107085D01*
X00547665Y02104564D01*
X00545883Y02101476D01*
X00544960Y02098032D01*
Y02094467D01*
X00545883Y02091024D01*
X00547665Y02087936D01*
X00550186Y02085415D01*
X00553274Y02083633D01*
X00556717Y02082710D01*
X00560283D01*
X00563726Y02083633D01*
X00566814Y02085415D01*
X00569335Y02087936D01*
X00571117Y02091024D01*
X00572040Y02094467D01*
Y02098032D01*
X00571117Y02101476D01*
X00569335Y02104564D01*
X00566814Y02107085D01*
X00563726Y02108867D01*
X00560283Y02109790D01*
D02*
G37*
G36*
X00635533Y02109290D02*
X00631967D01*
X00628524Y02108367D01*
X00625436Y02106585D01*
X00622915Y02104064D01*
X00621133Y02100976D01*
X00620210Y02097533D01*
Y02093967D01*
X00621133Y02090524D01*
X00622915Y02087436D01*
X00625436Y02084915D01*
X00628524Y02083133D01*
X00631967Y02082210D01*
X00635533D01*
X00638976Y02083133D01*
X00642064Y02084915D01*
X00644585Y02087436D01*
X00646367Y02090524D01*
X00647290Y02093967D01*
Y02097533D01*
X00646367Y02100976D01*
X00644585Y02104064D01*
X00642064Y02106585D01*
X00638976Y02108367D01*
X00635533Y02109290D01*
D02*
G37*
G36*
X00799890Y02095572D02*
X00796110D01*
X00793620Y02095244D01*
X00791299Y02094283D01*
X00789306Y02092754D01*
X00787777Y02090761D01*
X00786815Y02088441D01*
X00786488Y02085950D01*
X00786815Y02083460D01*
X00787777Y02081139D01*
X00789306Y02079146D01*
X00791299Y02077617D01*
X00793620Y02076656D01*
X00796110Y02076328D01*
X00799890D01*
X00802381Y02076656D01*
X00804701Y02077617D01*
X00806694Y02079146D01*
X00808223Y02081139D01*
X00809184Y02083460D01*
X00809512Y02085950D01*
X00809184Y02088441D01*
X00808223Y02090761D01*
X00806694Y02092754D01*
X00804701Y02094283D01*
X00802381Y02095244D01*
X00799890Y02095572D01*
D02*
G37*
G36*
X00952390Y02095422D02*
X00948610D01*
X00946120Y02095095D01*
X00943799Y02094133D01*
X00941806Y02092604D01*
X00940277Y02090611D01*
X00939315Y02088291D01*
X00938988Y02085800D01*
X00939315Y02083310D01*
X00940277Y02080989D01*
X00941806Y02078996D01*
X00943799Y02077467D01*
X00946120Y02076506D01*
X00948610Y02076178D01*
X00952390D01*
X00954881Y02076506D01*
X00957201Y02077467D01*
X00959194Y02078996D01*
X00960723Y02080989D01*
X00961684Y02083310D01*
X00962012Y02085800D01*
X00961684Y02088291D01*
X00960723Y02090611D01*
X00959194Y02092604D01*
X00957201Y02094133D01*
X00954881Y02095095D01*
X00952390Y02095422D01*
D02*
G37*
G36*
X00839040Y02095790D02*
X00823960D01*
Y02083246D01*
X00823861Y02082750D01*
Y02081129D01*
X00809988Y02067255D01*
X00806770D01*
X00806694Y02067354D01*
X00804701Y02068883D01*
X00802381Y02069845D01*
X00799890Y02070172D01*
X00796110D01*
X00793620Y02069845D01*
X00791299Y02068883D01*
X00789306Y02067354D01*
X00787777Y02065361D01*
X00786815Y02063040D01*
X00786488Y02060550D01*
X00786815Y02058060D01*
X00787777Y02055739D01*
X00789306Y02053746D01*
X00791299Y02052217D01*
X00793620Y02051256D01*
X00796110Y02050928D01*
X00799890D01*
X00802381Y02051256D01*
X00804701Y02052217D01*
X00806694Y02053746D01*
X00808223Y02055739D01*
X00808736Y02056978D01*
X00812116D01*
X00814083Y02057369D01*
X00815750Y02058483D01*
X00831977Y02074710D01*
X00839040D01*
Y02095790D01*
D02*
G37*
G36*
X00835250Y02066687D02*
X00832561Y02065966D01*
X00829939Y02064452D01*
X00827798Y02062311D01*
X00826284Y02059689D01*
X00825563Y02057000D01*
X00835250D01*
Y02066687D01*
D02*
G37*
G36*
X00869040Y02095790D02*
X00853960D01*
Y02074710D01*
X00856361D01*
Y02064454D01*
X00855028Y02063684D01*
X00853066Y02061722D01*
X00851678Y02059318D01*
X00850960Y02056638D01*
X00848500Y02056734D01*
Y02056764D01*
X00847716Y02059689D01*
X00846202Y02062311D01*
X00844061Y02064452D01*
X00841439Y02065966D01*
X00838750Y02066687D01*
Y02055250D01*
Y02043813D01*
X00841439Y02044534D01*
X00844061Y02046048D01*
X00846202Y02048189D01*
X00847716Y02050811D01*
X00848500Y02053736D01*
Y02053766D01*
X00850960Y02053862D01*
X00851678Y02051182D01*
X00853066Y02048778D01*
X00855028Y02046816D01*
X00857432Y02045428D01*
X00860112Y02044710D01*
X00862888D01*
X00865568Y02045428D01*
X00867972Y02046816D01*
X00869934Y02048778D01*
X00871322Y02051182D01*
X00872040Y02053862D01*
Y02056638D01*
X00871322Y02059318D01*
X00869934Y02061722D01*
X00867972Y02063684D01*
X00866639Y02064454D01*
Y02074710D01*
X00869040D01*
Y02095790D01*
D02*
G37*
G36*
X00952390Y02070022D02*
X00948610D01*
X00946120Y02069695D01*
X00943799Y02068733D01*
X00941806Y02067204D01*
X00940277Y02065211D01*
X00939315Y02062891D01*
X00938988Y02060400D01*
X00939315Y02057910D01*
X00940277Y02055589D01*
X00941806Y02053596D01*
X00943799Y02052067D01*
X00946120Y02051106D01*
X00948610Y02050778D01*
X00952390D01*
X00954881Y02051106D01*
X00957201Y02052067D01*
X00959194Y02053596D01*
X00960723Y02055589D01*
X00961684Y02057910D01*
X00962012Y02060400D01*
X00961684Y02062891D01*
X00960723Y02065211D01*
X00959194Y02067204D01*
X00957201Y02068733D01*
X00954881Y02069695D01*
X00952390Y02070022D01*
D02*
G37*
G36*
X00835250Y02053500D02*
X00825563D01*
X00826284Y02050811D01*
X00827798Y02048189D01*
X00829939Y02046048D01*
X00832561Y02044534D01*
X00835250Y02043813D01*
Y02053500D01*
D02*
G37*
G36*
X00952390Y02044622D02*
X00948610D01*
X00946120Y02044295D01*
X00943799Y02043333D01*
X00941806Y02041804D01*
X00940277Y02039811D01*
X00939315Y02037491D01*
X00938988Y02035000D01*
X00939315Y02032510D01*
X00940277Y02030189D01*
X00941806Y02028196D01*
X00943799Y02026667D01*
X00946120Y02025706D01*
X00948610Y02025378D01*
X00952390D01*
X00954881Y02025706D01*
X00957201Y02026667D01*
X00959194Y02028196D01*
X00960723Y02030189D01*
X00961684Y02032510D01*
X00962012Y02035000D01*
X00961684Y02037491D01*
X00960723Y02039811D01*
X00959194Y02041804D01*
X00957201Y02043333D01*
X00954881Y02044295D01*
X00952390Y02044622D01*
D02*
G37*
G36*
X00799890Y02044772D02*
X00796110D01*
X00793620Y02044444D01*
X00791299Y02043483D01*
X00789306Y02041954D01*
X00787777Y02039961D01*
X00786815Y02037641D01*
X00786488Y02035150D01*
X00786815Y02032660D01*
X00787777Y02030339D01*
X00789306Y02028346D01*
X00791299Y02026817D01*
X00793620Y02025856D01*
X00796110Y02025528D01*
X00799890D01*
X00802381Y02025856D01*
X00804701Y02026817D01*
X00806694Y02028346D01*
X00807857Y02029861D01*
X00816622D01*
X00823960Y02022523D01*
Y02008710D01*
X00839040D01*
Y02029790D01*
X00831227D01*
X00822384Y02038634D01*
X00820717Y02039748D01*
X00818750Y02040139D01*
X00808087D01*
X00806694Y02041954D01*
X00804701Y02043483D01*
X00802381Y02044444D01*
X00799890Y02044772D01*
D02*
G37*
G36*
X00543437Y02014250D02*
X00533750D01*
Y02004563D01*
X00536439Y02005284D01*
X00539061Y02006798D01*
X00541202Y02008939D01*
X00542716Y02011561D01*
X00543437Y02014250D01*
D02*
G37*
G36*
X00869040Y02029790D02*
X00853960D01*
Y02008710D01*
X00856361D01*
Y01998454D01*
X00855028Y01997684D01*
X00853066Y01995722D01*
X00851678Y01993318D01*
X00850960Y01990638D01*
X00848500Y01990734D01*
Y01990764D01*
X00847716Y01993689D01*
X00846202Y01996311D01*
X00844061Y01998452D01*
X00841439Y01999966D01*
X00838750Y02000687D01*
Y01989250D01*
Y01977813D01*
X00841439Y01978534D01*
X00844061Y01980048D01*
X00846202Y01982189D01*
X00847716Y01984811D01*
X00848500Y01987736D01*
Y01987766D01*
X00850960Y01987863D01*
X00851678Y01985182D01*
X00853066Y01982778D01*
X00855028Y01980816D01*
X00857432Y01979429D01*
X00860112Y01978710D01*
X00862888D01*
X00865568Y01979429D01*
X00867972Y01980816D01*
X00869934Y01982778D01*
X00871322Y01985182D01*
X00872040Y01987863D01*
Y01990638D01*
X00871322Y01993318D01*
X00869934Y01995722D01*
X00867972Y01997684D01*
X00866639Y01998454D01*
Y02008710D01*
X00869040D01*
Y02029790D01*
D02*
G37*
G36*
X00799890Y02019372D02*
X00796110D01*
X00793620Y02019044D01*
X00791299Y02018083D01*
X00789306Y02016554D01*
X00787777Y02014561D01*
X00786815Y02012240D01*
X00786488Y02009750D01*
X00786815Y02007260D01*
X00787777Y02004939D01*
X00789306Y02002946D01*
X00791299Y02001417D01*
X00793620Y02000456D01*
X00796110Y02000128D01*
X00799890D01*
X00802381Y02000456D01*
X00804701Y02001417D01*
X00806584Y02002861D01*
X00809872D01*
X00813861Y01998871D01*
Y01969750D01*
X00814252Y01967783D01*
X00815366Y01966116D01*
X00819652Y01961831D01*
X00819652Y01961831D01*
X00823960Y01957523D01*
Y01943710D01*
X00839040D01*
Y01964790D01*
X00831227D01*
X00826919Y01969098D01*
X00826919Y01969098D01*
X00824139Y01971879D01*
Y01983527D01*
X00826639Y01984196D01*
X00827798Y01982189D01*
X00829939Y01980048D01*
X00832561Y01978534D01*
X00835250Y01977813D01*
Y01989250D01*
Y02000687D01*
X00832561Y01999966D01*
X00829939Y01998452D01*
X00827798Y01996311D01*
X00826639Y01994304D01*
X00824139Y01994974D01*
Y02001000D01*
X00823748Y02002966D01*
X00822634Y02004634D01*
X00815634Y02011634D01*
X00813967Y02012748D01*
X00812000Y02013139D01*
X00808812D01*
X00808223Y02014561D01*
X00806694Y02016554D01*
X00804701Y02018083D01*
X00802381Y02019044D01*
X00799890Y02019372D01*
D02*
G37*
G36*
Y01968572D02*
X00796110D01*
X00793620Y01968244D01*
X00791299Y01967283D01*
X00789306Y01965754D01*
X00787777Y01963761D01*
X00786815Y01961440D01*
X00786488Y01958950D01*
X00786815Y01956460D01*
X00787777Y01954139D01*
X00789306Y01952146D01*
X00791299Y01950617D01*
X00793620Y01949656D01*
X00796110Y01949328D01*
X00799890D01*
X00802381Y01949656D01*
X00804701Y01950617D01*
X00806694Y01952146D01*
X00808223Y01954139D01*
X00809184Y01956460D01*
X00809512Y01958950D01*
X00809184Y01961440D01*
X00808223Y01963761D01*
X00806694Y01965754D01*
X00804701Y01967283D01*
X00802381Y01968244D01*
X00799890Y01968572D01*
D02*
G37*
G36*
X00835250Y01935437D02*
X00832561Y01934716D01*
X00829939Y01933202D01*
X00827798Y01931061D01*
X00826284Y01928439D01*
X00825563Y01925750D01*
X00835250D01*
Y01935437D01*
D02*
G37*
G36*
X00869040Y01964790D02*
X00853960D01*
Y01943710D01*
X00856361D01*
Y01933204D01*
X00855028Y01932434D01*
X00853066Y01930472D01*
X00851678Y01928068D01*
X00850960Y01925388D01*
X00848500Y01925484D01*
Y01925514D01*
X00847716Y01928439D01*
X00846202Y01931061D01*
X00844061Y01933202D01*
X00841439Y01934716D01*
X00838750Y01935437D01*
Y01924000D01*
Y01912563D01*
X00841439Y01913284D01*
X00844061Y01914798D01*
X00846202Y01916939D01*
X00847716Y01919561D01*
X00848500Y01922486D01*
Y01922516D01*
X00850960Y01922612D01*
X00851678Y01919932D01*
X00853066Y01917528D01*
X00855028Y01915566D01*
X00857432Y01914178D01*
X00860112Y01913460D01*
X00862888D01*
X00865568Y01914178D01*
X00867972Y01915566D01*
X00869934Y01917528D01*
X00871322Y01919932D01*
X00872040Y01922612D01*
Y01925388D01*
X00871322Y01928068D01*
X00869934Y01930472D01*
X00867972Y01932434D01*
X00866639Y01933204D01*
Y01943710D01*
X00869040D01*
Y01964790D01*
D02*
G37*
G36*
X00799890Y01943172D02*
X00796110D01*
X00793620Y01942845D01*
X00791299Y01941883D01*
X00789306Y01940354D01*
X00787777Y01938361D01*
X00786815Y01936040D01*
X00786488Y01933550D01*
X00786815Y01931060D01*
X00787777Y01928739D01*
X00789306Y01926746D01*
X00791299Y01925217D01*
X00793620Y01924256D01*
X00796110Y01923928D01*
X00799890D01*
X00802381Y01924256D01*
X00804701Y01925217D01*
X00806694Y01926746D01*
X00808223Y01928739D01*
X00809184Y01931060D01*
X00809512Y01933550D01*
X00809184Y01936040D01*
X00808223Y01938361D01*
X00806694Y01940354D01*
X00804701Y01941883D01*
X00802381Y01942845D01*
X00799890Y01943172D01*
D02*
G37*
G36*
X00835250Y01922250D02*
X00825563D01*
X00826284Y01919561D01*
X00827798Y01916939D01*
X00829939Y01914798D01*
X00832561Y01913284D01*
X00835250Y01912563D01*
Y01922250D01*
D02*
G37*
G36*
X00799890Y01917772D02*
X00796110D01*
X00793620Y01917444D01*
X00791299Y01916483D01*
X00789306Y01914954D01*
X00787777Y01912961D01*
X00786815Y01910641D01*
X00786488Y01908150D01*
X00786815Y01905660D01*
X00787777Y01903339D01*
X00789306Y01901346D01*
X00791299Y01899817D01*
X00793620Y01898856D01*
X00796110Y01898528D01*
X00799890D01*
X00802381Y01898856D01*
X00804701Y01899817D01*
X00806694Y01901346D01*
X00808223Y01903339D01*
X00809184Y01905660D01*
X00809512Y01908150D01*
X00809184Y01910641D01*
X00808223Y01912961D01*
X00806694Y01914954D01*
X00804701Y01916483D01*
X00802381Y01917444D01*
X00799890Y01917772D01*
D02*
G37*
G36*
X00952390Y01917622D02*
X00948610D01*
X00946120Y01917295D01*
X00943799Y01916333D01*
X00941806Y01914804D01*
X00940277Y01912811D01*
X00939315Y01910491D01*
X00938988Y01908000D01*
X00939315Y01905510D01*
X00940277Y01903189D01*
X00941806Y01901196D01*
X00943799Y01899667D01*
X00946120Y01898706D01*
X00948610Y01898378D01*
X00952390D01*
X00954881Y01898706D01*
X00957201Y01899667D01*
X00959194Y01901196D01*
X00960723Y01903189D01*
X00961684Y01905510D01*
X00962012Y01908000D01*
X00961684Y01910491D01*
X00960723Y01912811D01*
X00959194Y01914804D01*
X00957201Y01916333D01*
X00954881Y01917295D01*
X00952390Y01917622D01*
D02*
G37*
G36*
X01144000Y01895700D02*
X01134250D01*
Y01888950D01*
X01144000D01*
Y01895700D01*
D02*
G37*
G36*
X01130750D02*
X01121000D01*
Y01888950D01*
X01130750D01*
Y01895700D01*
D02*
G37*
G36*
X01144000Y01885450D02*
X01134250D01*
Y01878700D01*
X01144000D01*
Y01885450D01*
D02*
G37*
G36*
X01130750D02*
X01121000D01*
Y01878700D01*
X01130750D01*
Y01885450D01*
D02*
G37*
G36*
X00799890Y01892372D02*
X00796110D01*
X00793620Y01892045D01*
X00791299Y01891083D01*
X00789306Y01889554D01*
X00787777Y01887561D01*
X00786815Y01885240D01*
X00786488Y01882750D01*
X00786815Y01880260D01*
X00787777Y01877939D01*
X00789306Y01875946D01*
X00791299Y01874417D01*
X00793620Y01873456D01*
X00796110Y01873128D01*
X00799890D01*
X00802381Y01873456D01*
X00804701Y01874417D01*
X00806694Y01875946D01*
X00808223Y01877939D01*
X00809184Y01880260D01*
X00809512Y01882750D01*
X00809184Y01885240D01*
X00808223Y01887561D01*
X00806694Y01889554D01*
X00804701Y01891083D01*
X00802381Y01892045D01*
X00799890Y01892372D01*
D02*
G37*
G36*
X00952390Y01892222D02*
X00948610D01*
X00946120Y01891895D01*
X00943799Y01890933D01*
X00941806Y01889404D01*
X00940277Y01887411D01*
X00939315Y01885091D01*
X00938988Y01882600D01*
X00939315Y01880110D01*
X00940277Y01877789D01*
X00941806Y01875796D01*
X00943799Y01874267D01*
X00946120Y01873306D01*
X00948610Y01872978D01*
X00952390D01*
X00954881Y01873306D01*
X00957201Y01874267D01*
X00959194Y01875796D01*
X00960723Y01877789D01*
X00961684Y01880110D01*
X00962012Y01882600D01*
X00961684Y01885091D01*
X00960723Y01887411D01*
X00959194Y01889404D01*
X00957201Y01890933D01*
X00954881Y01891895D01*
X00952390Y01892222D01*
D02*
G37*
G36*
X01064033Y01896140D02*
X01060467D01*
X01057024Y01895217D01*
X01053936Y01893435D01*
X01051415Y01890914D01*
X01049633Y01887826D01*
X01048710Y01884383D01*
Y01880818D01*
X01049633Y01877374D01*
X01051415Y01874286D01*
X01053936Y01871765D01*
X01057024Y01869983D01*
X01060467Y01869060D01*
X01064033D01*
X01067476Y01869983D01*
X01070564Y01871765D01*
X01073085Y01874286D01*
X01074867Y01877374D01*
X01075790Y01880818D01*
Y01884383D01*
X01074867Y01887826D01*
X01073085Y01890914D01*
X01070564Y01893435D01*
X01067476Y01895217D01*
X01064033Y01896140D01*
D02*
G37*
G36*
X00799890Y01866972D02*
X00796110D01*
X00793620Y01866644D01*
X00791299Y01865683D01*
X00789306Y01864154D01*
X00787777Y01862161D01*
X00786815Y01859841D01*
X00786488Y01857350D01*
X00786815Y01854860D01*
X00787777Y01852539D01*
X00789306Y01850546D01*
X00791299Y01849017D01*
X00793620Y01848056D01*
X00796110Y01847728D01*
X00799890D01*
X00802381Y01848056D01*
X00804701Y01849017D01*
X00806694Y01850546D01*
X00808223Y01852539D01*
X00809184Y01854860D01*
X00809512Y01857350D01*
X00809184Y01859841D01*
X00808223Y01862161D01*
X00806694Y01864154D01*
X00804701Y01865683D01*
X00802381Y01866644D01*
X00799890Y01866972D01*
D02*
G37*
G36*
X00952390Y01866822D02*
X00948610D01*
X00946120Y01866495D01*
X00943799Y01865533D01*
X00941806Y01864004D01*
X00940277Y01862011D01*
X00939315Y01859691D01*
X00938988Y01857200D01*
X00939315Y01854710D01*
X00940277Y01852389D01*
X00941806Y01850396D01*
X00943799Y01848867D01*
X00946120Y01847906D01*
X00948610Y01847578D01*
X00952390D01*
X00954881Y01847906D01*
X00957201Y01848867D01*
X00959194Y01850396D01*
X00960723Y01852389D01*
X00961684Y01854710D01*
X00962012Y01857200D01*
X00961684Y01859691D01*
X00960723Y01862011D01*
X00959194Y01864004D01*
X00957201Y01865533D01*
X00954881Y01866495D01*
X00952390Y01866822D01*
D02*
G37*
G36*
X01144000Y01844900D02*
X01134250D01*
Y01838150D01*
X01144000D01*
Y01844900D01*
D02*
G37*
G36*
X01130750D02*
X01121000D01*
Y01838150D01*
X01130750D01*
Y01844900D01*
D02*
G37*
G36*
X00656743Y01858540D02*
X00654757D01*
X00652840Y01858026D01*
X00651120Y01857034D01*
X00649716Y01855630D01*
X00648724Y01853910D01*
X00648210Y01851993D01*
Y01850477D01*
X00636121Y01838389D01*
X00635200D01*
X00634704Y01838290D01*
X00622160D01*
Y01823210D01*
X00643240D01*
Y01830973D01*
X00645250Y01832983D01*
X00647560Y01832027D01*
Y01823210D01*
X00668640D01*
Y01831023D01*
X00672482Y01834865D01*
X00676972D01*
X00678119Y01833718D01*
X00679838Y01832726D01*
X00681756Y01832212D01*
X00683741D01*
X00685659Y01832726D01*
X00687378Y01833718D01*
X00688782Y01835122D01*
X00689774Y01836841D01*
X00690288Y01838759D01*
Y01840744D01*
X00689774Y01842662D01*
X00688782Y01844381D01*
X00687378Y01845785D01*
X00685659Y01846778D01*
X00683741Y01847292D01*
X00681756D01*
X00679838Y01846778D01*
X00678119Y01845785D01*
X00677476Y01845142D01*
X00670353D01*
X00668387Y01844751D01*
X00666720Y01843637D01*
X00661373Y01838290D01*
X00653824D01*
X00652867Y01840600D01*
X00655727Y01843460D01*
X00656743D01*
X00658660Y01843974D01*
X00660380Y01844966D01*
X00661784Y01846370D01*
X00662776Y01848090D01*
X00663290Y01850007D01*
Y01851993D01*
X00662776Y01853910D01*
X00661784Y01855630D01*
X00660380Y01857034D01*
X00658660Y01858026D01*
X00656743Y01858540D01*
D02*
G37*
G36*
X01144000Y01834650D02*
X01134250D01*
Y01827900D01*
X01144000D01*
Y01834650D01*
D02*
G37*
G36*
X01130750D02*
X01121000D01*
Y01827900D01*
X01130750D01*
Y01834650D01*
D02*
G37*
G36*
X00799890Y01841572D02*
X00796110D01*
X00793620Y01841245D01*
X00791299Y01840283D01*
X00789306Y01838754D01*
X00787777Y01836761D01*
X00786815Y01834440D01*
X00786488Y01831950D01*
X00786815Y01829460D01*
X00787777Y01827139D01*
X00789306Y01825146D01*
X00791299Y01823617D01*
X00793620Y01822656D01*
X00796110Y01822328D01*
X00799890D01*
X00802381Y01822656D01*
X00804701Y01823617D01*
X00806694Y01825146D01*
X00808223Y01827139D01*
X00809184Y01829460D01*
X00809512Y01831950D01*
X00809184Y01834440D01*
X00808223Y01836761D01*
X00806694Y01838754D01*
X00804701Y01840283D01*
X00802381Y01841245D01*
X00799890Y01841572D01*
D02*
G37*
G36*
X00952390Y01841422D02*
X00948610D01*
X00946120Y01841095D01*
X00943799Y01840133D01*
X00941806Y01838604D01*
X00940277Y01836611D01*
X00939315Y01834291D01*
X00938988Y01831800D01*
X00939315Y01829310D01*
X00940277Y01826989D01*
X00941806Y01824996D01*
X00943799Y01823467D01*
X00946120Y01822506D01*
X00948610Y01822178D01*
X00952390D01*
X00954881Y01822506D01*
X00957201Y01823467D01*
X00959194Y01824996D01*
X00960723Y01826989D01*
X00961684Y01829310D01*
X00962012Y01831800D01*
X00961684Y01834291D01*
X00960723Y01836611D01*
X00959194Y01838604D01*
X00957201Y01840133D01*
X00954881Y01841095D01*
X00952390Y01841422D01*
D02*
G37*
G36*
X01065283Y01845215D02*
X01061717D01*
X01058274Y01844292D01*
X01055186Y01842510D01*
X01052665Y01839989D01*
X01050883Y01836902D01*
X01049960Y01833458D01*
Y01829893D01*
X01050883Y01826449D01*
X01052665Y01823362D01*
X01055186Y01820841D01*
X01058274Y01819058D01*
X01061717Y01818135D01*
X01065283D01*
X01068726Y01819058D01*
X01071814Y01820841D01*
X01074335Y01823362D01*
X01076117Y01826449D01*
X01077040Y01829893D01*
Y01833458D01*
X01076117Y01836902D01*
X01074335Y01839989D01*
X01071814Y01842510D01*
X01068726Y01844292D01*
X01065283Y01845215D01*
D02*
G37*
G36*
X00799890Y01816172D02*
X00796110D01*
X00793620Y01815845D01*
X00791299Y01814883D01*
X00789306Y01813354D01*
X00787777Y01811361D01*
X00786815Y01809041D01*
X00786488Y01806550D01*
X00786815Y01804060D01*
X00787777Y01801739D01*
X00789306Y01799746D01*
X00791299Y01798217D01*
X00793620Y01797256D01*
X00796110Y01796928D01*
X00799890D01*
X00802381Y01797256D01*
X00804701Y01798217D01*
X00806694Y01799746D01*
X00808223Y01801739D01*
X00809184Y01804060D01*
X00809512Y01806550D01*
X00809184Y01809041D01*
X00808223Y01811361D01*
X00806694Y01813354D01*
X00804701Y01814883D01*
X00802381Y01815845D01*
X00799890Y01816172D01*
D02*
G37*
G36*
X00952390Y01816022D02*
X00948610D01*
X00946120Y01815695D01*
X00943799Y01814733D01*
X00941806Y01813204D01*
X00940277Y01811211D01*
X00939315Y01808891D01*
X00938988Y01806400D01*
X00939315Y01803910D01*
X00940277Y01801589D01*
X00941806Y01799596D01*
X00943799Y01798067D01*
X00946120Y01797106D01*
X00948610Y01796778D01*
X00952390D01*
X00954881Y01797106D01*
X00957201Y01798067D01*
X00959194Y01799596D01*
X00960723Y01801589D01*
X00961684Y01803910D01*
X00962012Y01806400D01*
X00961684Y01808891D01*
X00960723Y01811211D01*
X00959194Y01813204D01*
X00957201Y01814733D01*
X00954881Y01815695D01*
X00952390Y01816022D01*
D02*
G37*
G36*
X01144000Y01794100D02*
X01134250D01*
Y01787350D01*
X01144000D01*
Y01794100D01*
D02*
G37*
G36*
X01130750D02*
X01121000D01*
Y01787350D01*
X01130750D01*
Y01794100D01*
D02*
G37*
G36*
X00212500Y01790500D02*
X00205750D01*
Y01780750D01*
X00212500D01*
Y01790500D01*
D02*
G37*
G36*
X00202250D02*
X00195500D01*
Y01780750D01*
X00202250D01*
Y01790500D01*
D02*
G37*
G36*
X00643240Y01808290D02*
X00622160D01*
Y01793210D01*
X00627561D01*
Y01780389D01*
X00502900D01*
X00500934Y01779998D01*
X00499267Y01778884D01*
X00497700Y01777317D01*
X00496134Y01778884D01*
X00494467Y01779998D01*
X00492500Y01780389D01*
X00367500D01*
X00365533Y01779998D01*
X00363866Y01778884D01*
X00359066Y01774084D01*
X00357952Y01772417D01*
X00357561Y01770450D01*
Y01763104D01*
X00356228Y01762334D01*
X00354266Y01760372D01*
X00352878Y01757968D01*
X00352160Y01755288D01*
Y01752512D01*
X00352878Y01749832D01*
X00354266Y01747428D01*
X00356228Y01745466D01*
X00358632Y01744078D01*
X00361312Y01743360D01*
X00364088D01*
X00366768Y01744078D01*
X00369172Y01745466D01*
X00371134Y01747428D01*
X00372522Y01749832D01*
X00373240Y01752512D01*
Y01755288D01*
X00372522Y01757968D01*
X00371134Y01760372D01*
X00369172Y01762334D01*
X00367839Y01763104D01*
Y01768322D01*
X00369628Y01770111D01*
X00490372D01*
X00492561Y01767921D01*
Y01763104D01*
X00491228Y01762334D01*
X00489266Y01760372D01*
X00487878Y01757968D01*
X00487160Y01755288D01*
Y01752512D01*
X00487878Y01749832D01*
X00489266Y01747428D01*
X00491228Y01745466D01*
X00493632Y01744078D01*
X00496312Y01743360D01*
X00499088D01*
X00501768Y01744078D01*
X00504172Y01745466D01*
X00506134Y01747428D01*
X00507522Y01749832D01*
X00508240Y01752512D01*
Y01755288D01*
X00507522Y01757968D01*
X00506134Y01760372D01*
X00504172Y01762334D01*
X00502839Y01763104D01*
Y01767921D01*
X00505029Y01770111D01*
X00627561D01*
Y01763104D01*
X00626228Y01762334D01*
X00624266Y01760372D01*
X00622878Y01757968D01*
X00622160Y01755288D01*
Y01752512D01*
X00622878Y01749832D01*
X00624266Y01747428D01*
X00626228Y01745466D01*
X00628632Y01744078D01*
X00631312Y01743360D01*
X00634088D01*
X00636768Y01744078D01*
X00639172Y01745466D01*
X00641134Y01747428D01*
X00642522Y01749832D01*
X00643240Y01752512D01*
Y01755288D01*
X00642522Y01757968D01*
X00641134Y01760372D01*
X00639172Y01762334D01*
X00637839Y01763104D01*
Y01775250D01*
Y01793210D01*
X00643240D01*
Y01808290D01*
D02*
G37*
G36*
X01144000Y01783850D02*
X01134250D01*
Y01777100D01*
X01144000D01*
Y01783850D01*
D02*
G37*
G36*
X01130750D02*
X01121000D01*
Y01777100D01*
X01130750D01*
Y01783850D01*
D02*
G37*
G36*
X00799890Y01790772D02*
X00796110D01*
X00793620Y01790444D01*
X00791299Y01789483D01*
X00789306Y01787954D01*
X00787777Y01785961D01*
X00786815Y01783640D01*
X00786488Y01781150D01*
X00786815Y01778660D01*
X00787777Y01776339D01*
X00789306Y01774346D01*
X00791299Y01772817D01*
X00793620Y01771856D01*
X00796110Y01771528D01*
X00799890D01*
X00802381Y01771856D01*
X00804701Y01772817D01*
X00806694Y01774346D01*
X00808223Y01776339D01*
X00809184Y01778660D01*
X00809512Y01781150D01*
X00809184Y01783640D01*
X00808223Y01785961D01*
X00806694Y01787954D01*
X00804701Y01789483D01*
X00802381Y01790444D01*
X00799890Y01790772D01*
D02*
G37*
G36*
X00952390Y01790622D02*
X00948610D01*
X00946120Y01790295D01*
X00943799Y01789333D01*
X00941806Y01787804D01*
X00940277Y01785811D01*
X00939315Y01783491D01*
X00938988Y01781000D01*
X00939315Y01778510D01*
X00940277Y01776189D01*
X00941806Y01774196D01*
X00943799Y01772667D01*
X00946120Y01771706D01*
X00948610Y01771378D01*
X00952390D01*
X00954881Y01771706D01*
X00957201Y01772667D01*
X00959194Y01774196D01*
X00960723Y01776189D01*
X00961684Y01778510D01*
X00962012Y01781000D01*
X00961684Y01783491D01*
X00960723Y01785811D01*
X00959194Y01787804D01*
X00957201Y01789333D01*
X00954881Y01790295D01*
X00952390Y01790622D01*
D02*
G37*
G36*
X00212500Y01777250D02*
X00205750D01*
Y01767500D01*
X00212500D01*
Y01777250D01*
D02*
G37*
G36*
X00202250D02*
X00195500D01*
Y01767500D01*
X00202250D01*
Y01777250D01*
D02*
G37*
G36*
X01064533Y01794540D02*
X01060967D01*
X01057524Y01793617D01*
X01054436Y01791835D01*
X01051915Y01789314D01*
X01050133Y01786226D01*
X01049210Y01782783D01*
Y01779218D01*
X01050133Y01775774D01*
X01051915Y01772686D01*
X01054436Y01770165D01*
X01057524Y01768383D01*
X01060967Y01767460D01*
X01064533D01*
X01067976Y01768383D01*
X01071064Y01770165D01*
X01073585Y01772686D01*
X01075367Y01775774D01*
X01076290Y01779218D01*
Y01782783D01*
X01075367Y01786226D01*
X01073585Y01789314D01*
X01071064Y01791835D01*
X01067976Y01793617D01*
X01064533Y01794540D01*
D02*
G37*
G36*
X00799890Y01766341D02*
X00799750D01*
Y01757500D01*
X00810250D01*
X00810120Y01758491D01*
X00809062Y01761045D01*
X00807379Y01763239D01*
X00805185Y01764922D01*
X00802631Y01765980D01*
X00799890Y01766341D01*
D02*
G37*
G36*
X00796250D02*
X00796110D01*
X00793369Y01765980D01*
X00790815Y01764922D01*
X00788621Y01763239D01*
X00786938Y01761045D01*
X00785880Y01758491D01*
X00785750Y01757500D01*
X00796250D01*
Y01766341D01*
D02*
G37*
G36*
X00212500Y01760500D02*
X00205750D01*
Y01750750D01*
X00212500D01*
Y01760500D01*
D02*
G37*
G36*
X00202250D02*
X00195500D01*
Y01750750D01*
X00202250D01*
Y01760500D01*
D02*
G37*
G36*
X00952390Y01765222D02*
X00948610D01*
X00946120Y01764895D01*
X00943799Y01763933D01*
X00941806Y01762404D01*
X00940277Y01760411D01*
X00939315Y01758091D01*
X00938988Y01755600D01*
X00939315Y01753110D01*
X00940277Y01750789D01*
X00941806Y01748796D01*
X00943799Y01747267D01*
X00946120Y01746306D01*
X00948610Y01745978D01*
X00952390D01*
X00954881Y01746306D01*
X00957201Y01747267D01*
X00959194Y01748796D01*
X00960723Y01750789D01*
X00961684Y01753110D01*
X00962012Y01755600D01*
X00961684Y01758091D01*
X00960723Y01760411D01*
X00959194Y01762404D01*
X00957201Y01763933D01*
X00954881Y01764895D01*
X00952390Y01765222D01*
D02*
G37*
G36*
X00810250Y01754000D02*
X00799750D01*
Y01745159D01*
X00799890D01*
X00802631Y01745520D01*
X00805185Y01746578D01*
X00807379Y01748261D01*
X00809062Y01750455D01*
X00810120Y01753009D01*
X00810250Y01754000D01*
D02*
G37*
G36*
X00796250D02*
X00785750D01*
X00785880Y01753009D01*
X00786938Y01750455D01*
X00788621Y01748261D01*
X00790815Y01746578D01*
X00793369Y01745520D01*
X00796110Y01745159D01*
X00796250D01*
Y01754000D01*
D02*
G37*
G36*
X00735688Y01764440D02*
X00732913D01*
X00730232Y01763722D01*
X00727828Y01762334D01*
X00725866Y01760372D01*
X00724479Y01757968D01*
X00723760Y01755288D01*
Y01752512D01*
X00724479Y01749832D01*
X00725866Y01747428D01*
X00727828Y01745466D01*
X00730232Y01744078D01*
X00732913Y01743360D01*
X00735688D01*
X00738368Y01744078D01*
X00740772Y01745466D01*
X00742734Y01747428D01*
X00744122Y01749832D01*
X00744840Y01752512D01*
Y01755288D01*
X00744122Y01757968D01*
X00742734Y01760372D01*
X00740772Y01762334D01*
X00738368Y01763722D01*
X00735688Y01764440D01*
D02*
G37*
G36*
X00710288D02*
X00707513D01*
X00704832Y01763722D01*
X00702428Y01762334D01*
X00700466Y01760372D01*
X00699079Y01757968D01*
X00698360Y01755288D01*
Y01752512D01*
X00699079Y01749832D01*
X00700466Y01747428D01*
X00702428Y01745466D01*
X00704832Y01744078D01*
X00707513Y01743360D01*
X00710288D01*
X00712968Y01744078D01*
X00715372Y01745466D01*
X00717334Y01747428D01*
X00718722Y01749832D01*
X00719440Y01752512D01*
Y01755288D01*
X00718722Y01757968D01*
X00717334Y01760372D01*
X00715372Y01762334D01*
X00712968Y01763722D01*
X00710288Y01764440D01*
D02*
G37*
G36*
X00600688D02*
X00597912D01*
X00595232Y01763722D01*
X00592828Y01762334D01*
X00590866Y01760372D01*
X00589478Y01757968D01*
X00588760Y01755288D01*
Y01752512D01*
X00589478Y01749832D01*
X00590866Y01747428D01*
X00592828Y01745466D01*
X00595232Y01744078D01*
X00597912Y01743360D01*
X00600688D01*
X00603368Y01744078D01*
X00605772Y01745466D01*
X00607734Y01747428D01*
X00609122Y01749832D01*
X00609840Y01752512D01*
Y01755288D01*
X00609122Y01757968D01*
X00607734Y01760372D01*
X00605772Y01762334D01*
X00603368Y01763722D01*
X00600688Y01764440D01*
D02*
G37*
G36*
X00575288D02*
X00572512D01*
X00569832Y01763722D01*
X00567428Y01762334D01*
X00565466Y01760372D01*
X00564078Y01757968D01*
X00563360Y01755288D01*
Y01752512D01*
X00564078Y01749832D01*
X00565466Y01747428D01*
X00567428Y01745466D01*
X00569832Y01744078D01*
X00572512Y01743360D01*
X00575288D01*
X00577968Y01744078D01*
X00580372Y01745466D01*
X00582334Y01747428D01*
X00583722Y01749832D01*
X00584440Y01752512D01*
Y01755288D01*
X00583722Y01757968D01*
X00582334Y01760372D01*
X00580372Y01762334D01*
X00577968Y01763722D01*
X00575288Y01764440D01*
D02*
G37*
G36*
X00549888D02*
X00547112D01*
X00544432Y01763722D01*
X00542028Y01762334D01*
X00540066Y01760372D01*
X00538678Y01757968D01*
X00537960Y01755288D01*
Y01752512D01*
X00538678Y01749832D01*
X00540066Y01747428D01*
X00542028Y01745466D01*
X00544432Y01744078D01*
X00547112Y01743360D01*
X00549888D01*
X00552568Y01744078D01*
X00554972Y01745466D01*
X00556934Y01747428D01*
X00558322Y01749832D01*
X00559040Y01752512D01*
Y01755288D01*
X00558322Y01757968D01*
X00556934Y01760372D01*
X00554972Y01762334D01*
X00552568Y01763722D01*
X00549888Y01764440D01*
D02*
G37*
G36*
X00465688D02*
X00462912D01*
X00460232Y01763722D01*
X00457828Y01762334D01*
X00455866Y01760372D01*
X00454478Y01757968D01*
X00453760Y01755288D01*
Y01752512D01*
X00454478Y01749832D01*
X00455866Y01747428D01*
X00457828Y01745466D01*
X00460232Y01744078D01*
X00462912Y01743360D01*
X00465688D01*
X00468368Y01744078D01*
X00470772Y01745466D01*
X00472734Y01747428D01*
X00474122Y01749832D01*
X00474840Y01752512D01*
Y01755288D01*
X00474122Y01757968D01*
X00472734Y01760372D01*
X00470772Y01762334D01*
X00468368Y01763722D01*
X00465688Y01764440D01*
D02*
G37*
G36*
X00440288D02*
X00437512D01*
X00434832Y01763722D01*
X00432428Y01762334D01*
X00430466Y01760372D01*
X00429078Y01757968D01*
X00428360Y01755288D01*
Y01752512D01*
X00429078Y01749832D01*
X00430466Y01747428D01*
X00432428Y01745466D01*
X00434832Y01744078D01*
X00437512Y01743360D01*
X00440288D01*
X00442968Y01744078D01*
X00445372Y01745466D01*
X00447334Y01747428D01*
X00448722Y01749832D01*
X00449440Y01752512D01*
Y01755288D01*
X00448722Y01757968D01*
X00447334Y01760372D01*
X00445372Y01762334D01*
X00442968Y01763722D01*
X00440288Y01764440D01*
D02*
G37*
G36*
X00414888D02*
X00412112D01*
X00409432Y01763722D01*
X00407028Y01762334D01*
X00405066Y01760372D01*
X00403678Y01757968D01*
X00402960Y01755288D01*
Y01752512D01*
X00403678Y01749832D01*
X00405066Y01747428D01*
X00407028Y01745466D01*
X00409432Y01744078D01*
X00412112Y01743360D01*
X00414888D01*
X00417568Y01744078D01*
X00419972Y01745466D01*
X00421934Y01747428D01*
X00423322Y01749832D01*
X00424040Y01752512D01*
Y01755288D01*
X00423322Y01757968D01*
X00421934Y01760372D01*
X00419972Y01762334D01*
X00417568Y01763722D01*
X00414888Y01764440D01*
D02*
G37*
G36*
X00668640Y01808290D02*
X00647560D01*
Y01793210D01*
X00652961D01*
Y01763104D01*
X00651628Y01762334D01*
X00649666Y01760372D01*
X00648279Y01757968D01*
X00647560Y01755288D01*
Y01752512D01*
X00648279Y01749832D01*
X00649666Y01747428D01*
X00651628Y01745466D01*
X00652361Y01745043D01*
Y01739879D01*
X00650371Y01737889D01*
X00530829D01*
X00528239Y01740479D01*
Y01744696D01*
X00529572Y01745466D01*
X00531534Y01747428D01*
X00532922Y01749832D01*
X00533640Y01752512D01*
Y01755288D01*
X00532922Y01757968D01*
X00531534Y01760372D01*
X00529572Y01762334D01*
X00527168Y01763722D01*
X00524488Y01764440D01*
X00521712D01*
X00519032Y01763722D01*
X00516628Y01762334D01*
X00514666Y01760372D01*
X00513278Y01757968D01*
X00512560Y01755288D01*
Y01752512D01*
X00513278Y01749832D01*
X00514666Y01747428D01*
X00516628Y01745466D01*
X00517961Y01744696D01*
Y01740479D01*
X00515372Y01737889D01*
X00397128D01*
X00394489Y01740529D01*
Y01745418D01*
X00394572Y01745466D01*
X00396534Y01747428D01*
X00397922Y01749832D01*
X00398640Y01752512D01*
Y01755288D01*
X00397922Y01757968D01*
X00396534Y01760372D01*
X00394572Y01762334D01*
X00392168Y01763722D01*
X00389488Y01764440D01*
X00386712D01*
X00384032Y01763722D01*
X00381628Y01762334D01*
X00379666Y01760372D01*
X00378278Y01757968D01*
X00377560Y01755288D01*
Y01752512D01*
X00378278Y01749832D01*
X00379666Y01747428D01*
X00381628Y01745466D01*
X00384032Y01744078D01*
X00384211Y01744030D01*
Y01738400D01*
X00384603Y01736434D01*
X00385716Y01734766D01*
X00391366Y01729116D01*
X00393033Y01728002D01*
X00395000Y01727611D01*
X00517500D01*
X00519467Y01728002D01*
X00521134Y01729116D01*
X00523100Y01731083D01*
X00525066Y01729116D01*
X00526734Y01728002D01*
X00528700Y01727611D01*
X00652500D01*
X00654466Y01728002D01*
X00656134Y01729116D01*
X00661134Y01734116D01*
X00662248Y01735784D01*
X00662639Y01737750D01*
Y01744350D01*
X00664572Y01745466D01*
X00666534Y01747428D01*
X00667922Y01749832D01*
X00668640Y01752512D01*
Y01755288D01*
X00667922Y01757968D01*
X00666534Y01760372D01*
X00664572Y01762334D01*
X00663239Y01763104D01*
Y01793210D01*
X00668640D01*
Y01808290D01*
D02*
G37*
G36*
X00212500Y01747250D02*
X00205750D01*
Y01737500D01*
X00212500D01*
Y01747250D01*
D02*
G37*
G36*
X00202250D02*
X00195500D01*
Y01737500D01*
X00202250D01*
Y01747250D01*
D02*
G37*
G36*
X01133750Y01744250D02*
X01127000D01*
Y01734500D01*
X01133750D01*
Y01744250D01*
D02*
G37*
G36*
X01123500D02*
X01116750D01*
Y01734500D01*
X01123500D01*
Y01744250D01*
D02*
G37*
G36*
X00282500Y01805139D02*
X00152500D01*
X00150534Y01804748D01*
X00148866Y01803634D01*
X00141366Y01796134D01*
X00140252Y01794467D01*
X00139861Y01792500D01*
Y01786540D01*
X00134460D01*
Y01771460D01*
X00155540D01*
Y01772404D01*
X00166460D01*
Y01768460D01*
X00181540D01*
Y01789540D01*
X00166460D01*
Y01785596D01*
X00155540D01*
Y01786540D01*
X00150139D01*
Y01790372D01*
X00154629Y01794861D01*
X00280371D01*
X00291111Y01784122D01*
Y01733821D01*
X00290710Y01732852D01*
Y01730648D01*
X00291553Y01728612D01*
X00293112Y01727053D01*
X00295148Y01726210D01*
X00297352D01*
X00299388Y01727053D01*
X00300947Y01728612D01*
X00301790Y01730648D01*
Y01732852D01*
X00301389Y01733821D01*
Y01786250D01*
X00300998Y01788217D01*
X00299884Y01789884D01*
X00286134Y01803634D01*
X00284466Y01804748D01*
X00282500Y01805139D01*
D02*
G37*
G36*
X01133750Y01731000D02*
X01127000D01*
Y01721250D01*
X01133750D01*
Y01731000D01*
D02*
G37*
G36*
X01123500D02*
X01116750D01*
Y01721250D01*
X01123500D01*
Y01731000D01*
D02*
G37*
G36*
X00809430Y01739890D02*
X00786570D01*
Y01720810D01*
X00809430D01*
Y01739890D01*
D02*
G37*
G36*
X00961930Y01739740D02*
X00939070D01*
Y01720660D01*
X00961930D01*
Y01739740D01*
D02*
G37*
G36*
X01215250Y01723341D02*
X01214000D01*
Y01714500D01*
X01225610D01*
X01225480Y01715491D01*
X01224422Y01718045D01*
X01222739Y01720239D01*
X01220545Y01721922D01*
X01217991Y01722980D01*
X01215250Y01723341D01*
D02*
G37*
G36*
X01225610Y01711000D02*
X01214000D01*
Y01702159D01*
X01215250D01*
X01217991Y01702520D01*
X01220545Y01703578D01*
X01222739Y01705261D01*
X01224422Y01707455D01*
X01225480Y01710009D01*
X01225610Y01711000D01*
D02*
G37*
G36*
X01089250Y01706081D02*
Y01699500D01*
X01095831D01*
X01095421Y01701031D01*
X01094302Y01702969D01*
X01092719Y01704552D01*
X01090781Y01705671D01*
X01089250Y01706081D01*
D02*
G37*
G36*
X01085750Y01706081D02*
X01084219Y01705671D01*
X01082281Y01704552D01*
X01080698Y01702969D01*
X01079579Y01701031D01*
X01079169Y01699500D01*
X01085750D01*
Y01706081D01*
D02*
G37*
G36*
Y01696000D02*
X01079169D01*
X01079579Y01694469D01*
X01080698Y01692531D01*
X01082281Y01690948D01*
X01084219Y01689829D01*
X01085750Y01689419D01*
Y01696000D01*
D02*
G37*
G36*
X01095831D02*
X01089250D01*
Y01689419D01*
X01090781Y01689829D01*
X01092719Y01690948D01*
X01094302Y01692531D01*
X01095421Y01694469D01*
X01095831Y01696000D01*
D02*
G37*
G36*
X00773040Y01636039D02*
X00757960D01*
Y01630639D01*
X00664700D01*
X00662734Y01630248D01*
X00661067Y01629134D01*
X00658100Y01626167D01*
X00655134Y01629134D01*
X00653466Y01630248D01*
X00651500Y01630639D01*
X00529500D01*
X00527533Y01630248D01*
X00525866Y01629134D01*
X00523100Y01626367D01*
X00520834Y01628634D01*
X00519167Y01629748D01*
X00517200Y01630139D01*
X00395750D01*
X00393783Y01629748D01*
X00392116Y01628634D01*
X00384466Y01620984D01*
X00383352Y01619317D01*
X00382961Y01617350D01*
Y01610704D01*
X00381628Y01609934D01*
X00379666Y01607972D01*
X00378278Y01605568D01*
X00377560Y01602888D01*
Y01600112D01*
X00378278Y01597432D01*
X00379666Y01595028D01*
X00381628Y01593066D01*
X00384032Y01591678D01*
X00386712Y01590960D01*
X00389488D01*
X00392168Y01591678D01*
X00394572Y01593066D01*
X00396534Y01595028D01*
X00397922Y01597432D01*
X00398640Y01600112D01*
Y01602888D01*
X00397922Y01605568D01*
X00396534Y01607972D01*
X00394572Y01609934D01*
X00393239Y01610704D01*
Y01615222D01*
X00397878Y01619861D01*
X00515072D01*
X00517961Y01616971D01*
Y01610704D01*
X00516628Y01609934D01*
X00514666Y01607972D01*
X00513278Y01605568D01*
X00512560Y01602888D01*
Y01600112D01*
X00513278Y01597432D01*
X00514666Y01595028D01*
X00516628Y01593066D01*
X00519032Y01591678D01*
X00521712Y01590960D01*
X00524488D01*
X00527168Y01591678D01*
X00529572Y01593066D01*
X00531534Y01595028D01*
X00532922Y01597432D01*
X00533640Y01600112D01*
Y01602888D01*
X00532922Y01605568D01*
X00531534Y01607972D01*
X00529572Y01609934D01*
X00528239Y01610704D01*
Y01616971D01*
X00531629Y01620361D01*
X00649371D01*
X00652961Y01616771D01*
Y01610704D01*
X00651628Y01609934D01*
X00649666Y01607972D01*
X00648279Y01605568D01*
X00647560Y01602888D01*
Y01600112D01*
X00648279Y01597432D01*
X00649666Y01595028D01*
X00651628Y01593066D01*
X00654032Y01591678D01*
X00656712Y01590960D01*
X00659488D01*
X00662168Y01591678D01*
X00664572Y01593066D01*
X00666534Y01595028D01*
X00667922Y01597432D01*
X00668640Y01600112D01*
Y01602888D01*
X00667922Y01605568D01*
X00666534Y01607972D01*
X00664572Y01609934D01*
X00663239Y01610704D01*
Y01616771D01*
X00666829Y01620361D01*
X00757960D01*
Y01614960D01*
X00773040D01*
Y01636039D01*
D02*
G37*
G36*
X01174500Y01630750D02*
X01164750D01*
Y01624000D01*
X01174500D01*
Y01630750D01*
D02*
G37*
G36*
X01161250D02*
X01151500D01*
Y01624000D01*
X01161250D01*
Y01630750D01*
D02*
G37*
G36*
X01145500D02*
X01135750D01*
Y01624000D01*
X01145500D01*
Y01630750D01*
D02*
G37*
G36*
X01132250D02*
X01122500D01*
Y01624000D01*
X01132250D01*
Y01630750D01*
D02*
G37*
G36*
X01284033Y01642290D02*
X01280467D01*
X01277024Y01641367D01*
X01273936Y01639585D01*
X01271415Y01637064D01*
X01269633Y01633976D01*
X01268710Y01630533D01*
Y01626967D01*
X01269633Y01623524D01*
X01271415Y01620436D01*
X01273936Y01617915D01*
X01277024Y01616133D01*
X01280467Y01615210D01*
X01284033D01*
X01287476Y01616133D01*
X01290564Y01617915D01*
X01293085Y01620436D01*
X01294867Y01623524D01*
X01295790Y01626967D01*
Y01630533D01*
X01294867Y01633976D01*
X01293085Y01637064D01*
X01290564Y01639585D01*
X01287476Y01641367D01*
X01284033Y01642290D01*
D02*
G37*
G36*
X01174500Y01620500D02*
X01164750D01*
Y01613750D01*
X01174500D01*
Y01620500D01*
D02*
G37*
G36*
X01161250D02*
X01151500D01*
Y01613750D01*
X01161250D01*
Y01620500D01*
D02*
G37*
G36*
X01145500D02*
X01135750D01*
Y01613750D01*
X01145500D01*
Y01620500D01*
D02*
G37*
G36*
X01132250D02*
X01122500D01*
Y01613750D01*
X01132250D01*
Y01620500D01*
D02*
G37*
G36*
X01511409Y01613250D02*
X01511250D01*
Y01600500D01*
X01524000D01*
Y01600659D01*
X01523012Y01604347D01*
X01521103Y01607653D01*
X01518403Y01610353D01*
X01515097Y01612262D01*
X01511409Y01613250D01*
D02*
G37*
G36*
X01507750D02*
X01507591D01*
X01503903Y01612262D01*
X01500597Y01610353D01*
X01497897Y01607653D01*
X01495988Y01604347D01*
X01495000Y01600659D01*
Y01600500D01*
X01507750D01*
Y01613250D01*
D02*
G37*
G36*
X00735688Y01612040D02*
X00732913D01*
X00730232Y01611322D01*
X00727828Y01609934D01*
X00725866Y01607972D01*
X00724479Y01605568D01*
X00723760Y01602888D01*
Y01600112D01*
X00724479Y01597432D01*
X00725866Y01595028D01*
X00727828Y01593066D01*
X00730232Y01591678D01*
X00732913Y01590960D01*
X00735688D01*
X00738368Y01591678D01*
X00740772Y01593066D01*
X00742734Y01595028D01*
X00744122Y01597432D01*
X00744840Y01600112D01*
Y01602888D01*
X00744122Y01605568D01*
X00742734Y01607972D01*
X00740772Y01609934D01*
X00738368Y01611322D01*
X00735688Y01612040D01*
D02*
G37*
G36*
X00710288D02*
X00707513D01*
X00704832Y01611322D01*
X00702428Y01609934D01*
X00700466Y01607972D01*
X00699079Y01605568D01*
X00698360Y01602888D01*
Y01600112D01*
X00699079Y01597432D01*
X00700466Y01595028D01*
X00702428Y01593066D01*
X00704832Y01591678D01*
X00707513Y01590960D01*
X00710288D01*
X00712968Y01591678D01*
X00715372Y01593066D01*
X00717334Y01595028D01*
X00718722Y01597432D01*
X00719440Y01600112D01*
Y01602888D01*
X00718722Y01605568D01*
X00717334Y01607972D01*
X00715372Y01609934D01*
X00712968Y01611322D01*
X00710288Y01612040D01*
D02*
G37*
G36*
X00684888D02*
X00682113D01*
X00679432Y01611322D01*
X00677028Y01609934D01*
X00675066Y01607972D01*
X00673679Y01605568D01*
X00672960Y01602888D01*
Y01600112D01*
X00673679Y01597432D01*
X00675066Y01595028D01*
X00677028Y01593066D01*
X00679432Y01591678D01*
X00682113Y01590960D01*
X00684888D01*
X00687568Y01591678D01*
X00689972Y01593066D01*
X00691934Y01595028D01*
X00693322Y01597432D01*
X00694040Y01600112D01*
Y01602888D01*
X00693322Y01605568D01*
X00691934Y01607972D01*
X00689972Y01609934D01*
X00687568Y01611322D01*
X00684888Y01612040D01*
D02*
G37*
G36*
X00600688D02*
X00597912D01*
X00595232Y01611322D01*
X00592828Y01609934D01*
X00590866Y01607972D01*
X00589478Y01605568D01*
X00588760Y01602888D01*
Y01600112D01*
X00589478Y01597432D01*
X00590866Y01595028D01*
X00592828Y01593066D01*
X00595232Y01591678D01*
X00597912Y01590960D01*
X00600688D01*
X00603368Y01591678D01*
X00605772Y01593066D01*
X00607734Y01595028D01*
X00609122Y01597432D01*
X00609840Y01600112D01*
Y01602888D01*
X00609122Y01605568D01*
X00607734Y01607972D01*
X00605772Y01609934D01*
X00603368Y01611322D01*
X00600688Y01612040D01*
D02*
G37*
G36*
X00575288D02*
X00572512D01*
X00569832Y01611322D01*
X00567428Y01609934D01*
X00565466Y01607972D01*
X00564078Y01605568D01*
X00563360Y01602888D01*
Y01600112D01*
X00564078Y01597432D01*
X00565466Y01595028D01*
X00567428Y01593066D01*
X00569832Y01591678D01*
X00572512Y01590960D01*
X00575288D01*
X00577968Y01591678D01*
X00580372Y01593066D01*
X00582334Y01595028D01*
X00583722Y01597432D01*
X00584440Y01600112D01*
Y01602888D01*
X00583722Y01605568D01*
X00582334Y01607972D01*
X00580372Y01609934D01*
X00577968Y01611322D01*
X00575288Y01612040D01*
D02*
G37*
G36*
X00549888D02*
X00547112D01*
X00544432Y01611322D01*
X00542028Y01609934D01*
X00540066Y01607972D01*
X00538678Y01605568D01*
X00537960Y01602888D01*
Y01600112D01*
X00538678Y01597432D01*
X00540066Y01595028D01*
X00542028Y01593066D01*
X00544432Y01591678D01*
X00547112Y01590960D01*
X00549888D01*
X00552568Y01591678D01*
X00554972Y01593066D01*
X00556934Y01595028D01*
X00558322Y01597432D01*
X00559040Y01600112D01*
Y01602888D01*
X00558322Y01605568D01*
X00556934Y01607972D01*
X00554972Y01609934D01*
X00552568Y01611322D01*
X00549888Y01612040D01*
D02*
G37*
G36*
X00465688D02*
X00462912D01*
X00460232Y01611322D01*
X00457828Y01609934D01*
X00455866Y01607972D01*
X00454478Y01605568D01*
X00453760Y01602888D01*
Y01600112D01*
X00454478Y01597432D01*
X00455866Y01595028D01*
X00457828Y01593066D01*
X00460232Y01591678D01*
X00462912Y01590960D01*
X00465688D01*
X00468368Y01591678D01*
X00470772Y01593066D01*
X00472734Y01595028D01*
X00474122Y01597432D01*
X00474840Y01600112D01*
Y01602888D01*
X00474122Y01605568D01*
X00472734Y01607972D01*
X00470772Y01609934D01*
X00468368Y01611322D01*
X00465688Y01612040D01*
D02*
G37*
G36*
X00440288D02*
X00437512D01*
X00434832Y01611322D01*
X00432428Y01609934D01*
X00430466Y01607972D01*
X00429078Y01605568D01*
X00428360Y01602888D01*
Y01600112D01*
X00429078Y01597432D01*
X00430466Y01595028D01*
X00432428Y01593066D01*
X00434832Y01591678D01*
X00437512Y01590960D01*
X00440288D01*
X00442968Y01591678D01*
X00445372Y01593066D01*
X00447334Y01595028D01*
X00448722Y01597432D01*
X00449440Y01600112D01*
Y01602888D01*
X00448722Y01605568D01*
X00447334Y01607972D01*
X00445372Y01609934D01*
X00442968Y01611322D01*
X00440288Y01612040D01*
D02*
G37*
G36*
X00414888D02*
X00412112D01*
X00409432Y01611322D01*
X00407028Y01609934D01*
X00405066Y01607972D01*
X00403678Y01605568D01*
X00402960Y01602888D01*
Y01600112D01*
X00403678Y01597432D01*
X00405066Y01595028D01*
X00407028Y01593066D01*
X00409432Y01591678D01*
X00412112Y01590960D01*
X00414888D01*
X00417568Y01591678D01*
X00419972Y01593066D01*
X00421934Y01595028D01*
X00423322Y01597432D01*
X00424040Y01600112D01*
Y01602888D01*
X00423322Y01605568D01*
X00421934Y01607972D01*
X00419972Y01609934D01*
X00417568Y01611322D01*
X00414888Y01612040D01*
D02*
G37*
G36*
X01524000Y01597000D02*
X01511250D01*
Y01584250D01*
X01511409D01*
X01515097Y01585238D01*
X01518403Y01587147D01*
X01521103Y01589847D01*
X01523012Y01593153D01*
X01524000Y01596841D01*
Y01597000D01*
D02*
G37*
G36*
X01507750D02*
X01495000D01*
Y01596841D01*
X01495988Y01593153D01*
X01497897Y01589847D01*
X01500597Y01587147D01*
X01503903Y01585238D01*
X01507591Y01584250D01*
X01507750D01*
Y01597000D01*
D02*
G37*
G36*
X01416533Y01590290D02*
X01412967D01*
X01409524Y01589367D01*
X01406436Y01587585D01*
X01403915Y01585064D01*
X01402133Y01581976D01*
X01401210Y01578533D01*
Y01574967D01*
X01402133Y01571524D01*
X01403915Y01568436D01*
X01406436Y01565915D01*
X01409524Y01564133D01*
X01412967Y01563210D01*
X01416533D01*
X01419976Y01564133D01*
X01423064Y01565915D01*
X01425585Y01568436D01*
X01427367Y01571524D01*
X01428290Y01574967D01*
Y01578533D01*
X01427367Y01581976D01*
X01425585Y01585064D01*
X01423064Y01587585D01*
X01419976Y01589367D01*
X01416533Y01590290D01*
D02*
G37*
G36*
X01284283D02*
X01280717D01*
X01277274Y01589367D01*
X01274186Y01587585D01*
X01271665Y01585064D01*
X01269883Y01581976D01*
X01268960Y01578533D01*
Y01574967D01*
X01269883Y01571524D01*
X01271665Y01568436D01*
X01274186Y01565915D01*
X01277274Y01564133D01*
X01280717Y01563210D01*
X01284283D01*
X01287726Y01564133D01*
X01290814Y01565915D01*
X01293335Y01568436D01*
X01295117Y01571524D01*
X01296040Y01574967D01*
Y01578533D01*
X01295117Y01581976D01*
X01293335Y01585064D01*
X01290814Y01587585D01*
X01287726Y01589367D01*
X01284283Y01590290D01*
D02*
G37*
G36*
X01263852Y01605790D02*
X01261648D01*
X01259612Y01604947D01*
X01258053Y01603388D01*
X01257210Y01601352D01*
Y01599148D01*
X01258053Y01597112D01*
X01259612Y01595553D01*
X01261648Y01594710D01*
X01263852D01*
X01264821Y01595111D01*
X01354371D01*
X01404152Y01545331D01*
X01404553Y01544362D01*
X01406112Y01542803D01*
X01408148Y01541960D01*
X01410352D01*
X01412388Y01542803D01*
X01413947Y01544362D01*
X01414790Y01546398D01*
Y01548602D01*
X01413947Y01550638D01*
X01412388Y01552197D01*
X01411419Y01552598D01*
X01360134Y01603884D01*
X01358466Y01604998D01*
X01356500Y01605389D01*
X01264821D01*
X01263852Y01605790D01*
D02*
G37*
G36*
X01568580Y01790982D02*
X01561830D01*
Y01772732D01*
X01568580D01*
Y01790982D01*
D02*
G37*
G36*
X01558330D02*
X01551580D01*
Y01772732D01*
X01558330D01*
Y01790982D01*
D02*
G37*
G36*
X01568580Y01765742D02*
X01561830D01*
Y01747492D01*
X01568580D01*
Y01765742D01*
D02*
G37*
G36*
X01558330D02*
X01551580D01*
Y01747492D01*
X01558330D01*
Y01765742D01*
D02*
G37*
G36*
X01568580Y01743992D02*
X01561830D01*
Y01725742D01*
X01568580D01*
Y01743992D01*
D02*
G37*
G36*
X01558330D02*
X01551580D01*
Y01725742D01*
X01558330D01*
Y01743992D01*
D02*
G37*
G36*
X01568580Y01718498D02*
X01561830D01*
Y01700248D01*
X01568580D01*
Y01718498D01*
D02*
G37*
G36*
X01558330D02*
X01551580D01*
Y01700248D01*
X01558330D01*
Y01718498D01*
D02*
G37*
G36*
X01568580Y01696748D02*
X01561830D01*
Y01678498D01*
X01568580D01*
Y01696748D01*
D02*
G37*
G36*
X01558330D02*
X01551580D01*
Y01678498D01*
X01558330D01*
Y01696748D01*
D02*
G37*
G36*
X01592909Y01659250D02*
X01592750D01*
Y01646500D01*
X01605500D01*
Y01646659D01*
X01604512Y01650347D01*
X01602603Y01653653D01*
X01599903Y01656353D01*
X01596597Y01658262D01*
X01592909Y01659250D01*
D02*
G37*
G36*
X01589250D02*
X01589091D01*
X01585403Y01658262D01*
X01582097Y01656353D01*
X01579397Y01653653D01*
X01577488Y01650347D01*
X01576500Y01646659D01*
Y01646500D01*
X01589250D01*
Y01659250D01*
D02*
G37*
G36*
X01605500Y01643000D02*
X01592750D01*
Y01630250D01*
X01592909D01*
X01596597Y01631238D01*
X01599903Y01633147D01*
X01602603Y01635847D01*
X01604512Y01639153D01*
X01605500Y01642841D01*
Y01643000D01*
D02*
G37*
G36*
X01589250D02*
X01576500D01*
Y01642841D01*
X01577488Y01639153D01*
X01579397Y01635847D01*
X01582097Y01633147D01*
X01585403Y01631238D01*
X01589091Y01630250D01*
X01589250D01*
Y01643000D01*
D02*
G37*
%LPD*%
D15*
X00152500Y01800000D02*
X00282500D01*
X00296250Y01731750D02*
Y01786250D01*
X00774000Y01709000D02*
X00784000Y01699000D01*
X00774000Y01709000D02*
Y01976750D01*
X00795500Y01579750D02*
X00796500Y01580750D01*
X00848250D01*
X00795500Y01602250D02*
X00856750D01*
X00795500Y01625499D02*
X00866999D01*
X00708000Y01686000D02*
X00849000D01*
X00565000Y01678000D02*
X00865000D01*
X00683000Y01711000D02*
X00708000Y01686000D01*
X00683000Y01711000D02*
Y01753400D01*
X00426000Y01660000D02*
X00876000D01*
X00548500Y01694500D02*
X00565000Y01678000D01*
X00548500Y01694500D02*
Y01718250D01*
X00800501Y02057300D02*
X00802217Y02059017D01*
X00849000Y01686000D02*
X00890250Y01727250D01*
Y01908500D01*
X00888355Y01910395D02*
X00890250Y01908500D01*
X00888355Y01910395D02*
Y01921895D01*
X00886250Y01924000D02*
X00888355Y01921895D01*
X00413750Y01672250D02*
X00426000Y01660000D01*
X00413750Y01672250D02*
Y01715500D01*
X00876000Y01660000D02*
X00906000Y01690000D01*
X00886250Y01989250D02*
X00899730Y01975770D01*
X00865000Y01678000D02*
X00899730Y01712730D01*
Y01975770D01*
X00886250Y02055250D02*
X00906000Y02035500D01*
Y01690000D02*
Y02035500D01*
X00799601Y02008000D02*
X00812000D01*
X00798001Y02009600D02*
X00799601Y02008000D01*
X00819000Y01969750D02*
X00823286Y01965464D01*
X00819000Y01969750D02*
Y02001000D01*
X00812000Y02008000D02*
X00819000Y02001000D01*
X00848250Y01580750D02*
X00928000Y01660500D01*
X00866999Y01625499D02*
X00914000Y01672500D01*
X00928000Y01954000D02*
X00932800Y01958800D01*
X00921000Y01666500D02*
Y01971750D01*
X00914000Y01999500D02*
X00924100Y02009600D01*
X00928000Y01660500D02*
Y01954000D01*
X00921000Y01971750D02*
X00933450Y01984200D01*
X00914000Y01672500D02*
Y01999500D01*
X00932800Y01958800D02*
X00950500D01*
X00856750Y01602250D02*
X00921000Y01666500D01*
X00924100Y02009600D02*
X00950500D01*
X00683000Y01753400D02*
X00683500Y01753900D01*
X00823286Y01965464D02*
X00823286D01*
X00831500Y01957250D01*
Y01954250D02*
Y01957250D01*
X00812116Y02062116D02*
X00829000Y02079000D01*
X00799717Y02062116D02*
X00812116D01*
X00829000Y02079000D02*
Y02082750D01*
X00831500Y02085250D01*
X00861500Y02055250D02*
Y02085250D01*
Y01989250D02*
Y02019250D01*
X00818750Y02035000D02*
X00831500Y02022250D01*
X00798001Y02035000D02*
X00818750D01*
X00831500Y02019250D02*
Y02022250D01*
X00798001Y02035000D02*
X00798001Y02035000D01*
X00861500Y01924250D02*
Y01954250D01*
X00933450Y01984200D02*
X00950500D01*
X00682497Y01840003D02*
X00682748Y01839752D01*
X00670353Y01840003D02*
X00682497D01*
X00661100Y01830750D02*
X00670353Y01840003D01*
X00632700Y01830750D02*
X00635200Y01833250D01*
X00638250D02*
X00655750Y01850750D01*
Y01851000D01*
X00635200Y01833250D02*
X00638250D01*
X00658100Y01830750D02*
X00661100D01*
X00774000Y01976750D02*
X00781450Y01984200D01*
X00798001D01*
X00658100Y01753900D02*
Y01800750D01*
X00632700Y01775250D02*
Y01800750D01*
X00641001Y01579750D02*
X00765500D01*
X00632750Y01588000D02*
X00641001Y01579750D01*
X00664700Y01625500D02*
X00765499D01*
X00765500Y01625499D01*
X01053500Y01641500D02*
X01092750Y01680750D01*
X01155250D01*
Y01732750D02*
X01182500D01*
X01065648Y01754230D02*
X01109128Y01710750D01*
X01154875D01*
X01155250D01*
X01154875D02*
X01155250Y01711125D01*
Y01732750D01*
X01163071Y01652321D02*
Y01661821D01*
X01183250Y01682000D02*
Y01708250D01*
X01163000Y01652250D02*
X01163071Y01652321D01*
Y01661821D02*
X01183250Y01682000D01*
X01045770Y01754230D02*
X01065648D01*
X00987000Y01813000D02*
X01045770Y01754230D01*
X00987000Y01813000D02*
Y01916250D01*
X00950500Y01933400D02*
X00969850D01*
X00987000Y01916250D01*
X01095500Y01652250D02*
X01134000D01*
X01212500Y01748750D02*
X01212500Y01748750D01*
X01212500Y01737500D02*
Y01748750D01*
X01183250Y01708250D02*
X01212500Y01737500D01*
X01134000Y01652250D02*
X01163000D01*
X01262750Y01600250D02*
X01356500D01*
X01409250Y01547500D01*
X00282500Y01800000D02*
X00296250Y01786250D01*
X00528700Y01732750D02*
X00652500D01*
X00523100Y01738350D02*
X00528700Y01732750D01*
X00652500D02*
X00657500Y01737750D01*
Y01753300D01*
X00658100Y01753900D01*
X00145000Y01792500D02*
X00152500Y01800000D01*
X00145000Y01779000D02*
Y01792500D01*
X00145300Y01639000D02*
X00146000Y01638300D01*
X00145000Y01749000D02*
X00145300Y01748700D01*
X00170700Y01639000D02*
X00172000Y01637700D01*
X00395750Y01625000D02*
X00517200D01*
X00523100Y01619100D02*
X00529500Y01625500D01*
X00517200Y01625000D02*
X00523100Y01619100D01*
X00658100Y01618900D02*
X00664700Y01625500D01*
X00651500D02*
X00658100Y01618900D01*
X00388100Y01601500D02*
Y01617350D01*
X00523100Y01601500D02*
Y01619100D01*
X00658100Y01601500D02*
Y01618900D01*
X00529500Y01625500D02*
X00651500D01*
X00388100Y01617350D02*
X00395750Y01625000D01*
X00502900Y01775250D02*
X00632700D01*
X00497700Y01770050D02*
X00502900Y01775250D01*
X00623500Y01578750D02*
X00632750Y01588000D01*
X00502000Y01578750D02*
X00623500D01*
X00497000Y01583750D02*
X00502000Y01578750D01*
X00632750Y01588000D02*
Y01601450D01*
X00632700Y01601500D02*
X00632750Y01601450D01*
X00497000Y01600800D02*
X00497700Y01601500D01*
X00497000Y01583750D02*
Y01600800D01*
X00491750Y01578500D02*
X00497000Y01583750D01*
X00371000Y01578500D02*
X00491750D01*
X00362700Y01586800D02*
X00371000Y01578500D01*
X00362700Y01586800D02*
Y01601500D01*
X00632700Y01753900D02*
Y01775250D01*
X00362700Y01753900D02*
Y01770450D01*
X00367500Y01775250D01*
X00492500D01*
X00497700Y01770050D01*
Y01753900D02*
Y01770050D01*
X00523100Y01738350D02*
Y01753900D01*
X00517500Y01732750D02*
X00523100Y01738350D01*
X00395000Y01732750D02*
X00517500D01*
X00389350Y01738400D02*
X00395000Y01732750D01*
X00388100Y01753900D02*
X00389350Y01752650D01*
Y01738400D02*
Y01752650D01*
D23*
X01182250Y01960750D02*
D03*
X01212250Y01894750D02*
D03*
X01182250Y01910750D02*
D03*
Y01732750D02*
D03*
Y01860750D02*
D03*
Y01828750D02*
D03*
Y01796750D02*
D03*
Y01764750D02*
D03*
X01468250Y01887400D02*
D03*
Y01840100D02*
D03*
Y01934700D02*
D03*
Y01982000D02*
D03*
Y02029300D02*
D03*
Y01792800D02*
D03*
Y01745500D02*
D03*
Y01698200D02*
D03*
X01212250Y01944750D02*
D03*
Y01712750D02*
D03*
Y01748750D02*
D03*
Y01780750D02*
D03*
Y01812750D02*
D03*
Y01844750D02*
D03*
Y01994750D02*
D03*
D24*
X01182250Y02014750D02*
D03*
D43*
X01155250Y01680750D02*
D03*
Y01710750D02*
D03*
X00999500Y02217750D02*
D03*
Y02187750D02*
D03*
X00632700Y01800750D02*
D03*
Y01830750D02*
D03*
X00145000Y01779000D02*
D03*
Y01749000D02*
D03*
X01246750Y01893500D02*
D03*
Y01923500D02*
D03*
X01155250Y01953250D02*
D03*
Y01983250D02*
D03*
X01132500Y01887200D02*
D03*
Y01857200D02*
D03*
Y01836400D02*
D03*
Y01806400D02*
D03*
Y01785600D02*
D03*
Y01755600D02*
D03*
X01163000Y01652250D02*
D03*
Y01622250D02*
D03*
X01134000Y01652250D02*
D03*
Y01622250D02*
D03*
X00658100Y01830750D02*
D03*
Y01800750D02*
D03*
D44*
X01182500Y02043500D02*
D03*
X01212500D02*
D03*
X01125250Y01732750D02*
D03*
X01155250D02*
D03*
X00765500Y01579750D02*
D03*
X00795500D02*
D03*
X00765500Y01625499D02*
D03*
X00795500D02*
D03*
X00861500Y01954250D02*
D03*
X00831500D02*
D03*
X00861500Y02019250D02*
D03*
X00831500D02*
D03*
Y02085250D02*
D03*
X00861500D02*
D03*
X00204000Y01749000D02*
D03*
X00174000D02*
D03*
X00202000Y01611000D02*
D03*
X00172000D02*
D03*
X00204000Y01779000D02*
D03*
X00174000D02*
D03*
D46*
X00145300Y01723000D02*
D03*
X00170700D02*
D03*
X00145300Y01639000D02*
D03*
X00170700D02*
D03*
D47*
X01193250Y02399000D02*
X01327000D01*
X01379250Y02346750D01*
Y02283250D02*
X01481000Y02181500D01*
X01246000Y02649000D02*
X01475717Y02419283D01*
X01484250Y02371750D02*
X01706000Y02150000D01*
X01706000Y01714500D02*
X01706000Y02138000D01*
X01490750Y01983000D02*
X01514000Y02006250D01*
Y02056000D01*
X01469500Y01983000D02*
X01490750D01*
X01481000Y02089000D02*
X01514000Y02056000D01*
X01481000Y02089000D02*
Y02138000D01*
X01379250Y02283250D02*
Y02346750D01*
X01481000Y02138000D02*
Y02181500D01*
X01706000Y02138000D02*
Y02150000D01*
X01475717Y02380283D02*
X01484250Y02371750D01*
X01475717Y02380283D02*
Y02419283D01*
X01193250Y02649000D02*
X01246000D01*
D48*
X01468250Y01934700D02*
X01520875D01*
X01521000Y01934575D02*
X01613993D01*
X01468250Y01840100D02*
X01521000D01*
X01615318D01*
X01468250Y01887400D02*
X01521000D01*
X01521300Y01887700D02*
X01643200D01*
X01615318Y01840100D02*
X01642418Y01813000D01*
X01643500D01*
X01521000Y01887400D02*
X01521300Y01887700D01*
X01643200D02*
X01643500Y01888000D01*
X01613993Y01934575D02*
X01642418Y01963000D01*
X01643500D01*
X01520875Y01934700D02*
X01521000Y01934575D01*
X00532000Y01981000D02*
X00675000D01*
X00416000Y01883246D02*
X00434246D01*
X00532000Y01981000D01*
X00463250Y01979254D02*
Y01979254D01*
X00499996Y02016000D02*
X00532000D01*
X00463250Y01979254D02*
X00499996Y02016000D01*
X00416000Y01932004D02*
X00463250Y01979254D01*
D49*
X00144500Y01874500D02*
X00155000Y01885000D01*
X00025000Y01855000D02*
X00044500Y01874500D01*
X00144500D01*
X00201250Y01704040D02*
Y01717500D01*
X01153250Y01952250D02*
X01159250D01*
X01166750Y01944750D02*
X01212500D01*
X01159250Y01952250D02*
X01166750Y01944750D01*
X00155000Y01885000D02*
Y01917500D01*
X01146564Y01959000D02*
X01151250Y01954314D01*
Y01954250D02*
Y01954314D01*
X01132250Y01959000D02*
X01146564D01*
X01151250Y01954250D02*
X01153250Y01952250D01*
X01155250Y01983250D02*
X01158250D01*
X01152250D02*
X01155250D01*
X01132250Y01979000D02*
X01132633Y01979383D01*
X01148383D01*
X01152250Y01983250D01*
X01264000Y01893500D02*
X01269750Y01899250D01*
X01246750Y01893500D02*
X01264000D01*
X01246750Y01923500D02*
X01264193D01*
X01243750D02*
X01246750D01*
X01264193D02*
X01268061Y01919633D01*
X01269367D01*
X01269750Y01919250D01*
X01100000Y01755600D02*
X01132500D01*
X00195750Y01723000D02*
X00201250Y01717500D01*
X00170700Y01723000D02*
X00195750D01*
X00202000Y01611000D02*
Y01645500D01*
X00187500Y01660000D02*
X00202000Y01645500D01*
X00025000Y01712500D02*
X00065000Y01672500D01*
X00220000D02*
X00247600Y01644900D01*
X00065000Y01672500D02*
X00220000D01*
X00180969Y01925969D02*
X00182500Y01927500D01*
X00163469Y01925969D02*
X00180969D01*
X00155000Y01917500D02*
X00163469Y01925969D01*
X00025000Y01712500D02*
Y01855000D01*
X00247600Y01549000D02*
Y01644900D01*
X00146000Y01549000D02*
Y01638300D01*
X00145000Y01749000D02*
X00174000D01*
X00145000Y01779000D02*
X00174000D01*
X00145300Y01723000D02*
Y01748700D01*
X00172000Y01611000D02*
Y01637700D01*
X01242500Y01894750D02*
X01243750Y01893500D01*
X01246750D01*
X01212500Y01894750D02*
X01242500D01*
X01231000Y01910750D02*
X01243750Y01923500D01*
X01182500Y01910750D02*
X01231000D01*
X01158250Y01983250D02*
X01180750Y01960750D01*
X01182500D01*
X01186750Y02050750D02*
Y02067750D01*
X01182500Y02046500D02*
X01186750Y02050750D01*
X01182500Y02043500D02*
Y02046500D01*
Y02014750D02*
Y02043500D01*
X01212500Y01994750D02*
Y02043500D01*
X01206750Y02067750D02*
X01212500Y02062000D01*
Y02043500D02*
Y02062000D01*
X01169750Y01780750D02*
X01212500D01*
X01159250Y01770250D02*
X01169750Y01780750D01*
X01159250Y01763500D02*
Y01770250D01*
X01151350Y01755600D02*
X01159250Y01763500D01*
X01132500Y01755600D02*
X01151350D01*
X01155400Y01806400D02*
X01161750Y01812750D01*
X01212500D01*
X01132500Y01806400D02*
X01155400D01*
X01100000D02*
X01132500D01*
X01169250Y01844750D02*
X01212500D01*
X01156800Y01857200D02*
X01169250Y01844750D01*
X01132500Y01857200D02*
X01156800D01*
X01101000D02*
X01132500D01*
D50*
X01182375Y01732625D02*
X01182500Y01732750D01*
X01041750Y01715000D02*
X01044500Y01717750D01*
X01087500D01*
X01093219Y02281781D02*
Y02292281D01*
X01048500Y02337000D02*
X01093219Y02292281D01*
Y02281781D02*
X01094750Y02280250D01*
X01093219Y02260719D02*
Y02278719D01*
X01074750Y02242250D02*
X01093219Y02260719D01*
Y02278719D02*
X01094750Y02280250D01*
X01042750Y02242250D02*
X01074750D01*
X01042500Y02217750D02*
X01042750Y02217500D01*
X00999500Y02217750D02*
X01042500D01*
X00982850Y02136600D02*
X00999500Y02153250D01*
Y02187750D01*
X00950500Y02136600D02*
X00982850D01*
X01154875Y01710750D02*
X01155000D01*
X00187250Y02561000D02*
X00287250D01*
D51*
X00503000Y02223500D02*
X00543500D01*
X00463500D02*
X00503000D01*
X00422537D02*
X00463500D01*
X00865375Y02477625D02*
X00902250Y02514500D01*
X00881250Y02353750D02*
X00898500Y02336500D01*
X00794250Y02411000D02*
X00824000D01*
X00600750Y02280750D02*
X00618000Y02298000D01*
X00382000Y02223500D02*
X00422537D01*
X00837000Y02449250D02*
X00865375Y02477625D01*
X00852625Y02382375D02*
X00881250Y02353750D01*
X00753250Y02411000D02*
X00794250D01*
X00637635Y02391135D02*
X00657500Y02411000D01*
X00618000Y02316750D02*
Y02371500D01*
X00572375Y02252375D02*
X00600750Y02280750D01*
X00341500Y02223500D02*
X00382000D01*
X01169750Y02499000D02*
X01193250D01*
X01132000D02*
X01169750D01*
X01132000Y02459000D02*
Y02499000D01*
X01073750Y02557250D02*
X01102250Y02528750D01*
X01132000Y02499000D01*
X01005500Y02588540D02*
X01042460D01*
X00965000Y02588500D02*
X00978140D01*
X00329770Y01567975D02*
X00345027Y01552718D01*
X00775000D02*
X00939718D01*
X00345027D02*
X00775000D01*
X00329770Y01607000D02*
Y01647641D01*
Y01567975D02*
Y01607000D01*
Y01566250D02*
Y01567975D01*
X00324500Y01705330D02*
Y01757750D01*
Y01705330D02*
X00329770Y01700060D01*
Y01647641D02*
Y01700060D01*
X00324500Y01797250D02*
Y01797755D01*
Y01757750D02*
Y01797250D01*
X00287250Y02561000D02*
X00362250Y02486000D01*
X00287250Y02561750D02*
X00362500Y02637000D01*
X00402000Y02486000D02*
X00463750Y02547750D01*
X00301245Y02223500D02*
X00341500D01*
X00543500D02*
X00572375Y02252375D01*
X00618000Y02298000D02*
Y02316750D01*
Y02371500D02*
X00637635Y02391135D01*
X00713750Y02411000D02*
X00753250D01*
X00824000D02*
X00852625Y02382375D01*
X00824000Y02436250D02*
X00837000Y02449250D01*
X00132500Y02260750D02*
X00188750Y02317000D01*
X00503500D01*
X00523000Y02336500D02*
Y02460000D01*
X00624000Y02561000D01*
X00713750D01*
X00824000D01*
Y02645250D01*
X00842750Y02664000D02*
X01063500D01*
X01153500Y02574000D01*
X00088750Y02411000D02*
X00187250D01*
X00287250D01*
X00386000D01*
X00463750D01*
X00824000Y02645250D02*
X00842750Y02664000D01*
X00939718Y01552718D02*
X01005250Y01618250D01*
X00518201Y01816500D02*
X00573540Y01871839D01*
X00324500Y01797755D02*
X00343245Y01816500D01*
X00573540Y01871839D02*
Y01918540D01*
X00590000Y01935000D01*
X00343245Y01816500D02*
X00518201D01*
X01005250Y01678500D02*
X01041750Y01715000D01*
X01005250Y01618250D02*
Y01678500D01*
X01100000Y02397000D02*
X01132000Y02429000D01*
Y02459000D01*
X01068500Y02397000D02*
X01100000D01*
X01042460Y02588540D02*
X01073750Y02557250D01*
X01132000Y02499000D02*
X01132000D01*
X00924250Y02588500D02*
X00965000D01*
X00978140D02*
X00978180Y02588540D01*
X01005500D01*
X01153500Y02574000D02*
X01193250D01*
X00898500Y02336500D02*
X00926250D01*
X00824000Y02411000D02*
Y02436250D01*
X00657500Y02411000D02*
X00713750D01*
X00282500Y02242245D02*
X00301245Y02223500D01*
X00282500Y02242245D02*
Y02260750D01*
X00503500Y02317000D02*
X00523000Y02336500D01*
X00088750Y02486000D02*
Y02573250D01*
X00152500Y02637000D01*
X00287250Y02561000D02*
Y02561750D01*
X00463750Y02547750D02*
Y02561000D01*
X00362250Y02486000D02*
X00402000D01*
D53*
X00925750Y02336500D02*
D03*
X00926750Y02457000D02*
D03*
X01048000Y02337000D02*
D03*
X01068000Y02397000D02*
D03*
X01048250Y02457000D02*
D03*
X00737500Y02213750D02*
D03*
Y02163750D02*
D03*
Y02188750D02*
D03*
X01706000Y02138000D02*
D03*
X01481000D02*
D03*
X00287250Y02411000D02*
D03*
Y02561000D02*
D03*
X00402000Y02486000D02*
D03*
X00386000Y02411000D02*
D03*
X00675000Y01981000D02*
D03*
Y01956000D02*
D03*
Y01931000D02*
D03*
X00146000Y01549000D02*
D03*
X00247600D02*
D03*
X00171400D02*
D03*
X00196800D02*
D03*
X00222200D02*
D03*
X00824000Y02561000D02*
D03*
Y02411000D02*
D03*
D54*
X00886250Y02055250D02*
D03*
X00837000D02*
D03*
X00861500D02*
D03*
X01042750Y02217500D02*
D03*
Y02193000D02*
D03*
Y02242250D02*
D03*
X00886250Y01924000D02*
D03*
X00837000D02*
D03*
X00861500D02*
D03*
X00886250Y01989250D02*
D03*
X00837000D02*
D03*
X00861500D02*
D03*
X00187250Y02411000D02*
D03*
Y02561000D02*
D03*
X00734300Y01753900D02*
D03*
X00708900D02*
D03*
X00683500D02*
D03*
X00658100D02*
D03*
X00632700D02*
D03*
X00734300Y01601500D02*
D03*
X00708900D02*
D03*
X00683500D02*
D03*
X00658100D02*
D03*
X00523100D02*
D03*
X00548500D02*
D03*
X00573900D02*
D03*
X00599300D02*
D03*
X00497700Y01753900D02*
D03*
X00523100D02*
D03*
X00548500D02*
D03*
X00573900D02*
D03*
X00599300D02*
D03*
X00388100Y01601500D02*
D03*
X00413500D02*
D03*
X00438900D02*
D03*
X00464300D02*
D03*
X00362700Y01753900D02*
D03*
X00388100D02*
D03*
X00413500D02*
D03*
X00438900D02*
D03*
X00464300D02*
D03*
X00182500Y01927500D02*
D03*
X00532000Y02016000D02*
D03*
D55*
X01193250Y02574000D02*
D03*
Y02399000D02*
D03*
Y02649000D02*
D03*
Y02499000D02*
D03*
D56*
X00386250Y01932000D02*
D03*
X00286250D02*
D03*
X00416000Y01932004D02*
D03*
X00516000D02*
D03*
X00386250Y01883250D02*
D03*
X00286250D02*
D03*
X00416000Y01883246D02*
D03*
X00516000D02*
D03*
X01094750Y02280250D02*
D03*
X00994750D02*
D03*
X00127500Y01892500D02*
D03*
X00027500D02*
D03*
D57*
X00736000Y02276500D02*
D03*
X01087500Y01697750D02*
D03*
X01186750Y02067750D02*
D03*
X01132250Y01979000D02*
D03*
X01269750Y01919250D02*
D03*
X00682748Y01839752D02*
D03*
X00655750Y01851000D02*
D03*
X01053500Y01641500D02*
D03*
D58*
X00756000Y02276500D02*
D03*
X01206750Y02067750D02*
D03*
D59*
X00798000Y01958950D02*
D03*
Y01933550D02*
D03*
Y01908150D02*
D03*
Y01882750D02*
D03*
Y01857350D02*
D03*
Y01831950D02*
D03*
Y01806550D02*
D03*
Y01781150D02*
D03*
Y01755750D02*
D03*
Y01984350D02*
D03*
Y02009750D02*
D03*
Y02035150D02*
D03*
Y02060550D02*
D03*
Y02085950D02*
D03*
Y02111350D02*
D03*
Y02136750D02*
D03*
Y02162150D02*
D03*
Y02187550D02*
D03*
Y02212950D02*
D03*
X00950500Y02212800D02*
D03*
Y02187400D02*
D03*
Y02162000D02*
D03*
Y02136600D02*
D03*
Y02111200D02*
D03*
Y02085800D02*
D03*
Y02060400D02*
D03*
Y02035000D02*
D03*
Y02009600D02*
D03*
Y01984200D02*
D03*
Y01755600D02*
D03*
Y01781000D02*
D03*
Y01806400D02*
D03*
Y01831800D02*
D03*
Y01857200D02*
D03*
Y01882600D02*
D03*
Y01908000D02*
D03*
Y01933400D02*
D03*
Y01958800D02*
D03*
D60*
X00798000Y01730350D02*
D03*
X00950500Y01730200D02*
D03*
D61*
X01414750Y01576750D02*
D03*
X01282500D02*
D03*
X01282250Y01628750D02*
D03*
X01100000Y01755600D02*
D03*
X01101000Y01857200D02*
D03*
X00463750Y02561000D02*
D03*
X00713750Y02411000D02*
D03*
Y02561000D02*
D03*
X00463750Y02411000D02*
D03*
X00182500Y02010750D02*
D03*
X00132500D02*
D03*
X00232500D02*
D03*
X00282500D02*
D03*
X00132500Y02260750D02*
D03*
X00282500D02*
D03*
X00902250Y02514500D02*
D03*
X00924250Y02588500D02*
D03*
X00633750Y02095750D02*
D03*
X01063500Y01831675D02*
D03*
X01062750Y01781000D02*
D03*
X01062250Y01882600D02*
D03*
X01100000Y01806400D02*
D03*
X00558500Y02096250D02*
D03*
X01521000Y01887400D02*
D03*
Y01840100D02*
D03*
Y01934575D02*
D03*
X01095500Y01652250D02*
D03*
X01509500Y01598750D02*
D03*
X01591000Y01644750D02*
D03*
D62*
X01087500Y01717750D02*
D03*
X01132250Y01959000D02*
D03*
X01269750Y01899250D02*
D03*
D63*
X01379250Y02346750D02*
D03*
X01484250Y02371750D02*
D03*
D64*
X00632700Y01601500D02*
D03*
X00497700D02*
D03*
X00362700D02*
D03*
D65*
X00120600Y01549000D02*
D03*
D66*
X00182500Y01892500D02*
D03*
X00532000Y01981000D02*
D03*
D67*
X01643500Y01813000D02*
D03*
Y01888000D02*
D03*
Y01963000D02*
D03*
X00088750Y02411000D02*
D03*
Y02486000D02*
D03*
D68*
X00362500Y02637000D02*
D03*
X00152500D02*
D03*
D69*
X01696250Y01566750D02*
D03*
X00046250Y01564750D02*
D03*
X01698250Y02663750D02*
D03*
X00047250Y02662750D02*
D03*
D70*
X01500000Y01650000D02*
D03*
Y01550000D02*
D03*
X01475000Y01600000D02*
D03*
X01450000Y01550000D02*
D03*
X01400000Y01650000D02*
D03*
X01425000Y01600000D02*
D03*
X01375000D02*
D03*
X01300000Y01750000D02*
D03*
Y01550000D02*
D03*
X01250000Y01750000D02*
D03*
X01275000Y01700000D02*
D03*
X01250000Y01650000D02*
D03*
Y01550000D02*
D03*
X01225000Y02200000D02*
D03*
X01200000Y02150000D02*
D03*
X01225000Y01800000D02*
D03*
Y01700000D02*
D03*
X01200000Y01650000D02*
D03*
Y01550000D02*
D03*
X01150000Y02250000D02*
D03*
X01175000Y02200000D02*
D03*
X01150000Y02150000D02*
D03*
X01175000Y01700000D02*
D03*
X01150000Y01550000D02*
D03*
X01100000Y02250000D02*
D03*
X01125000Y02200000D02*
D03*
X01100000Y02150000D02*
D03*
X01125000Y01900000D02*
D03*
Y01700000D02*
D03*
X01100000Y01550000D02*
D03*
X01075000Y02200000D02*
D03*
X01050000Y02150000D02*
D03*
X01075000Y02100000D02*
D03*
X01050000Y02050000D02*
D03*
X01075000Y01900000D02*
D03*
X01050000Y01550000D02*
D03*
X01025000Y02200000D02*
D03*
Y02100000D02*
D03*
X01000000Y02050000D02*
D03*
X01025000Y02000000D02*
D03*
X01000000Y01950000D02*
D03*
X01025000Y01900000D02*
D03*
X01000000Y01550000D02*
D03*
X00950000Y02250000D02*
D03*
X00975000Y02200000D02*
D03*
Y02100000D02*
D03*
Y02000000D02*
D03*
Y01900000D02*
D03*
Y01700000D02*
D03*
X00900000Y02250000D02*
D03*
X00925000Y02200000D02*
D03*
X00900000Y02150000D02*
D03*
X00925000Y02100000D02*
D03*
Y01600000D02*
D03*
X00850000Y02150000D02*
D03*
X00875000Y02100000D02*
D03*
Y02000000D02*
D03*
X00850000Y01950000D02*
D03*
X00875000Y01900000D02*
D03*
X00850000Y01850000D02*
D03*
X00875000Y01800000D02*
D03*
X00850000Y01750000D02*
D03*
Y01650000D02*
D03*
X00800000Y02250000D02*
D03*
X00825000Y02200000D02*
D03*
Y02100000D02*
D03*
Y01900000D02*
D03*
Y01800000D02*
D03*
Y01700000D02*
D03*
X00800000Y01650000D02*
D03*
X00775000Y02200000D02*
D03*
X00750000Y02150000D02*
D03*
X00775000Y02100000D02*
D03*
X00750000Y02050000D02*
D03*
X00775000Y02000000D02*
D03*
X00750000Y01950000D02*
D03*
Y01650000D02*
D03*
X00775000Y01600000D02*
D03*
X00700000Y02250000D02*
D03*
X00725000Y02200000D02*
D03*
X00700000Y02150000D02*
D03*
X00725000Y02100000D02*
D03*
X00700000Y02050000D02*
D03*
Y01650000D02*
D03*
X00650000Y02150000D02*
D03*
X00675000Y02100000D02*
D03*
X00650000Y02050000D02*
D03*
X00675000Y02000000D02*
D03*
Y01800000D02*
D03*
X00650000Y01650000D02*
D03*
X00600000Y02050000D02*
D03*
X00625000Y02000000D02*
D03*
Y01900000D02*
D03*
X00600000Y01850000D02*
D03*
Y01650000D02*
D03*
X00550000Y02050000D02*
D03*
X00575000Y02000000D02*
D03*
X00550000Y01950000D02*
D03*
X00575000Y01800000D02*
D03*
X00550000Y01650000D02*
D03*
X00500000Y01850000D02*
D03*
Y01650000D02*
D03*
X00450000Y01850000D02*
D03*
Y01650000D02*
D03*
X00400000Y01850000D02*
D03*
Y01650000D02*
D03*
X00350000Y01850000D02*
D03*
X00300000D02*
D03*
X00125000Y01800000D02*
D03*
X00329770Y01607000D02*
D03*
X00366250Y01552500D02*
D03*
X00408000Y01553000D02*
D03*
X00447250D02*
D03*
X00485500D02*
D03*
X00527000Y01553500D02*
D03*
X00566000D02*
D03*
X00605750Y01553000D02*
D03*
X00645250D02*
D03*
X00687500D02*
D03*
X00734750Y01552750D02*
D03*
X00775000D02*
D03*
X00815500Y01552500D02*
D03*
X00855500Y01552250D02*
D03*
X00895750D02*
D03*
X00939750Y01552750D02*
D03*
X01577340Y01684592D02*
D03*
Y01698498D02*
D03*
Y01711896D02*
D03*
Y01759648D02*
D03*
Y01746250D02*
D03*
Y01732344D02*
D03*
Y01779334D02*
D03*
Y01793240D02*
D03*
Y01806638D02*
D03*
X01680000Y01720000D02*
D03*
X01700000Y01680000D02*
D03*
X01680000Y01640000D02*
D03*
X01640000Y01720000D02*
D03*
X01660000Y01680000D02*
D03*
X01600000Y01720000D02*
D03*
X01620000Y01680000D02*
D03*
X00296250Y01731750D02*
D03*
X00329770Y01647641D02*
D03*
Y01566250D02*
D03*
X01497750Y01988750D02*
D03*
X01514250Y02025500D02*
D03*
X01503250Y02064250D02*
D03*
X01481250Y02097500D02*
D03*
X01615318Y01840100D02*
D03*
X01582250Y01840000D02*
D03*
X01554000D02*
D03*
X01489250Y01839500D02*
D03*
X01613750Y01886750D02*
D03*
X01582250Y01887700D02*
D03*
X01553750Y01887250D02*
D03*
X01489750Y01886750D02*
D03*
X01613993Y01934575D02*
D03*
X01583250Y01933500D02*
D03*
X01553250Y01933750D02*
D03*
X01491250Y01934750D02*
D03*
X01706000Y01736250D02*
D03*
X01706250Y01776500D02*
D03*
X01706000Y01816750D02*
D03*
Y01857750D02*
D03*
Y01898500D02*
D03*
Y01938500D02*
D03*
Y01978250D02*
D03*
Y02018000D02*
D03*
Y02098250D02*
D03*
Y02057750D02*
D03*
X01672500Y02183250D02*
D03*
X01643750Y02212000D02*
D03*
X01614750Y02240750D02*
D03*
X01233750Y02399000D02*
D03*
X01462750Y02199250D02*
D03*
X01434250Y02226750D02*
D03*
X01311750Y02398750D02*
D03*
X01344750Y02381500D02*
D03*
X01585750Y02269000D02*
D03*
X01557750Y02297250D02*
D03*
X01529250Y02326250D02*
D03*
X01407000Y02256000D02*
D03*
X01380500Y02285500D02*
D03*
X01273250Y02398750D02*
D03*
X01466750Y02426750D02*
D03*
X01438750Y02456000D02*
D03*
X01410500Y02484500D02*
D03*
X01382000Y02512500D02*
D03*
X01353500Y02540750D02*
D03*
X01324750Y02568250D02*
D03*
X01296250Y02596750D02*
D03*
X01267250Y02625500D02*
D03*
X01234250Y02649000D02*
D03*
X01122500Y02420000D02*
D03*
X01090250Y02395500D02*
D03*
X01132000Y02459000D02*
D03*
X01169750Y02499000D02*
D03*
X01132000Y02499000D02*
D03*
X01102250Y02528750D02*
D03*
X01073750Y02557250D02*
D03*
X01045750Y02585500D02*
D03*
X01005500Y02588500D02*
D03*
X00965000D02*
D03*
X01145000Y02581500D02*
D03*
X01116500Y02610250D02*
D03*
X01088500Y02639000D02*
D03*
X01057500Y02664750D02*
D03*
X01017000D02*
D03*
X00977000D02*
D03*
X00936500D02*
D03*
X00856750Y02664250D02*
D03*
X00896500Y02664750D02*
D03*
X00824000Y02641000D02*
D03*
Y02600750D02*
D03*
X00454750Y02540750D02*
D03*
X00430500Y02514250D02*
D03*
X00377750Y02485250D02*
D03*
X00343000Y02503500D02*
D03*
X00315250Y02532250D02*
D03*
X00315750Y02589250D02*
D03*
X00342750Y02617250D02*
D03*
X00113250Y02599000D02*
D03*
X00088750Y02567250D02*
D03*
Y02526500D02*
D03*
X00427000Y02411000D02*
D03*
X00367250D02*
D03*
X00327000D02*
D03*
X00227000D02*
D03*
X00266250D02*
D03*
X00169000D02*
D03*
X00129000D02*
D03*
X00795000Y02560750D02*
D03*
X00754500D02*
D03*
X00676000Y02562000D02*
D03*
X00635750D02*
D03*
X00602500Y02539000D02*
D03*
X00573500Y02510500D02*
D03*
X00543250Y02481750D02*
D03*
X00523000Y02446750D02*
D03*
Y02406750D02*
D03*
Y02366000D02*
D03*
X00513367Y02326863D02*
D03*
X00474250Y02317750D02*
D03*
X00232500D02*
D03*
X00272755D02*
D03*
X00313255D02*
D03*
X00353792D02*
D03*
X00394755D02*
D03*
X00434255D02*
D03*
X00192250D02*
D03*
X00162750Y02290750D02*
D03*
X00881000Y02353500D02*
D03*
X00852000Y02381750D02*
D03*
X00865750Y02477250D02*
D03*
X00836750Y02449500D02*
D03*
X00794250Y02411500D02*
D03*
X00753250Y02411000D02*
D03*
X00673000D02*
D03*
X00637510Y02391260D02*
D03*
X00618250Y02357000D02*
D03*
Y02316750D02*
D03*
X00601000Y02280500D02*
D03*
X00572750Y02252000D02*
D03*
X00543830Y02223480D02*
D03*
X00503000D02*
D03*
X00463500D02*
D03*
X00422537D02*
D03*
X00382000D02*
D03*
X00341500D02*
D03*
X00301245D02*
D03*
X00572250Y01907250D02*
D03*
X00570500Y01871750D02*
D03*
X00548500Y01847000D02*
D03*
X00522500Y01821750D02*
D03*
X00482000Y01816500D02*
D03*
X00441750Y01816250D02*
D03*
X00399500D02*
D03*
X00358500D02*
D03*
X00324500Y01797250D02*
D03*
X00590000Y01935000D02*
D03*
X01409250Y01547500D02*
D03*
X01262750Y01600250D02*
D03*
X00548500Y01718250D02*
D03*
X00413750Y01715500D02*
D03*
X00784000Y01699000D02*
D03*
X00795500Y01602250D02*
D03*
X00187500Y01660000D02*
D03*
X00201250Y01704040D02*
D03*
X00278250Y01761750D02*
D03*
X00324500Y01757750D02*
D03*
X00970500Y01583500D02*
D03*
D71*
X01498080Y01698498D02*
D03*
X01560080D02*
D03*
X01498080Y01792732D02*
D03*
X01560080D02*
D03*
X01498080Y01745742D02*
D03*
X01560080D02*
D03*
D72*
X01468500Y01698200D02*
X01500450D01*
X01500750Y01698500D01*
X01468500Y01745500D02*
X01499749D01*
X01500249Y01746000D01*
X01499450Y01792800D02*
X01499500Y01792750D01*
X01468500Y01792800D02*
X01499450D01*
M02*
