G04*
G04 #@! TF.GenerationSoftware,Altium Limited,Altium Designer,21.2.0 (30)*
G04*
G04 Layer_Color=128*
%FSAX44Y44*%
%MOMM*%
G71*
G04*
G04 #@! TF.SameCoordinates,F656A266-89EA-4B56-B237-F6EBBDAECB67*
G04*
G04*
G04 #@! TF.FilePolarity,Positive*
G04*
G01*
G75*
%ADD75C,0.0508*%
D75*
X00920750Y02336500D02*
X00930750D01*
X00925750Y02331500D02*
Y02341500D01*
X00921750Y02457000D02*
X00931750D01*
X00926750Y02452000D02*
Y02462000D01*
X01043000Y02337000D02*
X01053000D01*
X01048000Y02332000D02*
Y02342000D01*
X01063000Y02397000D02*
X01073000D01*
X01068000Y02392000D02*
Y02402000D01*
X01043250Y02457000D02*
X01053250D01*
X01048250Y02452000D02*
Y02462000D01*
X01177250Y01960750D02*
X01187250D01*
X01182250Y01955750D02*
Y01965750D01*
X01207250Y01894750D02*
X01217250D01*
X01212250Y01889750D02*
Y01899750D01*
X01177250Y01910750D02*
X01187250D01*
X01182250Y01905750D02*
Y01915750D01*
X01177250Y01732750D02*
X01187250D01*
X01182250Y01727750D02*
Y01737750D01*
X01177250Y01860750D02*
X01187250D01*
X01182250Y01855750D02*
Y01865750D01*
X01177250Y01828750D02*
X01187250D01*
X01182250Y01823750D02*
Y01833750D01*
X01177250Y01796750D02*
X01187250D01*
X01182250Y01791750D02*
Y01801750D01*
X01177250Y01764750D02*
X01187250D01*
X01182250Y01759750D02*
Y01769750D01*
X01463250Y01887400D02*
X01473250D01*
X01468250Y01882400D02*
Y01892400D01*
X01463250Y01840100D02*
X01473250D01*
X01468250Y01835100D02*
Y01845100D01*
X01463250Y01934700D02*
X01473250D01*
X01468250Y01929700D02*
Y01939700D01*
X01463250Y01982000D02*
X01473250D01*
X01468250Y01977000D02*
Y01987000D01*
X01463250Y02029300D02*
X01473250D01*
X01468250Y02024300D02*
Y02034300D01*
X01463250Y01792800D02*
X01473250D01*
X01468250Y01787800D02*
Y01797800D01*
X01463250Y01745500D02*
X01473250D01*
X01468250Y01740500D02*
Y01750500D01*
X01463250Y01698200D02*
X01473250D01*
X01468250Y01693200D02*
Y01703200D01*
X01207250Y01944750D02*
X01217250D01*
X01212250Y01939750D02*
Y01949750D01*
X01207250Y01712750D02*
X01217250D01*
X01212250Y01707750D02*
Y01717750D01*
X01207250Y01748750D02*
X01217250D01*
X01212250Y01743750D02*
Y01753750D01*
X01207250Y01780750D02*
X01217250D01*
X01212250Y01775750D02*
Y01785750D01*
X01207250Y01812750D02*
X01217250D01*
X01212250Y01807750D02*
Y01817750D01*
X01207250Y01844750D02*
X01217250D01*
X01212250Y01839750D02*
Y01849750D01*
X01207250Y01994750D02*
X01217250D01*
X01212250Y01989750D02*
Y01999750D01*
X01177250Y02014750D02*
X01187250D01*
X01182250Y02009750D02*
Y02019750D01*
X01315250Y01693500D02*
X01405250D01*
X01360250Y01648500D02*
Y01738500D01*
X01315250Y02034000D02*
X01405250D01*
X01360250Y01989000D02*
Y02079000D01*
X00882250Y02055250D02*
X00890250D01*
X00886250Y02051250D02*
Y02059250D01*
X00833000Y02055250D02*
X00841000D01*
X00837000Y02051250D02*
Y02059250D01*
X00857500Y02055250D02*
X00865500D01*
X00861500Y02051250D02*
Y02059250D01*
X00960750Y02525000D02*
X01050750D01*
X01005750Y02480000D02*
Y02570000D01*
X01186250Y02574000D02*
X01200250D01*
X01193250Y02567000D02*
Y02581000D01*
X01186250Y02399000D02*
X01200250D01*
X01193250Y02392000D02*
Y02406000D01*
X01186250Y02649000D02*
X01200250D01*
X01193250Y02642000D02*
Y02656000D01*
X01186250Y02499000D02*
X01200250D01*
X01193250Y02492000D02*
Y02506000D01*
X00381750Y01932000D02*
X00390750D01*
X00386250Y01927500D02*
Y01936500D01*
X00281750Y01932000D02*
X00290750D01*
X00286250Y01927500D02*
Y01936500D01*
X00411500Y01932004D02*
X00420500D01*
X00416000Y01927504D02*
Y01936504D01*
X00511500Y01932004D02*
X00520500D01*
X00516000Y01927504D02*
Y01936504D01*
X00381750Y01883250D02*
X00390750D01*
X00386250Y01878750D02*
Y01887750D01*
X00281750Y01883250D02*
X00290750D01*
X00286250Y01878750D02*
Y01887750D01*
X00411500Y01883246D02*
X00420500D01*
X00416000Y01878746D02*
Y01887746D01*
X00511500Y01883246D02*
X00520500D01*
X00516000Y01878746D02*
Y01887746D01*
X00731500Y02213750D02*
X00743500D01*
X00737500Y02207750D02*
Y02219750D01*
X00731500Y02163750D02*
X00743500D01*
X00737500Y02157750D02*
Y02169750D01*
X00731500Y02188750D02*
X00743500D01*
X00737500Y02182750D02*
Y02194750D01*
X00733000Y02276500D02*
X00739000D01*
X00736000Y02273500D02*
Y02279500D01*
X00753000Y02276500D02*
X00759000D01*
X00756000Y02273500D02*
Y02279500D01*
X00793000Y01958950D02*
X00803000D01*
X00798000Y01953950D02*
Y01963950D01*
X00793000Y01933550D02*
X00803000D01*
X00798000Y01928550D02*
Y01938550D01*
X00793000Y01908150D02*
X00803000D01*
X00798000Y01903150D02*
Y01913150D01*
X00793000Y01882750D02*
X00803000D01*
X00798000Y01877750D02*
Y01887750D01*
X00793000Y01857350D02*
X00803000D01*
X00798000Y01852350D02*
Y01862350D01*
X00793000Y01831950D02*
X00803000D01*
X00798000Y01826950D02*
Y01836950D01*
X00793000Y01806550D02*
X00803000D01*
X00798000Y01801550D02*
Y01811550D01*
X00793000Y01781150D02*
X00803000D01*
X00798000Y01776150D02*
Y01786150D01*
X00793000Y01755750D02*
X00803000D01*
X00798000Y01750750D02*
Y01760750D01*
X00793000Y01730350D02*
X00803000D01*
X00798000Y01725350D02*
Y01735350D01*
X00793000Y01984350D02*
X00803000D01*
X00798000Y01979350D02*
Y01989350D01*
X00793000Y02009750D02*
X00803000D01*
X00798000Y02004750D02*
Y02014750D01*
X00793000Y02035150D02*
X00803000D01*
X00798000Y02030150D02*
Y02040150D01*
X00793000Y02060550D02*
X00803000D01*
X00798000Y02055550D02*
Y02065550D01*
X00793000Y02085950D02*
X00803000D01*
X00798000Y02080950D02*
Y02090950D01*
X00793000Y02111350D02*
X00803000D01*
X00798000Y02106350D02*
Y02116350D01*
X00793000Y02136750D02*
X00803000D01*
X00798000Y02131750D02*
Y02141750D01*
X00793000Y02162150D02*
X00803000D01*
X00798000Y02157150D02*
Y02167150D01*
X00793000Y02187550D02*
X00803000D01*
X00798000Y02182550D02*
Y02192550D01*
X00793000Y02212950D02*
X00803000D01*
X00798000Y02207950D02*
Y02217950D01*
X00945500Y02212800D02*
X00955500D01*
X00950500Y02207800D02*
Y02217800D01*
X00945500Y02187400D02*
X00955500D01*
X00950500Y02182400D02*
Y02192400D01*
X00945500Y02162000D02*
X00955500D01*
X00950500Y02157000D02*
Y02167000D01*
X00945500Y02136600D02*
X00955500D01*
X00950500Y02131600D02*
Y02141600D01*
X00945500Y02111200D02*
X00955500D01*
X00950500Y02106200D02*
Y02116200D01*
X00945500Y02085800D02*
X00955500D01*
X00950500Y02080800D02*
Y02090800D01*
X00945500Y02060400D02*
X00955500D01*
X00950500Y02055400D02*
Y02065400D01*
X00945500Y02035000D02*
X00955500D01*
X00950500Y02030000D02*
Y02040000D01*
X00945500Y02009600D02*
X00955500D01*
X00950500Y02004600D02*
Y02014600D01*
X00945500Y01984200D02*
X00955500D01*
X00950500Y01979200D02*
Y01989200D01*
X00945500Y01730200D02*
X00955500D01*
X00950500Y01725200D02*
Y01735200D01*
X00945500Y01755600D02*
X00955500D01*
X00950500Y01750600D02*
Y01760600D01*
X00945500Y01781000D02*
X00955500D01*
X00950500Y01776000D02*
Y01786000D01*
X00945500Y01806400D02*
X00955500D01*
X00950500Y01801400D02*
Y01811400D01*
X00945500Y01831800D02*
X00955500D01*
X00950500Y01826800D02*
Y01836800D01*
X00945500Y01857200D02*
X00955500D01*
X00950500Y01852200D02*
Y01862200D01*
X00945500Y01882600D02*
X00955500D01*
X00950500Y01877600D02*
Y01887600D01*
X00945500Y01908000D02*
X00955500D01*
X00950500Y01903000D02*
Y01913000D01*
X00945500Y01933400D02*
X00955500D01*
X00950500Y01928400D02*
Y01938400D01*
X00945500Y01958800D02*
X00955500D01*
X00950500Y01953800D02*
Y01963800D01*
X01038750Y02217500D02*
X01046750D01*
X01042750Y02213500D02*
Y02221500D01*
X01038750Y02193000D02*
X01046750D01*
X01042750Y02189000D02*
Y02197000D01*
X01038750Y02242250D02*
X01046750D01*
X01042750Y02238250D02*
Y02246250D01*
X01090250Y02280250D02*
X01099250D01*
X01094750Y02275750D02*
Y02284750D01*
X00990250Y02280250D02*
X00999250D01*
X00994750Y02275750D02*
Y02284750D01*
X01408750Y01576750D02*
X01420750D01*
X01414750Y01570750D02*
Y01582750D01*
X01276500Y01576750D02*
X01288500D01*
X01282500Y01570750D02*
Y01582750D01*
X01276250Y01628750D02*
X01288250D01*
X01282250Y01622750D02*
Y01634750D01*
X01094000Y01755600D02*
X01106000D01*
X01100000Y01749600D02*
Y01761600D01*
X01095000Y01857200D02*
X01107000D01*
X01101000Y01851200D02*
Y01863200D01*
X01084500Y01697750D02*
X01090500D01*
X01087500Y01694750D02*
Y01700750D01*
X01084500Y01717750D02*
X01090500D01*
X01087500Y01714750D02*
Y01720750D01*
X01701000Y02138000D02*
X01711000D01*
X01706000Y02133000D02*
Y02143000D01*
X01476000Y02138000D02*
X01486000D01*
X01481000Y02133000D02*
Y02143000D01*
X01364250Y02346750D02*
X01394250D01*
X01379250Y02331750D02*
Y02361750D01*
X01469250Y02371750D02*
X01499250D01*
X01484250Y02356750D02*
Y02386750D01*
X00882250Y01924000D02*
X00890250D01*
X00886250Y01920000D02*
Y01928000D01*
X00833000Y01924000D02*
X00841000D01*
X00837000Y01920000D02*
Y01928000D01*
X00857500Y01924000D02*
X00865500D01*
X00861500Y01920000D02*
Y01928000D01*
X00882250Y01989250D02*
X00890250D01*
X00886250Y01985250D02*
Y01993250D01*
X00833000Y01989250D02*
X00841000D01*
X00837000Y01985250D02*
Y01993250D01*
X00857500Y01989250D02*
X00865500D01*
X00861500Y01985250D02*
Y01993250D01*
X00182750Y02411000D02*
X00191750D01*
X00187250Y02406500D02*
Y02415500D01*
X00182750Y02561000D02*
X00191750D01*
X00187250Y02556500D02*
Y02565500D01*
X00282250Y02411000D02*
X00292250D01*
X00287250Y02406000D02*
Y02416000D01*
X00282250Y02561000D02*
X00292250D01*
X00287250Y02556000D02*
Y02566000D01*
X00397000Y02486000D02*
X00407000D01*
X00402000Y02481000D02*
Y02491000D01*
X00381000Y02411000D02*
X00391000D01*
X00386000Y02406000D02*
Y02416000D01*
X00458750Y02561000D02*
X00468750D01*
X00463750Y02556000D02*
Y02566000D01*
X00708750Y02411000D02*
X00718750D01*
X00713750Y02406000D02*
Y02416000D01*
X00708750Y02561000D02*
X00718750D01*
X00713750Y02556000D02*
Y02566000D01*
X00458750Y02411000D02*
X00468750D01*
X00463750Y02406000D02*
Y02416000D01*
X00176500Y02010750D02*
X00188500D01*
X00182500Y02004750D02*
Y02016750D01*
X00126500Y02010750D02*
X00138500D01*
X00132500Y02004750D02*
Y02016750D01*
X00226500Y02010750D02*
X00238500D01*
X00232500Y02004750D02*
Y02016750D01*
X00276500Y02010750D02*
X00288500D01*
X00282500Y02004750D02*
Y02016750D01*
X00126500Y02260750D02*
X00138500D01*
X00132500Y02254750D02*
Y02266750D01*
X00276500Y02260750D02*
X00288500D01*
X00282500Y02254750D02*
Y02266750D01*
X00123000Y01892500D02*
X00132000D01*
X00127500Y01888000D02*
Y01897000D01*
X00023000Y01892500D02*
X00032000D01*
X00027500Y01888000D02*
Y01897000D01*
X00669000Y01981000D02*
X00681000D01*
X00675000Y01975000D02*
Y01987000D01*
X00669000Y01956000D02*
X00681000D01*
X00675000Y01950000D02*
Y01962000D01*
X00669000Y01931000D02*
X00681000D01*
X00675000Y01925000D02*
Y01937000D01*
X00730300Y01753900D02*
X00738300D01*
X00734300Y01749900D02*
Y01757900D01*
X00704900Y01753900D02*
X00712900D01*
X00708900Y01749900D02*
Y01757900D01*
X00679500Y01753900D02*
X00687500D01*
X00683500Y01749900D02*
Y01757900D01*
X00654100Y01753900D02*
X00662100D01*
X00658100Y01749900D02*
Y01757900D01*
X00628700Y01753900D02*
X00636700D01*
X00632700Y01749900D02*
Y01757900D01*
X00730300Y01601500D02*
X00738300D01*
X00734300Y01597500D02*
Y01605500D01*
X00704900Y01601500D02*
X00712900D01*
X00708900Y01597500D02*
Y01605500D01*
X00679500Y01601500D02*
X00687500D01*
X00683500Y01597500D02*
Y01605500D01*
X00654100Y01601500D02*
X00662100D01*
X00658100Y01597500D02*
Y01605500D01*
X00628700Y01601500D02*
X00636700D01*
X00632700Y01597500D02*
Y01605500D01*
X00493700Y01601500D02*
X00501700D01*
X00497700Y01597500D02*
Y01605500D01*
X00519100Y01601500D02*
X00527100D01*
X00523100Y01597500D02*
Y01605500D01*
X00544500Y01601500D02*
X00552500D01*
X00548500Y01597500D02*
Y01605500D01*
X00569900Y01601500D02*
X00577900D01*
X00573900Y01597500D02*
Y01605500D01*
X00595300Y01601500D02*
X00603300D01*
X00599300Y01597500D02*
Y01605500D01*
X00493700Y01753900D02*
X00501700D01*
X00497700Y01749900D02*
Y01757900D01*
X00519100Y01753900D02*
X00527100D01*
X00523100Y01749900D02*
Y01757900D01*
X00544500Y01753900D02*
X00552500D01*
X00548500Y01749900D02*
Y01757900D01*
X00569900Y01753900D02*
X00577900D01*
X00573900Y01749900D02*
Y01757900D01*
X00595300Y01753900D02*
X00603300D01*
X00599300Y01749900D02*
Y01757900D01*
X00358700Y01601500D02*
X00366700D01*
X00362700Y01597500D02*
Y01605500D01*
X00384100Y01601500D02*
X00392100D01*
X00388100Y01597500D02*
Y01605500D01*
X00409500Y01601500D02*
X00417500D01*
X00413500Y01597500D02*
Y01605500D01*
X00434900Y01601500D02*
X00442900D01*
X00438900Y01597500D02*
Y01605500D01*
X00460300Y01601500D02*
X00468300D01*
X00464300Y01597500D02*
Y01605500D01*
X00358700Y01753900D02*
X00366700D01*
X00362700Y01749900D02*
Y01757900D01*
X00384100Y01753900D02*
X00392100D01*
X00388100Y01749900D02*
Y01757900D01*
X00409500Y01753900D02*
X00417500D01*
X00413500Y01749900D02*
Y01757900D01*
X00434900Y01753900D02*
X00442900D01*
X00438900Y01749900D02*
Y01757900D01*
X00460300Y01753900D02*
X00468300D01*
X00464300Y01749900D02*
Y01757900D01*
X00140500Y01549000D02*
X00151500D01*
X00146000Y01543500D02*
Y01554500D01*
X00242100Y01549000D02*
X00253100D01*
X00247600Y01543500D02*
Y01554500D01*
X00165900Y01549000D02*
X00176900D01*
X00171400Y01543500D02*
Y01554500D01*
X00115100Y01549000D02*
X00126100D01*
X00120600Y01543500D02*
Y01554500D01*
X00191300Y01549000D02*
X00202300D01*
X00196800Y01543500D02*
Y01554500D01*
X00216700Y01549000D02*
X00227700D01*
X00222200Y01543500D02*
Y01554500D01*
X00897250Y02514500D02*
X00907250D01*
X00902250Y02509500D02*
Y02519500D01*
X00919250Y02588500D02*
X00929250D01*
X00924250Y02583500D02*
Y02593500D01*
X00627750Y02095750D02*
X00639750D01*
X00633750Y02089750D02*
Y02101750D01*
X00178500Y01892500D02*
X00186500D01*
X00182500Y01888500D02*
Y01896500D01*
X00178500Y01927500D02*
X00186500D01*
X00182500Y01923500D02*
Y01931500D01*
X01057500Y01831675D02*
X01069500D01*
X01063500Y01825675D02*
Y01837675D01*
X01183750Y02067750D02*
X01189750D01*
X01186750Y02064750D02*
Y02070750D01*
X01203750Y02067750D02*
X01209750D01*
X01206750Y02064750D02*
Y02070750D01*
X01056750Y01781000D02*
X01068750D01*
X01062750Y01775000D02*
Y01787000D01*
X01056250Y01882600D02*
X01068250D01*
X01062250Y01876600D02*
Y01888600D01*
X01094000Y01806400D02*
X01106000D01*
X01100000Y01800400D02*
Y01812400D01*
X01636500Y01813000D02*
X01650500D01*
X01643500Y01806000D02*
Y01820000D01*
X01636500Y01888000D02*
X01650500D01*
X01643500Y01881000D02*
Y01895000D01*
X01636500Y01963000D02*
X01650500D01*
X01643500Y01956000D02*
Y01970000D01*
X00552500Y02096250D02*
X00564500D01*
X00558500Y02090250D02*
Y02102250D01*
X01129250Y01979000D02*
X01135250D01*
X01132250Y01976000D02*
Y01982000D01*
X01129250Y01959000D02*
X01135250D01*
X01132250Y01956000D02*
Y01962000D01*
X01515000Y01887400D02*
X01527000D01*
X01521000Y01881400D02*
Y01893400D01*
X01515000Y01840100D02*
X01527000D01*
X01521000Y01834100D02*
Y01846100D01*
X01515000Y01934575D02*
X01527000D01*
X01521000Y01928575D02*
Y01940575D01*
X01266750Y01919250D02*
X01272750D01*
X01269750Y01916250D02*
Y01922250D01*
X01266750Y01899250D02*
X01272750D01*
X01269750Y01896250D02*
Y01902250D01*
X01089500Y01652250D02*
X01101500D01*
X01095500Y01646250D02*
Y01658250D01*
X01503500Y01598750D02*
X01515500D01*
X01509500Y01592750D02*
Y01604750D01*
X01585000Y01644750D02*
X01597000D01*
X01591000Y01638750D02*
Y01650750D01*
X00819000Y02561000D02*
X00829000D01*
X00824000Y02556000D02*
Y02566000D01*
X00819000Y02411000D02*
X00829000D01*
X00824000Y02406000D02*
Y02416000D01*
X00081750Y02411000D02*
X00095750D01*
X00088750Y02404000D02*
Y02418000D01*
X00081750Y02486000D02*
X00095750D01*
X00088750Y02479000D02*
Y02493000D01*
X00355000Y02637000D02*
X00370000D01*
X00362500Y02629500D02*
Y02644500D01*
X00145000Y02637000D02*
X00160000D01*
X00152500Y02629500D02*
Y02644500D01*
X00528000Y01981000D02*
X00536000D01*
X00532000Y01977000D02*
Y01985000D01*
X00528000Y02016000D02*
X00536000D01*
X00532000Y02012000D02*
Y02020000D01*
X01680250Y01566750D02*
X01712250D01*
X01696250Y01550750D02*
Y01582750D01*
X00030250Y01564750D02*
X00062250D01*
X00046250Y01548750D02*
Y01580750D01*
X01682250Y02663750D02*
X01714250D01*
X01698250Y02647750D02*
Y02679750D01*
X00031250Y02662750D02*
X00063250D01*
X00047250Y02646750D02*
Y02678750D01*
X01498500Y01650000D02*
X01501500D01*
X01500000Y01648500D02*
Y01651500D01*
X01498500Y01550000D02*
X01501500D01*
X01500000Y01548500D02*
Y01551500D01*
X01473500Y01600000D02*
X01476500D01*
X01475000Y01598500D02*
Y01601500D01*
X01448500Y01550000D02*
X01451500D01*
X01450000Y01548500D02*
Y01551500D01*
X01398500Y01650000D02*
X01401500D01*
X01400000Y01648500D02*
Y01651500D01*
X01423500Y01600000D02*
X01426500D01*
X01425000Y01598500D02*
Y01601500D01*
X01373500Y01600000D02*
X01376500D01*
X01375000Y01598500D02*
Y01601500D01*
X01298500Y01750000D02*
X01301500D01*
X01300000Y01748500D02*
Y01751500D01*
X01298500Y01550000D02*
X01301500D01*
X01300000Y01548500D02*
Y01551500D01*
X01248500Y01750000D02*
X01251500D01*
X01250000Y01748500D02*
Y01751500D01*
X01273500Y01700000D02*
X01276500D01*
X01275000Y01698500D02*
Y01701500D01*
X01248500Y01650000D02*
X01251500D01*
X01250000Y01648500D02*
Y01651500D01*
X01248500Y01550000D02*
X01251500D01*
X01250000Y01548500D02*
Y01551500D01*
X01223500Y02200000D02*
X01226500D01*
X01225000Y02198500D02*
Y02201500D01*
X01198500Y02150000D02*
X01201500D01*
X01200000Y02148500D02*
Y02151500D01*
X01223500Y01800000D02*
X01226500D01*
X01225000Y01798500D02*
Y01801500D01*
X01223500Y01700000D02*
X01226500D01*
X01225000Y01698500D02*
Y01701500D01*
X01198500Y01650000D02*
X01201500D01*
X01200000Y01648500D02*
Y01651500D01*
X01198500Y01550000D02*
X01201500D01*
X01200000Y01548500D02*
Y01551500D01*
X01148500Y02250000D02*
X01151500D01*
X01150000Y02248500D02*
Y02251500D01*
X01173500Y02200000D02*
X01176500D01*
X01175000Y02198500D02*
Y02201500D01*
X01148500Y02150000D02*
X01151500D01*
X01150000Y02148500D02*
Y02151500D01*
X01173500Y01700000D02*
X01176500D01*
X01175000Y01698500D02*
Y01701500D01*
X01148500Y01550000D02*
X01151500D01*
X01150000Y01548500D02*
Y01551500D01*
X01098500Y02250000D02*
X01101500D01*
X01100000Y02248500D02*
Y02251500D01*
X01123500Y02200000D02*
X01126500D01*
X01125000Y02198500D02*
Y02201500D01*
X01098500Y02150000D02*
X01101500D01*
X01100000Y02148500D02*
Y02151500D01*
X01123500Y01900000D02*
X01126500D01*
X01125000Y01898500D02*
Y01901500D01*
X01123500Y01700000D02*
X01126500D01*
X01125000Y01698500D02*
Y01701500D01*
X01098500Y01550000D02*
X01101500D01*
X01100000Y01548500D02*
Y01551500D01*
X01073500Y02200000D02*
X01076500D01*
X01075000Y02198500D02*
Y02201500D01*
X01048500Y02150000D02*
X01051500D01*
X01050000Y02148500D02*
Y02151500D01*
X01073500Y02100000D02*
X01076500D01*
X01075000Y02098500D02*
Y02101500D01*
X01048500Y02050000D02*
X01051500D01*
X01050000Y02048500D02*
Y02051500D01*
X01073500Y01900000D02*
X01076500D01*
X01075000Y01898500D02*
Y01901500D01*
X01048500Y01550000D02*
X01051500D01*
X01050000Y01548500D02*
Y01551500D01*
X01023500Y02200000D02*
X01026500D01*
X01025000Y02198500D02*
Y02201500D01*
X01023500Y02100000D02*
X01026500D01*
X01025000Y02098500D02*
Y02101500D01*
X00998500Y02050000D02*
X01001500D01*
X01000000Y02048500D02*
Y02051500D01*
X01023500Y02000000D02*
X01026500D01*
X01025000Y01998500D02*
Y02001500D01*
X00998500Y01950000D02*
X01001500D01*
X01000000Y01948500D02*
Y01951500D01*
X01023500Y01900000D02*
X01026500D01*
X01025000Y01898500D02*
Y01901500D01*
X00998500Y01550000D02*
X01001500D01*
X01000000Y01548500D02*
Y01551500D01*
X00948500Y02250000D02*
X00951500D01*
X00950000Y02248500D02*
Y02251500D01*
X00973500Y02200000D02*
X00976500D01*
X00975000Y02198500D02*
Y02201500D01*
X00973500Y02100000D02*
X00976500D01*
X00975000Y02098500D02*
Y02101500D01*
X00973500Y02000000D02*
X00976500D01*
X00975000Y01998500D02*
Y02001500D01*
X00973500Y01900000D02*
X00976500D01*
X00975000Y01898500D02*
Y01901500D01*
X00973500Y01700000D02*
X00976500D01*
X00975000Y01698500D02*
Y01701500D01*
X00898500Y02250000D02*
X00901500D01*
X00900000Y02248500D02*
Y02251500D01*
X00923500Y02200000D02*
X00926500D01*
X00925000Y02198500D02*
Y02201500D01*
X00898500Y02150000D02*
X00901500D01*
X00900000Y02148500D02*
Y02151500D01*
X00923500Y02100000D02*
X00926500D01*
X00925000Y02098500D02*
Y02101500D01*
X00923500Y01600000D02*
X00926500D01*
X00925000Y01598500D02*
Y01601500D01*
X00848500Y02150000D02*
X00851500D01*
X00850000Y02148500D02*
Y02151500D01*
X00873500Y02100000D02*
X00876500D01*
X00875000Y02098500D02*
Y02101500D01*
X00873500Y02000000D02*
X00876500D01*
X00875000Y01998500D02*
Y02001500D01*
X00848500Y01950000D02*
X00851500D01*
X00850000Y01948500D02*
Y01951500D01*
X00873500Y01900000D02*
X00876500D01*
X00875000Y01898500D02*
Y01901500D01*
X00848500Y01850000D02*
X00851500D01*
X00850000Y01848500D02*
Y01851500D01*
X00873500Y01800000D02*
X00876500D01*
X00875000Y01798500D02*
Y01801500D01*
X00848500Y01750000D02*
X00851500D01*
X00850000Y01748500D02*
Y01751500D01*
X00848500Y01650000D02*
X00851500D01*
X00850000Y01648500D02*
Y01651500D01*
X00798500Y02250000D02*
X00801500D01*
X00800000Y02248500D02*
Y02251500D01*
X00823500Y02200000D02*
X00826500D01*
X00825000Y02198500D02*
Y02201500D01*
X00823500Y02100000D02*
X00826500D01*
X00825000Y02098500D02*
Y02101500D01*
X00823500Y01900000D02*
X00826500D01*
X00825000Y01898500D02*
Y01901500D01*
X00823500Y01800000D02*
X00826500D01*
X00825000Y01798500D02*
Y01801500D01*
X00823500Y01700000D02*
X00826500D01*
X00825000Y01698500D02*
Y01701500D01*
X00798500Y01650000D02*
X00801500D01*
X00800000Y01648500D02*
Y01651500D01*
X00773500Y02200000D02*
X00776500D01*
X00775000Y02198500D02*
Y02201500D01*
X00748500Y02150000D02*
X00751500D01*
X00750000Y02148500D02*
Y02151500D01*
X00773500Y02100000D02*
X00776500D01*
X00775000Y02098500D02*
Y02101500D01*
X00748500Y02050000D02*
X00751500D01*
X00750000Y02048500D02*
Y02051500D01*
X00773500Y02000000D02*
X00776500D01*
X00775000Y01998500D02*
Y02001500D01*
X00748500Y01950000D02*
X00751500D01*
X00750000Y01948500D02*
Y01951500D01*
X00748500Y01650000D02*
X00751500D01*
X00750000Y01648500D02*
Y01651500D01*
X00773500Y01600000D02*
X00776500D01*
X00775000Y01598500D02*
Y01601500D01*
X00698500Y02250000D02*
X00701500D01*
X00700000Y02248500D02*
Y02251500D01*
X00723500Y02200000D02*
X00726500D01*
X00725000Y02198500D02*
Y02201500D01*
X00698500Y02150000D02*
X00701500D01*
X00700000Y02148500D02*
Y02151500D01*
X00723500Y02100000D02*
X00726500D01*
X00725000Y02098500D02*
Y02101500D01*
X00698500Y02050000D02*
X00701500D01*
X00700000Y02048500D02*
Y02051500D01*
X00698500Y01650000D02*
X00701500D01*
X00700000Y01648500D02*
Y01651500D01*
X00648500Y02150000D02*
X00651500D01*
X00650000Y02148500D02*
Y02151500D01*
X00673500Y02100000D02*
X00676500D01*
X00675000Y02098500D02*
Y02101500D01*
X00648500Y02050000D02*
X00651500D01*
X00650000Y02048500D02*
Y02051500D01*
X00673500Y02000000D02*
X00676500D01*
X00675000Y01998500D02*
Y02001500D01*
X00673500Y01800000D02*
X00676500D01*
X00675000Y01798500D02*
Y01801500D01*
X00648500Y01650000D02*
X00651500D01*
X00650000Y01648500D02*
Y01651500D01*
X00598500Y02050000D02*
X00601500D01*
X00600000Y02048500D02*
Y02051500D01*
X00623500Y02000000D02*
X00626500D01*
X00625000Y01998500D02*
Y02001500D01*
X00623500Y01900000D02*
X00626500D01*
X00625000Y01898500D02*
Y01901500D01*
X00598500Y01850000D02*
X00601500D01*
X00600000Y01848500D02*
Y01851500D01*
X00598500Y01650000D02*
X00601500D01*
X00600000Y01648500D02*
Y01651500D01*
X00548500Y02050000D02*
X00551500D01*
X00550000Y02048500D02*
Y02051500D01*
X00573500Y02000000D02*
X00576500D01*
X00575000Y01998500D02*
Y02001500D01*
X00548500Y01950000D02*
X00551500D01*
X00550000Y01948500D02*
Y01951500D01*
X00573500Y01800000D02*
X00576500D01*
X00575000Y01798500D02*
Y01801500D01*
X00548500Y01650000D02*
X00551500D01*
X00550000Y01648500D02*
Y01651500D01*
X00498500Y01850000D02*
X00501500D01*
X00500000Y01848500D02*
Y01851500D01*
X00498500Y01650000D02*
X00501500D01*
X00500000Y01648500D02*
Y01651500D01*
X00448500Y01850000D02*
X00451500D01*
X00450000Y01848500D02*
Y01851500D01*
X00448500Y01650000D02*
X00451500D01*
X00450000Y01648500D02*
Y01651500D01*
X00398500Y01850000D02*
X00401500D01*
X00400000Y01848500D02*
Y01851500D01*
X00398500Y01650000D02*
X00401500D01*
X00400000Y01648500D02*
Y01651500D01*
X00348500Y01850000D02*
X00351500D01*
X00350000Y01848500D02*
Y01851500D01*
X00298500Y01850000D02*
X00301500D01*
X00300000Y01848500D02*
Y01851500D01*
X00123500Y01800000D02*
X00126500D01*
X00125000Y01798500D02*
Y01801500D01*
X00328270Y01607000D02*
X00331270D01*
X00329770Y01605500D02*
Y01608500D01*
X00364750Y01552500D02*
X00367750D01*
X00366250Y01551000D02*
Y01554000D01*
X00406500Y01553000D02*
X00409500D01*
X00408000Y01551500D02*
Y01554500D01*
X00445750Y01553000D02*
X00448750D01*
X00447250Y01551500D02*
Y01554500D01*
X00484000Y01553000D02*
X00487000D01*
X00485500Y01551500D02*
Y01554500D01*
X00525500Y01553500D02*
X00528500D01*
X00527000Y01552000D02*
Y01555000D01*
X00564500Y01553500D02*
X00567500D01*
X00566000Y01552000D02*
Y01555000D01*
X00604250Y01553000D02*
X00607250D01*
X00605750Y01551500D02*
Y01554500D01*
X00643750Y01553000D02*
X00646750D01*
X00645250Y01551500D02*
Y01554500D01*
X00686000Y01553000D02*
X00689000D01*
X00687500Y01551500D02*
Y01554500D01*
X00733250Y01552750D02*
X00736250D01*
X00734750Y01551250D02*
Y01554250D01*
X00773500Y01552750D02*
X00776500D01*
X00775000Y01551250D02*
Y01554250D01*
X00814000Y01552500D02*
X00817000D01*
X00815500Y01551000D02*
Y01554000D01*
X00854000Y01552250D02*
X00857000D01*
X00855500Y01550750D02*
Y01553750D01*
X00894250Y01552250D02*
X00897250D01*
X00895750Y01550750D02*
Y01553750D01*
X00938250Y01552750D02*
X00941250D01*
X00939750Y01551250D02*
Y01554250D01*
X01575840Y01684592D02*
X01578840D01*
X01577340Y01683092D02*
Y01686092D01*
X01575840Y01698498D02*
X01578840D01*
X01577340Y01696998D02*
Y01699998D01*
X01575840Y01711896D02*
X01578840D01*
X01577340Y01710396D02*
Y01713396D01*
X01575840Y01759648D02*
X01578840D01*
X01577340Y01758148D02*
Y01761148D01*
X01575840Y01746250D02*
X01578840D01*
X01577340Y01744750D02*
Y01747750D01*
X01575840Y01732344D02*
X01578840D01*
X01577340Y01730844D02*
Y01733844D01*
X01575840Y01779334D02*
X01578840D01*
X01577340Y01777834D02*
Y01780834D01*
X01575840Y01793240D02*
X01578840D01*
X01577340Y01791740D02*
Y01794740D01*
X01575840Y01806638D02*
X01578840D01*
X01577340Y01805138D02*
Y01808138D01*
X01678500Y01720000D02*
X01681500D01*
X01680000Y01718500D02*
Y01721500D01*
X01698500Y01680000D02*
X01701500D01*
X01700000Y01678500D02*
Y01681500D01*
X01678500Y01640000D02*
X01681500D01*
X01680000Y01638500D02*
Y01641500D01*
X01638500Y01720000D02*
X01641500D01*
X01640000Y01718500D02*
Y01721500D01*
X01658500Y01680000D02*
X01661500D01*
X01660000Y01678500D02*
Y01681500D01*
X01598500Y01720000D02*
X01601500D01*
X01600000Y01718500D02*
Y01721500D01*
X01618500Y01680000D02*
X01621500D01*
X01620000Y01678500D02*
Y01681500D01*
X00294750Y01731750D02*
X00297750D01*
X00296250Y01730250D02*
Y01733250D01*
X00328270Y01647641D02*
X00331270D01*
X00329770Y01646141D02*
Y01649141D01*
X00328270Y01566250D02*
X00331270D01*
X00329770Y01564750D02*
Y01567750D01*
X01496250Y01988750D02*
X01499250D01*
X01497750Y01987250D02*
Y01990250D01*
X01512750Y02025500D02*
X01515750D01*
X01514250Y02024000D02*
Y02027000D01*
X01501750Y02064250D02*
X01504750D01*
X01503250Y02062750D02*
Y02065750D01*
X01479750Y02097500D02*
X01482750D01*
X01481250Y02096000D02*
Y02099000D01*
X01613817Y01840100D02*
X01616817D01*
X01615318Y01838600D02*
Y01841600D01*
X01580750Y01840000D02*
X01583750D01*
X01582250Y01838500D02*
Y01841500D01*
X01552500Y01840000D02*
X01555500D01*
X01554000Y01838500D02*
Y01841500D01*
X01487750Y01839500D02*
X01490750D01*
X01489250Y01838000D02*
Y01841000D01*
X01612250Y01886750D02*
X01615250D01*
X01613750Y01885250D02*
Y01888250D01*
X01580750Y01887700D02*
X01583750D01*
X01582250Y01886200D02*
Y01889200D01*
X01552250Y01887250D02*
X01555250D01*
X01553750Y01885750D02*
Y01888750D01*
X01488250Y01886750D02*
X01491250D01*
X01489750Y01885250D02*
Y01888250D01*
X01612493Y01934575D02*
X01615493D01*
X01613993Y01933075D02*
Y01936075D01*
X01581750Y01933500D02*
X01584750D01*
X01583250Y01932000D02*
Y01935000D01*
X01551750Y01933750D02*
X01554750D01*
X01553250Y01932250D02*
Y01935250D01*
X01489750Y01934750D02*
X01492750D01*
X01491250Y01933250D02*
Y01936250D01*
X01704500Y01736250D02*
X01707500D01*
X01706000Y01734750D02*
Y01737750D01*
X01704750Y01776500D02*
X01707750D01*
X01706250Y01775000D02*
Y01778000D01*
X01704500Y01816750D02*
X01707500D01*
X01706000Y01815250D02*
Y01818250D01*
X01704500Y01857750D02*
X01707500D01*
X01706000Y01856250D02*
Y01859250D01*
X01704500Y01898500D02*
X01707500D01*
X01706000Y01897000D02*
Y01900000D01*
X01704500Y01938500D02*
X01707500D01*
X01706000Y01937000D02*
Y01940000D01*
X01704500Y01978250D02*
X01707500D01*
X01706000Y01976750D02*
Y01979750D01*
X01704500Y02018000D02*
X01707500D01*
X01706000Y02016500D02*
Y02019500D01*
X01704500Y02098250D02*
X01707500D01*
X01706000Y02096750D02*
Y02099750D01*
X01704500Y02057750D02*
X01707500D01*
X01706000Y02056250D02*
Y02059250D01*
X01671000Y02183250D02*
X01674000D01*
X01672500Y02181750D02*
Y02184750D01*
X01642250Y02212000D02*
X01645250D01*
X01643750Y02210500D02*
Y02213500D01*
X01613250Y02240750D02*
X01616250D01*
X01614750Y02239250D02*
Y02242250D01*
X01232250Y02399000D02*
X01235250D01*
X01233750Y02397500D02*
Y02400500D01*
X01461250Y02199250D02*
X01464250D01*
X01462750Y02197750D02*
Y02200750D01*
X01432750Y02226750D02*
X01435750D01*
X01434250Y02225250D02*
Y02228250D01*
X01310250Y02398750D02*
X01313250D01*
X01311750Y02397250D02*
Y02400250D01*
X01343250Y02381500D02*
X01346250D01*
X01344750Y02380000D02*
Y02383000D01*
X01584250Y02269000D02*
X01587250D01*
X01585750Y02267500D02*
Y02270500D01*
X01556250Y02297250D02*
X01559250D01*
X01557750Y02295750D02*
Y02298750D01*
X01527750Y02326250D02*
X01530750D01*
X01529250Y02324750D02*
Y02327750D01*
X01405500Y02256000D02*
X01408500D01*
X01407000Y02254500D02*
Y02257500D01*
X01379000Y02285500D02*
X01382000D01*
X01380500Y02284000D02*
Y02287000D01*
X01271750Y02398750D02*
X01274750D01*
X01273250Y02397250D02*
Y02400250D01*
X01465250Y02426750D02*
X01468250D01*
X01466750Y02425250D02*
Y02428250D01*
X01437250Y02456000D02*
X01440250D01*
X01438750Y02454500D02*
Y02457500D01*
X01409000Y02484500D02*
X01412000D01*
X01410500Y02483000D02*
Y02486000D01*
X01380500Y02512500D02*
X01383500D01*
X01382000Y02511000D02*
Y02514000D01*
X01352000Y02540750D02*
X01355000D01*
X01353500Y02539250D02*
Y02542250D01*
X01323250Y02568250D02*
X01326250D01*
X01324750Y02566750D02*
Y02569750D01*
X01294750Y02596750D02*
X01297750D01*
X01296250Y02595250D02*
Y02598250D01*
X01265750Y02625500D02*
X01268750D01*
X01267250Y02624000D02*
Y02627000D01*
X01232750Y02649000D02*
X01235750D01*
X01234250Y02647500D02*
Y02650500D01*
X01121000Y02420000D02*
X01124000D01*
X01122500Y02418500D02*
Y02421500D01*
X01088750Y02395500D02*
X01091750D01*
X01090250Y02394000D02*
Y02397000D01*
X01130500Y02459000D02*
X01133500D01*
X01132000Y02457500D02*
Y02460500D01*
X01168250Y02499000D02*
X01171250D01*
X01169750Y02497500D02*
Y02500500D01*
X01130500Y02499000D02*
X01133500D01*
X01132000Y02497500D02*
Y02500500D01*
X01100750Y02528750D02*
X01103750D01*
X01102250Y02527250D02*
Y02530250D01*
X01072250Y02557250D02*
X01075250D01*
X01073750Y02555750D02*
Y02558750D01*
X01044250Y02585500D02*
X01047250D01*
X01045750Y02584000D02*
Y02587000D01*
X01004000Y02588500D02*
X01007000D01*
X01005500Y02587000D02*
Y02590000D01*
X00963500Y02588500D02*
X00966500D01*
X00965000Y02587000D02*
Y02590000D01*
X01143500Y02581500D02*
X01146500D01*
X01145000Y02580000D02*
Y02583000D01*
X01115000Y02610250D02*
X01118000D01*
X01116500Y02608750D02*
Y02611750D01*
X01087000Y02639000D02*
X01090000D01*
X01088500Y02637500D02*
Y02640500D01*
X01056000Y02664750D02*
X01059000D01*
X01057500Y02663250D02*
Y02666250D01*
X01015500Y02664750D02*
X01018500D01*
X01017000Y02663250D02*
Y02666250D01*
X00975500Y02664750D02*
X00978500D01*
X00977000Y02663250D02*
Y02666250D01*
X00935000Y02664750D02*
X00938000D01*
X00936500Y02663250D02*
Y02666250D01*
X00855250Y02664250D02*
X00858250D01*
X00856750Y02662750D02*
Y02665750D01*
X00895000Y02664750D02*
X00898000D01*
X00896500Y02663250D02*
Y02666250D01*
X00822500Y02641000D02*
X00825500D01*
X00824000Y02639500D02*
Y02642500D01*
X00822500Y02600750D02*
X00825500D01*
X00824000Y02599250D02*
Y02602250D01*
X00453250Y02540750D02*
X00456250D01*
X00454750Y02539250D02*
Y02542250D01*
X00429000Y02514250D02*
X00432000D01*
X00430500Y02512750D02*
Y02515750D01*
X00376250Y02485250D02*
X00379250D01*
X00377750Y02483750D02*
Y02486750D01*
X00341500Y02503500D02*
X00344500D01*
X00343000Y02502000D02*
Y02505000D01*
X00313750Y02532250D02*
X00316750D01*
X00315250Y02530750D02*
Y02533750D01*
X00314250Y02589250D02*
X00317250D01*
X00315750Y02587750D02*
Y02590750D01*
X00341250Y02617250D02*
X00344250D01*
X00342750Y02615750D02*
Y02618750D01*
X00111750Y02599000D02*
X00114750D01*
X00113250Y02597500D02*
Y02600500D01*
X00087250Y02567250D02*
X00090250D01*
X00088750Y02565750D02*
Y02568750D01*
X00087250Y02526500D02*
X00090250D01*
X00088750Y02525000D02*
Y02528000D01*
X00425500Y02411000D02*
X00428500D01*
X00427000Y02409500D02*
Y02412500D01*
X00365750Y02411000D02*
X00368750D01*
X00367250Y02409500D02*
Y02412500D01*
X00325500Y02411000D02*
X00328500D01*
X00327000Y02409500D02*
Y02412500D01*
X00225500Y02411000D02*
X00228500D01*
X00227000Y02409500D02*
Y02412500D01*
X00264750Y02411000D02*
X00267750D01*
X00266250Y02409500D02*
Y02412500D01*
X00167500Y02411000D02*
X00170500D01*
X00169000Y02409500D02*
Y02412500D01*
X00127500Y02411000D02*
X00130500D01*
X00129000Y02409500D02*
Y02412500D01*
X00793500Y02560750D02*
X00796500D01*
X00795000Y02559250D02*
Y02562250D01*
X00753000Y02560750D02*
X00756000D01*
X00754500Y02559250D02*
Y02562250D01*
X00674500Y02562000D02*
X00677500D01*
X00676000Y02560500D02*
Y02563500D01*
X00634250Y02562000D02*
X00637250D01*
X00635750Y02560500D02*
Y02563500D01*
X00601000Y02539000D02*
X00604000D01*
X00602500Y02537500D02*
Y02540500D01*
X00572000Y02510500D02*
X00575000D01*
X00573500Y02509000D02*
Y02512000D01*
X00541750Y02481750D02*
X00544750D01*
X00543250Y02480250D02*
Y02483250D01*
X00521500Y02446750D02*
X00524500D01*
X00523000Y02445250D02*
Y02448250D01*
X00521500Y02406750D02*
X00524500D01*
X00523000Y02405250D02*
Y02408250D01*
X00521500Y02366000D02*
X00524500D01*
X00523000Y02364500D02*
Y02367500D01*
X00511867Y02326863D02*
X00514867D01*
X00513367Y02325363D02*
Y02328363D01*
X00472750Y02317750D02*
X00475750D01*
X00474250Y02316250D02*
Y02319250D01*
X00231000Y02317750D02*
X00234000D01*
X00232500Y02316250D02*
Y02319250D01*
X00271255Y02317750D02*
X00274255D01*
X00272755Y02316250D02*
Y02319250D01*
X00311755Y02317750D02*
X00314755D01*
X00313255Y02316250D02*
Y02319250D01*
X00352292Y02317750D02*
X00355292D01*
X00353792Y02316250D02*
Y02319250D01*
X00393255Y02317750D02*
X00396255D01*
X00394755Y02316250D02*
Y02319250D01*
X00432755Y02317750D02*
X00435755D01*
X00434255Y02316250D02*
Y02319250D01*
X00190750Y02317750D02*
X00193750D01*
X00192250Y02316250D02*
Y02319250D01*
X00161250Y02290750D02*
X00164250D01*
X00162750Y02289250D02*
Y02292250D01*
X00879500Y02353500D02*
X00882500D01*
X00881000Y02352000D02*
Y02355000D01*
X00850500Y02381750D02*
X00853500D01*
X00852000Y02380250D02*
Y02383250D01*
X00864250Y02477250D02*
X00867250D01*
X00865750Y02475750D02*
Y02478750D01*
X00835250Y02449500D02*
X00838250D01*
X00836750Y02448000D02*
Y02451000D01*
X00792750Y02411500D02*
X00795750D01*
X00794250Y02410000D02*
Y02413000D01*
X00751750Y02411000D02*
X00754750D01*
X00753250Y02409500D02*
Y02412500D01*
X00671500Y02411000D02*
X00674500D01*
X00673000Y02409500D02*
Y02412500D01*
X00636010Y02391260D02*
X00639010D01*
X00637510Y02389760D02*
Y02392760D01*
X00616750Y02357000D02*
X00619750D01*
X00618250Y02355500D02*
Y02358500D01*
X00616750Y02316750D02*
X00619750D01*
X00618250Y02315250D02*
Y02318250D01*
X00599500Y02280500D02*
X00602500D01*
X00601000Y02279000D02*
Y02282000D01*
X00571250Y02252000D02*
X00574250D01*
X00572750Y02250500D02*
Y02253500D01*
X00542330Y02223480D02*
X00545330D01*
X00543830Y02221980D02*
Y02224980D01*
X00501500Y02223480D02*
X00504500D01*
X00503000Y02221980D02*
Y02224980D01*
X00462000Y02223480D02*
X00465000D01*
X00463500Y02221980D02*
Y02224980D01*
X00421037Y02223480D02*
X00424038D01*
X00422537Y02221980D02*
Y02224980D01*
X00380500Y02223480D02*
X00383500D01*
X00382000Y02221980D02*
Y02224980D01*
X00340000Y02223480D02*
X00343000D01*
X00341500Y02221980D02*
Y02224980D01*
X00299745Y02223480D02*
X00302745D01*
X00301245Y02221980D02*
Y02224980D01*
X00570750Y01907250D02*
X00573750D01*
X00572250Y01905750D02*
Y01908750D01*
X00569000Y01871750D02*
X00572000D01*
X00570500Y01870250D02*
Y01873250D01*
X00547000Y01847000D02*
X00550000D01*
X00548500Y01845500D02*
Y01848500D01*
X00521000Y01821750D02*
X00524000D01*
X00522500Y01820250D02*
Y01823250D01*
X00480500Y01816500D02*
X00483500D01*
X00482000Y01815000D02*
Y01818000D01*
X00440250Y01816250D02*
X00443250D01*
X00441750Y01814750D02*
Y01817750D01*
X00398000Y01816250D02*
X00401000D01*
X00399500Y01814750D02*
Y01817750D01*
X00357000Y01816250D02*
X00360000D01*
X00358500Y01814750D02*
Y01817750D01*
X00323000Y01797250D02*
X00326000D01*
X00324500Y01795750D02*
Y01798750D01*
X00588500Y01935000D02*
X00591500D01*
X00590000Y01933500D02*
Y01936500D01*
X01407750Y01547500D02*
X01410750D01*
X01409250Y01546000D02*
Y01549000D01*
X01261250Y01600250D02*
X01264250D01*
X01262750Y01598750D02*
Y01601750D01*
X00547000Y01718250D02*
X00550000D01*
X00548500Y01716750D02*
Y01719750D01*
X00412250Y01715500D02*
X00415250D01*
X00413750Y01714000D02*
Y01717000D01*
X00782500Y01699000D02*
X00785500D01*
X00784000Y01697500D02*
Y01700500D01*
X00794000Y01602250D02*
X00797000D01*
X00795500Y01600750D02*
Y01603750D01*
X00186000Y01660000D02*
X00189000D01*
X00187500Y01658500D02*
Y01661500D01*
X00199750Y01704040D02*
X00202750D01*
X00201250Y01702540D02*
Y01705540D01*
X00276750Y01761750D02*
X00279750D01*
X00278250Y01760250D02*
Y01763250D01*
X00323000Y01757750D02*
X00326000D01*
X00324500Y01756250D02*
Y01759250D01*
X00969000Y01583500D02*
X00972000D01*
X00970500Y01582000D02*
Y01585000D01*
X00680248Y01839752D02*
X00685248D01*
X00682748Y01837252D02*
Y01842252D01*
X00653250Y01851000D02*
X00658250D01*
X00655750Y01848500D02*
Y01853500D01*
X01051000Y01641500D02*
X01056000D01*
X01053500Y01639000D02*
Y01644000D01*
M02*
